<svg xmlns="http://www.w3.org/2000/svg" xmlns:xlink="http://www.w3.org/1999/xlink" viewBox= "0 0 238 443" width="238px" height="443px">
<g xmlns="http://www.w3.org/2000/svg" id="AstronautV2.svg">
<path id="Shoe_and_Gloves" fill="#D8D8D8" d="M45,242.89999389648438C45.79999923706055,244.5,47,260.5,47.70000076293945,270.5C48.29999923706055,280.5,39.29999923706055,276.1000061035156,39.099998474121094,274.20001220703125C40.5,285,32.599998474121094,282,32.599998474121094,282C32.599998474121094,282,24.600000381469727,287,22.399999618530273,279.20001220703125C22.399999618530273,279.20001220703125,18.899999618530273,280.20001220703125,15.800000190734863,275.29998779296875C12.899999618530273,270.70001220703125,13.300000190734863,244.5,13.800000190734863,242.39999389648438C26,234.8000030517578,40.70000076293945,239.1999969482422,45,242.89999389648438zM191.1999969482422,234.5C190.6999969482422,236.3000030517578,189.10000610351562,249.39999389648438,189,253.3000030517578C188.8000030517578,265.3999938964844,197.5,259.3999938964844,197.5,259.3999938964844C197.5,259.3999938964844,197.6999969482422,264.3999938964844,197.6999969482422,266.5C197.6999969482422,268.5,201.3000030517578,276.8999938964844,208,271.20001220703125C208,271.20001220703125,214.6999969482422,274,217.3000030517578,267.6000061035156C218.6999969482422,269.20001220703125,222.3000030517578,267.1000061035156,223.8000030517578,262.1000061035156C225.3000030517578,257.1000061035156,223.3000030517578,231.60000610351562,218.60000610351562,226.39999389648438C213.60000610351562,223.6999969482422,191.6999969482422,232.6999969482422,191.1999969482422,234.5zM52.900001525878906,397.70001220703125C52.900001525878906,397.70001220703125,49.79999923706055,398.1000061035156,45.29999923706055,399.5C40.79999923706055,400.79998779296875,42.099998474121094,405.6000061035156,42,414.1000061035156C41.900001525878906,422.6000061035156,59.099998474121094,422,74,422C88.9000015258789,422,89.9000015258789,416.1000061035156,92.5999984741211,410.5C95.30000305175781,404.8999938964844,93,386.3999938964844,93,386.3999938964844C93,386.3999938964844,84.5,387.70001220703125,75.5,388.70001220703125C66.5,389.70001220703125,55,387.6000061035156,51.900001525878906,385.5L52.900001525878906,397.70001220703125zM126.69999694824219,406.1000061035156C125.9000015258789,412.5,135.6999969482422,420.3999938964844,142.39999389648438,425.5C149.10000610351562,430.6000061035156,162.1999969482422,430.29998779296875,172.10000610351562,429.29998779296875C182,428.29998779296875,181.89999389648438,422.3999938964844,181.60000610351562,414.29998779296875C181.3000030517578,406.29998779296875,170.89999389648438,404,170.89999389648438,404L171.60000610351562,393.1000061035156C171.60000610351562,393.1000061035156,162.10000610351562,397.70001220703125,151,397.70001220703125C139.89999389648438,397.70001220703125,132.39999389648438,396.3999938964844,127.19999694824219,394.8999938964844C127.0999984741211,395,126.19999694824219,399.70001220703125,126.69999694824219,406.1000061035156z"/>
<path id="Suit" fill="#FFFFFF" d="M34.900001525878906,123.5999984741211L34.900001525878906,123.5999984741211C32.20000076293945,118.30000305175781,28.799999237060547,109.5999984741211,30.200000762939453,101C31.399999618530273,94,34.20000076293945,91,36.900001525878906,89.5999984741211L36.900001525878906,89.5999984741211L37.79999923706055,120.69999694824219L34.900001525878906,123.5999984741211zM141.6999969482422,28.299999237060547C132,18.5,118.5999984741211,12.399999618530273,103.80000305175781,12.100000381469727C87.9000015258789,11.800000190734863,73.4000015258789,18.399999618530273,63.20000076293945,29.100000381469727L63.20000076293945,29.100000381469727L58,29.200000762939453C45.70000076293945,29.200000762939453,35.70000076293945,39.20000076293945,35.70000076293945,51.5L36.5,77.69999694824219L36.5,77.69999694824219C29,80.5,19.600000381469727,92.5,20.100000381469727,106.80000305175781C20.600000381469727,118.4000015258789,25.5,128,28.5,132.8000030517578L28.5,132.8000030517578C26.899999618530273,136.10000610351562,25.5,139.89999389648438,24.700000762939453,144.1999969482422C19,174.60000610351562,12,240,12.300000190734863,241.60000610351562C12.600000381469727,243.1999969482422,19.5,240.1999969482422,30.100000381469727,241.3000030517578C40.70000076293945,242.39999389648438,45.099998474121094,242.5,45.099998474121094,242.5C45.099998474121094,242.5,56.79999923706055,180.60000610351562,57.400001525878906,180C58,179.39999389648438,54.79999923706055,202.1999969482422,56,224.39999389648438C56,241.6999969482422,54,250.39999389648438,54.70000076293945,259.70001220703125C52.099998474121094,266.20001220703125,54.900001525878906,301.79998779296875,52,310.5C49.099998474121094,319.20001220703125,47.29999923706055,338.70001220703125,49,349.70001220703125C50.70000076293945,360.70001220703125,51.5,386.1000061035156,52.400001525878906,387.70001220703125C53.29999923706055,389.29998779296875,63.400001525878906,393,77.4000015258789,393.29998779296875C91.4000015258789,393.5,92.80000305175781,392.8999938964844,92.80000305175781,391.1000061035156C92.80000305175781,389.20001220703125,96,350.3999938964844,98.4000015258789,338C100.80000305175781,325.6000061035156,107.5,293.29998779296875,109.0999984741211,293C110.69999694824219,292.70001220703125,117.80000305175781,294.70001220703125,117.80000305175781,294.70001220703125C117.80000305175781,294.70001220703125,116.5999984741211,308.1000061035156,119.80000305175781,321C123,333.8999938964844,126.80000305175781,347.6000061035156,126.69999694824219,355.1000061035156C126.5999984741211,362.6000061035156,125.4000015258789,394.1000061035156,127.19999694824219,395.70001220703125C129,397.29998779296875,144.60000610351562,398.79998779296875,155.3000030517578,397.70001220703125C165.89999389648438,396.6000061035156,174.39999389648438,395.20001220703125,173.8000030517578,389.8999938964844C173.3000030517578,384.6000061035156,170.39999389648438,367.70001220703125,171.89999389648438,358.29998779296875C173.3000030517578,349,172,336.1000061035156,171.1999969482422,326.3999938964844C170.39999389648438,316.70001220703125,169.89999389648438,277.1000061035156,168.10000610351562,269.20001220703125C166.39999389648438,261.3999938964844,168.5,243.89999389648438,168.39999389648438,236.6999969482422C168.3000030517578,229.5,167.6999969482422,186.8000030517578,169,187.10000610351562C170.1999969482422,187.39999389648438,178.6999969482422,203.8000030517578,183.8000030517578,215.8000030517578C188.89999389648438,227.8000030517578,189.39999389648438,236.5,191.60000610351562,235.89999389648438C193.8000030517578,235.3000030517578,220.39999389648438,228.89999389648438,220.8000030517578,225.8000030517578C221.1999969482422,222.6999969482422,210.3000030517578,168.1999969482422,195.10000610351562,143.60000610351562C186.1999969482422,129.1999969482422,178,120.30000305175781,170.10000610351562,115.19999694824219L170.1999969482422,114.30000305175781L173.1999969482422,47.70000076293945C173.1999969482422,35.400001525878906,166.5,28.200000762939453,154.1999969482422,28.200000762939453L141.6999969482422,28.299999237060547L141.6999969482422,28.299999237060547z"/>
<path id="StrapsBox" fill="#FFFFFF" d="M102.9000015258789,122.30000305175781C116.69999694824219,122.30000305175781,129.8000030517578,117.30000305175781,140.10000610351562,108.19999694824219C140.3000030517578,113.80000305175781,134.60000610351562,126.69999694824219,106.80000305175781,127.19999694824219C76.80000305175781,127.69999694824219,67.5999984741211,115.0999984741211,67.30000305175781,109.5999984741211C76.80000305175781,117.30000305175781,88.80000305175781,122,101.9000015258789,122.30000305175781C102.19999694824219,122.30000305175781,102.5,122.30000305175781,102.9000015258789,122.30000305175781zM186.8000030517578,130.3000030517578C185.1999969482422,130.39999389648438,168.3000030517578,142.60000610351562,168.3000030517578,142.60000610351562L178.60000610351562,155.8000030517578L195.3000030517578,142C195.3000030517578,142.10000610351562,190.89999389648438,133.1999969482422,186.8000030517578,130.3000030517578zM133.89999389648438,149.60000610351562C133.89999389648438,149.60000610351562,133.89999389648438,149.60000610351562,133.89999389648438,149.60000610351562C138.89999389648438,147.3000030517578,158.1999969482422,109.9000015258789,158.1999969482422,109.9000015258789C158.1999969482422,109.9000015258789,153.5,106.80000305175781,148.60000610351562,108.80000305175781C147.39999389648438,110,131.8000030517578,141.60000610351562,127.5,146.6999969482422L127.19999694824219,147.10000610351562L92,146.89999389648438C77.69999694824219,132.1999969482422,62.900001525878906,109.4000015258789,62.900001525878906,109.4000015258789C62.900001525878906,109.4000015258789,56.900001525878906,107.69999694824219,53.70000076293945,110.9000015258789C53.20000076293945,112.19999694824219,74.80000305175781,139.89999389648438,85.80000305175781,151.89999389648438L85.80000305175781,151.8000030517578C85.80000305175781,151.8000030517578,85.80000305175781,151.8000030517578,85.80000305175781,151.89999389648438C85.80000305175781,151.89999389648438,85.80000305175781,152,85.80000305175781,152C85.80000305175781,152.10000610351562,85.80000305175781,152.1999969482422,85.80000305175781,152.3000030517578L85.69999694824219,159.60000610351562C72.9000015258789,159.89999389648438,69.4000015258789,178.10000610351562,68.5,194.60000610351562C67.5999984741211,211.1999969482422,54.70000076293945,209.39999389648438,54.70000076293945,209.39999389648438C54.70000076293945,209.39999389648438,52,214.39999389648438,54.5,218.60000610351562C54.70000076293945,219.89999389648438,76,217.89999389648438,76.30000305175781,198.5C76.5999984741211,179.1999969482422,78.5999984741211,169.89999389648438,85.5,169.8000030517578L85.4000015258789,176.1999969482422C85.30000305175781,179.3000030517578,87.80000305175781,181.8000030517578,90.9000015258789,181.89999389648438L128.8000030517578,182.10000610351562C131.89999389648438,182.1999969482422,134.39999389648438,179.6999969482422,134.5,176.60000610351562L134.89999389648438,152.6999969482422C134.89999389648438,151.60000610351562,134.5,150.5,133.89999389648438,149.60000610351562L133.89999389648438,149.60000610351562z"/>
<path id="Helmetinner" fill="#1D2A54" d="M101.4000015258789,36.099998474121094C70.9000015258789,35.599998474121094,56.400001525878906,51.79999923706055,55.5,53.20000076293945C54.70000076293945,54.5,54.400001525878906,68,54,92.19999694824219C59.20000076293945,102.80000305175781,79.80000305175781,121.30000305175781,101.69999694824219,121.69999694824219C121.69999694824219,122,139.3000030517578,111.69999694824219,149.1999969482422,95.9000015258789L148.39999389648438,49C148.39999389648438,49,131.8000030517578,36.70000076293945,101.4000015258789,36.099998474121094z"/>
<path id="Face" fill="#FFFFFF" d="M73.5,42.900001525878906C69.80000305175781,49.400001525878906,67.5999984741211,58.29999923706055,67.4000015258789,70C67.30000305175781,78.5,68,85.69999694824219,71.80000305175781,93.5C78,106.0999984741211,90.69999694824219,117.5,102,117.69999694824219C113.30000305175781,117.9000015258789,126.5999984741211,107.5999984741211,133.10000610351562,94.4000015258789C136.60000610351562,87.30000305175781,138.10000610351562,80.5,138.3000030517578,71.30000305175781C138.5,59.099998474121094,136.1999969482422,49.79999923706055,132.1999969482422,43C124.5999984741211,40.400001525878906,114.4000015258789,38.099998474121094,101.69999694824219,37.900001525878906C89.69999694824219,37.5,80.4000015258789,39.900001525878906,73.5,42.900001525878906z"/>
<path id="Hair" fill="#CC0000" d="M73.5,41.900001525878906C69.80000305175781,48.400001525878906,67.5999984741211,58.20000076293945,67.4000015258789,70C70.9000015258789,56.099998474121094,82.9000015258789,42.5,104.80000305175781,42.79999923706055C125.5999984741211,43.20000076293945,135,62.099998474121094,138.10000610351562,72.5C138.10000610351562,72.0999984741211,138.10000610351562,71.69999694824219,138.10000610351562,71.19999694824219C138.3000030517578,59,136,48.70000076293945,132,41.900001525878906C124.4000015258789,39.29999923706055,114.19999694824219,37,101.5,36.79999923706055C89.69999694824219,36.5,80.4000015258789,38.900001525878906,73.5,41.900001525878906z"/>
<path id="FaceBorder" d="M65.69999694824219,70C65.5,78.69999694824219,66.30000305175781,86.0999984741211,70.30000305175781,94.30000305175781C76.19999694824219,106.30000305175781,89.30000305175781,119.0999984741211,101.9000015258789,119.4000015258789L102.19999694824219,119.4000015258789C113.80000305175781,119.4000015258789,127.5999984741211,109,134.39999389648438,95.0999984741211C138,87.69999694824219,139.60000610351562,80.80000305175781,139.6999969482422,71.30000305175781C139.6999969482422,71.5999984741211,139.6999969482422,71.80000305175781,139.6999969482422,72.0999984741211L139.6999969482422,72.5999984741211C139.6999969482422,73.4000015258789,136.6999969482422,73.69999694824219,136.5,73C136.5,72.9000015258789,136.5,72.9000015258789,136.39999389648438,72.80000305175781C136.10000610351562,81,134.60000610351562,87.0999984741211,131.39999389648438,93.5999984741211C125.19999694824219,106.4000015258789,112.5999984741211,116,102.0999984741211,116L101.80000305175781,116C91.80000305175781,115.80000305175781,79.5,105.80000305175781,73,92.69999694824219C69.30000305175781,85.19999694824219,68.5999984741211,78.19999694824219,68.80000305175781,70.0999984741211C68.80000305175781,70.19999694824219,68.80000305175781,70.19999694824219,68.80000305175781,70.30000305175781C68.69999694824219,71.0999984741211,65.69999694824219,70.69999694824219,65.69999694824219,70"/>
<path id="HairBorder" d="M134.3000030517578,43.70000076293945C133.8000030517578,43.5,133.3000030517578,43.29999923706055,132.8000030517578,43.20000076293945C132.6999969482422,43.20000076293945,132.5,43.099998474121094,132.39999389648438,43.099998474121094C132,43,131.6999969482422,42.79999923706055,131.3000030517578,42.70000076293945C131.10000610351562,42.599998474121094,130.89999389648438,42.599998474121094,130.6999969482422,42.5C130.39999389648438,42.400001525878906,130,42.29999923706055,129.6999969482422,42.20000076293945C129.6999969482422,42.20000076293945,129.6999969482422,42.20000076293945,129.6999969482422,42.20000076293945C133.3000030517578,47.70000076293945,135.60000610351562,54.79999923706055,136.3000030517578,63.5C131.6999969482422,54,122.30000305175781,41.5,104.80000305175781,41.20000076293945C104.5,41.20000076293945,104.19999694824219,41.20000076293945,103.9000015258789,41.20000076293945C86.5999984741211,41.20000076293945,75.5999984741211,49.599998474121094,69.80000305175781,59.70000076293945C70.80000305175781,52.5,72.9000015258789,46.599998474121094,75.9000015258789,42C75.80000305175781,42,75.69999694824219,42.099998474121094,75.69999694824219,42.099998474121094C75.5,42.20000076293945,75.4000015258789,42.20000076293945,75.19999694824219,42.29999923706055C74.80000305175781,42.5,74.4000015258789,42.599998474121094,74.0999984741211,42.79999923706055C74,42.900001525878906,73.80000305175781,42.900001525878906,73.69999694824219,43C73.30000305175781,43.20000076293945,72.9000015258789,43.29999923706055,72.5,43.5C72.4000015258789,43.5,72.30000305175781,43.599998474121094,72.19999694824219,43.599998474121094C71.80000305175781,43.79999923706055,71.4000015258789,44,71,44.20000076293945C71,44.20000076293945,71,44.20000076293945,71,44.20000076293945C67.9000015258789,50.599998474121094,65.9000015258789,59,65.69999694824219,70.0999984741211C65.69999694824219,70.9000015258789,66.30000305175781,71.5999984741211,67.0999984741211,71.69999694824219C67.9000015258789,71.80000305175781,68.69999694824219,71.30000305175781,68.9000015258789,70.5C72.0999984741211,57.79999923706055,83.19999694824219,44.20000076293945,104.69999694824219,44.599998474121094C126.5,45,134.5,66.5999984741211,136.5,73.19999694824219C136.6999969482422,73.9000015258789,137.3000030517578,74.4000015258789,138.10000610351562,74.4000015258789C138.1999969482422,74.4000015258789,138.1999969482422,74.4000015258789,138.3000030517578,74.4000015258789C139.10000610351562,74.30000305175781,139.6999969482422,73.5999984741211,139.6999969482422,72.80000305175781L139.6999969482422,72.30000305175781C139.6999969482422,72,139.6999969482422,71.80000305175781,139.6999969482422,71.5C140,60.20000076293945,138.10000610351562,50.900001525878906,134.3000030517578,43.70000076293945z"/>
<path fill="#7DD841" d="M113.5999984741211,159.5C114.4000015258789,159.5,115.0999984741211,160.1999969482422,115.0999984741211,161C115.0999984741211,161.8000030517578,114.4000015258789,162.5,113.5999984741211,162.5C112.80000305175781,162.5,112.0999984741211,161.8000030517578,112.0999984741211,161S112.80000305175781,159.5,113.5999984741211,159.5zM113.5999984741211,164.6999969482422C114.4000015258789,164.6999969482422,115.0999984741211,165.39999389648438,115.0999984741211,166.1999969482422C115.0999984741211,167,114.4000015258789,167.6999969482422,113.5999984741211,167.6999969482422C112.80000305175781,167.6999969482422,112.0999984741211,167,112.0999984741211,166.1999969482422S112.80000305175781,164.6999969482422,113.5999984741211,164.6999969482422z"/>
<path id="yellowDot" fill="#E0D72F" d="M112.0999984741211,171.39999389648438C112.0999984741211,170.60000610351562,112.80000305175781,169.89999389648438,113.5999984741211,169.89999389648438C114.4000015258789,169.89999389648438,115.0999984741211,170.60000610351562,115.0999984741211,171.39999389648438C115.0999984741211,172.1999969482422,114.4000015258789,172.89999389648438,113.5999984741211,172.89999389648438C112.80000305175781,172.89999389648438,112.0999984741211,172.1999969482422,112.0999984741211,171.39999389648438"/>
<path id="SuitBorder" d="M93.5,173.8000030517578L93.5,159.8000030517578C93.5,158.89999389648438,94.19999694824219,158.1999969482422,95.0999984741211,158.1999969482422C96,158.1999969482422,96.69999694824219,158.89999389648438,96.69999694824219,159.8000030517578L96.69999694824219,173.8000030517578C96.69999694824219,174.6999969482422,96,175.39999389648438,95.0999984741211,175.39999389648438S93.5,174.6999969482422,93.5,173.8000030517578zM100.69999694824219,175.5C101.5999984741211,175.5,102.30000305175781,174.8000030517578,102.30000305175781,173.89999389648438L102.30000305175781,159.89999389648438C102.30000305175781,159,101.5999984741211,158.3000030517578,100.69999694824219,158.3000030517578C99.80000305175781,158.3000030517578,99.0999984741211,159,99.0999984741211,159.89999389648438L99.0999984741211,173.89999389648438C99,174.6999969482422,99.80000305175781,175.5,100.69999694824219,175.5zM106.19999694824219,175.5C107.0999984741211,175.5,107.80000305175781,174.8000030517578,107.80000305175781,173.89999389648438L107.80000305175781,159.89999389648438C107.80000305175781,159,107.0999984741211,158.3000030517578,106.19999694824219,158.3000030517578C105.30000305175781,158.3000030517578,104.5999984741211,159,104.5999984741211,159.89999389648438L104.5999984741211,173.89999389648438C104.5999984741211,174.6999969482422,105.30000305175781,175.5,106.19999694824219,175.5zM77.80000305175781,269.1000061035156C76.9000015258789,269,76.0999984741211,269.6000061035156,76,270.5C75.9000015258789,271.3999938964844,76.5,272.20001220703125,77.4000015258789,272.29998779296875C85.19999694824219,273.20001220703125,96.0999984741211,278.79998779296875,99.9000015258789,283.8999938964844C100.19999694824219,284.29998779296875,100.69999694824219,284.5,101.19999694824219,284.5C101.5,284.5,101.9000015258789,284.3999938964844,102.19999694824219,284.20001220703125C102.9000015258789,283.70001220703125,103.0999984741211,282.6000061035156,102.5,281.8999938964844C98.19999694824219,276.20001220703125,86.4000015258789,270.1000061035156,77.80000305175781,269.1000061035156zM135.8000030517578,276.70001220703125C125.69999694824219,280.5,124.0999984741211,285,124,285.5C123.69999694824219,286.3999938964844,124.19999694824219,287.29998779296875,125.0999984741211,287.5C125.30000305175781,287.5,125.4000015258789,287.6000061035156,125.5999984741211,287.6000061035156C126.30000305175781,287.6000061035156,127,287.1000061035156,127.19999694824219,286.3999938964844C127.19999694824219,286.3999938964844,128.60000610351562,282.8999938964844,137,279.70001220703125C137.8000030517578,279.3999938964844,138.3000030517578,278.5,138,277.6000061035156C137.60000610351562,276.79998779296875,136.6999969482422,276.3999938964844,135.8000030517578,276.70001220703125zM171.6999969482422,114.5L174.60000610351562,47.70000076293945C174.60000610351562,34.29999923706055,167.10000610351562,26.600000381469727,154,26.600000381469727L142.3000030517578,26.700000762939453L142.3000030517578,26.700000762939453C132.39999389648438,16.899999618530273,118.80000305175781,10.800000190734863,103.80000305175781,10.5C88.5999984741211,10.199999809265137,74.19999694824219,16,63.29999923706055,26.600000381469727C63,26.899999618530273,62.79999923706055,27.100000381469727,62.5,27.399999618530273L62.5,27.399999618530273L58,27.399999618530273C44.79999923706055,27.399999618530273,34.099998474121094,38.099998474121094,34.099998474121094,51.400001525878906L34.900001525878906,76.5L34.900001525878906,76.5C32.70000076293945,77.5,30.399999618530273,79.19999694824219,28.200000762939453,81.5C21.799999237060547,88.0999984741211,18.200000762939453,97.5999984741211,18.600000381469727,106.69999694824219C19.100000381469727,118.0999984741211,23.700000762939453,127.5999984741211,26.799999237060547,132.8000030517578L26.799999237060547,132.8000030517578C25.299999237060547,136.10000610351562,24.100000381469727,139.6999969482422,23.299999237060547,143.8000030517578C17.799999237060547,172.5,10.199999809265137,239.3000030517578,10.699999809265137,241.89999389648438C10.800000190734863,242.3000030517578,11,243,11.899999618530273,243.39999389648438L11.899999618530273,243.39999389648438C11.899999618530273,243.39999389648438,11.899999618530273,243.39999389648438,11.899999618530273,243.39999389648438C11.5,249.3000030517578,11.199999809265137,271.29998779296875,14.300000190734863,276.1000061035156C16.700000762939453,280,19.5,280.79998779296875,21.200000762939453,280.8999938964844C22.700000762939453,284.6000061035156,25.700000762939453,285.20001220703125,27.399999618530273,285.20001220703125C29.600000381469727,285.20001220703125,31.700000762939453,284.29998779296875,32.70000076293945,283.70001220703125C33.20000076293945,283.79998779296875,33.900001525878906,284,34.79999923706055,284C36.599998474121094,284,38.099998474121094,283.3999938964844,39.20000076293945,282.1000061035156C40.099998474121094,281,40.70000076293945,279.6000061035156,40.79999923706055,277.70001220703125C41.79999923706055,278.1000061035156,42.900001525878906,278.3999938964844,43.900001525878906,278.3999938964844L43.900001525878906,278.3999938964844C45.400001525878906,278.3999938964844,46.70000076293945,277.8999938964844,47.70000076293945,276.8999938964844C49,275.5,49.599998474121094,273.29998779296875,49.400001525878906,270.3999938964844C48.70000076293945,259.3999938964844,47.70000076293945,246,46.79999923706055,242.8000030517578C46.79999923706055,242.8000030517578,46.79999923706055,242.8000030517578,46.79999923706055,242.8000030517578C48.400001525878906,234.60000610351562,50.20000076293945,224.89999389648438,52,215.60000610351562C52,215.60000610351562,52,215.60000610351562,52,215.60000610351562C52.099998474121094,216.8000030517578,52.400001525878906,218.10000610351562,53.20000076293945,219.39999389648438C53.400001525878906,219.89999389648438,53.900001525878906,220.1999969482422,54.400001525878906,220.39999389648438L54.400001525878906,220.39999389648438C54.400001525878906,221.6999969482422,54.5,223,54.599998474121094,224.39999389648438C54.599998474121094,232.89999389648438,54.099998474121094,239.1999969482422,53.70000076293945,244.8000030517578C53.29999923706055,250.39999389648438,52.900001525878906,254.8000030517578,53.20000076293945,259.5C51.900001525878906,263.20001220703125,52,272.6000061035156,52,283.5C52,294,52,305.79998779296875,50.599998474121094,310.1000061035156C47.79999923706055,318.6000061035156,45.79999923706055,338.29998779296875,47.5,350.1000061035156C48.400001525878906,355.70001220703125,49,365.1000061035156,49.5,373.3999938964844C50,381.1000061035156,50.29999923706055,385,50.599998474121094,387L50.599998474121094,387L51.400001525878906,396.6000061035156C50,396.8999938964844,47.79999923706055,397.29998779296875,45.099998474121094,398.20001220703125C40.400001525878906,399.6000061035156,40.5,403.8999938964844,40.599998474121094,409.3999938964844C40.599998474121094,410.79998779296875,40.70000076293945,412.5,40.599998474121094,414.29998779296875C40.599998474121094,416.20001220703125,41.20000076293945,417.8999938964844,42.5,419.20001220703125C46.70000076293945,423.5,57,423.79998779296875,68.9000015258789,423.79998779296875L73.19999694824219,423.79998779296875L74.19999694824219,423.79998779296875C88.5999984741211,423.79998779296875,91.0999984741211,418.29998779296875,93.5,413C93.69999694824219,412.5,94,411.8999938964844,94.19999694824219,411.3999938964844C96.9000015258789,405.70001220703125,95.19999694824219,389.6000061035156,94.80000305175781,386.70001220703125L94.80000305175781,386.70001220703125C95.69999694824219,375.70001220703125,98.0999984741211,348.3999938964844,100.0999984741211,338.5C103.0999984741211,322.79998779296875,108.30000305175781,299.1000061035156,110.0999984741211,294.8999938964844C111.5,295,114.19999694824219,295.70001220703125,116.19999694824219,296.20001220703125C116,300,115.69999694824219,310.8999938964844,118.4000015258789,321.6000061035156C118.80000305175781,323.29998779296875,119.30000305175781,325.1000061035156,119.69999694824219,326.8999938964844C122.5,337.79998779296875,125.30000305175781,349.1000061035156,125.19999694824219,355.29998779296875C125.19999694824219,356.5,125.0999984741211,358.20001220703125,125.0999984741211,360.3999938964844C124.5,384.1000061035156,124.69999694824219,392.5,125.5,395.6000061035156L125.5,395.6000061035156C125.30000305175781,397,124.80000305175781,401.1000061035156,125.0999984741211,406.3999938964844C124.4000015258789,413.29998779296875,133.5,421.1000061035156,141.5,427.1000061035156C145.6999969482422,430.20001220703125,152.39999389648438,431.79998779296875,161.60000610351562,431.79998779296875C164.8000030517578,431.79998779296875,168.39999389648438,431.6000061035156,172.3000030517578,431.20001220703125C183.89999389648438,430,183.5,422.20001220703125,183.1999969482422,414.6000061035156C182.89999389648438,407.20001220703125,175.6999969482422,404.1000061035156,172.60000610351562,403.1000061035156L173.10000610351562,395.20001220703125L173.10000610351562,395.20001220703125C174.8000030517578,393.8999938964844,175.6999969482422,392.20001220703125,175.5,389.8999938964844C175.39999389648438,388.79998779296875,175.1999969482422,387.29998779296875,175,385.5C174.10000610351562,378.20001220703125,172.5,366,173.60000610351562,358.70001220703125C174.89999389648438,350.20001220703125,173.89999389648438,338.8999938964844,173.1999969482422,329.79998779296875C173.10000610351562,328.6000061035156,173,327.5,172.89999389648438,326.3999938964844C172.60000610351562,323,172.39999389648438,315.8999938964844,172.10000610351562,307.79998779296875C171.60000610351562,292.1000061035156,171,274.29998779296875,169.8000030517578,269.1000061035156C168.6999969482422,264.20001220703125,169.3000030517578,254.89999389648438,169.6999969482422,247.39999389648438C169.89999389648438,243.1999969482422,170.1999969482422,239.5,170.10000610351562,237C169.89999389648438,228.3000030517578,169.6999969482422,201.6999969482422,170.10000610351562,191.8000030517578C173,196.89999389648438,178.3000030517578,207.39999389648438,182.3000030517578,216.8000030517578C184.60000610351562,222.1999969482422,186,227,186.89999389648438,230.5C187.8000030517578,233.5,188.39999389648438,235.60000610351562,189.1999969482422,236.8000030517578L189.1999969482422,236.8000030517578C189.1999969482422,236.8000030517578,189.1999969482422,236.8000030517578,189.1999969482422,236.8000030517578C188.5,241.3000030517578,187.39999389648438,250.39999389648438,187.39999389648438,253.60000610351562C187.3000030517578,257.29998779296875,188,259.79998779296875,189.5,261.29998779296875C190.5,262.29998779296875,191.6999969482422,262.79998779296875,193.1999969482422,262.79998779296875C194.1999969482422,262.79998779296875,195.1999969482422,262.6000061035156,196,262.29998779296875C196.10000610351562,263.79998779296875,196.10000610351562,265.70001220703125,196.10000610351562,266.79998779296875C196.10000610351562,268.3999938964844,197.1999969482422,271.20001220703125,199,273C200.3000030517578,274.3999938964844,201.89999389648438,275.1000061035156,203.60000610351562,275.1000061035156L203.60000610351562,275.1000061035156C205.10000610351562,275.1000061035156,206.6999969482422,274.5,208.3000030517578,273.29998779296875C209,273.5,210.10000610351562,273.70001220703125,211.1999969482422,273.70001220703125C214.10000610351562,273.70001220703125,216.5,272.3999938964844,218,270C218.10000610351562,270,218.3000030517578,270,218.5,270L218.5,270C221.1999969482422,270,224.10000610351562,267,225.39999389648438,262.79998779296875C226.89999389648438,257.79998779296875,225.39999389648438,236.60000610351562,221.39999389648438,228C221.39999389648438,228,221.39999389648438,228,221.39999389648438,228L221.39999389648438,228C222.1999969482422,227.3000030517578,222.3000030517578,226.6999969482422,222.3000030517578,226.3000030517578C222.6999969482422,222.6999969482422,211.8000030517578,168.39999389648438,196.5,143.3000030517578C196.89999389648438,142.8000030517578,197,142.1999969482422,196.6999969482422,141.60000610351562C196.5,141.1999969482422,192.10000610351562,132.3000030517578,187.6999969482422,129.1999969482422C187.39999389648438,129,187,128.89999389648438,186.60000610351562,128.89999389648438L186.5,128.89999389648438C181.60000610351562,122.5999984741211,176.8000030517578,117.9000015258789,171.6999969482422,114.5M147.6999969482422,95.30000305175781C138.10000610351562,110.4000015258789,121,120.4000015258789,101.9000015258789,120.0999984741211C81.9000015258789,119.80000305175781,64.5999984741211,108.30000305175781,55.79999923706055,91.80000305175781L55.79999923706055,91.80000305175781C56.099998474121094,73.5,56.400001525878906,56.29999923706055,57.099998474121094,54.099998474121094C57.599998474121094,53.5,62,48.400001525878906,71,44.099998474121094C71,44.099998474121094,71,44.099998474121094,71,44.099998474121094C71.4000015258789,43.900001525878906,71.80000305175781,43.70000076293945,72.19999694824219,43.5C72.30000305175781,43.5,72.4000015258789,43.400001525878906,72.5,43.400001525878906C72.9000015258789,43.20000076293945,73.30000305175781,43.099998474121094,73.69999694824219,42.900001525878906C73.80000305175781,42.79999923706055,74,42.79999923706055,74.0999984741211,42.70000076293945C74.5,42.5,74.9000015258789,42.400001525878906,75.19999694824219,42.20000076293945C75.4000015258789,42.099998474121094,75.5,42.099998474121094,75.69999694824219,42C76.0999984741211,41.900001525878906,76.5,41.70000076293945,76.9000015258789,41.599998474121094C77.0999984741211,41.5,77.30000305175781,41.5,77.4000015258789,41.400001525878906C77.80000305175781,41.29999923706055,78.19999694824219,41.099998474121094,78.5999984741211,41C78.80000305175781,40.900001525878906,79,40.900001525878906,79.19999694824219,40.79999923706055C79.5999984741211,40.70000076293945,80,40.5,80.4000015258789,40.400001525878906C80.5,40.400001525878906,80.69999694824219,40.29999923706055,80.80000305175781,40.29999923706055C81.5999984741211,40.099998474121094,82.4000015258789,39.900001525878906,83.19999694824219,39.70000076293945C83.5,39.599998474121094,83.80000305175781,39.5,84.19999694824219,39.5C84.5,39.400001525878906,84.9000015258789,39.400001525878906,85.19999694824219,39.29999923706055C85.5999984741211,39.20000076293945,85.9000015258789,39.099998474121094,86.30000305175781,39.099998474121094C86.5999984741211,39,87,39,87.30000305175781,38.900001525878906C87.69999694824219,38.79999923706055,88.0999984741211,38.79999923706055,88.5,38.70000076293945C88.80000305175781,38.599998474121094,89.19999694824219,38.599998474121094,89.5,38.5C89.9000015258789,38.400001525878906,90.30000305175781,38.400001525878906,90.69999694824219,38.29999923706055C91,38.29999923706055,91.4000015258789,38.20000076293945,91.69999694824219,38.20000076293945C92.0999984741211,38.20000076293945,92.5999984741211,38.099998474121094,93,38.099998474121094C93.30000305175781,38.099998474121094,93.69999694824219,38,94,38C94.5,38,95,37.900001525878906,95.5,37.900001525878906C95.80000305175781,37.900001525878906,96.19999694824219,37.900001525878906,96.5,37.79999923706055C97,37.79999923706055,97.5999984741211,37.79999923706055,98.19999694824219,37.70000076293945C98.5,37.70000076293945,98.80000305175781,37.70000076293945,99.0999984741211,37.70000076293945C100,37.70000076293945,100.80000305175781,37.70000076293945,101.69999694824219,37.70000076293945C102.5,37.70000076293945,103.4000015258789,37.70000076293945,104.19999694824219,37.79999923706055C104.5,37.79999923706055,104.69999694824219,37.79999923706055,105,37.79999923706055C105.5,37.79999923706055,106.0999984741211,37.900001525878906,106.5999984741211,37.900001525878906C106.9000015258789,37.900001525878906,107.19999694824219,37.900001525878906,107.5999984741211,38C108.0999984741211,38,108.5999984741211,38.099998474121094,109,38.099998474121094C109.30000305175781,38.099998474121094,109.69999694824219,38.20000076293945,110,38.20000076293945C110.4000015258789,38.20000076293945,110.9000015258789,38.29999923706055,111.30000305175781,38.29999923706055C111.5999984741211,38.29999923706055,112,38.400001525878906,112.30000305175781,38.400001525878906C112.69999694824219,38.400001525878906,113.0999984741211,38.5,113.5,38.599998474121094C113.80000305175781,38.599998474121094,114.19999694824219,38.70000076293945,114.5,38.70000076293945C114.9000015258789,38.79999923706055,115.30000305175781,38.79999923706055,115.69999694824219,38.900001525878906C116,38.900001525878906,116.30000305175781,39,116.69999694824219,39.099998474121094C117.0999984741211,39.20000076293945,117.5,39.20000076293945,117.9000015258789,39.29999923706055C118.19999694824219,39.400001525878906,118.5,39.400001525878906,118.80000305175781,39.5C119.19999694824219,39.599998474121094,119.5999984741211,39.599998474121094,119.9000015258789,39.70000076293945C120.19999694824219,39.79999923706055,120.5,39.79999923706055,120.80000305175781,39.900001525878906C121.19999694824219,40,121.5,40.099998474121094,121.9000015258789,40.099998474121094C122.19999694824219,40.20000076293945,122.5,40.20000076293945,122.80000305175781,40.29999923706055C123.19999694824219,40.400001525878906,123.5,40.5,123.9000015258789,40.5C124.19999694824219,40.599998474121094,124.5,40.599998474121094,124.69999694824219,40.70000076293945C125,40.79999923706055,125.4000015258789,40.900001525878906,125.69999694824219,41C126,41.099998474121094,126.19999694824219,41.099998474121094,126.5,41.20000076293945C126.80000305175781,41.29999923706055,127.19999694824219,41.400001525878906,127.5,41.5C127.69999694824219,41.599998474121094,128,41.599998474121094,128.1999969482422,41.70000076293945C128.5,41.79999923706055,128.89999389648438,41.900001525878906,129.1999969482422,42C129.39999389648438,42.099998474121094,129.60000610351562,42.099998474121094,129.89999389648438,42.20000076293945C130.3000030517578,42.29999923706055,130.60000610351562,42.400001525878906,130.89999389648438,42.5C131.10000610351562,42.599998474121094,131.3000030517578,42.599998474121094,131.5,42.70000076293945C131.89999389648438,42.79999923706055,132.3000030517578,43,132.60000610351562,43.099998474121094C132.6999969482422,43.099998474121094,132.89999389648438,43.20000076293945,133,43.20000076293945C140.6999969482422,45.900001525878906,145.5,48.79999923706055,147.10000610351562,49.900001525878906L147.6999969482422,95.30000305175781zM159.5,108.9000015258789C159.39999389648438,108.80000305175781,159.3000030517578,108.5999984741211,159.10000610351562,108.5C159,108.4000015258789,156,106.5,152.10000610351562,106.5C150.6999969482422,106.5,149.3000030517578,106.80000305175781,148,107.30000305175781C147.8000030517578,107.4000015258789,147.60000610351562,107.5,147.39999389648438,107.69999694824219C147.39999389648438,107.69999694824219,147.3000030517578,107.80000305175781,147.3000030517578,107.80000305175781L141.8000030517578,107.69999694824219C142,107.5,142.10000610351562,107.4000015258789,142.3000030517578,107.19999694824219C150.5,99.0999984741211,156,88.9000015258789,158.10000610351562,77.80000305175781C156.8000030517578,84.5,154.3000030517578,91,150.60000610351562,96.80000305175781C156,88.19999694824219,158.89999389648438,78.19999694824219,159.10000610351562,67.9000015258789C159.39999389648438,53.400001525878906,154.10000610351562,40.099998474121094,145.1999969482422,29.899999618530273L145.1999969482422,29.899999618530273L153.89999389648438,29.799999237060547C165.10000610351562,29.799999237060547,171.3000030517578,36.099998474121094,171.3000030517578,47.599998474121094L168.39999389648438,112.5L168.39999389648438,112.5C165.60000610351562,110.80000305175781,162.60000610351562,109.5999984741211,159.5,108.9000015258789L159.5,108.9000015258789zM158.89999389648438,112.0999984741211C167.3000030517578,114.30000305175781,175.39999389648438,120.19999694824219,183.5,130.1999969482422L183.5,130.1999969482422C183.5,130.1999969482422,183.39999389648438,130.1999969482422,183.39999389648438,130.3000030517578C183.3000030517578,130.3000030517578,183,130.60000610351562,182.89999389648438,130.60000610351562C182.8000030517578,130.60000610351562,182.8000030517578,130.6999969482422,182.6999969482422,130.6999969482422C182.5,130.8000030517578,182.10000610351562,131,182.10000610351562,131C181.89999389648438,131.10000610351562,181.6999969482422,131.1999969482422,181.5,131.39999389648438C181.39999389648438,131.39999389648438,181.3000030517578,131.5,181.3000030517578,131.60000610351562C181.1999969482422,131.6999969482422,180.6999969482422,132,180.60000610351562,132.10000610351562C180.5,132.1999969482422,180.3000030517578,132.3000030517578,180.1999969482422,132.39999389648438C180.10000610351562,132.5,179.60000610351562,132.8000030517578,179.39999389648438,132.89999389648438C179.3000030517578,133,178.6999969482422,133.39999389648438,178.60000610351562,133.5C178.5,133.60000610351562,177.39999389648438,134.3000030517578,177.3000030517578,134.39999389648438C177.10000610351562,134.5,176.5,135,176.3000030517578,135.10000610351562C176.10000610351562,135.1999969482422,175.39999389648438,135.6999969482422,175.1999969482422,135.8000030517578C175,135.89999389648438,174.1999969482422,136.5,174.10000610351562,136.60000610351562C173.89999389648438,136.8000030517578,173.10000610351562,137.3000030517578,172.89999389648438,137.5C172.6999969482422,137.6999969482422,171.8000030517578,138.3000030517578,171.60000610351562,138.39999389648438C171.3000030517578,138.60000610351562,171.10000610351562,138.8000030517578,170.8000030517578,139C170.60000610351562,139.10000610351562,169.60000610351562,139.89999389648438,169.3000030517578,140.10000610351562C169.10000610351562,140.1999969482422,169,140.3000030517578,168.8000030517578,140.39999389648438C168.3000030517578,140.8000030517578,167.8000030517578,141.10000610351562,167.3000030517578,141.5C166.89999389648438,141.8000030517578,166.6999969482422,142.10000610351562,166.60000610351562,142.60000610351562C166.5,143,166.6999969482422,143.5,166.89999389648438,143.8000030517578L177.1999969482422,157C177.5,157.3000030517578,177.89999389648438,157.60000610351562,178.3000030517578,157.60000610351562C178.39999389648438,157.60000610351562,178.39999389648438,157.60000610351562,178.5,157.60000610351562C178.89999389648438,157.60000610351562,179.1999969482422,157.5,179.5,157.1999969482422L194,145.3000030517578L194,145.3000030517578C208.3000030517578,169.1999969482422,218.89999389648438,220.10000610351562,219.10000610351562,225.5C218.3000030517578,226.3000030517578,214,228.6999969482422,192.3000030517578,234.10000610351562C192,234.1999969482422,191.8000030517578,234.1999969482422,191.60000610351562,234.3000030517578C191.1999969482422,233.39999389648438,190.5,231.3000030517578,190,229.3000030517578C189,225.6999969482422,187.60000610351562,220.8000030517578,185.1999969482422,215.3000030517578C182.8000030517578,209.6999969482422,179.5,202.60000610351562,176.3000030517578,196.5C176.3000030517578,196.5,176.3000030517578,196.39999389648438,176.3000030517578,196.39999389648438L176.3000030517578,196.39999389648438C181.5,194.60000610351562,185.10000610351562,192.89999389648438,185.3000030517578,192.89999389648438C186.10000610351562,192.5,186.5,191.60000610351562,186.10000610351562,190.6999969482422C185.6999969482422,189.89999389648438,184.8000030517578,189.5,183.89999389648438,189.89999389648438C183.89999389648438,189.89999389648438,180.10000610351562,191.6999969482422,174.8000030517578,193.5C174.39999389648438,192.6999969482422,174,191.89999389648438,173.60000610351562,191.3000030517578L173.60000610351562,191.3000030517578C179.89999389648438,189.6999969482422,187.1999969482422,184.3000030517578,187.60000610351562,184.10000610351562C188.3000030517578,183.60000610351562,188.5,182.5,187.89999389648438,181.8000030517578C187.39999389648438,181.10000610351562,186.3000030517578,180.89999389648438,185.60000610351562,181.5C185.5,181.60000610351562,177.60000610351562,187.39999389648438,171.8000030517578,188.39999389648438L171.8000030517578,188.39999389648438C171.1999969482422,187.39999389648438,170.6999969482422,186.8000030517578,170.3000030517578,186.39999389648438L170.3000030517578,186.39999389648438C167.3000030517578,175.1999969482422,159.3000030517578,160.1999969482422,154.8000030517578,157.39999389648438C154,156.89999389648438,153,157.1999969482422,152.60000610351562,157.89999389648438C152.10000610351562,158.6999969482422,152.39999389648438,159.6999969482422,153.10000610351562,160.10000610351562C156.5,162.1999969482422,164.1999969482422,176.39999389648438,167.10000610351562,187.10000610351562C166.6999969482422,188.6999969482422,166.39999389648438,193.5,166.39999389648438,209.89999389648438C166.39999389648438,221.3000030517578,166.60000610351562,233.3000030517578,166.6999969482422,236.89999389648438C166.8000030517578,239.3000030517578,166.5,243.10000610351562,166.3000030517578,247C165.8000030517578,255.10000610351562,165.3000030517578,264.29998779296875,166.5,269.6000061035156C167.60000610351562,274.5,168.1999969482422,292.8999938964844,168.6999969482422,307.79998779296875C168.8000030517578,310.70001220703125,168.89999389648438,313.5,169,316.1000061035156C169,316.1000061035156,168.89999389648438,316.1000061035156,168.89999389648438,316.1000061035156C161.10000610351562,316.6000061035156,149.1999969482422,316.1000061035156,149.10000610351562,316.1000061035156C148.1999969482422,316.1000061035156,147.39999389648438,316.79998779296875,147.39999389648438,317.70001220703125C147.39999389648438,318.6000061035156,148.10000610351562,319.3999938964844,149,319.3999938964844C149.3000030517578,319.3999938964844,154.5,319.6000061035156,160.3000030517578,319.6000061035156C163.3000030517578,319.6000061035156,166.39999389648438,319.5,169.1999969482422,319.3999938964844L169.39999389648438,322.70001220703125L169.39999389648438,322.70001220703125C160.39999389648438,323.20001220703125,146.1999969482422,324.20001220703125,146,324.20001220703125C145.10000610351562,324.29998779296875,144.39999389648438,325,144.5,325.8999938964844C144.60000610351562,326.79998779296875,145.3000030517578,327.3999938964844,146.10000610351562,327.3999938964844C146.10000610351562,327.3999938964844,146.1999969482422,327.3999938964844,146.1999969482422,327.3999938964844C146.3000030517578,327.3999938964844,160.60000610351562,326.3999938964844,169.60000610351562,325.8999938964844L169.60000610351562,325.8999938964844C169.60000610351562,326.20001220703125,169.60000610351562,326.3999938964844,169.6999969482422,326.6000061035156C169.8000030517578,327.70001220703125,169.89999389648438,328.79998779296875,170,330C170,330.1000061035156,170,330.1000061035156,170,330.20001220703125L170,330.20001220703125C163.89999389648438,330.70001220703125,154.10000610351562,332.1000061035156,154,332.20001220703125C153.10000610351562,332.29998779296875,152.5,333.20001220703125,152.60000610351562,334C152.6999969482422,334.79998779296875,153.39999389648438,335.3999938964844,154.1999969482422,335.3999938964844C154.3000030517578,335.3999938964844,154.39999389648438,335.3999938964844,154.39999389648438,335.3999938964844C154.5,335.3999938964844,164.3000030517578,334,170.1999969482422,333.5L170.1999969482422,333.5C170.6999969482422,339.20001220703125,171.10000610351562,345.5,170.89999389648438,351.20001220703125C165.89999389648438,351.20001220703125,158.39999389648438,351.70001220703125,158,351.70001220703125C157.10000610351562,351.79998779296875,156.39999389648438,352.5,156.5,353.3999938964844C156.60000610351562,354.29998779296875,157.3000030517578,354.8999938964844,158.10000610351562,354.8999938964844C158.10000610351562,354.8999938964844,158.1999969482422,354.8999938964844,158.1999969482422,354.8999938964844C158.3000030517578,354.8999938964844,165.8000030517578,354.5,170.6999969482422,354.3999938964844C170.60000610351562,355.70001220703125,170.5,357,170.3000030517578,358.1000061035156C169.10000610351562,365.79998779296875,170.6999969482422,378.29998779296875,171.6999969482422,385.79998779296875C171.89999389648438,387.6000061035156,172.10000610351562,389,172.1999969482422,390.1000061035156C172.60000610351562,394,163.60000610351562,395.29998779296875,155.10000610351562,396.1000061035156C152.8000030517578,396.29998779296875,150.1999969482422,396.3999938964844,147.3000030517578,396.3999938964844C137.8000030517578,396.3999938964844,130,395.20001220703125,128.39999389648438,394.5C127.30000305175781,391.1000061035156,127.9000015258789,368.70001220703125,128.10000610351562,360.20001220703125C128.1999969482422,358,128.1999969482422,356.29998779296875,128.1999969482422,355.1000061035156C128.3000030517578,348.3999938964844,125.5,337.3999938964844,122.5999984741211,325.79998779296875C122.19999694824219,324,121.69999694824219,322.29998779296875,121.30000305175781,320.5C118.19999694824219,308.1000061035156,119.30000305175781,294.8999938964844,119.30000305175781,294.79998779296875C119.4000015258789,294,118.9000015258789,293.29998779296875,118.0999984741211,293.1000061035156C117.4000015258789,292.8999938964844,111.5999984741211,291.29998779296875,109.30000305175781,291.29998779296875C109,291.29998779296875,108.80000305175781,291.29998779296875,108.5999984741211,291.3999938964844C107.30000305175781,291.6000061035156,106.5,291.79998779296875,102.30000305175781,310.6000061035156C100.19999694824219,319.8999938964844,97.9000015258789,331.20001220703125,96.5999984741211,337.70001220703125C94.19999694824219,350,91,388.8999938964844,91,391.1000061035156C91,391.1000061035156,91,391.1000061035156,91,391.20001220703125C90.4000015258789,391.5,88.4000015258789,391.79998779296875,82.4000015258789,391.79998779296875C80.9000015258789,391.79998779296875,79.19999694824219,391.79998779296875,77.30000305175781,391.70001220703125C64,391.5,55.099998474121094,388.1000061035156,53.70000076293945,387C53.400001525878906,385.6000061035156,52.900001525878906,379,52.5,373.1000061035156C51.900001525878906,364.79998779296875,51.29999923706055,355.29998779296875,50.400001525878906,349.6000061035156C50.29999923706055,348.79998779296875,50.20000076293945,348,50.099998474121094,347.1000061035156L49.900001525878906,347C50.099998474121094,347.1000061035156,50.29999923706055,347.1000061035156,50.5,347.1000061035156C50.599998474121094,347.1000061035156,50.599998474121094,347.1000061035156,50.70000076293945,347.1000061035156C59.5,346.1000061035156,73.30000305175781,346.3999938964844,73.4000015258789,346.3999938964844C73.4000015258789,346.3999938964844,73.4000015258789,346.3999938964844,73.4000015258789,346.3999938964844C74.30000305175781,346.3999938964844,75,345.70001220703125,75,344.79998779296875C75,343.8999938964844,74.30000305175781,343.20001220703125,73.4000015258789,343.1000061035156C72.80000305175781,343.1000061035156,59.20000076293945,342.79998779296875,50.20000076293945,343.79998779296875C50,343.79998779296875,49.900001525878906,343.8999938964844,49.70000076293945,343.8999938964844L49.70000076293945,343.8999938964844C49.599998474121094,342.1000061035156,49.599998474121094,340.20001220703125,49.599998474121094,338.29998779296875C58.900001525878906,338.29998779296875,66.30000305175781,337.79998779296875,66.4000015258789,337.79998779296875C67.30000305175781,337.70001220703125,68,337,67.9000015258789,336.1000061035156C67.80000305175781,335.20001220703125,67.0999984741211,334.5,66.19999694824219,334.6000061035156C66.0999984741211,334.6000061035156,58.900001525878906,335.1000061035156,49.70000076293945,335.1000061035156L49.70000076293945,335.1000061035156C49.79999923706055,333.3999938964844,49.900001525878906,331.70001220703125,50,330L50,330C59.599998474121094,330,68.69999694824219,330.29998779296875,68.69999694824219,330.29998779296875C68.69999694824219,330.29998779296875,68.69999694824219,330.29998779296875,68.80000305175781,330.29998779296875C69.69999694824219,330.29998779296875,70.4000015258789,329.6000061035156,70.4000015258789,328.70001220703125C70.4000015258789,327.79998779296875,69.69999694824219,327.1000061035156,68.80000305175781,327C68.69999694824219,327,59.79999923706055,326.70001220703125,50.20000076293945,326.70001220703125C50.79999923706055,320.3999938964844,51.900001525878906,314.6000061035156,53.099998474121094,311C54.70000076293945,306.29998779296875,54.599998474121094,294.70001220703125,54.599998474121094,283.3999938964844C54.599998474121094,273.3999938964844,54.599998474121094,263.20001220703125,55.70000076293945,260.29998779296875C55.79999923706055,260.1000061035156,55.79999923706055,259.79998779296875,55.79999923706055,259.6000061035156C55.5,255,55.79999923706055,250.60000610351562,56.20000076293945,245C56.599998474121094,239.39999389648438,57.099998474121094,233,57.099998474121094,224.3000030517578C57,223.10000610351562,57,221.8000030517578,56.900001525878906,220.5C63,219.8000030517578,77.19999694824219,215.1999969482422,77.4000015258789,198.60000610351562C77.69999694824219,181.1999969482422,79.30000305175781,173.5,83.30000305175781,171.8000030517578L83.19999694824219,176.1999969482422C83.0999984741211,180.1999969482422,86.30000305175781,183.39999389648438,90.30000305175781,183.5L128.1999969482422,183.6999969482422C128.1999969482422,183.6999969482422,128.3000030517578,183.6999969482422,128.3000030517578,183.6999969482422C132.1999969482422,183.6999969482422,135.39999389648438,180.5,135.5,176.60000610351562L135.89999389648438,152.6999969482422C135.89999389648438,151.6999969482422,135.6999969482422,150.8000030517578,135.39999389648438,149.89999389648438C141.1999969482422,144.3000030517578,154.10000610351562,120.0999984741211,158.3000030517578,112L158.89999389648438,112.0999984741211zM193.1999969482422,141.6999969482422L178.8000030517578,153.60000610351562L170.60000610351562,143C177.1999969482422,138.1999969482422,184.3000030517578,133.39999389648438,186.60000610351562,132.1999969482422C189,134.39999389648438,191.8000030517578,139,193.1999969482422,141.6999969482422zM218.60000610351562,229.39999389648438C222,236.89999389648438,223.5,257.3999938964844,222.1999969482422,261.6000061035156C221.3000030517578,264.5,219.8000030517578,266,218.89999389648438,266.3999938964844C218.89999389648438,261.79998779296875,218.3000030517578,255.6999969482422,217.6999969482422,252.8000030517578C217.5,251.89999389648438,216.6999969482422,251.39999389648438,215.8000030517578,251.5C214.89999389648438,251.6999969482422,214.39999389648438,252.5,214.5,253.39999389648438C215.10000610351562,256.20001220703125,215.6999969482422,262.70001220703125,215.60000610351562,267.20001220703125L215.60000610351562,267.20001220703125C214.6999969482422,269.20001220703125,213.3000030517578,270.1000061035156,211.1999969482422,270.1000061035156C210.6999969482422,270.1000061035156,210.1999969482422,270,209.8000030517578,270L209.8000030517578,270C210.1999969482422,264.3999938964844,209.3000030517578,251.39999389648438,209.3000030517578,250.8000030517578C209.1999969482422,249.89999389648438,208.5,249.1999969482422,207.60000610351562,249.3000030517578C206.6999969482422,249.39999389648438,206,250.10000610351562,206.10000610351562,251C206.10000610351562,251.10000610351562,207,265.20001220703125,206.60000610351562,270.20001220703125L206.60000610351562,270.20001220703125C205.5,271,204.5,271.5,203.60000610351562,271.5L203.60000610351562,271.5C202.8000030517578,271.5,202,271.1000061035156,201.3000030517578,270.3999938964844C200,269.1000061035156,199.3000030517578,267,199.3000030517578,266.5C199.3000030517578,264.70001220703125,199.1999969482422,260.6000061035156,199.10000610351562,259.6000061035156C199.10000610351562,259.5,199.10000610351562,259.3999938964844,199.10000610351562,259.3999938964844L199.10000610351562,259.6000061035156C200.10000610351562,255.60000610351562,199.8000030517578,249.10000610351562,199.8000030517578,248.89999389648438C199.8000030517578,248,199,247.3000030517578,198.10000610351562,247.3000030517578C197.1999969482422,247.3000030517578,196.5,248.10000610351562,196.5,249C196.5,249.10000610351562,196.6999969482422,254.8000030517578,196,258.3999938964844C195.3000030517578,258.79998779296875,194.10000610351562,259.29998779296875,193.10000610351562,259.29998779296875C192.5,259.29998779296875,192.10000610351562,259.1000061035156,191.6999969482422,258.79998779296875C191.1999969482422,258.29998779296875,190.39999389648438,257,190.5,253.39999389648438C190.60000610351562,250.3000030517578,191.60000610351562,241.8000030517578,192.1999969482422,237.5L193,237.3000030517578C193.10000610351562,237.1999969482422,215,231.10000610351562,218.60000610351562,229.39999389648438zM46,270.6000061035156C46.099998474121094,272.5,45.79999923706055,274,45.20000076293945,274.6000061035156C44.900001525878906,275,44.400001525878906,275.1000061035156,43.79999923706055,275.1000061035156C42.400001525878906,275.1000061035156,40.900001525878906,274.20001220703125,40.5,273.70001220703125C39.70000076293945,269.20001220703125,39.5,261.3999938964844,39.5,261.3999938964844C39.5,260.5,38.79999923706055,259.79998779296875,37.79999923706055,259.79998779296875C36.900001525878906,259.79998779296875,36.20000076293945,260.6000061035156,36.20000076293945,261.5C36.20000076293945,261.79998779296875,36.29999923706055,269.70001220703125,37.20000076293945,274.3999938964844C37.70000076293945,277.79998779296875,37.099998474121094,279.29998779296875,36.5,280C36.099998474121094,280.5,35.400001525878906,280.70001220703125,34.5,280.70001220703125C34,280.70001220703125,33.599998474121094,280.6000061035156,33.29999923706055,280.6000061035156L33.29999923706055,280.6000061035156C31.5,277.79998779296875,30.299999237060547,272.29998779296875,30.600000381469727,268.70001220703125C30.700000762939453,267.79998779296875,30,267,29.100000381469727,266.8999938964844C28.200000762939453,266.79998779296875,27.399999618530273,267.5,27.299999237060547,268.3999938964844C27,271.8999938964844,28,277.5,29.899999618530273,281.29998779296875C29.100000381469727,281.6000061035156,28.100000381469727,281.8999938964844,27.100000381469727,281.8999938964844C26,281.8999938964844,24.399999618530273,281.6000061035156,23.600000381469727,278.70001220703125L23.600000381469727,278.70001220703125C22.399999618530273,274.6000061035156,22.299999237060547,269.20001220703125,22.299999237060547,269.20001220703125C22.299999237060547,268.29998779296875,21.600000381469727,267.6000061035156,20.700000762939453,267.6000061035156C20.700000762939453,267.6000061035156,20.700000762939453,267.6000061035156,20.700000762939453,267.6000061035156C19.799999237060547,267.6000061035156,19.100000381469727,268.29998779296875,19.100000381469727,269.20001220703125C19.100000381469727,269.3999938964844,19.100000381469727,273.3999938964844,19.899999618530273,277.29998779296875C19,276.8999938964844,17.899999618530273,276.1000061035156,16.799999237060547,274.29998779296875C14.5,270.70001220703125,14.399999618530273,248.5,14.899999618530273,243.39999389648438C15.300000190734863,243.3000030517578,15.800000190734863,243.3000030517578,16.200000762939453,243.1999969482422C18.399999618530273,242.89999389648438,21.299999237060547,242.5,24.899999618530273,242.5C26.5,242.5,28.100000381469727,242.60000610351562,29.600000381469727,242.6999969482422C37,243.5,41.29999923706055,243.8000030517578,43.29999923706055,243.8000030517578L43.29999923706055,243.8000030517578C44.20000076293945,246.5,45.099998474121094,257.1000061035156,46,270.6000061035156zM61.900001525878906,110.9000015258789C64.0999984741211,114.30000305175781,76.4000015258789,132.60000610351562,88.69999694824219,145.8000030517578C87.19999694824219,146.39999389648438,86,147.5,85.19999694824219,148.8000030517578C74.4000015258789,136.6999969482422,58.5,116.0999984741211,55.70000076293945,111.4000015258789C56.599998474121094,110.9000015258789,57.79999923706055,110.5999984741211,59.29999923706055,110.5999984741211C60.29999923706055,110.5999984741211,61.29999923706055,110.80000305175781,61.900001525878906,110.9000015258789zM35.400001525878906,92.69999694824219L36.20000076293945,120C35.900001525878906,120.30000305175781,35.599998474121094,120.5,35.29999923706055,120.80000305175781C32.900001525878906,115.69999694824219,30.5,108.30000305175781,31.799999237060547,101.19999694824219C32.599998474121094,97,33.900001525878906,94.4000015258789,35.400001525878906,92.69999694824219L35.400001525878906,92.69999694824219zM138.39999389648438,110.69999694824219C138.1999969482422,112,137.60000610351562,113.69999694824219,136.39999389648438,115.4000015258789C133.8000030517578,119,126.4000015258789,125.19999694824219,106.80000305175781,125.5999984741211C106.19999694824219,125.5999984741211,105.5,125.5999984741211,104.9000015258789,125.5999984741211C104.9000015258789,125.5999984741211,104.9000015258789,125.5999984741211,104.9000015258789,125.5999984741211C84.4000015258789,125.5999984741211,75.5,119.69999694824219,72.0999984741211,116.19999694824219C70.69999694824219,114.69999694824219,69.80000305175781,113.30000305175781,69.4000015258789,112.19999694824219C78.5,119,89.80000305175781,123.0999984741211,102,123.30000305175781C102.30000305175781,123.30000305175781,102.69999694824219,123.30000305175781,103,123.30000305175781C115.9000015258789,123.30000305175781,128.39999389648438,118.9000015258789,138.39999389648438,110.69999694824219zM132.8000030517578,176.60000610351562C132.8000030517578,178.6999969482422,131,180.5,128.89999389648438,180.5L128.89999389648438,182.10000610351562L128.8000030517578,180.5L90.9000015258789,180.3000030517578C88.69999694824219,180.3000030517578,87,178.5,87,176.3000030517578L87.4000015258789,152.39999389648438C87.4000015258789,150.3000030517578,89.19999694824219,148.5,91.4000015258789,148.5L91.4000015258789,148.5L129.3000030517578,148.6999969482422C130.39999389648438,148.6999969482422,131.3000030517578,149.10000610351562,132.10000610351562,149.89999389648438C132.89999389648438,150.6999969482422,133.1999969482422,151.6999969482422,133.1999969482422,152.6999969482422L132.8000030517578,176.60000610351562zM128.39999389648438,397.79998779296875C132.6999969482422,399,141.3000030517578,399.6000061035156,147.39999389648438,399.6000061035156C150.39999389648438,399.6000061035156,153.10000610351562,399.5,155.5,399.20001220703125C160.10000610351562,398.70001220703125,165.60000610351562,398.20001220703125,169.6999969482422,396.70001220703125L169.6999969482422,396.70001220703125L169.39999389648438,402.3999938964844L169.39999389648438,402.3999938964844C161.5,402.6000061035156,145.3000030517578,405.20001220703125,142,410.5C141.5,411.29998779296875,141.8000030517578,412.29998779296875,142.5,412.70001220703125C142.8000030517578,412.8999938964844,143.10000610351562,412.8999938964844,143.39999389648438,412.8999938964844C143.89999389648438,412.8999938964844,144.5,412.6000061035156,144.8000030517578,412.1000061035156C147,408.5,162.6999969482422,405.3999938964844,170.89999389648438,405.6000061035156L170.60000610351562,405.6000061035156C170.6999969482422,405.6000061035156,179.6999969482422,407.70001220703125,180,414.3999938964844C180.39999389648438,423,180.1999969482422,426.79998779296875,172,427.70001220703125C158,429.1000061035156,148.39999389648438,427.8999938964844,143.5,424.20001220703125C139.60000610351562,421.29998779296875,127.5999984741211,412.29998779296875,128.39999389648438,406.29998779296875C128.39999389648438,406.20001220703125,128.39999389648438,406.1000061035156,128.39999389648438,406C128.10000610351562,402.6000061035156,128.1999969482422,399.70001220703125,128.39999389648438,397.79998779296875L128.39999389648438,397.79998779296875zM150.1999969482422,49C150.1999969482422,48.5,150,48,149.5,47.70000076293945C148.8000030517578,47.20000076293945,132.1999969482422,35,101.5,34.5C101,34.5,100.5,34.5,100,34.5C71.30000305175781,34.5,56,49.400001525878906,54.20000076293945,52.29999923706055C53.400001525878906,53.70000076293945,53.099998474121094,58.79999923706055,52.599998474121094,84.5999984741211C50.5,78.5999984741211,49.5,72.30000305175781,49.599998474121094,65.9000015258789C50.099998474121094,36.79999923706055,74.4000015258789,13.199999809265137,103.69999694824219,13.699999809265137C133,14.199999809265137,156.39999389648438,38.5,155.89999389648438,67.80000305175781C155.8000030517578,75.4000015258789,154,82.9000015258789,150.8000030517578,89.69999694824219L150.1999969482422,49zM130.39999389648438,145.60000610351562C133.6999969482422,140.5,139.39999389648438,129.60000610351562,144.10000610351562,120.5999984741211C146.5,116,149,111.30000305175781,149.6999969482422,110.0999984741211C150.5,109.80000305175781,151.3000030517578,109.69999694824219,152.1999969482422,109.69999694824219C153.8000030517578,109.69999694824219,155.1999969482422,110.0999984741211,156.10000610351562,110.5C147.60000610351562,126.80000305175781,137.8000030517578,143.6999969482422,134.1999969482422,147.39999389648438L134.1999969482422,147.39999389648438C133.10000610351562,146.39999389648438,131.8000030517578,145.8000030517578,130.39999389648438,145.60000610351562L130.39999389648438,145.60000610351562L130.39999389648438,145.60000610351562zM145.5,110.9000015258789C144.60000610351562,112.5999984741211,143.1999969482422,115.19999694824219,141.1999969482422,119.0999984741211C136.39999389648438,128.3000030517578,129.10000610351562,142.1999969482422,126.4000015258789,145.5L92.5999984741211,145.3000030517578C85.5999984741211,138,78.4000015258789,128.8000030517578,73.0999984741211,121.4000015258789C73.0999984741211,121.4000015258789,73.0999984741211,121.4000015258789,73.0999984741211,121.4000015258789L73.0999984741211,121.4000015258789C78.30000305175781,125,87.9000015258789,128.89999389648438,104.80000305175781,128.89999389648438C104.80000305175781,128.89999389648438,104.80000305175781,128.89999389648438,104.80000305175781,128.89999389648438C105.4000015258789,128.89999389648438,106.0999984741211,128.89999389648438,106.80000305175781,128.89999389648438C126.80000305175781,128.60000610351562,135.3000030517578,122.5,139,117.4000015258789C140.60000610351562,115.0999984741211,141.39999389648438,112.9000015258789,141.6999969482422,110.9000015258789L145.5,110.9000015258789zM52,111C47.70000076293945,112.5,43.400001525878906,114.5999984741211,39.400001525878906,117.5L39.400001525878906,117.5L38.599998474121094,90.69999694824219L38.599998474121094,90.69999694824219C39.900001525878906,90.19999694824219,41.20000076293945,90.0999984741211,42.099998474121094,90.0999984741211C42.5,90.0999984741211,42.79999923706055,90.0999984741211,43.099998474121094,90C45.70000076293945,89.69999694824219,47.599998474121094,87,47.599998474121094,83.5C47.599998474121094,79.80000305175781,45.400001525878906,75.9000015258789,40.400001525878906,75.5C39.70000076293945,75.4000015258789,38.900001525878906,75.5,38.20000076293945,75.5999984741211L38.20000076293945,75.5999984741211L37.5,51.5C37.5,40.099998474121094,46.79999923706055,30.799999237060547,58.20000076293945,30.799999237060547L59.70000076293945,30.799999237060547L59.70000076293945,30.799999237060547C51.400001525878906,40.70000076293945,46.79999923706055,53,46.599998474121094,66C46.400001525878906,75.4000015258789,48.599998474121094,84.69999694824219,52.900001525878906,93L53,93.0999984741211C56,98.9000015258789,60,104.0999984741211,64.80000305175781,108.4000015258789L64.30000305175781,108.4000015258789C64.0999984741211,108.19999694824219,63.79999923706055,108,63.5,107.9000015258789C63.400001525878906,107.9000015258789,61.599998474121094,107.4000015258789,59.400001525878906,107.4000015258789C56.599998474121094,107.4000015258789,54.29999923706055,108.19999694824219,52.70000076293945,109.80000305175781C52.5,109.9000015258789,52.400001525878906,110.0999984741211,52.29999923706055,110.30000305175781C52.20000076293945,110.5,52.20000076293945,110.5999984741211,52.20000076293945,110.9000015258789L52,111zM53.5,114C53.5,114.0999984741211,53.599998474121094,114.0999984741211,53.599998474121094,114.19999694824219C53.70000076293945,114.30000305175781,53.70000076293945,114.4000015258789,53.79999923706055,114.5C53.79999923706055,114.5999984741211,53.900001525878906,114.5999984741211,53.900001525878906,114.69999694824219C54,114.80000305175781,54.099998474121094,115,54.20000076293945,115.0999984741211C54.20000076293945,115.0999984741211,54.20000076293945,115.0999984741211,54.20000076293945,115.19999694824219C54.29999923706055,115.4000015258789,54.400001525878906,115.5999984741211,54.599998474121094,115.80000305175781C54.599998474121094,115.9000015258789,54.70000076293945,115.9000015258789,54.70000076293945,116C54.79999923706055,116.0999984741211,54.900001525878906,116.30000305175781,55,116.4000015258789C55.099998474121094,116.5,55.099998474121094,116.5999984741211,55.20000076293945,116.5999984741211C55.29999923706055,116.69999694824219,55.400001525878906,116.9000015258789,55.5,117C55.599998474121094,117.0999984741211,55.599998474121094,117.19999694824219,55.70000076293945,117.19999694824219C55.79999923706055,117.4000015258789,56,117.5999984741211,56.099998474121094,117.69999694824219C56.20000076293945,117.80000305175781,56.20000076293945,117.80000305175781,56.29999923706055,117.9000015258789C56.5,118.19999694824219,56.70000076293945,118.4000015258789,56.900001525878906,118.69999694824219C56.900001525878906,118.80000305175781,57,118.80000305175781,57.099998474121094,118.9000015258789C57.29999923706055,119.0999984741211,57.400001525878906,119.30000305175781,57.599998474121094,119.5999984741211C57.70000076293945,119.69999694824219,57.79999923706055,119.80000305175781,57.79999923706055,119.9000015258789C58,120.0999984741211,58.099998474121094,120.30000305175781,58.29999923706055,120.5C58.400001525878906,120.5999984741211,58.5,120.69999694824219,58.599998474121094,120.80000305175781C58.79999923706055,121,58.900001525878906,121.30000305175781,59.099998474121094,121.5C59.20000076293945,121.5999984741211,59.29999923706055,121.69999694824219,59.29999923706055,121.80000305175781C59.599998474121094,122.0999984741211,59.79999923706055,122.5,60.099998474121094,122.9000015258789C60.099998474121094,123,60.20000076293945,123,60.20000076293945,123.0999984741211C60.400001525878906,123.4000015258789,60.70000076293945,123.69999694824219,60.900001525878906,124C61,124.0999984741211,61.099998474121094,124.30000305175781,61.20000076293945,124.4000015258789C61.400001525878906,124.69999694824219,61.599998474121094,124.9000015258789,61.79999923706055,125.19999694824219C61.900001525878906,125.30000305175781,62,125.5,62.099998474121094,125.5999984741211C62.29999923706055,125.9000015258789,62.599998474121094,126.19999694824219,62.79999923706055,126.5C62.900001525878906,126.5999984741211,63,126.80000305175781,63.099998474121094,126.9000015258789C63.400001525878906,127.30000305175781,63.79999923706055,127.80000305175781,64.19999694824219,128.3000030517578C70,135.6999969482422,78.0999984741211,145.6999969482422,84.0999984741211,152.39999389648438L84.0999984741211,152.1999969482422L84.0999984741211,152.39999389648438L84,158L84,158C73.69999694824219,159.3000030517578,68.0999984741211,171.1999969482422,66.80000305175781,194.39999389648438C66.19999694824219,204.60000610351562,60.79999923706055,207.10000610351562,57.29999923706055,207.60000610351562L57.29999923706055,207.60000610351562C57.5,198.3000030517578,58.20000076293945,190.10000610351562,58.599998474121094,185.1999969482422C59,181,59.099998474121094,179.8000030517578,58.900001525878906,179.1999969482422L58.900001525878906,179.1999969482422C60.099998474121094,170,62.5,162,62.599998474121094,161.89999389648438C62.900001525878906,161,62.400001525878906,160.10000610351562,61.5,159.89999389648438C60.599998474121094,159.60000610351562,59.70000076293945,160.10000610351562,59.5,161C59.400001525878906,161.39999389648438,56.70000076293945,169.89999389648438,55.599998474121094,179.6999969482422L55.599998474121094,179.89999389648438C55.099998474121094,181.8000030517578,54,186.8000030517578,51.400001525878906,200.10000610351562L51.400001525878906,200.10000610351562C43.599998474121094,197.89999389648438,32.599998474121094,196.6999969482422,29.899999618530273,196.89999389648438C29,196.89999389648438,28.299999237060547,197.6999969482422,28.399999618530273,198.60000610351562C28.399999618530273,199.5,29.200000762939453,200.1999969482422,30.100000381469727,200.10000610351562C32.400001525878906,200,43.29999923706055,201.10000610351562,50.79999923706055,203.3000030517578L50.79999923706055,203.3000030517578C50.599998474121094,204.10000610351562,50.5,204.89999389648438,50.29999923706055,205.6999969482422L50.29999923706055,205.6999969482422C43.5,204.8000030517578,36.79999923706055,203.60000610351562,36.70000076293945,203.60000610351562C35.79999923706055,203.39999389648438,35,204,34.79999923706055,204.89999389648438C34.599998474121094,205.8000030517578,35.20000076293945,206.60000610351562,36.099998474121094,206.8000030517578C36.20000076293945,206.8000030517578,42.79999923706055,208,49.599998474121094,208.89999389648438C48,217,46.099998474121094,227.39999389648438,43.599998474121094,240.5C41.599998474121094,240.39999389648438,37.29999923706055,240.10000610351562,30.100000381469727,239.39999389648438C28.399999618530273,239.1999969482422,26.700000762939453,239.10000610351562,25,239.10000610351562C21.200000762939453,239.10000610351562,18.100000381469727,239.5,15.899999618530273,239.8000030517578C15.100000381469727,239.89999389648438,14.399999618530273,240,13.800000190734863,240.10000610351562C14.399999618530273,231.10000610351562,21,172.3000030517578,26.399999618530273,144.10000610351562C29.799999237060547,126.30000305175781,41.900001525878906,117.4000015258789,53.29999923706055,113.5999984741211L53.5,114zM84,161.5L84,161.5L83.9000015258789,168.5C76.69999694824219,169.89999389648438,75,180.8000030517578,74.69999694824219,198.60000610351562C74.4000015258789,214.1999969482422,59.70000076293945,217.39999389648438,55.79999923706055,217.39999389648438C55.70000076293945,217.39999389648438,55.599998474121094,217.39999389648438,55.599998474121094,217.39999389648438C54.5,215.10000610351562,55.20000076293945,212.5,55.70000076293945,211.1999969482422C55.70000076293945,211.1999969482422,55.70000076293945,211.1999969482422,55.70000076293945,211.1999969482422C58.900001525878906,211.1999969482422,69.19999694824219,210,70.0999984741211,194.8000030517578C71.30000305175781,174.10000610351562,75.9000015258789,163,84,161.5zM92.0999984741211,394.1000061035156C92.5,400,92.5,406.8999938964844,91.19999694824219,409.70001220703125C90.9000015258789,410.29998779296875,90.69999694824219,410.79998779296875,90.4000015258789,411.3999938964844C88.19999694824219,416.3999938964844,86.4000015258789,420.29998779296875,74,420.29998779296875L73.0999984741211,420.29998779296875L68.80000305175781,420.29998779296875C60.599998474121094,420.29998779296875,48.29999923706055,420.29998779296875,44.70000076293945,416.6000061035156C44,415.8999938964844,43.70000076293945,415.1000061035156,43.70000076293945,414C43.70000076293945,412.20001220703125,43.70000076293945,410.5,43.70000076293945,409C43.599998474121094,403,43.79999923706055,401.6000061035156,45.900001525878906,400.8999938964844C49.400001525878906,399.8999938964844,52,399.3999938964844,52.900001525878906,399.20001220703125C53,399.20001220703125,53,399.20001220703125,53.099998474121094,399.20001220703125C54.099998474121094,399.29998779296875,55.5,399.29998779296875,57.20000076293945,399.3999938964844C62.29999923706055,399.6000061035156,71.69999694824219,400.1000061035156,73.80000305175781,401.1000061035156C74,401.20001220703125,74.30000305175781,401.29998779296875,74.5,401.29998779296875C75.0999984741211,401.29998779296875,75.69999694824219,401,76,400.3999938964844C76.4000015258789,399.6000061035156,76.0999984741211,398.6000061035156,75.19999694824219,398.20001220703125C72.69999694824219,397,65.5999984741211,396.6000061035156,57.29999923706055,396.20001220703125C56.29999923706055,396.20001220703125,55.29999923706055,396.1000061035156,54.5,396.1000061035156L54.5,396.1000061035156L54.099998474121094,390.70001220703125L54.099998474121094,390.70001220703125C58.79999923706055,392.79998779296875,67.80000305175781,394.70001220703125,77.4000015258789,394.8999938964844C79.4000015258789,394.8999938964844,81.0999984741211,395,82.5999984741211,395C87.0999984741211,394.8999938964844,90.19999694824219,394.79998779296875,92.0999984741211,394.1000061035156zM44.29999923706055,83.4000015258789C44.29999923706055,85.19999694824219,43.5,86.69999694824219,42.70000076293945,86.69999694824219C42.599998474121094,86.69999694824219,42.599998474121094,86.69999694824219,42.5,86.69999694824219C42.400001525878906,86.69999694824219,42.099998474121094,86.69999694824219,41.900001525878906,86.69999694824219C39.20000076293945,86.9000015258789,30.899999618530273,87.30000305175781,28.600000381469727,100.5999984741211C27.100000381469727,109.19999694824219,30.200000762939453,117.69999694824219,32.900001525878906,123.30000305175781L28.5,129.3000030517578C25.700000762939453,124.19999694824219,22.100000381469727,116,21.700000762939453,106.5C21.399999618530273,98.19999694824219,24.600000381469727,89.69999694824219,30.399999618530273,83.69999694824219C33.5,80.5,36.900001525878906,78.5,39.5,78.5C39.599998474121094,78.5,39.79999923706055,78.5,39.900001525878906,78.5C44,79,44.29999923706055,82.4000015258789,44.29999923706055,83.4000015258789z"/>
<path id="dot2" fill="#1D79FF" stroke="#000000" stroke-width="3.25" stroke-miterlimit="10" d="M125.5999984741211,205.6999969482422C125.5999984741211,200.60000610351562,129.6999969482422,196.5,134.8000030517578,196.5C139.89999389648438,196.5,144,200.60000610351562,144,205.6999969482422C144,210.8000030517578,139.89999389648438,214.89999389648438,134.8000030517578,214.89999389648438S125.5999984741211,210.8000030517578,125.5999984741211,205.6999969482422"/>
<path id="dot1" fill="#CC0000" stroke="#000000" stroke-width="3.25" stroke-miterlimit="10" d="M95.19999694824219,217.39999389648438C95.19999694824219,211.3000030517578,100.0999984741211,206.39999389648438,106.19999694824219,206.39999389648438C112.30000305175781,206.39999389648438,117.19999694824219,211.3000030517578,117.19999694824219,217.39999389648438C117.19999694824219,223.5,112.30000305175781,228.39999389648438,106.19999694824219,228.39999389648438S95.19999694824219,223.5,95.19999694824219,217.39999389648438"/>
</g>
</svg>