<svg xmlns="http://www.w3.org/2000/svg" xmlns:xlink="http://www.w3.org/1999/xlink" viewBox= "0 0 198 164" width="198px" height="164px">
<g xmlns="http://www.w3.org/2000/svg" id="Baby2V2.svg">
<path id="Onesie" fill="#FFFEDE" d="M160.58999633789062,105.65889739990234C160.58999633789062,102.7428970336914,160.67050170898438,83.38829803466797,158.26739501953125,78.48040008544922C157.99209594726562,77.91829681396484,151.4447021484375,78.87149810791016,150.83999633789062,79.40889739990234C150.25340270996094,79.9302978515625,149.65020751953125,81.68150329589844,149.08270263671875,84.0916976928711C147.52589416503906,85.4845962524414,145.38400268554688,86.51460266113281,142.3498992919922,86.65889739990234C131.83990478515625,87.15889739990234,129.5998992919922,65.90890502929688,123.34989929199219,67.90890502929688C119.34989929199219,69.19889831542969,117.84989929199219,73.15890502929688,94.59970092773438,77.65889739990234C71.34970092773438,82.15889739990234,56.599700927734375,85.40889739990234,55.099700927734375,102.40889739990234C53.599700927734375,119.40899658203125,61.599700927734375,129.90899658203125,77.59970092773438,128.90899658203125C86.01470184326172,128.3831024169922,98.16190338134766,125.50530242919922,108.91719818115234,122.20459747314453C111.91320037841797,130.97210693359375,117.50689697265625,142.8842010498047,120.19989776611328,147.0590057373047C121.05690002441406,148.4770050048828,122.16889953613281,149.72500610351562,123.47989654541016,150.73899841308594L131.97988891601562,141.63900756835938C131.29489135742188,140.61599731445312,130.66390991210938,139.55799865722656,130.08990478515625,138.468994140625C128.96139526367188,136.5196990966797,126.22090148925781,123.95020294189453,124.73169708251953,116.6166000366211C127.33820343017578,115.52839660644531,129.451904296875,114.51580047607422,130.8498992919922,113.65899658203125C135.68780517578125,110.6937026977539,141.9866943359375,107.04660034179688,146.46319580078125,103.14320373535156C146.34170532226562,105.05729675292969,146.2938995361328,106.71279907226562,146.33990478515625,107.90889739990234C146.58990478515625,114.40899658203125,151.83990478515625,119.15899658203125,158.08990478515625,126.90899658203125C158.16990661621094,127.08899688720703,158.23989868164062,127.26899719238281,158.3199005126953,127.43900299072266L167.7198944091797,123.60900115966797C164.4199981689453,119.95899963378906,160.58999633789062,108.4989013671875,160.58999633789062,105.65889739990234z"/>
<path id="Body" fill="#B68554" d="M143.36000061035156,145.36900329589844C144.27000427246094,150.0489959716797,140.24000549316406,152.78900146484375,133.86000061035156,152.65899658203125C129.3300018310547,152.5590057373047,125.2300033569336,151.7790069580078,122.47000122070312,149.7790069580078L131.51998901367188,141.38900756835938C131.77499389648438,141.78500366210938,132.1199951171875,142.11500549316406,132.5260009765625,142.35299682617188C132.93299865722656,142.59100341796875,133.38900756835938,142.72999572753906,133.86000061035156,142.75900268554688C135.29000854492188,142.49899291992188,142.4499969482422,140.68899536132812,143.36000061035156,145.36900329589844zM80.40950012207031,106.93890380859375C69.0895004272461,104.07890319824219,59.15950012207031,113.28900146484375,59.31949996948242,119.68900299072266C59.33940124511719,120.56670379638672,59.445701599121094,121.37349700927734,59.58660125732422,122.1488037109375C55.92169952392578,117.52780151367188,54.36349868774414,110.75420379638672,55.09980010986328,102.40889739990234C55.169498443603516,101.618896484375,55.277400970458984,100.86810302734375,55.40380096435547,100.13600158691406C49.13529968261719,107.16179656982422,51.57979965209961,114.90910339355469,51.57979965209961,114.90910339355469C51.57979965209961,114.90910339355469,41.23979949951172,111.90910339355469,36.57979965209961,112.11910247802734C31.9197998046875,112.3291015625,30.73979949951172,107.11900329589844,24.959800720214844,109.16899871826172C19.519901275634766,110.9489974975586,21.369800567626953,119.50910186767578,17.749799728393555,122.93910217285156C14.129799842834473,126.36910247802734,10.269800186157227,131.78909301757812,15.689800262451172,135.10910034179688C23.779800415039062,138.91909790039062,29.96980094909668,123.10910034179688,34.209800720214844,124.27909851074219C36.635799407958984,124.94850158691406,43.132999420166016,129.24960327148438,50.80329895019531,132.55079650878906C49.19219970703125,134.76080322265625,50.32630157470703,137.9582977294922,50.45949935913086,139.1990966796875C50.64950180053711,140.96910095214844,50.87950134277344,148.30909729003906,52.64950180053711,150.6990966796875C54.419498443603516,153.08909606933594,62.409400939941406,152.21910095214844,63.28950119018555,151.08909606933594C65.10940551757812,148.73910522460938,60.2495002746582,147.66909790039062,61.28950119018555,146.23910522460938C62.329498291015625,144.80909729003906,78.19960021972656,154.3791046142578,89.87960052490234,152.47909545898438C101.55960083007812,150.5791015625,102.45960235595703,141.54910278320312,101.14959716796875,132.17910766601562C99.8395004272461,122.80899810791016,91.72949981689453,109.79889678955078,80.40950012207031,106.93890380859375zM173.25999450683594,48.63890075683594C173.25999450683594,32.938899993896484,160.5,22.348899841308594,144.75,22.348899841308594C129,22.348899841308594,116.23999786376953,32.89889907836914,116.23999786376953,48.63890075683594C116.23999786376953,50.034000396728516,116.2936019897461,51.387901306152344,116.39099884033203,52.70790100097656C115.63719940185547,53.544898986816406,115.12999725341797,54.58489990234375,115.12999725341797,55.71889877319336C115.12999725341797,57.33829879760742,116.15760040283203,58.769100189208984,117.47509765625,59.68170166015625C119.38990020751953,67.27670288085938,123.65489959716797,73.03590393066406,131.02920532226562,76.30760192871094C133.73001098632812,81.42949676513672,136.9468994140625,86.91590118408203,142.35009765625,86.65889739990234C148.4969940185547,86.36650085449219,150.99270629882812,82.45269775390625,152.3376007080078,79.21929931640625C171.71620178222656,77.80069732666016,173.25999450683594,66.24430084228516,173.25999450683594,48.63890075683594zM169.10899353027344,124.68900299072266C168.5749969482422,124.45500183105469,168.10499572753906,124.09400177001953,167.73899841308594,123.63899993896484L158.35899353027344,127.41899871826172C160.8090057373047,133.06900024414062,164.88900756835938,136.6490020751953,166.35899353027344,136.41900634765625C167.82899475097656,136.18899536132812,167.45899963378906,134.27899169921875,168.98899841308594,134.18899536132812C172.03900146484375,134.0189971923828,176.85899353027344,135.5189971923828,178.35899353027344,133.18899536132812C180.60899353027344,129.68899536132812,172.60899353027344,125.93900299072266,169.10899353027344,124.68900299072266z"/>
<path id="OnesieBorder" d="M121.15229797363281,70.66470336914062C117.91300201416016,72.55680084228516,112.49310302734375,75.72329711914062,94.88469696044922,79.13150024414062C70.66690063476562,83.81900024414062,57.96580123901367,86.98889923095703,56.59370040893555,102.54070281982422C55.9995002746582,109.27400207519531,56.94710159301758,114.90119934082031,59.333499908447266,119.09290313720703C59.319698333740234,119.29389953613281,59.31460189819336,119.4928970336914,59.31949996948242,119.68910217285156C59.36940002441406,121.8936996459961,59.852298736572266,123.7490005493164,60.55500030517578,125.33110046386719C60.25339889526367,125.06079864501953,59.942298889160156,124.80149841308594,59.658599853515625,124.5103988647461C54.85049819946289,119.57779693603516,52.757198333740234,111.88929748535156,53.60540008544922,102.2770004272461C55.24020004272461,83.74919891357422,71.62979888916016,80.57679748535156,94.31439971923828,76.18620300292969C111.4207992553711,72.87519836425781,116.56539916992188,69.86979675292969,119.63860321044922,68.07440185546875C120.00330352783203,67.86140441894531,120.35060119628906,67.66290283203125,120.69509887695312,67.47219848632812C121.22889709472656,68.33209991455078,121.80979919433594,69.15470123291016,122.44989776611328,69.93049621582031C122.05249786376953,70.14059448242188,121.63490295410156,70.38259887695312,121.15229797363281,70.66470336914062zM142.4208984375,88.15689849853516C149.8845977783203,87.802001953125,152.6602020263672,82.57520294189453,154.01260375976562,79.06739807128906C152.9582061767578,79.18319702148438,151.8385009765625,79.2615966796875,150.66619873046875,79.3104019165039C149.38999938964844,82.0905990600586,147.19009399414062,84.927001953125,142.27830505371094,85.16089630126953C142.1844940185547,85.16480255126953,142.09280395507812,85.1677017211914,142.00100708007812,85.1677017211914C138.15679931640625,85.1677017211914,135.48419189453125,81.3207015991211,133.20550537109375,77.17919921875C131.58560180664062,76.61190032958984,130.10269165039062,75.93479919433594,128.73959350585938,75.16200256347656C128.88099670410156,75.43090057373047,129.02230834960938,75.70050048828125,129.16310119628906,75.96990203857422C132.07420349121094,81.5426025390625,135.7333984375,88.49669647216797,142.4208984375,88.15689849853516zM168.83200073242188,122.60310363769531C165.83689880371094,119.2885971069336,162.0897979736328,108.26719665527344,162.0897979736328,105.65879821777344L162.0897979736328,105.38240051269531C162.10009765625,90.02239990234375,161.19569396972656,82.82749938964844,160.1737060546875,79.37419891357422C159.8856964111328,79.45999908447266,159.58169555664062,79.53589630126953,159.2819061279297,79.61430358886719C159.19219970703125,79.0969009399414,159.08160400390625,78.61280059814453,158.94949340820312,78.1803970336914C158.02569580078125,78.42279815673828,157.04339599609375,78.62960052490234,155.99749755859375,78.79869842529297C156.47889709472656,80.24220275878906,156.84779357910156,82.73760223388672,155.7646026611328,86.30329895019531C155.52439880371094,87.09529876708984,155.9716033935547,87.93319702148438,156.7646026611328,88.17440032958984C157.42349243164062,88.37470245361328,158.11669921875,88.09049987792969,158.46800231933594,87.52880096435547C158.8363037109375,91.63909912109375,159.0950927734375,97.41280364990234,159.0897979736328,105.38050079345703L159.0897979736328,105.65879821777344C159.0897979736328,108.4645004272461,162.16600036621094,118.03379821777344,165.35740661621094,122.95179748535156L158.9344940185547,125.56900024414062C157.84559631347656,124.22820281982422,156.78900146484375,122.9761962890625,155.78610229492188,121.7886962890625C151.27830505371094,116.44889831542969,148.02149963378906,112.59140014648438,147.83880615234375,107.8511962890625C147.79640197753906,106.75060272216797,147.82510375976562,105.38279724121094,147.90859985351562,103.85220336914062C150.5751953125,101.44339752197266,152.59410095214844,98.9124984741211,153.2978057861328,96.29840087890625C153.5135955810547,95.49859619140625,153.03900146484375,94.67539978027344,152.23919677734375,94.46050262451172C151.44129943847656,94.24369812011719,150.61619567871094,94.71829986572266,150.40130615234375,95.51909637451172C148.95010375976562,100.90679931640625,139.17669677734375,106.84230041503906,132.0408935546875,111.17729949951172L130.0653076171875,112.37940216064453C129.03050231933594,113.01380157470703,127.5822982788086,113.73619842529297,125.83499908447266,114.51010131835938C125.63159942626953,113.47810363769531,125.46160125732422,112.5863037109375,125.33589935302734,111.89109802246094C124.66300201416016,108.17140197753906,127.21379852294922,101.80419921875,129.4647979736328,96.18599700927734L129.75289916992188,95.46530151367188C130.0605010986328,94.69670104980469,129.68649291992188,93.82369995117188,128.9169921875,93.51609802246094C128.150390625,93.20850372314453,127.27539825439453,93.5824966430664,126.9677963256836,94.35199737548828L126.67970275878906,95.07080078125C124.16110229492188,101.35690307617188,121.55670166015625,107.85690307617188,122.38480377197266,112.42530059814453C122.7343978881836,114.36080169677734,127.0634994506836,136.23390197753906,128.7626953125,139.1685028076172C129.17379760742188,139.9477996826172,129.61720275878906,140.7183074951172,130.08590698242188,141.47030639648438L123.37010192871094,148.65980529785156C122.6426010131836,147.9508056640625,122.00489807128906,147.1470947265625,121.46089935302734,146.24569702148438C117.67669677734375,140.3804931640625,108.4198989868164,119.52300262451172,108.4198989868164,113.8395004272461C108.4198989868164,112.78089904785156,108.4657974243164,103.24569702148438,110.05950164794922,94.4020004272461C111.6865005493164,85.37760162353516,114.36810302734375,80.23889923095703,117.61029815673828,79.93229675292969C118.43550109863281,79.85469818115234,119.04100036621094,79.1227035522461,118.96279907226562,78.2979965209961C118.88469696044922,77.47229766845703,118.13860321044922,76.86199951171875,117.3290023803711,76.9458999633789C105.99400329589844,78.01619720458984,105.4197998046875,107.8667984008789,105.4197998046875,113.8395004272461C105.4197998046875,115.5188980102539,106.03510284423828,118.12979888916016,107.01499938964844,121.189697265625C104.20069885253906,122.03170013427734,101.32430267333984,122.84770202636719,98.44760131835938,123.58760070800781C98.8927001953125,124.52549743652344,99.28880310058594,125.46530151367188,99.63580322265625,126.39769744873047C102.44509887695312,125.6698989868164,105.24629974365234,124.87169647216797,107.98930358886719,124.04830169677734C111.1635971069336,132.91830444335938,116.44629669189453,144.00680541992188,118.91590118408203,147.83450317382812C119.8729019165039,149.4185028076172,121.09950256347656,150.79449462890625,122.56340026855469,151.92529296875C122.83489990234375,152.13619995117188,123.15809631347656,152.23880004882812,123.47940063476562,152.23880004882812C123.88269805908203,152.23880004882812,124.28309631347656,152.07769775390625,124.57610321044922,151.76319885253906L133.07611083984375,142.66360473632812C133.55270385742188,142.15379333496094,133.61419677734375,141.38330078125,133.22650146484375,140.80419921875C132.5731964111328,139.82859802246094,131.96380615234375,138.80709838867188,131.38760375976562,137.71829223632812C130.4700927734375,136.13140869140625,128.0012969970703,125.10230255126953,126.44190216064453,117.51820373535156C128.6009979248047,116.58159637451172,130.3837890625,115.7041015625,131.63369750976562,114.93810272216797L133.59759521484375,113.74079895019531C137.26089477539062,111.51589965820312,141.3278045654297,109.03929901123047,144.8361053466797,106.381103515625C144.82400512695312,106.99469757080078,144.8242950439453,107.5353012084961,144.84080505371094,107.96640014648438C145.0625,113.73789978027344,148.783203125,118.14510345458984,153.49310302734375,123.72319793701172C154.54190063476562,124.96540069580078,155.65029907226562,126.27790069580078,156.7928924560547,127.69100189208984L156.8007049560547,127.70960235595703C156.85440063476562,127.83560180664062,156.9071044921875,127.95860290527344,156.96380615234375,128.07870483398438C157.2176971435547,128.6186981201172,157.75579833984375,128.93910217285156,158.32119750976562,128.93910217285156C158.50970458984375,128.93910217285156,158.7010955810547,128.90390014648438,158.8865966796875,128.82778930664062L168.28599548339844,124.9977035522461C168.73809814453125,124.81310272216797,169.07310485839844,124.41960144042969,169.18150329589844,123.94300079345703C169.29100036621094,123.46640014648438,169.1602020263672,122.96640014648438,168.83200073242188,122.60310363769531z"/>
<path id="BodyBorder" d="M142.71389770507812,141.82090759277344C139.98829650878906,139.99569702148438,135.75299072265625,140.85020446777344,133.94439697265625,141.21449279785156L133.79299926757812,141.24380493164062C133.61329650878906,141.2135009765625,133.44338989257812,141.15199279785156,133.2852020263672,141.0592041015625C133.08209228515625,140.94009399414062,132.9073028564453,140.7720947265625,132.779296875,140.57479858398438C132.53810119628906,140.20269775390625,132.1455078125,139.95570373535156,131.7061004638672,139.9010009765625C131.26080322265625,139.84530639648438,130.82431030273438,139.98890686035156,130.5,140.28970336914062L121.45020294189453,148.67930603027344C121.12010192871094,148.98399353027344,120.94529724121094,149.42149353027344,120.97270202636719,149.8697052001953C121.0000991821289,150.31790161132812,121.22560119628906,150.7301025390625,121.58989715576172,150.9936981201172C124.36329650878906,153.0034942626953,128.36630249023438,154.03860473632812,133.83010864257812,154.15870666503906C133.98440551757812,154.16160583496094,134.13670349121094,154.16259765625,134.28909301757812,154.16259765625C138.4287109375,154.16259765625,141.67869567871094,153.00050354003906,143.47369384765625,150.86770629882812C144.79299926757812,149.30029296875,145.26370239257812,147.29930114746094,144.83309936523438,145.08250427246094C144.56350708007812,143.69590759277344,143.83009338378906,142.5679931640625,142.71389770507812,141.82090759277344zM140.5594024658203,149.52139282226562C140.54209899902344,149.5019073486328,140.53579711914062,149.47610473632812,140.5166015625,149.45770263671875C139.94039916992188,148.9029998779297,138.68161010742188,149.00360107421875,136.59280395507812,149.17059326171875C136.09078979492188,149.21060180664062,135.5498046875,149.25360107421875,134.97760009765625,149.28970336914062C134.70220947265625,149.3072967529297,134.49319458007812,149.5446014404297,134.51080322265625,149.82090759277344C134.5283966064453,150.09530639648438,134.72369384765625,150.31500244140625,135.0419921875,150.28770446777344C135.61911010742188,150.25059509277344,136.16500854492188,150.2075958251953,136.67190551757812,150.16659545898438C137.79409790039062,150.07769775390625,139.15139770507812,149.96820068359375,139.6448974609375,150.09469604492188C138.22579956054688,150.8262939453125,136.2423095703125,151.21229553222656,133.8936004638672,151.15879821777344C130.154296875,151.07679748535156,127.16510009765625,150.52110290527344,124.97270202636719,149.50450134277344L131.4853973388672,143.46640014648438C131.57720947265625,143.5299072265625,131.6708984375,143.59039306640625,131.76760864257812,143.6470947265625C132.37310791015625,144.00259399414062,133.0644989013672,144.21249389648438,133.76760864257812,144.25650024414062C133.88970947265625,144.26429748535156,134.00979614257812,144.25650024414062,134.12989807128906,144.23500061035156L134.537109375,144.1549072265625C135.7294921875,143.91470336914062,139.35740661621094,143.18519592285156,141.04490661621094,144.31410217285156C141.4268035888672,144.5695037841797,141.66990661621094,144.9163055419922,141.8105926513672,145.37649536132812C141.05909729003906,145.0299072265625,140.00010681152344,144.91070556640625,138.61329650878906,145.0406951904297C138.33889770507812,145.0670928955078,138.13670349121094,145.31019592285156,138.162109375,145.58560180664062C138.1875,145.86000061035156,138.41989135742188,146.05239868164062,138.70700073242188,146.03680419921875C139.97219848632812,145.9185028076172,141.50579833984375,145.97250366210938,141.96780395507812,146.7928924560547C141.95660400390625,147.08180236816406,141.9174041748047,147.35780334472656,141.84759521484375,147.6199951171875C140.80569458007812,146.84640502929688,138.643310546875,146.9506072998047,137.49600219726562,147.1461944580078C137.22450256347656,147.19309997558594,137.0408935546875,147.45089721679688,137.0867919921875,147.72329711914062C137.13369750976562,147.9958038330078,137.39730834960938,148.17739868164062,137.66390991210938,148.13250732421875C138.99789428710938,147.9040069580078,140.72439575195312,147.96060180664062,141.2967071533203,148.44400024414062C141.35629272460938,148.4945068359375,141.38819885253906,148.54080200195312,141.40890502929688,148.5843963623047C141.3323974609375,148.70179748535156,141.2707977294922,148.82659912109375,141.17860412597656,148.9362030029297C141.00210571289062,149.14610290527344,140.7904052734375,149.33880615234375,140.5594024658203,149.52139282226562zM80.77729797363281,105.48500061035156C74.87739562988281,103.9937973022461,68.66889953613281,105.39610290527344,63.743099212646484,109.33170318603516C60.00529861450195,112.31800079345703,57.735801696777344,116.29949951171875,57.819801330566406,119.72329711914062C57.911598205566406,123.77410125732422,59.308101654052734,126.81900024414062,61.04690170288086,129.0543975830078C58.942901611328125,128.71939086914062,56.63869857788086,128.61199951171875,54.38669967651367,129.01239013671875C52.7328987121582,129.30679321289062,51.4114990234375,129.88909912109375,50.431800842285156,130.74310302734375C46.714900970458984,129.08619689941406,43.31169891357422,127.2334976196289,40.619102478027344,125.76429748535156C37.87840270996094,124.26920318603516,35.89789962768555,123.18910217285156,34.608802795410156,122.83270263671875C34.3114013671875,122.75070190429688,34.01850128173828,122.71260070800781,33.72789764404297,122.71260070800781C31.460800170898438,122.71260070800781,29.36949920654297,125.07980346679688,26.9906005859375,127.77310180664062C23.130699157714844,132.14419555664062,19.895401000976562,135.3638916015625,16.40220069885254,133.78579711914062C15.235700607299805,133.05340576171875,14.618499755859375,132.22129821777344,14.515999794006348,131.2427978515625C14.324100494384766,129.40780639648438,15.878799438476562,126.77799987792969,18.781600952148438,124.02799987792969C20.6653995513916,122.2427978515625,21.272300720214844,119.55919647216797,21.85919952392578,116.96260070800781C22.649200439453125,113.46849822998047,23.28350067138672,111.29560089111328,25.461299896240234,110.58270263671875C28.056499481201172,109.65979766845703,29.308000564575195,110.49479675292969,31.039400100708008,111.65010070800781C32.501800537109375,112.62470245361328,34.16640090942383,113.73989868164062,36.64679718017578,113.61689758300781C41.01250076293945,113.45189666748047,51.0609016418457,116.31999969482422,51.161399841308594,116.34929656982422C51.69020080566406,116.50460052490234,52.26100158691406,116.35030364990234,52.64720153808594,115.95870208740234C53.03390121459961,115.56610107421875,53.173099517822266,114.98989868164062,53.01150131225586,114.46260070800781C52.92179870605469,114.17070007324219,51.31880187988281,108.68090057373047,55.054901123046875,103.03230285644531C55.070499420166016,102.8239974975586,55.08100128173828,102.61930084228516,55.09960174560547,102.40889739990234C55.26100158691406,100.57959747314453,55.58509826660156,98.91819763183594,56.047401428222656,97.38860321044922C51.66619873046875,101.30030059814453,50.20130157470703,105.63159942626953,49.77619934082031,108.72039794921875C49.55649948120117,110.31320190429688,49.58380126953125,111.72720336914062,49.69029998779297,112.83760070800781C46.299198150634766,111.94989776611328,40.003299713134766,110.45870208740234,36.51210021972656,110.62079620361328C35.010597229003906,110.68229675292969,33.989601135253906,110.0103988647461,32.702999114990234,109.15299987792969C30.81730079650879,107.89620208740234,28.469600677490234,106.33370208740234,24.493499755859375,107.7427978515625C20.57849884033203,109.02400207519531,19.70439910888672,112.89029693603516,18.933000564575195,116.30139923095703C18.422698974609375,118.55919647216797,17.94029998779297,120.69200134277344,16.71820068359375,121.8501968383789C14.144499778747559,124.2886962890625,11.155200004577637,127.95179748535156,11.532699584960938,131.5552978515625C11.738300323486328,133.51620483398438,12.873000144958496,135.14219665527344,14.906200408935547,136.3883056640625C14.953100204467773,136.41659545898438,15.001399993896484,136.4429931640625,15.050700187683105,136.46640014648438C20.888599395751953,139.21539306640625,25.715299606323242,133.74960327148438,29.239700317382812,129.7593994140625C30.64590072631836,128.16659545898438,33,125.50650024414062,33.81100082397461,125.7251968383789C34.765602111816406,125.98789978027344,36.8125,127.1051025390625,39.18260192871094,128.39810180664062C41.829498291015625,129.84219360351562,45.136199951171875,131.6414031982422,48.777099609375,133.28919982910156C48.15999984741211,135.21800231933594,48.55580139160156,137.25100708007812,48.825599670410156,138.57778930664062C48.88859939575195,138.8883056640625,48.94620132446289,139.1549072265625,48.96820068359375,139.35899353027344C48.997501373291016,139.6343994140625,49.027801513671875,140.05140686035156,49.065399169921875,140.56700134277344C49.374000549316406,144.7633056640625,49.837398529052734,149.42250061035156,51.44380187988281,151.59140014648438C52.710899353027344,153.30230712890625,55.49509811401367,153.6929931640625,57.607398986816406,153.71929931640625C57.83399963378906,153.71730041503906,63.10540008544922,153.76620483398438,64.47560119628906,152.0074005126953C65.52000427246094,150.65879821777344,65.30619812011719,149.47219848632812,64.75439453125,148.5552978515625C65.30419921875,148.76229858398438,65.87550354003906,148.98399353027344,66.42680358886719,149.1968994140625C71.7676010131836,151.2633056640625,79.44339752197266,154.23300170898438,86.56790161132812,154.23300170898438C87.77249908447266,154.23300170898438,88.96150207519531,154.1479949951172,90.12010192871094,153.9595947265625C103.783203125,151.7368927001953,103.80660247802734,140.34629821777344,102.63469696044922,131.97129821777344C101.17379760742188,121.51920318603516,92.40139770507812,108.42150115966797,80.77729797363281,105.48500061035156zM89.63870239257812,150.9987030029297C82.4301986694336,152.17059326171875,73.08889770507812,148.5583038330078,67.5093002319336,146.3990936279297C64.5884017944336,145.26919555664062,62.81589889526367,144.58270263671875,61.64310073852539,144.58270263671875C60.948299407958984,144.58270263671875,60.46390151977539,144.8238983154297,60.076698303222656,145.35609436035156C58.79790115356445,147.11390686035156,60.54199981689453,148.5679931640625,61.28670120239258,149.18910217285156C61.56060028076172,149.41659545898438,62.05179977416992,149.82679748535156,62.18370056152344,150.05340576171875C62.18080139160156,150.05929565429688,62.17689895629883,150.06509399414062,62.17300033569336,150.07200622558594C60.88249969482422,150.78489685058594,54.8385009765625,151.135498046875,53.855098724365234,149.806396484375C52.63100051879883,148.1540985107422,52.214500427246094,142.48219299316406,52.057701110839844,140.34739685058594C52.016700744628906,139.789794921875,51.983001708984375,139.3376007080078,51.950801849365234,139.03880310058594C51.92150115966797,138.76239013671875,51.851200103759766,138.40109252929688,51.76570129394531,137.98019409179688C51.50400161743164,136.69210815429688,51.10850143432617,134.7447967529297,51.95709991455078,133.49679565429688C52.47269821166992,132.73800659179688,53.46739959716797,132.223388671875,54.912200927734375,131.96560668945312C59.631900787353516,131.126708984375,64.89509582519531,133.00270080566406,67.01910400390625,133.88650512695312C67.16090393066406,133.95669555664062,67.28480529785156,134.01429748535156,67.40390014648438,134.069091796875C67.51470184326172,134.1551971435547,67.6343994140625,134.2321014404297,67.77149963378906,134.2860107421875C70.12060546875,135.20889282226562,81.7177963256836,137.48519897460938,83.03269958496094,137.74209594726562C83.12940216064453,137.7606964111328,83.2260971069336,137.7694091796875,83.32129669189453,137.7694091796875C84.02439880371094,137.7694091796875,84.65239715576172,137.27230834960938,84.79199981689453,136.55650329589844C84.95069885253906,135.74400329589844,84.42040252685547,134.95590209960938,83.60690307617188,134.79669189453125C78.95120239257812,133.8883056640625,71.72850036621094,132.38150024414062,69.37449645996094,131.66200256347656C69.35440063476562,131.6508026123047,69.33729553222656,131.63619995117188,69.31639862060547,131.62579345703125C69.24359893798828,131.58969116210938,68.79000091552734,131.36700439453125,68.0498046875,131.06130981445312C65.83100128173828,129.91769409179688,60.97700119018555,126.62670135498047,60.81880187988281,119.65509796142578C60.81880187988281,119.65409851074219,60.81880187988281,119.6530990600586,60.81880187988281,119.6521987915039C60.757301330566406,117.18340301513672,62.640098571777344,114.05259704589844,65.61619567871094,111.67559814453125C69.80220031738281,108.33090209960938,75.05960083007812,107.1355972290039,80.0425033569336,108.39340209960938C91.0448989868164,111.17269897460938,98.5073013305664,124.11409759521484,99.66410064697266,132.3874969482422C101.29199981689453,144.0240020751953,98.29350280761719,149.5904998779297,89.63870239257812,150.9987030029297zM174.75979614257812,48.63880157470703C174.75979614257812,32.795997619628906,161.8583984375,20.848800659179688,144.75,20.848800659179688C127.6416015625,20.848800659179688,114.74019622802734,32.79610061645508,114.74019622802734,48.63880157470703C114.74019622802734,49.86109924316406,114.78260040283203,51.04349899291992,114.85790252685547,52.194801330566406C114.10690307617188,53.20309829711914,113.62989807128906,54.40650177001953,113.62989807128906,55.71879959106445C113.62989807128906,57.71440124511719,114.72450256347656,59.46149826049805,116.22879791259766,60.641998291015625C119.92459869384766,74.0635986328125,130.57611083984375,80.86869812011719,148.07029724121094,80.86869812011719C172.845703125,80.8687973022461,174.75979614257812,67.5103988647461,174.75979614257812,48.63880157470703zM148.07029724121094,77.8687973022461C132.82229614257812,77.8687973022461,123.59420013427734,72.80780029296875,119.78510284423828,62.17369842529297C120.0114974975586,62.20119857788086,120.23709869384766,62.21889877319336,120.45989990234375,62.21889877319336C121.28800201416016,62.21889877319336,121.95989990234375,61.54750061035156,121.95989990234375,60.71889877319336C121.95989990234375,59.89030075073242,121.28800201416016,59.21889877319336,120.45989990234375,59.21889877319336C118.94719696044922,59.21889877319336,116.62979888916016,57.6510009765625,116.62979888916016,55.71889877319336C116.62979888916016,53.786800384521484,118.94719696044922,52.21889877319336,120.45989990234375,52.21889877319336C121.28800201416016,52.21889877319336,121.95989990234375,51.54750061035156,121.95989990234375,50.71889877319336C121.95989990234375,49.89030075073242,121.28800201416016,49.21889877319336,120.45989990234375,49.21889877319336C119.57330322265625,49.21889877319336,118.64810180664062,49.44929885864258,117.77320098876953,49.85219955444336C117.76339721679688,49.4463996887207,117.74019622802734,49.05540084838867,117.74019622802734,48.63880157470703C117.74019622802734,34.274497985839844,129.099609375,23.848800659179688,144.75,23.848800659179688C160.40040588378906,23.848800659179688,171.75979614257812,34.27459716796875,171.75979614257812,48.63880157470703C171.75979614257812,68.50790405273438,169.4228973388672,77.8687973022461,148.07029724121094,77.8687973022461zM180.0352020263672,130.64810180664062C178.70509338378906,126.74089813232422,171.30079650878906,123.88349914550781,169.6708984375,123.29750061035156C169.37600708007812,123.15979766845703,169.11329650878906,122.95369720458984,168.908203125,122.69889831542969C168.4940948486328,122.1852035522461,167.78909301757812,122.00260162353516,167.17869567871094,122.2477035522461L157.79879760742188,126.0270004272461C157.42379760742188,126.17839813232422,157.125,126.4751968383789,156.97169494628906,126.84929656982422C156.8184051513672,127.22339630126953,156.82229614257812,127.64420318603516,156.9833984375,128.01528930664062C159.34280395507812,133.45870971679688,163.5625,137.9263916015625,166.24710083007812,137.9263916015625C166.3643035888672,137.9263916015625,166.47950744628906,137.91860961914062,166.5908966064453,137.9010009765625C168.03909301757812,137.67440795898438,168.6309051513672,136.58950805664062,168.94830322265625,136.00650024414062C169.0030059814453,135.90689086914062,169.07919311523438,135.76719665527344,169.13479614257812,135.68328857421875C169.91900634765625,135.64520263671875,170.90040588378906,135.73699951171875,171.93170166015625,135.83169555664062C174.80960083007812,136.09629821777344,178.0771942138672,136.39810180664062,179.62120056152344,134.0006103515625C180.28610229492188,132.9654998779297,180.42970275878906,131.80630493164062,180.0352020263672,130.64810180664062zM177.0977020263672,132.37759399414062C176.54110717773438,133.2427978515625,174.1396942138672,133.02410888671875,172.2071075439453,132.84439086914062C171.08799743652344,132.7418975830078,169.92979431152344,132.63250732421875,168.90139770507812,132.69210815429688C167.28709411621094,132.78680419921875,166.654296875,133.947998046875,166.3144989013672,134.5709991455078C166.25489807128906,134.68038940429688,166.1708984375,134.83370971679688,166.1396942138672,134.902099609375C165.27740478515625,134.61209106445312,162.5449981689453,132.410888671875,160.3936004638672,128.2165985107422L167.39559936523438,125.39530181884766C167.7364044189453,125.66390228271484,168.1103973388672,125.88849639892578,168.50689697265625,126.06330108642578C168.53909301757812,126.0770034790039,168.57139587402344,126.0896987915039,168.60459899902344,126.10240173339844C171.5218048095703,127.14350128173828,174.7812042236328,128.84149169921875,176.339599609375,130.39910888671875C175.78379821777344,130.3402099609375,175.14010620117188,130.32879638671875,174.42100524902344,130.31919860839844C173.74330139160156,130.31039428710938,172.9844970703125,130.29969787597656,172.16029357910156,130.24990844726562C171.8594970703125,130.22549438476562,171.64759826660156,130.44329833984375,171.63099670410156,130.71868896484375C171.61439514160156,130.99411010742188,171.82440185546875,131.2313995361328,172.09979248046875,131.2480010986328C172.9416046142578,131.29879760742188,173.71600341796875,131.30950927734375,174.4073944091797,131.31930541992188C175.71539306640625,131.33718872070312,176.7841033935547,131.35580444335938,177.2001953125,131.65179443359375C177.28199768066406,131.91970825195312,177.25779724121094,132.12899780273438,177.0977020263672,132.37759399414062z"/>
<path id="Hair" fill="#231F20" d="M185.18899536132812,38.06890106201172C185.18899536132812,38.06890106201172,182.37899780273438,41.06890106201172,180.3090057373047,39.30889892578125C178.23899841308594,37.54890060424805,176.8489990234375,26.638900756835938,160.70899963378906,22.388900756835938C144.56900024414062,18.138900756835938,150.50900268554688,19.078899383544922,150.50900268554688,19.078899383544922C150.50900268554688,19.078899383544922,144.91900634765625,15.268899917602539,150.6490020751953,13.078900337219238C150.6490020751953,13.078900337219238,143.37899780273438,11.828900337219238,144.97900390625,19.278900146484375C144.97900390625,19.228900909423828,136.94900512695312,17.638900756835938,129.97900390625,20.978900909423828C128.03900146484375,21.888900756835938,123.0790023803711,21.17889976501465,118.7490005493164,33.118900299072266C114.41899871826172,45.05889892578125,108.93939971923828,45.05889892578125,107.46939849853516,40.968902587890625C106.46939849853516,38.278900146484375,112.52899932861328,36.968902587890625,112.52899932861328,36.968902587890625C112.52899932861328,36.968902587890625,105.52940368652344,35.2588996887207,105.88939666748047,41.098899841308594C106.24939727783203,46.938899993896484,111.08899688720703,48.7588996887207,116.23899841308594,45.41889953613281C116.23899841308594,45.41889953613281,110.11940002441406,54.708900451660156,112.7490005493164,60.22890090942383C114.46900177001953,63.82889938354492,120.45899963378906,67.15890502929688,120.45899963378906,67.15890502929688C120.45899963378906,67.15890502929688,119.84519958496094,65.04740142822266,119.32350158691406,62.09989929199219C116.48370361328125,61.532100677490234,113.62989807128906,58.94609832763672,113.62989807128906,55.71889877319336C113.62989807128906,52.514801025390625,116.44290161132812,49.939998626708984,119.26239776611328,49.347599029541016C119.62899780273438,48.06949996948242,120.1626968383789,46.92210006713867,120.93900299072266,46.01890182495117C125.89900207519531,40.2489013671875,122.75900268554688,48.26890182495117,130.50900268554688,40.018898010253906C135.4488983154297,34.788902282714844,135.1790008544922,31.01889991760254,142.5989990234375,29.708900451660156C142.5989990234375,29.708900451660156,147.19900512695312,31.6289005279541,145.68899536132812,35.288902282714844C144.2803955078125,38.702999114990234,139.6230010986328,36.530601501464844,141.0482940673828,34.30780029296875C140.01609802246094,35.614097595214844,137.580810546875,39.2318000793457,141.06900024414062,40.54890060424805C149.5189971923828,43.72890090942383,154.13900756835938,30.548900604248047,153.06900024414062,28.478900909423828C153.06900024414062,28.478900909423828,171.19900512695312,33.908897399902344,173.23899841308594,46.8588981628418C175.2790069580078,59.80889892578125,172.85899353027344,61.03889846801758,172.85899353027344,61.03889846801758C172.85899353027344,61.03889846801758,171.28900146484375,65.14889526367188,173.0290069580078,64.12889862060547C174.67799377441406,60.730499267578125,175.72999572753906,57.07389831542969,176.13900756835938,53.31890106201172C176.75900268554688,47.62889862060547,175.60899353027344,40.19889831542969,175.86900329589844,40.55889892578125C176.4290008544922,41.31890106201172,178.8090057373047,45.14889907836914,182.2689971923828,42.788902282714844C185.72900390625,40.42890167236328,185.18899536132812,38.06890106201172,185.18899536132812,38.06890106201172z"/>
<path id="HairBorder" d="M186.65139770507812,37.73500061035156C186.5283966064453,37.194000244140625,186.11619567871094,36.76580047607422,185.5811004638672,36.62120056152344C185.04400634765625,36.476200103759766,184.47369384765625,36.63780212402344,184.0948028564453,37.043601989746094C184.07620239257812,37.06310272216797,182.1925048828125,38.93910217285156,181.28030395507812,38.16619873046875C181.0458984375,37.965999603271484,180.56350708007812,37.004600524902344,180.1768035888672,36.23210144042969C178.10450744628906,32.097801208496094,174.24710083007812,24.40250015258789,161.0908966064453,20.938199996948242C155.9658966064453,19.588600158691406,153.25889587402344,18.810800552368164,151.82919311523438,18.366899490356445C151.7178955078125,18.160400390625,151.5576934814453,17.978199005126953,151.35360717773438,17.839599609375C150.5811004638672,17.312700271606445,149.5010986328125,16.182899475097656,149.5675048828125,15.611100196838379C149.5908966064453,15.411399841308594,149.95809936523438,14.948999404907227,151.1846923828125,14.480199813842773C151.81649780273438,14.23900032043457,152.20809936523438,13.605199813842773,152.1427001953125,12.93280029296875C152.0762939453125,12.26039981842041,151.5695037841797,11.71500015258789,150.9033966064453,11.600299835205078C150.50010681152344,11.531900405883789,146.8936004638672,10.98799991607666,144.71099853515625,13.262900352478027C143.69729614257812,14.318599700927734,143.20899963378906,15.739999771118164,143.25010681152344,17.50360107421875C140.06939697265625,17.155899047851562,134.43370056152344,17.18280029296875,129.33799743652344,19.622699737548828C129.14759826660156,19.71109962463379,128.80679321289062,19.802900314331055,128.44540405273438,19.899999618530273C125.92880249023438,20.577199935913086,121.24520111083984,21.837499618530273,117.33899688720703,32.60749816894531C114.84290313720703,39.490299224853516,112.08309936523438,41.93119812011719,110.47769927978516,41.93119812011719C110.47669982910156,41.93119812011719,110.47669982910156,41.93119812011719,110.47570037841797,41.93119812011719C109.5479965209961,41.92970275878906,109.07820129394531,41.00979995727539,108.8760986328125,40.4463005065918C108.85070037841797,40.37750244140625,108.85269927978516,40.37310028076172,108.88289642333984,40.31890106201172C109.25990295410156,39.62750244140625,111.23739624023438,38.78669738769531,112.84770202636719,38.434600830078125C113.5302963256836,38.28569793701172,114.01959991455078,37.68560028076172,114.02839660644531,36.987300872802734C114.03720092773438,36.28900146484375,113.5635986328125,35.67720031738281,112.88480377197266,35.51169967651367C112.44730377197266,35.40480041503906,108.53710174560547,34.525901794433594,106.11039733886719,36.55470275878906C105.24130249023438,37.28179931640625,104.23739624023438,38.676300048828125,104.3926010131836,41.19090270996094C104.58689880371094,44.352500915527344,105.94920349121094,46.72650146484375,108.22850036621094,47.8754997253418C109.60549926757812,48.5703010559082,111.2031021118164,48.74610137939453,112.88469696044922,48.428199768066406C111.25869750976562,51.90330123901367,109.57019805908203,57.04439926147461,111.39540100097656,60.8754997253418C113.29969787597656,64.86129760742188,119.46859741210938,68.32420349121094,119.73040008544922,68.46969604492188C119.95790100097656,68.59619903564453,120.20890045166016,68.65869903564453,120.45890045166016,68.65869903564453C120.79190063476562,68.65869903564453,121.12300109863281,68.54789733886719,121.39440155029297,68.33110046386719C121.87000274658203,67.95169830322266,122.06919860839844,67.32279968261719,121.89929962158203,66.73880004882812C121.4480972290039,65.19189453125,120.84020233154297,62.56779861450195,120.45989990234375,59.68050003051758L120.45989990234375,60.71879959106445C119.48040008544922,60.71879959106445,118.3843994140625,60.32109832763672,117.4406967163086,59.65840148925781C117.62889862060547,61.18730163574219,117.87480163574219,62.61429977416992,118.11900329589844,63.8203010559082C116.50279998779297,62.602500915527344,114.80750274658203,61.057098388671875,114.10340118408203,59.58399963378906C112.2499008178711,55.69340133666992,115.9207992553711,48.63479995727539,117.49210357666016,46.24319839477539C117.88169860839844,45.65039825439453,117.80259704589844,44.865299224853516,117.30259704589844,44.361900329589844C117.01260375976562,44.06990051269531,116.62680053710938,43.91899871826172,116.23809814453125,43.91899871826172C115.95690155029297,43.91899871826172,115.67269897460938,43.99810028076172,115.42269897460938,44.16019821166992C113.22740173339844,45.58549880981445,111.09750366210938,45.96390151977539,109.57890319824219,45.196800231933594C109.25759887695312,45.03519821166992,108.96849822998047,44.82080078125,108.71269989013672,44.55910110473633C109.25469970703125,44.80179977416992,109.84549713134766,44.930198669433594,110.47049713134766,44.93119812011719C110.47339630126953,44.93119812011719,110.47540283203125,44.93119812011719,110.47730255126953,44.93119812011719C112.56520080566406,44.93119812011719,116.59449768066406,43.459999084472656,120.15889739990234,33.62989807128906C123.53189849853516,24.32859992980957,127.09539794921875,23.369600296020508,129.22430419921875,22.796899795532227C129.71939086914062,22.664100646972656,130.1862030029297,22.538101196289062,130.61489868164062,22.336898803710938C130.61880493164062,22.335399627685547,130.62271118164062,22.333499908447266,130.62660217285156,22.331501007080078C137.03579711914062,19.259700775146484,144.49960327148438,20.702098846435547,144.5679931640625,20.719200134277344L144.9781951904297,19.27880096435547L146.44500732421875,18.963899612426758C146.2292022705078,17.95949935913086,146.1011962890625,16.662099838256836,146.5670928955078,15.772500038146973C146.606201171875,16.961000442504883,147.2545928955078,18.01219940185547,147.95770263671875,18.809600830078125C147.7115936279297,20.234901428222656,149.06809997558594,20.653400421142578,151.10220336914062,21.281299591064453C152.98699951171875,21.863300323486328,156.0904998779297,22.72369956970215,160.32679748535156,23.839401245117188C172.17149353027344,26.958499908447266,175.6343994140625,33.865299224853516,177.49380493164062,37.576202392578125C178.15789794921875,38.89990234375,178.6374053955078,39.85700225830078,179.3365936279297,40.451202392578125C180.0865936279297,41.088897705078125,180.89320373535156,41.34770202636719,181.6920928955078,41.359397888183594C181.606201171875,41.422401428222656,181.51629638671875,41.48590087890625,181.422607421875,41.54930114746094C180.368896484375,42.27000045776367,179.12869262695312,42.56439971923828,177.214599609375,39.862300872802734L177.08470153808594,39.680702209472656C176.69020080566406,39.1338005065918,175.9586944580078,38.90530014038086,175.32789611816406,39.14070129394531C174.20489501953125,39.557701110839844,174.27609252929688,40.37070083618164,174.44610595703125,42.33409881591797C174.5467071533203,43.495201110839844,174.68829345703125,45.127601623535156,174.76739501953125,46.923500061035156C174.75180053710938,46.825401306152344,174.7362060546875,46.72529983520508,174.7205047607422,46.6255989074707C172.55859375,32.90049743652344,154.2772979736328,27.274999618530273,153.5,27.04210090637207C152.9188995361328,26.867799758911133,152.2812042236328,27.0177001953125,151.8975067138672,27.47960090637207C151.5126953125,27.94300079345703,151.42579650878906,28.549400329589844,151.7021942138672,29.0841007232666C151.95809936523438,30.069499969482422,150.58309936523438,35.12120056152344,147.51080322265625,37.8848991394043C145.6728973388672,39.53770065307617,143.73829650878906,39.95079803466797,141.59970092773438,39.145599365234375C140.87510681152344,38.87220001220703,140.80380249023438,38.574798583984375,140.7803955078125,38.47710037231445C140.73739624023438,38.296897888183594,140.75010681152344,38.076698303222656,140.80679321289062,37.831600189208984C141.4777069091797,38.28520202636719,142.31069946289062,38.555702209472656,143.1779022216797,38.56449890136719C143.1925048828125,38.56500244140625,143.2071990966797,38.56500244140625,143.22279357910156,38.56500244140625C144.93760681152344,38.56500244140625,146.3760986328125,37.55670166015625,147.0762939453125,35.86090087890625C148.72079467773438,31.873600006103516,145.24429321289062,29.187999725341797,143.17689514160156,28.324800491333008C142.9113006591797,28.214399337768555,142.6221923828125,28.182199478149414,142.33799743652344,28.23200035095215C136.59190368652344,29.246200561523438,134.80679321289062,31.805200576782227,132.74029541015625,34.769100189208984C131.86138916015625,36.028900146484375,130.86529541015625,37.45709991455078,129.41510009765625,38.991798400878906C127.05280303955078,41.50740051269531,125.55960083007812,42.68219757080078,124.97270202636719,42.46299743652344C123.24810028076172,41.833099365234375,122.04199981689453,42.43659973144531,119.80180358886719,45.04059982299805C118.29949951171875,46.788299560546875,117.56050109863281,49.24700164794922,117.27220153808594,51.899600982666016C118.25180053710938,51.16350173950195,119.42179870605469,50.71879959106445,120.46009826660156,50.71879959106445L120.46009826660156,50.76179885864258C120.76029968261719,49.258399963378906,121.26499938964844,47.94129943847656,122.07720184326172,46.996700286865234C123.17489624023438,45.71889877319336,123.69049835205078,45.35409927368164,123.87110137939453,45.253501892089844C123.89450073242188,45.26279830932617,123.91799926757812,45.272098541259766,123.94239807128906,45.280399322509766C125.79879760742188,45.962501525878906,127.41899871826172,45.49869918823242,131.599609375,41.04899978637695C133.1981964111328,39.35559844970703,134.2626953125,37.8306999206543,135.2001953125,36.48500061035156C137.0897979736328,33.777000427246094,138.25588989257812,32.10459899902344,142.39450073242188,31.27359962463379C143.24119567871094,31.720399856567383,145.04490661621094,32.917198181152344,144.30270385742188,34.71649932861328C144.0605010986328,35.30290222167969,143.6844940185547,35.58470153808594,143.1815948486328,35.56420135498047C142.6728057861328,35.54859924316406,142.3134002685547,35.254600524902344,142.27340698242188,35.18040084838867C142.27439880371094,35.17649841308594,142.27630615234375,35.17110061645508,142.279296875,35.16379928588867C142.3730926513672,35.049102783203125,142.46580505371094,34.94110107421875,142.55569458007812,34.84199905395508C143.09959411621094,34.24729919433594,143.0771942138672,33.328800201416016,142.50390625,32.76239776611328C141.93060302734375,32.19599914550781,141.0126953125,32.18330001831055,140.42379760742188,32.734100341796875C140.20799255371094,32.93619918823242,140.02049255371094,33.152099609375,139.86419677734375,33.377197265625C138.95401000976562,34.512901306152344,137.3271026611328,36.93190002441406,137.86129760742188,39.17210006713867C138.0731964111328,40.058799743652344,138.70989990234375,41.261497497558594,140.54100036621094,41.95289993286133C144.14259338378906,43.307899475097656,147.68359375,42.293701171875,150.52340698242188,39.10040283203125C152.595703125,36.77079772949219,154.1894073486328,33.262001037597656,154.60450744628906,30.617000579833984C159.18069458007812,32.400699615478516,170.27049255371094,37.65119934082031,171.75779724121094,47.09260177612305C173.33689880371094,57.115501403808594,172.10549926757812,59.569698333740234,171.9208984375,59.868499755859375C171.7147979736328,60.034000396728516,171.55369567871094,60.25279998779297,171.45799255371094,60.50379943847656C170.0399932861328,64.21670532226562,170.99319458007812,65.02429962158203,171.40040588378906,65.36900329589844C171.7041015625,65.62680053710938,172.54690551757812,66.14979553222656,173.78810119628906,65.42320251464844C174.04400634765625,65.27330017089844,174.24899291992188,65.05059814453125,174.37890625,64.78399658203125C176.1083984375,61.21860122680664,177.2021026611328,57.41579818725586,177.62989807128906,53.4818000793457C177.96189880371094,50.4359016418457,177.81149291992188,46.98860168457031,177.62210083007812,44.37189865112305C179.90530395507812,45.68149948120117,181.9268035888672,44.83919906616211,183.11329650878906,44.028099060058594C187.2978973388672,41.17399978637695,186.73049926757812,38.078697204589844,186.65139770507812,37.73500061035156z"/>
<path id="Nose" d="M149.74020385742188,63.805301666259766C149.28219604492188,63.805301666259766,148.91009521484375,63.43370056152344,148.91009521484375,62.97520065307617C148.91009521484375,62.516700744628906,149.28219604492188,62.14509963989258,149.74020385742188,62.14509963989258C150.1298065185547,62.14509963989258,150.4969940185547,61.99319839477539,150.77239990234375,61.71739959716797C151.04879760742188,61.44200134277344,151.20010375976562,61.07529830932617,151.20010375976562,60.68519973754883C151.20010375976562,60.29560089111328,151.0487060546875,59.92890167236328,150.77239990234375,59.65299987792969C150.4969940185547,59.377601623535156,150.1298065185547,59.225799560546875,149.74020385742188,59.225799560546875C149.28219604492188,59.225799560546875,148.91009521484375,58.85419845581055,148.91009521484375,58.39569854736328C148.91009521484375,57.937198638916016,149.28219604492188,57.56560134887695,149.74020385742188,57.56560134887695C150.5731964111328,57.56560134887695,151.3563995361328,57.889801025390625,151.94630432128906,58.47869873046875C152.53610229492188,59.06850051879883,152.8603973388672,59.85219955444336,152.8603973388672,60.68519973754883C152.8603973388672,61.518699645996094,152.53619384765625,62.302398681640625,151.94630432128906,62.891700744628906S150.5731964111328,63.805301666259766,149.74020385742188,63.805301666259766z"/>
<path id="EyesBorder" fill="#FFFFFF" d="M142.92999267578125,56.17539978027344C142.92999267578125,56.93090057373047,142.70599365234375,57.66939926147461,142.28599548339844,58.29759979248047C141.86599731445312,58.92580032348633,141.27000427246094,59.41550064086914,140.57200622558594,59.7046012878418C139.87399291992188,59.99369812011719,139.1060028076172,60.069400787353516,138.364990234375,59.922000885009766C137.62399291992188,59.774600982666016,136.9429931640625,59.410701751708984,136.40899658203125,58.87649917602539C135.875,58.34230041503906,135.51100158691406,57.661598205566406,135.36300659179688,56.92060089111328C135.21600341796875,56.17959976196289,135.2919921875,55.4114990234375,135.58099365234375,54.7135009765625C135.8699951171875,54.015499114990234,136.36000061035156,53.41889953613281,136.98800659179688,52.99909973144531C137.61599731445312,52.57939910888672,138.35501098632812,52.35540008544922,139.11000061035156,52.35540008544922C140.1230010986328,52.35540008544922,141.09500122070312,52.7578010559082,141.81100463867188,53.47420120239258C142.5279998779297,54.19060134887695,142.92999267578125,55.162200927734375,142.92999267578125,56.17539978027344zM163.08999633789062,56.17539978027344C163.08999633789062,56.93090057373047,162.86599731445312,57.66939926147461,162.4459991455078,58.29759979248047C162.02699279785156,58.92580032348633,161.42999267578125,59.41550064086914,160.73199462890625,59.7046012878418C160.03399658203125,59.99369812011719,159.26600646972656,60.069400787353516,158.52499389648438,59.922000885009766C157.78399658203125,59.774600982666016,157.10299682617188,59.410701751708984,156.56900024414062,58.87649917602539C156.03500366210938,58.34230041503906,155.67100524902344,57.661598205566406,155.5240020751953,56.92060089111328C155.37600708007812,56.17959976196289,155.45199584960938,55.4114990234375,155.74099731445312,54.7135009765625C156.02999877929688,54.015499114990234,156.52000427246094,53.41889953613281,157.1479949951172,52.99909973144531C157.7760009765625,52.57939910888672,158.51499938964844,52.35540008544922,159.27000427246094,52.35540008544922C160.2830047607422,52.358001708984375,161.2530059814453,52.76129913330078,161.96800231933594,53.47710037231445C162.6840057373047,54.19300079345703,163.08799743652344,55.16299819946289,163.08999633789062,56.17539978027344z"/>
<path id="Eyes" d="M142.5399932861328,55.46540069580078C142.5399932861328,56.05870056152344,142.36399841308594,56.63869857788086,142.03399658203125,57.13209915161133C141.7050018310547,57.62540054321289,141.23599243164062,58.0098991394043,140.68800354003906,58.23699951171875C140.13999938964844,58.4640998840332,139.53700256347656,58.52349853515625,138.9550018310547,58.40769958496094C138.3730010986328,58.29199981689453,137.83799743652344,58.00619888305664,137.41900634765625,57.586700439453125C136.99899291992188,57.16709899902344,136.71299743652344,56.632598876953125,136.59799194335938,56.05059814453125C136.48199462890625,55.46870040893555,136.54100036621094,54.865501403808594,136.76800537109375,54.317298889160156C136.9949951171875,53.769100189208984,137.3800048828125,53.30059814453125,137.8730010986328,52.97090148925781C138.36700439453125,52.641300201416016,138.94699096679688,52.46540069580078,139.5399932861328,52.46540069580078C140.33599853515625,52.46540069580078,141.0989990234375,52.78139877319336,141.66099548339844,53.34410095214844C142.2239990234375,53.906700134277344,142.5399932861328,54.669700622558594,142.5399932861328,55.46540069580078zM162.6999969482422,55.46540069580078C162.6999969482422,56.05870056152344,162.5240020751953,56.63869857788086,162.19500732421875,57.13209915161133C161.86500549316406,57.62540054321289,161.39599609375,58.0098991394043,160.84800720214844,58.23699951171875C160.3000030517578,58.4640998840332,159.69700622558594,58.52349853515625,159.11500549316406,58.40769958496094C158.5330047607422,58.29199981689453,157.9980010986328,58.00619888305664,157.57899475097656,57.586700439453125C157.15899658203125,57.16709899902344,156.87399291992188,56.632598876953125,156.75799560546875,56.05059814453125C156.64199829101562,55.46870040893555,156.70199584960938,54.865501403808594,156.9290008544922,54.317298889160156C157.156005859375,53.769100189208984,157.5399932861328,53.30059814453125,158.0330047607422,52.97090148925781C158.52699279785156,52.641300201416016,159.10699462890625,52.46540069580078,159.6999969482422,52.46540069580078C160.49600219726562,52.46540069580078,161.25900268554688,52.78139877319336,161.82200622558594,53.34410095214844C162.38400268554688,53.906700134277344,162.6999969482422,54.669700622558594,162.6999969482422,55.46540069580078z"/>
<path id="EyeBrows" d="M167.5,54.145599365234375C167.1649932861328,54.145599365234375,166.84959411621094,53.941001892089844,166.72360229492188,53.60900115966797C166.35060119628906,52.623199462890625,165.7469940185547,51.7218017578125,164.9774932861328,51.00400161743164C164.20799255371094,50.2848014831543,163.26849365234375,49.74369812011719,162.25970458984375,49.43949890136719C160.05360412597656,48.65679931640625,158.4676971435547,48.63629913330078,157.22850036621094,49.36140060424805C156.83200073242188,49.59239959716797,156.32420349121094,49.45949935913086,156.0937042236328,49.06449890136719C155.86129760742188,48.66899871826172,155.99510192871094,48.16019821166992,156.39059448242188,47.92879867553711C158.08489990234375,46.93659973144531,160.11329650878906,46.91559982299805,162.77830505371094,47.86289978027344C163.99020385742188,48.22809982299805,165.1562042236328,48.89849853515625,166.1103057861328,49.79059982299805C167.0644073486328,50.68119812011719,167.8134002685547,51.79890060424805,168.27630615234375,53.02199935913086C168.4384002685547,53.45069885253906,168.22259521484375,53.9296989440918,167.7938995361328,54.091800689697266C167.69729614257812,54.128501892089844,167.5977020263672,54.145599365234375,167.5,54.145599365234375zM131.7978973388672,53.513301849365234C132.31939697265625,51.68960189819336,134.25100708007812,50.09389877319336,136.71881103515625,49.44879913330078C138.93359375,48.87459945678711,140.41510009765625,48.984901428222656,141.67190551757812,49.817501068115234C142.05470275878906,50.0723991394043,142.56939697265625,49.96590042114258,142.82229614257812,49.58359909057617C143.0751953125,49.20130157470703,142.970703125,48.68659973144531,142.58790588378906,48.43370056152344C140.91990661621094,47.32870101928711,138.98150634765625,47.14659881591797,136.2998046875,47.84239959716797C133.27439880371094,48.633399963378906,130.88088989257812,50.680301666259766,130.2021026611328,53.05720138549805C130.07611083984375,53.49810028076172,130.33099365234375,53.95709991455078,130.77139282226562,54.083099365234375C130.84759521484375,54.105098724365234,130.92469787597656,54.115299224853516,130.99990844726562,54.115299224853516C131.36129760742188,54.11539840698242,131.69430541992188,53.87810134887695,131.7978973388672,53.513301849365234z"/>
<path id="Mouth" d="M156.1103973388672,69.55870056152344C155.25689697265625,68.87069702148438,156.0186004638672,67.52890014648438,156.05470275878906,67.46690368652344C156.28709411621094,67.07330322265625,156.15719604492188,66.56600189208984,155.76370239257812,66.33209991455078C155.37109375,66.09919738769531,154.8603973388672,66.22760009765625,154.6269989013672,66.62120056152344C154.40029907226562,67.002197265625,154.17250061035156,67.58900451660156,154.09100341796875,68.23199462890625C154.0908966064453,68.23199462890625,154.0908966064453,68.23199462890625,154.0908966064453,68.23199462890625C151.3385009765625,68.94709777832031,147.40249633789062,68.42950439453125,146.3184051513672,68.26449584960938C146.24549865722656,67.63090515136719,146.031494140625,67.04510498046875,145.80470275878906,66.63970184326172C145.5811004638672,66.24130249023438,145.07620239257812,66.09820556640625,144.6748046875,66.32130432128906C144.27439880371094,66.54539489746094,144.13180541992188,67.05130004882812,144.35549926757812,67.45120239257812C144.3643035888672,67.46490478515625,145.12109375,68.87799835205078,144.30859375,69.5751953125C143.96090698242188,69.8740005493164,143.9208984375,70.39799499511719,144.21969604492188,70.74560546875C144.38380432128906,70.93699645996094,144.61619567871094,71.03520202636719,144.84959411621094,71.03520202636719C145.04100036621094,71.03520202636719,145.2333984375,70.96929931640625,145.39059448242188,70.83499908447266C145.71600341796875,70.55540466308594,145.93080139160156,70.23860168457031,146.08299255371094,69.90890502929688C146.80740356445312,70.02079772949219,148.59109497070312,70.26179504394531,150.58299255371094,70.26179504394531C151.82569885253906,70.26179504394531,153.13870239257812,70.16079711914062,154.31329345703125,69.87989807128906C154.47369384765625,70.22799682617188,154.70889282226562,70.56120300292969,155.06930541992188,70.85160064697266C155.22259521484375,70.97509765625,155.4062042236328,71.03520202636719,155.58880615234375,71.03520202636719C155.83200073242188,71.03520202636719,156.07220458984375,70.92919921875,156.23629760742188,70.72560119628906C156.52340698242188,70.36880493164062,156.46780395507812,69.84629821777344,156.1103973388672,69.55870056152344z"/>
</g>
</svg>