<svg xmlns="http://www.w3.org/2000/svg" xmlns:xlink="http://www.w3.org/1999/xlink" viewBox= "0 0 191 155" width="191px" height="155px">
<g xmlns="http://www.w3.org/2000/svg" id="Baby1V2.svg">
<path id="Onesie_1_" fill="#FFD3D3" d="M160.58999633789062,95.73370361328125C160.58999633789062,92.48370361328125,160.69000244140625,68.81370544433594,157.33999633789062,67.48370361328125C157.24620056152344,67.44619750976562,157.1248016357422,67.42599487304688,157.0124053955078,67.39990234375C156.2126007080078,65.75070190429688,155.08970642089844,64.90150451660156,154.35000610351562,64.97370147705078C153.78070068359375,65.02920532226562,153.42640686035156,66.40380096435547,152.76780700683594,68.1947021484375C152.1033935546875,68.52519989013672,151.44459533691406,68.94630432128906,150.83999633789062,69.48370361328125C150.25340270996094,70.00509643554688,149.65020751953125,71.75640106201172,149.08270263671875,74.1666030883789C147.52589416503906,75.55950164794922,145.38400268554688,76.58940124511719,142.35000610351562,76.73370361328125C131.83999633789062,77.23370361328125,129.5998992919922,55.983699798583984,123.34989929199219,57.983699798583984C119.34989929199219,59.27370071411133,117.84989929199219,63.233699798583984,94.59970092773438,67.73370361328125C71.34970092773438,72.23370361328125,56.599700927734375,75.48370361328125,55.099700927734375,92.48370361328125C54.363399505615234,100.8290023803711,55.921600341796875,107.60260009765625,59.58649826049805,112.22370147705078C59.44559860229492,111.44840240478516,59.339298248291016,110.6415023803711,59.319400787353516,109.76370239257812C59.159400939941406,103.36370086669922,69.08940124511719,94.15370178222656,80.4094009399414,97.01370239257812C89.01080322265625,99.18689727783203,95.75499725341797,107.22010040283203,99.07489776611328,115.06390380859375C102.38919830322266,114.20709991455078,105.7146987915039,113.26180267333984,108.91709899902344,112.27909851074219C111.91300201416016,121.04679870605469,117.50689697265625,132.9591064453125,120.19989776611328,137.13400268554688C121.05690002441406,138.552001953125,122.16889953613281,139.7989959716797,123.47989654541016,140.81399536132812L127.72989654541016,136.26400756835938L131.97988891601562,131.7139892578125C131.29489135742188,130.69100952148438,130.66390991210938,129.63299560546875,130.08990478515625,128.54400634765625C128.96119689941406,126.59449768066406,126.22019958496094,114.02200317382812,124.7311019897461,106.6886978149414C127.3333969116211,105.60220336914062,129.4534912109375,104.5895004272461,130.84979248046875,103.73370361328125C135.6876983642578,100.76860046386719,141.98660278320312,97.12139892578125,146.46310424804688,93.21810150146484C146.3415985107422,95.1322021484375,146.29379272460938,96.78759765625,146.3397979736328,97.98370361328125C146.5897979736328,104.48370361328125,151.8397979736328,109.23370361328125,158.0897979736328,116.98400115966797C158.1697998046875,117.16400146484375,158.23980712890625,117.34400177001953,158.31979370117188,117.51399993896484L167.7198028564453,113.68399810791016C164.4199981689453,110.03399658203125,160.58999633789062,98.57369995117188,160.58999633789062,95.73370361328125z"/>
<path id="Body" fill="#FDDBB4" d="M167.73899841308594,113.71399688720703C168.10499572753906,114.16899871826172,168.5749969482422,114.52899932861328,169.10899353027344,114.76399993896484C172.60899353027344,116.01399993896484,180.60899353027344,119.76399993896484,178.35899353027344,123.26399993896484C176.85899353027344,125.59400177001953,172.03900146484375,124.09400177001953,168.98899841308594,124.26399993896484C167.45899963378906,124.35399627685547,167.82899475097656,126.26399993896484,166.35899353027344,126.49400329589844C164.88900756835938,126.7239990234375,160.8090057373047,123.14399719238281,158.35899353027344,117.49400329589844L167.73899841308594,113.71399688720703zM59.31949996948242,109.76370239257812C59.15950012207031,103.36370086669922,69.0895004272461,94.15370178222656,80.40950012207031,97.01370239257812C91.72949981689453,99.87370300292969,99.8395004272461,112.88400268554688,101.14949798583984,122.25399780273438C102.45950317382812,131.62399291992188,101.55950164794922,140.6540069580078,89.87950134277344,142.5540008544922C78.19950103759766,144.45399475097656,62.32939910888672,134.88400268554688,61.289398193359375,136.31399536132812C60.2494010925293,137.74400329589844,65.10940551757812,138.81399536132812,63.289398193359375,141.16400146484375C62.409400939941406,142.29400634765625,54.419498443603516,143.16400146484375,52.64950180053711,140.7740020751953C50.87950134277344,138.38400268554688,50.64950180053711,131.04400634765625,50.45949935913086,129.2740020751953C50.269500732421875,127.50399780273438,48.019500732421875,121.74400329589844,54.64950180053711,120.56400299072266C61.27949905395508,119.38400268554688,68.64950561523438,123.04399871826172,68.64950561523438,123.04399871826172S59.54949951171875,119.91400146484375,59.31949996948242,109.76370239257812zM125.05000305175781,55.90370178222656C124.66629791259766,56.135101318359375,124.41809844970703,56.835601806640625,124.30470275878906,57.86790084838867C129.85699462890625,58.177101135253906,132.39410400390625,77.2072982788086,142.35000610351562,76.73370361328125C145.38400268554688,76.58940124511719,147.52589416503906,75.55940246582031,149.08270263671875,74.1666030883789C149.6501007080078,71.75640106201172,150.25340270996094,70.00520324707031,150.83999633789062,69.48370361328125C151.44459533691406,68.94630432128906,152.1033935546875,68.52519989013672,152.76780700683594,68.1947021484375C153.1710968017578,67.09809875488281,153.460205078125,66.1615982055664,153.7545928955078,65.58450317382812C147.13070678710938,61.71149826049805,129.18099975585938,53.40169906616211,125.05000305175781,55.90370178222656zM59.31949996948242,109.76370239257812C59.15950012207031,103.36370086669922,69.0895004272461,94.15370178222656,80.40950012207031,97.01370239257812C91.72949981689453,99.87370300292969,99.8395004272461,112.88400268554688,101.14949798583984,122.25399780273438C102.45950317382812,131.62399291992188,101.55950164794922,140.6540069580078,89.87950134277344,142.5540008544922C78.19950103759766,144.45399475097656,62.32939910888672,134.88400268554688,61.289398193359375,136.31399536132812C60.2494010925293,137.74400329589844,65.10940551757812,138.81399536132812,63.289398193359375,141.16400146484375C62.409400939941406,142.29400634765625,54.419498443603516,143.16400146484375,52.64950180053711,140.7740020751953C50.87950134277344,138.38400268554688,50.64950180053711,131.04400634765625,50.45949935913086,129.2740020751953C50.269500732421875,127.50399780273438,48.019500732421875,121.74400329589844,54.64950180053711,120.56400299072266C61.27949905395508,119.38400268554688,68.64950561523438,123.04399871826172,68.64950561523438,123.04399871826172S59.54949951171875,119.91400146484375,59.31949996948242,109.76370239257812zM122.47000122070312,139.85400390625C125.2300033569336,141.85400390625,129.3300018310547,142.63400268554688,133.86000061035156,142.73399353027344C140.24000549316406,142.86399841308594,144.27000427246094,140.12399291992188,143.36000061035156,135.44400024414062C142.4499969482422,130.76400756835938,135.29000854492188,132.57400512695312,133.86000061035156,132.83399963378906C133.38900756835938,132.80499267578125,132.93299865722656,132.66600036621094,132.5260009765625,132.42800903320312C132.1199951171875,132.19000244140625,131.77499389648438,131.86000061035156,131.51998901367188,131.4639892578125L122.47000122070312,139.85400390625zM144.75,12.423700332641602C129,12.423700332641602,116.23999786376953,22.97369956970215,116.23999786376953,38.71369934082031C116.23999786376953,39.655399322509766,116.2676010131836,40.57579803466797,116.3115005493164,41.48360061645508C115.01010131835938,42.39720153808594,114,43.817901611328125,114,45.42369842529297C114,47.513999938964844,115.7083969116211,49.2952995300293,117.54810333251953,50.04439926147461C120.6958999633789,62.080501556396484,129.8249969482422,69.44380187988281,148.07000732421875,69.44380187988281C171.5,69.44380187988281,173.25999450683594,57.53379821777344,173.25999450683594,38.71379852294922C173.25999450683594,23.01369857788086,160.5,12.423700332641602,144.75,12.423700332641602zM59.31949996948242,109.76370239257812C59.15950012207031,103.36370086669922,69.0895004272461,94.15370178222656,80.40950012207031,97.01370239257812C91.72949981689453,99.87370300292969,99.8395004272461,112.88400268554688,101.14949798583984,122.25399780273438C102.45950317382812,131.62399291992188,101.55950164794922,140.6540069580078,89.87950134277344,142.5540008544922C78.19950103759766,144.45399475097656,62.32939910888672,134.88400268554688,61.289398193359375,136.31399536132812C60.2494010925293,137.74400329589844,65.10940551757812,138.81399536132812,63.289398193359375,141.16400146484375C62.409400939941406,142.29400634765625,54.419498443603516,143.16400146484375,52.64950180053711,140.7740020751953C50.87950134277344,138.38400268554688,50.64950180053711,131.04400634765625,50.45949935913086,129.2740020751953C50.269500732421875,127.50399780273438,48.019500732421875,121.74400329589844,54.64950180053711,120.56400299072266C61.27949905395508,119.38400268554688,68.64950561523438,123.04399871826172,68.64950561523438,123.04399871826172S59.54949951171875,119.91400146484375,59.31949996948242,109.76370239257812zM59.5703010559082,112.20020294189453C55.917999267578125,107.57949829101562,54.36470031738281,100.8156967163086,55.09980010986328,92.48370361328125C55.169498443603516,91.6937026977539,55.277400970458984,90.94280242919922,55.403900146484375,90.21060180664062C49.135398864746094,97.23639678955078,51.57979965209961,104.98370361328125,51.57979965209961,104.98370361328125C51.57979965209961,104.98370361328125,41.23979949951172,101.98370361328125,36.57979965209961,102.1937026977539C31.9197998046875,102.40370178222656,30.73979949951172,97.1937026977539,24.959800720214844,99.24369812011719C19.519901275634766,101.02369689941406,21.369800567626953,109.58370208740234,17.749799728393555,113.01399993896484C14.129799842834473,116.44400024414062,10.269800186157227,121.86399841308594,15.689800262451172,125.18399810791016C23.779800415039062,128.99400329589844,29.96980094909668,113.18399810791016,34.209800720214844,114.35399627685547C36.635799407958984,115.02339935302734,43.132999420166016,119.32450103759766,50.80329895019531,122.62570190429688C51.49039840698242,121.68319702148438,52.66740036010742,120.91680145263672,54.64950180053711,120.56410217285156C59.71139907836914,119.66320037841797,65.19369506835938,121.58000183105469,67.50900268554688,122.53880310058594C65.33360290527344,121.4531021118164,60.68840026855469,118.44210052490234,59.5703010559082,112.20020294189453z"/>
<path id="OnesieBorder" d="M129.16310119628906,66.04460144042969C129.01919555664062,65.76930236816406,128.8748016357422,65.49380493164062,128.73019409179688,65.21910095214844C130.09210205078125,65.99290466308594,131.577392578125,66.66809844970703,133.1959991455078,67.23649597167969C135.476806640625,71.3843994140625,138.15130615234375,75.24189758300781,142.0009002685547,75.24189758300781C142.0926971435547,75.24189758300781,142.1844940185547,75.23989868164062,142.2781982421875,75.23509979248047C147.19070434570312,75.00160217285156,149.3907012939453,72.1654052734375,150.66659545898438,69.38520050048828C151.8386993408203,69.3363037109375,152.95849609375,69.25810241699219,154.01280212402344,69.14219665527344C152.66079711914062,72.65010070800781,149.8843994140625,77.87680053710938,142.42080688476562,78.23210144042969C135.74319458007812,78.52799987792969,132.0751953125,71.61729431152344,129.16310119628906,66.04460144042969zM162.0897979736328,95.73400115966797L162.0897979736328,95.45760345458984C162.101806640625,77.6093978881836,160.87950134277344,70.78329467773438,159.67210388183594,68.04750061035156C158.5404052734375,68.37930297851562,157.32400512695312,68.65899658203125,155.9976043701172,68.87350463867188C156.47900390625,70.31700134277344,156.84779357910156,72.81219482421875,155.7646026611328,76.37750244140625C155.52439880371094,77.16999816894531,155.9716033935547,78.00789642333984,156.7646026611328,78.24859619140625C157.4246063232422,78.44999694824219,158.11819458007812,78.16490173339844,158.4694061279297,77.60140228271484C158.8372039794922,81.7123031616211,159.0950927734375,87.49420166015625,159.0897979736328,95.45559692382812L159.0897979736328,95.73390197753906C159.0897979736328,98.53959655761719,162.16600036621094,108.10890197753906,165.35740661621094,113.02690124511719L158.9344940185547,115.64409637451172C157.84559631347656,114.30329895019531,156.78900146484375,113.05130004882812,155.78610229492188,111.86380004882812C151.27830505371094,106.52400207519531,148.02149963378906,102.66649627685547,147.83880615234375,97.92630004882812C147.79640197753906,96.82569885253906,147.82510375976562,95.45790100097656,147.90859985351562,93.92729949951172C150.5751953125,91.51850128173828,152.59410095214844,88.98760223388672,153.2978057861328,86.37349700927734C153.5135955810547,85.57369995117188,153.03900146484375,84.75050354003906,152.23919677734375,84.53559875488281C151.44329833984375,84.3198013305664,150.61619567871094,84.79340362548828,150.40130615234375,85.59420013427734C148.95010375976562,90.98190307617188,139.17669677734375,96.91739654541016,132.0408935546875,101.25240325927734L130.0653076171875,102.45449829101562C129.02980041503906,103.08930206298828,127.58309936523438,103.81189727783203,125.83519744873047,104.5864028930664C125.63159942626953,103.55390167236328,125.46160125732422,102.66179656982422,125.33580017089844,101.96620178222656C124.66290283203125,98.24649810791016,127.21279907226562,91.88030242919922,129.4636993408203,86.26409912109375L129.7528076171875,85.54049682617188C130.06039428710938,84.77189636230469,129.6864013671875,83.8989028930664,128.91690063476562,83.59130096435547C128.15029907226562,83.28469848632812,127.27529907226562,83.65769958496094,126.96769714355469,84.42720031738281L126.67859649658203,85.14790344238281C124.16100311279297,91.43309783935547,121.55750274658203,97.93109893798828,122.38469696044922,102.50039672851562C122.73429870605469,104.43589782714844,127.06439971923828,126.31089782714844,128.76260375976562,129.2425994873047C129.17279052734375,130.0218963623047,129.6160888671875,130.79238891601562,130.08580017089844,131.54530334472656L123.37000274658203,138.73480224609375C122.6415023803711,138.02479553222656,122.00479888916016,137.22109985351562,121.46080017089844,136.32070922851562C117.67659759521484,130.45550537109375,108.4197998046875,109.59709930419922,108.4197998046875,103.91349792480469C108.4197998046875,102.85590362548828,108.4656982421875,93.3207015991211,110.05940246582031,84.47699737548828C111.6864013671875,75.45210266113281,114.36799621582031,70.31340026855469,117.61019897460938,70.00680541992188C118.4354019165039,69.92919921875,119.04090118408203,69.19720458984375,118.96269989013672,68.37249755859375C118.88459777832031,67.54679870605469,118.1395034790039,66.93209838867188,117.32890319824219,67.02040100097656C105.993896484375,68.0906982421875,105.4197006225586,97.94080352783203,105.4197006225586,103.91349792480469C105.4197006225586,105.59510040283203,106.0365982055664,108.21050262451172,107.01850128173828,111.27529907226562C104.20709991455078,112.11630249023438,101.31929779052734,112.92109680175781,98.44650268554688,113.660400390625C98.8915023803711,114.59809875488281,99.28759765625,115.53759765625,99.63459777832031,116.46980285644531C102.44010162353516,115.74259948730469,105.2522964477539,114.95459747314453,107.99250030517578,114.1323013305664C111.16709899902344,123.0010986328125,116.4469985961914,134.0832977294922,118.91570281982422,137.90960693359375C119.87079620361328,139.49070739746094,121.09829711914062,140.8675994873047,122.56220245361328,142.00039672851562C122.83470153808594,142.2104034423828,123.15789794921875,142.31390380859375,123.47920227050781,142.31390380859375C123.88249969482422,142.31390380859375,124.28289794921875,142.15280151367188,124.57589721679688,141.8383026123047L133.07589721679688,132.73870849609375C133.552490234375,132.22889709472656,133.61399841308594,131.45840454101562,133.22630310058594,130.87930297851562C132.57199096679688,129.90179443359375,131.9626007080078,128.8813018798828,131.38739013671875,127.79139709472656C130.470703125,126.20700073242188,128.0019989013672,115.18060302734375,126.44229888916016,107.59609985351562C128.60321044921875,106.658203125,130.381591796875,105.78019714355469,131.6334991455078,105.01300048828125L133.59739685058594,103.8156967163086C137.2606964111328,101.5907974243164,141.32760620117188,99.11419677734375,144.83590698242188,96.45600128173828C144.8238067626953,97.0696029663086,144.8240966796875,97.61019897460938,144.84060668945312,98.04129791259766C145.0623016357422,103.81279754638672,148.7830047607422,108.22000122070312,153.49290466308594,113.79810333251953C154.5417022705078,115.04029846191406,155.6501007080078,116.35279846191406,156.79269409179688,117.76589965820312L156.80340576171875,117.79029846191406C156.85609436035156,117.91429901123047,156.90789794921875,118.035400390625,156.96359252929688,118.15360260009766C157.21749877929688,118.693603515625,157.75559997558594,119.01399993896484,158.3209991455078,119.01399993896484C158.50950622558594,119.01399993896484,158.70089721679688,118.97879791259766,158.8863983154297,118.90270233154297L168.28579711914062,115.07260131835938C168.73789978027344,114.88800048828125,169.07290649414062,114.49449920654297,169.18130493164062,114.01789855957031C169.2906951904297,113.54129791259766,169.15980529785156,113.04129791259766,168.83169555664062,112.6781005859375C165.83689880371094,109.36389923095703,162.0897979736328,98.34239959716797,162.0897979736328,95.73400115966797zM122.45809936523438,60.00080108642578C121.81829833984375,59.22529983520508,121.24420166015625,58.39799880981445,120.71060180664062,57.53850173950195C120.36109924316406,57.73160171508789,120.00879669189453,57.932899475097656,119.63860321044922,58.14899826049805C116.56539916992188,59.944400787353516,111.4207992553711,62.949798583984375,94.31439971923828,66.26080322265625C71.62979888916016,70.65139770507812,55.24020004272461,73.82379913330078,53.60540008544922,92.35209655761719C52.757301330566406,101.96440124511719,54.85049819946289,109.65290069580078,59.658599853515625,114.58550262451172C59.94240188598633,114.87660217285156,60.25339889526367,115.13600158691406,60.555198669433594,115.40640258789062C59.852298736572266,113.8240966796875,59.36940002441406,111.96849822998047,59.319400787353516,109.76360321044922C59.31449890136719,109.56759643554688,59.31959915161133,109.3687973022461,59.33340072631836,109.16790008544922C56.946998596191406,104.9761962890625,55.9995002746582,99.3490982055664,56.59370040893555,92.61579895019531C57.96580123901367,77.0635986328125,70.66690063476562,73.89360046386719,94.88469696044922,69.20610046386719C112.49310302734375,65.79789733886719,117.91300201416016,62.63140106201172,121.15229797363281,60.73929977416992C121.63809967041016,60.45539855957031,122.05829620361328,60.21189880371094,122.45809936523438,60.00080108642578z"/>
<path id="Nose" d="M149.74020385742188,53.88050079345703C149.28219604492188,53.88050079345703,148.91009521484375,53.5088996887207,148.91009521484375,53.05039978027344C148.91009521484375,52.59189987182617,149.28219604492188,52.220298767089844,149.74020385742188,52.220298767089844C150.1298065185547,52.220298767089844,150.49609375,52.06840133666992,150.77239990234375,51.79209899902344C151.04879760742188,51.516700744628906,151.20010375976562,51.150001525878906,151.20010375976562,50.760398864746094C151.20010375976562,50.37030029296875,151.0487060546875,50.00360107421875,150.77239990234375,49.727699279785156C150.4969940185547,49.452301025390625,150.1298065185547,49.300498962402344,149.74020385742188,49.300498962402344C149.28219604492188,49.300498962402344,148.91009521484375,48.92890167236328,148.91009521484375,48.470401763916016C148.91009521484375,48.01190185546875,149.28219604492188,47.64030075073242,149.74020385742188,47.64030075073242C150.5731964111328,47.64030075073242,151.3563995361328,47.964500427246094,151.94630432128906,48.55339813232422C152.53610229492188,49.1431999206543,152.8603973388672,49.92689895629883,152.8603973388672,50.760398864746094C152.8603973388672,51.59339904785156,152.53619384765625,52.37710189819336,151.94630432128906,52.96649932861328S150.57229614257812,53.88050079345703,149.74020385742188,53.88050079345703z"/>
<path id="EyesBorder" fill="#FFFFFF" d="M142.92999267578125,46.25019836425781C142.92999267578125,47.005699157714844,142.70599365234375,47.744300842285156,142.28599548339844,48.372501373291016C141.86599731445312,49.000701904296875,141.27000427246094,49.490299224853516,140.57200622558594,49.77939987182617C139.87399291992188,50.06850051879883,139.1060028076172,50.14419937133789,138.364990234375,49.99679946899414C137.62399291992188,49.84939956665039,136.9429931640625,49.485599517822266,136.40899658203125,48.95130157470703C135.875,48.41709899902344,135.51100158691406,47.73640060424805,135.36300659179688,46.995399475097656C135.21600341796875,46.254398345947266,135.2919921875,45.48630142211914,135.58099365234375,44.788299560546875C135.8699951171875,44.090301513671875,136.36000061035156,43.49369812011719,136.98800659179688,43.07400131225586C137.61599731445312,42.65420150756836,138.35501098632812,42.430198669433594,139.11000061035156,42.430198669433594C140.1230010986328,42.430198669433594,141.09500122070312,42.832698822021484,141.81100463867188,43.54899978637695C142.5279998779297,44.26539993286133,142.92999267578125,45.237098693847656,142.92999267578125,46.25019836425781L142.92999267578125,46.25019836425781zM163.08999633789062,46.25019836425781C163.08999633789062,47.005699157714844,162.86599731445312,47.744300842285156,162.4459991455078,48.372501373291016C162.02699279785156,49.000701904296875,161.42999267578125,49.490299224853516,160.73199462890625,49.77939987182617C160.03399658203125,50.06850051879883,159.26600646972656,50.14419937133789,158.52499389648438,49.99679946899414C157.78399658203125,49.84939956665039,157.10299682617188,49.485599517822266,156.56900024414062,48.95130157470703C156.03500366210938,48.41709899902344,155.67100524902344,47.73640060424805,155.5240020751953,46.995399475097656C155.37600708007812,46.254398345947266,155.45199584960938,45.48630142211914,155.74099731445312,44.788299560546875C156.02999877929688,44.090301513671875,156.52000427246094,43.49369812011719,157.1479949951172,43.07400131225586C157.7760009765625,42.65420150756836,158.51499938964844,42.430198669433594,159.27000427246094,42.430198669433594C160.2830047607422,42.43280029296875,161.2530059814453,42.83620071411133,161.96800231933594,43.551998138427734C162.6840057373047,44.267799377441406,163.08799743652344,45.23789978027344,163.08999633789062,46.25019836425781L163.08999633789062,46.25019836425781z"/>
<path id="Eyes" d="M142.5399932861328,45.540199279785156C142.5399932861328,46.13349914550781,142.36399841308594,46.713600158691406,142.03399658203125,47.20690155029297C141.7050018310547,47.70029830932617,141.23599243164062,48.084800720214844,140.68800354003906,48.311798095703125C140.13999938964844,48.53889846801758,139.53700256347656,48.59830093383789,138.9550018310547,48.48249816894531C138.3730010986328,48.366798400878906,137.83799743652344,48.08110046386719,137.41900634765625,47.6614990234375C136.99899291992188,47.24190139770508,136.71299743652344,46.707401275634766,136.59799194335938,46.1254997253418C136.48199462890625,45.54349899291992,136.54100036621094,44.94029998779297,136.76800537109375,44.3922004699707C136.9949951171875,43.84400177001953,137.3800048828125,43.37540054321289,137.8730010986328,43.045799255371094C138.36700439453125,42.71609878540039,138.94699096679688,42.540199279785156,139.5399932861328,42.540199279785156C140.33599853515625,42.540199279785156,141.0989990234375,42.856300354003906,141.66099548339844,43.41889953613281C142.2239990234375,43.98149871826172,142.5399932861328,44.74449920654297,142.5399932861328,45.540199279785156zM162.6999969482422,45.540199279785156C162.6999969482422,46.13349914550781,162.5240020751953,46.713600158691406,162.19500732421875,47.20690155029297C161.86500549316406,47.70029830932617,161.39599609375,48.084800720214844,160.84800720214844,48.311798095703125C160.3000030517578,48.53889846801758,159.69700622558594,48.59830093383789,159.11500549316406,48.48249816894531C158.5330047607422,48.366798400878906,157.9980010986328,48.08110046386719,157.57899475097656,47.6614990234375C157.15899658203125,47.24190139770508,156.87399291992188,46.707401275634766,156.75799560546875,46.1254997253418C156.64199829101562,45.54349899291992,156.70199584960938,44.94029998779297,156.9290008544922,44.3922004699707C157.156005859375,43.84400177001953,157.5399932861328,43.37540054321289,158.0330047607422,43.045799255371094C158.52699279785156,42.71609878540039,159.10699462890625,42.540199279785156,159.6999969482422,42.540199279785156C160.49600219726562,42.540199279785156,161.25900268554688,42.856300354003906,161.82200622558594,43.41889953613281C162.38400268554688,43.98149871826172,162.6999969482422,44.74449920654297,162.6999969482422,45.540199279785156z"/>
<path id="Eyebrows" d="M167.7938995361328,44.16659927368164C167.69720458984375,44.20320129394531,167.59759521484375,44.220298767089844,167.5,44.220298767089844C167.1649932861328,44.220298767089844,166.84959411621094,44.01620101928711,166.72360229492188,43.684200286865234C166.35060119628906,42.69839859008789,165.7469940185547,41.797000885009766,164.9774932861328,41.07820129394531C164.20700073242188,40.35900115966797,163.2675018310547,39.818397521972656,162.2606964111328,39.51519775390625C160.05369567871094,38.73149871826172,158.4676971435547,38.709999084472656,157.22950744628906,39.43659973144531C156.83399963378906,39.667999267578125,156.32420349121094,39.534698486328125,156.0937957763672,39.13970184326172C155.8614044189453,38.74420166015625,155.99420166015625,38.23590087890625,156.3896942138672,38.003997802734375C158.0850067138672,37.011802673339844,160.11329650878906,36.99079895019531,162.7783966064453,37.93810272216797C163.9893035888672,38.302398681640625,165.15440368652344,38.972801208496094,166.1103973388672,39.864898681640625C167.0644989013672,40.75699996948242,167.81350708007812,41.87419891357422,168.27639770507812,43.09629821777344C168.43850708007812,43.5255012512207,168.2227020263672,44.00450134277344,167.7938995361328,44.16659927368164zM142.58790588378906,38.50790023803711C140.91900634765625,37.403900146484375,138.98150634765625,37.2218017578125,136.2998046875,37.91709899902344C133.27439880371094,38.708099365234375,130.88088989257812,40.75499725341797,130.2021026611328,43.131900787353516C130.07611083984375,43.57279968261719,130.33099365234375,44.03179931640625,130.77139282226562,44.157798767089844C130.84759521484375,44.1797981262207,130.92469787597656,44.189998626708984,130.99990844726562,44.189998626708984C131.3612060546875,44.189998626708984,131.69419860839844,43.952701568603516,131.79779052734375,43.58789825439453C132.31930541992188,41.764198303222656,134.2509002685547,40.16850280761719,136.71868896484375,39.523399353027344C138.93161010742188,38.94770050048828,140.41299438476562,39.05999755859375,141.6717987060547,39.89250183105469C142.05360412597656,40.146400451660156,142.56829833984375,40.04090118408203,142.82220458984375,39.65810012817383C143.0751953125,39.2760009765625,142.96969604492188,38.760902404785156,142.58790588378906,38.50790023803711z"/>
<path id="Mouth" fill="#BB6E56" d="M145,57.42369842529297L154.89999389648438,57.823699951171875C154.89999389648438,57.823699951171875,153.89999389648438,61.92369842529297,149.6999969482422,61.92369842529297C145.39999389648438,62.02370071411133,145,57.42369842529297,145,57.42369842529297z"/>
<path id="MouthBorder" d="M149.5438995361328,62.75550079345703C145.66600036621094,62.75550079345703,144.33200073242188,59.3306999206543,144.1728057861328,57.495201110839844C144.1522979736328,57.25790023803711,144.2342987060547,57.022499084472656,144.39939880371094,56.85020065307617C144.56350708007812,56.677799224853516,144.7899932861328,56.57870101928711,145.033203125,56.59389877319336L154.93359375,56.994300842285156C155.18260192871094,57.00410079956055,155.41409301757812,57.1255989074707,155.56350708007812,57.32440185546875C155.71389770507812,57.523101806640625,155.76559448242188,57.77899932861328,155.7071075439453,58.02069854736328C155.3076934814453,59.657901763916016,153.53819274902344,62.75410079956055,149.70030212402344,62.75410079956055C149.6475067138672,62.755001068115234,149.595703125,62.75550079345703,149.5438995361328,62.75550079345703zM146.0186004638672,58.295501708984375C146.35260009765625,59.416099548339844,147.24029541015625,61.09479904174805,149.56649780273438,61.09479904174805C149.60459899902344,61.09479904174805,149.6427001953125,61.09429931640625,149.68080139160156,61.093299865722656C151.9971923828125,61.093299865722656,153.16619873046875,59.63330078125,153.7012939453125,58.60649871826172L146.0186004638672,58.295501708984375z"/>
<path id="Hair" fill="#955D31" d="M121.9990005493164,35.42369842529297C121.9990005493164,39.42369842529297,118.83300018310547,40.59040069580078,116.5,40.92369842529297C115,37.92369842529297,116.9990005493164,13.074800491333008,141.99899291992188,12.574800491333008C165.85699462890625,12.097599983215332,170.27999877929688,26.733800888061523,172.4600067138672,33.94709777832031L172.49899291992188,34.074798583984375C170.99899291992188,30.574800491333008,165.7989959716797,22.274799346923828,152.99899291992188,19.074798583984375C136.99899291992188,15.074800491333008,121.9990005493164,30.4237003326416,121.9990005493164,35.42369842529297z"/>
<path id="HairBorder" d="M116.5,40.92369842529297L115.15799713134766,41.59449768066406C115.4469985961914,42.172000885009766,116.072998046875,42.499900817871094,116.71199798583984,42.408599853515625L116.5,40.92369842529297zM172.49899291992188,34.074798583984375L171.1199951171875,34.66570281982422C171.4340057373047,35.397300720214844,172.26400756835938,35.75659942626953,173.01199340820312,35.48429870605469C173.75999450683594,35.21189880371094,174.1649932861328,34.402801513671875,173.93499755859375,33.640899658203125L172.49899291992188,34.074798583984375zM172.4600067138672,33.94709777832031L171.0240020751953,34.38100051879883L171.0240020751953,34.381099700927734L172.4600067138672,33.94709777832031zM141.99899291992188,12.574800491333008L141.968994140625,11.07509994506836L141.99899291992188,12.574800491333008zM116.71199798583984,42.408599853515625C117.99199676513672,42.22570037841797,119.66200256347656,41.79750061035156,121.03900146484375,40.73749923706055C122.49099731445312,39.62010192871094,123.4990005493164,37.888999938964844,123.4990005493164,35.42369842529297L120.4990005493164,35.42369842529297C120.4990005493164,36.95840072631836,119.9229965209961,37.810699462890625,119.20999908447266,38.359901428222656C118.4209976196289,38.96659851074219,117.34100341796875,39.28839874267578,116.28800201416016,39.43880081176758L116.71199798583984,42.408599853515625zM123.4990005493164,35.42369842529297C123.4990005493164,35.13169860839844,123.62200164794922,34.587501525878906,124.01899719238281,33.78779983520508C124.4010009765625,33.01539993286133,124.98600006103516,32.111000061035156,125.76599884033203,31.131799697875977C127.32499694824219,29.17449951171875,129.5889892578125,27.011699676513672,132.35000610351562,25.109399795532227C137.8939971923828,21.288799285888672,145.2010040283203,18.671600341796875,152.63499450683594,20.529998779296875L153.36199951171875,17.619600296020508C144.79600524902344,15.478099822998047,136.60299682617188,18.535301208496094,130.64801025390625,22.63909912109375C127.65799713134766,24.69900131225586,125.1729965209961,27.06100082397461,123.41899871826172,29.262800216674805C122.54299926757812,30.36319923400879,121.83100128173828,31.44700050354004,121.33100128173828,32.45539855957031C120.84400177001953,33.436500549316406,120.4990005493164,34.4656982421875,120.4990005493164,35.42369842529297L123.4990005493164,35.42369842529297zM152.63499450683594,20.529998779296875C164.87600708007812,23.590200424194336,169.75799560546875,31.48699951171875,171.1199951171875,34.66570281982422L173.8769989013672,33.48390197753906C172.24000549316406,29.662599563598633,166.7220001220703,20.959400177001953,153.36199951171875,17.619600296020508L152.63499450683594,20.529998779296875zM173.93499755859375,33.640899658203125L173.89599609375,33.51319885253906L171.0240020751953,34.381099700927734L171.06300354003906,34.508697509765625L173.93499755859375,33.640899658203125zM173.89599609375,33.51319885253906C172.8090057373047,29.916200637817383,171.07699584960938,24.123699188232422,166.43600463867188,19.33329963684082C161.73599243164062,14.482099533081055,154.23800659179688,10.829700469970703,141.968994140625,11.07509994506836L142.0290069580078,14.07450008392334C153.6179962158203,13.842700004577637,160.25999450683594,17.269800186157227,164.281005859375,21.420700073242188C168.36199951171875,25.63249969482422,169.93099975585938,30.764699935913086,171.0240020751953,34.38100051879883L173.89599609375,33.51319885253906zM141.968994140625,11.07509994506836C128.8509979248047,11.337499618530273,121.63600158691406,18.04800033569336,117.97899627685547,25.123001098632812C116.16999816894531,28.624399185180664,115.23500061035156,32.198097229003906,114.8489990234375,35.10110092163086C114.65599822998047,36.55329895019531,114.59700012207031,37.859901428222656,114.64099884033203,38.92679977416992C114.68199920654297,39.92169952392578,114.81900024414062,40.91490173339844,115.15799713134766,41.59449768066406L117.84200286865234,40.252899169921875C117.84600067138672,40.26110076904297,117.83200073242188,40.23500061035156,117.80999755859375,40.159202575683594C117.78900146484375,40.08650207519531,117.76499938964844,39.985801696777344,117.74099731445312,39.854000091552734C117.69400024414062,39.588897705078125,117.65599822998047,39.237300872802734,117.63800048828125,38.80270004272461C117.60199737548828,37.934600830078125,117.64900207519531,36.8036994934082,117.822998046875,35.496700286865234C118.1709976196289,32.881099700927734,119.01699829101562,29.64889907836914,120.64399719238281,26.500499725341797C123.86199951171875,20.2760009765625,130.14700317382812,14.312200546264648,142.0290069580078,14.07450008392334L141.968994140625,11.07509994506836z"/>
<path d="M80.77690124511719,95.55919647216797C74.87850189208984,94.06800079345703,68.66799926757812,95.47029876708984,63.742698669433594,99.40689849853516C60.00490188598633,102.39320373535156,57.73590087890625,106.37470245361328,57.819801330566406,109.79750061035156C57.911598205566406,113.84929656982422,59.308101654052734,116.89420318603516,61.047298431396484,119.12950134277344C58.94129943847656,118.79450225830078,56.63570022583008,118.68710327148438,54.38669967651367,119.0875015258789C52.733299255371094,119.38189697265625,51.41230010986328,119.96379852294922,50.432701110839844,120.81710052490234C46.71540069580078,119.160400390625,43.31169891357422,117.30789947509766,40.61920166015625,115.83940124511719C37.878501892089844,114.34429931640625,35.89800262451172,113.26419830322266,34.60890197753906,112.90779876708984C34.311500549316406,112.82579803466797,34.01860046386719,112.7876968383789,33.72800064086914,112.7876968383789C31.460899353027344,112.7876968383789,29.369600296020508,115.15489959716797,26.990699768066406,117.84819793701172C23.130800247192383,122.21929931640625,19.89550018310547,125.44100189208984,16.402299880981445,123.86090087890625C15.235799789428711,123.12850189208984,14.618599891662598,122.29640197753906,14.51609992980957,121.31790161132812C14.324199676513672,119.48290252685547,15.878900527954102,116.85310363769531,18.781700134277344,114.10310363769531C20.66550064086914,112.31790161132812,21.27239990234375,109.6333999633789,21.859298706054688,107.0376968383789C22.64929962158203,103.5436019897461,23.283599853515625,101.37069702148438,25.46139907836914,100.65779876708984C28.055200576782227,99.73490142822266,29.307600021362305,100.56990051269531,31.039499282836914,101.7251968383789C32.50189971923828,102.69979858398438,34.16449737548828,103.8228988647461,36.64690017700195,103.69200134277344C41.01750183105469,103.5250015258789,51.06100082397461,106.39510345458984,51.1614990234375,106.42440032958984C51.69129943847656,106.57869720458984,52.26060104370117,106.42639923095703,52.647300720214844,106.03379821777344C53.034000396728516,105.64119720458984,53.17319869995117,105.06500244140625,53.011600494384766,104.5376968383789C52.92190170288086,104.24549865722656,51.31629943847656,98.74559783935547,55.066001892089844,93.09140014648438C55.08150100708008,92.88580322265625,55.081298828125,92.69120025634766,55.09960174560547,92.48370361328125C55.26100158691406,90.65450286865234,55.584999084472656,88.99340057373047,56.04719924926758,87.46389770507812C51.666099548339844,91.37570190429688,50.20130157470703,95.70680236816406,49.776100158691406,98.79550170898438C49.556400299072266,100.38829803466797,49.58369827270508,101.80229949951172,49.69020080566406,102.9126968383789C46.29859924316406,102.0250015258789,40.007598876953125,100.5376968383789,36.512001037597656,100.6958999633789C35.007598876953125,100.7593994140625,33.989501953125,100.08650207519531,32.70289993286133,99.22810363769531C30.81719970703125,97.97129821777344,28.4685001373291,96.40779876708984,24.49340057373047,97.81790161132812C20.578399658203125,99.0990982055664,19.704299926757812,102.96540069580078,18.932899475097656,106.37650299072266C18.422199249267578,108.6343002319336,17.940200805664062,110.76709747314453,16.71809959411621,111.92530059814453C14.144399642944336,114.36380004882812,11.155099868774414,118.02690124511719,11.532600402832031,121.63040161132812C11.738200187683105,123.59130096435547,12.872900009155273,125.21730041503906,14.906100273132324,126.4634017944336C14.95300006866455,126.49169921875,15.001299858093262,126.51809692382812,15.050600051879883,126.54149627685547C20.88949966430664,129.29049682617188,25.715200424194336,123.82469940185547,29.239599227905273,119.83450317382812C30.646299362182617,118.24169921875,32.99839782714844,115.57769775390625,33.81089782714844,115.80030059814453C34.765499114990234,116.06300354003906,36.812400817871094,117.1801986694336,39.18199920654297,118.47319793701172C41.829002380371094,119.91699981689453,45.13589859008789,121.71600341796875,48.777000427246094,123.36360168457031C48.15999984741211,125.2927017211914,48.55569839477539,127.32499694824219,48.82550048828125,128.6519012451172C48.88850021362305,128.96340942382812,48.94609832763672,129.22900390625,48.968101501464844,129.43409729003906C48.997398376464844,129.71051025390625,49.0276985168457,130.12750244140625,49.06529998779297,130.64208984375C49.3739013671875,134.83840942382812,49.83729934692383,139.4976043701172,51.44369888305664,141.66650390625C52.711299896240234,143.3773956298828,55.49549865722656,143.76710510253906,57.6077995300293,143.7935028076172C57.83190155029297,143.79150390625,63.10540008544922,143.84039306640625,64.47549438476562,142.0825958251953C65.5198974609375,140.73399353027344,65.30609893798828,139.54739379882812,64.75479888916016,138.6304931640625C65.3041000366211,138.83749389648438,65.87590026855469,139.0592041015625,66.42669677734375,139.2720947265625C71.76750183105469,141.3385009765625,79.44329833984375,144.30819702148438,86.56780242919922,144.30819702148438C87.77239990234375,144.30819702148438,88.9614028930664,144.22320556640625,90.12000274658203,144.03480529785156C103.78309631347656,141.81210327148438,103.80650329589844,130.42050170898438,102.63459777832031,122.04550170898438C101.17379760742188,111.59439849853516,92.40190124511719,98.49669647216797,80.77690124511719,95.55919647216797zM89.63870239257812,141.0738983154297C82.4301986694336,142.24679565429688,73.08889770507812,138.6334991455078,67.5093002319336,136.47430419921875C64.5884017944336,135.34439086914062,62.81589889526367,134.65789794921875,61.64310073852539,134.65789794921875C60.948299407958984,134.65789794921875,60.46390151977539,134.89910888671875,60.076698303222656,135.43130493164062C58.79790115356445,137.19009399414062,60.54199981689453,138.64320373535156,61.28710174560547,139.26429748535156C61.56050109863281,139.49180603027344,62.051300048828125,139.9010009765625,62.18360137939453,140.12759399414062C62.180198669433594,140.1334991455078,62.17679977416992,140.13929748535156,62.17290115356445,140.1461944580078C60.884300231933594,140.86099243164062,54.839900970458984,141.20970153808594,53.85499954223633,139.88160705566406C52.63090133666992,138.2292938232422,52.21440124511719,132.55740356445312,52.05759811401367,130.422607421875C52.0166015625,129.864990234375,51.9828987121582,129.41281127929688,51.95069885253906,129.11399841308594C51.9213981628418,128.8376007080078,51.85110092163086,128.47531127929688,51.76559829711914,128.0543975830078C51.50389862060547,126.76629638671875,51.1083984375,124.81999969482422,51.957000732421875,123.5719985961914C52.472599029541016,122.81320190429688,53.466800689697266,122.29859924316406,54.91210174560547,122.04080200195312C59.63090133666992,121.2029037475586,64.89700317382812,123.0779037475586,67.02050018310547,123.96070098876953C67.16009521484375,124.02989959716797,67.28189849853516,124.08650207519531,67.39950561523438,124.14070129394531C67.51139831542969,124.22830200195312,67.63249969482422,124.30650329589844,67.77149963378906,124.36109924316406C70.12060546875,125.28399658203125,81.7177963256836,127.560302734375,83.03269958496094,127.81719970703125C83.12940216064453,127.83580017089844,83.2260971069336,127.84449768066406,83.32129669189453,127.84449768066406C84.02439880371094,127.84449768066406,84.65239715576172,127.34739685058594,84.79199981689453,126.63159942626953C84.95069885253906,125.81909942626953,84.42040252685547,125.03099822998047,83.60690307617188,124.8718032836914C78.9530029296875,123.96379852294922,71.7344970703125,122.45790100097656,69.37750244140625,121.73789978027344C69.3563003540039,121.7260971069336,69.33830261230469,121.71070098876953,69.31639862060547,121.69989776611328C69.24359893798828,121.66380310058594,68.79049682617188,121.44210052490234,68.05130004882812,121.13639831542969C65.83300018310547,119.9937973022461,60.97710037231445,116.70279693603516,60.81890106201172,109.72920227050781C60.81890106201172,109.72820281982422,60.81890106201172,109.72720336914062,60.81890106201172,109.72630310058594C60.75740051269531,107.25849914550781,62.640201568603516,104.12770080566406,65.61529541015625,101.75070190429688C69.80180358886719,98.40599822998047,75.06109619140625,97.20870208740234,80.04209899902344,98.46749877929688C91.04550170898438,101.247802734375,98.50789642333984,114.18820190429688,99.66419982910156,122.46160125732422C101.29199981689453,134.0991973876953,98.29299926757812,139.6656036376953,89.63870239257812,141.0738983154297z"/>
<path d="M174.75979614257812,38.7135009765625C174.75979614257812,22.87070083618164,161.8583984375,10.92389965057373,144.75,10.92389965057373C127.6416015625,10.92389965057373,114.74019622802734,22.87070083618164,114.74019622802734,38.7135009765625C114.74019622802734,39.408302307128906,114.75409698486328,40.09000015258789,114.77870178222656,40.761497497558594C113.44110107421875,41.93170166015625,112.5,43.57160186767578,112.5,45.42340087890625C112.5,47.94160079956055,114.23770141601562,50.07099914550781,116.35030364990234,51.15489959716797C120.15650177001953,64.28700256347656,130.76669311523438,70.94340515136719,148.07029724121094,70.94340515136719C172.845703125,70.94349670410156,174.75979614257812,57.58509826660156,174.75979614257812,38.7135009765625zM148.07029724121094,67.94349670410156C132.64981079101562,67.94349670410156,123.38619995117188,62.76689910888672,119.658203125,51.8849983215332C120.3281021118164,51.73500061035156,120.8301010131836,51.138999938964844,120.8301010131836,50.423500061035156C120.8301010131836,49.59489822387695,120.158203125,48.923500061035156,119.3301010131836,48.923500061035156C117.81739807128906,48.923500061035156,115.5,47.35559844970703,115.5,45.423500061035156C115.5,43.49140167236328,117.81739807128906,41.923500061035156,119.3301010131836,41.923500061035156C120.158203125,41.923500061035156,120.8301010131836,41.252098083496094,120.8301010131836,40.423500061035156C120.8301010131836,39.59490203857422,120.158203125,38.923500061035156,119.3301010131836,38.923500061035156C118.8104019165039,38.923500061035156,118.277099609375,39.0072021484375,117.74819946289062,39.152000427246094C117.74690246582031,39.00429916381836,117.74030303955078,38.86260223388672,117.74030303955078,38.7135009765625C117.74030303955078,24.349201202392578,129.09970092773438,13.92389965057373,144.75010681152344,13.92389965057373C160.40049743652344,13.92389965057373,171.75990295410156,24.349201202392578,171.75990295410156,38.7135009765625C171.75979614257812,58.58259963989258,169.4228973388672,67.94349670410156,148.07029724121094,67.94349670410156z"/>
<path d="M180.0352020263672,120.72329711914062C178.70509338378906,116.81710052490234,171.30380249023438,113.95960235595703,169.67190551757812,113.3727035522461C169.37600708007812,113.23500061035156,169.1123046875,113.02799987792969,168.9073028564453,112.77310180664062C168.49319458007812,112.25849914550781,167.78720092773438,112.07779693603516,167.17880249023438,112.3228988647461L157.7989044189453,116.10220336914062C157.4239044189453,116.25360107421875,157.12510681152344,116.55039978027344,156.9718017578125,116.92449951171875C156.81849670410156,117.29859924316406,156.82240295410156,117.71939849853516,156.98350524902344,118.09049987792969C159.3428955078125,123.53389739990234,163.56260681152344,128.00160217285156,166.2471923828125,128.00160217285156C166.36439514160156,128.00160217285156,166.47959899902344,127.9937973022461,166.59100341796875,127.9761962890625C168.03919982910156,127.74960327148438,168.63099670410156,126.66470336914062,168.94839477539062,126.08170318603516C169.0030975341797,125.98210144042969,169.0792999267578,125.84239959716797,169.13490295410156,125.75849914550781C169.92010498046875,125.72139739990234,170.90049743652344,125.81220245361328,171.93179321289062,125.90689849853516C174.8096923828125,126.17150115966797,178.07730102539062,126.47329711914062,179.62130737304688,124.07579803466797C180.28610229492188,123.04060363769531,180.42970275878906,121.88150024414062,180.0352020263672,120.72329711914062zM172.20700073242188,122.91960144042969C171.08790588378906,122.81710052490234,169.93060302734375,122.70870208740234,168.90130615234375,122.76730346679688C167.28700256347656,122.86199951171875,166.65420532226562,124.02320098876953,166.3144073486328,124.64620208740234C166.2548065185547,124.75559997558594,166.17080688476562,124.90889739990234,166.1396026611328,124.97730255126953C165.2772979736328,124.68730163574219,162.54490661621094,122.48609924316406,160.39349365234375,118.29180145263672L167.39549255371094,115.47049713134766C167.7353057861328,115.73809814453125,168.1083984375,115.96269989013672,168.50489807128906,116.13749694824219C168.53709411621094,116.15119934082031,168.57130432128906,116.16480255126953,168.60450744628906,116.17749786376953C171.62399291992188,117.25509643554688,175.01699829101562,119.03690338134766,176.50340270996094,120.63790130615234C175.8607940673828,120.52140045166016,175.06419372558594,120.50479888916016,174.1436004638672,120.49250030517578C173.4658966064453,120.48370361328125,172.7071075439453,120.4729995727539,171.88290405273438,120.42320251464844C171.5821075439453,120.3988037109375,171.3701934814453,120.6166000366211,171.35360717773438,120.89199829101562C171.33700561523438,121.16739654541016,171.5469970703125,121.40470123291016,171.82240295410156,121.42130279541016C172.66419982910156,121.47209930419922,173.4385986328125,121.48280334472656,174.1300048828125,121.49259948730469C175.69540405273438,121.51409912109375,176.93179321289062,121.53070068359375,177.09779357910156,122.03070068359375C177.1186065673828,122.09269714355469,177.16769409179688,122.13140106201172,177.20770263671875,122.17849731445312C177.1833038330078,122.26830291748047,177.16000366210938,122.35659790039062,177.09779357910156,122.4531021118164C176.54200744628906,123.31800079345703,174.1396026611328,123.09919738769531,172.20700073242188,122.91960144042969z"/>
<path d="M142.71389770507812,131.89610290527344C139.99029541015625,130.0718994140625,135.75689697265625,130.92440795898438,133.94830322265625,131.28768920898438L133.79299926757812,131.3179931640625C133.6143035888672,131.28768920898438,133.44140625,131.22518920898438,133.2852020263672,131.1343994140625C133.08209228515625,131.01528930664062,132.9073028564453,130.8472900390625,132.779296875,130.64999389648438C132.53810119628906,130.27789306640625,132.1455078125,130.03089904785156,131.7061004638672,129.9761962890625C131.26080322265625,129.9215087890625,130.82431030273438,130.0631103515625,130.5,130.36489868164062L121.45020294189453,138.75450134277344C121.12010192871094,139.0592041015625,120.94529724121094,139.4967041015625,120.97270202636719,139.9449005126953C121.0000991821289,140.39309692382812,121.22560119628906,140.8052978515625,121.58989715576172,141.0688934326172C124.36329650878906,143.07870483398438,128.36630249023438,144.11380004882812,133.83010864257812,144.23390197753906C133.98440551757812,144.23680114746094,134.13670349121094,144.23779296875,134.28909301757812,144.23779296875C138.42779541015625,144.23779296875,141.67869567871094,143.07569885253906,143.47369384765625,140.94290161132812C144.79299926757812,139.37449645996094,145.26370239257812,137.37449645996094,144.83309936523438,135.15769958496094C144.56350708007812,133.77110290527344,143.8311004638672,132.64419555664062,142.71389770507812,131.89610290527344zM141.84779357910156,137.69430541992188C140.80690002441406,136.92239379882812,138.64520263671875,137.026611328125,137.49609375,137.22129821777344C137.224609375,137.26820373535156,137.04100036621094,137.5260009765625,137.08689880371094,137.79840087890625C137.1337890625,138.07179260253906,137.39649963378906,138.2563934326172,137.66400146484375,138.2075958251953C138.99899291992188,137.9781036376953,140.72360229492188,138.03469848632812,141.2967987060547,138.51809692382812C141.35659790039062,138.56869506835938,141.3885955810547,138.61520385742188,141.40919494628906,138.65879821777344C141.3325958251953,138.77639770507812,141.27099609375,138.90130615234375,141.17860412597656,139.01119995117188C141.00210571289062,139.2209014892578,140.7902069091797,139.4134063720703,140.55889892578125,139.595703125C140.5417022705078,139.57640075683594,140.53550720214844,139.5509033203125,140.51649475097656,139.53269958496094C139.9394073486328,138.97799682617188,138.67568969726562,139.07859802246094,136.58580017089844,139.24560546875C136.08580017089844,139.2855987548828,135.54669189453125,139.32859802246094,134.97740173339844,139.3647003173828C134.70199584960938,139.38229370117188,134.4929962158203,139.61959838867188,134.51058959960938,139.89590454101562C134.5281982421875,140.17129516601562,134.77719116210938,140.3881072998047,135.04180908203125,140.36270141601562C135.61599731445312,140.3256072998047,136.16000366210938,140.2825927734375,136.664794921875,140.2425994873047C137.7882080078125,140.152099609375,139.14439392089844,140.04440307617188,139.64100646972656,140.16940307617188C138.21920776367188,140.89990234375,136.2332000732422,141.28529357910156,133.893310546875,141.23379516601562C130.15399169921875,141.15179443359375,127.16480255126953,140.59609985351562,124.97239685058594,139.57949829101562L131.485107421875,133.54139709472656C131.57791137695312,133.60589599609375,131.672607421875,133.66639709472656,131.76930236816406,133.72299194335938C132.37770080566406,134.0784912109375,133.069091796875,134.28839111328125,133.77029418945312,134.3303985595703C133.8914031982422,134.33718872070312,134.010498046875,134.33139038085938,134.12869262695312,134.30889892578125L134.539794921875,134.22879028320312C135.731201171875,133.989501953125,139.3582000732422,133.260009765625,141.04469299316406,134.38900756835938C141.42669677734375,134.64450073242188,141.66990661621094,134.99130249023438,141.8105010986328,135.45169067382812C141.05760192871094,135.10459899902344,139.99710083007812,134.98590087890625,138.61309814453125,135.11550903320312C138.3386993408203,135.14190673828125,138.13650512695312,135.385009765625,138.16189575195312,135.660400390625C138.18829345703125,135.93479919433594,138.4373016357422,136.13009643554688,138.70680236816406,136.11160278320312C139.9694061279297,135.99330139160156,141.50469970703125,136.04559326171875,141.9676055908203,136.8675994873047C141.95669555664062,137.156494140625,141.91749572753906,137.43240356445312,141.84779357910156,137.69430541992188z"/>
</g>
</svg>
