<svg xmlns="http://www.w3.org/2000/svg" xmlns:xlink="http://www.w3.org/1999/xlink" viewBox= "0 0 191 164" width="191px" height="164px">
<g xmlns="http://www.w3.org/2000/svg" id="Baby3V2.svg">
<path id="Onesie" fill="#E5F0FF" d="M160.5,104.0999984741211C160.5,100.9000015258789,160.60000610351562,77.19999694824219,157.3000030517578,75.9000015258789C157.1999969482422,75.9000015258789,157.10000610351562,75.80000305175781,156.89999389648438,75.80000305175781C156.10000610351562,74.19999694824219,155,73.30000305175781,154.1999969482422,73.4000015258789C153.60000610351562,73.5,153.3000030517578,74.80000305175781,152.60000610351562,76.5999984741211C151.89999389648438,76.9000015258789,151.3000030517578,77.30000305175781,150.6999969482422,77.9000015258789C150.10000610351562,78.4000015258789,149.5,80.19999694824219,148.89999389648438,82.5999984741211C147.3000030517578,84,145.1999969482422,85,142.10000610351562,85.19999694824219C131.60000610351562,85.69999694824219,129.3000030517578,64.4000015258789,123.0999984741211,66.4000015258789C119.0999984741211,67.69999694824219,117.5999984741211,71.5999984741211,94.4000015258789,76.19999694824219C71.19999694824219,80.69999694824219,56.400001525878906,84,54.900001525878906,101C54.20000076293945,109.30000305175781,55.70000076293945,116,59.29999923706055,120.5999984741211C59.20000076293945,119.9000015258789,59.099998474121094,119.0999984741211,59,118.19999694824219C58.79999923706055,111.80000305175781,68.80000305175781,102.5999984741211,80.0999984741211,105.4000015258789C88.69999694824219,107.5999984741211,95.5,115.5999984741211,98.80000305175781,123.5C102.0999984741211,122.5999984741211,105.5,121.69999694824219,108.69999694824219,120.69999694824219C111.69999694824219,129.5,117.30000305175781,141.39999389648438,120,145.60000610351562C120.9000015258789,147,122,148.3000030517578,123.30000305175781,149.3000030517578L131.8000030517578,140.1999969482422C131.1999969482422,139.39999389648438,130.60000610351562,138.3000030517578,129.89999389648438,137C128.8000030517578,135.10000610351562,126,122.5,124.5999984741211,115.0999984741211C127.19999694824219,114,129.3000030517578,113,130.6999969482422,112.0999984741211C135.5,109.0999984741211,141.89999389648438,105.5,146.3000030517578,101.5999984741211C146.1999969482422,103.5,146.10000610351562,105.19999694824219,146.1999969482422,106.4000015258789C146.39999389648438,112.9000015258789,151.6999969482422,117.5999984741211,158,125.4000015258789C158.10000610351562,125.5999984741211,158.1999969482422,125.80000305175781,158.1999969482422,125.9000015258789L167.60000610351562,122.0999984741211C164.3000030517578,118.4000015258789,160.5,107,160.5,104.0999984741211z"/>
<path id="Body" fill="#825331" d="M150.3000030517578,78.5999984741211C149.89999389648438,79.4000015258789,149.39999389648438,80.80000305175781,149,82.5999984741211C147.39999389648438,84,145.3000030517578,85,142.1999969482422,85.19999694824219C136.8000030517578,85.5,133.5,79.9000015258789,130.8000030517578,74.69999694824219C124.5,71.30000305175781,120.69999694824219,65.9000015258789,118.9000015258789,58.900001525878906C117.5999984741211,58,116.5999984741211,56.599998474121094,116.5999984741211,54.900001525878906C116.5999984741211,53.79999923706055,117.0999984741211,52.70000076293945,117.80000305175781,51.900001525878906C117.69999694824219,50.599998474121094,117.69999694824219,49.20000076293945,117.69999694824219,47.900001525878906C117.69999694824219,32.099998474121094,130.5,21.600000381469727,146.1999969482422,21.600000381469727C161.89999389648438,21.600000381469727,174.6999969482422,32.099998474121094,174.6999969482422,47.900001525878906C174.8000030517578,66.5,173.10000610351562,78.30000305175781,150.3000030517578,78.5999984741211zM133.6999969482422,141.1999969482422C133.1999969482422,141.1999969482422,132.8000030517578,141,132.39999389648438,140.8000030517578C132.10000610351562,140.60000610351562,131.89999389648438,140.39999389648438,131.6999969482422,140.1999969482422L123.5,149C126.19999694824219,150.5,129.8000030517578,151,133.6999969482422,151.10000610351562C140.10000610351562,151.1999969482422,144.10000610351562,148.5,143.1999969482422,143.8000030517578C142.3000030517578,139.1999969482422,135.1999969482422,141,133.6999969482422,141.1999969482422zM169,123.0999984741211C168.5,122.9000015258789,168,122.5,167.60000610351562,122.0999984741211L167.60000610351562,122.0999984741211L167.60000610351562,122.0999984741211L158.3000030517578,125.9000015258789C160.6999969482422,131.5,164.8000030517578,135.10000610351562,166.3000030517578,134.8000030517578C167.8000030517578,134.60000610351562,167.39999389648438,132.6999969482422,168.89999389648438,132.60000610351562C172,132.39999389648438,176.8000030517578,133.89999389648438,178.3000030517578,131.60000610351562C180.5,128.10000610351562,172.5,124.30000305175781,169,123.0999984741211zM82.0999984741211,106C82,106,82,106,81.9000015258789,105.9000015258789C81.30000305175781,105.69999694824219,80.80000305175781,105.5,80.19999694824219,105.4000015258789C68.9000015258789,102.5,59,111.69999694824219,59.099998474121094,118.19999694824219C59.099998474121094,118.69999694824219,59.20000076293945,119.19999694824219,59.20000076293945,119.5999984741211C59.20000076293945,119.9000015258789,59.29999923706055,120.19999694824219,59.29999923706055,120.5999984741211L59.29999923706055,120.5999984741211C55.70000076293945,116,54.20000076293945,109.19999694824219,54.900001525878906,101C55,100.19999694824219,55.099998474121094,99.4000015258789,55.20000076293945,98.69999694824219C48.900001525878906,105.69999694824219,51.400001525878906,113.5,51.400001525878906,113.5C51.400001525878906,113.5,41.099998474121094,110.5,36.400001525878906,110.69999694824219C31.700000762939453,110.9000015258789,30.600000381469727,105.69999694824219,24.799999237060547,107.80000305175781C19.299999237060547,109.5999984741211,21.200000762939453,118.0999984741211,17.600000381469727,121.5999984741211C14,125,10.100000381469727,130.39999389648438,15.5,133.8000030517578C23.600000381469727,137.60000610351562,29.799999237060547,121.80000305175781,34,123C36.400001525878906,123.69999694824219,42.900001525878906,128,50.599998474121094,131.3000030517578C49,133.5,50.099998474121094,136.6999969482422,50.20000076293945,138C50.400001525878906,139.8000030517578,50.599998474121094,147.10000610351562,52.400001525878906,149.5C54.20000076293945,151.89999389648438,62.20000076293945,151,63,149.89999389648438C64.80000305175781,147.60000610351562,60,146.5,61,145C62,143.5,77.9000015258789,153.10000610351562,89.5999984741211,151.1999969482422C101.30000305175781,149.3000030517578,102.19999694824219,140.3000030517578,100.9000015258789,130.89999389648438C99.69999694824219,121.80000305175781,92.4000015258789,109.69999694824219,82.0999984741211,106z"/>
<path id="OnesieBorder" d="M168.6999969482422,121.0999984741211C165.6999969482422,117.69999694824219,162,106.69999694824219,162,104.0999984741211L162,103.9000015258789C162,88,161,80.9000015258789,160,77.5C159.6999969482422,77.5999984741211,159.39999389648438,77.5999984741211,159.10000610351562,77.69999694824219C159.5,79.69999694824219,159.5,82.30000305175781,158.5,85.5999984741211C159.5,82.30000305175781,159.5,79.5999984741211,159.10000610351562,77.69999694824219C158.1999969482422,77.9000015258789,157.1999969482422,78.0999984741211,156.10000610351562,78.19999694824219C156.39999389648438,79.69999694824219,156.5,81.9000015258789,155.60000610351562,84.80000305175781C155.39999389648438,85.5999984741211,155.8000030517578,86.4000015258789,156.60000610351562,86.69999694824219C157.3000030517578,86.9000015258789,158,86.5999984741211,158.3000030517578,86L158.3000030517578,86C158.6999969482422,90.0999984741211,158.89999389648438,95.9000015258789,158.89999389648438,103.9000015258789L158.89999389648438,104.19999694824219C158.89999389648438,107,162,116.5999984741211,165.1999969482422,121.5L158.8000030517578,124.0999984741211C157.6999969482422,122.80000305175781,156.6999969482422,121.5,155.60000610351562,120.30000305175781C151.10000610351562,115,147.8000030517578,111.0999984741211,147.6999969482422,106.4000015258789C147.6999969482422,105.30000305175781,147.6999969482422,103.9000015258789,147.8000030517578,102.4000015258789C150.5,100,152.5,97.5,153.1999969482422,94.9000015258789C153.39999389648438,94.0999984741211,152.89999389648438,93.30000305175781,152.10000610351562,93.0999984741211C151.3000030517578,92.9000015258789,150.5,93.4000015258789,150.3000030517578,94.19999694824219C148.8000030517578,99.5999984741211,139.10000610351562,105.5,131.89999389648438,109.9000015258789L129.89999389648438,111.0999984741211C128.89999389648438,111.69999694824219,127.4000015258789,112.5,125.69999694824219,113.19999694824219C125.5,112.19999694824219,125.30000305175781,111.30000305175781,125.19999694824219,110.5999984741211C124.5,106.9000015258789,127.0999984741211,100.5,129.3000030517578,94.9000015258789L129.60000610351562,94.19999694824219C129.89999389648438,93.4000015258789,129.5,92.5999984741211,128.8000030517578,92.30000305175781C128,92,127.19999694824219,92.4000015258789,126.9000015258789,93.0999984741211L126.5999984741211,93.80000305175781C124.0999984741211,100.0999984741211,121.5,106.5999984741211,122.30000305175781,111.19999694824219C122.69999694824219,113.4000015258789,127,135,128.6999969482422,138C128.89999389648438,138.39999389648438,129.10000610351562,138.6999969482422,129.3000030517578,139C129.5,139.39999389648438,129.8000030517578,139.8000030517578,130,140.1999969482422L123.30000305175781,147.39999389648438C122.5999984741211,146.6999969482422,121.9000015258789,145.89999389648438,121.4000015258789,145C117.5999984741211,139.10000610351562,108.4000015258789,118.30000305175781,108.4000015258789,112.5999984741211C108.4000015258789,111.5,108.4000015258789,102,110,93.19999694824219C111.5999984741211,84.19999694824219,114.30000305175781,79,117.5,78.69999694824219C118.30000305175781,78.5999984741211,118.9000015258789,77.9000015258789,118.9000015258789,77.0999984741211C118.80000305175781,76.30000305175781,118.0999984741211,75.69999694824219,117.30000305175781,75.69999694824219C106,76.80000305175781,105.4000015258789,106.5999984741211,105.4000015258789,112.5999984741211C105.4000015258789,114.30000305175781,106,116.9000015258789,107,120C104.19999694824219,120.80000305175781,101.30000305175781,121.69999694824219,98.4000015258789,122.4000015258789C98.80000305175781,123.30000305175781,99.19999694824219,124.30000305175781,99.5999984741211,125.19999694824219C102.4000015258789,124.5,105.30000305175781,123.69999694824219,108,122.80000305175781C111.19999694824219,131.6999969482422,116.4000015258789,142.8000030517578,118.9000015258789,146.60000610351562C119.9000015258789,148.1999969482422,121.0999984741211,149.60000610351562,122.5999984741211,150.6999969482422C122.9000015258789,150.89999389648438,123.19999694824219,151,123.5,151C123.9000015258789,151,124.30000305175781,150.8000030517578,124.5999984741211,150.5L133.10000610351562,141.39999389648438C133.60000610351562,140.89999389648438,133.60000610351562,140.10000610351562,133.1999969482422,139.5C132.8000030517578,139,132.5,138.3000030517578,132,137.5C131.8000030517578,137.1999969482422,131.60000610351562,136.8000030517578,131.39999389648438,136.39999389648438C130.5,134.8000030517578,128,123.80000305175781,126.5,116.19999694824219C128.6999969482422,115.30000305175781,130.39999389648438,114.4000015258789,131.6999969482422,113.5999984741211L133.6999969482422,112.4000015258789C137.39999389648438,110.19999694824219,141.39999389648438,107.69999694824219,145,105L145,105C145,105.5999984741211,145,106.19999694824219,145,106.5999984741211C145.1999969482422,112.4000015258789,148.89999389648438,116.80000305175781,153.6999969482422,122.4000015258789C154.6999969482422,123.5999984741211,155.89999389648438,124.9000015258789,157,126.4000015258789C157.10000610351562,126.5,157.10000610351562,126.69999694824219,157.1999969482422,126.80000305175781C157.5,127.30000305175781,158,127.69999694824219,158.60000610351562,127.69999694824219C158.8000030517578,127.69999694824219,159,127.69999694824219,159.1999969482422,127.5999984741211L168.60000610351562,123.80000305175781C169.10000610351562,123.5999984741211,169.39999389648438,123.19999694824219,169.5,122.69999694824219S169.10000610351562,121.5,168.6999969482422,121.0999984741211zM146.3000030517578,103.5999984741211L146.3000030517578,103.5999984741211L146.3000030517578,103.5999984741211zM121,69.0999984741211C117.80000305175781,71,112.30000305175781,74.19999694824219,94.69999694824219,77.5999984741211C70.5,82.30000305175781,57.79999923706055,85.5,56.400001525878906,101C55.79999923706055,107.69999694824219,56.70000076293945,113.30000305175781,59.099998474121094,117.5C59.099998474121094,117.69999694824219,59.099998474121094,118,59.099998474121094,118.19999694824219C59.20000076293945,120.4000015258789,59.70000076293945,122.19999694824219,60.400001525878906,123.80000305175781C60.099998474121094,123.5,59.79999923706055,123.30000305175781,59.599998474121094,123C54.79999923706055,118.0999984741211,52.70000076293945,110.4000015258789,53.5,100.80000305175781C55.099998474121094,82.30000305175781,71.5,79.0999984741211,94.19999694824219,74.69999694824219C111.30000305175781,71.4000015258789,116.5,68.4000015258789,119.5,66.5999984741211C120.19999694824219,66.19999694824219,120.80000305175781,65.80000305175781,121.5,65.5C122,66.4000015258789,122.5,67.19999694824219,123.0999984741211,68.0999984741211C122.5,68.30000305175781,121.80000305175781,68.69999694824219,121,69.0999984741211zM129,74.4000015258789C128.8000030517578,74,128.60000610351562,73.5,128.3000030517578,73.0999984741211C129.6999969482422,74.0999984741211,131.3000030517578,75,133.10000610351562,75.69999694824219C135.39999389648438,79.9000015258789,138.10000610351562,83.69999694824219,142.10000610351562,83.5999984741211C146.5,83.4000015258789,148.8000030517578,81,150.10000610351562,78.5C151.3000030517578,78.5,152.39999389648438,78.5,153.5,78.4000015258789C152,81.80000305175781,149.10000610351562,86.19999694824219,142.3000030517578,86.5999984741211C135.60000610351562,87,131.89999389648438,80,129,74.4000015258789z"/>
<path id="BodyBorder" d="M176.3000030517578,47.900001525878906C176.3000030517578,32.099998474121094,163.39999389648438,20.100000381469727,146.3000030517578,20.100000381469727C129.1999969482422,20.100000381469727,116.30000305175781,32,116.30000305175781,47.900001525878906C116.30000305175781,49.099998474121094,116.30000305175781,50.29999923706055,116.4000015258789,51.400001525878906C115.69999694824219,52.400001525878906,115.19999694824219,53.599998474121094,115.19999694824219,54.900001525878906C115.19999694824219,56.900001525878906,116.30000305175781,58.599998474121094,117.80000305175781,59.79999923706055C121.5,73.30000305175781,132.10000610351562,80.0999984741211,149.6999969482422,80.0999984741211C174.39999389648438,80.0999984741211,176.3000030517578,66.69999694824219,176.3000030517578,47.900001525878906zM149.60000610351562,77.0999984741211C134.3000030517578,77.0999984741211,125.0999984741211,72,121.30000305175781,61.400001525878906C121.5,61.400001525878906,121.80000305175781,61.400001525878906,122,61.400001525878906C122.80000305175781,61.400001525878906,123.5,60.70000076293945,123.5,59.900001525878906C123.5,59.099998474121094,122.80000305175781,58.400001525878906,122,58.400001525878906C120.5,58.400001525878906,118.19999694824219,56.79999923706055,118.19999694824219,54.900001525878906C118.19999694824219,53,120.5,51.400001525878906,122,51.400001525878906C122.80000305175781,51.400001525878906,123.5,50.70000076293945,123.5,49.900001525878906C123.5,49.099998474121094,122.80000305175781,48.400001525878906,122,48.400001525878906C121.0999984741211,48.400001525878906,120.19999694824219,48.599998474121094,119.30000305175781,49C119.30000305175781,48.599998474121094,119.30000305175781,48.20000076293945,119.30000305175781,47.79999923706055C119.30000305175781,33.400001525878906,130.6999969482422,23,146.3000030517578,23C162,23,173.3000030517578,33.400001525878906,173.3000030517578,47.79999923706055C173.3000030517578,67.69999694824219,170.89999389648438,77.0999984741211,149.60000610351562,77.0999984741211zM80.5999984741211,104C74.69999694824219,102.5,68.5,103.9000015258789,63.599998474121094,107.80000305175781C59.900001525878906,110.80000305175781,57.599998474121094,114.80000305175781,57.70000076293945,118.19999694824219L57.70000076293945,118.19999694824219C57.79999923706055,122.30000305175781,59.20000076293945,125.30000305175781,61,127.5C58.900001525878906,127.19999694824219,56.599998474121094,127.0999984741211,54.29999923706055,127.5C52.70000076293945,127.80000305175781,51.29999923706055,128.39999389648438,50.400001525878906,129.1999969482422C46.70000076293945,127.5,43.29999923706055,125.69999694824219,40.599998474121094,124.19999694824219C37.900001525878906,122.69999694824219,35.900001525878906,121.5999984741211,34.599998474121094,121.30000305175781C34.29999923706055,121.19999694824219,34,121.19999694824219,33.70000076293945,121.19999694824219C31.399999618530273,121.19999694824219,29.299999237060547,123.5999984741211,27,126.30000305175781C23.100000381469727,130.6999969482422,19.899999618530273,133.89999389648438,16.399999618530273,132.3000030517578C15.199999809265137,131.60000610351562,14.600000381469727,130.6999969482422,14.5,129.8000030517578C14.300000190734863,128,15.899999618530273,125.30000305175781,18.799999237060547,122.5999984741211C20.700000762939453,120.80000305175781,21.299999237060547,118.0999984741211,21.899999618530273,115.5C22.700000762939453,112,23.299999237060547,109.80000305175781,25.5,109.0999984741211C28.100000381469727,108.19999694824219,29.299999237060547,109,31.100000381469727,110.19999694824219C32.599998474121094,111.19999694824219,34.20000076293945,112.30000305175781,36.70000076293945,112.19999694824219C41.099998474121094,112,51.099998474121094,114.9000015258789,51.20000076293945,114.9000015258789C51.70000076293945,115.0999984741211,52.29999923706055,114.9000015258789,52.70000076293945,114.5C53.099998474121094,114.0999984741211,53.20000076293945,113.5,53.099998474121094,113C53,112.69999694824219,51.400001525878906,107.19999694824219,55.20000076293945,101.5999984741211C55.20000076293945,101.4000015258789,55.20000076293945,101.19999694824219,55.20000076293945,101C55.400001525878906,99.19999694824219,55.70000076293945,97.5,56.20000076293945,96C51.79999923706055,99.9000015258789,50.29999923706055,104.30000305175781,49.900001525878906,107.30000305175781C49.70000076293945,108.9000015258789,49.70000076293945,110.30000305175781,49.79999923706055,111.4000015258789C46.400001525878906,110.5,40.099998474121094,109,36.599998474121094,109.19999694824219C35.099998474121094,109.30000305175781,34.099998474121094,108.5999984741211,32.79999923706055,107.69999694824219C30.899999618530273,106.4000015258789,28.600000381469727,104.9000015258789,24.600000381469727,106.30000305175781C20.700000762939453,107.5999984741211,19.799999237060547,111.4000015258789,19,114.9000015258789C18.5,117.19999694824219,18,119.30000305175781,16.799999237060547,120.5C14.199999809265137,122.9000015258789,11.199999809265137,126.5999984741211,11.600000381469727,130.1999969482422C11.800000190734863,132.1999969482422,12.899999618530273,133.8000030517578,15,135L15.100000381469727,135.10000610351562C20.899999618530273,137.8000030517578,25.799999237060547,132.39999389648438,29.299999237060547,128.39999389648438C30.700000762939453,126.80000305175781,33.099998474121094,124.0999984741211,33.900001525878906,124.4000015258789C34.900001525878906,124.69999694824219,36.900001525878906,125.80000305175781,39.29999923706055,127.0999984741211C41.900001525878906,128.5,45.20000076293945,130.3000030517578,48.900001525878906,132C48.29999923706055,133.89999389648438,48.70000076293945,136,48.900001525878906,137.3000030517578C49,137.60000610351562,49,137.89999389648438,49,138.10000610351562C49,138.39999389648438,49.099998474121094,138.8000030517578,49.099998474121094,139.39999389648438C49.400001525878906,143.60000610351562,49.900001525878906,148.1999969482422,51.5,150.39999389648438C52.79999923706055,152.10000610351562,55.5,152.5,57.599998474121094,152.5C57.79999923706055,152.5,63.099998474121094,152.5,64.5,150.8000030517578C65.5999984741211,149.39999389648438,65.30000305175781,148.3000030517578,64.80000305175781,147.3000030517578C65.4000015258789,147.5,65.9000015258789,147.6999969482422,66.5,148C71.80000305175781,150.10000610351562,79.5,153,86.5999984741211,153C87.80000305175781,153,89,152.89999389648438,90.0999984741211,152.6999969482422C103.69999694824219,150.5,103.80000305175781,139.10000610351562,102.5999984741211,130.6999969482422C101,120,92.19999694824219,106.9000015258789,80.5999984741211,104zM89.4000015258789,149.5C82.19999694824219,150.6999969482422,72.9000015258789,147.10000610351562,67.30000305175781,144.89999389648438C64.4000015258789,143.8000030517578,62.599998474121094,143.10000610351562,61.400001525878906,143.10000610351562C60.70000076293945,143.10000610351562,60.20000076293945,143.3000030517578,59.79999923706055,143.89999389648438C58.5,145.6999969482422,60.29999923706055,147.10000610351562,61,147.6999969482422C61.29999923706055,147.89999389648438,61.79999923706055,148.3000030517578,61.900001525878906,148.60000610351562L61.900001525878906,148.60000610351562C60.599998474121094,149.3000030517578,54.599998474121094,149.6999969482422,53.599998474121094,148.3000030517578C52.400001525878906,146.6999969482422,52,141.1999969482422,51.79999923706055,138.89999389648438C51.79999923706055,138.3000030517578,51.70000076293945,137.8000030517578,51.70000076293945,137.5C51.70000076293945,137.1999969482422,51.599998474121094,136.89999389648438,51.5,136.5C51.29999923706055,135.5,51,134.10000610351562,51.29999923706055,133L51.29999923706055,133C51.29999923706055,132.8000030517578,51.400001525878906,132.6999969482422,51.5,132.5C51.599998474121094,132.3000030517578,51.599998474121094,132.1999969482422,51.70000076293945,132C51.79999923706055,131.8000030517578,52,131.6999969482422,52.099998474121094,131.5C52.20000076293945,131.39999389648438,52.20000076293945,131.39999389648438,52.29999923706055,131.39999389648438C52.400001525878906,131.3000030517578,52.5,131.1999969482422,52.70000076293945,131.1999969482422C52.79999923706055,131.10000610351562,52.900001525878906,131.10000610351562,53,131.10000610351562C53.099998474121094,131,53.29999923706055,131,53.5,130.89999389648438C53.599998474121094,130.89999389648438,53.70000076293945,130.8000030517578,53.79999923706055,130.8000030517578L53.79999923706055,130.8000030517578C54.099998474121094,130.6999969482422,54.400001525878906,130.60000610351562,54.70000076293945,130.60000610351562C59.5,129.8000030517578,64.80000305175781,131.6999969482422,66.9000015258789,132.60000610351562C67,132.6999969482422,67.19999694824219,132.6999969482422,67.30000305175781,132.8000030517578C67.4000015258789,132.89999389648438,67.5,132.89999389648438,67.5999984741211,133C69.9000015258789,133.89999389648438,81.5,136.1999969482422,82.9000015258789,136.5C83,136.5,83.0999984741211,136.5,83.19999694824219,136.5C83.9000015258789,136.5,84.5,136,84.69999694824219,135.3000030517578C84.9000015258789,134.5,84.30000305175781,133.6999969482422,83.5,133.5C78.80000305175781,132.60000610351562,71.5,131,69.19999694824219,130.3000030517578L69.19999694824219,130.3000030517578C69.0999984741211,130.3000030517578,68.69999694824219,130,67.9000015258789,129.6999969482422C65.69999694824219,128.60000610351562,60.79999923706055,125.30000305175781,60.599998474121094,118.30000305175781C60.5,115.80000305175781,62.400001525878906,112.69999694824219,65.4000015258789,110.30000305175781C69.5999984741211,107,74.80000305175781,105.80000305175781,79.80000305175781,107C90.80000305175781,109.80000305175781,98.30000305175781,122.69999694824219,99.4000015258789,131C101.0999984741211,142.5,98.0999984741211,148.10000610351562,89.4000015258789,149.5zM142.60000610351562,140.3000030517578C139.89999389648438,138.5,135.60000610351562,139.3000030517578,133.8000030517578,139.6999969482422L133.60000610351562,139.6999969482422C133.39999389648438,139.6999969482422,133.1999969482422,139.60000610351562,133.10000610351562,139.5C132.89999389648438,139.39999389648438,132.6999969482422,139.1999969482422,132.60000610351562,139C132.39999389648438,138.60000610351562,132,138.39999389648438,131.5,138.3000030517578C131.10000610351562,138.1999969482422,130.60000610351562,138.39999389648438,130.3000030517578,138.6999969482422L121.30000305175781,147.10000610351562C121,147.39999389648438,120.80000305175781,147.8000030517578,120.80000305175781,148.3000030517578C120.80000305175781,148.8000030517578,121.0999984741211,149.1999969482422,121.4000015258789,149.39999389648438C124.19999694824219,151.39999389648438,128.1999969482422,152.39999389648438,133.60000610351562,152.60000610351562C133.8000030517578,152.60000610351562,133.89999389648438,152.60000610351562,134.10000610351562,152.60000610351562C138.1999969482422,152.60000610351562,141.5,151.39999389648438,143.3000030517578,149.3000030517578C144.60000610351562,147.6999969482422,145.10000610351562,145.6999969482422,144.6999969482422,143.5C144.39999389648438,142.1999969482422,143.6999969482422,141.10000610351562,142.60000610351562,140.3000030517578zM141.6999969482422,146.10000610351562C140.60000610351562,145.3000030517578,138.39999389648438,145.39999389648438,137.3000030517578,145.60000610351562C137,145.60000610351562,136.8000030517578,145.89999389648438,136.89999389648438,146.1999969482422C136.89999389648438,146.5,137.1999969482422,146.6999969482422,137.5,146.60000610351562C138.8000030517578,146.39999389648438,140.60000610351562,146.39999389648438,141.10000610351562,146.89999389648438C141.1999969482422,147,141.1999969482422,147,141.1999969482422,147C141.10000610351562,147.10000610351562,141.10000610351562,147.3000030517578,141,147.39999389648438C140.8000030517578,147.60000610351562,140.60000610351562,147.8000030517578,140.39999389648438,148C140.39999389648438,148,140.39999389648438,148,140.39999389648438,147.89999389648438C139.8000030517578,147.3000030517578,138.60000610351562,147.39999389648438,136.5,147.60000610351562C136,147.60000610351562,135.5,147.6999969482422,134.89999389648438,147.6999969482422C134.60000610351562,147.6999969482422,134.39999389648438,148,134.39999389648438,148.1999969482422C134.39999389648438,148.5,134.60000610351562,148.6999969482422,134.89999389648438,148.6999969482422C135.5,148.6999969482422,136,148.60000610351562,136.5,148.60000610351562C137.60000610351562,148.5,139,148.39999389648438,139.5,148.5C138.10000610351562,149.1999969482422,136.10000610351562,149.60000610351562,133.8000030517578,149.60000610351562C130.10000610351562,149.5,127.0999984741211,149,124.9000015258789,148L131.39999389648438,142C131.5,142.10000610351562,131.60000610351562,142.10000610351562,131.6999969482422,142.1999969482422C132.3000030517578,142.60000610351562,133,142.8000030517578,133.6999969482422,142.8000030517578C133.8000030517578,142.8000030517578,133.89999389648438,142.8000030517578,134.10000610351562,142.8000030517578L134.5,142.6999969482422C135.6999969482422,142.5,139.3000030517578,141.6999969482422,141,142.89999389648438C141.39999389648438,143.1999969482422,141.60000610351562,143.5,141.8000030517578,144C141,143.60000610351562,140,143.5,138.60000610351562,143.6999969482422C138.3000030517578,143.6999969482422,138.10000610351562,144,138.10000610351562,144.1999969482422C138.10000610351562,144.39999389648438,138.39999389648438,144.6999969482422,138.60000610351562,144.6999969482422C139.89999389648438,144.60000610351562,141.39999389648438,144.60000610351562,141.89999389648438,145.5C141.8000030517578,145.60000610351562,141.8000030517578,145.8000030517578,141.6999969482422,146.10000610351562zM179.89999389648438,129C178.60000610351562,125,171,122.19999694824219,169.60000610351562,121.69999694824219C169.3000030517578,121.5999984741211,169,121.4000015258789,168.8000030517578,121.0999984741211C168.39999389648438,120.5999984741211,167.6999969482422,120.4000015258789,167.10000610351562,120.69999694824219L157.6999969482422,124.4000015258789C157.3000030517578,124.5,157,124.80000305175781,156.89999389648438,125.19999694824219C156.6999969482422,125.5999984741211,156.6999969482422,126,156.89999389648438,126.4000015258789C159.3000030517578,131.8000030517578,163.5,136.3000030517578,166.1999969482422,136.3000030517578C166.3000030517578,136.3000030517578,166.39999389648438,136.3000030517578,166.5,136.3000030517578C168,136.10000610351562,168.5,135,168.89999389648438,134.39999389648438C169,134.3000030517578,169,134.1999969482422,169.10000610351562,134.10000610351562C169.89999389648438,134.10000610351562,170.89999389648438,134.1999969482422,171.89999389648438,134.3000030517578C174.8000030517578,134.60000610351562,178.10000610351562,134.89999389648438,179.60000610351562,132.5C180.1999969482422,131.39999389648438,180.3000030517578,130.1999969482422,179.89999389648438,129zM177,130.8000030517578C176.39999389648438,131.6999969482422,174,131.5,172.10000610351562,131.3000030517578C171,131.1999969482422,169.8000030517578,131.10000610351562,168.8000030517578,131.10000610351562C167.1999969482422,131.1999969482422,166.60000610351562,132.39999389648438,166.1999969482422,133C166.10000610351562,133.10000610351562,166.10000610351562,133.3000030517578,166,133.3000030517578C165.10000610351562,133,162.39999389648438,130.8000030517578,160.3000030517578,126.5999984741211L167.3000030517578,123.80000305175781C167.6999969482422,124.0999984741211,168,124.30000305175781,168.5,124.5C171.5,125.5999984741211,174.89999389648438,127.30000305175781,176.39999389648438,128.89999389648438C175.8000030517578,128.8000030517578,175.10000610351562,128.8000030517578,174.3000030517578,128.8000030517578C173.60000610351562,128.8000030517578,172.89999389648438,128.8000030517578,172,128.6999969482422C171.6999969482422,128.6999969482422,171.5,128.89999389648438,171.5,129.1999969482422C171.5,129.5,171.6999969482422,129.6999969482422,172,129.6999969482422C172.8000030517578,129.8000030517578,173.60000610351562,129.8000030517578,174.3000030517578,129.8000030517578C175.60000610351562,129.8000030517578,176.6999969482422,129.8000030517578,177.10000610351562,130.1999969482422C177.10000610351562,130.39999389648438,177.10000610351562,130.60000610351562,177,130.8000030517578z"/>
<path id="EyeBrows" d="M170.3000030517578,52.20000076293945C170,52.20000076293945,169.60000610351562,52,169.5,51.70000076293945C169.10000610351562,50.70000076293945,168.5,49.79999923706055,167.8000030517578,49.099998474121094C167,48.400001525878906,166.10000610351562,47.79999923706055,165.10000610351562,47.5C162.89999389648438,46.70000076293945,161.3000030517578,46.70000076293945,160.10000610351562,47.400001525878906C159.6999969482422,47.599998474121094,159.1999969482422,47.5,159,47.099998474121094C158.8000030517578,46.70000076293945,158.89999389648438,46.20000076293945,159.3000030517578,46C161,45,163,45,165.6999969482422,45.900001525878906C166.89999389648438,46.29999923706055,168.10000610351562,46.900001525878906,169,47.79999923706055C170,48.70000076293945,170.6999969482422,49.79999923706055,171.1999969482422,51C171.39999389648438,51.400001525878906,171.10000610351562,51.900001525878906,170.6999969482422,52.099998474121094C170.5,52.099998474121094,170.39999389648438,52.20000076293945,170.3000030517578,52.20000076293945zM134.6999969482422,51.5C135.1999969482422,49.70000076293945,137.1999969482422,48.099998474121094,139.60000610351562,47.400001525878906C141.8000030517578,46.79999923706055,143.3000030517578,46.900001525878906,144.5,47.79999923706055C144.89999389648438,48.099998474121094,145.39999389648438,47.900001525878906,145.6999969482422,47.599998474121094C146,47.20000076293945,145.8000030517578,46.70000076293945,145.5,46.5C143.8000030517578,45.400001525878906,141.89999389648438,45.20000076293945,139.1999969482422,45.900001525878906C136.1999969482422,46.70000076293945,133.8000030517578,48.70000076293945,133.10000610351562,51.099998474121094C133,51.5,133.1999969482422,52,133.6999969482422,52.099998474121094C133.8000030517578,52.099998474121094,133.89999389648438,52.099998474121094,133.89999389648438,52.099998474121094C134.1999969482422,52.099998474121094,134.60000610351562,51.900001525878906,134.6999969482422,51.5z"/>
<path id="Mouth" fill="#BB6E56" d="M157.89999389648438,68.69999694824219C157.89999389648438,68.69999694824219,153.89999389648438,65.19999694824219,151.89999389648438,66.0999984741211C149.89999389648438,67,148.89999389648438,68.69999694824219,146.89999389648438,68.69999694824219C146.89999389648438,68.69999694824219,153.39999389648438,76.0999984741211,157.89999389648438,68.69999694824219z"/>
<path id="MouthBorder" d="M153,72.80000305175781C149.39999389648438,72.80000305175781,146.3000030517578,69.4000015258789,146.1999969482422,69.19999694824219C146,69,145.89999389648438,68.5999984741211,146.10000610351562,68.30000305175781C146.1999969482422,68,146.5,67.80000305175781,146.89999389648438,67.80000305175781C147.89999389648438,67.80000305175781,148.60000610351562,67.30000305175781,149.5,66.5999984741211C150.10000610351562,66.19999694824219,150.8000030517578,65.69999694824219,151.60000610351562,65.30000305175781C154,64.19999694824219,157.6999969482422,67.30000305175781,158.39999389648438,68C158.6999969482422,68.30000305175781,158.8000030517578,68.69999694824219,158.60000610351562,69.0999984741211C157.1999969482422,71.4000015258789,155.60000610351562,72.5999984741211,153.60000610351562,72.80000305175781C153.39999389648438,72.80000305175781,153.1999969482422,72.80000305175781,153,72.80000305175781zM148.60000610351562,69.19999694824219C149.6999969482422,70.0999984741211,151.60000610351562,71.30000305175781,153.39999389648438,71.19999694824219C154.6999969482422,71.0999984741211,155.8000030517578,70.30000305175781,156.8000030517578,68.9000015258789C155.3000030517578,67.69999694824219,153.1999969482422,66.5,152.3000030517578,66.9000015258789C151.60000610351562,67.19999694824219,151.10000610351562,67.5999984741211,150.5,68C149.89999389648438,68.5,149.3000030517578,68.9000015258789,148.60000610351562,69.19999694824219z"/>
<path id="Nose" d="M152.6999969482422,61.900001525878906C152.1999969482422,61.900001525878906,151.89999389648438,61.5,151.89999389648438,61.099998474121094C151.89999389648438,60.70000076293945,152.3000030517578,60.29999923706055,152.6999969482422,60.29999923706055C153.10000610351562,60.29999923706055,153.5,60.099998474121094,153.6999969482422,59.900001525878906C154,59.599998474121094,154.10000610351562,59.29999923706055,154.10000610351562,58.900001525878906C154.10000610351562,58.5,153.89999389648438,58.099998474121094,153.6999969482422,57.900001525878906C153.39999389648438,57.599998474121094,153.10000610351562,57.5,152.6999969482422,57.5C152.1999969482422,57.5,151.89999389648438,57.099998474121094,151.89999389648438,56.70000076293945C151.89999389648438,56.29999923706055,152.3000030517578,55.900001525878906,152.6999969482422,55.900001525878906C153.5,55.900001525878906,154.3000030517578,56.20000076293945,154.89999389648438,56.79999923706055C155.5,57.400001525878906,155.8000030517578,58.20000076293945,155.8000030517578,59C155.8000030517578,59.79999923706055,155.5,60.599998474121094,154.89999389648438,61.20000076293945C154.3000030517578,61.5,153.5,61.900001525878906,152.6999969482422,61.900001525878906z"/>
<path id="EyesBorder" fill="#FFFFFF" d="M145.60000610351562,54.29999923706055C145.60000610351562,55.099998474121094,145.39999389648438,55.79999923706055,145,56.400001525878906C144.60000610351562,57,144,57.5,143.3000030517578,57.79999923706055C142.60000610351562,58.099998474121094,141.8000030517578,58.20000076293945,141.10000610351562,58C140.39999389648438,57.79999923706055,139.6999969482422,57.5,139.10000610351562,57C138.60000610351562,56.5,138.1999969482422,55.79999923706055,138.10000610351562,55C138,54.29999923706055,138,53.5,138.3000030517578,52.79999923706055C138.60000610351562,52.099998474121094,139.10000610351562,51.5,139.6999969482422,51.099998474121094C140.3000030517578,50.70000076293945,141.10000610351562,50.5,141.8000030517578,50.5C142.8000030517578,50.5,143.8000030517578,50.900001525878906,144.5,51.599998474121094C145.1999969482422,52.29999923706055,145.60000610351562,53.29999923706055,145.60000610351562,54.29999923706055zM165.1999969482422,51.599998474121094C164.5,50.900001525878906,163.5,50.5,162.5,50.5C161.6999969482422,50.5,161,50.70000076293945,160.39999389648438,51.099998474121094C159.8000030517578,51.5,159.3000030517578,52.099998474121094,159,52.79999923706055C158.6999969482422,53.5,158.60000610351562,54.29999923706055,158.8000030517578,55C158.89999389648438,55.70000076293945,159.3000030517578,56.400001525878906,159.8000030517578,57C160.3000030517578,57.5,161,57.900001525878906,161.8000030517578,58C162.60000610351562,58.099998474121094,163.3000030517578,58.099998474121094,164,57.79999923706055C164.6999969482422,57.5,165.3000030517578,57,165.6999969482422,56.400001525878906C166.10000610351562,55.79999923706055,166.3000030517578,55,166.3000030517578,54.29999923706055C166.3000030517578,53.29999923706055,165.89999389648438,52.29999923706055,165.1999969482422,51.599998474121094z"/>
<path id="Eyes" d="M145.10000610351562,54.29999923706055C145.10000610351562,54.900001525878906,144.89999389648438,55.5,144.60000610351562,56C144.3000030517578,56.5,143.8000030517578,56.900001525878906,143.3000030517578,57.099998474121094C142.8000030517578,57.29999923706055,142.10000610351562,57.400001525878906,141.60000610351562,57.29999923706055C141,57.20000076293945,140.5,56.900001525878906,140.10000610351562,56.5C139.6999969482422,56.099998474121094,139.39999389648438,55.5,139.3000030517578,55C139.1999969482422,54.400001525878906,139.1999969482422,53.79999923706055,139.5,53.29999923706055C139.6999969482422,52.79999923706055,140.10000610351562,52.29999923706055,140.60000610351562,52C141.10000610351562,51.70000076293945,141.6999969482422,51.5,142.3000030517578,51.5C143.10000610351562,51.5,143.89999389648438,51.79999923706055,144.39999389648438,52.400001525878906C144.6999969482422,52.70000076293945,145.10000610351562,53.5,145.10000610351562,54.29999923706055zM164.3000030517578,52.099998474121094C163.6999969482422,51.5,163,51.20000076293945,162.1999969482422,51.20000076293945C161.60000610351562,51.20000076293945,161,51.400001525878906,160.5,51.70000076293945C160,52,159.60000610351562,52.5,159.39999389648438,53C159.1999969482422,53.5,159.10000610351562,54.20000076293945,159.1999969482422,54.70000076293945C159.3000030517578,55.29999923706055,159.60000610351562,55.79999923706055,160,56.20000076293945C160.39999389648438,56.599998474121094,161,56.900001525878906,161.5,57C162.10000610351562,57.099998474121094,162.6999969482422,57.099998474121094,163.1999969482422,56.79999923706055C163.6999969482422,56.599998474121094,164.1999969482422,56.20000076293945,164.5,55.70000076293945C164.8000030517578,55.20000076293945,165,54.599998474121094,165,54C165.1999969482422,53.5,164.89999389648438,52.70000076293945,164.3000030517578,52.099998474121094z"/>
<path id="EyeLids" d="M138.5,53.900001525878906C138.3000030517578,53.900001525878906,138.10000610351562,53.79999923706055,138,53.70000076293945C137.6999969482422,53.400001525878906,137.60000610351562,52.900001525878906,137.89999389648438,52.5C139.3000030517578,50.900001525878906,140.8000030517578,50,142.3000030517578,50C144.10000610351562,50,145.1999969482422,51.099998474121094,145.3000030517578,51.20000076293945C145.60000610351562,51.5,145.60000610351562,52.099998474121094,145.3000030517578,52.400001525878906C145,52.70000076293945,144.39999389648438,52.70000076293945,144.10000610351562,52.400001525878906C144.10000610351562,52.400001525878906,143.39999389648438,51.70000076293945,142.3000030517578,51.70000076293945C141.3000030517578,51.70000076293945,140.3000030517578,52.400001525878906,139.1999969482422,53.599998474121094C138.89999389648438,53.79999923706055,138.6999969482422,53.900001525878906,138.5,53.900001525878906zM160,53.29999923706055C160,53.29999923706055,160.8000030517578,52.099998474121094,162,52C163,51.900001525878906,164.10000610351562,52.400001525878906,165.1999969482422,53.5C165.5,53.79999923706055,166.10000610351562,53.79999923706055,166.39999389648438,53.5C166.6999969482422,53.20000076293945,166.6999969482422,52.599998474121094,166.39999389648438,52.29999923706055C164.89999389648438,50.900001525878906,163.3000030517578,50.20000076293945,161.8000030517578,50.400001525878906C159.6999969482422,50.70000076293945,158.60000610351562,52.400001525878906,158.60000610351562,52.5C158.39999389648438,52.900001525878906,158.5,53.400001525878906,158.89999389648438,53.599998474121094C159,53.70000076293945,159.1999969482422,53.70000076293945,159.3000030517578,53.70000076293945C159.5,53.599998474121094,159.8000030517578,53.5,160,53.29999923706055z"/>
<path id="Hair" fill="#4C2F19" d="M177.8000030517578,36.099998474121094C177.3000030517578,35.20000076293945,177.3000030517578,34.099998474121094,176.3000030517578,34.099998474121094C177.1999969482422,33,176.5,32.099998474121094,175.8000030517578,30.899999618530273C175.5,30.399999618530273,175,30,174.5,29.700000762939453C174,29.399999618530273,173.39999389648438,29.299999237060547,172.8000030517578,29.399999618530273C173.1999969482422,28.700000762939453,173.5,27.899999618530273,173.5,27.100000381469727C173.5,26.299999237060547,173.3000030517578,25.5,173,24.799999237060547C171.8000030517578,22.5,170.6999969482422,19.899999618530273,168.5,21.100000381469727C167.39999389648438,21.700000762939453,167.39999389648438,21.700000762939453,167.3000030517578,21.700000762939453L167,21.399999618530273C167.10000610351562,21.100000381469727,167.10000610351562,20.799999237060547,167.10000610351562,20.5C167.10000610351562,18.399999618530273,166.10000610351562,17.200000762939453,164.10000610351562,17.200000762939453C163.39999389648438,17.200000762939453,162.6999969482422,17.399999618530273,162.10000610351562,17.799999237060547L160.5,19.399999618530273C160.5,18.200000762939453,159.89999389648438,17,159,16.100000381469727C158.10000610351562,15.199999809265137,156.89999389648438,14.800000190734863,155.6999969482422,14.800000190734863C154.5,14.800000190734863,153.3000030517578,15.199999809265137,152.39999389648438,16C151.8000030517578,14.600000381469727,151,12.100000381469727,149.39999389648438,12.100000381469727C147.3000030517578,12.100000381469727,145.10000610351562,13.300000190734863,145.10000610351562,15.399999618530273L143,14.699999809265137C143,12.600000381469727,141,17.100000381469727,139.6999969482422,15.5C138.8000030517578,14.5,133.89999389648438,14.600000381469727,133.89999389648438,14.600000381469727C132.6999969482422,14.600000381469727,131.5,15.100000381469727,130.60000610351562,16C129.6999969482422,16.899999618530273,129.1999969482422,18,129.1999969482422,19.299999237060547L127.4000015258789,21.200000762939453C125.5999984741211,21.200000762939453,128.1999969482422,22.799999237060547,127.80000305175781,24.399999618530273C127.0999984741211,24,126.30000305175781,23.700000762939453,125.5,23.700000762939453C124.69999694824219,23.700000762939453,123.9000015258789,23.899999618530273,123.19999694824219,24.299999237060547C122.5,24.700000762939453,121.9000015258789,25.299999237060547,121.5,26C121.0999984741211,26.700000762939453,120.9000015258789,27.5,120.9000015258789,28.299999237060547C120.9000015258789,29.700000762939453,118.5999984741211,30.600000381469727,119.5,31.5C118.80000305175781,32.20000076293945,116.80000305175781,31.100000381469727,116.80000305175781,32.20000076293945C116.80000305175781,33,115.5999984741211,33.70000076293945,116,34.29999923706055C115.69999694824219,34.20000076293945,115.30000305175781,35.5,114.9000015258789,35.5C112.80000305175781,35.5,112.9000015258789,37.900001525878906,112.9000015258789,40C112.9000015258789,42.099998474121094,116.0999984741211,45.20000076293945,114.0999984741211,45.79999923706055C112.4000015258789,46.29999923706055,114.9000015258789,53.099998474121094,114.9000015258789,53.099998474121094C114.9000015258789,55.400001525878906,115.9000015258789,56.900001525878906,117.5,57.29999923706055C117.0999984741211,56.599998474121094,116.9000015258789,55.900001525878906,116.9000015258789,55.099998474121094C116.9000015258789,53.5,118,52,119.30000305175781,51.099998474121094C119.0999984741211,50.5,118.9000015258789,50,118.5,49.5C118.80000305175781,49.599998474121094,119.19999694824219,49.70000076293945,119.5999984741211,49.70000076293945C120.5999984741211,49.70000076293945,121.5999984741211,49.29999923706055,122.30000305175781,48.599998474121094C123,47.900001525878906,123.4000015258789,46.900001525878906,123.4000015258789,45.900001525878906L124.9000015258789,41C126.0999984741211,41,127.30000305175781,40.5,128.1999969482422,39.599998474121094C129.10000610351562,38.70000076293945,129.60000610351562,37.599998474121094,129.60000610351562,36.29999923706055L131.39999389648438,34C132.39999389648438,34,133.39999389648438,33.599998474121094,134.10000610351562,32.900001525878906C134.8000030517578,32.20000076293945,135.1999969482422,31.200000762939453,135.1999969482422,30.200000762939453C135.1999969482422,29.899999618530273,135.1999969482422,29.600000381469727,135.10000610351562,29.399999618530273C135.6999969482422,29.799999237060547,136.3000030517578,30.100000381469727,137,30.200000762939453C137.6999969482422,30.299999237060547,138.39999389648438,30.200000762939453,139.10000610351562,29.799999237060547C139.6999969482422,29.5,140.3000030517578,29,140.6999969482422,28.399999618530273C141.10000610351562,27.799999237060547,141.3000030517578,27.100000381469727,141.3000030517578,26.399999618530273L145,28.200000762939453C145.60000610351562,28.200000762939453,146.1999969482422,28,146.8000030517578,27.799999237060547C147.3000030517578,27.5,147.8000030517578,27.100000381469727,148.1999969482422,26.600000381469727C148.5,26.100000381469727,148.8000030517578,25.5,148.8000030517578,24.899999618530273C148.89999389648438,24.299999237060547,148.8000030517578,23.700000762939453,148.5,23.100000381469727C149,23,149.5,22.799999237060547,149.89999389648438,22.5C150.1999969482422,23.399999618530273,150.89999389648438,24.200000762939453,151.6999969482422,24.799999237060547C152.5,25.399999618530273,153.5,25.600000381469727,154.5,25.600000381469727C155.5,25.600000381469727,156.60000610351562,25.299999237060547,157.39999389648438,24.700000762939453C157.39999389648438,25.200000762939453,157.5,25.700000762939453,157.6999969482422,26.200000762939453C157.89999389648438,26.700000762939453,158.1999969482422,27.100000381469727,158.60000610351562,27.399999618530273C158.5,27.700000762939453,158.5,28,158.5,28.200000762939453C158.5,29.100000381469727,158.8000030517578,29.899999618530273,159.39999389648438,30.600000381469727C160,31.299999237060547,160.6999969482422,31.700000762939453,161.60000610351562,31.899999618530273C162.5,32.099998474121094,163.3000030517578,32,164.10000610351562,31.600000381469727C164.89999389648438,31.200000762939453,165.5,30.5,165.8000030517578,29.799999237060547C166.1999969482422,30.5,166.8000030517578,31,167.5,31.399999618530273C168.1999969482422,31.799999237060547,169,32,169.8000030517578,31.899999618530273C169.5,32.400001525878906,169.3000030517578,32.900001525878906,169.3000030517578,33.5C169.3000030517578,34.099998474121094,169.39999389648438,34.599998474121094,169.6999969482422,35.099998474121094C170.10000610351562,35.70000076293945,170.60000610351562,36.099998474121094,171.1999969482422,36.400001525878906C171.8000030517578,36.70000076293945,172.5,36.70000076293945,173.1999969482422,36.599998474121094C173,37,172.8000030517578,37.5,172.8000030517578,38C172.8000030517578,38.5,172.89999389648438,39,173.1999969482422,39.400001525878906C174,40.79999923706055,175.1999969482422,43.900001525878906,176.60000610351562,43.099998474121094S178.60000610351562,37.5,177.8000030517578,36.099998474121094z"/>
<path id="HairBorder" d="M179.10000610351562,35.400001525878906C179,35.20000076293945,178.89999389648438,35,178.8000030517578,34.79999923706055C178.6999969482422,34.5,178.5,34,178.1999969482422,33.599998474121094C178.39999389648438,32.400001525878906,177.6999969482422,31.299999237060547,177.3000030517578,30.5L177.10000610351562,30.200000762939453C176.60000610351562,29.5,176,28.899999618530273,175.1999969482422,28.5C175.10000610351562,28.399999618530273,175,28.399999618530273,174.89999389648438,28.299999237060547C175,27.899999618530273,175,27.600000381469727,175,27.200000762939453C175,26.100000381469727,174.8000030517578,25.100000381469727,174.3000030517578,24.100000381469727L174,23.600000381469727C173.10000610351562,21.799999237060547,172.10000610351562,20,170.39999389648438,19.5C169.89999389648438,19.399999618530273,169.1999969482422,19.299999237060547,168.39999389648438,19.5C168,17.200000762939453,166.39999389648438,15.699999809265137,163.89999389648438,15.699999809265137C162.89999389648438,15.699999809265137,162,16,161.1999969482422,16.5L161.1999969482422,16.5C161.1999969482422,16.5,161.1999969482422,16.5,161.10000610351562,16.5C160.8000030517578,15.899999618530273,160.39999389648438,15.399999618530273,159.89999389648438,14.899999618530273C158.6999969482422,13.800000190734863,157.1999969482422,13.100000381469727,155.5,13.100000381469727C154.60000610351562,13.100000381469727,153.6999969482422,13.300000190734863,152.89999389648438,13.600000381469727C152.1999969482422,12.100000381469727,151.10000610351562,10.399999618530273,149.1999969482422,10.399999618530273C147.10000610351562,10.399999618530273,144.89999389648438,11.399999618530273,143.89999389648438,13.100000381469727C143.6999969482422,12.800000190734863,143.39999389648438,12.600000381469727,143.1999969482422,12.5C142.10000610351562,12,141.3000030517578,12.899999618530273,140.6999969482422,13.399999618530273C140.60000610351562,13.5,140.39999389648438,13.699999809265137,140.1999969482422,13.899999618530273C138.8000030517578,12.899999618530273,135.89999389648438,12.800000190734863,133.6999969482422,12.800000190734863C132.10000610351562,12.800000190734863,130.5,13.399999618530273,129.39999389648438,14.600000381469727C128.39999389648438,15.600000381469727,127.80000305175781,16.899999618530273,127.5999984741211,18.299999237060547L126.5999984741211,19.399999618530273C126.0999984741211,19.5,125.69999694824219,19.799999237060547,125.4000015258789,20.299999237060547C125.0999984741211,20.899999618530273,125.0999984741211,21.399999618530273,125.30000305175781,21.899999618530273C124.19999694824219,21.899999618530273,123.19999694824219,22.200000762939453,122.30000305175781,22.700000762939453C121.4000015258789,23.200000762939453,120.5999984741211,24,120,24.899999618530273C119.5,25.799999237060547,119.19999694824219,26.899999618530273,119.19999694824219,27.899999618530273C119.19999694824219,28,118.80000305175781,28.399999618530273,118.69999694824219,28.600000381469727C118.30000305175781,29,118,29.399999618530273,117.9000015258789,29.799999237060547C117.30000305175781,29.700000762939453,116.5,29.700000762939453,115.9000015258789,30.299999237060547C115.5,30.600000381469727,115.30000305175781,31.100000381469727,115.30000305175781,31.600000381469727C115.30000305175781,31.700000762939453,115.19999694824219,31.799999237060547,115.0999984741211,31.899999618530273C114.9000015258789,32.20000076293945,114.5,32.70000076293945,114.4000015258789,33.29999923706055C114.30000305175781,33.400001525878906,114.19999694824219,33.599998474121094,114.0999984741211,33.70000076293945C113.30000305175781,33.79999923706055,112.80000305175781,34.20000076293945,112.5,34.5C111.30000305175781,35.70000076293945,111.30000305175781,37.599998474121094,111.30000305175781,39.29999923706055L111.30000305175781,39.599998474121094C111.30000305175781,40.79999923706055,111.9000015258789,42,112.5,43.099998474121094C112.69999694824219,43.400001525878906,112.9000015258789,43.900001525878906,113,44.20000076293945C112.5999984741211,44.400001525878906,112.4000015258789,44.70000076293945,112.19999694824219,45.099998474121094C111.30000305175781,47,112.5999984741211,51,113.30000305175781,52.900001525878906C113.4000015258789,55.400001525878906,114.5999984741211,57.29999923706055,116.4000015258789,58.099998474121094C117.69999694824219,60,120,61.20000076293945,122.0999984741211,61.20000076293945C122.9000015258789,61.20000076293945,123.5999984741211,60.5,123.5999984741211,59.70000076293945C123.5999984741211,58.900001525878906,122.9000015258789,58.20000076293945,122.0999984741211,58.20000076293945C120.5999984741211,58.20000076293945,118.30000305175781,56.599998474121094,118.30000305175781,54.70000076293945C118.30000305175781,52.79999923706055,120.5999984741211,51.20000076293945,122.0999984741211,51.20000076293945C122.9000015258789,51.20000076293945,123.5999984741211,50.5,123.5999984741211,49.70000076293945C123.5999984741211,49.400001525878906,123.5,49.20000076293945,123.4000015258789,49C124.19999694824219,48.099998474121094,124.69999694824219,47,124.69999694824219,45.79999923706055L125.80000305175781,42C127,41.79999923706055,128.10000610351562,41.20000076293945,129,40.29999923706055C130,39.29999923706055,130.60000610351562,37.900001525878906,130.8000030517578,36.5L131.89999389648438,35.099998474121094C133,34.900001525878906,134.10000610351562,34.400001525878906,134.89999389648438,33.599998474121094C135.60000610351562,32.900001525878906,136,32.099998474121094,136.3000030517578,31.299999237060547C136.39999389648438,31.299999237060547,136.60000610351562,31.299999237060547,136.6999969482422,31.399999618530273C137.6999969482422,31.5,138.6999969482422,31.299999237060547,139.60000610351562,30.899999618530273C140.5,30.5,141.1999969482422,29.799999237060547,141.8000030517578,28.899999618530273C141.89999389648438,28.700000762939453,142,28.5,142.10000610351562,28.299999237060547L144.10000610351562,29.299999237060547C144.3000030517578,29.399999618530273,144.5,29.5,144.8000030517578,29.5C145.6999969482422,29.5,146.5,29.299999237060547,147.3000030517578,28.899999618530273C148.10000610351562,28.5,148.6999969482422,27.899999618530273,149.1999969482422,27.200000762939453C149.60000610351562,26.600000381469727,149.89999389648438,25.899999618530273,150,25.200000762939453C150.1999969482422,25.399999618530273,150.39999389648438,25.5,150.60000610351562,25.700000762939453C151.60000610351562,26.399999618530273,152.89999389648438,26.799999237060547,154.10000610351562,26.799999237060547L154.1999969482422,26.799999237060547C154.89999389648438,26.799999237060547,155.5,26.700000762939453,156.10000610351562,26.5C156.3000030517578,26.899999618530273,156.5,27.200000762939453,156.6999969482422,27.5C156.6999969482422,27.600000381469727,156.6999969482422,27.799999237060547,156.6999969482422,27.899999618530273C156.6999969482422,29.100000381469727,157.10000610351562,30.299999237060547,157.89999389648438,31.200000762939453C158.6999969482422,32.099998474121094,159.6999969482422,32.79999923706055,160.89999389648438,33C162.10000610351562,33.20000076293945,163.3000030517578,33.099998474121094,164.39999389648438,32.5C164.8000030517578,32.29999923706055,165.1999969482422,32,165.60000610351562,31.700000762939453C165.89999389648438,31.899999618530273,166.1999969482422,32.099998474121094,166.5,32.29999923706055C166.8000030517578,32.5,167.1999969482422,32.599998474121094,167.5,32.70000076293945C167.5,32.79999923706055,167.5,32.900001525878906,167.5,33C167.5,33.79999923706055,167.6999969482422,34.70000076293945,168.10000610351562,35.5C168.60000610351562,36.29999923706055,169.39999389648438,37,170.3000030517578,37.400001525878906C170.5,37.5,170.6999969482422,37.599998474121094,171,37.599998474121094L171,37.599998474121094C171,38.400001525878906,171.1999969482422,39.099998474121094,171.60000610351562,39.79999923706055C171.6999969482422,40,171.89999389648438,40.29999923706055,172.10000610351562,40.70000076293945C172.89999389648438,42.20000076293945,173.6999969482422,43.900001525878906,175.1999969482422,44.29999923706055C175.8000030517578,44.5,176.5,44.400001525878906,177.10000610351562,44.099998474121094C178.89999389648438,42.900001525878906,180.3000030517578,37.5,179.10000610351562,35.400001525878906zM175.60000610351562,41.20000076293945C175.1999969482422,40.70000076293945,174.8000030517578,39.79999923706055,174.5,39.400001525878906C174.3000030517578,39,174.10000610351562,38.70000076293945,174,38.400001525878906C173.89999389648438,38.20000076293945,173.8000030517578,38,173.8000030517578,37.70000076293945C173.8000030517578,37.400001525878906,173.89999389648438,37.20000076293945,174,37C174.3000030517578,36.5,174.3000030517578,35.900001525878906,173.89999389648438,35.400001525878906C173.60000610351562,34.900001525878906,173,34.70000076293945,172.39999389648438,34.79999923706055C172,34.900001525878906,171.6999969482422,34.79999923706055,171.3000030517578,34.70000076293945C171,34.599998474121094,170.6999969482422,34.29999923706055,170.5,34.099998474121094C170.39999389648438,33.79999923706055,170.3000030517578,33.5,170.3000030517578,33.29999923706055C170.3000030517578,33,170.39999389648438,32.70000076293945,170.60000610351562,32.5C170.89999389648438,32,170.89999389648438,31.399999618530273,170.60000610351562,31C170.3000030517578,30.5,169.8000030517578,30.200000762939453,169.3000030517578,30.200000762939453C168.8000030517578,30.200000762939453,168.1999969482422,30.100000381469727,167.8000030517578,29.799999237060547C167.3000030517578,29.600000381469727,166.89999389648438,29.200000762939453,166.60000610351562,28.700000762939453C166.3000030517578,28.200000762939453,165.8000030517578,28,165.1999969482422,28C164.6999969482422,28,164.1999969482422,28.399999618530273,163.89999389648438,28.899999618530273C163.6999969482422,29.399999618530273,163.3000030517578,29.799999237060547,162.89999389648438,30C162.39999389648438,30.200000762939453,161.89999389648438,30.299999237060547,161.39999389648438,30.200000762939453C160.89999389648438,30.100000381469727,160.39999389648438,29.799999237060547,160.10000610351562,29.399999618530273C159.8000030517578,29,159.60000610351562,28.5,159.60000610351562,28C159.60000610351562,27.799999237060547,159.60000610351562,27.700000762939453,159.6999969482422,27.5C159.8000030517578,27,159.6999969482422,26.399999618530273,159.3000030517578,26C159.10000610351562,25.799999237060547,158.89999389648438,25.5,158.8000030517578,25.299999237060547C158.6999969482422,25,158.60000610351562,24.700000762939453,158.60000610351562,24.399999618530273C158.60000610351562,23.799999237060547,158.3000030517578,23.299999237060547,157.8000030517578,23.100000381469727C157.3000030517578,22.899999618530273,156.6999969482422,22.899999618530273,156.3000030517578,23.200000762939453C155.6999969482422,23.600000381469727,155,23.899999618530273,154.1999969482422,23.899999618530273C153.60000610351562,23.899999618530273,152.89999389648438,23.700000762939453,152.3000030517578,23.299999237060547C151.6999969482422,22.899999618530273,151.3000030517578,22.399999618530273,151.10000610351562,21.700000762939453C150.89999389648438,21.299999237060547,150.60000610351562,20.899999618530273,150.10000610351562,20.799999237060547C149.60000610351562,20.700000762939453,149.1999969482422,20.799999237060547,148.8000030517578,21C148.60000610351562,21.200000762939453,148.3000030517578,21.299999237060547,148,21.399999618530273C147.60000610351562,21.5,147.1999969482422,21.799999237060547,147,22.200000762939453C146.8000030517578,22.600000381469727,146.8000030517578,23.100000381469727,146.89999389648438,23.5C147,23.799999237060547,147.10000610351562,24.200000762939453,147.10000610351562,24.600000381469727C147.10000610351562,25,146.89999389648438,25.299999237060547,146.6999969482422,25.600000381469727C146.5,25.899999618530273,146.1999969482422,26.200000762939453,145.89999389648438,26.299999237060547C145.6999969482422,26.399999618530273,145.39999389648438,26.5,145.10000610351562,26.5L141.6999969482422,24.899999618530273C141.1999969482422,24.700000762939453,140.6999969482422,24.700000762939453,140.1999969482422,25C139.8000030517578,25.299999237060547,139.5,25.799999237060547,139.5,26.299999237060547C139.5,26.700000762939453,139.39999389648438,27.200000762939453,139.1999969482422,27.5C139,27.899999618530273,138.6999969482422,28.200000762939453,138.3000030517578,28.399999618530273C137.89999389648438,28.600000381469727,137.5,28.700000762939453,137.10000610351562,28.600000381469727C136.6999969482422,28.600000381469727,136.3000030517578,28.399999618530273,135.89999389648438,28.100000381469727C135.39999389648438,27.700000762939453,134.6999969482422,27.700000762939453,134.1999969482422,28C133.6999969482422,28.299999237060547,133.39999389648438,29,133.5,29.600000381469727C133.5,29.799999237060547,133.60000610351562,29.899999618530273,133.60000610351562,30.100000381469727C133.60000610351562,30.700000762939453,133.39999389648438,31.299999237060547,132.89999389648438,31.700000762939453C132.5,32.099998474121094,131.89999389648438,32.400001525878906,131.3000030517578,32.400001525878906C130.8000030517578,32.400001525878906,130.39999389648438,32.599998474121094,130.10000610351562,33L128.3000030517578,35.29999923706055C128.10000610351562,35.599998474121094,128,35.900001525878906,128,36.20000076293945C128,37,127.69999694824219,37.79999923706055,127.0999984741211,38.400001525878906C126.5,39,125.69999694824219,39.29999923706055,124.9000015258789,39.29999923706055C124.19999694824219,39.29999923706055,123.69999694824219,39.70000076293945,123.5,40.400001525878906L122,45.29999923706055C122,45.400001525878906,121.9000015258789,45.599998474121094,121.9000015258789,45.70000076293945C121.9000015258789,46.29999923706055,121.69999694824219,46.900001525878906,121.19999694824219,47.29999923706055C120.80000305175781,47.70000076293945,120.19999694824219,48,119.5999984741211,48C119.4000015258789,48,119.19999694824219,48,119,47.900001525878906C118.4000015258789,47.70000076293945,117.69999694824219,47.900001525878906,117.30000305175781,48.5C116.9000015258789,49.099998474121094,116.9000015258789,49.70000076293945,117.30000305175781,50.29999923706055C117.4000015258789,50.400001525878906,117.4000015258789,50.5,117.5,50.5C117,50.900001525878906,116.5999984741211,51.400001525878906,116.30000305175781,52C115.5999984741211,50,115,47.70000076293945,115.0999984741211,46.900001525878906C115.69999694824219,46.599998474121094,116,46.099998474121094,116.19999694824219,45.70000076293945C116.69999694824219,44.5,116,43.20000076293945,115.4000015258789,41.900001525878906C115,41.20000076293945,114.5999984741211,40.29999923706055,114.5999984741211,39.79999923706055L114.5999984741211,39.5C114.5999984741211,38.70000076293945,114.5999984741211,37.099998474121094,114.9000015258789,36.79999923706055C114.9000015258789,36.79999923706055,115,36.79999923706055,115.0999984741211,36.79999923706055C116.0999984741211,36.79999923706055,116.5999984741211,36,116.9000015258789,35.5C116.9000015258789,35.5,116.9000015258789,35.5,116.9000015258789,35.400001525878906C117.0999984741211,35.29999923706055,117.19999694824219,35.20000076293945,117.30000305175781,35C117.5,34.70000076293945,117.5999984741211,34.29999923706055,117.5999984741211,33.900001525878906C117.5999984741211,33.900001525878906,117.5999984741211,33.900001525878906,117.69999694824219,33.79999923706055C117.9000015258789,33.599998474121094,118.0999984741211,33.29999923706055,118.19999694824219,32.900001525878906C118.9000015258789,33,119.9000015258789,33,120.5999984741211,32.29999923706055C120.9000015258789,32,121.0999984741211,31.600000381469727,121.0999984741211,31.200000762939453C121.0999984741211,31.100000381469727,121.0999984741211,31,121,30.799999237060547L121.0999984741211,30.700000762939453C121.5999984741211,30.100000381469727,122.4000015258789,29.200000762939453,122.4000015258789,28C122.4000015258789,27.5,122.5,26.899999618530273,122.80000305175781,26.399999618530273C123.0999984741211,25.899999618530273,123.5,25.5,124,25.299999237060547C124.5,25.100000381469727,125,24.899999618530273,125.5999984741211,24.899999618530273C126.19999694824219,24.899999618530273,126.69999694824219,25.100000381469727,127.19999694824219,25.399999618530273C127.5999984741211,25.600000381469727,128.10000610351562,25.700000762939453,128.5,25.5C128.89999389648438,25.299999237060547,129.3000030517578,25,129.39999389648438,24.5C129.6999969482422,23.399999618530273,129.3000030517578,22.399999618530273,128.89999389648438,21.700000762939453L130.39999389648438,20.100000381469727C130.6999969482422,19.799999237060547,130.8000030517578,19.5,130.8000030517578,19.100000381469727C130.8000030517578,18.299999237060547,131.10000610351562,17.5,131.6999969482422,16.899999618530273C132.3000030517578,16.299999237060547,133.10000610351562,16,133.89999389648438,16C135.8000030517578,16,138,16.200000762939453,138.60000610351562,16.5C139.10000610351562,17.100000381469727,139.8000030517578,17.299999237060547,140.1999969482422,17.299999237060547C141.1999969482422,17.399999618530273,142,16.700000762939453,142.60000610351562,16.100000381469727L144.60000610351562,16.799999237060547C145.10000610351562,17,145.60000610351562,16.899999618530273,146,16.600000381469727C146.39999389648438,16.299999237060547,146.60000610351562,15.899999618530273,146.60000610351562,15.399999618530273C146.60000610351562,14.199999809265137,148.1999969482422,13.600000381469727,149.39999389648438,13.600000381469727C149.89999389648438,13.699999809265137,150.60000610351562,15.5,150.8000030517578,16.100000381469727C150.89999389648438,16.299999237060547,151,16.5,151,16.700000762939453C151.1999969482422,17.100000381469727,151.60000610351562,17.5,152,17.600000381469727C152.5,17.700000762939453,153,17.600000381469727,153.3000030517578,17.299999237060547C153.89999389648438,16.799999237060547,154.6999969482422,16.5,155.5,16.5L155.5,16.5C156.39999389648438,16.5,157.1999969482422,16.799999237060547,157.8000030517578,17.399999618530273C158.39999389648438,18,158.8000030517578,18.799999237060547,158.8000030517578,19.700000762939453C158.8000030517578,20.299999237060547,159.1999969482422,20.799999237060547,159.6999969482422,21C160.60000610351562,21.399999618530273,161.10000610351562,20.899999618530273,162.10000610351562,19.899999618530273C162.3000030517578,19.700000762939453,162.60000610351562,19.399999618530273,162.6999969482422,19.299999237060547C163,19.100000381469727,163.39999389648438,19,163.8000030517578,19C164.60000610351562,19,165.3000030517578,19.100000381469727,165.3000030517578,20.799999237060547C165.3000030517578,21,165.3000030517578,21.100000381469727,165.1999969482422,21.299999237060547C165.10000610351562,21.799999237060547,165.1999969482422,22.299999237060547,165.60000610351562,22.700000762939453L165.89999389648438,23C166.1999969482422,23.299999237060547,166.6999969482422,23.5,167.1999969482422,23.5C167.6999969482422,23.399999618530273,167.6999969482422,23.399999618530273,169,22.700000762939453C169.10000610351562,22.600000381469727,169.3000030517578,22.600000381469727,169.39999389648438,22.600000381469727C169.89999389648438,22.799999237060547,170.6999969482422,24.299999237060547,171.1999969482422,25.299999237060547L171.5,25.899999618530273C171.8000030517578,26.399999618530273,171.89999389648438,26.899999618530273,171.89999389648438,27.5C171.89999389648438,28,171.6999969482422,28.600000381469727,171.39999389648438,29C171.10000610351562,29.5,171.10000610351562,30.100000381469727,171.39999389648438,30.600000381469727C171.6999969482422,31.100000381469727,172.1999969482422,31.299999237060547,172.8000030517578,31.299999237060547C173.10000610351562,31.299999237060547,173.39999389648438,31.299999237060547,173.6999969482422,31.5C174,31.600000381469727,174.1999969482422,31.899999618530273,174.39999389648438,32.099998474121094L174.60000610351562,32.400001525878906C174.8000030517578,32.70000076293945,175.10000610351562,33.29999923706055,175.10000610351562,33.5C175.10000610351562,33.5,175.10000610351562,33.5,175,33.599998474121094C174.60000610351562,34,174.60000610351562,34.599998474121094,174.8000030517578,35.20000076293945C175,35.599998474121094,175.39999389648438,35.900001525878906,175.8000030517578,36C175.8000030517578,36.099998474121094,175.89999389648438,36.20000076293945,175.89999389648438,36.29999923706055C176,36.599998474121094,176.1999969482422,37,176.39999389648438,37.29999923706055C176.8000030517578,37.599998474121094,176.1999969482422,40.20000076293945,175.60000610351562,41.20000076293945z"/>
</g>
</svg>