<svg xmlns="http://www.w3.org/2000/svg" xmlns:xlink="http://www.w3.org/1999/xlink" viewBox= "0 0 138 311" width="138px" height="311px">
<g xmlns="http://www.w3.org/2000/svg" id="Boy1V2.svg">
<path id="Body" fill="#FADBBD" d="M76.44000244140625,100.41500091552734C63.730003356933594,100.41500091552734,55.02000045776367,89.6050033569336,60.22999954223633,87.80500030517578C65.33529663085938,86.32759857177734,66.96520233154297,82.28130340576172,67.49009704589844,77.8406982421875C61.34109878540039,74.77449798583984,55.52949905395508,68.4979019165039,52.12419891357422,60.811302185058594C50.38970184326172,60.60790252685547,48.614898681640625,58.752201080322266,47.90999984741211,56.234901428222656C47.20130157470703,53.703800201416016,47.79159927368164,51.1786994934082,49.21760177612305,50.112998962402344C49.096900939941406,48.97949981689453,49.029998779296875,47.83599853515625,49.029998779296875,46.685001373291016C49.029998779296875,44.1349983215332,49.279998779296875,33.904998779296875,49.7599983215332,31.775001525878906C52.560001373291016,19.44499969482422,62.959999084472656,14.135000228881836,75.37000274658203,14.135000228881836C87.77999877929688,14.135000228881836,98.16000366210938,19.434999465942383,100.97000122070312,31.724998474121094C101.45999908447266,33.8650016784668,101.72000122070312,44.1150016784668,101.72000122070312,46.685001373291016C101.72000122070312,47.798301696777344,101.6604995727539,48.904998779296875,101.54930114746094,50.00210189819336C103.03970336914062,50.994598388671875,103.67469787597656,53.543399810791016,102.94999694824219,56.17499923706055C102.23829650878906,58.75920104980469,100.44270324707031,60.59729766845703,98.69429779052734,60.759803771972656C95.38490295410156,68.35420227050781,89.73410034179688,74.5802993774414,83.63749694824219,77.70240020751953C84.23320007324219,81.24120330810547,85.9990005493164,85.91400146484375,91.15989685058594,86.40499877929688C97.66000366210938,87.23500061035156,89.1500015258789,100.41500091552734,76.44000244140625,100.41500091552734zM56.189998626708984,228.26499938964844C55.70000076293945,229.13499450683594,55.77000045776367,236.69500732421875,56.540000915527344,239.5749969482422C56.81999969482422,240.5749969482422,55.9900016784668,246.39500427246094,55.9900016784668,248.5749969482422C55.9900016784668,250.7550048828125,58.59000015258789,267.0849914550781,58.63999938964844,268.82501220703125C58.720001220703125,271.55499267578125,58.399898529052734,277.7650146484375,56.54999923706055,278.82501220703125C54.70009994506836,279.885009765625,48.63999938964844,282.364990234375,45.47999954223633,284.7449951171875C42.31999969482422,287.125,42.34000015258789,289.9949951171875,42.77000045776367,293.05499267578125C43.20009994506836,296.114990234375,47.18000030517578,298.31500244140625,53.77000045776367,297.635009765625C60.36000061035156,296.95489501953125,60.849998474121094,293.5450134277344,63.769996643066406,292.2550048828125C66.69000244140625,290.9649963378906,72.05999755859375,289.7950134277344,72,287.57501220703125C71.94000244140625,285.3550109863281,71,278.7749938964844,70.4000015258789,277.7650146484375C69.80000305175781,276.7550048828125,70.2300033569336,274.4549865722656,71.30999755859375,270.6650085449219C72.38999938964844,266.875,73.30999755859375,258.57501220703125,73.80999755859375,252.07501220703125C74.30999755859375,245.5749969482422,73.70999908447266,241.5749969482422,74.19000244140625,240.36500549316406C74.4540023803711,239.69949340820312,75.48609924316406,229.91360473632812,76.36849975585938,220.53030395507812L55.58259963989258,220.53030395507812C55.93830108642578,224.84429931640625,56.38140106201172,227.9250946044922,56.189998626708984,228.26499938964844zM48.119998931884766,168.52499389648438C49.90999984741211,170.09500122070312,53.40999984741211,172.21499633789062,54.119998931884766,170.97500610351562C54.83000183105469,169.73489379882812,53.5,168.375,52.2599983215332,167.61500549316406C51.019901275634766,166.8551025390625,48.66999816894531,165.02499389648438,48.66999816894531,165.02499389648438C48.66999816894531,165.02499389648438,50.22999954223633,166.22500610351562,51.529998779296875,167.02499389648438C53.68080139160156,168.1407012939453,55.93050003051758,169.05459594726562,58.25,169.7550048828125C60.400001525878906,170.0050048828125,60.72999954223633,168.73500061035156,60.130001068115234,167.875C62.18000030517578,168.19500732421875,63.63999938964844,166.52499389648438,61.63999938964844,165.28500366210938L53.09000015258789,160.18499755859375C54.5531005859375,160.42599487304688,55.9994010925293,160.76010131835938,57.41999816894531,161.18499755859375C59.20000076293945,161.77499389648438,61.20000076293945,162.4250030517578,61.900001525878906,160.9149932861328C62.599998474121094,159.4051055908203,57.95000076293945,157.7050018310547,57.150001525878906,157.30499267578125C56.349998474121094,156.90499877929688,53.2599983215332,155.90499877929688,52.349998474121094,154.90499877929688C51.813899993896484,154.3433074951172,51.544498443603516,153.57859802246094,51.61000061035156,152.80499267578125C51.5,152.28500366210938,50.900001525878906,152.09500122070312,48.849998474121094,151.80499267578125C46.79999923706055,151.51499938964844,43.88999938964844,151.15499877929688,43.029998779296875,150.51499938964844L40.619998931884766,147.51499938964844C39.099998474121094,145.85499572753906,27.940000534057617,130.85499572753906,27.940000534057617,130.85499572753906C27.940000534057617,130.85499572753906,43.099998474121094,116.94499969482422,45.77000045776367,114.2750015258789C48.439998626708984,111.6050033569336,42.11000061035156,96.86499786376953,42.11000061035156,96.86499786376953C35.72999954223633,101.36499786376953,13.520000457763672,125.14500427246094,12.640000343322754,126.81500244140625C11.760000228881836,128.48500061035156,13.319999694824219,133.38499450683594,14.760000228881836,135.13499450683594C22.389999389648438,144.43499755859375,30.600000381469727,151.78500366210938,32.38999938964844,152.78500366210938L35.20989990234375,155.55499267578125C35.46989822387695,155.9250946044922,37.95989990234375,157.54510498046875,38.97990036010742,158.35499572753906C39.999900817871094,159.16490173339844,40.739898681640625,161.30499267578125,41.87990188598633,163.03500366210938C43.02000045776367,164.76499938964844,46.33000183105469,166.9550018310547,48.119998931884766,168.52499389648438zM115.94000244140625,283.0450134277344C113.83999633789062,282.05499267578125,106.29000091552734,278.7049865722656,106.45999908447266,277.2250061035156C106.62999725341797,275.7449951171875,107.20999908447266,245.84500122070312,106.94000244140625,243.39500427246094C106.66999816894531,240.94500732421875,105.30000305175781,234.6649932861328,105.30000305175781,234.6649932861328C105.23909759521484,234.1737060546875,105.73210144042969,227.74029541015625,105.93910217285156,220.5303955078125L85.34950256347656,220.5303955078125C86.25520324707031,227.12759399414062,87.94860076904297,236.58230590820312,88.7699966430664,238.22500610351562C89.66999816894531,240.02499389648438,88.4000015258789,245.02499389648438,88.66999816894531,251.02508544921875C88.94000244140625,257.02508544921875,93.66999816894531,276.7051086425781,93.83999633789062,278.1051025390625C94.01000213623047,279.5050964355469,92.5999984741211,284.42510986328125,92.77999877929688,287.7550964355469C92.96009826660156,291.0851135253906,98.0999984741211,291.6250915527344,100.58999633789062,291.9551086425781C103.0801010131836,292.28509521484375,106.54000091552734,298.5151062011719,112.8499984741211,298.5151062011719C119.16000366210938,298.5151062011719,122.51000213623047,296.1449890136719,122.26000213623047,291.0950927734375S118.04000091552734,284.0350036621094,115.94000244140625,283.0450134277344zM107.56999969482422,180.89500427246094C106.93000030517578,181.89500427246094,101.30000305175781,188.2449951171875,103.72000122070312,192.5749969482422C105.90840148925781,193.0198974609375,106.37090301513672,190.40640258789062,106.4541015625,189.16580200195312C106.48139953613281,190.88729858398438,106.95249938964844,192.6446990966797,106.80000305175781,193.77499389648438C106.80000305175781,193.76499938964844,100.04000091552734,200.23500061035156,107.11000061035156,201.10499572753906C114.16999816894531,202.0050048828125,117.94000244140625,195.43499755859375,118.52999877929688,194.10499572753906C119.12000274658203,192.77499389648438,119.05000305175781,181.88499450683594,118.87000274658203,179.4250030517578C118.80670166015625,178.05050659179688,119.00350189208984,176.67649841308594,119.44999694824219,175.375C119.80999755859375,174.375,124.44999694824219,147.02499389648438,123.80999755859375,140.625C123.16999816894531,134.22500610351562,118.70999908447266,112.04499816894531,115.22000122070312,104.23500061035156C111.7300033569336,96.42500305175781,107.69999694824219,115.95500183105469,107.79000091552734,119.8551025390625C107.79000091552734,121.66510009765625,107.9000015258789,133.8551025390625,109.31999969482422,142.36500549316406C110.94000244140625,152.05499267578125,111.55999755859375,172.7550048828125,111.22000122070312,174.56500244140625C110.5999984741211,177.9550018310547,108.80999755859375,179.0050048828125,107.56999969482422,180.89500427246094z"/>
<path id="BodyBorder" d="M75.35220336914062,240.8253936767578C75.2135009765625,241.1739959716797,75.23400115966797,242.59300231933594,75.25360107421875,243.96499633789062C75.28289794921875,245.97279357910156,75.3219985961914,248.7218017578125,75.0562973022461,252.17111206054688C74.55139923095703,258.73260498046875,73.6187973022461,267.1261901855469,72.51239776611328,271.00799560546875C71.50749969482422,274.5353088378906,71.15789794921875,276.5939025878906,71.47429656982422,277.1261901855469C72.31809997558594,278.5470886230469,73.19989776611328,285.6925964355469,73.24970245361328,287.5422058105469C73.31900024414062,290.1134948730469,69.96109771728516,291.31170654296875,66.7136001586914,292.46990966796875C65.81320190429688,292.79119873046875,64.96260070800781,293.09490966796875,64.27559661865234,293.3985900878906C63.481201171875,293.74920654296875,62.86790084838867,294.3399963378906,62.15739822387695,295.02459716796875C60.60219955444336,296.5226135253906,58.667198181152344,298.38690185546875,53.89860153198242,298.87811279296875C53.02899932861328,298.9678955078125,52.206199645996094,299.0108947753906,51.430301666259766,299.0108947753906C45.175899505615234,299.0108947753906,41.95669937133789,296.2510986328125,41.53239822387695,293.22869873046875C41.0973014831543,290.13299560546875,40.94940185546875,286.5929870605469,44.72819900512695,283.747314453125C47.00360107421875,282.0325012207031,50.62519836425781,280.3117980957031,53.26969909667969,279.055908203125C54.4093017578125,278.514892578125,55.3931999206543,278.0470886230469,55.92890167236328,277.7405090332031C56.695499420166016,277.3009948730469,57.518699645996094,273.24249267578125,57.39030075073242,268.86260986328125C57.37030029296875,268.15948486328125,56.81460189819336,264.2972106933594,56.27750015258789,260.56280517578125C55.37710189819336,254.30499267578125,54.739898681640625,249.78250122070312,54.739898681640625,248.57550048828125C54.739898681640625,247.5872039794922,54.88930130004883,246.01010131835938,55.04750061035156,244.34010314941406C55.1968994140625,242.76690673828125,55.42250061035156,240.38890075683594,55.329200744628906,239.88400268554688C54.62120056152344,237.235595703125,54.341400146484375,229.87030029296875,54.986900329589844,227.9210968017578C54.99959945678711,227.51089477539062,54.86479949951172,226.17599487304688,54.734500885009766,224.88299560546875C54.61159896850586,223.6638946533203,54.46329879760742,222.18299865722656,54.32809829711914,220.53030395507812L56.83639907836914,220.53030395507812C56.9656982421875,222.08470153808594,57.10559844970703,223.47900390625,57.2218017578125,224.63299560546875C57.52750015258789,227.66329956054688,57.5806999206543,228.28529357910156,57.31560134887695,228.80979919433594C56.99330139160156,229.91529846191406,57.04460144042969,236.62130737304688,57.74769973754883,239.252197265625C57.945899963378906,239.960205078125,57.83610153198242,241.41920471191406,57.536800384521484,244.57640075683594C57.39080047607422,246.114501953125,57.239898681640625,247.70530700683594,57.239898681640625,248.5753936767578C57.239898681640625,249.69749450683594,58.07830047607422,255.52459716796875,58.7515983581543,260.206298828125C59.44200134277344,265.00421142578125,59.86629867553711,267.985595703125,59.88930130004883,268.789306640625C59.93519973754883,270.3595886230469,60.020599365234375,278.276611328125,57.17150115966797,279.9093933105469C56.552398681640625,280.264892578125,55.577301025390625,280.7278137207031,54.34239959716797,281.314697265625C51.794498443603516,282.5246887207031,48.305301666259766,284.181884765625,46.23249816894531,285.743408203125C43.77840042114258,287.5910949707031,43.557701110839844,289.6780090332031,44.00790023803711,292.881103515625C44.30820083618164,295.0198059082031,47.456600189208984,297.031494140625,53.641700744628906,296.3918151855469C57.55329895019531,295.9884948730469,59.012298583984375,294.58319091796875,60.42290115356445,293.2237854003906C61.230499267578125,292.4465026855469,62.06549835205078,291.6418151855469,63.26470184326172,291.11151123046875C64.03620147705078,290.77069091796875,64.92829895019531,290.4523010253906,65.87310028076172,290.1153869628906C67.2125015258789,289.6379089355469,70.77100372314453,288.3682861328125,70.74960327148438,287.6094970703125C70.68710327148438,285.2687072753906,69.7500991821289,279.2373962402344,69.31749725341797,278.3898010253906C68.46150207519531,276.9502868652344,68.93419647216797,274.4425048828125,70.10800170898438,270.3223876953125C71.1626968383789,266.62030029296875,72.06890106201172,258.4190979003906,72.56410217285156,251.9796142578125C72.81999969482422,248.6436004638672,72.78189849853516,245.96009826660156,72.75360107421875,244.00010681152344C72.72429656982422,241.95030212402344,72.70670318603516,240.71299743652344,73.02799987792969,239.9033966064453C73.24819946289062,239.07919311523438,74.2437973022461,229.6540069580078,75.10980224609375,220.5301971435547L77.618896484375,220.5301971435547C76.73650360107422,229.9976043701172,75.69090270996094,239.97039794921875,75.35220336914062,240.8253936767578zM63.70469665527344,167.35470581054688C63.39320373535156,168.19650268554688,62.603599548339844,168.80389404296875,61.614898681640625,169.04710388183594C61.56949996948242,169.31570434570312,61.47529983520508,169.57440185546875,61.33219909667969,169.81370544433594C61.007999420166016,170.3585968017578,60.15639877319336,171.24339294433594,58.10559844970703,170.99630737304688C58.03239822387695,170.98849487304688,57.959598541259766,170.972900390625,57.88880157470703,170.95140075683594C57.10900115966797,170.71600341796875,56.335601806640625,170.45730590820312,55.56949996948242,170.17410278320312C55.58319854736328,170.66140747070312,55.464500427246094,171.14190673828125,55.20429992675781,171.5959930419922C54.906898498535156,172.11549377441406,54.40010070800781,172.4593048095703,53.777099609375,172.56280517578125C53.640899658203125,172.58619689941406,53.49980163574219,172.5970001220703,53.355201721191406,172.5970001220703C50.89619827270508,172.5970001220703,47.33319854736328,169.49740600585938,47.29560089111328,169.46420288085938C46.76089859008789,168.9954071044922,46.06610107421875,168.45440673828125,45.330299377441406,167.8822021484375C43.56129837036133,166.5052032470703,41.7317008972168,165.08140563964844,40.83660125732422,163.7239990234375C40.36050033569336,163.0012969970703,39.96839904785156,162.24940490722656,39.589500427246094,161.52279663085938C39.11289978027344,160.6096954345703,38.62030029296875,159.6654052734375,38.202301025390625,159.3332977294922C37.79650115966797,159.01100158691406,37.148101806640625,158.55690002441406,36.5093994140625,158.10769653320312C35.065101623535156,157.09109497070312,34.550899505615234,156.71119689941406,34.28139877319336,156.39480590820312L31.62220001220703,153.7830047607422C29.26580047607422,152.331298828125,21.04360008239746,144.764404296875,13.793600082397461,135.92799377441406C12.295999526977539,134.1082000732422,10.26669979095459,128.6374969482422,11.53380012512207,126.23269653320312C12.566499710083008,124.273193359375,35.11579895019531,100.268798828125,41.38930130004883,95.84349822998047C41.69839859008789,95.62670135498047,42.0880012512207,95.560302734375,42.449798583984375,95.66190338134766C42.812599182128906,95.76439666748047,43.11000061035156,96.02519989013672,43.258399963378906,96.37190246582031C44.8218994140625,100.01200103759766,49.68709945678711,112.12529754638672,46.653900146484375,115.15899658203125C44.32680130004883,117.48660278320312,32.85309982299805,128.03939819335938,29.616300582885742,131.01300048828125C33.611900329589844,136.3748016357422,40.4385986328125,145.46560668945312,41.54159927368164,146.67120361328125L43.8755989074707,149.5720977783203C44.608001708984375,149.9510040283203,47.21889877319336,150.3153076171875,48.50740051269531,150.4949951171875L49.0255012512207,150.5673065185547C50.97760009765625,150.8437042236328,52.51919937133789,151.06190490722656,52.833099365234375,152.5467987060547C52.858001708984375,152.66639709472656,52.86579895019531,152.7884979248047,52.85559844970703,152.9105987548828C52.82040023803711,153.3271026611328,52.96549987792969,153.7397003173828,53.25450134277344,154.04190063476562C53.74959945678711,154.58580017089844,55.66170120239258,155.34609985351562,56.5802001953125,155.7113037109375C57.0723991394043,155.90660095214844,57.47809982299805,156.0717010498047,57.709598541259766,156.18690490722656C57.81460189819336,156.23959350585938,57.994300842285156,156.31680297851562,58.2218017578125,156.41439819335938C60.37269973754883,157.3459930419922,62.52009963989258,158.3782958984375,63.0802001953125,159.8470001220703C63.28479766845703,160.38409423828125,63.268699645996094,160.93490600585938,63.0343017578125,161.4407958984375C62.46689987182617,162.66439819335938,61.467899322509766,163.06289672851562,60.38240051269531,163.0803985595703L62.28030014038086,164.2122039794922C63.83709716796875,165.17599487304688,64.03379821777344,166.46600341796875,63.70469665527344,167.35470581054688zM61.24380111694336,166.54220581054688C61.18470001220703,166.4875030517578,61.09980010986328,166.4210968017578,60.98160171508789,166.347900390625L52.44940185546875,161.2581024169922C51.933799743652344,160.95050048828125,51.70970153808594,160.31959533691406,51.91619873046875,159.7552032470703C52.12229919433594,159.18980407714844,52.70479965209961,158.85679626464844,53.2932014465332,158.95150756835938C54.80350112915039,159.20050048828125,56.312198638916016,159.5491943359375,57.778099060058594,159.9875946044922C58.68389892578125,160.2873992919922,60.07059860229492,160.7415008544922,60.588600158691406,160.54330444335938C60.268798828125,160.2259063720703,59.42110061645508,159.6584930419922,57.22869873046875,158.7093048095703C56.94499969482422,158.5863037109375,56.72140121459961,158.4886016845703,56.59049987792969,158.42320251464844C56.399600982666016,158.32749938964844,56.06269836425781,158.19569396972656,55.65639877319336,158.0345001220703C53.8140983581543,157.30209350585938,52.224300384521484,156.62429809570312,51.425899505615234,155.74639892578125C50.80820083618164,155.0998992919922,50.43220138549805,154.24349975585938,50.36240005493164,153.34060668945312C50.03919982910156,153.25559997558594,49.474700927734375,153.15550231933594,48.67490005493164,153.04269409179688L48.162200927734375,152.9709014892578C45.33259963989258,152.57589721679688,43.255001068115234,152.24090576171875,42.28329849243164,151.51730346679688C42.198299407958984,151.4542999267578,42.121700286865234,151.38059997558594,42.055301666259766,151.297607421875L39.64509963989258,148.297607421875C38.15290069580078,146.6710968017578,27.39459991455078,132.21560668945312,26.93709945678711,131.60079956054688C26.554800033569336,131.0865936279297,26.622600555419922,130.3668975830078,27.09480094909668,129.93380737304688C27.246200561523438,129.7946014404297,42.26570129394531,116.01190185546875,44.88629913330078,113.39129638671875C45.916099548339844,112.36150360107422,44.387298583984375,105.76730346679688,41.58209991455078,98.84590148925781C34.070899963378906,104.981201171875,14.652400016784668,125.89909362792969,13.735400199890137,127.41619873046875C13.24370002746582,128.3502960205078,14.34280014038086,132.66079711914062,15.725099563598633,134.3404998779297C23.303199768066406,143.57730102539062,31.371601104736328,150.78390502929688,32.9995002746582,151.69349670410156C33.09669876098633,151.74769592285156,33.18600082397461,151.81509399414062,33.26559829711914,151.89320373535156L36.085899353027344,154.66319274902344C36.11859893798828,154.69540405273438,36.149898529052734,154.72909545898438,36.1786994934082,154.7653045654297C36.404300689697266,154.97669982910156,37.330101013183594,155.6280975341797,37.94770050048828,156.0626983642578C38.63079833984375,156.54319763183594,39.32270050048828,157.03050231933594,39.75680160522461,157.3751983642578C40.59080123901367,158.03829956054688,41.18109893798828,159.16909790039062,41.805599212646484,160.36639404296875C42.15570068359375,161.03729248046875,42.518001556396484,161.73159790039062,42.92380142211914,162.34779357910156C43.59230041503906,163.3614959716797,45.33100128173828,164.71499633789062,46.86520004272461,165.9093017578125C47.63079833984375,166.5050048828125,48.354000091552734,167.0675048828125,48.94380187988281,167.58509826660156C50.42179870605469,168.88099670410156,52.18600082397461,169.8321990966797,53.016998291015625,170.05189514160156C52.86909866333008,169.68670654296875,52.3572998046875,169.1407928466797,51.605899810791016,168.67979431152344C50.32170104980469,167.8927001953125,47.999900817871094,166.08700561523438,47.901798248291016,166.01089477539062C47.358299255371094,165.58709716796875,47.259700775146484,164.80479431152344,47.68159866333008,164.25990295410156C48.102500915527344,163.71499633789062,48.886199951171875,163.6154022216797,49.432098388671875,164.03329467773438C49.447200775146484,164.0449981689453,50.95750045776367,165.20419311523438,52.185001373291016,165.96009826660156C54.14939880371094,166.97569274902344,56.29779815673828,167.8527069091797,58.49850082397461,168.52459716796875C58.75579833984375,168.54710388183594,58.93550109863281,168.5363006591797,59.05270004272461,168.5167999267578C59.03450012207031,168.48049926757812,59.026798248291016,168.44000244140625,59.012001037597656,168.40220642089844C56.89080047607422,167.277099609375,50.7047004699707,163.89739990234375,50.640098571777344,163.8625030517578C50.15520095825195,163.59689331054688,49.97700119018555,162.989501953125,50.2421989440918,162.50509643554688C50.50680160522461,162.0207061767578,51.11479949951172,161.84300231933594,51.599098205566406,162.10670471191406C51.66389846801758,162.14259338378906,57.875999450683594,165.53640747070312,59.964900970458984,166.64390563964844C60.08100128173828,166.6239013671875,60.20100021362305,166.62109375,60.322200775146484,166.639892578125C60.75600051879883,166.70919799804688,61.07339859008789,166.6251983642578,61.24380111694336,166.54220581054688zM116.47329711914062,281.914306640625L115.77020263671875,281.5862121582031C109.96649932861328,278.8927917480469,108.16079711914062,277.6632995605469,107.71939849853516,277.1028137207031C107.89029693603516,273.8821105957031,108.4801025390625,245.9622039794922,108.18229675292969,243.2581024169922C107.92449951171875,240.91920471191406,106.73310089111328,235.37240600585938,106.54460144042969,234.5052032470703C106.54560089111328,234.15660095214844,106.61489868164062,232.9134063720703,106.68820190429688,231.6029052734375C106.89600372314453,227.89520263671875,107.0790023803711,224.12789916992188,107.18419647216797,220.53050231933594L104.68229675292969,220.53050231933594C104.55460357666016,224.9882049560547,104.32489776611328,229.09620666503906,104.19210052490234,231.4633026123047C104.04949951171875,234.01119995117188,104.02510070800781,234.5355987548828,104.060302734375,234.8197021484375C104.06520080566406,234.85780334472656,104.07099914550781,234.8948974609375,104.07890319824219,234.9320068359375C104.09259796142578,234.99349975585938,105.43730163574219,241.17520141601562,105.697998046875,243.53160095214844C105.95580291748047,245.88119506835938,105.38259887695312,275.6205139160156,105.21749877929688,277.0823974609375C105.02020263671875,278.80120849609375,107.23999786376953,280.3832092285156,114.71749877929688,283.8539123535156L115.40699768066406,284.17620849609375C118.07009887695312,285.4320983886719,120.81809997558594,287.24359130859375,121.01249694824219,291.1567077636719C121.10040283203125,292.9378967285156,120.69509887695312,294.2738952636719,119.77420043945312,295.24169921875C118.49590301513672,296.5845031738281,116.16680145263672,297.2651062011719,112.85040283203125,297.2651062011719C109.3230972290039,297.2651062011719,106.72339630126953,294.98779296875,104.6355972290039,293.15869140625C103.1864013671875,291.8891906738281,102.04180145263672,290.88720703125,100.75469970703125,290.71630859375L100.45680236816406,290.67718505859375C98.40799713134766,290.40960693359375,94.14530181884766,289.85400390625,94.0280990600586,287.6878967285156C93.93240356445312,285.91351318359375,94.34549713134766,283.53070068359375,94.67649841308594,281.6166076660156C94.99579620361328,279.7738037109375,95.17160034179688,278.6957092285156,95.08180236816406,277.9534912109375C95.03099822998047,277.5393981933594,94.75270080566406,276.27191162109375,94.12770080566406,273.4457092285156C92.72440338134766,267.0921936035156,90.11209869384766,255.2659912109375,89.918701171875,250.96910095214844C89.79859924316406,248.3011016845703,89.98899841308594,245.87049865722656,90.15699768066406,243.7259063720703C90.37480163574219,240.9553985595703,90.53199768066406,238.95339965820312,89.88839721679688,237.6654052734375C89.23989868164062,236.36929321289062,87.58580017089844,227.62249755859375,86.61019897460938,220.53050231933594L84.08760070800781,220.53050231933594C84.93070220947266,226.6907958984375,86.66690063476562,236.81410217285156,87.652099609375,238.78359985351562C87.98509979248047,239.44960021972656,87.8219985961914,241.52479553222656,87.66480255126953,243.53070068359375C87.49980163574219,245.63710021972656,87.293701171875,248.2592010498047,87.42070007324219,251.08151245117188C87.62480163574219,255.59420776367188,90.16780090332031,267.10589599609375,91.68730163574219,273.98480224609375C92.1364974975586,276.0209045410156,92.5613021850586,277.94378662109375,92.59940338134766,278.25531005859375C92.65019989013672,278.6673889160156,92.41780090332031,280.0072937011719,92.21269989013672,281.1899108886719C91.86019897460938,283.22900390625,91.42070007324219,285.76611328125,91.53199768066406,287.82269287109375C91.760498046875,292.06390380859375,97.41580200195312,292.80218505859375,100.13359832763672,293.1567077636719L100.42659759521484,293.1947937011719C100.96369934082031,293.26611328125,102.03890228271484,294.2074890136719,102.98809814453125,295.0386047363281C105.2645034790039,297.03369140625,108.38259887695312,299.76519775390625,112.85040283203125,299.76519775390625C116.87770080566406,299.76519775390625,119.81719970703125,298.82281494140625,121.58480072021484,296.96539306640625C122.98419952392578,295.4956970214844,123.63069915771484,293.4996032714844,123.50859832763672,291.0338134765625C123.2145004272461,285.093994140625,118.31700134277344,282.7843933105469,116.47329711914062,281.914306640625zM120.62560272216797,175.79910278320312C120.23500061035156,176.93870544433594,120.06210327148438,178.1457977294922,120.1187973022461,179.36749267578125C120.23310089111328,180.9163055419922,120.48989868164062,192.76890563964844,119.67250061035156,194.61160278320312C119.6353988647461,194.69459533691406,116.1061019897461,202.4416961669922,108.45469665527344,202.4416961669922C107.97129821777344,202.4416961669922,107.47129821777344,202.41050720214844,106.95469665527344,202.34500122070312C102.81900024414062,201.835205078125,102.56510162353516,199.42120361328125,102.64810180664062,198.406494140625C102.75450134277344,197.1085968017578,103.93229675292969,195.0460968017578,105.09539794921875,193.739501953125C104.59639739990234,193.89480590820312,104.04850006103516,193.91720581054688,103.47139739990234,193.8000030517578C103.11499786376953,193.7277069091797,102.80729675292969,193.5030975341797,102.62960052490234,193.18479919433594C100.11499786376953,188.68580627441406,104.47920227050781,182.9250030517578,106.1218032836914,180.756103515625C106.306396484375,180.51199340820312,106.4469985961914,180.33030700683594,106.51730346679688,180.2209014892578C106.92160034179688,179.60470581054688,107.3552017211914,179.09300231933594,107.77410125732422,178.5988006591797C108.75749969482422,177.43670654296875,109.60810089111328,176.43280029296875,109.99089813232422,174.33999633789062C110.29750061035156,172.6446990966797,109.69110107421875,152.16619873046875,108.08760070800781,142.5709991455078C106.55729675292969,133.40350341796875,106.53970336914062,119.989501953125,106.53970336914062,119.8552017211914C106.48699951171875,117.58660125732422,108.73889923095703,102.17259979248047,112.9927978515625,101.2136001586914C113.92829895019531,101.0031967163086,115.26429748535156,101.268798828125,116.36190032958984,103.72530364990234C119.95570373535156,111.77069854736328,124.42440032958984,134.2086944580078,125.0542984008789,140.5001983642578C125.73500061035156,147.31419372558594,120.99960327148438,174.7628936767578,120.62560272216797,175.79910278320312zM122.56610107421875,140.74929809570312C121.96549987792969,134.7454071044922,117.51429748535156,112.43340301513672,114.07879638671875,104.74490356445312C113.79070281982422,104.10089874267578,113.56510162353516,103.82009887695312,113.45089721679688,103.70680236816406C111.65889739990234,104.86990356445312,108.95580291748047,116.18579864501953,109.03980255126953,119.82640075683594C109.03980255126953,119.98750305175781,109.05740356445312,133.19410705566406,110.55349731445312,142.15939331054688C112.17169952392578,151.8376007080078,112.8405990600586,172.7082061767578,112.4489974975586,174.79510498046875C111.9469985961914,177.53919982910156,110.743896484375,178.9611053466797,109.681396484375,180.21400451660156C109.293701171875,180.6719970703125,108.92749786376953,181.10459899902344,108.61499786376953,181.5802001953125C108.53199768066406,181.71009826660156,108.35430145263672,181.9492950439453,108.11499786376953,182.2657012939453C106.964599609375,183.7843017578125,103.635498046875,188.17880249023438,104.51930236816406,191.25979614257812C104.93340301513672,190.89649963378906,105.1364974975586,189.90240478515625,105.20089721679688,189.2071075439453C105.19599914550781,188.97569274902344,105.19889831542969,188.74229431152344,105.21160125732422,188.50979614257812C105.23889923095703,187.99319458007812,105.58560180664062,187.50689697265625,106.07779693603516,187.34669494628906C106.57579803466797,187.18649291992188,107.12370300292969,187.35060119628906,107.4468994140625,187.76370239257812C107.69010162353516,188.07229614257812,107.75550079345703,188.66209411621094,107.70469665527344,189.33399963378906C107.72810363769531,189.97760009765625,107.81510162353516,190.63670349121094,107.89900207519531,191.279296875C108.0260009765625,192.24319458007812,108.14510345458984,193.15330505371094,108.03959655761719,193.94140625C107.99960327148438,194.23829650878906,107.8550033569336,194.50680541992188,107.63729858398438,194.70309448242188C106.57379913330078,195.70700073242188,104.84729766845703,197.97850036621094,105.17050170898438,198.9647979736328C105.26409912109375,199.25160217285156,105.66570281982422,199.497802734375,106.28269958496094,199.6719970703125C106.29730224609375,199.67120361328125,106.31009674072266,199.66409301757812,106.32479858398438,199.66409301757812C107.26619720458984,199.2646942138672,110.26329803466797,195.19630432128906,111.56410217285156,193.091796875C111.82479858398438,192.6688995361328,112.37860107421875,192.53810119628906,112.80239868164062,192.79879760742188C113.22530364990234,193.0605010986328,113.35710144042969,193.61419677734375,113.09539794921875,194.03709411621094C112.76589965820312,194.57080078125,110.67639923095703,197.90350341796875,108.71959686279297,199.91900634765625C108.79789733886719,199.91600036621094,108.87239837646484,199.9058074951172,108.94960021972656,199.90069580078125C110.09220123291016,199.43099975585938,113.26010131835938,195.89950561523438,113.74669647216797,194.25880432128906C113.88829803466797,193.783203125,114.38929748535156,193.51370239257812,114.86579895019531,193.65139770507812C115.34239959716797,193.79299926757812,115.61380004882812,194.29400634765625,115.47319793701172,194.77049255371094C115.20459747314453,195.6757049560547,114.28900146484375,197.10569763183594,113.18150329589844,198.43690490722656C115.96900177001953,196.5771026611328,117.3666000366211,193.64349365234375,117.38729858398438,193.59759521484375C117.81109619140625,192.36619567871094,117.82869720458984,182.32119750976562,117.6227035522461,179.51649475097656C117.55039978027344,177.94520568847656,117.76719665527344,176.42669677734375,118.26719665527344,174.9696044921875C118.58070373535156,173.88299560546875,123.18229675292969,146.90750122070312,122.56610107421875,140.74929809570312zM104.15489959716797,56.50709915161133C103.55819702148438,58.67409896850586,102.2437973022461,60.509498596191406,100.63929748535156,61.41680145263672C100.27220153808594,61.62449645996094,99.8988037109375,61.778297424316406,99.52429962158203,61.880699157714844C98.11589813232422,64.9761962890625,96.32510375976562,67.9271011352539,94.14119720458984,70.58039855957031C91.40290069580078,73.90789794921875,88.26190185546875,76.55719757080078,85.01100158691406,78.36920166015625C85.01930236816406,78.3646011352539,85.02770233154297,78.36070251464844,85.03600311279297,78.3561019897461C85.11519622802734,78.71739959716797,85.20760345458984,79.08470153808594,85.31700134277344,79.45249938964844C86.35900115966797,82.96279907226562,88.36489868164062,84.88369750976562,91.27790069580078,85.16100311279297C93.49859619140625,85.4437026977539,94.77010345458984,86.92610168457031,94.63629913330078,89.03359985351562C94.31990051269531,94.00240325927734,86.36380004882812,101.66490173339844,76.44000244140625,101.66490173339844C66.1801986694336,101.66490173339844,58.250099182128906,94.97350311279297,57.506900787353516,90.54720306396484C57.1963996887207,88.69860076904297,58.06159973144531,87.23179626464844,59.821800231933594,86.62339782714844C63.82129669189453,85.46499633789062,65.489501953125,82.5885009765625,66.12969970703125,78.50879669189453C66.12979888916016,78.50890350341797,66.12989807128906,78.50890350341797,66.12999725341797,78.50900268554688C60.1974983215332,75.27839660644531,54.62080001831055,69.28369903564453,51.20589828491211,61.86430358886719C49.25669860839844,61.247100830078125,47.45940017700195,59.262603759765625,46.70610046386719,56.572601318359375C46.105499267578125,54.4276008605957,46.29399871826172,52.180999755859375,47.209999084472656,50.56230163574219C47.41490173339844,50.200199127197266,47.660400390625,49.8942985534668,47.92279815673828,49.6151008605957C47.8380012512207,48.64619827270508,47.77989959716797,47.671199798583984,47.77989959716797,46.684898376464844C47.77989959716797,44.932899475097656,47.98939895629883,33.9452018737793,48.54059982299805,31.500301361083984C51.227699279785156,19.669200897216797,61.00600051879883,12.885000228881836,75.36979675292969,12.885000228881836C89.71649932861328,12.885000228881836,99.49189758300781,19.650100708007812,102.18910217285156,31.445999145507812C102.75450134277344,33.92210006713867,102.97029876708984,44.931400299072266,102.97029876708984,46.68479919433594C102.97029876708984,47.607200622558594,102.9177017211914,48.53390121459961,102.83989715576172,49.461700439453125C103.13710021972656,49.75379943847656,103.41239929199219,50.080501556396484,103.63919830322266,50.473899841308594C104.56210327148438,52.073001861572266,104.75450134277344,54.328399658203125,104.15489959716797,56.50709915161133zM82.73069763183594,79.49410247802734C82.73159790039062,79.49369812011719,82.73249816894531,79.49320220947266,82.7332992553711,79.4928970336914C80.26139831542969,80.55590057373047,77.7656021118164,81.12470245361328,75.36979675292969,81.12470245361328C73.13099670410156,81.12470245361328,70.80329895019531,80.59809875488281,68.49099731445312,79.6426010131836C68.49109649658203,79.6426010131836,68.49109649658203,79.6427001953125,68.49120330810547,79.6427001953125C67.74569702148438,83.44709777832031,65.80110168457031,87.49400329589844,60.57780075073242,89.00559997558594C60.03919982910156,89.193603515625,59.864898681640625,89.49340057373047,59.9723014831543,90.13300323486328C60.492801666259766,93.23410034179688,67.31120300292969,99.16470336914062,76.44010162353516,99.16470336914062C85.13249969482422,99.16470336914062,91.9176025390625,92.39710235595703,92.14129638671875,88.87470245361328C92.18329620361328,88.21060180664062,92.00749969482422,87.77359771728516,91.00170135498047,87.64469909667969C86.12319946289062,87.18109893798828,83.74620056152344,83.36199951171875,82.73069763183594,79.49410247802734zM67.66709899902344,79.2739028930664C67.45610046386719,79.177001953125,67.24530029296875,79.07710266113281,67.03489685058594,78.97309875488281C67.24530029296875,79.07749938964844,67.45610046386719,79.17669677734375,67.66709899902344,79.2739028930664zM101.47429656982422,51.722900390625C101.28679656982422,51.39820098876953,100.95870208740234,50.98360061645508,100.4645004272461,50.85419845581055C100.1676025390625,50.78139877319336,99.84239959716797,50.79800033569336,99.5386962890625,50.909400939941406C98.89219665527344,51.14820098876953,98.17250061035156,50.81269836425781,97.93620300292969,50.16379928588867C97.69889831542969,49.51539993286133,98.03289794921875,48.79759979248047,98.6812973022461,48.56079864501953C99.24220275878906,48.356300354003906,99.83439636230469,48.280799865722656,100.42140197753906,48.327999114990234C100.45079803466797,47.78300094604492,100.47039794921875,47.235801696777344,100.47039794921875,46.684898376464844C100.47039794921875,43.71860122680664,100.18820190429688,33.9119987487793,99.75160217285156,32.003700256347656C98.33270263671875,25.797100067138672,93.27799987792969,15.385000228881836,75.36979675292969,15.385000228881836C57.44110107421875,15.385000228881836,52.3927001953125,25.82740020751953,50.97869873046875,32.051998138427734C50.554901123046875,33.93429946899414,50.279998779296875,43.72050094604492,50.279998779296875,46.68479919433594C50.279998779296875,47.24330139160156,50.30550003051758,47.80929946899414,50.34339904785156,48.37860107421875C50.7318000793457,48.33359909057617,51.12419891357422,48.32460021972656,51.507598876953125,48.39569854736328C52.18629837036133,48.52119827270508,52.6349983215332,49.173500061035156,52.50910186767578,49.85219955444336C52.38359832763672,50.53089904785156,51.72589874267578,50.97570037841797,51.0526008605957,50.85369873046875C50.843101501464844,50.81560134887695,50.6244010925293,50.82389831542969,50.42129898071289,50.88059997558594C49.91400146484375,51.019798278808594,49.577999114990234,51.453800201416016,49.38610076904297,51.793701171875C48.79970169067383,52.82979965209961,48.6952018737793,54.4025993347168,49.11360168457031,55.89820098876953C49.807899475097656,58.37620162963867,51.620399475097656,59.86260223388672,52.77330017089844,59.541297912597656C52.819400787353516,59.5281982421875,52.864200592041016,59.53839874267578,52.910400390625,59.530799865722656L52.7943000793457,58.825401306152344C52.886600494384766,59.05780029296875,52.99340057373047,59.28589630126953,53.090301513671875,59.51709747314453C53.64540100097656,59.5072021484375,54.157901763916016,59.84929656982422,54.313899993896484,60.40809631347656C54.433998107910156,60.83709716796875,54.297401428222656,61.262603759765625,54.01900100708008,61.570396423339844C58.53739929199219,70.87750244140625,66.62930297851562,78.6249008178711,75.37010192871094,78.6249008178711C83.15859985351562,78.6249008178711,92.1281967163086,71.61650085449219,96.9541015625,61.630401611328125C96.59590148925781,61.32389831542969,96.42150115966797,60.831703186035156,96.55660247802734,60.34809875488281C96.74410247802734,59.682098388671875,97.43939971923828,59.29540252685547,98.09760284423828,59.48139953613281C98.5916976928711,59.61810302734375,99.08200073242188,59.425697326660156,99.40910339355469,59.240699768066406C100.43250274658203,58.66210174560547,101.32710266113281,57.360801696777344,101.74500274658203,55.84320068359375C102.16470336914062,54.318599700927734,102.0602035522461,52.7400016784668,101.47429656982422,51.722900390625z"/>
<path id="Shoes" fill="#60BC6D" d="M57.4900016784668,277.6650085449219C56.790000915527344,277.6650085449219,55.650001525878906,279.2149963378906,55,279.614990234375C54.349998474121094,280.0150146484375,48.63999938964844,282.385009765625,45.47999954223633,284.7650146484375C42.31999969482422,287.1449890136719,42.34000015258789,290.0150146484375,42.77000045776367,293.07501220703125C43.20000076293945,296.135009765625,47.18000030517578,298.3349914550781,53.77000045776367,297.6549987792969C60.36000061035156,296.9750061035156,60.849998474121094,293.56500244140625,63.769996643066406,292.2749938964844C66.69000244140625,290.9849853515625,72.05999755859375,289.81500244140625,72,287.5950012207031C71.94000244140625,285.375,71,278.7950134277344,70.4000015258789,277.7850036621094C70.3135986328125,277.5939025878906,70.25309753417969,277.39208984375,70.22000122070312,277.18499755859375C68.76000213623047,277.864990234375,66.83000183105469,278.7250061035156,64.44000244140625,279.7049865722656C60.75,281.2349853515625,58.189998626708984,277.6650085449219,57.4900016784668,277.6650085449219zM122.30000305175781,291.0950012207031C122.05000305175781,286.0150146484375,118.08999633789062,284.0350036621094,115.9800033569336,283.0450134277344C114.26000213623047,282.2349853515625,108.9000015258789,279.8450012207031,107.0999984741211,278.19500732421875C104.6500015258789,277.9750061035156,102.55999755859375,281.2650146484375,98.33000183105469,281.2650146484375C95.9800033569336,281.2650146484375,94.63999938964844,279.375,93.58999633789062,279.18499755859375C93.10289764404297,282.01629638671875,92.84539794921875,284.8822937011719,92.81999969482422,287.7550048828125C93,291.0849914550781,98.1500015258789,291.625,100.62999725341797,291.9549865722656C103.11000061035156,292.2850036621094,106.62999725341797,298.5150146484375,112.88999938964844,298.5150146484375S122.54000091552734,296.1650085449219,122.30000305175781,291.0950012207031z"/>
<path id="Shoes2" fill="#FFFFFF" d="M64.11000061035156,289.0050048828125C60.220001220703125,289.7149963378906,58.189998626708984,294.864990234375,51.849998474121094,294.864990234375C46.65999984741211,294.864990234375,45.2400016784668,293.864990234375,42.58000183105469,291.19500732421875C42.58000183105469,291.80499267578125,42.68000030517578,292.43499755859375,42.77000045776367,293.07501220703125C43.20000076293945,296.135009765625,47.18000030517578,298.3349914550781,53.77000045776367,297.6549987792969C60.36000061035156,296.9750061035156,60.849998474121094,293.56500244140625,63.769996643066406,292.2749938964844C66.69000244140625,290.9849853515625,72.05999755859375,289.81500244140625,72,287.5950012207031C72,287.1449890136719,71.93000030517578,286.4949951171875,71.8499984741211,285.7550048828125C69.33999633789062,287.05499267578125,66.54000091552734,288.56500244140625,64.11000061035156,289.0050048828125zM111.72000122070312,295.31500244140625C106.22000122070312,294.56500244140625,104.97000122070312,290.06500244140625,102.58999633789062,289.06500244140625C100.58999633789062,288.2149963378906,96.70999908447266,289.06500244140625,92.8499984741211,285.875C92.8499984741211,286.56500244140625,92.8499984741211,287.2049865722656,92.8499984741211,287.7550048828125C93.02999877929688,291.0849914550781,98.18000030517578,291.625,100.66000366210938,291.9549865722656C103.13999938964844,292.2850036621094,106.66000366210938,298.5150146484375,112.91999816894531,298.5150146484375C118.83000183105469,298.5150146484375,122.13999938964844,296.4549865722656,122.33000183105469,292.0249938964844C120.02999877929688,295.125,116.20999908447266,295.92498779296875,111.72000122070312,295.31500244140625z"/>
<path id="ShoesBorder" d="M71.5250015258789,277.2384948730469C71.4927978515625,277.160400390625,71.46839904785156,277.0754089355469,71.45469665527344,276.98651123046875C71.39219665527344,276.59979248046875,71.15290069580078,276.2648010253906,70.8062973022461,276.0802917480469C70.46160125732422,275.897705078125,70.04949951171875,275.885986328125,69.69300079345703,276.052001953125C67.91419982910156,276.87908935546875,65.98739624023438,277.7200012207031,63.96160125732422,278.5509948730469C62.063201904296875,279.33319091796875,60.614898681640625,278.385009765625,59.17499923706055,277.256103515625C58.55339813232422,276.7677917480469,58.10419845581055,276.4153137207031,57.489898681640625,276.4153137207031C56.535301208496094,276.4153137207031,55.756500244140625,277.1907043457031,55.00310134887695,277.9407043457031C54.78969955444336,278.152587890625,54.46699905395508,278.4739074707031,54.3473014831543,278.548095703125C54.22570037841797,278.6203918457031,53.69449996948242,278.868408203125,53.18130111694336,279.1076965332031C51.095401763916016,280.0823059082031,47.2130012512207,281.8948059082031,44.72819900512695,283.76690673828125C40.94940185546875,286.61260986328125,41.0973014831543,290.1535949707031,41.53239822387695,293.2492980957031C41.95669937133789,296.27178955078125,45.17499923706055,299.0304870605469,51.427398681640625,299.0304870605469C52.203800201416016,299.0304870605469,53.02799987792969,298.98748779296875,53.89860153198242,298.897705078125C58.667198181152344,298.406494140625,60.60219955444336,296.5422058105469,62.15739822387695,295.044189453125C62.867401123046875,294.3595886230469,63.481101989746094,293.768798828125,64.27559661865234,293.418212890625C64.96260070800781,293.114501953125,65.81320190429688,292.810791015625,66.7136001586914,292.489501953125C69.96119689941406,291.331298828125,73.31909942626953,290.1330871582031,73.24970245361328,287.5617980957031C73.20079803466797,285.7492980957031,72.35320281982422,278.8489074707031,71.5250015258789,277.2384948730469zM70.74960327148438,287.62921142578125C70.77110290527344,288.38800048828125,67.2125015258789,289.6575012207031,65.87310028076172,290.1351013183594C64.92829895019531,290.47198486328125,64.03620147705078,290.7904052734375,63.26470184326172,291.1311950683594C62.06549835205078,291.6614990234375,61.230499267578125,292.4661865234375,60.422401428222656,293.2434997558594C59.01219940185547,294.6029052734375,57.55329895019531,296.0080871582031,53.6416015625,296.4114990234375C48.26210021972656,296.9681091308594,45.187198638916016,295.5209045410156,44.27579879760742,293.7297058105469C46.075199127197266,295.06939697265625,47.983299255371094,295.6145935058594,51.850101470947266,295.6145935058594C55.86869812011719,295.6145935058594,58.238800048828125,293.7063903808594,60.330101013183594,292.0227966308594C61.67919921875,290.9368896484375,62.84469985961914,289.9984130859375,64.24369812011719,289.7434997558594C66.30799865722656,289.36871337890625,68.60479736328125,288.2698974609375,70.72949981689453,287.1791076660156C70.73899841308594,287.3399963378906,70.74600219726562,287.4917907714844,70.74960327148438,287.62921142578125zM46.23210144042969,285.7629089355469C46.8843994140625,285.2716979980469,47.66059875488281,284.7804870605469,48.47669982910156,284.3045959472656C50.586299896240234,285.6073913574219,52.50849914550781,287.0159912109375,52.52899932861328,287.031494140625C52.75210189819336,287.1955871582031,53.01190185546875,287.2746887207031,53.26919937133789,287.2746887207031C53.65299987792969,287.2746887207031,54.031898498535156,287.0989074707031,54.277000427246094,286.7658996582031C54.68619918823242,286.210205078125,54.56700134277344,285.427001953125,54.01139831542969,285.0179138183594C53.940799713134766,284.9661865234375,52.6510009765625,284.0191955566406,50.99610137939453,282.94049072265625C51.57310104370117,282.6477966308594,52.13079833984375,282.372802734375,52.6526985168457,282.12249755859375C53.976898193359375,282.7139892578125,55.19559860229492,283.5035095214844,56.27360153198242,284.4739074707031C56.512901306152344,284.689697265625,56.81169891357422,284.7951965332031,57.109500885009766,284.7951965332031C57.45180130004883,284.7951965332031,57.79209899902344,284.6556091308594,58.03919982910156,284.381103515625C58.5010986328125,283.868408203125,58.459598541259766,283.0783996582031,57.9463996887207,282.6164855957031C57.178001403808594,281.9244079589844,56.343101501464844,281.3197937011719,55.46289825439453,280.78741455078125C55.53950119018555,280.7471008300781,55.60219955444336,280.7120056152344,55.65439987182617,280.67999267578125C56.02159881591797,280.45440673828125,56.383399963378906,280.0940856933594,56.766700744628906,279.7121887207031C56.94200134277344,279.53741455078125,57.21879959106445,279.2619934082031,57.44049835205078,279.073486328125C57.50590133666992,279.123291015625,57.571800231933594,279.1759948730469,57.63140106201172,279.2218933105469C58.8921012878418,280.2112121582031,61.51470184326172,282.2716979980469,64.91459655761719,280.86151123046875C66.50299835205078,280.2101135253906,68.03469848632812,279.5519104003906,69.48539733886719,278.8966979980469C69.83409881591797,280.16241455078125,70.33200073242188,283.22479248046875,70.5875015258789,285.5649108886719C68.40910339355469,286.6929931640625,66.00530242919922,287.89959716796875,63.9761962890625,288.2668151855469C63.97570037841797,288.2668151855469,63.97570037841797,288.2668151855469,63.975196838378906,288.2668151855469C62.20130157470703,288.59100341796875,60.835601806640625,289.69061279296875,59.38930130004883,290.8547058105469C57.39860153198242,292.45721435546875,55.34000015258789,294.114501953125,51.85020065307617,294.114501953125C47.44990158081055,294.114501953125,45.99359893798828,293.4278869628906,43.8557014465332,291.39349365234375C43.704200744628906,289.01611328125,44.189300537109375,287.301513671875,46.23210144042969,285.7629089355469zM123.54949951171875,291.0364074707031C123.54949951171875,291.035400390625,123.54850006103516,291.0343933105469,123.54850006103516,291.03350830078125C123.25550079345703,285.0783996582031,118.52899932861328,282.860595703125,116.51329803466797,281.9143981933594L115.82679748535156,281.5950927734375C113.90589904785156,280.7025146484375,109.40689849853516,278.61370849609375,107.94499969482422,277.2738037109375C107.7428970336914,277.0882873535156,107.48500061035156,276.9739990234375,107.21160125732422,276.9495849609375C105.72039794921875,276.8186950683594,104.46649932861328,277.5531005859375,103.14910125732422,278.3334045410156C101.75650024414062,279.1604919433594,100.31610107421875,280.0150146484375,98.32980346679688,280.0150146484375C97.23310089111328,280.0150146484375,96.40789794921875,279.4359130859375,95.61009979248047,278.8763122558594C95.02220153808594,278.46319580078125,94.46749877929688,278.0736083984375,93.81320190429688,277.9554138183594C93.48999786376953,277.89581298828125,93.14720153808594,277.9700012207031,92.87370300292969,278.1604919433594C92.60030364990234,278.3518981933594,92.41470336914062,278.6438903808594,92.35910034179688,278.9729919433594C91.86109924316406,281.86260986328125,91.59639739990234,284.8138122558594,91.5719985961914,287.8226013183594C91.80049896240234,292.0599060058594,97.44989776611328,292.7991943359375,100.16580200195312,293.15460205078125L100.464599609375,293.1946105957031C101.00170135498047,293.2658996582031,102.08570098876953,294.210205078125,103.04170227050781,295.044189453125C105.32779693603516,297.0364074707031,108.45770263671875,299.764892578125,112.89029693603516,299.764892578125C116.90589904785156,299.764892578125,119.84049987792969,298.823486328125,121.61100006103516,296.9660949707031C123.01329803466797,295.4963073730469,123.66570281982422,293.5011901855469,123.54949951171875,291.0364074707031zM94.07589721679688,287.6191101074219C96.28140258789062,288.8741149902344,98.40879821777344,289.1351013183594,100.05229949951172,289.3263854980469C100.96440124511719,289.431884765625,101.75250244140625,289.5237121582031,102.29940032958984,289.756103515625C102.9917984008789,290.0470886230469,103.64119720458984,290.78729248046875,104.39320373535156,291.6448059082031C105.91570281982422,293.37921142578125,107.80919647216797,295.53839111328125,111.6187973022461,296.0578918457031C111.6187973022461,296.0578918457031,111.6187973022461,296.0578918457031,111.61979675292969,296.0578918457031C115.01190185546875,296.5198059082031,117.80329895019531,296.1617126464844,119.97460174560547,295.01080322265625C119.91329956054688,295.0845031738281,119.86910247802734,295.1706848144531,119.80239868164062,295.2405090332031C118.52120208740234,296.58428955078125,116.19599914550781,297.264892578125,112.89029693603516,297.264892578125C109.39420318603516,297.264892578125,106.78289794921875,294.9884948730469,104.68419647216797,293.1593933105469C103.22810363769531,291.889892578125,102.07679748535156,290.88690185546875,100.79460144042969,290.71600341796875L100.48989868164062,290.6759948730469C98.44300079345703,290.40838623046875,94.1852035522461,289.8507995605469,94.06999969482422,287.76580810546875C94.07039642333984,287.7170104980469,94.07540130615234,287.6679992675781,94.07589721679688,287.6191101074219zM98.32969665527344,282.514892578125C101.00160217285156,282.514892578125,102.9000015258789,281.3879089355469,104.42539978027344,280.4826965332031C105.27010345458984,279.981689453125,106.01719665527344,279.53839111328125,106.6500015258789,279.45050048828125C107.28959655761719,279.9577941894531,108.15750122070312,280.4971008300781,109.10089874267578,281.02978515625C107.72679901123047,281.9325866699219,106.81790161132812,282.6247863769531,106.76920318603516,282.66241455078125C106.22129821777344,283.0823059082031,106.1177978515625,283.8664855957031,106.53780364990234,284.4143981933594C106.78389739990234,284.7356872558594,107.15499877929688,284.90460205078125,107.53099822998047,284.90460205078125C107.79560089111328,284.90460205078125,108.06320190429688,284.8205871582031,108.28980255126953,284.64678955078125C108.3041000366211,284.6361999511719,109.7145004272461,283.56170654296875,111.64730072021484,282.3724060058594C112.0615005493164,282.5777893066406,112.46990203857422,282.7768859863281,112.86260223388672,282.9646911621094C112.20030212402344,283.57989501953125,111.56189727783203,284.22088623046875,110.9822006225586,284.9114990234375C110.53880310058594,285.4407958984375,110.60820007324219,286.2289123535156,111.1364974975586,286.6731872558594C111.37090301513672,286.8695068359375,111.65599822998047,286.9652099609375,111.93920135498047,286.9652099609375C112.29660034179688,286.9652099609375,112.6511001586914,286.8128967285156,112.89820098876953,286.5188903808594C113.62850189208984,285.647705078125,114.4480972290039,284.84698486328125,115.32119750976562,284.11749267578125L115.4489974975586,284.1770935058594C118.24490356445312,285.48858642578125,120.85919952392578,287.24249267578125,121.05249786376953,291.1556091308594C121.07279968261719,291.5910949707031,121.06179809570312,291.9984130859375,121.02300262451172,292.38189697265625C119.02310180664062,294.38970947265625,115.93440246582031,295.1307067871094,111.82209777832031,294.5716857910156C108.56719970703125,294.1282958984375,106.9490966796875,292.2835998535156,105.52130126953125,290.65570068359375C104.68340301513672,289.7005920410156,103.89240264892578,288.7983093261719,102.88359832763672,288.37451171875C102.1404037475586,288.0591125488281,101.25270080566406,287.9555969238281,100.22540283203125,287.8363952636719C98.46309661865234,287.631591796875,96.31829833984375,287.3749084472656,94.14610290527344,285.90380859375C94.21700286865234,284.3254089355469,94.33399963378906,282.7467956542969,94.54769897460938,281.18109130859375C95.43910217285156,281.78741455078125,96.68710327148438,282.514892578125,98.32969665527344,282.514892578125z"/>
<path id="Pants" fill="#295484" d="M111.94259643554688,201.84930419921875C110.88999938964844,202.2111053466797,109.73529815673828,202.4416046142578,108.45469665527344,202.4416046142578C107.97129821777344,202.4416046142578,107.47129821777344,202.410400390625,106.95469665527344,202.3448944091797C102.81900024414062,201.83509826660156,102.56510162353516,199.4210968017578,102.64810180664062,198.40640258789062C102.75450134277344,197.10850524902344,103.93229675292969,195.04600524902344,105.09539794921875,193.73939514160156C104.59639739990234,193.8946990966797,104.04850006103516,193.91709899902344,103.47139739990234,193.79989624023438C103.11499786376953,193.72760009765625,102.80729675292969,193.5030059814453,102.62960052490234,193.1846923828125C100.11499786376953,188.68569946289062,104.47920227050781,182.92489624023438,106.1218032836914,180.75599670410156C106.306396484375,180.51190185546875,106.4469985961914,180.3302001953125,106.51730346679688,180.22079467773438C106.92160034179688,179.60459899902344,107.3552017211914,179.0928955078125,107.77410125732422,178.59869384765625C108.33920288085938,177.93089294433594,108.85679626464844,177.30909729003906,109.27059936523438,176.5092010498047C109.1365966796875,175.82569885253906,109.05000305175781,175.39480590820312,109.05000305175781,175.39480590820312L51.720001220703125,173.10479736328125C51.54999923706055,176.10479736328125,48.720001220703125,199.35479736328125,48.04999923706055,205.93479919433594C47.380001068115234,212.51480102539062,46.36000061035156,228.2147979736328,47.220001220703125,229.43479919433594C48.08000183105469,230.65480041503906,64.22000122070312,231.93479919433594,64.22000122070312,231.93479919433594L79.55000305175781,233.60479736328125L80.88999938964844,209.10479736328125L84.55000305175781,233.23480224609375C84.55000305175781,233.23480224609375,95.72000122070312,231.56480407714844,99.88999938964844,231.23480224609375C104.05999755859375,230.90480041503906,113.55000305175781,230.89480590820312,113.55000305175781,230.89480590820312C113.55000305175781,230.89480590820312,113.31999969482422,212.9647979736328,112.55000305175781,207.89480590820312C112.3302993774414,206.44830322265625,112.12770080566406,204.2790985107422,111.94259643554688,201.84930419921875z"/>
<path id="PantsBorder" d="M113.15969848632812,201.35159301757812C112.41280364990234,201.7135009765625,111.59700012207031,201.99920654296875,110.714599609375,202.18809509277344C110.89689636230469,204.54859924316406,111.09609985351562,206.6468048095703,111.31400299072266,208.08230590820312C111.94490051269531,212.2375946044922,112.21150207519531,225.48849487304688,112.28079986572266,229.6497039794922C109.54060363769531,229.664306640625,103.09230041503906,229.726806640625,99.79149627685547,229.9886016845703C96.40579986572266,230.25619506835938,88.63619995117188,231.37139892578125,85.5990982055664,231.81570434570312L82.12640380859375,208.91729736328125C82.02970123291016,208.2834930419922,81.4281997680664,207.8166961669922,80.83049774169922,207.85580444335938C80.18990325927734,207.88699340820312,79.67720031738281,208.3968048095703,79.64199829101562,209.0364990234375L78.37439727783203,232.21910095214844L64.31819915771484,230.6887969970703C57.694698333740234,230.1634063720703,49.96910095214844,229.2454071044922,48.26250076293945,228.6116943359375C47.82889938354492,226.16050720214844,48.56520080566406,213.2133026123047,49.29330062866211,206.06190490722656C49.574100494384766,203.3011932373047,50.23080062866211,197.64779663085938,50.92610168457031,191.6634979248047C51.737098693847656,184.6772003173828,52.57210159301758,177.4886932373047,52.86600112915039,174.40179443359375L83.47000122070312,175.62440490722656L83.47000122070312,191.8314971923828L80.564697265625,192.19479370117188C79.88009643554688,192.28070068359375,79.393798828125,192.90480041503906,79.47969818115234,193.59030151367188C79.55879974365234,194.22210693359375,80.0969009399414,194.68499755859375,80.71800231933594,194.68499755859375C80.7697982788086,194.68499755859375,80.82250213623047,194.68209838867188,80.87519836425781,194.67520141601562L84.87519836425781,194.17520141601562C85.50019836425781,194.09710693359375,85.96990203857422,193.5657958984375,85.96990203857422,192.93499755859375L85.96990203857422,175.7239990234375L108.01580047607422,176.60470581054688C108.089599609375,176.98129272460938,108.181396484375,177.45379638671875,108.283203125,177.98399353027344C109.0114974975586,177.0825958251953,109.61840057373047,176.13250732421875,109.94490051269531,174.54330444335938C109.72650146484375,174.31410217285156,109.43379974365234,174.1593017578125,109.09980010986328,174.1457061767578L51.76919937133789,171.85569763183594C51.095401763916016,171.81759643554688,50.5098991394043,172.35279846191406,50.47129821777344,173.03439331054688C50.375099182128906,174.73460388183594,49.34830093383789,183.57440185546875,48.442501068115234,191.3751983642578C47.74620056152344,197.36839294433594,47.0885009765625,203.0294952392578,46.80580139160156,205.80780029296875C46.78329849243164,206.02850341796875,44.68519973754883,228.00900268554688,46.197898864746094,230.15550231933594C46.55630111694336,230.66329956054688,47.39609909057617,231.85470581054688,64.08409881591797,233.177001953125L79.41419982910156,234.84689331054688C79.46009826660156,234.85279846191406,79.50499725341797,234.85470581054688,79.54989624023438,234.85470581054688C79.84480285644531,234.85470581054688,80.13189697265625,234.7501983642578,80.3584976196289,234.55780029296875C80.62020111083984,234.33509826660156,80.77940368652344,234.0157928466797,80.7979965209961,233.67300415039062L81.47480010986328,221.2969970703125L83.3136978149414,233.4219970703125C83.41819763183594,234.10360717773438,84.05690002441406,234.57919311523438,84.7345962524414,234.47079467773438C84.84590148925781,234.45419311523438,95.9094009399414,232.80380249023438,99.9885025024414,232.48060607910156C104.06169891357422,232.15829467773438,113.4572982788086,232.1446990966797,113.5510025024414,232.1446990966797C113.88500213623047,232.1446990966797,114.2052993774414,232.00990295410156,114.439697265625,231.77259826660156C114.67510223388672,231.5343017578125,114.80400085449219,231.21299743652344,114.80010223388672,230.87899780273438C114.79029846191406,230.1427001953125,114.55989837646484,212.80380249023438,113.7854995727539,207.7071075439453C113.56069946289062,206.2259063720703,113.35070037841797,203.91250610351562,113.15969848632812,201.35159301757812z"/>
<path id="Shirt" fill="#EE3927" d="M104.84459686279297,123.49020385742188L106.31009674072266,128.5850067138672L125.64009857177734,127.58500671386719C125.64009857177734,127.58500671386719,121.25980377197266,106.81060028076172,113.72589874267578,96.05130004882812C113.51370239257812,95.74410247802734,113.2959976196289,95.45110321044922,113.07720184326172,95.160400390625C113.02660369873047,95.09369659423828,112.97730255126953,95.02279663085938,112.92639923095703,94.95700073242188C112.3373031616211,94.1906967163086,111.72480010986328,93.48860168457031,111.0886001586914,92.86299896240234C111.07019805908203,92.84480285644531,111.05229949951172,92.82450103759766,111.03389739990234,92.806396484375C110.81050109863281,92.58879852294922,110.58190155029297,92.38980102539062,110.35269927978516,92.19200134277344C110.231201171875,92.08619689941406,110.11139678955078,91.9728012084961,109.98870086669922,91.87300109863281C109.89969635009766,91.80149841308594,109.80789947509766,91.74089813232422,109.71810150146484,91.67250061035156C108.80750274658203,90.97109985351562,107.86630249023438,90.42559814453125,106.89009857177734,90.10489654541016L106.88690185546875,90.11799621582031C106.8676986694336,90.11150360107422,106.84929656982422,90.1011962890625,106.83000183105469,90.09490203857422C102.16000366210938,88.59490203857422,90.48999786376953,84.59490203857422,90.33000183105469,85.09490203857422C90.16999816894531,85.59490203857422,87.22000122070312,93.23490142822266,77.05000305175781,93.23490142822266C71.12409973144531,93.26229858398438,65.6449966430664,90.08869934082031,62.720001220703125,84.93489837646484C58.54999923706055,86.10489654541016,48.38999938964844,89.10489654541016,44.720001220703125,92.10489654541016C41.579898834228516,94.67179870605469,32.31060028076172,100.99189758300781,29.102800369262695,104.86250305175781C25.954500198364258,107.65850067138672,23.51059913635254,110.13330078125,23.17009925842285,111.36489868164062C22.800100326538086,112.68489837646484,39.3400993347168,126.88490295410156,39.3400993347168,126.88490295410156L49.750701904296875,119.97059631347656C49.96179962158203,123.62869262695312,51.27399826049805,145.6217041015625,52.6713981628418,152.08059692382812C52.7400016784668,152.22129821777344,52.79669952392578,152.37359619140625,52.83330154418945,152.54649353027344C52.85169982910156,152.63490295410156,52.85060119628906,152.7252960205078,52.84989929199219,152.81539916992188C52.91659927368164,153.05690002441406,52.9833984375,153.27389526367188,53.050201416015625,153.43479919433594C53.13090133666992,153.62930297851562,53.18149948120117,153.8376007080078,53.251399993896484,154.03729248046875C53.25270080566406,154.03860473632812,53.25339889526367,154.0402069091797,53.25469970703125,154.04159545898438C53.74980163574219,154.5854949951172,55.66189956665039,155.34579467773438,56.58039855957031,155.71099853515625C57.072601318359375,155.9062957763672,57.47829818725586,156.07139587402344,57.709800720214844,156.1865997314453C57.81480026245117,156.2393035888672,57.99449920654297,156.31649780273438,58.22200012207031,156.41409301757812C60.37289810180664,157.345703125,62.520301818847656,158.3780059814453,63.08039855957031,159.84669494628906C63.285003662109375,160.38380432128906,63.268898010253906,160.93460083007812,63.03450012207031,161.4405059814453C62.467098236083984,162.66409301757812,61.468101501464844,163.06260681152344,60.382598876953125,163.08009338378906L62.28049850463867,164.21189880371094C63.83709716796875,165.17579650878906,64.03389739990234,166.46580505371094,63.704803466796875,167.35450744628906C63.39330291748047,168.19630432128906,62.60369873046875,168.80369567871094,61.6150016784668,169.04690551757812C61.56959915161133,169.3155059814453,61.475399017333984,169.57420349121094,61.332298278808594,169.81350708007812C61.00809860229492,170.3583984375,60.15650177001953,171.24319458007812,58.1057014465332,170.99609375C58.032501220703125,170.98829650878906,57.95970153808594,170.9727020263672,57.88890075683594,170.95120239257812C57.109100341796875,170.71580505371094,56.33570098876953,170.4571075439453,55.56959915161133,170.1739044189453C55.58330154418945,170.66119384765625,55.464599609375,171.14169311523438,55.20439910888672,171.59579467773438C54.90700149536133,172.11529541015625,54.40019989013672,172.4591064453125,53.777198791503906,172.56260681152344C53.64099884033203,172.58599853515625,53.499900817871094,172.5968017578125,53.35530090332031,172.5968017578125C52.59880065917969,172.5968017578125,51.73789978027344,172.30230712890625,50.90719985961914,171.8950958251953C50.001399993896484,175.43930053710938,49.31909942626953,179.102294921875,49.890201568603516,179.764892578125C50.890201568603516,180.92489624023438,70.1001968383789,181.36489868164062,80.50019836425781,181.36489868164062C87.84760284423828,181.36489868164062,100.36730194091797,181.02450561523438,106.67269897460938,180.0072021484375C107.03240203857422,179.48939514160156,107.40750122070312,179.0312957763672,107.77420043945312,178.5988006591797C108.47219848632812,177.7740020751953,109.09950256347656,177.0216064453125,109.54389953613281,175.91029357910156C108.63980102539062,173.05450439453125,107.73650360107422,168.62840270996094,107.11009979248047,162.78500366210938C106.49700164794922,157.0659942626953,105.40560150146484,135.22549438476562,104.84459686279297,123.49020385742188z"/>
<path id="ShirtBorder" d="M80.49960327148438,180.114501953125C92.37580108642578,180.114501953125,103.5593032836914,179.43539428710938,107.82340240478516,178.54010009765625C107.80670166015625,178.55979919433594,107.79080200195312,178.57899475097656,107.77400207519531,178.59890747070312C107.3551025390625,179.09300231933594,106.92150115966797,179.60479736328125,106.51719665527344,180.2209930419922C106.4468994140625,180.3303985595703,106.3062973022461,180.51199340820312,106.12169647216797,180.75619506835938C105.98320007324219,180.93910217285156,105.82039642333984,181.15589904785156,105.64900207519531,181.38690185546875C98.44760131835938,182.4615020751953,86.60489654541016,182.61459350585938,80.49960327148438,182.61459350585938C71.5386962890625,182.61459350585938,50.525001525878906,182.41639709472656,48.94300079345703,180.58140563964844C47.91130065917969,179.3842010498047,48.75630187988281,175.06430053710938,49.77920150756836,171.2696075439453C50.500301361083984,171.71200561523438,51.29949951171875,172.12319946289062,52.07350158691406,172.36770629882812C51.38309860229492,175.106201171875,50.85100173950195,177.7989959716797,50.91910171508789,178.8686065673828C53.66130065917969,179.60769653320312,68.28140258789062,180.114501953125,80.49960327148438,180.114501953125zM63.455596923828125,167.81210327148438L74.17060089111328,173.67210388183594C74.3228988647461,173.756103515625,74.48699951171875,173.79510498046875,74.64910125732422,173.79510498046875C75.00260162353516,173.79510498046875,75.34539794921875,173.60760498046875,75.5270004272461,173.27459716796875C75.7926025390625,172.7902069091797,75.61489868164062,172.18280029296875,75.12950134277344,171.91819763183594L63.606597900390625,165.6157989501953C63.896697998046875,166.2362060546875,63.88860321044922,166.85800170898438,63.70469665527344,167.35470581054688C63.643898010253906,167.51910400390625,63.55079650878906,167.66650390625,63.455596923828125,167.81210327148438zM126.86389923095703,127.327392578125C126.63990020751953,126.2655029296875,122.52439880371094,107.10790252685547,115.24510192871094,96.11589813232422C115.0916976928711,95.88020324707031,114.93309783935547,95.6552963256836,114.7760009765625,95.4271011352539C114.68240356445312,95.29290008544922,114.59089660644531,95.15370178222656,114.49629974365234,95.02230072021484C113.38500213623047,93.46240234375,112.18329620361328,92.10710144042969,110.89240264892578,91.03450012207031C110.76629638671875,90.92849731445312,110.64199829101562,90.81539916992188,110.5145034790039,90.71540069580078C110.43460083007812,90.65339660644531,110.35199737548828,90.60079956054688,110.27130126953125,90.54109954833984C109.31069946289062,89.82080078125,108.31520080566406,89.25779724121094,107.27989959716797,88.9177017211914C107.26260375976562,88.91200256347656,107.24530029296875,88.91649627685547,107.22799682617188,88.9115982055664C107.22239685058594,88.90979766845703,107.21710205078125,88.90679931640625,107.21160125732422,88.90499877929688C106.21839904785156,88.58570098876953,104.90689849853516,88.15299987792969,103.45570373535156,87.67449951171875C90.72720336914062,83.47480010986328,90.48989868164062,83.5978012084961,89.78679656982422,83.95570373535156C89.4937973022461,84.1051025390625,89.2437973022461,84.39910125732422,89.14029693603516,84.71160125732422C89.11589813232422,84.7844009399414,86.62079620361328,91.98500061035156,77.04460144042969,91.98500061035156C71.60710144042969,92.0103988647461,66.50599670410156,89.07240295410156,63.806800842285156,84.31749725341797C63.78790283203125,84.2842025756836,63.757896423339844,84.26210021972656,63.73650360107422,84.2311019897461C63.70140075683594,84.1803970336914,63.66429901123047,84.13580322265625,63.622596740722656,84.09130096435547C63.558502197265625,84.02279663085938,63.489501953125,83.96499633789062,63.413002014160156,83.91329956054688C63.36479949951172,83.88059997558594,63.31939697265625,83.8488998413086,63.26719665527344,83.82319641113281C63.18049621582031,83.78060150146484,63.089599609375,83.75469970703125,62.994998931884766,83.73310089111328C62.942100524902344,83.72090148925781,62.8931999206543,83.70220184326172,62.838600158691406,83.6969985961914C62.68830108642578,83.68250274658203,62.534698486328125,83.68900299072266,62.38199996948242,83.73100280761719C55.85710144042969,85.56159973144531,47.359100341796875,88.33260345458984,43.92890167236328,91.13680267333984C43.06460189819336,91.84329986572266,41.702301025390625,92.85749816894531,40.12419891357422,94.03230285644531C34.788700103759766,98.00499725341797,30.371700286865234,101.39350128173828,28.201200485229492,103.99340057373047C24.559099197387695,107.22899627685547,22.359399795532227,109.60590362548828,21.96649932861328,111.02749633789062C21.733600616455078,111.85859680175781,21.381500244140625,113.1144027709961,38.52560043334961,127.83320617675781C38.75849914550781,128.0334014892578,39.048500061035156,128.13499450683594,39.3400993347168,128.13499450683594C39.580299377441406,128.13499450683594,39.82109832763672,128.06619262695312,40.03150177001953,127.92649841308594L48.62990188598633,122.21589660644531C49.021400451660156,128.72039794921875,50.03160095214844,144.1060028076172,51.20050048828125,150.9886932373047C52.048500061035156,151.25619506835938,52.65129852294922,151.68580627441406,52.83330154418945,152.54660034179688C52.85820007324219,152.66619873046875,52.86600112915039,152.78829956054688,52.85580062866211,152.910400390625C52.82059860229492,153.326904296875,52.9656982421875,153.739501953125,53.25469970703125,154.0417022705078C53.511199951171875,154.32350158691406,54.14860153198242,154.66270446777344,54.83060073852539,154.97560119628906C54.66640090942383,154.27960205078125,54.470699310302734,153.59730529785156,54.20439910888672,152.95579528808594C53.08620071411133,150.26100158691406,51.730899810791016,132.60690307617188,51.039100646972656,120.61579895019531L54.65169906616211,118.21649932861328C55.226898193359375,117.83419799804688,55.38359832763672,117.05829620361328,55.001800537109375,116.48359680175781C54.619998931884766,115.90740203857422,53.84260177612305,115.75170135498047,53.26890182495117,116.13349914550781L39.437801361083984,125.31950378417969C32.750301361083984,119.55000305175781,25.76099967956543,113.12809753417969,24.51689910888672,111.36389923095703C26.110200881958008,108.4126968383789,38.55649948120117,98.58219909667969,42.760101318359375,95.26229858398438C43.94810104370117,94.32379913330078,44.90800094604492,93.56549835205078,45.51110076904297,93.07240295410156C47.860599517822266,91.152099609375,53.82630157470703,88.7699966430664,62.33729934692383,86.34420013427734L62.272499084472656,86.5824966430664C65.53820037841797,91.50900268554688,71.10690307617188,94.4646987915039,77.05059814453125,94.48500061035156C86.24009704589844,94.48500061035156,89.98030090332031,88.74130249023438,91.11409759521484,86.4259033203125C93.25370025634766,86.94100189208984,99.25279998779297,88.91999816894531,102.67269897460938,90.04850006103516C104.13069915771484,90.52950286865234,105.4490966796875,90.96399688720703,106.44029998779297,91.28240203857422C106.49130249023438,91.29920196533203,106.54190063476562,91.32510375976562,106.59290313720703,91.34310150146484L106.59590148925781,91.33070373535156C115.11489868164062,94.277099609375,121.81410217285156,116.4072036743164,124.10240173339844,126.41319274902344L107.23719787597656,127.28529357910156L102.79190063476562,111.8292007446289C102.60050201416016,111.16510009765625,101.90029907226562,110.78230285644531,101.24500274658203,110.97370147705078C100.58190155029297,111.16459655761719,100.1980972290039,111.85700225830078,100.3895034790039,112.52059936523438L103.60189819335938,123.68989562988281C104.16490173339844,135.4748992919922,105.24849700927734,157.14280700683594,105.86699676513672,162.91799926757812C106.52040100097656,169.01499938964844,107.5614013671875,174.2279052734375,108.7313003540039,177.3957977294922C109.28820037841797,176.6096954345703,109.7406997680664,175.7086944580078,109.99109649658203,174.33990478515625C110.0261001586914,174.14669799804688,110.04850006103516,173.6990966796875,110.05960083007812,173.06179809570312C109.43589782714844,170.4803009033203,108.82150268554688,167.0216064453125,108.35340118408203,162.65240478515625C107.84519958496094,157.91439819335938,106.9968032836914,141.8278045654297,106.40509796142578,129.83200073242188L125.70500183105469,128.83360290527344C126.07019805908203,128.81460571289062,126.40809631347656,128.6367950439453,126.63179779052734,128.34730529785156C126.8541030883789,128.05780029296875,126.93910217285156,127.685302734375,126.86389923095703,127.327392578125zM72.28579711914062,159.78640747070312L62.869300842285156,159.4488067626953C62.94839859008789,159.5791015625,63.02770233154297,159.7093048095703,63.0802001953125,159.8470001220703C63.28479766845703,160.38409423828125,63.268699645996094,160.93490600585938,63.0343017578125,161.4407958984375C63.031898498535156,161.4459991455078,63.028900146484375,161.4499053955078,63.026397705078125,161.45509338378906L72.2135009765625,161.78460693359375C72.2261962890625,161.7855987548828,72.23789978027344,161.7855987548828,72.25060272216797,161.7855987548828C72.78579711914062,161.7855987548828,73.2301025390625,161.3607940673828,73.24859619140625,160.8217010498047C73.26920318603516,160.26980590820312,72.8375015258789,159.80589294433594,72.28579711914062,159.78640747070312z"/>
<path id="MouthNose" d="M76.35320281982422,69.59989929199219C73.9478988647461,69.59989929199219,70.88249969482422,69.13600158691406,68.38639831542969,67.24250030517578C68.05680084228516,66.99199676513672,67.99240112304688,66.52130126953125,68.24240112304688,66.19120025634766C68.4928970336914,65.86060333251953,68.96410369873047,65.79759979248047,69.293701171875,66.04720306396484C73.50659942626953,69.24500274658203,79.93920135498047,67.73179626464844,80.00270080566406,67.71659851074219C80.40409851074219,67.6155014038086,80.810302734375,67.86499786376953,80.90889739990234,68.26740264892578C81.00659942626953,68.6697006225586,80.760498046875,69.07499694824219,80.35910034179688,69.17359924316406C80.21939849853516,69.20780181884766,78.56510162353516,69.59989929199219,76.35320281982422,69.59989929199219zM80.14420318603516,62.00469970703125C80.8677978515625,61.503700256347656,81.7301025390625,60.543296813964844,81.7301025390625,58.81520080566406C81.7301025390625,57.92210006713867,81.39810180664062,57.171600341796875,80.76920318603516,56.645301818847656C79.22530364990234,55.352298736572266,76.40489959716797,55.81129837036133,76.0885009765625,55.867000579833984C75.6812973022461,55.93980026245117,75.40979766845703,56.328399658203125,75.48210144042969,56.73609924316406C75.55439758300781,57.1432991027832,75.94300079345703,57.414798736572266,76.3511962890625,57.34349822998047C77.02110290527344,57.225799560546875,78.95079803466797,57.07740020751953,79.80729675292969,57.79610061645508C80.09539794921875,58.03879928588867,80.2302017211914,58.36249923706055,80.2302017211914,58.815101623535156C80.2302017211914,59.681297302246094,79.91380310058594,60.339500427246094,79.29070281982422,60.77159881591797C78.40299987792969,61.386802673339844,77.19300079345703,61.374603271484375,76.65399932861328,61.17250061035156C76.26730346679688,61.02649688720703,75.83470153808594,61.223297119140625,75.68820190429688,61.611000061035156C75.5427017211914,61.99870300292969,75.73899841308594,62.431297302246094,76.12670135498047,62.57679748535156C76.50559997558594,62.718902587890625,76.97730255126953,62.79900360107422,77.48609924316406,62.79900360107422C78.35710144042969,62.799102783203125,79.33660125732422,62.56420135498047,80.14420318603516,62.00469970703125z"/>
<path id="EyeWhites" fill="#FFFFFF" d="M70.94999694824219,52.1349983215332C70.79000091552734,53.67499923706055,68.94999694824219,55.375,66.0199966430664,55.375C63.089996337890625,55.375,60.15999984741211,53.60499954223633,60.15999984741211,51.375C60.15999984741211,49.584999084472656,62.58000183105469,48.1349983215332,65.55999755859375,48.1349983215332S71.11000061035156,50.35499954223633,70.94999694824219,52.1349983215332zM81.61000061035156,52.1349983215332C81.7699966430664,53.67499923706055,83.61000061035156,55.375,86.54000091552734,55.375C89.47000122070312,55.375,92.38999938964844,53.60499954223633,92.38999938964844,51.375C92.38999938964844,49.584999084472656,89.9800033569336,48.1349983215332,87,48.1349983215332S81.41999816894531,50.35499954223633,81.61000061035156,52.1349983215332z"/>
<path id="Eyes" d="M63.339996337890625,51.23500061035156C63.25800323486328,52.889801025390625,64.53299713134766,54.29779815673828,66.18779754638672,54.37990188598633C67.84259796142578,54.46200180053711,69.25060272216797,53.1869010925293,69.33270263671875,51.532100677490234C69.41480255126953,49.87730026245117,68.13970184326172,48.46929931640625,66.48490142822266,48.38719940185547C66.46659851074219,48.38629913330078,66.44830322265625,48.38560104370117,66.43000030517578,48.3849983215332C64.79530334472656,48.333900451660156,63.420997619628906,49.601600646972656,63.339996337890625,51.23500061035156zM89.20999908447266,51.23500061035156C89.28630065917969,52.890098571777344,88.00650024414062,54.293701171875,86.35140228271484,54.369998931884766C84.69629669189453,54.4463005065918,83.2927017211914,53.166500091552734,83.21640014648438,51.51139831542969C83.14009857177734,49.856300354003906,84.4198989868164,48.452701568603516,86.07499694824219,48.376399993896484C86.08670043945312,48.37590026855469,86.09839630126953,48.37540054321289,86.11000061035156,48.375C87.752197265625,48.31850051879883,89.1343002319336,49.59360122680664,89.20999908447266,51.23500061035156z"/>
<path id="EyeLids" d="M70.84140014648438,53.23509979248047C70.83070373535156,53.23509979248047,70.8208999633789,53.23509979248047,70.8102035522461,53.23460006713867C70.39710235595703,53.21799850463867,70.07479858398438,52.86940002441406,70.09100341796875,52.455299377441406C70.16380310058594,50.61690139770508,68.1852035522461,49.03730010986328,65.67939758300781,48.93429946899414C64.02999877929688,48.86589813232422,62.607601165771484,49.2682991027832,61.77510070800781,50.036800384521484C61.304901123046875,50.470401763916016,61.05390167236328,51.0015983581543,61.02949905395508,51.614898681640625C61.012901306152344,52.02899932861328,60.66669845581055,52.36199951171875,60.25019836425781,52.334598541259766C59.83610153198242,52.31800079345703,59.514400482177734,51.969398498535156,59.53049850463867,51.555301666259766C59.57099914550781,50.54410171508789,59.99530029296875,49.63779830932617,60.757999420166016,48.93370056152344C61.88199996948242,47.89849853515625,63.70179748535156,47.35609817504883,65.74089813232422,47.43519973754883C69.0719985961914,47.5723991394043,71.69599914550781,49.851200103759766,71.5895004272461,52.514801025390625C71.57389831542969,52.918701171875,71.2417984008789,53.23509979248047,70.84140014648438,53.23509979248047zM81.75060272216797,53.24440002441406C82.16470336914062,53.22779846191406,82.48600006103516,52.878700256347656,82.46939849853516,52.464599609375C82.39520263671875,50.62080001831055,84.36979675292969,49.03689956665039,86.87079620361328,48.93429946899414C89.05239868164062,48.85179901123047,91.44400024414062,49.6432991027832,91.53099822998047,51.60810089111328C91.54959869384766,52.02220153808594,91.89920043945312,52.3390998840332,92.31320190429688,52.32440185546875C92.72730255126953,52.30580139160156,93.04759979248047,51.9556999206543,93.02899932861328,51.54169845581055C92.91570281982422,48.97869873046875,90.38349914550781,47.2932014465332,86.8093032836914,47.435298919677734C83.48310089111328,47.571998596191406,80.86399841308594,49.855201721191406,80.97139739990234,52.52510070800781C80.98699951171875,52.92839813232422,81.31909942626953,53.24480056762695,81.71939849853516,53.24480056762695C81.7301025390625,53.24489974975586,81.73989868164062,53.24489974975586,81.75060272216797,53.24440002441406z"/>
<path id="EyeBrows" d="M94.6812973022461,49.9650993347168C94.6686019897461,49.9650993347168,94.65689849853516,49.964599609375,94.64420318603516,49.9640998840332C94.2301025390625,49.94409942626953,93.91179656982422,49.59299850463867,93.9312973022461,49.17890167236328C94.04070281982422,46.89720153808594,91.41670227050781,44.90299987792969,88.08170318603516,44.734100341796875C85.85320281982422,44.62860107421875,84.36689758300781,45.054901123046875,83.40489959716797,46.070499420166016C83.1187973022461,46.371299743652344,82.64320373535156,46.382999420166016,82.34439849853516,46.099300384521484C82.0436019897461,45.81460189819336,82.03089904785156,45.34000015258789,82.31510162353516,45.03919982910156C83.59929656982422,43.68320083618164,85.45279693603516,43.11149978637695,88.15489959716797,43.236000061035156C92.31700134277344,43.4463996887207,95.57869720458984,46.145198822021484,95.4292984008789,49.2510986328125C95.40979766845703,49.6525993347168,95.07879638671875,49.9650993347168,94.6812973022461,49.9650993347168zM57.91419982910156,50.18190002441406C58.32680130004883,50.14670181274414,58.632999420166016,49.784000396728516,58.5973014831543,49.37089920043945C58.5265007019043,48.54130172729492,58.82339859008789,47.7067985534668,59.456199645996094,46.95830154418945C60.49530029296875,45.72880172729492,62.29899978637695,44.89630126953125,64.28379821777344,44.732200622558594C66.46009826660156,44.54710006713867,67.90679931640625,44.90650177001953,68.96690368652344,45.902099609375C69.26820373535156,46.18479919433594,69.74330139160156,46.17070007324219,70.0270004272461,45.86840057373047C70.3102035522461,45.56660079956055,70.29560089111328,45.09199905395508,69.99330139160156,44.80830001831055C68.5968017578125,43.49729919433594,66.80139923095703,43.012901306152344,64.15789794921875,43.23749923706055C61.75170135498047,43.43669891357422,59.62030029296875,44.43960189819336,58.31019973754883,45.99039840698242C57.415199279785156,47.04999923706055,56.99769973754883,48.262901306152344,57.10319900512695,49.49869918823242C57.13639831542969,49.88930130004883,57.4640007019043,50.18470001220703,57.849300384521484,50.18470001220703C57.87070083618164,50.18479919433594,57.8922004699707,50.18389892578125,57.91419982910156,50.18190002441406z"/>
<path id="Hair" fill="#FFCE44" d="M99.77999877929688,13.764999389648438C99.77999877929688,13.764999389648438,94.95999908447266,16.764999389648438,85.48999786376953,14.594999313354492C78.52220153808594,13.135299682617188,71.47270202636719,12.096700668334961,64.37999725341797,11.485000610351562C64.37999725341797,11.485000610351562,66.97000122070312,13.975000381469727,65.58999633789062,14.754999160766602C64.20999908447266,15.53499984741211,49.939998626708984,18.334999084472656,49.939998626708984,18.334999084472656C49.939998626708984,18.334999084472656,52.63999938964844,20.905000686645508,50.310001373291016,29.205001831054688C47.97999954223633,37.505001068115234,47.619998931884766,46.98500061035156,50.11000061035156,50.96500015258789C52.599998474121094,54.94499969482422,51.650001525878906,54.19499969482422,52.54999923706055,54.10499954223633C52.54999923706055,49.345001220703125,52.0099983215332,47.3650016784668,52.720001220703125,43.10499954223633C54.529998779296875,32.23500061035156,58.11000061035156,30.235000610351562,61.369998931884766,35.57500076293945C62.88999938964844,34.57500076293945,64.01000213623047,29.514999389648438,66.76000213623047,28.865001678466797C68.49150085449219,28.408199310302734,70.2698974609375,28.1531982421875,72.05999755859375,28.104999542236328C72.72000122070312,28.104999542236328,75.80000305175781,30.69499969482422,73.05999755859375,34.53499984741211C80.33000183105469,31.625,78.66999816894531,27.674999237060547,79.5,27.674999237060547C80.33000183105469,27.674999237060547,80.33000183105469,30.275001525878906,85.94000244140625,32.875C84.06999969482422,28.825000762939453,85.73999786376953,28.115001678466797,86.43000030517578,28.235000610351562C89.43000030517578,28.764999389648438,94.55999755859375,32.23500061035156,96.01000213623047,32.875C96.01000213623047,35.78499984741211,96.06999969482422,39.125,97.75,41.875C99.43000030517578,44.625,98.56999969482422,51.67499923706055,99.3499984741211,52.23500061035156C101.18000030517578,51.73500061035156,103.3499984741211,45.564998626708984,101.3499984741211,32.494998931884766C99.5199966430664,26.4950008392334,102.18000030517578,25.684999465942383,102.18000030517578,25.684999465942383C102.18000030517578,25.684999465942383,99.18000030517578,25.014999389648438,98.36000061035156,23.524999618530273S99.77999877929688,13.764999389648438,99.77999877929688,13.764999389648438z"/>
<path id="HairBorder" d="M52.079200744628906,55.467498779296875C51.26620101928711,55.467498779296875,50.856998443603516,54.721900939941406,50.616798400878906,54.2849006652832C50.37799835205078,53.84939956665039,49.932701110839844,53.038299560546875,49.05039978027344,51.62820053100586C46.04650115966797,46.82740020751953,46.97370147705078,36.4640998840332,49.10660171508789,28.867000579833984C51.14759826660156,21.59600067138672,49.0713996887207,19.236099243164062,49.05039978027344,19.213199615478516C48.74330139160156,18.880199432373047,48.6255989074707,18.39240074157715,48.766700744628906,17.961700439453125C48.90729904174805,17.5314998626709,49.255001068115234,17.195600509643555,49.69929885864258,17.108699798583984C55.94300079345703,15.883600234985352,62.83940124511719,14.388999938964844,64.63050079345703,13.797700881958008C64.42050170898438,13.408500671386719,63.96009826660156,12.815299987792969,63.51380157470703,12.386600494384766C63.13200378417969,12.019399642944336,63.02259826660156,11.451099395751953,63.241798400878906,10.968600273132324C63.460601806640625,10.486700057983398,63.95659637451172,10.197099685668945,64.48739624023438,10.23960018157959C71.60310363769531,10.853899955749512,78.75550079345703,11.907600402832031,85.74569702148438,13.371400833129883C94.53569793701172,15.385599136352539,99.08260345458984,12.726900100708008,99.12660217285156,12.698999404907227C99.56310272216797,12.435800552368164,100.12069702148438,12.460699081420898,100.52890014648438,12.76930046081543C100.93609619140625,13.076400756835938,101.11969757080078,13.598899841308594,100.98590087890625,14.09160041809082C100.01709747314453,17.669700622558594,99.1801986694336,22.091100692749023,99.47709655761719,22.969999313354492C99.82569885253906,23.595500946044922,101.4634017944336,24.240999221801758,102.45459747314453,24.465099334716797C103.03959655761719,24.597900390625,103.53269958496094,25.107200622558594,103.51319885253906,25.706300735473633C103.49369812011719,26.305400848388672,103.13619995117188,26.78689956665039,102.54440307617188,26.880599975585938C102.2114028930664,27.049999237060547,101.40180206298828,28.38010025024414,102.54540252685547,32.13010025024414C102.56300354003906,32.18769836425781,102.57659912109375,32.246299743652344,102.58540344238281,32.30590057373047C104.63809967041016,45.72050094604492,102.51799774169922,52.66529846191406,99.67919921875,53.44070053100586C99.31590270996094,53.539798736572266,98.92630004882812,53.470001220703125,98.62159729003906,53.25080108642578C97.80229949951172,52.662899017333984,97.76419830322266,51.53689956665039,97.6801986694336,49.06959915161133C97.60600280761719,46.875301361083984,97.50440216064453,43.87089920043945,96.68309783935547,42.5265998840332C94.93409729003906,39.66279983520508,94.7759017944336,36.292701721191406,94.76119995117188,33.640899658203125C94.36080169677734,33.42169952392578,93.88130187988281,33.1432991027832,93.3364028930664,32.826900482177734C91.31780242919922,31.65599822998047,88.29730224609375,29.90359878540039,86.37349700927734,29.497299194335938C86.31099700927734,29.717498779296875,86.21730041503906,30.49340057373047,87.07469940185547,32.350799560546875C87.29440307617188,32.82640075683594,87.19380187988281,33.38890075683594,86.82369995117188,33.75899887084961C86.45159912109375,34.129600524902344,85.88819885253906,34.22869873046875,85.41449737548828,34.00899887084961C82.41349792480469,32.61840057373047,80.88420104980469,31.208698272705078,79.99559783935547,30.13840103149414C79.39790344238281,31.750198364257812,77.88619995117188,33.94940185546875,73.52490234375,35.695499420166016C73.0093002319336,35.89910125732422,72.42140197753906,35.74380111694336,72.07669830322266,35.306800842285156C71.73390197753906,34.87080001831055,71.72029876708984,34.260398864746094,72.0425033569336,33.808799743652344C72.81690216064453,32.7234001159668,73.08550262451172,31.708698272705078,72.83940124511719,30.793701171875C72.63529968261719,30.034900665283203,72.12359619140625,29.53099822998047,71.87259674072266,29.361099243164062C70.2759017944336,29.418701171875,68.654296875,29.658000946044922,67.07869720458984,30.073501586914062C65.92639923095703,30.34640121459961,64.96739959716797,32.16630172729492,64.1968994140625,33.62820053100586C63.511802673339844,34.92850112915039,62.91999816894531,36.05149841308594,62.056800842285156,36.61940002441406C61.773101806640625,36.80540084838867,61.427398681640625,36.86940002441406,61.09640121459961,36.794700622558594C60.76580047607422,36.72050094604492,60.479698181152344,36.51539993286133,60.30289840698242,36.22629928588867C59.37220001220703,34.70140075683594,58.421600341796875,33.87229919433594,57.77119827270508,33.99440002441406C56.69060134887695,34.20389938354492,55.042198181152344,36.769798278808594,53.95280075073242,43.31079864501953C53.49919891357422,46.03200149536133,53.57780075073242,47.720001220703125,53.68619918823242,50.056400299072266C53.73939895629883,51.203399658203125,53.79999923706055,52.50320053100586,53.79999923706055,54.105201721191406C53.79999923706055,54.74729919433594,53.313201904296875,55.285400390625,52.67399978637695,55.348899841308594C52.4547004699707,55.43190002441406,52.25749969482422,55.467498779296875,52.079200744628906,55.467498779296875zM51.8755989074707,19.225799560546875C52.545501708984375,20.991899490356445,53.01279830932617,24.201900482177734,51.51380157470703,29.542701721191406C49.1598014831543,37.92839813232422,49.01179885864258,46.85319900512695,51.16960144042969,50.301998138427734C51.17890167236328,50.31660079956055,51.188201904296875,50.331298828125,51.1968994140625,50.34590148925781C51.19449996948242,50.28730010986328,51.19150161743164,50.229698181152344,51.1890983581543,50.17210006713867C51.07780075073242,47.77560043334961,50.989898681640625,45.88249969482422,51.48699951171875,42.899600982666016C52.65549850463867,35.882999420166016,54.60960006713867,32.06119918823242,57.295101165771484,31.540199279785156C58.33219909667969,31.337100982666016,59.8223991394043,31.570499420166016,61.42639923095703,33.49530029296875C61.620201110839844,33.15549850463867,61.81560134887695,32.784400939941406,61.98500061035156,32.46260070800781C62.991798400878906,30.552398681640625,64.24479675292969,28.174999237060547,66.47229766845703,27.648601531982422C68.26529693603516,27.175498962402344,70.14420318603516,26.905899047851562,72.0270004272461,26.855600357055664L72.0270004272461,26.855600357055664C72.98989868164062,26.855600357055664,74.19300079345703,27.832199096679688,74.86000061035156,29.127601623535156C75.17250061035156,29.735000610351562,75.51139831542969,30.699901580810547,75.40879821777344,31.91619873046875C77.51619720458984,30.45819854736328,77.77110290527344,29.032901763916016,77.92639923095703,28.16619873046875C78.01139831542969,27.690101623535156,78.23789978027344,26.424999237060547,79.49960327148438,26.424999237060547C80.42150115966797,26.424999237060547,80.89610290527344,27.11640167236328,81.27690124511719,27.672100067138672C81.68219757080078,28.262401580810547,82.32769775390625,29.205299377441406,83.85600280761719,30.27069854736328C83.76619720458984,29.29949951171875,83.95369720458984,28.507999420166016,84.4175033569336,27.903499603271484C84.94869995117188,27.213600158691406,85.82959747314453,26.863000869750977,86.64409637451172,27.00360107421875C88.99659729003906,27.418598175048828,92.2300033569336,29.294601440429688,94.59040069580078,30.664199829101562C95.43119812011719,31.152000427246094,96.15779876708984,31.57339859008789,96.51519775390625,31.731098175048828C96.96829986572266,31.930801391601562,97.26029968261719,32.37950134277344,97.26029968261719,32.874698638916016C97.26029968261719,35.322898864746094,97.26029968261719,38.675498962402344,98.81600189208984,41.22330093383789C99.94200134277344,43.06560134887695,100.08260345458984,46.16320037841797,100.17050170898438,48.72529983520508C100.89710235595703,46.04069900512695,101.3667984008789,40.923500061035156,100.12750244140625,32.77170181274414C99.30229949951172,30.02410125732422,99.23979949951172,27.853199005126953,99.94290161132812,26.31909942626953C99.94969940185547,26.302499771118164,99.9574966430664,26.285900115966797,99.96540069580078,26.26930046081543C98.94979858398438,25.82979965209961,97.82379913330078,25.14229965209961,97.26519775390625,24.12820053100586C96.53959655761719,22.810300827026367,97.21050262451172,19.002700805664062,97.96050262451172,15.843000411987305C95.50250244140625,16.568599700927734,91.23490142822266,17.19409942626953,85.21050262451172,15.813199996948242C79.23200225830078,14.561199188232422,73.11579895019531,13.61199951171875,67.00489807128906,12.988000869750977C67.18699645996094,13.432300567626953,67.28469848632812,13.895200729370117,67.22799682617188,14.34589958190918C67.14739990234375,14.984100341796875,66.7842025756836,15.515800476074219,66.2051010131836,15.843000411987305C64.95030212402344,16.552499771118164,56.3380012512207,18.334199905395508,51.8755989074707,19.225799560546875z"/>
</g>
</svg>