<svg xmlns="http://www.w3.org/2000/svg" xmlns:xlink="http://www.w3.org/1999/xlink" viewBox= "0 0 157 309" width="157px" height="309px">
<g xmlns="http://www.w3.org/2000/svg" id="Boy2V2.svg">
<path id="Shoes" fill="#FF7C10" d="M45.29999923706055,277.79998779296875C47.70000076293945,276.79998779296875,49.599998474121094,276,51.099998474121094,275.29998779296875C51.099998474121094,275.5,51.20000076293945,275.70001220703125,51.29999923706055,275.8999938964844C51.79999923706055,276.8999938964844,52.79999923706055,283.5,52.900001525878906,285.70001220703125C53,287.8999938964844,47.599998474121094,289.1000061035156,44.70000076293945,290.3999938964844C41.79999923706055,291.70001220703125,41.29999923706055,295.1000061035156,34.70000076293945,295.79998779296875C28.100000381469727,296.5,24.100000381469727,294.29998779296875,23.700000762939453,291.20001220703125C23.299999237060547,288.1000061035156,23.200000762939453,285.29998779296875,26.399999618530273,282.8999938964844C29.600000381469727,280.5,35.29999923706055,278.1000061035156,35.900001525878906,277.70001220703125C36.5,277.29998779296875,37.70000076293945,275.79998779296875,38.400001525878906,275.79998779296875C39,275.70001220703125,41.5,279.29998779296875,45.29999923706055,277.79998779296875zM103.0999984741211,289.20001220703125C102.9000015258789,284.1000061035156,98.9000015258789,282.1000061035156,96.80000305175781,281.20001220703125C95.0999984741211,280.3999938964844,89.69999694824219,278,87.9000015258789,276.29998779296875C85.5,276.1000061035156,83.4000015258789,279.3999938964844,79.0999984741211,279.3999938964844C76.80000305175781,279.3999938964844,75.4000015258789,277.5,74.4000015258789,277.29998779296875C74,279.3999938964844,73.5,283.70001220703125,73.5999984741211,285.8999938964844C73.80000305175781,289.20001220703125,78.9000015258789,289.79998779296875,81.4000015258789,290.1000061035156C83.9000015258789,290.3999938964844,87.30000305175781,296.70001220703125,93.69999694824219,296.70001220703125S103.30000305175781,294.20001220703125,103.0999984741211,289.20001220703125z"/>
<path id="Shoes1" fill="#FFFFFF" d="M52.70000076293945,283.79998779296875C52.79999923706055,284.5,52.79999923706055,285.20001220703125,52.79999923706055,285.6000061035156C52.900001525878906,287.79998779296875,47.5,289,44.599998474121094,290.29998779296875C41.70000076293945,291.6000061035156,41.20000076293945,295,34.599998474121094,295.70001220703125C28,296.3999938964844,24,294.20001220703125,23.600000381469727,291.1000061035156C23.5,290.5,23.399999618530273,289.79998779296875,23.399999618530273,289.20001220703125C26.100000381469727,291.8999938964844,27.5,292.8999938964844,32.70000076293945,292.8999938964844C39,292.8999938964844,41.099998474121094,287.79998779296875,45,287C47.29999923706055,286.6000061035156,50.099998474121094,285.1000061035156,52.70000076293945,283.79998779296875zM92.5,293.3999938964844C87,292.6000061035156,85.69999694824219,288.20001220703125,83.4000015258789,287.20001220703125C81.4000015258789,286.3999938964844,77.5,287.20001220703125,73.69999694824219,284C73.69999694824219,284.70001220703125,73.5999984741211,285.29998779296875,73.69999694824219,285.8999938964844C73.9000015258789,289.20001220703125,79,289.79998779296875,81.5,290.1000061035156C84,290.3999938964844,87.4000015258789,296.70001220703125,93.80000305175781,296.70001220703125C99.69999694824219,296.70001220703125,103,294.6000061035156,103.19999694824219,290.20001220703125C100.80000305175781,293.20001220703125,97,294,92.5,293.3999938964844z"/>
<path id="ShoesBorder" d="M32.20000076293945,297.1000061035156C26.700000762939453,297.1000061035156,22.799999237060547,294.79998779296875,22.299999237060547,291.29998779296875C21.899999618530273,288.20001220703125,21.700000762939453,284.70001220703125,25.5,281.79998779296875C28,279.8999938964844,31.899999618530273,278.1000061035156,34,277.1000061035156C34.5,276.8999938964844,35,276.6000061035156,35.20000076293945,276.5C35.29999923706055,276.3999938964844,35.599998474121094,276.1000061035156,35.900001525878906,275.8999938964844C36.70000076293945,275.20001220703125,37.400001525878906,274.3999938964844,38.400001525878906,274.3999938964844C39,274.3999938964844,39.5,274.79998779296875,40.099998474121094,275.20001220703125C41,275.8999938964844,42.099998474121094,276.79998779296875,43.5,276.79998779296875C44,276.79998779296875,44.400001525878906,276.70001220703125,44.900001525878906,276.5C46.900001525878906,275.70001220703125,48.900001525878906,274.79998779296875,50.599998474121094,274C51,273.79998779296875,51.400001525878906,273.79998779296875,51.70000076293945,274C52,274.20001220703125,52.29999923706055,274.5,52.400001525878906,274.8999938964844C52.400001525878906,275.1000061035156,52.5,275.1000061035156,52.5,275.1000061035156C53.20000076293945,276.5,54.20000076293945,283.5,54.20000076293945,285.5C54.29999923706055,288.1000061035156,50.900001525878906,289.29998779296875,47.599998474121094,290.3999938964844C46.70000076293945,290.70001220703125,45.900001525878906,291,45.20000076293945,291.29998779296875C44.400001525878906,291.70001220703125,43.79999923706055,292.20001220703125,43.099998474121094,292.8999938964844C41.5,294.3999938964844,39.599998474121094,296.20001220703125,34.79999923706055,296.70001220703125C33.900001525878906,297,33,297.1000061035156,32.20000076293945,297.1000061035156zM33.5,280.1000061035156C33,280.3999938964844,32.400001525878906,280.6000061035156,31.799999237060547,281L31.799999237060547,281C33.5,282.1000061035156,34.70000076293945,283,34.79999923706055,283.1000061035156C35.400001525878906,283.5,35.5,284.29998779296875,35.099998474121094,284.79998779296875C34.900001525878906,285.1000061035156,34.5,285.29998779296875,34.099998474121094,285.29998779296875C33.79999923706055,285.29998779296875,33.599998474121094,285.20001220703125,33.400001525878906,285.1000061035156C33.400001525878906,285.1000061035156,31.5,283.70001220703125,29.399999618530273,282.3999938964844L29.399999618530273,282.3999938964844C28.600000381469727,282.8999938964844,27.799999237060547,283.3999938964844,27.200000762939453,283.8999938964844C25.200000762939453,285.3999938964844,24.700000762939453,287.1000061035156,24.799999237060547,289.5L24.799999237060547,289.5C27,291.5,28.399999618530273,292.20001220703125,32.79999923706055,292.20001220703125C36.29999923706055,292.20001220703125,38.29999923706055,290.5,40.29999923706055,288.8999938964844C41.70000076293945,287.70001220703125,43.099998474121094,286.6000061035156,44.900001525878906,286.29998779296875C46.900001525878906,285.8999938964844,49.29999923706055,284.79998779296875,51.5,283.6000061035156C51.20000076293945,281.29998779296875,50.70000076293945,278.20001220703125,50.400001525878906,276.8999938964844C49,277.5,47.400001525878906,278.20001220703125,45.79999923706055,278.8999938964844C45,279.20001220703125,44.20000076293945,279.3999938964844,43.5,279.3999938964844C41.20000076293945,279.3999938964844,39.5,278.1000061035156,38.5,277.29998779296875C38.400001525878906,277.29998779296875,38.400001525878906,277.20001220703125,38.29999923706055,277.20001220703125C38.099998474121094,277.3999938964844,37.79999923706055,277.70001220703125,37.599998474121094,277.79998779296875C37.20000076293945,278.20001220703125,36.900001525878906,278.5,36.5,278.79998779296875C36.5,278.79998779296875,36.400001525878906,278.79998779296875,36.400001525878906,278.8999938964844L36.400001525878906,278.8999938964844C37.70000076293945,279.70001220703125,38.70000076293945,280.6000061035156,38.900001525878906,280.79998779296875C39.400001525878906,281.29998779296875,39.5,282,39,282.6000061035156C38.79999923706055,282.8999938964844,38.400001525878906,283,38.099998474121094,283C37.79999923706055,283,37.5,282.8999938964844,37.29999923706055,282.70001220703125C36.5,282,34.79999923706055,280.6000061035156,33.5,280.1000061035156L33.5,280.1000061035156zM24.299999237060547,291.20001220703125C24.799999237060547,294,29,295.5,34.5,295C38.599998474121094,294.6000061035156,40.099998474121094,293.1000061035156,41.599998474121094,291.70001220703125C42.400001525878906,290.8999938964844,43.20000076293945,290.20001220703125,44.29999923706055,289.70001220703125C45.099998474121094,289.3999938964844,45.900001525878906,289.1000061035156,46.79999923706055,288.70001220703125C48.900001525878906,288,52.099998474121094,286.79998779296875,52,285.70001220703125C52,285.5,52,285.29998779296875,52,285C49.599998474121094,286.20001220703125,47.20000076293945,287.3999938964844,45,287.79998779296875C43.599998474121094,288.1000061035156,42.400001525878906,289,41.099998474121094,290.1000061035156C39,291.79998779296875,36.599998474121094,293.70001220703125,32.599998474121094,293.70001220703125C28.200000762939453,293.70001220703125,26.399999618530273,293,24.299999237060547,291.20001220703125zM93.69999694824219,297.79998779296875C89.19999694824219,297.79998779296875,86.0999984741211,295.1000061035156,83.80000305175781,293.1000061035156C82.9000015258789,292.29998779296875,81.80000305175781,291.29998779296875,81.19999694824219,291.29998779296875L80.9000015258789,291.29998779296875C78.19999694824219,290.8999938964844,72.5,290.20001220703125,72.30000305175781,286C72.19999694824219,283.70001220703125,72.69999694824219,279.3999938964844,73.0999984741211,277.20001220703125C73.19999694824219,276.8999938964844,73.30000305175781,276.6000061035156,73.5999984741211,276.3999938964844C73.9000015258789,276.20001220703125,74.19999694824219,276.1000061035156,74.5,276.20001220703125C75.19999694824219,276.29998779296875,75.69999694824219,276.70001220703125,76.30000305175781,277.1000061035156C77.0999984741211,277.70001220703125,77.9000015258789,278.20001220703125,79,278.20001220703125C81,278.20001220703125,82.4000015258789,277.29998779296875,83.80000305175781,276.5C85.0999984741211,275.70001220703125,86.4000015258789,275,87.9000015258789,275.1000061035156C88.19999694824219,275.1000061035156,88.4000015258789,275.20001220703125,88.5999984741211,275.3999938964844C90.0999984741211,276.70001220703125,94.5999984741211,278.79998779296875,96.5,279.70001220703125L97.19999694824219,280C99.19999694824219,280.8999938964844,103.9000015258789,283.20001220703125,104.19999694824219,289.1000061035156C104.30000305175781,291.6000061035156,103.69999694824219,293.6000061035156,102.30000305175781,295C100.5999984741211,296.8999938964844,97.69999694824219,297.79998779296875,93.69999694824219,297.79998779296875zM96.19999694824219,282.20001220703125L96.0999984741211,282.1000061035156L96.0999984741211,282.1000061035156C94.9000015258789,283.1000061035156,93.69999694824219,284.5,93.69999694824219,284.5C93.5,284.79998779296875,93.0999984741211,285,92.69999694824219,285C92.4000015258789,285,92.0999984741211,284.8999938964844,91.9000015258789,284.70001220703125C91.4000015258789,284.29998779296875,91.30000305175781,283.5,91.69999694824219,282.8999938964844C91.69999694824219,282.79998779296875,92.5,281.8999938964844,93.5999984741211,280.8999938964844L93.5999984741211,280.8999938964844C93.19999694824219,280.70001220703125,92.80000305175781,280.5,92.4000015258789,280.29998779296875C90.4000015258789,281.5,89,282.6000061035156,89,282.6000061035156C88.80000305175781,282.79998779296875,88.5,282.8999938964844,88.19999694824219,282.8999938964844C87.80000305175781,282.8999938964844,87.5,282.70001220703125,87.19999694824219,282.3999938964844C86.80000305175781,281.8999938964844,86.9000015258789,281.1000061035156,87.4000015258789,280.6000061035156C87.5,280.6000061035156,88.4000015258789,279.8999938964844,89.80000305175781,278.8999938964844C88.9000015258789,278.3999938964844,88,277.79998779296875,87.30000305175781,277.29998779296875C86.69999694824219,277.3999938964844,85.9000015258789,277.79998779296875,85.0999984741211,278.29998779296875C83.5999984741211,279.20001220703125,81.69999694824219,280.29998779296875,79,280.29998779296875C77.4000015258789,280.29998779296875,76.0999984741211,279.6000061035156,75.19999694824219,279C75,280.5,74.80000305175781,282.20001220703125,74.69999694824219,283.70001220703125C76.9000015258789,285.20001220703125,79.0999984741211,285.5,80.80000305175781,285.70001220703125C81.80000305175781,285.79998779296875,82.69999694824219,285.8999938964844,83.5,286.20001220703125C84.5,286.6000061035156,85.30000305175781,287.5,86.0999984741211,288.5C87.5,290.1000061035156,89.0999984741211,292,92.4000015258789,292.3999938964844C96.5,293,99.5999984741211,292.20001220703125,101.5999984741211,290.20001220703125C101.5999984741211,289.79998779296875,101.5999984741211,289.3999938964844,101.5999984741211,289C101.5999984741211,285.29998779296875,99,283.6000061035156,96.19999694824219,282.20001220703125zM92.4000015258789,294.1000061035156C88.5999984741211,293.6000061035156,86.69999694824219,291.3999938964844,85.19999694824219,289.70001220703125C84.4000015258789,288.79998779296875,83.80000305175781,288.1000061035156,83.0999984741211,287.79998779296875C82.5999984741211,287.6000061035156,81.80000305175781,287.5,80.9000015258789,287.3999938964844C79.0999984741211,287.20001220703125,76.80000305175781,286.8999938964844,74.4000015258789,285.3999938964844C74.4000015258789,285.5,74.4000015258789,285.70001220703125,74.4000015258789,285.79998779296875C74.5,288.3999938964844,78.9000015258789,289,81.30000305175781,289.29998779296875L81.5999984741211,289.29998779296875C82.69999694824219,289.5,83.80000305175781,290.3999938964844,85.19999694824219,291.6000061035156C87.4000015258789,293.5,90,295.79998779296875,93.69999694824219,295.79998779296875C98.0999984741211,295.79998779296875,100.69999694824219,294.70001220703125,101.80000305175781,292.3999938964844C99.5,294.1000061035156,96.4000015258789,294.70001220703125,92.4000015258789,294.1000061035156z"/>
<path id="Pants" fill="#284868" d="M32.5,171.1999969482422C32.29999923706055,174.1999969482422,31.799999237060547,200.3000030517578,31.5,214.8000030517578C31.399999618530273,221.10000610351562,33.79999923706055,253.6999969482422,32.400001525878906,259.79998779296875C31,265.8999938964844,34.20000076293945,274.8999938964844,34.70000076293945,275.6000061035156C35.599998474121094,276.79998779296875,40.20000076293945,275.8999938964844,45.5,276.8999938964844C50.79999923706055,277.8999938964844,53.20000076293945,283.79998779296875,55.20000076293945,283C57.099998474121094,282.20001220703125,55,274.1000061035156,55.599998474121094,263.6000061035156C56.099998474121094,253.10000610351562,56.900001525878906,241.3000030517578,57.70000076293945,235.89999389648438C58.79999923706055,232.6999969482422,61.900001525878906,207.1999969482422,61.900001525878906,207.1999969482422C61.900001525878906,207.1999969482422,68.4000015258789,245.10000610351562,67.4000015258789,249.60000610351562C66.4000015258789,254.10000610351562,70.5,264.29998779296875,70.5,264.29998779296875C70.5,264.29998779296875,73.5,274,71.0999984741211,276.3999938964844C69.30000305175781,282.3999938964844,73.19999694824219,281.8999938964844,73.19999694824219,281.8999938964844C73.19999694824219,281.8999938964844,80.19999694824219,278.79998779296875,84.4000015258789,278.5C88.5999984741211,278.20001220703125,94,278.79998779296875,93.69999694824219,276.70001220703125C93.4000015258789,274.6000061035156,92.5,270.1000061035156,92.9000015258789,260.70001220703125C93.5,246.5,92.0999984741211,227.60000610351562,92.0999984741211,222.39999389648438C92,213.89999389648438,92.19999694824219,187.10000610351562,91.9000015258789,184.10000610351562C91.5999984741211,181.10000610351562,90.0999984741211,173.60000610351562,90.0999984741211,173.60000610351562L32.5,171.1999969482422z"/>
<path id="PantsBorder" d="M54.70000076293945,284.20001220703125C53.400001525878906,284.20001220703125,52.400001525878906,283.20001220703125,51.099998474121094,281.8999938964844C49.599998474121094,280.3999938964844,47.70000076293945,278.5,45.20000076293945,278C42.79999923706055,277.5,40.599998474121094,277.5,38.79999923706055,277.3999938964844C36.20000076293945,277.29998779296875,34.5,277.29998779296875,33.70000076293945,276.1000061035156C32.900001525878906,275,29.799999237060547,265.70001220703125,31.299999237060547,259.29998779296875C32.20000076293945,255.39999389648438,31.399999618530273,239.5,30.899999618530273,227.8000030517578C30.600000381469727,221.8000030517578,30.399999618530273,216.6999969482422,30.399999618530273,214.5L30.5,207.3000030517578C30.799999237060547,192.1999969482422,31.200000762939453,173.39999389648438,31.299999237060547,170.8000030517578C31.299999237060547,170.10000610351562,31.899999618530273,169.60000610351562,32.599998474121094,169.60000610351562L89.9000015258789,171.89999389648438C90.5,171.89999389648438,91,172.3000030517578,91.0999984741211,172.89999389648438C91.19999694824219,173.1999969482422,92.5999984741211,180.5,93,183.5C93.19999694824219,185.5,93.19999694824219,196.89999389648438,93.19999694824219,207.89999389648438C93.19999694824219,213.5,93.19999694824219,218.89999389648438,93.19999694824219,221.89999389648438C93.19999694824219,223.3000030517578,93.30000305175781,225.8000030517578,93.5,228.89999389648438C93.9000015258789,237.1999969482422,94.4000015258789,249.8000030517578,94,260.20001220703125C93.69999694824219,268.20001220703125,94.30000305175781,272.6000061035156,94.69999694824219,275C94.80000305175781,275.3999938964844,94.80000305175781,275.79998779296875,94.80000305175781,276.1000061035156C94.9000015258789,276.70001220703125,94.69999694824219,277.29998779296875,94.30000305175781,277.79998779296875C93.19999694824219,279.1000061035156,90.80000305175781,279.1000061035156,87.5999984741211,279.20001220703125C86.5,279.20001220703125,85.30000305175781,279.20001220703125,84.30000305175781,279.29998779296875C80.4000015258789,279.6000061035156,73.5999984741211,282.6000061035156,73.5,282.6000061035156C73.4000015258789,282.6000061035156,73.30000305175781,282.70001220703125,73.19999694824219,282.70001220703125C73.19999694824219,282.70001220703125,73,282.70001220703125,72.69999694824219,282.70001220703125L72.69999694824219,282.70001220703125C71.5999984741211,282.70001220703125,70.5,282.20001220703125,69.9000015258789,281.3999938964844C69,280.1000061035156,68.9000015258789,278.29998779296875,69.69999694824219,275.6000061035156C69.80000305175781,275.3999938964844,69.9000015258789,275.20001220703125,70,275.1000061035156C71.0999984741211,274,70.4000015258789,268.6000061035156,69.0999984741211,264.29998779296875C68.5999984741211,263,64.9000015258789,253.60000610351562,65.9000015258789,248.89999389648438C66.5,246.3000030517578,64.0999984741211,229.6999969482422,61.79999923706055,215.5C60.79999923706055,223.1999969482422,59.400001525878906,233.5,58.70000076293945,235.8000030517578C58.099998474121094,240.1999969482422,57.400001525878906,249.6999969482422,56.70000076293945,263.29998779296875C56.5,267.8999938964844,56.70000076293945,271.8999938964844,56.900001525878906,275.20001220703125C57.20000076293945,280.20001220703125,57.400001525878906,282.8999938964844,55.5,283.70001220703125C55.29999923706055,284.20001220703125,55,284.20001220703125,54.70000076293945,284.20001220703125zM35.70000076293945,274.70001220703125C36.099998474121094,274.8999938964844,37.599998474121094,274.8999938964844,38.79999923706055,275C40.70000076293945,275,43.099998474121094,275.1000061035156,45.70000076293945,275.6000061035156C49,276.29998779296875,51.20000076293945,278.5,52.900001525878906,280.1000061035156C53.400001525878906,280.6000061035156,54.099998474121094,281.29998779296875,54.599998474121094,281.6000061035156C54.900001525878906,280.70001220703125,54.70000076293945,278,54.5,275.70001220703125C54.29999923706055,272.3999938964844,54,268.20001220703125,54.20000076293945,263.5C54.900001525878906,249.60000610351562,55.599998474121094,240.1999969482422,56.29999923706055,235.6999969482422C56.29999923706055,235.60000610351562,56.29999923706055,235.60000610351562,56.400001525878906,235.5C57.20000076293945,233,59.599998474121094,214.10000610351562,60.5,207.10000610351562C60.599998474121094,206.5,61.099998474121094,206,61.70000076293945,206C62.29999923706055,206,62.900001525878906,206.39999389648438,63,207C63.70000076293945,210.89999389648438,69.5,245.3000030517578,68.5,249.8000030517578C67.69999694824219,253.1999969482422,70.5,261,71.5999984741211,263.70001220703125L71.5999984741211,263.79998779296875C72.0999984741211,265.5,74.5,273.8999938964844,72.0999984741211,276.8999938964844C71.4000015258789,279.20001220703125,71.9000015258789,280,72,280.20001220703125C72.19999694824219,280.5,72.5,280.5,72.80000305175781,280.5C74,280,80.19999694824219,277.3999938964844,84.19999694824219,277.1000061035156C85.30000305175781,277,86.5,277,87.69999694824219,277C89.30000305175781,277,91.69999694824219,276.8999938964844,92.4000015258789,276.6000061035156C92.4000015258789,276.3999938964844,92.30000305175781,276.1000061035156,92.30000305175781,275.79998779296875C91.9000015258789,273.3999938964844,91.30000305175781,268.79998779296875,91.5999984741211,260.6000061035156C92,250.39999389648438,91.4000015258789,237.8000030517578,91.0999984741211,229.5C91,226.3000030517578,90.80000305175781,223.8000030517578,90.80000305175781,222.39999389648438C90.80000305175781,219.39999389648438,90.80000305175781,214,90.80000305175781,208.39999389648438C90.80000305175781,198.5,90.80000305175781,186.10000610351562,90.5999984741211,184.1999969482422C90.30000305175781,181.89999389648438,89.4000015258789,176.89999389648438,89,174.8000030517578L33.900001525878906,172.60000610351562C33.70000076293945,177.6999969482422,33.400001525878906,194.89999389648438,33.099998474121094,207.8000030517578L33,215C33,217.10000610351562,33.20000076293945,222.1999969482422,33.5,228.10000610351562C34.099998474121094,240.60000610351562,34.79999923706055,256.1000061035156,33.79999923706055,260.29998779296875C32.400001525878906,265.3999938964844,35,273.3999938964844,35.70000076293945,274.70001220703125zM61.70000076293945,193.1999969482422L65.5999984741211,192.6999969482422C66.0999984741211,192.60000610351562,66.4000015258789,192.3000030517578,66.5,191.8000030517578C66.5,191.6999969482422,67.4000015258789,183.6999969482422,67.69999694824219,178.8000030517578C67.69999694824219,178.1999969482422,67.30000305175781,177.8000030517578,66.69999694824219,177.8000030517578C66.19999694824219,177.8000030517578,65.69999694824219,178.1999969482422,65.69999694824219,178.8000030517578C65.5,182.8000030517578,64.9000015258789,188.8000030517578,64.5999984741211,190.89999389648438L61.5,191.3000030517578C61,191.39999389648438,60.599998474121094,191.89999389648438,60.599998474121094,192.39999389648438C60.70000076293945,192.89999389648438,61.099998474121094,193.3000030517578,61.599998474121094,193.3000030517578C61.599998474121094,193.1999969482422,61.599998474121094,193.1999969482422,61.70000076293945,193.1999969482422z"/>
<path id="Braids" d="M79,75.0999984741211C78.30000305175781,75.0999984741211,77.69999694824219,74.69999694824219,77.5,74.0999984741211C77.4000015258789,73.9000015258789,76.0999984741211,70.30000305175781,75.19999694824219,65.0999984741211C75.0999984741211,64.19999694824219,75.69999694824219,63.400001525878906,76.5999984741211,63.20000076293945C77.5,63.099998474121094,78.30000305175781,63.70000076293945,78.5,64.5999984741211C79.30000305175781,69.5,80.5999984741211,72.9000015258789,80.5999984741211,72.9000015258789C80.9000015258789,73.69999694824219,80.5,74.69999694824219,79.69999694824219,75C79.4000015258789,75.0999984741211,79.19999694824219,75.0999984741211,79,75.0999984741211zM74.9000015258789,81.0999984741211C75.80000305175781,80.9000015258789,76.30000305175781,80,76.0999984741211,79.0999984741211C76.0999984741211,79,74.4000015258789,71.80000305175781,74.5999984741211,68.19999694824219C74.5999984741211,67.30000305175781,74,66.5,73.0999984741211,66.5C72.19999694824219,66.5,71.4000015258789,67.0999984741211,71.4000015258789,68C71.19999694824219,72.0999984741211,72.9000015258789,79.5,73,79.80000305175781C73.19999694824219,80.5,73.80000305175781,81.0999984741211,74.5999984741211,81.0999984741211C74.5999984741211,81.19999694824219,74.69999694824219,81.19999694824219,74.9000015258789,81.0999984741211zM69.19999694824219,80.5C70.0999984741211,80.30000305175781,70.5999984741211,79.4000015258789,70.30000305175781,78.5C70.30000305175781,78.5,69.4000015258789,75.30000305175781,69.80000305175781,72.9000015258789C69.9000015258789,72,69.30000305175781,71.19999694824219,68.4000015258789,71.0999984741211C67.5,71,66.69999694824219,71.5999984741211,66.5999984741211,72.5C66.19999694824219,75.5999984741211,67.19999694824219,79.30000305175781,67.19999694824219,79.4000015258789C67.4000015258789,80.0999984741211,68.0999984741211,80.5999984741211,68.80000305175781,80.5999984741211C68.9000015258789,80.5999984741211,69.0999984741211,80.5999984741211,69.19999694824219,80.5zM33.20000076293945,77.5C33.20000076293945,77.4000015258789,36.20000076293945,72.5,39.099998474121094,66.80000305175781C39.5,66,39.20000076293945,65,38.400001525878906,64.5999984741211C37.599998474121094,64.19999694824219,36.599998474121094,64.5,36.20000076293945,65.30000305175781C33.29999923706055,70.9000015258789,30.399999618530273,75.80000305175781,30.399999618530273,75.80000305175781C29.899999618530273,76.5999984741211,30.200000762939453,77.5999984741211,31,78C31.299999237060547,78.19999694824219,31.5,78.19999694824219,31.799999237060547,78.19999694824219C32.400001525878906,78.30000305175781,32.900001525878906,78,33.20000076293945,77.5zM39,80C39.20000076293945,79.80000305175781,43,76.19999694824219,44.70000076293945,72C45,71.19999694824219,44.599998474121094,70.19999694824219,43.79999923706055,69.9000015258789C43,69.5999984741211,42,70,41.70000076293945,70.80000305175781C40.29999923706055,74.30000305175781,36.79999923706055,77.69999694824219,36.79999923706055,77.69999694824219C36.099998474121094,78.30000305175781,36.099998474121094,79.30000305175781,36.70000076293945,80C37,80.30000305175781,37.400001525878906,80.5,37.900001525878906,80.5C38.29999923706055,80.4000015258789,38.70000076293945,80.30000305175781,39,80zM48,80.5C48,80.4000015258789,48.20000076293945,77,47.79999923706055,72.5999984741211C47.70000076293945,71.69999694824219,46.900001525878906,71,46,71.0999984741211C45.099998474121094,71.19999694824219,44.400001525878906,72,44.5,72.9000015258789C44.900001525878906,77,44.70000076293945,80.30000305175781,44.70000076293945,80.30000305175781C44.599998474121094,81.19999694824219,45.29999923706055,82,46.20000076293945,82L46.29999923706055,82C47.20000076293945,82,47.900001525878906,81.4000015258789,48,80.5z"/>
<path id="Body" fill="#6B3D1F" d="M48.400001525878906,75.9000015258789C42.20000076293945,72.80000305175781,36.400001525878906,66.5,32.900001525878906,58.79999923706055L32.900001525878906,58.79999923706055C31.100000381469727,58.599998474121094,29.399999618530273,56.79999923706055,28.700000762939453,54.20000076293945C28,51.599998474121094,28.700000762939453,47.599998474121094,28.700000762939453,47.599998474121094C28.600000381469727,46.5,28.299999237060547,44.79999923706055,28.299999237060547,43.599998474121094C28.299999237060547,41.099998474121094,28.100000381469727,35.70000076293945,29.299999237060547,29.600000381469727C31.700000762939453,16.899999618530273,42.29999923706055,10,56.29999923706055,10.5C73.9000015258789,11.199999809265137,79.80000305175781,17.899999618530273,82.9000015258789,28.799999237060547C84.0999984741211,33.20000076293945,83.69999694824219,42,83.69999694824219,44.599998474121094C83.69999694824219,45.70000076293945,83.4000015258789,48.400001525878906,83.4000015258789,48.400001525878906C84.9000015258789,49.400001525878906,84.4000015258789,51.5,83.69999694824219,54.099998474121094C83,56.70000076293945,81.19999694824219,58.5,79.4000015258789,58.70000076293945L79.4000015258789,58.70000076293945C76.0999984741211,66.30000305175781,70.4000015258789,72.5,64.30000305175781,75.5999984741211C64.80000305175781,78.80000305175781,66.30000305175781,82.9000015258789,70.4000015258789,84C70.9000015258789,84.0999984741211,60.20000076293945,98,60.20000076293945,98C60.20000076293945,98,58.20000076293945,98.19999694824219,57.20000076293945,98.19999694824219C56.5,98.19999694824219,55.20000076293945,98.0999984741211,55.20000076293945,98.0999984741211L44.400001525878906,84.19999694824219C44.400001525878906,84.19999694824219,46.70000076293945,79.80000305175781,47.900001525878906,75.69999694824219L48.400001525878906,75.9000015258789zM125.19999694824219,123.5C126.0999984741211,122.0999984741211,126.80000305175781,121.0999984741211,127.19999694824219,120.5C130.60000610351562,117,139.8000030517578,110.19999694824219,141.1999969482422,107.80000305175781C142.60000610351562,105.4000015258789,144.3000030517578,96.0999984741211,140.5,93.4000015258789C133.8000030517578,91.5,130.6999969482422,99.69999694824219,126.30000305175781,104.9000015258789C126.30000305175781,104.9000015258789,128.8000030517578,95.69999694824219,123,96.4000015258789C121.9000015258789,98.5999984741211,122.19999694824219,102.9000015258789,121.19999694824219,104.80000305175781C119.30000305175781,108.69999694824219,120.5999984741211,113.80000305175781,120.5999984741211,113.80000305175781C120.5999984741211,113.80000305175781,119.5999984741211,115,118.19999694824219,116.9000015258789L125.19999694824219,123.5zM17.399999618530273,173.39999389648438C17.799999237060547,174.39999389648438,18.100000381469727,176.1999969482422,18,177.5C17.799999237060547,180,17.799999237060547,190.8000030517578,18.299999237060547,192.1999969482422C18.899999618530273,193.60000610351562,22.700000762939453,200.10000610351562,29.700000762939453,199.1999969482422C36.79999923706055,198.3000030517578,30,191.89999389648438,30,191.89999389648438C29.799999237060547,190.60000610351562,30.399999618530273,188.60000610351562,30.299999237060547,186.6999969482422C30.299999237060547,186.1999969482422,30,191.3000030517578,33,190.6999969482422C35.400001525878906,186.39999389648438,29.799999237060547,180,29.100000381469727,179C27.899999618530273,177.10000610351562,26.100000381469727,176.10000610351562,25.5,172.6999969482422L17.399999618530273,173.39999389648438z"/>
<path id="Hair" d="M32.20000076293945,48.29999923706055C32.20000076293945,48.29999923706055,31.700000762939453,47.70000076293945,31.399999618530273,47.400001525878906C31.100000381469727,47.099998474121094,30.799999237060547,46.70000076293945,30.5,46.29999923706055C30.200000762939453,45.900001525878906,30,45.5,29.899999618530273,45.20000076293945C29.700000762939453,44.79999923706055,29.5,44.400001525878906,29.299999237060547,44.20000076293945C28.899999618530273,43.79999923706055,28.600000381469727,43.599998474121094,28.5,43.599998474121094L28.5,43.599998474121094C28.5,44.599998474121094,28.600000381469727,45.70000076293945,28.700000762939453,46.79999923706055C28.799999237060547,47.599998474121094,30.299999237060547,49,30.299999237060547,49L32.20000076293945,48.29999923706055zM34.20000076293945,37.70000076293945C33.900001525878906,37.29999923706055,33.5,37,33,36.70000076293945C32.70000076293945,36.5,32.400001525878906,36.20000076293945,32.099998474121094,36C31.700000762939453,35.70000076293945,31.399999618530273,35.29999923706055,31.100000381469727,35C30.799999237060547,34.599998474121094,30.5,34.29999923706055,30.200000762939453,34C29.5,33.5,29.299999237060547,33.400001525878906,28.899999618530273,33.29999923706055C28.799999237060547,33.29999923706055,28.700000762939453,33.20000076293945,28.600000381469727,33.20000076293945C28.200000762939453,36,28.100000381469727,39,28.200000762939453,42.29999923706055L28.200000762939453,42.29999923706055C28.799999237060547,42.29999923706055,29.5,42.599998474121094,30.100000381469727,43.29999923706055C30.5,43.70000076293945,30.700000762939453,44.099998474121094,31,44.599998474121094C31.200000762939453,44.900001525878906,31.399999618530273,45.29999923706055,31.600000381469727,45.599998474121094C31.799999237060547,45.900001525878906,32.099998474121094,46.20000076293945,32.400001525878906,46.5C32.70000076293945,46.79999923706055,33,47.20000076293945,33.29999923706055,47.599998474121094C33.400001525878906,47.70000076293945,33.400001525878906,47.79999923706055,33.5,47.900001525878906C33.70000076293945,47.099998474121094,34,46.099998474121094,34.400001525878906,44.599998474121094C34.900001525878906,42.79999923706055,35,41.099998474121094,35.099998474121094,39.29999923706055L35.099998474121094,39.29999923706055C34.79999923706055,38.599998474121094,34.5,38.099998474121094,34.20000076293945,37.70000076293945zM37,27.5C36.70000076293945,27.299999237060547,36.29999923706055,27.100000381469727,35.900001525878906,26.899999618530273C35.5,26.700000762939453,35.099998474121094,26.600000381469727,34.70000076293945,26.299999237060547C34.29999923706055,26.100000381469727,34,25.799999237060547,33.70000076293945,25.5C33.400001525878906,25.200000762939453,33,24.899999618530273,32.70000076293945,24.799999237060547C32.20000076293945,24.600000381469727,31.600000381469727,24.5,31,24.5C31,24.5,31,24.5,30.899999618530273,24.5C30,26.700000762939453,29.299999237060547,29.100000381469727,28.899999618530273,31.799999237060547C29.100000381469727,31.899999618530273,29.299999237060547,31.899999618530273,29.399999618530273,32C29.799999237060547,32.099998474121094,30.200000762939453,32.29999923706055,31,32.900001525878906C31.399999618530273,33.20000076293945,31.799999237060547,33.599998474121094,32.20000076293945,34.099998474121094C32.5,34.400001525878906,32.70000076293945,34.70000076293945,33.099998474121094,35C33.29999923706055,35.20000076293945,33.599998474121094,35.400001525878906,33.900001525878906,35.599998474121094C34.400001525878906,35.900001525878906,34.900001525878906,36.29999923706055,35.29999923706055,36.79999923706055C35.5,34.70000076293945,36.099998474121094,32.29999923706055,37.29999923706055,29.200000762939453C37.400001525878906,28.899999618530273,37.599998474121094,28.600000381469727,37.70000076293945,28.299999237060547C37.5,28,37.20000076293945,27.700000762939453,37,27.5zM46,22.700000762939453C45.5,22.299999237060547,44.79999923706055,22.100000381469727,44,21.799999237060547C43.29999923706055,21.600000381469727,42.70000076293945,21.299999237060547,42,21C41.29999923706055,20.700000762939453,40.79999923706055,20.200000762939453,40.20000076293945,19.799999237060547C39.599998474121094,19.299999237060547,39,18.899999618530273,38.400001525878906,18.700000762939453C36.900001525878906,18,35.599998474121094,18,35,18.100000381469727C33.599998474121094,19.600000381469727,32.5,21.299999237060547,31.600000381469727,23.200000762939453C32.20000076293945,23.200000762939453,32.79999923706055,23.299999237060547,33.400001525878906,23.600000381469727C33.900001525878906,23.799999237060547,34.29999923706055,24.200000762939453,34.70000076293945,24.600000381469727C35,24.899999618530273,35.29999923706055,25.100000381469727,35.5,25.299999237060547C35.79999923706055,25.5,36.099998474121094,25.600000381469727,36.5,25.799999237060547C37,26,37.5,26.200000762939453,37.900001525878906,26.5C38.20000076293945,26.700000762939453,38.400001525878906,26.899999618530273,38.599998474121094,27.200000762939453C40.70000076293945,24.600000381469727,44.099998474121094,24.299999237060547,47.79999923706055,24.5C47.400001525878906,23.799999237060547,46.79999923706055,23.200000762939453,46,22.700000762939453zM52.5,18.299999237060547C51.79999923706055,17.899999618530273,51.099998474121094,17.5,50.400001525878906,17.100000381469727C49.79999923706055,16.700000762939453,49.29999923706055,16.299999237060547,48.70000076293945,15.899999618530273C47.599998474121094,15,46.5,14.199999809265137,45.20000076293945,13.800000190734863C44,13.399999618530273,42.70000076293945,13.5,41.29999923706055,13.600000381469727C39.400001525878906,14.5,37.79999923706055,15.5,36.29999923706055,16.799999237060547C37.099998474121094,16.899999618530273,38,17.100000381469727,39,17.5C39.70000076293945,17.799999237060547,40.400001525878906,18.299999237060547,41.099998474121094,18.799999237060547C41.599998474121094,19.200000762939453,42.20000076293945,19.600000381469727,42.70000076293945,19.899999618530273C43.20000076293945,20.200000762939453,43.900001525878906,20.399999618530273,44.5,20.600000381469727C45.29999923706055,20.899999618530273,46.099998474121094,21.200000762939453,46.79999923706055,21.600000381469727C48.29999923706055,22.600000381469727,49,23.799999237060547,49.400001525878906,24.600000381469727C51.599998474121094,24.799999237060547,53.900001525878906,25.100000381469727,56,25.100000381469727C56.70000076293945,25.100000381469727,57.400001525878906,25.100000381469727,58.20000076293945,25.100000381469727C57.79999923706055,23.899999618530273,57.20000076293945,22.100000381469727,55.599998474121094,20.5C54.79999923706055,19.5,53.70000076293945,18.899999618530273,52.5,18.299999237060547zM49.70000076293945,13.300000190734863C50.599998474121094,13.199999809265137,51.70000076293945,13,52.79999923706055,12.600000381469727C53.29999923706055,12.399999618530273,53.900001525878906,12.100000381469727,54.5,11.800000190734863C55.20000076293945,11.399999618530273,55.900001525878906,11,56.70000076293945,10.699999809265137C56.400001525878906,10.699999809265137,56.099998474121094,10.699999809265137,55.79999923706055,10.699999809265137C51.599998474121094,10.699999809265137,47.900001525878906,11.300000190734863,44.70000076293945,12.199999809265137C45,12.199999809265137,45.20000076293945,12.300000190734863,45.5,12.399999618530273C46.400001525878906,12.699999809265137,47.20000076293945,13.199999809265137,48,13.699999809265137L48,13.699999809265137C48.5,13.399999618530273,49,13.399999618530273,49.70000076293945,13.300000190734863zM63.599998474121094,11.300000190734863C63.099998474121094,11.399999618530273,62.70000076293945,11.600000381469727,62.20000076293945,11.600000381469727C61.5,11.699999809265137,60.70000076293945,11.699999809265137,60,11.699999809265137C59.099998474121094,11.699999809265137,58.29999923706055,11.699999809265137,57.5,11.899999618530273S56,12.5,55.20000076293945,13C54.599998474121094,13.399999618530273,53.900001525878906,13.699999809265137,53.20000076293945,14C51.900001525878906,14.399999618530273,50.70000076293945,14.600000381469727,49.79999923706055,14.699999809265137C49.70000076293945,14.699999809265137,49.599998474121094,14.699999809265137,49.400001525878906,14.800000190734863C49.900001525878906,15.199999809265137,50.400001525878906,15.600000381469727,51,16C51.70000076293945,16.399999618530273,52.400001525878906,16.799999237060547,53,17.200000762939453C54.099998474121094,17.799999237060547,55.20000076293945,18.399999618530273,56.099998474121094,19.200000762939453C56.400001525878906,19.100000381469727,56.70000076293945,19.100000381469727,57.099998474121094,19.100000381469727C58.20000076293945,19,59.5,18.799999237060547,60.900001525878906,18.299999237060547C61.5,18.100000381469727,62.20000076293945,17.700000762939453,62.900001525878906,17.299999237060547C63.79999923706055,16.700000762939453,64.80000305175781,16.200000762939453,65.9000015258789,15.899999618530273C67.0999984741211,15.600000381469727,68.30000305175781,15.699999809265137,69.5,15.699999809265137C70.19999694824219,15.699999809265137,70.9000015258789,15.800000190734863,71.5,15.699999809265137C72.0999984741211,15.600000381469727,72.69999694824219,15.600000381469727,73.19999694824219,15.5C73.4000015258789,15.5,73.5,15.5,73.5999984741211,15.399999618530273C71.0999984741211,13.399999618530273,67.69999694824219,12,63.599998474121094,11.300000190734863zM75.5999984741211,16.399999618530273C75,16.399999618530273,74.4000015258789,16.5,73.69999694824219,16.600000381469727C73.0999984741211,16.700000762939453,72.5,16.799999237060547,71.9000015258789,16.799999237060547C71.19999694824219,16.899999618530273,70.4000015258789,16.799999237060547,69.69999694824219,16.799999237060547C68.5999984741211,16.700000762939453,67.5,16.700000762939453,66.5,16.899999618530273C65.5999984741211,17.100000381469727,64.69999694824219,17.700000762939453,63.79999923706055,18.200000762939453C63.099998474121094,18.600000381469727,62.29999923706055,19.100000381469727,61.5,19.299999237060547C60,19.799999237060547,58.5,20,57.400001525878906,20.100000381469727C57.400001525878906,20.100000381469727,57.400001525878906,20.100000381469727,57.29999923706055,20.100000381469727L57.29999923706055,20.100000381469727C58.599998474121094,21.799999237060547,59.20000076293945,23.600000381469727,59.5,24.700000762939453C63.099998474121094,24.5,67.0999984741211,24.299999237060547,70.19999694824219,24.899999618530273C70.30000305175781,24.700000762939453,70.4000015258789,24.5,70.5999984741211,24.5C71.0999984741211,24.299999237060547,71.5999984741211,24.299999237060547,72.0999984741211,24.299999237060547C72.5999984741211,24.299999237060547,73,24.200000762939453,73.4000015258789,24.100000381469727C73.80000305175781,24,74.0999984741211,23.799999237060547,74.5,23.600000381469727C75,23.299999237060547,75.5,23.100000381469727,76.0999984741211,23C76.80000305175781,22.799999237060547,77.5,22.899999618530273,78.0999984741211,23C78.5,23,78.80000305175781,23.100000381469727,79.0999984741211,23C79.4000015258789,23,79.5999984741211,23,79.9000015258789,22.899999618530273C80.0999984741211,22.899999618530273,80.30000305175781,22.899999618530273,80.5999984741211,22.799999237060547C79.5,20.399999618530273,77.69999694824219,18.200000762939453,75.5999984741211,16.399999618530273zM81.4000015258789,24.299999237060547C81.0999984741211,24.299999237060547,80.69999694824219,24.299999237060547,80.30000305175781,24.399999618530273C80,24.399999618530273,79.69999694824219,24.5,79.4000015258789,24.5C79,24.5,78.5999984741211,24.5,78.19999694824219,24.5C77.69999694824219,24.5,77.0999984741211,24.399999618530273,76.5999984741211,24.5C76.19999694824219,24.600000381469727,75.80000305175781,24.799999237060547,75.4000015258789,25C75,25.200000762939453,74.5,25.5,74,25.600000381469727C73.5999984741211,25.700000762939453,73.0999984741211,25.799999237060547,72.69999694824219,25.799999237060547C74.19999694824219,26.5,75.19999694824219,27.600000381469727,75.5999984741211,29.299999237060547C76,31.299999237060547,76.5999984741211,33.29999923706055,77.0999984741211,35.099998474121094C77.4000015258789,35,77.69999694824219,34.79999923706055,78,34.599998474121094C78.19999694824219,34.400001525878906,78.5,34.20000076293945,78.69999694824219,33.900001525878906C79,33.5,79.4000015258789,33.20000076293945,79.80000305175781,32.900001525878906C80.4000015258789,32.5,81.0999984741211,32.29999923706055,81.69999694824219,32.20000076293945C81.9000015258789,32.20000076293945,82.0999984741211,32.099998474121094,82.30000305175781,32.099998474121094C82.5999984741211,32,83,31.899999618530273,83.4000015258789,31.799999237060547C83.0999984741211,29.100000381469727,82.4000015258789,26.600000381469727,81.4000015258789,24.299999237060547zM82.0999984741211,33.599998474121094C81.5999984741211,33.70000076293945,81,33.79999923706055,80.5999984741211,34.099998474121094C80.30000305175781,34.29999923706055,80,34.599998474121094,79.69999694824219,34.900001525878906C79.4000015258789,35.20000076293945,79.0999984741211,35.5,78.80000305175781,35.79999923706055C78.4000015258789,36.099998474121094,77.9000015258789,36.29999923706055,77.5,36.5C78.5,39.900001525878906,79.4000015258789,42.5,79.5999984741211,43.5C79.69999694824219,44.20000076293945,79.69999694824219,45.29999923706055,79.80000305175781,46.29999923706055L79.9000015258789,46.20000076293945C80.19999694824219,45.79999923706055,80.5,45.400001525878906,80.80000305175781,44.79999923706055C80.9000015258789,44.5,81,44.20000076293945,81.0999984741211,43.79999923706055C81.19999694824219,43.400001525878906,81.30000305175781,42.900001525878906,81.5,42.5C81.80000305175781,41.900001525878906,82.19999694824219,41.400001525878906,82.5999984741211,41C82.80000305175781,40.79999923706055,82.9000015258789,40.599998474121094,83,40.5C83.30000305175781,40.099998474121094,83.5999984741211,39.70000076293945,84,39.5C84,37.400001525878906,84,35.29999923706055,83.80000305175781,33.400001525878906C83.5999984741211,33.400001525878906,83.30000305175781,33.5,82.9000015258789,33.599998474121094C82.5,33.5,82.30000305175781,33.599998474121094,82.0999984741211,33.599998474121094zM82.69999694824219,43C82.5,43.29999923706055,82.5,43.70000076293945,82.4000015258789,44.099998474121094C82.30000305175781,44.5,82.19999694824219,44.900001525878906,82,45.29999923706055C81.69999694824219,46,81.30000305175781,46.5,81,46.900001525878906C80.9000015258789,47.099998474121094,80.80000305175781,47.20000076293945,80.69999694824219,47.400001525878906C80.5999984741211,47.599998474121094,80.30000305175781,47.70000076293945,80.0999984741211,47.70000076293945C80,47.70000076293945,80,47.70000076293945,79.9000015258789,47.70000076293945C80,48.29999923706055,80.0999984741211,48.70000076293945,80.19999694824219,48.79999923706055C80.69999694824219,49.20000076293945,82.69999694824219,47.5,83.30000305175781,47C83.9000015258789,46.5,83.9000015258789,43.70000076293945,83.9000015258789,41.5C83.80000305175781,41.599998474121094,83.69999694824219,41.70000076293945,83.5999984741211,41.900001525878906C83.19999694824219,42.20000076293945,82.9000015258789,42.599998474121094,82.69999694824219,43z"/>
<path id="BodyBorder" d="M83.5999984741211,47.5L83.5999984741211,47.5C85.0999984741211,49,85.69999694824219,51.70000076293945,84.9000015258789,54.599998474121094C84.0999984741211,57.400001525878906,82.30000305175781,59.400001525878906,80.30000305175781,60L80.30000305175781,60C77,67.30000305175781,71.5,73.19999694824219,65.69999694824219,76.4000015258789L65.69999694824219,76.4000015258789C66.30000305175781,79.4000015258789,68,82.9000015258789,72,83.30000305175781L71.69999694824219,85.80000305175781C66.80000305175781,85.30000305175781,64.4000015258789,81.5,63.400001525878906,77.5999984741211C60.900001525878906,78.69999694824219,58.400001525878906,79.30000305175781,56.099998474121094,79.30000305175781C53.900001525878906,79.30000305175781,51.5,78.80000305175781,49.20000076293945,77.80000305175781C48.5,81.5999984741211,46.5,85.5999984741211,41.29999923706055,87.0999984741211L40.5,84.69999694824219C44.5,83.5,46.20000076293945,80.69999694824219,46.79999923706055,76.5999984741211L46.79999923706055,76.5999984741211C41,73.4000015258789,35.400001525878906,67.4000015258789,32,60L32,60C30,59.400001525878906,28.299999237060547,57.400001525878906,27.5,54.599998474121094C27,52.900001525878906,27,51.099998474121094,27.5,49.70000076293945C27.799999237060547,48.900001525878906,28.200000762939453,48.20000076293945,28.700000762939453,47.70000076293945L28.700000762939453,47.70000076293945L31.100000381469727,46.400001525878906C31.5,46.400001525878906,31.899999618530273,46.400001525878906,32.29999923706055,46.400001525878906C33,46.5,33.400001525878906,47.20000076293945,33.29999923706055,47.900001525878906C33.20000076293945,48.599998474121094,32.5,49,31.799999237060547,48.900001525878906C31.600000381469727,48.900001525878906,31.399999618530273,48.900001525878906,31.200000762939453,48.900001525878906C30.399999618530273,49.099998474121094,30,49.900001525878906,29.899999618530273,50.400001525878906C29.600000381469727,51.400001525878906,29.600000381469727,52.70000076293945,29.899999618530273,53.900001525878906C30.600000381469727,56.5,32.400001525878906,57.900001525878906,33.599998474121094,57.599998474121094C34.29999923706055,57.400001525878906,35,57.79999923706055,35.099998474121094,58.5C35.20000076293945,59,35.099998474121094,59.5,34.70000076293945,59.79999923706055C39.599998474121094,69.69999694824219,48.599998474121094,76.69999694824219,56.099998474121094,76.69999694824219C63.900001525878906,76.69999694824219,72.9000015258789,69.69999694824219,77.69999694824219,59.70000076293945L77.69999694824219,59.70000076293945C77.30000305175781,59.400001525878906,77.0999984741211,58.900001525878906,77.30000305175781,58.400001525878906C77.5,57.70000076293945,78.19999694824219,57.29999923706055,78.80000305175781,57.5C80,57.79999923706055,81.80000305175781,56.400001525878906,82.5,53.900001525878906C83.19999694824219,51.400001525878906,82.4000015258789,49.20000076293945,81.19999694824219,48.900001525878906C80.9000015258789,48.79999923706055,80.5999984741211,48.79999923706055,80.19999694824219,49C79.5999984741211,49.20000076293945,78.80000305175781,48.900001525878906,78.5999984741211,48.20000076293945C78.4000015258789,47.5,78.69999694824219,46.79999923706055,79.4000015258789,46.599998474121094C80,46.400001525878906,80.5999984741211,46.29999923706055,81.19999694824219,46.400001525878906L83.5999984741211,47.5zM137.5,94.5C134.60000610351562,95.0999984741211,132.5,98.30000305175781,130.1999969482422,101.5999984741211C129.1999969482422,103,128.3000030517578,104.4000015258789,127.19999694824219,105.69999694824219C126.80000305175781,106.19999694824219,126.19999694824219,106.30000305175781,125.69999694824219,106C125.19999694824219,105.69999694824219,124.9000015258789,105.0999984741211,125.0999984741211,104.5999984741211C125.5999984741211,102.80000305175781,126,99.5,125,98.19999694824219C124.80000305175781,98,124.5,97.69999694824219,123.9000015258789,97.5999984741211C123.5999984741211,98.5999984741211,123.5,99.80000305175781,123.30000305175781,101.0999984741211C123.0999984741211,102.69999694824219,122.9000015258789,104.30000305175781,122.4000015258789,105.4000015258789C120.69999694824219,108.80000305175781,121.9000015258789,113.5,121.9000015258789,113.5999984741211C122,114,121.9000015258789,114.4000015258789,121.69999694824219,114.69999694824219C120.9000015258789,115.69999694824219,120.19999694824219,116.69999694824219,119.4000015258789,117.5999984741211L117.5,116C118.0999984741211,115.19999694824219,118.69999694824219,114.4000015258789,119.30000305175781,113.69999694824219C119,112.0999984741211,118.4000015258789,107.9000015258789,120.0999984741211,104.4000015258789C120.5,103.69999694824219,120.5999984741211,102.30000305175781,120.80000305175781,100.9000015258789C121,99.0999984741211,121.19999694824219,97.30000305175781,121.9000015258789,96C122.0999984741211,95.5999984741211,122.4000015258789,95.4000015258789,122.9000015258789,95.30000305175781C123.19999694824219,95.30000305175781,123.4000015258789,95.19999694824219,123.69999694824219,95.19999694824219C125.0999984741211,95.19999694824219,126.30000305175781,95.69999694824219,127.0999984741211,96.80000305175781C127.9000015258789,97.80000305175781,128.1999969482422,99.0999984741211,128.1999969482422,100.5C128.1999969482422,100.4000015258789,128.3000030517578,100.4000015258789,128.3000030517578,100.30000305175781C131.10000610351562,96.19999694824219,134,92,138.6999969482422,92C139.39999389648438,92,140.1999969482422,92.0999984741211,141,92.30000305175781C141.10000610351562,92.30000305175781,141.3000030517578,92.4000015258789,141.39999389648438,92.5C146,95.69999694824219,144.10000610351562,105.69999694824219,142.39999389648438,108.5C141.5,109.9000015258789,138.89999389648438,112.19999694824219,134.6999969482422,115.69999694824219C132.3000030517578,117.69999694824219,129.8000030517578,119.80000305175781,128.3000030517578,121.30000305175781C127.80000305175781,122,127.30000305175781,122.80000305175781,126.80000305175781,123.5999984741211L125.0999984741211,121.69999694824219C125.5,121.0999984741211,125.9000015258789,120.5,126.30000305175781,119.80000305175781C126.30000305175781,119.69999694824219,126.4000015258789,119.69999694824219,126.4000015258789,119.5999984741211C127.9000015258789,118,130.5,115.80000305175781,133,113.69999694824219C136,111.19999694824219,139.5,108.30000305175781,140.1999969482422,107.0999984741211C140.6999969482422,106.30000305175781,141.1999969482422,104.5,141.5,102.5C139.39999389648438,104.80000305175781,137.3000030517578,107.4000015258789,137.3000030517578,107.5C137.10000610351562,107.69999694824219,136.8000030517578,107.9000015258789,136.5,107.9000015258789C136.3000030517578,107.9000015258789,136.10000610351562,107.80000305175781,135.89999389648438,107.69999694824219C135.5,107.4000015258789,135.39999389648438,106.69999694824219,135.8000030517578,106.30000305175781C136,106.0999984741211,139.1999969482422,102.0999984741211,141.8000030517578,99.5C141.8000030517578,99,141.8000030517578,98.5,141.6999969482422,98C138.6999969482422,101,136.10000610351562,104.0999984741211,136.10000610351562,104.0999984741211C135.89999389648438,104.30000305175781,135.60000610351562,104.5,135.3000030517578,104.5C135.10000610351562,104.5,134.89999389648438,104.4000015258789,134.6999969482422,104.30000305175781C134.3000030517578,103.9000015258789,134.1999969482422,103.30000305175781,134.60000610351562,102.9000015258789C134.6999969482422,102.69999694824219,137.6999969482422,99.0999984741211,141.10000610351562,95.80000305175781L141.10000610351562,95.80000305175781C140.89999389648438,95.4000015258789,140.6999969482422,95,140.39999389648438,94.80000305175781L140.39999389648438,94.80000305175781C138.39999389648438,97,135.6999969482422,100.0999984741211,135.39999389648438,100.80000305175781C135.1999969482422,101.19999694824219,134.89999389648438,101.4000015258789,134.5,101.4000015258789C134.39999389648438,101.4000015258789,134.1999969482422,101.4000015258789,134.10000610351562,101.30000305175781C133.60000610351562,101.0999984741211,133.39999389648438,100.5,133.60000610351562,100C133.60000610351562,99,135.8000030517578,96.5,137.5,94.5zM128.8000030517578,113.5999984741211C129.5,112.69999694824219,131.10000610351562,108.69999694824219,130.6999969482422,106.5999984741211C130.60000610351562,106.0999984741211,130.10000610351562,105.69999694824219,129.5,105.80000305175781C129,105.9000015258789,128.60000610351562,106.4000015258789,128.6999969482422,107C128.89999389648438,108.30000305175781,127.69999694824219,111.80000305175781,127.19999694824219,112.4000015258789C126.9000015258789,112.80000305175781,126.9000015258789,113.5,127.4000015258789,113.80000305175781C127.5999984741211,113.9000015258789,127.80000305175781,114,128,114C128.3000030517578,113.9000015258789,128.60000610351562,113.80000305175781,128.8000030517578,113.5999984741211zM27,197.89999389648438C26.899999618530273,197.89999389648438,26.700000762939453,197.8000030517578,26.600000381469727,197.8000030517578C25.299999237060547,196.89999389648438,22.600000381469727,193.8000030517578,22.100000381469727,192.3000030517578C22,191.8000030517578,21.5,191.60000610351562,21,191.6999969482422C20.5,191.8000030517578,20.299999237060547,192.3000030517578,20.399999618530273,192.8000030517578C20.5,193,20.600000381469727,193.3000030517578,20.700000762939453,193.60000610351562L20.700000762939453,193.60000610351562C19.899999618530273,192.5,19.5,191.60000610351562,19.5,191.60000610351562C19.100000381469727,190.3000030517578,19,180.3000030517578,19.200000762939453,177.5C19.399999618530273,175.89999389648438,18.899999618530273,173.8000030517578,18.600000381469727,172.89999389648438L16.200000762939453,173.6999969482422C16.5,174.6999969482422,16.799999237060547,176.1999969482422,16.700000762939453,177.3000030517578C16.600000381469727,178.8000030517578,16.299999237060547,190.6999969482422,17.100000381469727,192.60000610351562C18,194.8000030517578,21.899999618530273,200.5,28.399999618530273,200.5C28.899999618530273,200.5,29.399999618530273,200.5,29.899999618530273,200.39999389648438C32.20000076293945,200.10000610351562,33.599998474121094,199.1999969482422,34,197.8000030517578C34.70000076293945,195.6999969482422,32.900001525878906,193.1999969482422,31.700000762939453,191.8000030517578C32.20000076293945,191.89999389648438,32.70000076293945,192,33.29999923706055,191.8000030517578C33.70000076293945,191.6999969482422,34,191.5,34.099998474121094,191.1999969482422C36.599998474121094,186.6999969482422,32.20000076293945,180.89999389648438,30.600000381469727,178.6999969482422C30.399999618530273,178.5,30.299999237060547,178.3000030517578,30.200000762939453,178.1999969482422C29.799999237060547,177.60000610351562,29.399999618530273,177.10000610351562,28.899999618530273,176.60000610351562C27.899999618530273,175.39999389648438,27.100000381469727,174.39999389648438,26.700000762939453,172.3000030517578L24.200000762939453,172.8000030517578C24.700000762939453,175.5,25.899999618530273,177,27,178.1999969482422C27.399999618530273,178.6999969482422,27.799999237060547,179.10000610351562,28.100000381469727,179.60000610351562C28.200000762939453,179.6999969482422,28.399999618530273,180,28.600000381469727,180.3000030517578C29.799999237060547,181.8000030517578,33.099998474121094,186.1999969482422,32.20000076293945,189.3000030517578C31.799999237060547,188.89999389648438,31.600000381469727,187.89999389648438,31.5,187.1999969482422C31.5,187,31.5,186.6999969482422,31.5,186.5C31.5,185.8000030517578,30.899999618530273,185.3000030517578,30.200000762939453,185.3000030517578C29.899999618530273,185.3000030517578,29.5,185.39999389648438,29.299999237060547,185.6999969482422C28.899999618530273,186.10000610351562,28.899999618530273,186.5,29,187.3000030517578C29,188,28.899999618530273,188.6999969482422,28.799999237060547,189.3000030517578C28.700000762939453,190.3000030517578,28.600000381469727,191.1999969482422,28.700000762939453,192C28.700000762939453,192.3000030517578,28.899999618530273,192.5,29.100000381469727,192.6999969482422C30.299999237060547,193.89999389648438,31.899999618530273,196.10000610351562,31.600000381469727,197C31.5,197.39999389648438,30.799999237060547,197.6999969482422,29.799999237060547,197.89999389648438L29.799999237060547,197.89999389648438C29.700000762939453,197.8000030517578,29.600000381469727,197.8000030517578,29.399999618530273,197.8000030517578C28.5,197.39999389648438,25.5,193.3000030517578,24.100000381469727,191.1999969482422C23.799999237060547,190.8000030517578,23.299999237060547,190.60000610351562,22.899999618530273,190.89999389648438C22.5,191.1999969482422,22.299999237060547,191.6999969482422,22.600000381469727,192.10000610351562C23,192.60000610351562,25,195.8000030517578,27,197.89999389648438L27,197.89999389648438L27,197.89999389648438z"/>
<path id="Undershirt" fill="#FF5917" d="M43.599998474121094,88.9000015258789C59.599998474121094,93.5,71.5,88.9000015258789,71.5,88.9000015258789L57.70000076293945,109.5L43.599998474121094,88.9000015258789z"/>
<path id="UndershirtBorder" d="M57.70000076293945,110.69999694824219C57.29999923706055,110.69999694824219,56.900001525878906,110.5,56.70000076293945,110.19999694824219L42.5,89.5999984741211C42.20000076293945,89.19999694824219,42.20000076293945,88.5999984741211,42.5,88.19999694824219C42.79999923706055,87.80000305175781,43.400001525878906,87.5999984741211,43.900001525878906,87.69999694824219C48.5,89,53.20000076293945,89.69999694824219,57.900001525878906,89.69999694824219C65.9000015258789,89.69999694824219,71,87.80000305175781,71,87.69999694824219C71.5,87.5,72.0999984741211,87.69999694824219,72.4000015258789,88.0999984741211C72.69999694824219,88.5,72.80000305175781,89.0999984741211,72.5,89.5999984741211L58.70000076293945,110.19999694824219C58.5,110.5,58.099998474121094,110.69999694824219,57.70000076293945,110.69999694824219L57.70000076293945,110.69999694824219zM46.5,90.9000015258789L57.70000076293945,107.19999694824219L68.5999984741211,91C66.19999694824219,91.5999984741211,62.5,92.19999694824219,57.900001525878906,92.19999694824219C54.099998474121094,92.19999694824219,50.29999923706055,91.80000305175781,46.5,90.9000015258789z"/>
<path id="Shirt" fill="#FFE843" d="M43.5,83C39.29999923706055,84.19999694824219,31.200000762939453,87.19999694824219,27.5,90.19999694824219C18,96.9000015258789,13.100000381469727,134.6999969482422,13.100000381469727,134.6999969482422C13.100000381469727,134.6999969482422,11.600000381469727,166.10000610351562,12.899999618530273,167.10000610351562C14.199999809265137,168.10000610351562,14.399999618530273,173.8000030517578,14.399999618530273,173.8000030517578C14.399999618530273,173.8000030517578,23.700000762939453,175.5,26,172.5C26.399999618530273,171,26.100000381469727,168.10000610351562,27.200000762939453,167.6999969482422C27.700000762939453,167.5,29.399999618530273,144.1999969482422,29.399999618530273,144.1999969482422L33,124L33.79999923706055,151.5L31.700000762939453,167.39999389648438C31.700000762939453,167.39999389648438,31.700000762939453,176.6999969482422,32.70000076293945,177.8000030517578C33.70000076293945,179,50.900001525878906,179.39999389648438,61.29999923706055,179.39999389648438C71.69999694824219,179.39999389648438,92.5,178.6999969482422,91.30000305175781,176.39999389648438C88.0999984741211,172,91.9000015258789,166.60000610351562,89.30000305175781,164.60000610351562C89.30000305175781,164.1999969482422,90.30000305175781,162.5,90.19999694824219,161.5C90.0999984741211,161,88.4000015258789,160.60000610351562,88.30000305175781,159.10000610351562C87.4000015258789,148.8000030517578,86.0999984741211,120.9000015258789,86.0999984741211,120.9000015258789C86.0999984741211,120.9000015258789,90.5,143.6999969482422,92.9000015258789,148.8000030517578C95.30000305175781,153.89999389648438,98.5999984741211,156,103.4000015258789,153.89999389648438C106.80000305175781,152.39999389648438,124.0999984741211,131.60000610351562,123.5999984741211,130.5C122.69999694824219,128.10000610351562,126.80000305175781,123.69999694824219,126.80000305175781,123.69999694824219L118,115.80000305175781C118,115.80000305175781,115.19999694824219,120.80000305175781,113.5,120.5999984741211C112.0999984741211,120.5999984741211,104.19999694824219,129.3000030517578,104.19999694824219,129.3000030517578L102.4000015258789,120.9000015258789C102.4000015258789,120.9000015258789,96.4000015258789,91.9000015258789,84.4000015258789,87.4000015258789C79.80000305175781,85.69999694824219,71.4000015258789,82.5999984741211,71.19999694824219,83.0999984741211C71,83.5999984741211,57.900001525878906,101.4000015258789,57.900001525878906,101.4000015258789L43.5,83z"/>
<path id="ShirtBorder" d="M61.29999923706055,180.6999969482422C50.900001525878906,180.6999969482422,33.29999923706055,180.39999389648438,31.700000762939453,178.6999969482422C30.600000381469727,177.39999389648438,30.399999618530273,171.89999389648438,30.399999618530273,167.5C30.399999618530273,167.39999389648438,30.399999618530273,167.39999389648438,30.399999618530273,167.3000030517578L32.5,151.5L32.099998474121094,136L30.600000381469727,144.3000030517578C28.899999618530273,167.10000610351562,28.600000381469727,168.39999389648438,27.799999237060547,168.8000030517578C27.600000381469727,169.1999969482422,27.600000381469727,170.1999969482422,27.5,170.8000030517578C27.399999618530273,171.5,27.399999618530273,172.3000030517578,27.200000762939453,172.89999389648438C27.200000762939453,173.10000610351562,27.100000381469727,173.1999969482422,27,173.3000030517578C25.799999237060547,174.8000030517578,23.5,175.5,19.799999237060547,175.5C16.899999618530273,175.5,14.300000190734863,175,14.199999809265137,175C13.600000381469727,174.89999389648438,13.199999809265137,174.39999389648438,13.199999809265137,173.8000030517578C13.100000381469727,171.3000030517578,12.600000381469727,168.5,12.199999809265137,168.10000610351562C11.600000381469727,167.60000610351562,10.300000190734863,166.6999969482422,11.899999618530273,134.60000610351562L11.899999618530273,134.5C12.100000381469727,132.89999389648438,17.100000381469727,96.0999984741211,26.799999237060547,89.19999694824219C30.5,86.0999984741211,38.70000076293945,83.0999984741211,43.20000076293945,81.80000305175781C43.70000076293945,81.69999694824219,44.20000076293945,81.80000305175781,44.5,82.19999694824219L57.79999923706055,99.4000015258789C62.79999923706055,92.69999694824219,69.5,83.5,70,82.5999984741211C70.19999694824219,82.19999694824219,70.5999984741211,81.80000305175781,71.30000305175781,81.80000305175781C72.0999984741211,81.80000305175781,74.30000305175781,82.30000305175781,84.80000305175781,86.30000305175781C97.30000305175781,91,103.30000305175781,119.5,103.5999984741211,120.69999694824219L104.9000015258789,126.69999694824219C111.69999694824219,119.4000015258789,112.9000015258789,119.4000015258789,113.4000015258789,119.4000015258789C113.5,119.4000015258789,113.5,119.4000015258789,113.5,119.4000015258789C114.0999984741211,119.19999694824219,115.69999694824219,117.30000305175781,116.80000305175781,115.30000305175781C117,115,117.30000305175781,114.69999694824219,117.69999694824219,114.69999694824219C118.0999984741211,114.5999984741211,118.5,114.69999694824219,118.69999694824219,115L127.5,122.9000015258789C127.69999694824219,123.0999984741211,127.9000015258789,123.4000015258789,127.9000015258789,123.80000305175781C127.9000015258789,124.0999984741211,127.80000305175781,124.5,127.5999984741211,124.69999694824219C125.9000015258789,126.5999984741211,124.30000305175781,129.3000030517578,124.69999694824219,130.3000030517578C125,130.89999389648438,125.4000015258789,131.89999389648438,115.80000305175781,143.10000610351562C113,146.39999389648438,106.19999694824219,154.1999969482422,103.80000305175781,155.3000030517578C98.69999694824219,157.5,94.5,155.60000610351562,91.69999694824219,149.60000610351562C90.69999694824219,147.39999389648438,89.30000305175781,142.3000030517578,88.0999984741211,137C88.5,145.10000610351562,89.0999984741211,154.3000030517578,89.5,159.3000030517578C89.5,159.60000610351562,89.69999694824219,159.8000030517578,90.30000305175781,160.10000610351562C90.69999694824219,160.39999389648438,91.4000015258789,160.8000030517578,91.4000015258789,161.60000610351562C91.5,162.5,91.0999984741211,163.60000610351562,90.69999694824219,164.39999389648438L90.69999694824219,164.5C91.80000305175781,165.8000030517578,91.5999984741211,167.6999969482422,91.4000015258789,169.60000610351562C91.19999694824219,171.8000030517578,90.9000015258789,174,92.30000305175781,175.89999389648438C92.30000305175781,176,92.4000015258789,176,92.4000015258789,176.10000610351562C92.69999694824219,176.60000610351562,92.5999984741211,177.1999969482422,92.30000305175781,177.6999969482422C90.5999984741211,180.39999389648438,70.0999984741211,180.6999969482422,61.29999923706055,180.6999969482422zM124.9000015258789,123.80000305175781L118.0999984741211,117.80000305175781C116.9000015258789,119.69999694824219,115.0999984741211,121.9000015258789,113.4000015258789,121.9000015258789L113.4000015258789,121.9000015258789C112.30000305175781,122.5,108.19999694824219,126.5999984741211,104.9000015258789,130.1999969482422C104.69999694824219,130.39999389648438,104.4000015258789,130.60000610351562,104.19999694824219,130.60000610351562L104.5,134.8000030517578C104.5,135.39999389648438,104.0999984741211,135.8000030517578,103.5999984741211,135.89999389648438C103.5999984741211,135.89999389648438,103.5999984741211,135.89999389648438,103.5,135.89999389648438C103,135.89999389648438,102.5,135.5,102.5,135L102.19999694824219,131.10000610351562C100.9000015258789,132.5,99.5999984741211,134,99.30000305175781,134.89999389648438C99.0999984741211,135.39999389648438,98.5999984741211,135.6999969482422,98,135.5C97.5,135.3000030517578,97.19999694824219,134.8000030517578,97.4000015258789,134.1999969482422C98.0999984741211,132.1999969482422,101.9000015258789,128.5,102.4000015258789,128.10000610351562C102.4000015258789,128.10000610351562,102.4000015258789,128.10000610351562,102.5,128L102.5,128L101.0999984741211,121.30000305175781C101,121,95.0999984741211,93,83.9000015258789,88.80000305175781C75.9000015258789,85.80000305175781,72.9000015258789,84.80000305175781,71.80000305175781,84.5999984741211C70.80000305175781,86.0999984741211,67.80000305175781,90.19999694824219,58.79999923706055,102.4000015258789C58.599998474121094,102.69999694824219,58.20000076293945,102.9000015258789,57.79999923706055,102.9000015258789C57.400001525878906,102.9000015258789,57,102.69999694824219,56.79999923706055,102.4000015258789L43,84.4000015258789C38.5,85.80000305175781,31.399999618530273,88.5999984741211,28.299999237060547,91.0999984741211C20.899999618530273,96.4000015258789,15.699999809265137,124.30000305175781,14.300000190734863,134.6999969482422C13.600000381469727,148.5,13.300000190734863,164,13.899999618530273,166.1999969482422C15.100000381469727,167.5,15.5,170.60000610351562,15.600000381469727,172.60000610351562C16.600000381469727,172.6999969482422,18.200000762939453,172.89999389648438,19.799999237060547,172.89999389648438C23.100000381469727,172.89999389648438,24.399999618530273,172.1999969482422,24.799999237060547,171.8000030517578C24.899999618530273,171.39999389648438,24.899999618530273,170.89999389648438,24.899999618530273,170.39999389648438C25,169,25.100000381469727,167.5,26,166.6999969482422C26.399999618530273,164.3000030517578,27.5,151.6999969482422,28,143.89999389648438L28,143.8000030517578L31.600000381469727,123.69999694824219C31.600000381469727,123.5,31.700000762939453,123.4000015258789,31.799999237060547,123.30000305175781C31.600000381469727,120.5999984741211,30.600000381469727,115.4000015258789,30.600000381469727,115.4000015258789C30.5,114.9000015258789,30.899999618530273,114.30000305175781,31.399999618530273,114.19999694824219C31.899999618530273,114.0999984741211,32.5,114.5,32.599998474121094,115C32.599998474121094,115.19999694824219,33.5,120.19999694824219,33.79999923706055,123.0999984741211L33.79999923706055,123.0999984741211C34,123.30000305175781,34.099998474121094,123.5999984741211,34.099998474121094,123.9000015258789L34.900001525878906,151.39999389648438C34.900001525878906,151.5,34.900001525878906,151.5,34.900001525878906,151.60000610351562L33,167.5C33,171.3000030517578,33.29999923706055,175.8000030517578,33.70000076293945,176.89999389648438C35.79999923706055,177.60000610351562,48.20000076293945,178.1999969482422,61.400001525878906,178.1999969482422C74.5,178.1999969482422,86.80000305175781,177.39999389648438,89.9000015258789,176.3000030517578C88.5,173.8000030517578,88.80000305175781,171.1999969482422,89,169.10000610351562C89.19999694824219,167.3000030517578,89.30000305175781,166.1999969482422,88.69999694824219,165.6999969482422L88.5999984741211,165.60000610351562C86.5999984741211,167.10000610351562,83,168.8000030517578,82.19999694824219,169.1999969482422C82.0999984741211,169.3000030517578,81.9000015258789,169.3000030517578,81.80000305175781,169.3000030517578C81.4000015258789,169.3000030517578,81.0999984741211,169.10000610351562,80.9000015258789,168.6999969482422C80.69999694824219,168.1999969482422,80.9000015258789,167.60000610351562,81.4000015258789,167.39999389648438C83.80000305175781,166.3000030517578,87.4000015258789,164.3000030517578,88.0999984741211,163.39999389648438C88.30000305175781,163.1999969482422,88.5,163.10000610351562,88.69999694824219,163C88.80000305175781,162.6999969482422,89,162.1999969482422,89.0999984741211,161.89999389648438L89.0999984741211,161.89999389648438C88.5,161.5,87.4000015258789,160.6999969482422,87.30000305175781,159.1999969482422C86.4000015258789,149,85.0999984741211,121.30000305175781,85.0999984741211,121C85.0999984741211,120.69999694824219,85.19999694824219,120.5,85.30000305175781,120.30000305175781L85.30000305175781,120.30000305175781C85.5,117.5,86.19999694824219,115.0999984741211,86.30000305175781,114.9000015258789C86.4000015258789,114.4000015258789,87,114.0999984741211,87.5,114.19999694824219C88,114.4000015258789,88.30000305175781,114.9000015258789,88.19999694824219,115.4000015258789C88.19999694824219,115.4000015258789,87.5999984741211,117.5999984741211,87.30000305175781,120.0999984741211C87.4000015258789,120.30000305175781,87.5,120.4000015258789,87.5999984741211,120.69999694824219C87.5999984741211,120.9000015258789,92,143.39999389648438,94.30000305175781,148.3000030517578C95.9000015258789,151.8000030517578,97.9000015258789,153.5,100.19999694824219,153.5C101.0999984741211,153.5,102.0999984741211,153.3000030517578,103.0999984741211,152.8000030517578C105.9000015258789,151.60000610351562,121,133.60000610351562,122.5,130.5C121.80000305175781,128.3000030517578,123.69999694824219,125.4000015258789,124.9000015258789,123.80000305175781zM61.29999923706055,159.39999389648438C61.29999923706055,158.8000030517578,60.900001525878906,158.39999389648438,60.400001525878906,158.3000030517578C53.400001525878906,157.6999969482422,45.900001525878906,152.8000030517578,45.900001525878906,152.8000030517578C45.400001525878906,152.5,44.79999923706055,152.60000610351562,44.5,153.10000610351562C44.20000076293945,153.60000610351562,44.29999923706055,154.1999969482422,44.79999923706055,154.5C45.099998474121094,154.6999969482422,52.79999923706055,159.60000610351562,60.29999923706055,160.3000030517578L60.400001525878906,160.3000030517578C60.79999923706055,160.3000030517578,61.29999923706055,159.89999389648438,61.29999923706055,159.39999389648438z"/>
<path id="NoseMouth" d="M57.099998474121094,67.5999984741211C54.70000076293945,67.5999984741211,51.599998474121094,67.0999984741211,49.099998474121094,65.30000305175781C48.79999923706055,65.0999984741211,48.70000076293945,64.5999984741211,49,64.19999694824219C49.20000076293945,63.900001525878906,49.70000076293945,63.79999923706055,50.099998474121094,64.0999984741211C54.29999923706055,67.30000305175781,60.70000076293945,65.80000305175781,60.79999923706055,65.80000305175781C61.20000076293945,65.69999694824219,61.599998474121094,65.9000015258789,61.70000076293945,66.4000015258789C61.79999923706055,66.80000305175781,61.599998474121094,67.19999694824219,61.099998474121094,67.30000305175781C61,67.19999694824219,59.29999923706055,67.5999984741211,57.099998474121094,67.5999984741211zM59.900001525878906,60C60.599998474121094,59.5,61.5,58.5,61.5,56.79999923706055C61.5,55.900001525878906,61.20000076293945,55.20000076293945,60.5,54.599998474121094C59,53.29999923706055,56.099998474121094,53.79999923706055,55.79999923706055,53.79999923706055C55.400001525878906,53.900001525878906,55.099998474121094,54.29999923706055,55.20000076293945,54.70000076293945C55.29999923706055,55.099998474121094,55.70000076293945,55.400001525878906,56.099998474121094,55.29999923706055C56.79999923706055,55.20000076293945,58.70000076293945,55,59.599998474121094,55.79999923706055C59.900001525878906,56,60,56.400001525878906,60,56.79999923706055C60,57.70000076293945,59.70000076293945,58.29999923706055,59.099998474121094,58.79999923706055C58.20000076293945,59.400001525878906,57,59.400001525878906,56.5,59.20000076293945C56.099998474121094,59.099998474121094,55.70000076293945,59.29999923706055,55.5,59.599998474121094C55.400001525878906,60,55.599998474121094,60.400001525878906,55.900001525878906,60.599998474121094C56.29999923706055,60.70000076293945,56.79999923706055,60.79999923706055,57.29999923706055,60.79999923706055C58.099998474121094,60.79999923706055,59.099998474121094,60.599998474121094,59.900001525878906,60z"/>
<path id="EyeWhites" fill="#FFFFFF" d="M51.5,48.20000076293945C51.29999923706055,49.70000076293945,49.5,50.900001525878906,46.599998474121094,50.900001525878906C43.70000076293945,50.900001525878906,41.29999923706055,49.5,40.70000076293945,47.5C40.20000076293945,45.79999923706055,43.099998474121094,44.29999923706055,46.099998474121094,44.29999923706055S51.70000076293945,46.5,51.5,48.20000076293945zM62.099998474121094,48.20000076293945C62.29999923706055,49.70000076293945,64.0999984741211,50.900001525878906,67,50.900001525878906C69.9000015258789,50.900001525878906,72.4000015258789,49.599998474121094,72.80000305175781,47.5C73.0999984741211,45.70000076293945,70.4000015258789,44.29999923706055,67.4000015258789,44.29999923706055C64.5999984741211,44.29999923706055,62,46.5,62.099998474121094,48.20000076293945z"/>
<path id="Eyes" d="M43.900001525878906,47.29999923706055C43.79999923706055,49,45.099998474121094,50.400001525878906,46.79999923706055,50.400001525878906C48.5,50.5,49.900001525878906,49.20000076293945,49.900001525878906,47.5C50,45.79999923706055,48.70000076293945,44.400001525878906,47,44.400001525878906C47,44.400001525878906,47,44.400001525878906,46.900001525878906,44.400001525878906C45.29999923706055,44.400001525878906,44,45.70000076293945,43.900001525878906,47.29999923706055zM69.80000305175781,47.29999923706055C69.9000015258789,49,68.5999984741211,50.400001525878906,67,50.5C65.30000305175781,50.599998474121094,63.900001525878906,49.29999923706055,63.79999923706055,47.70000076293945C63.70000076293945,46,65,44.599998474121094,66.5999984741211,44.5C66.5999984741211,44.5,66.5999984741211,44.5,66.69999694824219,44.5C68.30000305175781,44.400001525878906,69.69999694824219,45.70000076293945,69.80000305175781,47.29999923706055z"/>
<path id="EyeLids" d="M51.400001525878906,49.400001525878906L51.400001525878906,49.400001525878906C51,49.400001525878906,50.599998474121094,49,50.599998474121094,48.599998474121094C50.599998474121094,47.900001525878906,50.400001525878906,47.20000076293945,49.79999923706055,46.599998474121094C49,45.70000076293945,47.599998474121094,45.099998474121094,46.20000076293945,45.099998474121094C44,45,41.599998474121094,45.79999923706055,41.5,47.79999923706055C41.5,48.20000076293945,41.099998474121094,48.5,40.70000076293945,48.5C40.29999923706055,48.5,40,48.099998474121094,40,47.70000076293945C40.099998474121094,45.099998474121094,42.599998474121094,43.5,46.20000076293945,43.599998474121094C48,43.70000076293945,49.70000076293945,44.400001525878906,50.79999923706055,45.599998474121094C51.599998474121094,46.5,52,47.599998474121094,52,48.70000076293945C52.099998474121094,49.099998474121094,51.79999923706055,49.400001525878906,51.400001525878906,49.400001525878906zM62.29999923706055,49.400001525878906C62.70000076293945,49.400001525878906,63,49,63,48.599998474121094C63,47.900001525878906,63.20000076293945,47.20000076293945,63.79999923706055,46.599998474121094C64.5999984741211,45.70000076293945,66,45.099998474121094,67.4000015258789,45.099998474121094C69.0999984741211,45,70.5,45.400001525878906,71.30000305175781,46.20000076293945C71.80000305175781,46.599998474121094,72,47.20000076293945,72,47.79999923706055C72,48.20000076293945,72.4000015258789,48.5,72.80000305175781,48.5C73.19999694824219,48.5,73.5,48.099998474121094,73.5,47.70000076293945C73.5,46.70000076293945,73,45.79999923706055,72.30000305175781,45.099998474121094C71.19999694824219,44.099998474121094,69.4000015258789,43.5,67.30000305175781,43.599998474121094C65.4000015258789,43.70000076293945,63.70000076293945,44.400001525878906,62.599998474121094,45.599998474121094C61.79999923706055,46.5,61.400001525878906,47.599998474121094,61.400001525878906,48.70000076293945C61.5,49.099998474121094,61.900001525878906,49.400001525878906,62.29999923706055,49.400001525878906L62.29999923706055,49.400001525878906z"/>
<path id="EyeBrows" d="M74.5999984741211,44.29999923706055C74.5,44.29999923706055,74.5,44.29999923706055,74.5999984741211,44.29999923706055C74,44.29999923706055,73.5999984741211,43.79999923706055,73.5999984741211,43.29999923706055C73.5999984741211,42.29999923706055,73.0999984741211,41.29999923706055,72.19999694824219,40.599998474121094C71.0999984741211,39.70000076293945,69.5999984741211,39.20000076293945,68,39.20000076293945C65.19999694824219,39.099998474121094,64.0999984741211,39.79999923706055,63.5,40.5C63.099998474121094,40.900001525878906,62.5,40.900001525878906,62.099998474121094,40.5C61.70000076293945,40.099998474121094,61.70000076293945,39.5,62.099998474121094,39.099998474121094C63.400001525878906,37.70000076293945,65.4000015258789,37.099998474121094,68.0999984741211,37.20000076293945C70.0999984741211,37.29999923706055,72,38,73.4000015258789,39.099998474121094C74.9000015258789,40.29999923706055,75.69999694824219,41.900001525878906,75.5999984741211,43.5C75.5,43.900001525878906,75.0999984741211,44.29999923706055,74.5999984741211,44.29999923706055zM37.79999923706055,44.5C38.400001525878906,44.5,38.79999923706055,44,38.70000076293945,43.400001525878906C38.5,41.29999923706055,41,39.29999923706055,44.20000076293945,39C46.900001525878906,38.79999923706055,48,39.400001525878906,48.70000076293945,40.099998474121094C49.099998474121094,40.5,49.70000076293945,40.5,50.099998474121094,40.099998474121094C50.5,39.70000076293945,50.5,39.099998474121094,50.099998474121094,38.70000076293945C48.70000076293945,37.29999923706055,46.70000076293945,36.79999923706055,44.099998474121094,37.099998474121094C39.79999923706055,37.5,36.5,40.400001525878906,36.79999923706055,43.599998474121094C36.79999923706055,44.099998474121094,37.20000076293945,44.5,37.79999923706055,44.5L37.79999923706055,44.5z"/>
</g>
</svg>