<svg xmlns="http://www.w3.org/2000/svg" xmlns:xlink="http://www.w3.org/1999/xlink" viewBox= "0 0 134 310" width="134px" height="310px">
<g xmlns="http://www.w3.org/2000/svg" id="Boy3V2.svg">
<path id="Shoes" fill="#FFFFFF" d="M61.29999923706055,279.79998779296875C63.70000076293945,278.79998779296875,65.5999984741211,278,67.0999984741211,277.29998779296875C67.0999984741211,277.5,67.19999694824219,277.70001220703125,67.30000305175781,277.8999938964844C67.80000305175781,278.8999938964844,68.80000305175781,285.5,68.9000015258789,287.70001220703125C69,289.8999938964844,63.599998474121094,291.1000061035156,60.70000076293945,292.3999938964844C57.79999923706055,293.70001220703125,57.29999923706055,297.1000061035156,50.70000076293945,297.79998779296875C44.099998474121094,298.5,40.099998474121094,296.29998779296875,39.70000076293945,293.20001220703125C39.29999923706055,290.1000061035156,39.20000076293945,287.29998779296875,42.400001525878906,284.8999938964844C45.599998474121094,282.5,51.29999923706055,280.1000061035156,51.900001525878906,279.70001220703125C52.5,279.29998779296875,53.70000076293945,277.79998779296875,54.400001525878906,277.79998779296875C55,277.70001220703125,57.5,281.29998779296875,61.29999923706055,279.79998779296875zM116.0999984741211,291.20001220703125C115.9000015258789,286.1000061035156,111.9000015258789,284.1000061035156,109.80000305175781,283.20001220703125C108.0999984741211,282.3999938964844,102.69999694824219,280,100.9000015258789,278.29998779296875C98.5,278.1000061035156,96.4000015258789,281.3999938964844,92.0999984741211,281.3999938964844C89.80000305175781,281.3999938964844,88.4000015258789,279.5,87.4000015258789,279.29998779296875C87,281.3999938964844,86.5,285.70001220703125,86.5999984741211,287.8999938964844C86.80000305175781,291.20001220703125,91.9000015258789,291.79998779296875,94.4000015258789,292.1000061035156C96.9000015258789,292.3999938964844,100.30000305175781,298.70001220703125,106.69999694824219,298.70001220703125C113,298.6000061035156,116.30000305175781,296.20001220703125,116.0999984741211,291.20001220703125z"/>
<path id="Shoes1" fill="#FFFFFF" d="M68.69999694824219,285.79998779296875C68.80000305175781,286.5,68.80000305175781,287.20001220703125,68.80000305175781,287.6000061035156C68.9000015258789,289.79998779296875,63.5,291,60.599998474121094,292.29998779296875C57.70000076293945,293.6000061035156,57.20000076293945,297,50.599998474121094,297.70001220703125C44,298.3999938964844,40,296.20001220703125,39.599998474121094,293.1000061035156C39.5,292.5,39.400001525878906,291.79998779296875,39.400001525878906,291.20001220703125C42.099998474121094,293.8999938964844,43.5,294.8999938964844,48.70000076293945,294.8999938964844C55,294.8999938964844,57.099998474121094,289.79998779296875,61,289C63.29999923706055,288.6000061035156,66.0999984741211,287.1000061035156,68.69999694824219,285.79998779296875zM105.5,295.3999938964844C100,294.6000061035156,98.69999694824219,290.20001220703125,96.4000015258789,289.20001220703125C94.4000015258789,288.3999938964844,90.5,289.20001220703125,86.69999694824219,286C86.69999694824219,286.70001220703125,86.69999694824219,287.29998779296875,86.69999694824219,287.8999938964844C86.9000015258789,291.20001220703125,92,291.79998779296875,94.5,292.1000061035156C97,292.3999938964844,100.4000015258789,298.70001220703125,106.80000305175781,298.70001220703125C112.69999694824219,298.70001220703125,116,296.6000061035156,116.19999694824219,292.20001220703125C113.80000305175781,295.20001220703125,110,296,105.5,295.3999938964844z"/>
<path id="ShoesBorder" d="M48.20000076293945,299.1000061035156C42.70000076293945,299.1000061035156,38.79999923706055,296.79998779296875,38.29999923706055,293.29998779296875C37.900001525878906,290.20001220703125,37.70000076293945,286.70001220703125,41.5,283.79998779296875C44,281.8999938964844,47.900001525878906,280.1000061035156,50,279.1000061035156C50.5,278.8999938964844,51,278.6000061035156,51.20000076293945,278.5C51.29999923706055,278.3999938964844,51.599998474121094,278.1000061035156,51.900001525878906,277.8999938964844C52.70000076293945,277.20001220703125,53.400001525878906,276.3999938964844,54.400001525878906,276.3999938964844C55,276.3999938964844,55.5,276.79998779296875,56.099998474121094,277.20001220703125C57,277.8999938964844,58.099998474121094,278.79998779296875,59.5,278.79998779296875C60,278.79998779296875,60.400001525878906,278.70001220703125,60.900001525878906,278.5C62.900001525878906,277.70001220703125,64.9000015258789,276.79998779296875,66.5999984741211,276C67,275.79998779296875,67.4000015258789,275.79998779296875,67.69999694824219,276C68,276.20001220703125,68.30000305175781,276.5,68.4000015258789,276.8999938964844C68.4000015258789,277.1000061035156,68.5,277.1000061035156,68.5,277.1000061035156C69.19999694824219,278.5,70.19999694824219,285.5,70.19999694824219,287.5C70.30000305175781,290.1000061035156,66.9000015258789,291.29998779296875,63.599998474121094,292.3999938964844C62.70000076293945,292.70001220703125,61.900001525878906,293,61.20000076293945,293.29998779296875C60.400001525878906,293.70001220703125,59.79999923706055,294.20001220703125,59.099998474121094,294.8999938964844C57.5,296.3999938964844,55.599998474121094,298.20001220703125,50.79999923706055,298.70001220703125C49.900001525878906,299,49,299.1000061035156,48.20000076293945,299.1000061035156zM49.5,282.1000061035156C49,282.3999938964844,48.400001525878906,282.6000061035156,47.79999923706055,283L47.79999923706055,283C49.5,284.1000061035156,50.70000076293945,285,50.79999923706055,285.1000061035156C51.400001525878906,285.5,51.5,286.29998779296875,51.099998474121094,286.79998779296875C50.900001525878906,287.1000061035156,50.5,287.29998779296875,50.099998474121094,287.29998779296875C49.79999923706055,287.29998779296875,49.599998474121094,287.20001220703125,49.400001525878906,287.1000061035156C49.400001525878906,287.1000061035156,47.5,285.70001220703125,45.400001525878906,284.3999938964844L45.400001525878906,284.3999938964844C44.599998474121094,284.8999938964844,43.79999923706055,285.3999938964844,43.20000076293945,285.8999938964844C41.20000076293945,287.3999938964844,40.70000076293945,289.1000061035156,40.79999923706055,291.5L40.79999923706055,291.5C43,293.5,44.400001525878906,294.20001220703125,48.79999923706055,294.20001220703125C52.29999923706055,294.20001220703125,54.400001525878906,292.5,56.29999923706055,290.8999938964844C57.70000076293945,289.70001220703125,59.099998474121094,288.6000061035156,60.900001525878906,288.29998779296875C62.900001525878906,287.8999938964844,65.30000305175781,286.79998779296875,67.5,285.6000061035156C67.19999694824219,283.29998779296875,66.69999694824219,280.20001220703125,66.4000015258789,278.8999938964844C65,279.5,63.400001525878906,280.20001220703125,61.79999923706055,280.8999938964844C61,281.20001220703125,60.20000076293945,281.3999938964844,59.5,281.3999938964844C57.20000076293945,281.3999938964844,55.5,280.1000061035156,54.5,279.29998779296875C54.400001525878906,279.29998779296875,54.400001525878906,279.20001220703125,54.29999923706055,279.20001220703125C54.099998474121094,279.3999938964844,53.79999923706055,279.70001220703125,53.599998474121094,279.79998779296875C53.20000076293945,280.20001220703125,52.900001525878906,280.5,52.5,280.79998779296875C52.5,280.79998779296875,52.400001525878906,280.79998779296875,52.400001525878906,280.8999938964844L52.400001525878906,280.8999938964844C53.70000076293945,281.70001220703125,54.70000076293945,282.6000061035156,54.900001525878906,282.79998779296875C55.400001525878906,283.29998779296875,55.5,284,55,284.6000061035156C54.79999923706055,284.8999938964844,54.400001525878906,285,54.099998474121094,285C53.79999923706055,285,53.5,284.8999938964844,53.29999923706055,284.70001220703125C52.5,284,50.79999923706055,282.6000061035156,49.5,282.1000061035156L49.5,282.1000061035156zM40.29999923706055,293.20001220703125C40.79999923706055,296,45,297.5,50.5,297C54.599998474121094,296.6000061035156,56.099998474121094,295.1000061035156,57.599998474121094,293.70001220703125C58.400001525878906,292.8999938964844,59.20000076293945,292.20001220703125,60.29999923706055,291.70001220703125C61.099998474121094,291.3999938964844,61.900001525878906,291.1000061035156,62.900001525878906,290.70001220703125C65,290,68.19999694824219,288.79998779296875,68.0999984741211,287.70001220703125C68.0999984741211,287.5,68.0999984741211,287.29998779296875,68.0999984741211,287C65.69999694824219,288.20001220703125,63.29999923706055,289.3999938964844,61.099998474121094,289.79998779296875C59.70000076293945,290.1000061035156,58.5,291,57.20000076293945,292.1000061035156C55.099998474121094,293.79998779296875,52.70000076293945,295.70001220703125,48.70000076293945,295.70001220703125C44.20000076293945,295.70001220703125,42.400001525878906,295,40.29999923706055,293.20001220703125zM106.69999694824219,299.79998779296875C102.19999694824219,299.79998779296875,99.0999984741211,297.1000061035156,96.80000305175781,295.1000061035156C95.9000015258789,294.29998779296875,94.80000305175781,293.29998779296875,94.19999694824219,293.29998779296875L93.9000015258789,293.29998779296875C91.19999694824219,292.8999938964844,85.5,292.20001220703125,85.30000305175781,288C85.19999694824219,285.70001220703125,85.69999694824219,281.3999938964844,86.0999984741211,279.20001220703125C86.19999694824219,278.8999938964844,86.30000305175781,278.6000061035156,86.5999984741211,278.3999938964844C86.9000015258789,278.20001220703125,87.19999694824219,278.1000061035156,87.5,278.20001220703125C88.19999694824219,278.29998779296875,88.69999694824219,278.70001220703125,89.30000305175781,279.1000061035156C90.0999984741211,279.70001220703125,90.9000015258789,280.20001220703125,92,280.20001220703125C94,280.20001220703125,95.4000015258789,279.29998779296875,96.80000305175781,278.5C98.0999984741211,277.70001220703125,99.4000015258789,277,100.9000015258789,277.1000061035156C101.19999694824219,277.1000061035156,101.4000015258789,277.20001220703125,101.5999984741211,277.3999938964844C103.0999984741211,278.70001220703125,107.5999984741211,280.79998779296875,109.5,281.70001220703125L110.19999694824219,282C112.19999694824219,282.8999938964844,116.9000015258789,285.20001220703125,117.19999694824219,291.1000061035156C117.30000305175781,293.6000061035156,116.69999694824219,295.6000061035156,115.30000305175781,297C113.5999984741211,298.8999938964844,110.69999694824219,299.79998779296875,106.69999694824219,299.79998779296875zM109.19999694824219,284.20001220703125L109.0999984741211,284.1000061035156L109.0999984741211,284.1000061035156C107.9000015258789,285.1000061035156,106.69999694824219,286.5,106.69999694824219,286.5C106.5,286.79998779296875,106.0999984741211,287,105.69999694824219,287C105.4000015258789,287,105.0999984741211,286.8999938964844,104.9000015258789,286.70001220703125C104.4000015258789,286.29998779296875,104.30000305175781,285.5,104.69999694824219,284.8999938964844C104.69999694824219,284.79998779296875,105.5,283.8999938964844,106.5999984741211,282.8999938964844L106.5999984741211,282.8999938964844C106.19999694824219,282.70001220703125,105.80000305175781,282.5,105.4000015258789,282.29998779296875C103.4000015258789,283.5,102,284.6000061035156,102,284.6000061035156C101.80000305175781,284.79998779296875,101.5,284.8999938964844,101.19999694824219,284.8999938964844C100.80000305175781,284.8999938964844,100.5,284.70001220703125,100.19999694824219,284.3999938964844C99.80000305175781,283.8999938964844,99.9000015258789,283.1000061035156,100.4000015258789,282.6000061035156C100.4000015258789,282.6000061035156,101.4000015258789,281.8999938964844,102.80000305175781,280.8999938964844C101.9000015258789,280.3999938964844,101,279.79998779296875,100.30000305175781,279.29998779296875C99.69999694824219,279.3999938964844,98.9000015258789,279.79998779296875,98.0999984741211,280.29998779296875C96.5999984741211,281.20001220703125,94.69999694824219,282.29998779296875,92,282.29998779296875C90.4000015258789,282.29998779296875,89.0999984741211,281.6000061035156,88.19999694824219,281C88,282.5,87.80000305175781,284.20001220703125,87.69999694824219,285.70001220703125C89.9000015258789,287.20001220703125,92.0999984741211,287.5,93.80000305175781,287.70001220703125C94.80000305175781,287.79998779296875,95.69999694824219,287.8999938964844,96.5,288.20001220703125C97.5,288.6000061035156,98.30000305175781,289.5,99.0999984741211,290.5C100.5,292.1000061035156,102.0999984741211,294,105.4000015258789,294.3999938964844C109.5,295,112.5999984741211,294.20001220703125,114.5999984741211,292.20001220703125C114.5999984741211,291.79998779296875,114.5999984741211,291.3999938964844,114.5999984741211,291C114.5999984741211,287.29998779296875,112,285.6000061035156,109.19999694824219,284.20001220703125zM105.4000015258789,296.1000061035156C101.5999984741211,295.6000061035156,99.69999694824219,293.3999938964844,98.19999694824219,291.70001220703125C97.4000015258789,290.79998779296875,96.80000305175781,290.1000061035156,96.0999984741211,289.79998779296875C95.5999984741211,289.6000061035156,94.80000305175781,289.5,93.9000015258789,289.3999938964844C92.0999984741211,289.20001220703125,89.80000305175781,288.8999938964844,87.4000015258789,287.3999938964844C87.4000015258789,287.5,87.4000015258789,287.70001220703125,87.4000015258789,287.79998779296875C87.5,290.3999938964844,91.9000015258789,291,94.30000305175781,291.29998779296875L94.5999984741211,291.29998779296875C95.69999694824219,291.3999938964844,96.80000305175781,292.3999938964844,98.19999694824219,293.6000061035156C100.4000015258789,295.5,103,297.79998779296875,106.69999694824219,297.79998779296875C111.0999984741211,297.79998779296875,113.69999694824219,296.70001220703125,114.80000305175781,294.3999938964844C112.5,296.1000061035156,109.4000015258789,296.70001220703125,105.4000015258789,296.1000061035156z"/>
<path id="Pants" fill="#2E799E" d="M48.5,173.1999969482422C48.29999923706055,176.1999969482422,47.79999923706055,202.3000030517578,47.5,216.8000030517578C47.400001525878906,223.10000610351562,50.400001525878906,251.5,50.20000076293945,258.70001220703125C50.099998474121094,262.8999938964844,47.099998474121094,271.29998779296875,49.29999923706055,272.3999938964844C51.5,273.5,49.70000076293945,275.70001220703125,50.599998474121094,277.6000061035156C51.5,279.5,56.099998474121094,277.8999938964844,61.400001525878906,278.8999938964844C66.69999694824219,279.8999938964844,69.0999984741211,285.79998779296875,71.0999984741211,285C73,284.20001220703125,71.9000015258789,276.1000061035156,72.5,265.6000061035156C73,255.10000610351562,74.80000305175781,243.3000030517578,75.5999984741211,237.89999389648438C76.69999694824219,234.6999969482422,77.0999984741211,204.3000030517578,78.5999984741211,204.5C80.0999984741211,204.6999969482422,80.80000305175781,226.1999969482422,81.69999694824219,235.39999389648438C82.5999984741211,244.60000610351562,85.0999984741211,260.1000061035156,84.69999694824219,264.29998779296875C84.30000305175781,268.6000061035156,86.69999694824219,275.79998779296875,85.4000015258789,278C84.0999984741211,280.20001220703125,86,283.8999938964844,86,283.8999938964844C86,283.8999938964844,93,280.79998779296875,97.19999694824219,280.5C101.4000015258789,280.20001220703125,106.80000305175781,280.79998779296875,106.5,278.70001220703125C106.19999694824219,276.6000061035156,109.30000305175781,276.5,107.4000015258789,270C105.5,263.3999938964844,106.9000015258789,229.60000610351562,106.80000305175781,224.39999389648438C106.69999694824219,215.89999389648438,104.9000015258789,189.10000610351562,104.5999984741211,186.10000610351562C104.30000305175781,183.10000610351562,103.80000305175781,175.60000610351562,103.80000305175781,175.60000610351562L48.5,173.1999969482422z"/>
<path id="PantsBorder" d="M70.69999694824219,286.20001220703125C69.4000015258789,286.20001220703125,68.4000015258789,285.20001220703125,67.0999984741211,283.8999938964844C65.5999984741211,282.3999938964844,63.70000076293945,280.5,61.20000076293945,280C59.599998474121094,279.70001220703125,58,279.6000061035156,57,279.6000061035156C56.400001525878906,279.6000061035156,55.79999923706055,279.6000061035156,55.20000076293945,279.6000061035156C54.70000076293945,279.6000061035156,54.20000076293945,279.6000061035156,53.70000076293945,279.6000061035156C52.5,279.6000061035156,50.400001525878906,279.6000061035156,49.5,277.8999938964844C49,276.79998779296875,49.099998474121094,275.70001220703125,49.20000076293945,274.79998779296875C49.29999923706055,273.6000061035156,49.29999923706055,273.5,48.79999923706055,273.29998779296875C46.5,272.20001220703125,47.29999923706055,268.20001220703125,48.20000076293945,263.70001220703125C48.599998474121094,261.79998779296875,49,259.79998779296875,49,258.5C49.099998474121094,254.8000030517578,48.29999923706055,245.1999969482422,47.599998474121094,235.89999389648438C46.900001525878906,227.60000610351562,46.29999923706055,219.6999969482422,46.29999923706055,216.60000610351562L46.400001525878906,209.39999389648438C46.70000076293945,194.3000030517578,47.099998474121094,175.5,47.20000076293945,172.89999389648438C47.20000076293945,172.1999969482422,47.79999923706055,171.6999969482422,48.5,171.6999969482422L103.80000305175781,174C104.4000015258789,174,105,174.5,105,175.1999969482422C105,175.3000030517578,105.5,182.6999969482422,105.80000305175781,185.60000610351562C106.0999984741211,188.60000610351562,107.9000015258789,215.3000030517578,108,224C108,225.1999969482422,108,227.6999969482422,107.9000015258789,231.1999969482422C107.5999984741211,242.8000030517578,107.0999984741211,264.29998779296875,108.5999984741211,269.20001220703125C110,274.1000061035156,108.9000015258789,275.8999938964844,108.0999984741211,277.20001220703125C107.80000305175781,277.70001220703125,107.69999694824219,277.8999938964844,107.69999694824219,278.20001220703125C107.80000305175781,278.79998779296875,107.5999984741211,279.3999938964844,107.19999694824219,279.8999938964844C106.0999984741211,281.20001220703125,103.69999694824219,281.20001220703125,100.5,281.29998779296875C99.4000015258789,281.29998779296875,98.19999694824219,281.29998779296875,97.19999694824219,281.3999938964844C93.30000305175781,281.70001220703125,86.5,284.70001220703125,86.4000015258789,284.70001220703125C85.80000305175781,285,85.0999984741211,284.70001220703125,84.80000305175781,284.1000061035156C84.5999984741211,283.70001220703125,82.5999984741211,279.70001220703125,84.19999694824219,277C84.69999694824219,276.20001220703125,84.19999694824219,273.20001220703125,83.9000015258789,270.8999938964844C83.5,268.5,83.0999984741211,266,83.30000305175781,263.8999938964844C83.5,261.29998779296875,82.5999984741211,254,81.69999694824219,246.8000030517578C81.19999694824219,242.6999969482422,80.5999984741211,238.5,80.30000305175781,235.1999969482422C80,232.39999389648438,79.80000305175781,228.39999389648438,79.5,224.1999969482422C79.30000305175781,220.1999969482422,78.9000015258789,215,78.5999984741211,211C78.30000305175781,214.6999969482422,78.0999984741211,219.5,77.9000015258789,223.10000610351562C77.5,231.1999969482422,77.19999694824219,236.3000030517578,76.69999694824219,237.89999389648438L76.69999694824219,238C75.9000015258789,243.60000610351562,74.19999694824219,255.10000610351562,73.69999694824219,265.3999938964844C73.5,269.1000061035156,73.5,272.3999938964844,73.5,275.3999938964844C73.5,281.79998779296875,73.5,285,71.5,285.8999938964844C71.30000305175781,286.20001220703125,71,286.20001220703125,70.69999694824219,286.20001220703125zM82.5,175.89999389648438L82.5,190.5C82.5,191,82.19999694824219,191.39999389648438,81.69999694824219,191.5L77.19999694824219,192.5C77.0999984741211,192.5,77.0999984741211,192.5,77,192.5C76.5,192.5,76.0999984741211,192.1999969482422,76,191.6999969482422C75.9000015258789,191.1999969482422,76.19999694824219,190.60000610351562,76.80000305175781,190.5L80.5,189.6999969482422L80.5,175.8000030517578L49.70000076293945,174.5C49.5,179.60000610351562,49.20000076293945,196.8000030517578,48.900001525878906,209.6999969482422L48.79999923706055,216.89999389648438C48.70000076293945,219.8000030517578,49.400001525878906,227.6999969482422,50.099998474121094,235.89999389648438C50.900001525878906,245.1999969482422,51.70000076293945,254.89999389648438,51.5,258.79998779296875C51.5,260.3999938964844,51.099998474121094,262.3999938964844,50.599998474121094,264.5C50.20000076293945,266.70001220703125,49.400001525878906,270.70001220703125,49.900001525878906,271.3999938964844C51.900001525878906,272.3999938964844,51.70000076293945,274.20001220703125,51.599998474121094,275.3999938964844C51.5,276.1000061035156,51.5,276.6000061035156,51.70000076293945,277.1000061035156C51.70000076293945,277.1000061035156,51.900001525878906,277.3999938964844,53.599998474121094,277.3999938964844C54,277.3999938964844,54.5,277.3999938964844,55,277.3999938964844C55.599998474121094,277.3999938964844,56.20000076293945,277.3999938964844,56.900001525878906,277.3999938964844C58,277.3999938964844,59.70000076293945,277.3999938964844,61.599998474121094,277.79998779296875C64.9000015258789,278.5,67.0999984741211,280.70001220703125,68.80000305175781,282.29998779296875C69.4000015258789,282.8999938964844,70.0999984741211,283.6000061035156,70.5,283.79998779296875C71,282.79998779296875,71,279.1000061035156,70.9000015258789,275.70001220703125C70.9000015258789,272.70001220703125,70.9000015258789,269.29998779296875,71.0999984741211,265.6000061035156C71.5999984741211,255.1999969482422,73.30000305175781,243.5,74.19999694824219,237.89999389648438L74.19999694824219,237.6999969482422C74.19999694824219,237.60000610351562,74.19999694824219,237.60000610351562,74.30000305175781,237.5C74.69999694824219,236.3000030517578,75.0999984741211,229.39999389648438,75.4000015258789,223.3000030517578C76.4000015258789,203.89999389648438,76.80000305175781,203.3000030517578,78.5,203.3000030517578C78.5999984741211,203.3000030517578,78.5999984741211,203.3000030517578,78.69999694824219,203.3000030517578C80.4000015258789,203.5,80.9000015258789,205.3000030517578,82.0999984741211,224.3000030517578C82.4000015258789,228.5,82.5999984741211,232.39999389648438,82.9000015258789,235.1999969482422C83.19999694824219,238.5,83.69999694824219,242.6999969482422,84.30000305175781,246.8000030517578C85.30000305175781,254.39999389648438,86.19999694824219,261.5,85.9000015258789,264.3999938964844C85.80000305175781,266.1000061035156,86.0999984741211,268.5,86.5,270.79998779296875C87,274.1000061035156,87.5,277,86.5,278.6000061035156C86,279.5,86.30000305175781,281,86.69999694824219,282.20001220703125C88.9000015258789,281.29998779296875,93.80000305175781,279.3999938964844,97.19999694824219,279.20001220703125C98.30000305175781,279.1000061035156,99.5,279.1000061035156,100.69999694824219,279.1000061035156C102.30000305175781,279.1000061035156,104.69999694824219,279,105.4000015258789,278.70001220703125C105.30000305175781,277.6000061035156,105.80000305175781,276.8999938964844,106.19999694824219,276.29998779296875C106.80000305175781,275.29998779296875,107.5,274.1000061035156,106.4000015258789,270.29998779296875C105,265.3999938964844,105.30000305175781,247.6999969482422,105.5999984741211,231.5C105.69999694824219,228.1999969482422,105.69999694824219,225.5,105.69999694824219,224.39999389648438C105.5999984741211,215.89999389648438,103.80000305175781,188.89999389648438,103.5,186.1999969482422C103.19999694824219,183.89999389648438,102.9000015258789,179,102.69999694824219,176.8000030517578C102.69999694824219,176.6999969482422,82.5,175.89999389648438,82.5,175.89999389648438z"/>
<path id="Body" fill="#BF8C5C" d="M66.30000305175781,77.9000015258789C60.099998474121094,74.80000305175781,54.29999923706055,68.5999984741211,50.900001525878906,60.900001525878906L51.900001525878906,60.79999923706055C49.900001525878906,61.400001525878906,47.5,59.29999923706055,46.70000076293945,56.29999923706055C45.900001525878906,53.20000076293945,46.79999923706055,50.29999923706055,48.900001525878906,49.70000076293945C49.29999923706055,49.599998474121094,49.70000076293945,49.599998474121094,50.099998474121094,49.70000076293945L48,50.20000076293945C47.900001525878906,49.099998474121094,47.79999923706055,47.900001525878906,47.79999923706055,46.79999923706055C47.79999923706055,44.29999923706055,48.099998474121094,34,48.5,31.899999618530273C51.29999923706055,19.600000381469727,61.70000076293945,14.300000190734863,74.0999984741211,14.300000190734863C86.5,14.300000190734863,96.9000015258789,19.600000381469727,99.69999694824219,31.899999618530273C100.19999694824219,34,100.4000015258789,44.29999923706055,100.4000015258789,46.900001525878906C100.4000015258789,48,100.30000305175781,49.099998474121094,100.19999694824219,50.20000076293945L97.69999694824219,49.900001525878906C98.30000305175781,49.70000076293945,98.80000305175781,49.70000076293945,99.4000015258789,49.79999923706055C101.4000015258789,50.400001525878906,102.4000015258789,53.29999923706055,101.5999984741211,56.29999923706055C100.80000305175781,59.29999923706055,98.4000015258789,61.400001525878906,96.4000015258789,60.79999923706055L97.30000305175781,60.900001525878906C94,68.5,88.30000305175781,74.69999694824219,82.19999694824219,77.80000305175781C82.80000305175781,81.30000305175781,84.5999984741211,86,89.69999694824219,86.5C96.19999694824219,87.30000305175781,85.69999694824219,100.5,73,100.5S53.79999923706055,89.69999694824219,59,87.9000015258789C64.0999984741211,86.4000015258789,65.80000305175781,82.4000015258789,66.30000305175781,77.9000015258789L66.30000305175781,77.9000015258789zM34.599998474121094,126.0999984741211C32.599998474121094,130.39999389648438,31.799999237060547,135,30.299999237060547,142.60000610351562C28.799999237060547,150.1999969482422,26.899999618530273,167.89999389648438,25.700000762939453,171.89999389648438C24.5,175.89999389648438,24.200000762939453,175.39999389648438,18.700000762939453,179.6999969482422C16.600000381469727,180.39999389648438,10.600000381469727,184.10000610351562,11.600000381469727,186.8000030517578C12.600000381469727,189.39999389648438,16.100000381469727,187,16.399999618530273,187.1999969482422C16.700000762939453,187.39999389648438,13.899999618530273,195.10000610351562,13.800000190734863,196.3000030517578C13.699999809265137,197.39999389648438,15.600000381469727,199.5,18.299999237060547,200.39999389648438C21.100000381469727,201.3000030517578,25.5,196.89999389648438,26.899999618530273,195.8000030517578C28.299999237060547,194.6999969482422,31.299999237060547,185.10000610351562,31.200000762939453,183.3000030517578C31.100000381469727,181.5,33.099998474121094,173.60000610351562,33.099998474121094,173.60000610351562C35.5,167.1999969482422,40.5,153.89999389648438,43.70000076293945,147.89999389648438C45.5,144.60000610351562,47.20000076293945,138.89999389648438,48.29999923706055,132.6999969482422M105.0999984741211,127.80000305175781C105.30000305175781,132.3000030517578,105.69999694824219,137.89999389648438,106.4000015258789,142.5C108,152.1999969482422,108.5999984741211,172.89999389648438,108.30000305175781,174.6999969482422C107.69999694824219,178.10000610351562,105.9000015258789,179.10000610351562,104.69999694824219,181C104.0999984741211,182,98.4000015258789,188.39999389648438,100.80000305175781,192.6999969482422C103.80000305175781,193.3000030517578,103.5999984741211,188.1999969482422,103.5,188.6999969482422C103.4000015258789,190.60000610351562,104,192.60000610351562,103.80000305175781,193.89999389648438C103.80000305175781,193.89999389648438,97,200.3000030517578,104.0999984741211,201.1999969482422C111.19999694824219,202.10000610351562,114.9000015258789,195.5,115.5,194.1999969482422C116.0999984741211,192.8000030517578,116,182,115.80000305175781,179.5C115.69999694824219,178.3000030517578,116,176.5,116.4000015258789,175.39999389648438C116.80000305175781,174.39999389648438,121.30000305175781,147.10000610351562,120.80000305175781,140.6999969482422C120.5999984741211,138.1999969482422,119.69999694824219,133.3000030517578,118.5999984741211,127.80000305175781"/>
<path id="BodyBorder" d="M17,198.39999389648438L17,198.39999389648438C17.5,198.6999969482422,18.100000381469727,199,18.799999237060547,199.1999969482422C18.899999618530273,199.1999969482422,19,199.3000030517578,19.100000381469727,199.3000030517578L19.100000381469727,199.3000030517578C19.399999618530273,198.8000030517578,20.200000762939453,196.60000610351562,20.700000762939453,195.10000610351562C21.200000762939453,193.60000610351562,21.600000381469727,192.3000030517578,22,191.39999389648438C22.200000762939453,191,22.600000381469727,190.89999389648438,23,191C23.399999618530273,191.1999969482422,23.5,191.60000610351562,23.399999618530273,192C23.100000381469727,192.6999969482422,22.600000381469727,194.10000610351562,22.200000762939453,195.5C21.700000762939453,197,21.399999618530273,198,21.100000381469727,198.8000030517578C21.700000762939453,198.5,22.299999237060547,198.10000610351562,22.799999237060547,197.6999969482422L22.799999237060547,197.6999969482422C22.799999237060547,197.5,22.799999237060547,197.39999389648438,22.899999618530273,197.3000030517578C23.100000381469727,196.89999389648438,23.899999618530273,194.3000030517578,24.399999618530273,192.8000030517578C24.700000762939453,191.89999389648438,24.899999618530273,191.10000610351562,25.100000381469727,190.5C25.200000762939453,190.10000610351562,25.700000762939453,189.89999389648438,26,190C26.399999618530273,190.10000610351562,26.600000381469727,190.60000610351562,26.5,191C26.299999237060547,191.60000610351562,26.100000381469727,192.39999389648438,25.799999237060547,193.3000030517578C25.399999618530273,194.39999389648438,25.200000762939453,195.3000030517578,24.899999618530273,196C25.100000381469727,195.89999389648438,25.200000762939453,195.6999969482422,25.399999618530273,195.60000610351562C25.700000762939453,195.3000030517578,26,195.10000610351562,26.200000762939453,194.89999389648438C27.299999237060547,193.89999389648438,30.100000381469727,184.89999389648438,30,183.5C29.899999618530273,181.60000610351562,31.600000381469727,174.8000030517578,31.899999618530273,173.39999389648438L31.899999618530273,173.3000030517578L32.5,171.8000030517578C35.099998474121094,164.8000030517578,39.599998474121094,153,42.599998474121094,147.39999389648438C44.29999923706055,144.3000030517578,45.900001525878906,138.8000030517578,47.099998474121094,132.60000610351562C47.20000076293945,131.89999389648438,47.900001525878906,131.5,48.599998474121094,131.60000610351562C49.29999923706055,131.6999969482422,49.70000076293945,132.39999389648438,49.599998474121094,133.10000610351562C48.400001525878906,139.5,46.70000076293945,145.3000030517578,44.900001525878906,148.6999969482422C41.900001525878906,154.1999969482422,37.400001525878906,166.3000030517578,34.900001525878906,172.8000030517578L34.400001525878906,174.1999969482422C33.599998474121094,177.39999389648438,32.5,182.3000030517578,32.5,183.39999389648438C32.599998474121094,185.3000030517578,29.600000381469727,195.39999389648438,27.799999237060547,196.89999389648438C27.600000381469727,197,27.399999618530273,197.3000030517578,27.100000381469727,197.5C25.299999237060547,199.10000610351562,22,201.8000030517578,19.200000762939453,201.8000030517578C18.799999237060547,201.8000030517578,18.399999618530273,201.6999969482422,18,201.60000610351562C14.899999618530273,200.60000610351562,12.399999618530273,198.10000610351562,12.600000381469727,196.1999969482422C12.699999809265137,195.60000610351562,13.100000381469727,194.3000030517578,13.899999618530273,191.60000610351562C14.100000381469727,190.89999389648438,14.399999618530273,190,14.600000381469727,189.1999969482422C13.800000190734863,189.39999389648438,12.899999618530273,189.5,12,189.10000610351562C11.5,188.89999389648438,10.800000190734863,188.39999389648438,10.399999618530273,187.3000030517578C10.199999809265137,186.6999969482422,10,185.8000030517578,10.600000381469727,184.60000610351562C11.800000190734863,182,16,179.39999389648438,18,178.6999969482422C18.899999618530273,178,19.700000762939453,177.39999389648438,20.399999618530273,176.89999389648438C23.399999618530273,174.60000610351562,23.5,174.60000610351562,24.399999618530273,171.60000610351562C25,169.5,25.899999618530273,163.10000610351562,26.799999237060547,156.89999389648438C27.5,151.5,28.299999237060547,145.89999389648438,29,142.39999389648438L29.399999618530273,140.60000610351562C30.700000762939453,134,31.600000381469727,129.60000610351562,33.5,125.5C33.79999923706055,124.9000015258789,34.5,124.5999984741211,35.20000076293945,124.9000015258789C35.79999923706055,125.19999694824219,36.099998474121094,125.9000015258789,35.79999923706055,126.5999984741211C34,130.39999389648438,33.20000076293945,134.60000610351562,31.899999618530273,141.10000610351562L31.5,142.89999389648438C30.799999237060547,146.3000030517578,30.100000381469727,151.89999389648438,29.299999237060547,157.3000030517578C28.399999618530273,163.89999389648438,27.5,170.10000610351562,26.899999618530273,172.39999389648438C25.799999237060547,176,25.299999237060547,176.5,22,178.89999389648438C21.299999237060547,179.39999389648438,20.5,180,19.5,180.8000030517578C19.399999618530273,180.89999389648438,19.299999237060547,181,19.100000381469727,181C17.5,181.5,13.800000190734863,183.89999389648438,12.899999618530273,185.6999969482422C12.800000190734863,186,12.699999809265137,186.1999969482422,12.800000190734863,186.39999389648438C12.899999618530273,186.6999969482422,13,186.8000030517578,13.100000381469727,186.8000030517578C13.600000381469727,187,14.800000190734863,186.5,15.300000190734863,186.3000030517578C15.399999618530273,186.1999969482422,15.600000381469727,186.1999969482422,15.699999809265137,186.10000610351562L15.699999809265137,186.10000610351562L18.700000762939453,184.3000030517578C19,184.10000610351562,19.399999618530273,184.1999969482422,19.600000381469727,184.39999389648438C20,184.5,22.600000381469727,184.10000610351562,23.799999237060547,183.1999969482422C24,183,24.100000381469727,182.8000030517578,24.100000381469727,182.8000030517578C24,182.39999389648438,24.299999237060547,182,24.700000762939453,181.89999389648438C25.100000381469727,181.8000030517578,25.5,182.10000610351562,25.600000381469727,182.5C25.700000762939453,183.10000610351562,25.5,184,24,184.89999389648438C22.799999237060547,185.5,20.399999618530273,186.1999969482422,19.100000381469727,185.89999389648438L17.600000381469727,186.8000030517578L17.600000381469727,186.8000030517578C17.899999618530273,187.39999389648438,17.5,188.5,16.299999237060547,192.39999389648438C15.800000190734863,194,15.100000381469727,196.10000610351562,15.100000381469727,196.60000610351562C15.100000381469727,196.8000030517578,15.300000190734863,197.10000610351562,15.800000190734863,197.60000610351562L15.800000190734863,197.60000610351562C16.5,196.10000610351562,18,192.60000610351562,18.700000762939453,190.60000610351562C18.799999237060547,190.1999969482422,19.200000762939453,190,19.600000381469727,190.10000610351562C20,190.1999969482422,20.200000762939453,190.60000610351562,20.100000381469727,191C19.5,192.89999389648438,17.799999237060547,196.8000030517578,17,198.39999389648438L17,198.39999389648438zM104,199.89999389648438C103,199.6999969482422,102.4000015258789,199.39999389648438,102.19999694824219,199C101.9000015258789,198.10000610351562,103.5,195.89999389648438,104.69999694824219,194.6999969482422C104.9000015258789,194.5,105,194.1999969482422,105.0999984741211,194C105.19999694824219,193.1999969482422,105.0999984741211,192.3000030517578,105,191.3000030517578C104.9000015258789,190.60000610351562,104.80000305175781,190,104.80000305175781,189.3000030517578C104.80000305175781,189.10000610351562,104.80000305175781,188.89999389648438,104.80000305175781,188.6999969482422L104.80000305175781,188.6999969482422L104.80000305175781,188.6999969482422C104.80000305175781,188.3000030517578,104.69999694824219,188,104.5,187.8000030517578C104.19999694824219,187.39999389648438,103.5999984741211,187.1999969482422,103.0999984741211,187.39999389648438C102.5999984741211,187.60000610351562,102.19999694824219,188,102.19999694824219,188.60000610351562C102.19999694824219,188.8000030517578,102.19999694824219,189.10000610351562,102.19999694824219,189.3000030517578C102.0999984741211,190,101.9000015258789,191,101.5,191.39999389648438C100.5999984741211,188.3000030517578,104,183.89999389648438,105.0999984741211,182.39999389648438C105.30000305175781,182.10000610351562,105.5,181.89999389648438,105.5999984741211,181.6999969482422C105.9000015258789,181.1999969482422,106.30000305175781,180.8000030517578,106.69999694824219,180.3000030517578C107.80000305175781,179,109,177.60000610351562,109.5,174.89999389648438C109.9000015258789,172.8000030517578,109.19999694824219,151.89999389648438,107.5999984741211,142.3000030517578C107,138.60000610351562,106.5,133.6999969482422,106.30000305175781,127.80000305175781C106.30000305175781,127.0999984741211,105.69999694824219,126.5999984741211,105,126.5999984741211C104.30000305175781,126.5999984741211,103.80000305175781,127.19999694824219,103.80000305175781,127.9000015258789C104.0999984741211,133.89999389648438,104.5,138.89999389648438,105.0999984741211,142.6999969482422C106.69999694824219,152.3000030517578,107.30000305175781,172.8000030517578,107,174.5C106.69999694824219,176.10000610351562,106,177.10000610351562,105.30000305175781,178C105.0999984741211,178.1999969482422,105,178.5,104.80000305175781,178.8000030517578C104.4000015258789,179.3000030517578,103.9000015258789,179.8000030517578,103.5,180.39999389648438C103.4000015258789,180.5,103.30000305175781,180.6999969482422,103.0999984741211,180.89999389648438C101.4000015258789,183.10000610351562,97.0999984741211,188.8000030517578,99.5999984741211,193.39999389648438C99.80000305175781,193.6999969482422,100.0999984741211,193.89999389648438,100.4000015258789,194C101,194.10000610351562,101.5,194.10000610351562,102,193.89999389648438C100.80000305175781,195.3000030517578,99,197.6999969482422,99.69999694824219,199.89999389648438C100.19999694824219,201.3000030517578,101.5999984741211,202.1999969482422,103.80000305175781,202.5C104.30000305175781,202.60000610351562,104.80000305175781,202.60000610351562,105.30000305175781,202.60000610351562C111.69999694824219,202.60000610351562,115.5999984741211,197,116.5999984741211,194.6999969482422C117.4000015258789,192.8000030517578,117.19999694824219,181,117,179.39999389648438C116.9000015258789,178.39999389648438,117.19999694824219,176.89999389648438,117.5,175.89999389648438C117.9000015258789,174.8000030517578,122.5,147.3000030517578,121.9000015258789,140.60000610351562C121.69999694824219,138,120.80000305175781,133,119.69999694824219,127.5C119.5999984741211,126.80000305175781,118.9000015258789,126.4000015258789,118.19999694824219,126.5C117.5,126.5999984741211,117.0999984741211,127.30000305175781,117.19999694824219,128C118.30000305175781,133.39999389648438,119.0999984741211,138.3000030517578,119.4000015258789,140.8000030517578C120,147,115.4000015258789,174,115.0999984741211,175C114.80000305175781,175.89999389648438,114.30000305175781,178,114.5,179.60000610351562C114.69999694824219,182.39999389648438,114.69999694824219,192.5,114.30000305175781,193.6999969482422C114.30000305175781,193.6999969482422,113.9000015258789,194.60000610351562,113.0999984741211,195.6999969482422C113.30000305175781,195.39999389648438,113.4000015258789,195.10000610351562,113.4000015258789,194.89999389648438C113.5,194.39999389648438,113.30000305175781,193.89999389648438,112.80000305175781,193.8000030517578C112.30000305175781,193.6999969482422,111.80000305175781,193.89999389648438,111.69999694824219,194.39999389648438C111.30000305175781,195.89999389648438,108.5,199,107.19999694824219,199.89999389648438L107.19999694824219,199.89999389648438C107.0999984741211,199.89999389648438,106.9000015258789,200,106.80000305175781,200C108.69999694824219,198,110.69999694824219,194.6999969482422,111.0999984741211,194.1999969482422C111.4000015258789,193.8000030517578,111.19999694824219,193.1999969482422,110.80000305175781,193C110.4000015258789,192.6999969482422,109.80000305175781,192.89999389648438,109.5999984741211,193.3000030517578C108.30000305175781,195.39999389648438,105.30000305175781,199.5,104.30000305175781,199.89999389648438C104.19999694824219,199.8000030517578,104.0999984741211,199.8000030517578,104,199.89999389648438M64.9000015258789,78.5999984741211C59,75.4000015258789,53.400001525878906,69.30000305175781,50,62C48,61.400001525878906,46.20000076293945,59.29999923706055,45.5,56.599998474121094C44.70000076293945,53.900001525878906,45.20000076293945,51.20000076293945,46.70000076293945,49.599998474121094C46.599998474121094,48.599998474121094,46.599998474121094,47.70000076293945,46.599998474121094,46.70000076293945C46.599998474121094,44.900001525878906,46.79999923706055,34,47.400001525878906,31.5C50,19.700000762939453,59.79999923706055,12.899999618530273,74.19999694824219,12.899999618530273C88.5,12.899999618530273,98.30000305175781,19.700000762939453,101,31.5C101.5,33.79999923706055,101.80000305175781,44.29999923706055,101.80000305175781,46.70000076293945C101.80000305175781,47.599998474121094,101.80000305175781,48.5,101.69999694824219,49.5C103.19999694824219,51,103.80000305175781,53.79999923706055,103,56.5C102.19999694824219,59.20000076293945,100.5,61.29999923706055,98.4000015258789,61.900001525878906C95,69.30000305175781,89.69999694824219,75.19999694824219,83.9000015258789,78.4000015258789L83.9000015258789,78.4000015258789C84.5999984741211,81.4000015258789,86.19999694824219,84.80000305175781,90.19999694824219,85.19999694824219C92.19999694824219,85.5,93.4000015258789,86.80000305175781,93.30000305175781,88.5999984741211C93,93.5,83.5999984741211,101.69999694824219,73.4000015258789,101.69999694824219C63.5,101.69999694824219,57,95.5,56.20000076293945,91.19999694824219C55.79999923706055,89.0999984741211,56.79999923706055,87.4000015258789,58.70000076293945,86.69999694824219C62.599998474121094,85.5,64.30000305175781,82.69999694824219,64.9000015258789,78.5999984741211L64.9000015258789,78.5999984741211zM97.69999694824219,51C97.0999984741211,50.900001525878906,96.69999694824219,50.5,96.5999984741211,49.900001525878906C96.5,49.29999923706055,96.9000015258789,48.79999923706055,97.4000015258789,48.599998474121094C98,48.400001525878906,98.5999984741211,48.29999923706055,99.19999694824219,48.400001525878906C99.19999694824219,47.900001525878906,99.19999694824219,47.29999923706055,99.19999694824219,46.79999923706055C99.19999694824219,43.79999923706055,98.9000015258789,34,98.5,32.099998474121094C95.19999694824219,17.600000381469727,81.80000305175781,15.5,74.0999984741211,15.5S53,17.700000762939453,49.70000076293945,32.20000076293945C49.29999923706055,34.099998474121094,49,43.900001525878906,49,46.79999923706055C49,47.29999923706055,49,47.900001525878906,49,48.5C49.400001525878906,48.5,49.79999923706055,48.5,50.20000076293945,48.5C50.79999923706055,48.599998474121094,51.20000076293945,49.099998474121094,51.20000076293945,49.70000076293945C51.20000076293945,50.29999923706055,50.79999923706055,50.79999923706055,50.20000076293945,51L48.400001525878906,51.400001525878906C47.599998474121094,52.20000076293945,47.20000076293945,53.900001525878906,47.70000076293945,56C48.29999923706055,58.20000076293945,49.70000076293945,59.5,50.70000076293945,59.70000076293945L51.599998474121094,59.599998474121094C52.20000076293945,59.599998474121094,52.79999923706055,60,52.900001525878906,60.599998474121094C53,61.099998474121094,52.79999923706055,61.5,52.5,61.79999923706055C57.400001525878906,71.69999694824219,66.19999694824219,78.69999694824219,74,78.69999694824219C81.9000015258789,78.69999694824219,90.69999694824219,71.5999984741211,95.5,61.70000076293945C95.19999694824219,61.400001525878906,95,61,95.0999984741211,60.599998474121094C95.19999694824219,60,95.80000305175781,59.5,96.4000015258789,59.599998474121094L97.19999694824219,59.70000076293945C98.30000305175781,59.5,99.69999694824219,58.20000076293945,100.30000305175781,56C100.9000015258789,53.900001525878906,100.4000015258789,52.099998474121094,99.5999984741211,51.400001525878906L97.69999694824219,51zM89.80000305175781,87.69999694824219C84.9000015258789,87.19999694824219,82.5999984741211,83.4000015258789,81.5,79.5999984741211C79.0999984741211,80.5999984741211,76.5999984741211,81.19999694824219,74.0999984741211,81.19999694824219C71.9000015258789,81.19999694824219,69.5,80.69999694824219,67.19999694824219,79.69999694824219C66.4000015258789,83.5,64.5,87.5,59.29999923706055,89C58.79999923706055,89.19999694824219,58.29999923706055,89.5,58.5,90.69999694824219C59,93.69999694824219,64.4000015258789,99.19999694824219,73.19999694824219,99.19999694824219C82.5,99.19999694824219,90.5,91.5,90.5999984741211,88.4000015258789C90.69999694824219,88.19999694824219,90.69999694824219,87.80000305175781,89.80000305175781,87.69999694824219z"/>
<path id="Shirt" fill="#9F62EF" d="M98,112.5999984741211L102.69999694824219,129L122,128C122,128,114.9000015258789,94.4000015258789,103.19999694824219,90.5C98.69999694824219,89,89,85,88.80000305175781,85.5C88.5999984741211,86,85.5999984741211,93.69999694824219,75.5,93.69999694824219C65.4000015258789,93.69999694824219,61.20000076293945,85.4000015258789,61.20000076293945,85.4000015258789C57,86.5,49.70000076293945,88.19999694824219,44,92.19999694824219S30.899999618530273,118.5999984741211,30,122C29.600000381469727,123.30000305175781,46.79999923706055,134.8000030517578,46.79999923706055,134.8000030517578L48.5,115.5C48.5,115.5,49,150.5,48,159.5C47,168.5,45.400001525878906,179,46.400001525878906,180.1999969482422C47.400001525878906,181.39999389648438,66.5999984741211,181.8000030517578,77,181.8000030517578C84.5,181.8000030517578,97.4000015258789,181.39999389648438,103.5999984741211,180.39999389648438L104.69999694824219,178.89999389648438L105.5,178L106.30000305175781,176.8000030517578C105.30000305175781,174,104.4000015258789,169.39999389648438,103.69999694824219,163.1999969482422C103.0999984741211,157.5,102,136,101.5,124.19999694824219"/>
<path id="ShirtBorder" d="M123.0999984741211,128.6999969482422C122.9000015258789,129,122.5,129.1999969482422,122.19999694824219,129.1999969482422L103,130.1999969482422C103.5999984741211,142.3000030517578,104.4000015258789,158.3000030517578,104.9000015258789,163C105.5,168.1999969482422,106.19999694824219,172.1999969482422,107,174.89999389648438C106.5999984741211,176.60000610351562,105.80000305175781,177.60000610351562,104.9000015258789,178.60000610351562C104.5,179.10000610351562,104,179.60000610351562,103.5999984741211,180.1999969482422C103.5,180.3000030517578,103.4000015258789,180.5,103.19999694824219,180.6999969482422C103,181,102.80000305175781,181.3000030517578,102.5,181.60000610351562C95.30000305175781,182.6999969482422,83.19999694824219,182.89999389648438,77,182.89999389648438C65.9000015258789,182.89999389648438,47,182.60000610351562,45.400001525878906,180.89999389648438C44.400001525878906,179.6999969482422,44.599998474121094,176.60000610351562,46,165.39999389648438C46.20000076293945,163.39999389648438,46.5,161.3000030517578,46.70000076293945,159.1999969482422C47.20000076293945,155,47.29999923706055,145.10000610351562,47.29999923706055,135.6999969482422L47.29999923706055,135.6999969482422C46.900001525878906,135.89999389648438,46.400001525878906,135.89999389648438,46.099998474121094,135.60000610351562C28.100000381469727,123.69999694824219,28.5,122.4000015258789,28.799999237060547,121.5C28.899999618530273,121.19999694824219,36.70000076293945,95.5999984741211,43.29999923706055,91C48.599998474121094,87.30000305175781,55.099998474121094,85.5,59.400001525878906,84.4000015258789C59.900001525878906,84.30000305175781,60.400001525878906,84.0999984741211,60.79999923706055,84C61.400001525878906,83.80000305175781,62,84.0999984741211,62.29999923706055,84.5999984741211C62.5,84.9000015258789,66.30000305175781,92.19999694824219,75.5,92.19999694824219C85.0999984741211,92.19999694824219,87.5999984741211,85,87.5999984741211,84.9000015258789C87.69999694824219,84.5999984741211,88,84.30000305175781,88.30000305175781,84.0999984741211C89,83.69999694824219,89.5999984741211,83.9000015258789,96.69999694824219,86.5C99.19999694824219,87.5,101.9000015258789,88.4000015258789,103.69999694824219,89C115.9000015258789,93,123,126,123.30000305175781,127.4000015258789C123.4000015258789,128.10000610351562,123.30000305175781,128.39999389648438,123.0999984741211,128.6999969482422zM97.69999694824219,111.4000015258789C98.4000015258789,111.19999694824219,99.0999984741211,111.5999984741211,99.19999694824219,112.30000305175781L102.5,123.80000305175781C102.5,123.80000305175781,102.5,123.80000305175781,102.5,123.9000015258789L103.5999984741211,127.69999694824219L120.5,126.80000305175781C118.19999694824219,116.80000305175781,111.5,94.5,102.9000015258789,91.69999694824219C101,91.0999984741211,98.4000015258789,90.0999984741211,95.80000305175781,89.0999984741211C93.5999984741211,88.30000305175781,90.9000015258789,87.19999694824219,89.5999984741211,86.9000015258789C88.4000015258789,89.19999694824219,84.5999984741211,94.9000015258789,75.5,94.9000015258789C66.5999984741211,94.9000015258789,62,89.0999984741211,60.599998474121094,86.80000305175781C60.400001525878906,86.80000305175781,60.29999923706055,86.9000015258789,60.099998474121094,86.9000015258789C55.900001525878906,88,49.70000076293945,89.69999694824219,44.79999923706055,93.19999694824219C40,96.5999984741211,33.099998474121094,116.0999984741211,31.399999618530273,121.9000015258789C32.70000076293945,123.4000015258789,39.29999923706055,128.10000610351562,45.79999923706055,132.60000610351562L47.29999923706055,115.5C47.400001525878906,114.80000305175781,47.900001525878906,114.30000305175781,48.599998474121094,114.4000015258789C49.29999923706055,114.4000015258789,49.79999923706055,115,49.79999923706055,115.5999984741211C49.79999923706055,117,50.29999923706055,150.8000030517578,49.29999923706055,159.8000030517578C49.099998474121094,161.8000030517578,48.79999923706055,163.89999389648438,48.599998474121094,166C48,171,47.20000076293945,177.8000030517578,47.5,179.5C50.099998474121094,180.1999969482422,64.80000305175781,180.8000030517578,77.0999984741211,180.8000030517578C89.30000305175781,180.8000030517578,100.80000305175781,180.10000610351562,104.80000305175781,179.1999969482422L105.5,178.39999389648438C104.30000305175781,175.1999969482422,103.19999694824219,169.89999389648438,102.5,163.60000610351562C101.9000015258789,157.89999389648438,100.80000305175781,136.8000030517578,100.30000305175781,124.5999984741211L97,113.19999694824219C96.5999984741211,112.30000305175781,97,111.5999984741211,97.69999694824219,111.4000015258789zM77.5,147.6999969482422C77.5999984741211,147.1999969482422,77.19999694824219,146.60000610351562,76.69999694824219,146.5C76.5999984741211,146.5,67,144.6999969482422,62.79999923706055,139.39999389648438C62.5,139,61.79999923706055,138.89999389648438,61.400001525878906,139.1999969482422C61,139.5,60.900001525878906,140.1999969482422,61.20000076293945,140.60000610351562C65.9000015258789,146.5,75.9000015258789,148.39999389648438,76.30000305175781,148.5C76.4000015258789,148.5,76.4000015258789,148.5,76.5,148.5C77,148.5,77.4000015258789,148.1999969482422,77.5,147.6999969482422zM88.5999984741211,161C89.19999694824219,161,89.5999984741211,160.5,89.5,159.89999389648438C89.5,159.3000030517578,89,158.89999389648438,88.4000015258789,159C88.19999694824219,159,70.30000305175781,160.10000610351562,63.5,155.1999969482422C63.099998474121094,154.89999389648438,62.400001525878906,155,62.099998474121094,155.39999389648438C61.79999923706055,155.8000030517578,61.900001525878906,156.5,62.29999923706055,156.8000030517578C67.4000015258789,160.5,78,161.10000610351562,84,161.10000610351562C86.5999984741211,161.10000610351562,88.30000305175781,161,88.5999984741211,161z"/>
<path id="NoseMouth" d="M67,68.4000015258789C66.69999694824219,68.19999694824219,66.5999984741211,67.69999694824219,66.9000015258789,67.30000305175781C67.19999694824219,67,67.5999984741211,66.9000015258789,68,67.19999694824219C72.19999694824219,70.4000015258789,78.5999984741211,68.9000015258789,78.69999694824219,68.9000015258789C79.0999984741211,68.80000305175781,79.5,69,79.5999984741211,69.5C79.69999694824219,69.9000015258789,79.5,70.30000305175781,79.0999984741211,70.4000015258789C79,70.4000015258789,77.30000305175781,70.80000305175781,75.0999984741211,70.80000305175781C72.5999984741211,70.80000305175781,69.5,70.30000305175781,67,68.4000015258789zM74.9000015258789,64C75.80000305175781,64,76.80000305175781,63.79999923706055,77.5999984741211,63.20000076293945C78.30000305175781,62.70000076293945,79.19999694824219,61.70000076293945,79.19999694824219,60C79.19999694824219,59.099998474121094,78.9000015258789,58.400001525878906,78.19999694824219,57.79999923706055C76.69999694824219,56.5,73.80000305175781,57,73.5,57C73.0999984741211,57.099998474121094,72.80000305175781,57.5,72.9000015258789,57.900001525878906C73,58.29999923706055,73.4000015258789,58.599998474121094,73.80000305175781,58.5C74.5,58.400001525878906,76.4000015258789,58.20000076293945,77.30000305175781,59C77.5999984741211,59.20000076293945,77.69999694824219,59.599998474121094,77.69999694824219,60C77.69999694824219,60.900001525878906,77.4000015258789,61.5,76.80000305175781,62C75.9000015258789,62.599998474121094,74.69999694824219,62.599998474121094,74.19999694824219,62.400001525878906C73.80000305175781,62.29999923706055,73.4000015258789,62.5,73.19999694824219,62.79999923706055C73.0999984741211,63.20000076293945,73.30000305175781,63.599998474121094,73.5999984741211,63.79999923706055C73.9000015258789,63.900001525878906,74.4000015258789,64,74.9000015258789,64z"/>
<path id="EyeWhites" fill="#FFFFFF" d="M68.69999694824219,53.400001525878906C68.5,54.900001525878906,66.80000305175781,56.099998474121094,63.79999923706055,56.099998474121094C60.79999923706055,56.099998474121094,57.900001525878906,54.900001525878906,57.900001525878906,52.70000076293945C57.900001525878906,50.900001525878906,60.29999923706055,49.5,63.29999923706055,49.5S68.9000015258789,51.599998474121094,68.69999694824219,53.400001525878906zM79.30000305175781,53.400001525878906C79.5,54.900001525878906,81.30000305175781,56.099998474121094,84.30000305175781,56.099998474121094C87.30000305175781,56.099998474121094,90.0999984741211,54.900001525878906,90.0999984741211,52.70000076293945C90.0999984741211,50.900001525878906,87.69999694824219,49.5,84.69999694824219,49.5S79.19999694824219,51.599998474121094,79.30000305175781,53.400001525878906z"/>
<path id="Eyes" d="M61.099998474121094,52.5C61,54.20000076293945,62.29999923706055,55.599998474121094,63.900001525878906,55.599998474121094C65.5,55.599998474121094,67,54.400001525878906,67,52.79999923706055C67.0999984741211,51.099998474121094,65.80000305175781,49.70000076293945,64.19999694824219,49.70000076293945C64.19999694824219,49.70000076293945,64.19999694824219,49.70000076293945,64.0999984741211,49.70000076293945C62.5,49.599998474121094,61.20000076293945,50.900001525878906,61.099998474121094,52.5zM86.9000015258789,52.5C87,54.20000076293945,85.69999694824219,55.599998474121094,84.0999984741211,55.599998474121094C82.4000015258789,55.70000076293945,81,54.400001525878906,81,52.79999923706055C80.9000015258789,51.099998474121094,82.19999694824219,49.70000076293945,83.80000305175781,49.70000076293945C83.80000305175781,49.70000076293945,83.80000305175781,49.70000076293945,83.9000015258789,49.70000076293945C85.5,49.599998474121094,86.80000305175781,50.900001525878906,86.9000015258789,52.5z"/>
<path id="EyeLids" d="M68.5,54.5C68.0999984741211,54.5,67.80000305175781,54.099998474121094,67.80000305175781,53.70000076293945C67.80000305175781,53,67.5999984741211,52.29999923706055,67,51.70000076293945C66.19999694824219,50.79999923706055,64.80000305175781,50.20000076293945,63.400001525878906,50.20000076293945C61.20000076293945,50.099998474121094,58.79999923706055,50.900001525878906,58.70000076293945,52.900001525878906C58.70000076293945,53.29999923706055,58.400001525878906,53.599998474121094,58,53.599998474121094L58,53.599998474121094C57.599998474121094,53.599998474121094,57.29999923706055,53.20000076293945,57.29999923706055,52.79999923706055C57.400001525878906,50.20000076293945,60,48.599998474121094,63.5,48.70000076293945C65.30000305175781,48.79999923706055,67,49.5,68.0999984741211,50.70000076293945C68.9000015258789,51.599998474121094,69.30000305175781,52.70000076293945,69.30000305175781,53.79999923706055C69.30000305175781,54.20000076293945,69,54.5,68.5,54.5C68.5999984741211,54.5,68.5,54.5,68.5,54.5zM79.4000015258789,54.599998474121094C79.5,54.599998474121094,79.5,54.599998474121094,79.4000015258789,54.599998474121094C79.80000305175781,54.599998474121094,80.19999694824219,54.20000076293945,80.19999694824219,53.79999923706055C80.0999984741211,52,82.0999984741211,50.400001525878906,84.5999984741211,50.29999923706055C86.30000305175781,50.20000076293945,87.69999694824219,50.599998474121094,88.5,51.400001525878906C89,51.79999923706055,89.19999694824219,52.400001525878906,89.19999694824219,53C89.19999694824219,53.400001525878906,89.5999984741211,53.70000076293945,90,53.70000076293945C90.4000015258789,53.70000076293945,90.69999694824219,53.29999923706055,90.69999694824219,52.900001525878906C90.69999694824219,51.900001525878906,90.19999694824219,51,89.5,50.29999923706055C88.4000015258789,49.29999923706055,86.5999984741211,48.70000076293945,84.5,48.79999923706055C81.19999694824219,48.900001525878906,78.5999984741211,51.20000076293945,78.69999694824219,53.900001525878906C78.69999694824219,54.20000076293945,79,54.599998474121094,79.4000015258789,54.599998474121094z"/>
<path id="EyeBrows" d="M79.4000015258789,46.900001525878906C79.0999984741211,46.599998474121094,79.0999984741211,46.20000076293945,79.30000305175781,45.79999923706055C80.4000015258789,44.5,83.9000015258789,43.70000076293945,86.30000305175781,43.70000076293945C87.9000015258789,43.70000076293945,89.5999984741211,44.29999923706055,90.80000305175781,45.5C91.0999984741211,45.79999923706055,91.0999984741211,46.29999923706055,90.80000305175781,46.599998474121094C90.5,46.900001525878906,90,46.900001525878906,89.69999694824219,46.599998474121094C88.80000305175781,45.70000076293945,87.5,45.20000076293945,86.19999694824219,45.20000076293945L86.19999694824219,45.20000076293945C83.69999694824219,45.20000076293945,80.9000015258789,46.099998474121094,80.30000305175781,46.79999923706055C80.19999694824219,47,79.9000015258789,47.099998474121094,79.69999694824219,47.099998474121094C79.80000305175781,47.099998474121094,79.5999984741211,47,79.4000015258789,46.900001525878906zM68,47.099998474121094C68.19999694824219,47.099998474121094,68.30000305175781,47,68.5,46.900001525878906C68.80000305175781,46.599998474121094,68.80000305175781,46.20000076293945,68.5999984741211,45.79999923706055C67.5,44.5,64.0999984741211,43.70000076293945,61.599998474121094,43.70000076293945L61.599998474121094,43.70000076293945C59.900001525878906,43.70000076293945,58.29999923706055,44.29999923706055,57.099998474121094,45.5C56.79999923706055,45.79999923706055,56.79999923706055,46.29999923706055,57.099998474121094,46.599998474121094C57.400001525878906,46.900001525878906,57.900001525878906,46.900001525878906,58.20000076293945,46.599998474121094C59.099998474121094,45.70000076293945,60.400001525878906,45.20000076293945,61.70000076293945,45.20000076293945L61.70000076293945,45.20000076293945C64.19999694824219,45.20000076293945,67,46.099998474121094,67.5999984741211,46.79999923706055C67.5999984741211,47,67.80000305175781,47.099998474121094,68,47.099998474121094z"/>
<path id="Hair" fill="#482D18" d="M75,14.199999809265137C41.29999923706055,14.199999809265137,44.29999923706055,46.5,50.5,54.400001525878906C50.5,54.400001525878906,49.400001525878906,48.29999923706055,51.599998474121094,42.79999923706055C53.70000076293945,37.29999923706055,62.400001525878906,33.79999923706055,63.29999923706055,35.599998474121094C66.0999984741211,34.29999923706055,66.69999694824219,31.5,66.69999694824219,31.5C66.69999694824219,31.5,69.80000305175781,34.29999923706055,71,34.79999923706055C72.19999694824219,35.29999923706055,74.5999984741211,32.29999923706055,74.5999984741211,32.29999923706055C74.5999984741211,32.29999923706055,78.4000015258789,32.29999923706055,78.4000015258789,35.099998474121094C78.4000015258789,35.099998474121094,82,32.29999923706055,83.0999984741211,32.79999923706055C83.5999984741211,35.400001525878906,86.19999694824219,35.900001525878906,86.19999694824219,35.900001525878906C86.19999694824219,35.900001525878906,89,34.599998474121094,90.0999984741211,34.79999923706055C95.30000305175781,35.79999923706055,96.0999984741211,39.29999923706055,97.5,42.79999923706055S98,54.5,98,54.5C102.0999984741211,53.099998474121094,108.69999694824219,14.199999809265137,75,14.199999809265137z"/>
<path id="HairBorder" d="M63.70000076293945,14.399999618530273L63.70000076293945,14.399999618530273C66.9000015258789,13.5,70.5999984741211,13,75,13C95.5,13,100.80000305175781,26.799999237060547,102.19999694824219,35C103.5999984741211,43.79999923706055,101.5999984741211,54.599998474121094,98.30000305175781,55.70000076293945C98.19999694824219,55.70000076293945,98,55.79999923706055,97.9000015258789,55.79999923706055C97.5999984741211,55.79999923706055,97.30000305175781,55.70000076293945,97.0999984741211,55.5C96.80000305175781,55.20000076293945,96.5999984741211,54.79999923706055,96.5999984741211,54.400001525878906C96.80000305175781,52.20000076293945,97.30000305175781,46,96.19999694824219,43.29999923706055C96.0999984741211,42.900001525878906,95.9000015258789,42.599998474121094,95.80000305175781,42.20000076293945C94.5999984741211,39.20000076293945,93.69999694824219,36.79999923706055,89.69999694824219,36C89.0999984741211,36,87.5,36.599998474121094,86.5,37C86.30000305175781,37.099998474121094,86,37.099998474121094,85.69999694824219,37.099998474121094C85.5999984741211,37.099998474121094,83,36.599998474121094,81.9000015258789,34.099998474121094C81.0999984741211,34.400001525878906,79.9000015258789,35.20000076293945,78.80000305175781,36C78.4000015258789,36.29999923706055,77.9000015258789,36.29999923706055,77.5,36.099998474121094C77.0999984741211,35.900001525878906,76.80000305175781,35.5,76.80000305175781,35C76.80000305175781,33.900001525878906,75.5999984741211,33.599998474121094,74.80000305175781,33.5C73.9000015258789,34.5,72.30000305175781,36,71,36C70.69999694824219,36,70.5,36,70.19999694824219,35.900001525878906C69.4000015258789,35.599998474121094,68,34.400001525878906,66.9000015258789,33.5C66.30000305175781,34.599998474121094,65.30000305175781,35.79999923706055,63.5,36.70000076293945C63.20000076293945,36.79999923706055,62.79999923706055,36.900001525878906,62.5,36.70000076293945C62.29999923706055,36.599998474121094,62.099998474121094,36.5,62,36.29999923706055C62,36.29999923706055,61.900001525878906,36.29999923706055,61.79999923706055,36.29999923706055C59.599998474121094,36.29999923706055,53.900001525878906,39.29999923706055,52.400001525878906,43.20000076293945C50.400001525878906,48.29999923706055,51.400001525878906,54.099998474121094,51.400001525878906,54.20000076293945C51.5,54.79999923706055,51.20000076293945,55.29999923706055,50.70000076293945,55.599998474121094C50.20000076293945,55.79999923706055,49.599998474121094,55.70000076293945,49.20000076293945,55.20000076293945C45.29999923706055,50.20000076293945,42.900001525878906,37.099998474121094,47.79999923706055,27C49.5,23.5,52.400001525878906,19.600000381469727,57.400001525878906,16.799999237060547L57.400001525878906,16.799999237060547C57,16.600000381469727,56.599998474121094,16.5,56.099998474121094,16.5C55.5,16.5,55.099998474121094,16,55.20000076293945,15.399999618530273C55.20000076293945,14.899999618530273,55.70000076293945,14.399999618530273,56.29999923706055,14.5C57.70000076293945,14.600000381469727,58.79999923706055,15.100000381469727,59.599998474121094,15.699999809265137L59.599998474121094,15.699999809265137C60.099998474121094,15.5,60.599998474121094,15.300000190734863,61.099998474121094,15.100000381469727L61.099998474121094,15.100000381469727C59.900001525878906,14.199999809265137,58.400001525878906,13.100000381469727,56.599998474121094,12.399999618530273C56.099998474121094,12.199999809265137,55.79999923706055,11.600000381469727,56,11.100000381469727C56.20000076293945,10.600000381469727,56.79999923706055,10.300000190734863,57.29999923706055,10.5C60.29999923706055,11.600000381469727,62.29999923706055,13.199999809265137,63.70000076293945,14.399999618530273L63.70000076293945,14.399999618530273zM75,15.5C62.900001525878906,15.5,54.400001525878906,19.899999618530273,50.400001525878906,28.100000381469727C47.20000076293945,34.70000076293945,47.400001525878906,42.900001525878906,49.099998474121094,48.5C49.20000076293945,46.599998474121094,49.599998474121094,44.400001525878906,50.400001525878906,42.400001525878906C52.400001525878906,37.20000076293945,59.20000076293945,33.900001525878906,62.099998474121094,33.900001525878906C62.599998474121094,33.900001525878906,63,34,63.29999923706055,34.099998474121094C64.9000015258789,33,65.4000015258789,31.200000762939453,65.4000015258789,31.200000762939453C65.5,30.799999237060547,65.80000305175781,30.399999618530273,66.19999694824219,30.299999237060547C66.5999984741211,30.200000762939453,67.0999984741211,30.299999237060547,67.4000015258789,30.600000381469727C68.69999694824219,31.799999237060547,70.5,33.20000076293945,71.19999694824219,33.599998474121094C71.5999984741211,33.400001525878906,72.69999694824219,32.5,73.5,31.600000381469727C73.69999694824219,31.299999237060547,74.0999984741211,31.100000381469727,74.5,31.100000381469727C75.80000305175781,31.100000381469727,77.9000015258789,31.600000381469727,78.9000015258789,33.099998474121094C80,32.29999923706055,81.5999984741211,31.5,82.5999984741211,31.5C82.9000015258789,31.5,83.19999694824219,31.600000381469727,83.4000015258789,31.700000762939453C83.80000305175781,31.899999618530273,84.0999984741211,32.20000076293945,84.0999984741211,32.599998474121094C84.30000305175781,33.900001525878906,85.30000305175781,34.400001525878906,85.9000015258789,34.599998474121094C86.9000015258789,34.20000076293945,89,33.400001525878906,90.0999984741211,33.5C95.5,34.5,96.9000015258789,38.099998474121094,98.0999984741211,41.20000076293945C98.19999694824219,41.599998474121094,98.4000015258789,41.900001525878906,98.5,42.29999923706055C99.0999984741211,43.79999923706055,99.30000305175781,46.099998474121094,99.4000015258789,48.29999923706055C100.30000305175781,44.20000076293945,100.5999984741211,38,98.9000015258789,32.099998474121094C96.9000015258789,24.5,91,15.5,75,15.5z"/>
</g>
</svg>