<svg xmlns="http://www.w3.org/2000/svg" xmlns:xlink="http://www.w3.org/1999/xlink" viewBox= "0 0 134 319" width="134px" height="319px">
<g xmlns="http://www.w3.org/2000/svg" id="BoyV2.svg">
<path id="shoes" fill="#2C81C6" d="M53.66999816894531,285.19000244140625C52.93000030517578,285.19000244140625,51.66999816894531,286.8299865722656,51.029998779296875,287.25C50.38999938964844,287.6700134277344,44.290000915527344,290.19000244140625,40.95000076293945,292.7099914550781C37.61000061035156,295.2300109863281,37.62999725341797,298.260009765625,38.08000183105469,301.510009765625C38.529998779296875,304.760009765625,42.75,307.0799865722656,49.75,306.3599853515625C56.75,305.6400146484375,57.2400016784668,302.0299987792969,60.36000061035156,300.6700134277344C63.47999954223633,299.30999755859375,69.13999938964844,298.05999755859375,69.06999969482422,295.6700134277344C69,293.2799987792969,67.95999908447266,286.3399963378906,67.38999938964844,285.2699890136719C67.29530334472656,285.07000732421875,67.22799682617188,284.8580017089844,67.19000244140625,284.6400146484375C65.6500015258789,285.3599853515625,63.61000061035156,286.2699890136719,61.06999969482422,287.30999755859375C57.119998931884766,289,54.40999984741211,285.19000244140625,53.66999816894531,285.19000244140625zM118,299.7099914550781C117.7300033569336,294.25,113.47000122070312,292.1199951171875,111.20999908447266,291.04998779296875C109.36000061035156,290.17999267578125,103.58999633789062,287.6199951171875,101.6500015258789,285.8399963378906C99.0199966430664,285.6000061035156,96.7699966430664,289.1400146484375,92.22000122070312,289.1400146484375C89.69999694824219,289.1400146484375,88.22000122070312,287.1400146484375,87.12999725341797,286.9100036621094C86.60310363769531,289.94891357421875,86.32550048828125,293.0257873535156,86.30000305175781,296.1099853515625C86.48999786376953,299.70001220703125,92.02999877929688,300.2799987792969,94.69999694824219,300.6400146484375C97.37000274658203,301,101.08999633789062,307.70001220703125,107.87999725341797,307.70001220703125S118.30999755859375,305.1700134277344,118,299.7099914550781z"/>
<path id="Soles" fill="#FFFFFF" d="M60.68000030517578,297.20001220703125C56.560001373291016,297.95001220703125,54.41999816894531,303.3999938964844,47.68000030517578,303.3999938964844C42.19000244140625,303.3999938964844,40.68000030517578,302.3299865722656,37.86000061035156,299.5199890136719C37.86000061035156,300.1700134277344,37.970001220703125,300.8299865722656,38.05999755859375,301.5199890136719C38.52000045776367,304.760009765625,42.72999954223633,307.0899963378906,49.72999954223633,306.3699951171875C56.72999954223633,305.6499938964844,57.220001220703125,302.0400085449219,60.34000015258789,300.67999267578125C63.459999084472656,299.32000732421875,69.1199951171875,298.07000732421875,69.05000305175781,295.67999267578125C69.05000305175781,295.20001220703125,68.97999572753906,294.510009765625,68.9000015258789,293.67999267578125C66.22000122070312,295.1400146484375,63.2599983215332,296.7300109863281,60.68000030517578,297.20001220703125zM106.66000366210938,304.25C100.75,303.44000244140625,99.4000015258789,298.6000061035156,96.8499984741211,297.5299987792969C94.69000244140625,296.6199951171875,90.5199966430664,297.5299987792969,86.36000061035156,294.1000061035156C86.32599639892578,294.7662048339844,86.32599639892578,295.4338073730469,86.36000061035156,296.1000061035156C86.55000305175781,299.69000244140625,92.08999633789062,300.2699890136719,94.76000213623047,300.6300048828125C97.43000030517578,300.989990234375,101.1500015258789,307.69000244140625,107.94000244140625,307.69000244140625C114.30000305175781,307.69000244140625,117.86000061035156,305.4700012207031,118.05999755859375,300.69000244140625C115.5999984741211,304,111.48999786376953,304.9100036621094,106.66000366210938,304.25z"/>
<path id="shoesBorder" d="M119.24800109863281,299.6431884765625C118.93350219726562,293.3229064941406,113.89550018310547,290.9381103515625,111.74210357666016,289.9195861816406L110.98040008544922,289.5650939941406C108.91400146484375,288.6090087890625,104.07510375976562,286.3688049316406,102.49500274658203,284.9195861816406C102.2938003540039,284.7341003417969,102.03700256347656,284.62078857421875,101.76360321044922,284.59539794921875C100.18450164794922,284.45379638671875,98.85340118408203,285.23699951171875,97.45110321044922,286.0690002441406C95.94229888916016,286.9645080566406,94.38079833984375,287.8902893066406,92.2197036743164,287.8902893066406C90.98629760742188,287.8902893066406,90.02729797363281,287.22039794921875,89.18060302734375,286.6296081542969C88.58589935302734,286.2135925292969,88.02339935302734,285.8210144042969,87.38860321044922,285.68719482421875C87.05269622802734,285.614013671875,86.70989990234375,285.6852111816406,86.42859649658203,285.87469482421875C86.14739990234375,286.0650939941406,85.95590209960938,286.36199951171875,85.89830017089844,286.6969909667969C85.36119842529297,289.797607421875,85.07599639892578,292.96160888671875,85.05159759521484,296.176513671875C85.28890228271484,300.65399169921875,91.30059814453125,301.4508972167969,94.19029998779297,301.8337097167969L94.53309631347656,301.8796081542969C95.1365966796875,301.960693359375,96.2499008178711,302.93719482421875,97.3270034790039,303.88250732421875C99.7645034790039,306.0212097167969,103.10340118408203,308.94989013671875,107.87969970703125,308.94989013671875C112.21369934082031,308.94989013671875,115.36509704589844,307.94110107421875,117.24400329589844,305.951904296875C118.7217025756836,304.3883056640625,119.39649963378906,302.2652893066406,119.24800109863281,299.6431884765625zM115.42769622802734,304.2349853515625C114.03810119628906,305.7047119140625,111.4990005493164,306.4497985839844,107.87979888916016,306.4497985839844C104.0447998046875,306.4497985839844,101.23429870605469,303.9840087890625,98.97550201416016,302.00250244140625C97.43450164794922,300.6509094238281,96.21769714355469,299.5835876464844,94.86710357666016,299.4018859863281L94.51850128173828,299.3550109863281C92.12689971923828,299.03759765625,87.67569732666016,298.44879150390625,87.54969787597656,296.12060546875C87.55049896240234,296.0262145996094,87.5553970336914,295.9314880371094,87.55670166015625,295.8370056152344C89.98030090332031,297.2605895996094,92.32540130615234,297.548095703125,94.12689971923828,297.7572937011719C95.11229705810547,297.8716125488281,95.96379852294922,297.97021484375,96.55950164794922,298.22119140625C97.3124008178711,298.53759765625,98.01360321044922,299.3363952636719,98.82510375976562,300.26220703125C100.45500183105469,302.1216125488281,102.48429870605469,304.4341125488281,106.55850219726562,304.9927062988281C110.36329650878906,305.5130920410156,113.46630096435547,305.0705871582031,115.83869934082031,303.6799011230469C115.70790100097656,303.869384765625,115.5873031616211,304.06610107421875,115.42769622802734,304.2349853515625zM116.75199890136719,299.7799072265625C116.7780990600586,300.2381896972656,116.76850128173828,300.6651916503906,116.7333984375,301.0707092285156C114.56320190429688,303.289306640625,111.2251968383789,304.1191101074219,106.76170349121094,303.50640869140625C103.24310302734375,303.0249938964844,101.49510192871094,301.03179931640625,99.9531021118164,299.27301025390625C99.05760192871094,298.25250244140625,98.21189880371094,297.28759765625,97.1406021118164,296.8384094238281C96.34860229492188,296.50439453125,95.39939880371094,296.3949890136719,94.30079650878906,296.26708984375C92.3646011352539,296.0422058105469,90.0010986328125,295.7535095214844,87.6072998046875,294.09039306640625C87.68550109863281,292.3599853515625,87.84200286865234,290.6278076171875,88.08209991455078,288.9096984863281C89.04989624023438,289.56988525390625,90.41799926757812,290.39019775390625,92.21980285644531,290.39019775390625C95.06649780273438,290.39019775390625,97.0968017578125,289.18609619140625,98.72760009765625,288.2182922363281C99.69730377197266,287.6430969238281,100.49320220947266,287.17041015625,101.19149780273438,287.09039306640625C101.92109680175781,287.6745910644531,102.93409729003906,288.2997131347656,104.03620147705078,288.9130859375C102.48580169677734,289.92401123046875,101.4448013305664,290.7156982421875,101.39070129394531,290.75738525390625C100.8427963256836,291.1763000488281,100.7384033203125,291.96051025390625,101.15730285644531,292.5093994140625C101.40339660644531,292.8306884765625,101.77549743652344,292.9996032714844,102.15139770507812,292.9996032714844C102.41600036621094,292.9996032714844,102.68360137939453,292.91558837890625,102.91020202636719,292.7427978515625C102.92569732666016,292.7301940917969,104.48320007324219,291.5436096191406,106.59639739990234,290.2510070800781C107.11509704589844,290.50738525390625,107.61669921875,290.7486877441406,108.1011962890625,290.9784851074219C107.3468017578125,291.6781921386719,106.62239837646484,292.4117126464844,105.9717025756836,293.2095947265625C105.53520202636719,293.74481201171875,105.61530303955078,294.5328063964844,106.15039825439453,294.9684143066406C106.38279724121094,295.15789794921875,106.66210174560547,295.2496032714844,106.93949890136719,295.2496032714844C107.30280303955078,295.2496032714844,107.66220092773438,295.0924072265625,107.9092025756836,294.78961181640625C108.70279693603516,293.8157043457031,109.5967025756836,292.92608642578125,110.55699920654297,292.125L110.67579650878906,292.1802062988281C113.70700073242188,293.61480712890625,116.54199981689453,295.52789306640625,116.75199890136719,299.77099609375C116.75199890136719,299.77398681640625,116.75199890136719,299.7770080566406,116.75199890136719,299.7799072265625zM68.42140197753906,284.4244079589844C68.35400390625,284.0415954589844,68.1123046875,283.71148681640625,67.7676010131836,283.53179931640625C67.42289733886719,283.3501892089844,67.01319885253906,283.3432922363281,66.66070556640625,283.50738525390625C64.79940032958984,284.37750244140625,62.7588005065918,285.2680969238281,60.57820129394531,286.16070556640625C58.505001068115234,287.04840087890625,56.94490051269531,286.0289001464844,55.400001525878906,284.81109619140625C54.758399963378906,284.3052062988281,54.294498443603516,283.94000244140625,53.66999816894531,283.94000244140625C52.675899505615234,283.94000244140625,51.825801849365234,284.77978515625,51.003501892089844,285.59228515625C50.7760009765625,285.8179016113281,50.46440124511719,286.12548828125,50.35309982299805,286.1986999511719C50.21590042114258,286.2817077636719,49.60850143432617,286.56689453125,49.02109909057617,286.84228515625C46.83509826660156,287.86669921875,42.766700744628906,289.77301025390625,40.1973991394043,291.7113952636719C36.24040222167969,294.69769287109375,36.39080047607422,298.4233093261719,36.84189987182617,301.68109130859375C37.280399322509766,304.85101318359375,40.6676025390625,307.74261474609375,47.26380157470703,307.74261474609375C48.08509826660156,307.74261474609375,48.95669937133789,307.69769287109375,49.87810134887695,307.6029968261719C54.904998779296875,307.0863952636719,56.940101623535156,305.12939453125,58.57490158081055,303.5570983886719C59.337100982666016,302.82470703125,59.99480056762695,302.19281005859375,60.85960006713867,301.8149108886719C61.57490158081055,301.5033874511719,62.448001861572266,301.19189453125,63.37229919433594,300.8617858886719C66.826904296875,299.62939453125,70.39869689941406,298.35400390625,70.31959533691406,295.6322937011719C70.252197265625,293.32269287109375,69.235595703125,286.07659912109375,68.52030181884766,284.7358093261719C68.47309875488281,284.63641357421875,68.43989562988281,284.5318908691406,68.42140197753906,284.4244079589844zM41.703102111816406,293.7076110839844C42.401100158691406,293.180908203125,43.2406005859375,292.6520080566406,44.12329864501953,292.1393127441406C46.375,293.5155944824219,48.4359016418457,295.0289001464844,48.45800018310547,295.0455017089844C48.68109893798828,295.21051025390625,48.94139862060547,295.28961181640625,49.19919967651367,295.28961181640625C49.58250045776367,295.28961181640625,49.960899353027344,295.1138000488281,50.205501556396484,294.78179931640625C50.615699768066406,294.2261047363281,50.49800109863281,293.44390869140625,49.94279861450195,293.0338134765625C49.86640167236328,292.97808837890625,48.448001861572266,291.9350891113281,46.647499084472656,290.7716064453125C47.32400131225586,290.4270935058594,47.9734992980957,290.1075134277344,48.575801849365234,289.8190002441406C50.001800537109375,290.4540100097656,51.31380081176758,291.3049011230469,52.4739990234375,292.34930419921875C52.712799072265625,292.5640869140625,53.011600494384766,292.6695861816406,53.30939865112305,292.6695861816406C53.65169906616211,292.6695861816406,53.99250030517578,292.5299987792969,54.23910140991211,292.2554931640625C54.70100021362305,291.7427978515625,54.659000396728516,290.9518127441406,54.14580154418945,290.4898986816406C53.2952995300293,289.72491455078125,52.368099212646484,289.0596923828125,51.38890075683594,288.47821044921875C51.52370071411133,288.408203125,51.636600494384766,288.3464050292969,51.7150993347168,288.29449462890625C52.043701171875,288.0797119140625,52.375701904296875,287.7514953613281,52.760501861572266,287.3706970214844C52.981201171875,287.15289306640625,53.3390998840332,286.7994079589844,53.607200622558594,286.5826110839844C53.689701080322266,286.6470947265625,53.7765998840332,286.71539306640625,53.85179901123047,286.7749938964844C55.18239974975586,287.8229064941406,57.94900131225586,290.00250244140625,61.5432014465332,288.4674072265625C63.26240158081055,287.7633056640625,64.90750122070312,287.0552978515625,66.44990539550781,286.3561096191406C66.80509948730469,287.68719482421875,67.35789489746094,290.9800109863281,67.64219665527344,293.5097961425781C65.38479614257812,294.7279052734375,62.7682991027832,296.0574951171875,60.54560089111328,296.46160888671875C58.67940139770508,296.8013916015625,57.23899841308594,297.9606018066406,55.7140998840332,299.18719482421875C53.597900390625,300.8893127441406,51.40890121459961,302.65008544921875,47.679901123046875,302.65008544921875C43.002498626708984,302.65008544921875,41.458499908447266,301.91558837890625,39.15879821777344,299.7373046875C38.99959945678711,297.1911926269531,39.518699645996094,295.3558044433594,41.703102111816406,293.7076110839844zM62.53120040893555,298.50738525390625C61.56589889526367,298.85211181640625,60.65380096435547,299.1783142089844,59.86029815673828,299.52398681640625C58.58440017700195,300.0797119140625,57.698699951171875,300.93121337890625,56.842201232910156,301.7554016113281C55.34270095825195,303.1968078613281,53.79240036010742,304.68798828125,49.62200164794922,305.11669921875C43.66889953613281,305.72808837890625,40.36140060424805,304.0447082519531,39.5181999206543,302.03131103515625C41.47710037231445,303.53839111328125,43.48680114746094,304.14990234375,47.68009948730469,304.14990234375C51.93790054321289,304.14990234375,54.44380187988281,302.1343078613281,56.654701232910156,300.3559875488281C58.086299896240234,299.2037048339844,59.32270050048828,298.2095031738281,60.81439971923828,297.93798828125C63.06489944458008,297.5281982421875,65.56999969482422,296.31298828125,67.79139709472656,295.130615234375C67.80479431152344,295.3362121582031,67.81570434570312,295.5321044921875,67.82080078125,295.7055969238281C67.84719848632812,296.6099853515625,64.25680541992188,297.8922119140625,62.53120040893555,298.50738525390625z"/>
<path id="pants" fill="#D8D8D8" d="M49.16999816894531,181.14999389648438C49.0099983215332,184.14999389648438,47.16999816894531,214.49000549316406,46.939998626708984,221.6999969482422C46.810001373291016,225.89999389648438,44.619998931884766,237.6999969482422,46.83000183105469,238.77000427246094C49.040000915527344,239.83999633789062,54.83000183105469,238.52999877929688,60.040000915527344,239.5800018310547C65.25,240.6300048828125,70.19000244140625,243.10000610351562,72.0999984741211,242.27999877929688C74.00999450683594,241.4600067138672,73.58000183105469,246.47000122070312,74.0999984741211,235.97999572753906C74.6199951171875,225.49000549316406,75.83999633789062,213.2100067138672,77.38999938964844,213.42999267578125C78.94000244140625,213.64999389648438,79.0999984741211,243,81.25,243.32000732421875C83.4000015258789,243.63999938964844,89.97000122070312,241.38999938964844,94.12999725341797,241.05999755859375C98.29000091552734,240.72999572753906,107.86000061035156,241.24000549316406,107.86000061035156,241.24000549316406C107.86000061035156,241.24000549316406,107.41000366210938,233.9600067138672,106.86000061035156,226.89999389648438S105.68000030517578,197,105.33999633789062,194C105,191,104.51000213623047,183.5,104.51000213623047,183.5L49.16999816894531,181.14999389648438z"/>
<path id="pantsBorder" d="M108.10639953613281,226.80239868164062C107.81829833984375,223.10609436035156,107.50389862060547,214.9468994140625,107.22650146484375,207.74769592285156C106.9697036743164,201.08169555664062,106.74800109863281,195.3238983154297,106.58200073242188,193.85899353027344C106.2490005493164,190.92250061035156,105.76170349121094,183.4927978515625,105.75679779052734,183.41859436035156C105.7157974243164,182.78089904785156,105.20020294189453,182.2779998779297,104.5625,182.25059509277344L49.22309875488281,179.9010009765625C48.55070114135742,179.8618927001953,47.95800018310547,180.3990020751953,47.92179870605469,181.08360290527344C47.88570022583008,181.7554931640625,47.76559829711914,183.80239868164062,47.597599029541016,186.65390014648438C46.99359893798828,196.92730712890625,45.869598388671875,216.05039978027344,45.690399169921875,221.66070556640625C45.65620040893555,222.76710510253906,45.462398529052734,224.51809692382812,45.257301330566406,226.37159729003906C44.40570068359375,234.06399536132812,44.049800872802734,238.81199645996094,46.285099029541016,239.89500427246094C47.64979934692383,240.55520629882812,49.68159866333008,240.50439453125,52.252899169921875,240.43409729003906C54.61470031738281,240.3726043701172,57.293399810791016,240.30029296875,59.79290008544922,240.80520629882812C61.769500732421875,241.20359802246094,63.75090026855469,241.8267059326172,65.4990005493164,242.37750244140625C68.60150146484375,243.3531036376953,70.86720275878906,244.06500244140625,72.4541015625,243.48390197753906C72.46089935302734,243.48980712890625,72.466796875,243.49659729003906,72.47360229492188,243.50250244140625C72.98529815673828,244.00149536132812,73.51950073242188,244.14309692382812,74.05860137939453,243.9311981201172C74.9873046875,243.56500244140625,74.99710083007812,243.37750244140625,75.22560119628906,238.57080078125L75.34770202636719,236.04150390625C75.76270294189453,227.68899536132812,76.42289733886719,221.3939971923828,77.05380249023438,217.78469848632812C77.30180358886719,220.2866973876953,77.52839660644531,223.6616973876953,77.72669982910156,226.61669921875C78.74230194091797,241.76510620117188,79.21009826660156,244.27980041503906,81.06559753417969,244.5561981201172C81.27259826660156,244.58740234375,81.49720001220703,244.6020965576172,81.74240112304688,244.6020965576172C83.05490112304688,244.6020965576172,84.94550323486328,244.18020629882812,87.68280029296875,243.5435028076172C89.9885025024414,243.0074005126953,92.37319946289062,242.45370483398438,94.22869873046875,242.3061981201172C98.25599670410156,241.98590087890625,107.69840240478516,242.48300170898438,107.79409790039062,242.48779296875C108.14569854736328,242.4976043701172,108.49720001220703,242.3726043701172,108.74819946289062,242.11959838867188C108.99919891357422,241.86659240722656,109.12999725341797,241.51800537109375,109.10859680175781,241.16259765625C109.10350036621094,241.08949279785156,108.65039825439453,233.79159545898438,108.10639953613281,226.80239868164062zM94.03119659423828,239.81410217285156C91.98919677734375,239.9761962890625,89.51170349121094,240.55239868164062,87.11620330810547,241.10899353027344C85.16600036621094,241.56210327148438,82.98919677734375,242.0679931640625,81.86029815673828,242.1011962890625C81.13860321044922,240.1470947265625,80.5907974243164,231.9694061279297,80.220703125,226.4488983154297C79.36910247802734,213.7458038330078,79.12110137939453,212.4127960205078,77.56539916992188,212.1929931640625C77.49310302734375,212.1822967529297,77.4208984375,212.17739868164062,77.34860229492188,212.17739868164062C76.98040008544922,212.17739868164062,76.62010192871094,212.31019592285156,76.31539916992188,212.5612030029297C74.3291015625,214.2008056640625,73.33489990234375,226.1676025390625,72.85150146484375,235.91859436035156L72.72850036621094,238.45179748535156C72.68060302734375,239.45179748535156,72.64059448242188,240.29159545898438,72.60449981689453,240.9322967529297C72.279296875,240.92160034179688,71.94529724121094,240.98599243164062,71.60649871826172,241.13150024414062C70.86920166015625,241.4459991455078,68.30770111083984,240.6403045654297,66.24960327148438,239.9927978515625C64.44200134277344,239.42349243164062,62.39360046386719,238.77890014648438,60.287200927734375,238.35409545898438C57.51029968261719,237.79550170898438,54.68170166015625,237.87069702148438,52.18709945678711,237.93519592285156C50.194400787353516,237.98789978027344,48.309200286865234,238.03770446777344,47.451698303222656,237.67930603027344C46.649898529052734,236.5093994140625,47.38629913330078,229.8618927001953,47.7421989440918,226.64610290527344C47.96189880371094,224.65980529785156,48.15190124511719,222.9429931640625,48.18949890136719,221.73989868164062C48.3671989440918,216.1636962890625,49.53329849243164,196.33169555664062,50.093299865722656,186.80039978027344C50.20119857788086,184.97030639648438,50.28960037231445,183.47030639648438,50.348201751708984,182.4508056640625L81.16999816894531,183.75950622558594L81.16999816894531,197.6782989501953L77.45320129394531,198.5034942626953C76.91410064697266,198.62359619140625,76.57430267333984,199.15780639648438,76.69339752197266,199.6968994140625C76.7968978881836,200.16270446777344,77.21099853515625,200.4801025390625,77.66899871826172,200.4801025390625C77.74130249023438,200.4801025390625,77.8134994506836,200.47230529785156,77.88680267333984,200.45669555664062L82.38680267333984,199.45669555664062C82.84480285644531,199.3542022705078,83.16999816894531,198.9488983154297,83.16999816894531,198.4801025390625L83.16999816894531,183.84449768066406L103.33799743652344,184.7008056640625C103.4884033203125,186.9156036376953,103.83409881591797,191.81410217285156,104.0978012084961,194.1403045654297C104.25309753417969,195.5124053955078,104.4844970703125,201.50259399414062,104.72869873046875,207.8444061279297C105.00700378417969,215.06610107421875,105.32250213623047,223.25059509277344,105.6144027709961,226.9967041015625C106.01580047607422,232.14810180664062,106.36640167236328,237.4694061279297,106.52459716796875,239.92349243164062C103.6875,239.7946014404297,97.30470275878906,239.55430603027344,94.03119659423828,239.81410217285156z"/>
<path id="Body" fill="#BF8C5C" d="M65.4990005493164,242.37759399414062C67.41719818115234,242.98069763183594,69.01359558105469,243.48109436035156,70.32939910888672,243.639404296875C70.02470397949219,246.34140014648438,69.7863998413086,248.16830444335938,69.68000030517578,248.44009399414062C69.20999908447266,249.64010620117188,69.79000091552734,253.64010620117188,69.30000305175781,260.1401062011719C68.80999755859375,266.6401062011719,67.9000015258789,274.9400939941406,66.80999755859375,278.7301025390625C65.72000122070312,282.5201110839844,66.83999633789062,284.8301086425781,66.9000015258789,285.8301086425781C63.25830078125,289.77178955078125,57.18360137939453,290.2135009765625,53.0099983215332,286.840087890625C54.849998474121094,285.78009033203125,54.18000030517578,279.5700988769531,54.099998474121094,276.840087890625C54.04999923706055,275.110107421875,52.45000076293945,258.77008056640625,52.45000076293945,256.590087890625C52.47169876098633,253.58380126953125,52.31809997558594,250.57859802246094,51.9900016784668,247.59010314941406C51.59870147705078,246.10740661621094,51.395301818847656,243.12539672851562,51.353599548339844,240.4573974609375C51.64580154418945,240.45069885253906,51.94499969482422,240.4427947998047,52.25299835205078,240.43429565429688C54.61479949951172,240.372802734375,57.29349899291992,240.30050659179688,59.792999267578125,240.80540466308594C61.769500732421875,241.20370483398438,63.750999450683594,241.82679748535156,65.4990005493164,242.37759399414062zM100.83999633789062,242.72000122070312C100.82990264892578,242.6566925048828,100.8301010131836,242.4821014404297,100.83670043945312,242.23390197753906C98.3998031616211,242.18179321289062,95.86689758300781,242.17599487304688,94.22850036621094,242.30630493164062C92.37300109863281,242.45379638671875,89.98829650878906,243.00750732421875,87.68260192871094,243.54359436035156C86.10079956054688,243.9114990234375,84.80940246582031,244.2041015625,83.74120330810547,244.3885955810547C83.97059631347656,245.2852020263672,84.1760025024414,245.95199584960938,84.33999633789062,246.2801055908203C85.22000122070312,248.04010009765625,84.2300033569336,251.8101043701172,84.5,257.81011962890625C84.7699966430664,263.81011962890625,88.4000015258789,275.28009033203125,88.4000015258789,286.15008544921875C88.2699966430664,288.78009033203125,89.4000015258789,291.5000915527344,94.13999938964844,291.5000915527344C98.87999725341797,291.5000915527344,101,285.28009033203125,101,285.28009033203125C101.16999816894531,283.79010009765625,101.75,253.89010620117188,101.4800033569336,251.44009399414062C101.20999908447266,248.99000549316406,100.83999633789062,242.72000122070312,100.83999633789062,242.72000122070312zM43.54999923706055,103C36.709999084472656,110,37.30999755859375,129.85000610351562,35.29999923706055,134.11000061035156C33.290000915527344,138.3699951171875,32.470001220703125,143.05999755859375,30.969999313354492,150.66000366210938C29.469999313354492,158.25999450683594,27.59000015258789,176,26.389999389648438,180C25.18000030517578,184,24.899999618530273,183.5,19.43000030517578,187.77999877929688C17.360000610351562,188.47000122070312,11.359999656677246,192.22999572753906,12.359999656677246,194.85000610351562C13.359999656677246,197.47000122070312,16.899999618530273,195.0800018310547,17.15999984741211,195.25999450683594C17.420000076293945,195.44000244140625,14.710000038146973,203.1999969482422,14.579999923706055,204.33999633789062C14.449999809265137,205.47999572753906,16.350000381469727,207.5399932861328,19.100000381469727,208.4199981689453C21.850000381469727,209.3000030517578,26.31999969482422,204.92999267578125,27.68000030517578,203.86000061035156C29.040000915527344,202.7899932861328,32.040000915527344,193.1999969482422,31.950000762939453,191.38999938964844C31.860000610351562,189.5800018310547,33.86000061035156,181.6999969482422,33.86000061035156,181.6999969482422C36.279998779296875,175.2899932861328,41.23999786376953,162,44.459999084472656,156C47.68000030517578,150,50.599998474121094,136,50.36000061035156,126S50.38999938964844,96,43.54999923706055,103zM89.18569946289062,94.19709777832031C86.46589660644531,93.43679809570312,84.90080261230469,91.34770202636719,83.99919891357422,89.09390258789062C80.96659851074219,90.58650207519531,77.84989929199219,91.41999816894531,74.81999969482422,91.41999816894531C72.01110076904297,91.41999816894531,69.09930419921875,90.66940307617188,66.23739624023438,89.32379913330078C65.57640075683594,91.40029907226562,64.46640014648438,93.22429656982422,62.58430099487305,94.50430297851562C65.62620544433594,98.96330261230469,70.69229888916016,101.6709976196289,76.1500015258789,101.66000366210938C84.75869750976562,101.66000366210938,88.2197036743164,96.18550109863281,89.18569946289062,94.19709777832031zM121.54000091552734,148.6699981689453C121.31529998779297,146.23269653320312,120.52549743652344,141.51210021972656,119.44139862060547,136.17169189453125L105.78340148925781,136.87820434570312C105.99089813232422,141.1685028076172,106.37200164794922,146.2366943359375,107.06999969482422,150.41990661621094C108.69999694824219,160.10989379882812,109.30999755859375,180.80990600585938,108.9800033569336,182.61990356445312C108.35009765625,186.00990295410156,106.55999755859375,187.05990600585938,105.33000183105469,188.9499053955078C104.69000244140625,189.9499053955078,99.05000305175781,196.30990600585938,101.4800033569336,200.62989807128906C103.67340087890625,201.07589721679688,104.12760162353516,198.44920349121094,104.20659637451172,197.21209716796875C104.23799896240234,198.93629455566406,104.70279693603516,200.6977996826172,104.55000305175781,201.8300018310547C104.55000305175781,201.80999755859375,97.79000091552734,208.25,104.8499984741211,209.14990234375C111.9000015258789,210.04989624023438,115.66999816894531,203.4799041748047,116.26000213623047,202.14990234375C116.8499984741211,200.8199005126953,116.77999877929688,189.92990112304688,116.5999984741211,187.4698944091797C116.53579711914062,186.0946044921875,116.73600006103516,184.71969604492188,117.19000244140625,183.41990661621094C117.54000091552734,182.4199981689453,122.12999725341797,155.07000732421875,121.54000091552734,148.6699981689453z"/>
<path id="Head" fill="#FFFFFF" d="M105.4000015258789,52.88999938964844C105.4000015258789,73,89.12999725341797,91.41999816894531,74.81999969482422,91.41999816894531C60.81999969482422,91.41999816894531,44.2400016784668,73.04000091552734,44.2400016784668,52.88999938964844C44.2400016784668,49.88999938964844,44.529998779296875,38.05999755859375,45.09000015258789,35.59000015258789C48.33000183105469,21.279998779296875,60.40999984741211,15.110000610351562,74.81999969482422,15.110000610351562C89.2300033569336,15.110000610351562,101.2699966430664,21.260000228881836,104.52999877929688,35.540000915527344C105.0999984741211,38,105.4000015258789,49.90999984741211,105.4000015258789,52.88999938964844z"/>
<path id="BodyBorder" d="M118.37010192871094,183.83169555664062C117.9677963256836,184.98500061035156,117.79199981689453,186.19009399414062,117.84860229492188,187.4127960205078C117.96289825439453,188.9615936279297,118.2197036743164,200.81419372558594,117.40229797363281,202.6569061279297C117.36519622802734,202.73989868164062,113.83589935302734,210.48699951171875,106.19329833984375,210.48699951171875C105.70890045166016,210.48699951171875,105.20890045166016,210.45579528808594,104.69129943847656,210.3903045654297C100.55650329589844,209.86300659179688,100.3104019165039,207.4459991455078,100.39640045166016,206.4302978515625C100.50479888916016,205.14320373535156,101.67859649658203,203.0991973876953,102.83779907226562,201.7993927001953C102.34369659423828,201.94979858398438,101.80169677734375,201.97030639648438,101.23139953613281,201.85409545898438C100.87590026855469,201.78179931640625,100.56929779052734,201.5592041015625,100.3916015625,201.2427978515625C97.86430358886719,196.75259399414062,102.23539733886719,190.98399353027344,103.88089752197266,188.81210327148438C104.06639862060547,188.5679931640625,104.20709991455078,188.3852996826172,104.27739715576172,188.2760009765625C104.67880249023438,187.65780639648438,105.11530303955078,187.14219665527344,105.53620147705078,186.64320373535156C106.5167007446289,185.4821014404297,107.36329650878906,184.47909545898438,107.75199890136719,182.39120483398438C108.05470275878906,180.6811981201172,107.44149780273438,160.16119384765625,105.83789825439453,150.62750244140625C105.1238021850586,146.34800720214844,104.73930358886719,141.23550415039062,104.53209686279297,136.94290161132812L107.03500366210938,136.8134002685547C107.239501953125,141.05409240722656,107.614501953125,146.08340454101562,108.30380249023438,150.2144012451172C109.91609954833984,159.8032989501953,110.59770202636719,180.71539306640625,110.20999908447266,182.8433074951172C109.70020294189453,185.5865020751953,108.50299835205078,187.00439453125,107.44629669189453,188.25540161132812C107.05760192871094,188.71629333496094,106.68949890136719,189.1519012451172,106.37789916992188,189.6313934326172C106.29199981689453,189.76519775390625,106.11419677734375,190.00439453125,105.87300109863281,190.32179260253906C104.72160339355469,191.84230041503906,101.38670349121094,196.24169921875,102.27729797363281,199.31500244140625C102.69139862060547,198.9517059326172,102.8916015625,197.95559692382812,102.9531021118164,197.2602996826172C102.94819641113281,197.0308074951172,102.95020294189453,196.80029296875,102.96089935302734,196.57080078125C102.98629760742188,196.05130004882812,103.33390045166016,195.56100463867188,103.8281021118164,195.40089416503906C104.32610321044922,195.23980712890625,104.87300109863281,195.40480041503906,105.19719696044922,195.81790161132812C105.34660339355469,196.0074005126953,105.42769622802734,196.31109619140625,105.4540023803711,196.67630004882812L105.45890045166016,196.67730712890625C105.45790100097656,196.6909942626953,105.45790100097656,196.70460510253906,105.45690155029297,196.71929931640625C105.46759796142578,196.8979949951172,105.4666976928711,197.09039306640625,105.45490264892578,197.29159545898438C105.47440338134766,197.95860290527344,105.56330108642578,198.64610290527344,105.65019989013672,199.31500244140625C105.77619934082031,200.2866973876953,105.89530181884766,201.20460510253906,105.78890228271484,201.99659729003906C105.74690246582031,202.30230712890625,105.59549713134766,202.57859802246094,105.36599731445312,202.77589416503906C104.33570098876953,203.7310028076172,102.59940338134766,206.00540161132812,102.91580200195312,206.99659729003906C103.03520202636719,207.37030029296875,103.66429901123047,207.6804962158203,104.62259674072266,207.85049438476562C104.7582015991211,207.76870727539062,104.90869903564453,207.710205078125,105.07489776611328,207.70950317382812C106.0103988647461,207.31109619140625,109.0103988647461,203.24169921875,110.31420135498047,201.1363067626953C110.57589721679688,200.71339416503906,111.12960052490234,200.58360290527344,111.55349731445312,200.84429931640625C111.97640228271484,201.1060028076172,112.1072006225586,201.66070556640625,111.84549713134766,202.08360290527344C111.32620239257812,202.92140197753906,109.41429901123047,205.92759704589844,107.58809661865234,207.8488006591797C107.75199890136719,207.8199005126953,107.910400390625,207.78199768066406,108.06890106201172,207.7440948486328C109.40550231933594,206.84339904785156,112.05359649658203,203.79930114746094,112.4979019165039,202.31219482421875C112.6395034790039,201.8365936279297,113.13849639892578,201.56509399414062,113.61799621582031,201.70770263671875C114.09359741210938,201.84930419921875,114.36509704589844,202.35130310058594,114.22250366210938,202.8278045654297C114.15570068359375,203.05189514160156,114.043701171875,203.31219482421875,113.90440368652344,203.59140014648438C114.6968994140625,202.5220947265625,115.10590362548828,201.66769409179688,115.11699676513672,201.64320373535156C115.54080200195312,200.41180419921875,115.55840301513672,190.36680603027344,115.35240173339844,187.56210327148438C115.2791976928711,185.98500061035156,115.50180053710938,184.4635009765625,116.0105972290039,183.0074005126953C116.3124008178711,181.93710327148438,120.86409759521484,154.9575958251953,120.2947998046875,148.78469848632812C120.0604019165039,146.23789978027344,119.2656021118164,141.5186004638672,118.18720245361328,136.23651123046875L120.6886978149414,136.1071014404297C121.78450012207031,141.5281982421875,122.57350158691406,146.26150512695312,122.78510284423828,148.55520629882812C123.4092025756836,155.33509826660156,118.7343978881836,182.79159545898438,118.37010192871094,183.83169555664062zM83.40270233154297,90.73359680175781C80.52030181884766,91.9927978515625,77.61019897460938,92.66999816894531,74.82029724121094,92.66999816894531C72.25569915771484,92.66999816894531,69.5896987915039,92.07279968261719,66.94029998779297,90.98429870605469C66.18629455566406,92.69930267333984,65.04409790039062,94.29029846191406,63.315799713134766,95.49210357666016C62.79949951171875,94.84549713134766,62.325401306152344,94.15889739990234,61.90610122680664,93.42849731445312C63.16960144042969,92.54840087890625,64.04789733886719,91.36090087890625,64.66000366210938,89.9207992553711C53.35430145263672,84.03379821777344,42.99020004272461,69.375,42.99020004272461,52.88970184326172C42.99020004272461,50.081600189208984,43.263099670410156,37.993202209472656,43.870601654052734,35.313499450683594C46.95800018310547,21.679800033569336,58.238800048828125,13.859999656677246,74.82029724121094,13.859999656677246C91.37010192871094,13.859999656677246,102.64350128173828,21.66080093383789,105.7490005493164,35.26190185546875C106.37010192871094,37.947898864746094,106.65039825439453,50.07339859008789,106.65039825439453,52.889801025390625C106.65039825439453,62.54410171508789,102.92970275878906,72.60420227050781,96.44139862060547,80.49040222167969C93.20179748535156,84.42880249023438,89.47859954833984,87.5386962890625,85.63569641113281,89.63420104980469C86.7761001586914,91.79010009765625,88.47679901123047,93.00160217285156,90.72850036621094,93.21600341796875C91.90599822998047,93.3583984375,92.7844009399414,93.85910034179688,93.306396484375,94.60440063476562C91.1417007446289,93.81900024414062,89.55770111083984,93.3009033203125,89.48989868164062,93.5000991821289C89.44219970703125,93.6405029296875,89.1593017578125,94.35449981689453,88.56900024414062,95.29609680175781C86.14209747314453,94.52210235595703,84.49109649658203,92.79460144042969,83.40270233154297,90.73359680175781zM74.82029724121094,90.16999816894531C88.02339935302734,90.16999816894531,104.15039825439453,72.96739959716797,104.15039825439453,52.88970184326172C104.15039825439453,49.432701110839844,103.82129669189453,38.02009963989258,103.3125,35.821800231933594C101.65229797363281,28.55139923095703,95.74410247802734,16.360000610351562,74.82029724121094,16.360000610351562C53.855899810791016,16.360000610351562,47.958499908447266,28.581199645996094,46.30910110473633,35.86589813232422C45.78960037231445,38.156898498535156,45.490299224853516,49.65639877319336,45.490299224853516,52.889801025390625C45.49020004272461,69.3228988647461,59.299800872802734,90.16999816894531,74.82029724121094,90.16999816894531zM102.08200073242188,242.59140014648438C102.07330322265625,242.4279022216797,102.0989990234375,241.8175048828125,102.13909912109375,241.01499938964844C101.32369995117188,240.99240112304688,100.48069763183594,240.9739990234375,99.63870239257812,240.96240234375C99.57969665527344,242.15049743652344,99.5696029663086,242.58560180664062,99.59380340576172,242.82969665527344C99.62799835205078,243.39419555664062,99.97470092773438,249.1929931640625,100.23829650878906,251.57679748535156C100.49120330810547,253.87559509277344,99.94730377197266,282.3999938964844,99.76950073242188,285.0044860839844C99.4531021118164,285.8247985839844,97.58589935302734,290.2496032714844,94.13960266113281,290.2496032714844C92.44039916992188,290.2496032714844,91.21279907226562,289.8658142089844,90.49310302734375,289.1090087890625C89.87010192871094,288.4537048339844,89.58589935302734,287.4790954589844,89.65029907226562,286.1499938964844C89.65029907226562,279.44879150390625,88.28410339355469,272.4674072265625,87.1864013671875,266.8580017089844C86.46959686279297,263.19390869140625,85.85050201416016,260.0299072265625,85.7489013671875,257.7545166015625C85.63269805908203,255.16949462890625,85.75769805908203,252.98109436035156,85.8572998046875,251.22129821777344C85.99690246582031,248.7720947265625,86.09850311279297,247.00160217285156,85.45790100097656,245.72129821777344C85.2677001953125,245.3408966064453,84.9906005859375,244.33200073242188,84.6709976196289,242.93739318847656C83.72760009765625,243.13279724121094,82.88130187988281,243.27969360351562,82.20659637451172,243.3300018310547C82.59120178222656,245.00680541992188,82.94619750976562,246.28750610351562,83.22149658203125,246.83839416503906C83.56430053710938,247.52389526367188,83.47440338134766,249.0933074951172,83.36209869384766,251.07859802246094C83.25759887695312,252.89500427246094,83.12969970703125,255.15480041503906,83.25080108642578,257.86572265625C83.36119842529297,260.3276062011719,83.99690246582031,263.57568359375,84.73320007324219,267.3384094238281C85.810302734375,272.84228515625,87.15019989013672,279.69189453125,87.152099609375,286.08740234375C87.05439758300781,288.03759765625,87.58370208740234,289.6781921386719,88.681396484375,290.8324890136719C89.89230346679688,292.1050109863281,91.72830200195312,292.74951171875,94.13939666748047,292.74951171875C99.70970153808594,292.74951171875,102.08470153808594,285.97119140625,102.18329620361328,285.68310546875C102.21160125732422,285.5981140136719,102.231201171875,285.51019287109375,102.24189758300781,285.42138671875C102.38150024414062,284.1968078613281,103.03099822998047,254.10299682617188,102.72239685058594,251.30320739746094C102.45899963378906,248.91270446777344,102.091796875,242.70860290527344,102.08200073242188,242.59140014648438zM49.082298278808594,124.72239685058594C49.09120178222656,125.17389678955078,49.100399017333984,125.61060333251953,49.11040115356445,126.02989959716797C49.22480010986328,130.79220581054688,48.61280059814453,136.30709838867188,47.636600494384766,141.3957977294922L47.52000045776367,142.74000549316406C47.52000045776367,142.74000549316406,47.468101501464844,142.70550537109375,47.390499114990234,142.65379333496094C46.289398193359375,147.98350524902344,44.80459976196289,152.714599609375,43.358299255371094,155.40890502929688C40.26259994506836,161.17750549316406,35.58830261230469,173.5738983154297,33.07710266113281,180.23410034179688L32.690399169921875,181.2584991455078C32.673797607421875,181.30239868164062,32.65959930419922,181.34739685058594,32.648399353027344,181.39230346679688C32.306602478027344,182.73899841308594,30.60689926147461,189.55050659179688,30.70159912109375,191.451904296875C30.777799606323242,192.98609924316406,27.960399627685547,201.84060668945312,26.90719985961914,202.87770080566406C26.700199127197266,203.04080200195312,26.42380142211914,203.27609252929688,26.09469985961914,203.55740356445312C25.956298828125,203.67579650878906,25.789600372314453,203.8179931640625,25.608699798583984,203.9705047607422C25.850399017333984,203.2467041015625,26.14929962158203,202.3173065185547,26.524799346923828,201.1374053955078C26.800701141357422,200.27020263671875,27.058500289916992,199.46060180664062,27.250900268554688,198.889404296875C27.382699966430664,198.49679565429688,27.17180061340332,198.07200622558594,26.779199600219727,197.93919372558594C26.38759994506836,197.80740356445312,25.961299896240234,198.01829528808594,25.82900047302246,198.41090393066406C25.634700775146484,198.98800659179688,25.374401092529297,199.80540466308594,25.09510040283203,200.68240356445312C24.596599578857422,202.24879455566406,23.76259994506836,204.8708953857422,23.54090118408203,205.24200439453125C23.45439910888672,205.37539672851562,23.42930030822754,205.5251007080078,23.43400001525879,205.67269897460938C22.848400115966797,206.08700561523438,22.23979949951172,206.47129821777344,21.657100677490234,206.76390075683594C21.95400047302246,206.0048065185547,22.313199996948242,204.94149780273438,22.802600860595703,203.44129943847656C23.243499755859375,202.08970642089844,23.699600219726562,200.69129943847656,24.034000396728516,199.94810485839844C24.203899383544922,199.57020568847656,24.035499572753906,199.12680053710938,23.657501220703125,198.95689392089844C23.2814998626709,198.78700256347656,22.83570098876953,198.95399475097656,22.665800094604492,199.33290100097656C22.298099517822266,200.15029907226562,21.850399017333984,201.52330017089844,21.37619972229004,202.97650146484375C20.883499145507812,204.48719787597656,20.145198822021484,206.7509002685547,19.802499771118164,207.21090698242188C19.775798797607422,207.2281951904297,19.757801055908203,207.25390625,19.73379898071289,207.2740936279297C19.646900177001953,207.2642059326172,19.559799194335938,207.25439453125,19.48069953918457,207.22940063476562C18.7810001373291,207.00540161132812,18.182199478149414,206.6988983154297,17.67020034790039,206.3726043701172C18.840200424194336,203.91839599609375,19.888198852539062,201.38099670410156,20.777999877929688,198.81629943847656C20.913700103759766,198.42469787597656,20.70669937133789,197.9969940185547,20.315099716186523,197.8612060546875C19.923999786376953,197.72740173339844,19.496299743652344,197.9324951171875,19.361000061035156,198.3240966796875C18.526500701904297,200.72959899902344,17.54840087890625,203.10740661621094,16.462299346923828,205.4152069091797C16.065099716186523,205.01060485839844,15.839700698852539,204.65870666503906,15.821399688720703,204.48330688476562C15.87559986114502,204.05259704589844,16.552799224853516,201.89930725097656,17.047500610351562,200.3260955810547C18.268400192260742,196.44479370117188,18.622699737548828,195.31410217285156,18.366899490356445,194.73890686035156L19.912200927734375,193.83779907226562C21.232500076293945,194.19329833984375,23.735401153564453,193.46380615234375,24.887298583984375,192.8231964111328C26.33409881591797,192.0175018310547,26.506900787353516,191.13470458984375,26.397600173950195,190.53509521484375C26.32339859008789,190.1269073486328,25.926898956298828,189.8553924560547,25.524999618530273,189.93260192871094C25.117300033569336,190.00680541992188,24.847801208496094,190.39739990234375,24.922000885009766,190.80470275878906C24.933700561523438,190.87010192871094,24.843399047851562,191.02439880371094,24.61629867553711,191.20899963378906C23.460100173950195,192.14939880371094,20.766700744628906,192.58599853515625,20.362899780273438,192.44439697265625C20.119701385498047,192.22470092773438,19.7632999420166,192.1855926513672,19.481599807739258,192.35260009765625L16.481599807739258,194.10260009765625C16.455699920654297,194.11770629882812,16.44059944152832,194.14230346679688,16.417200088500977,194.15989685058594C16.288999557495117,194.20640563964844,16.16119956970215,194.2519989013672,16.030399322509766,194.30580139160156C15.522100448608398,194.51480102539062,14.333600044250488,195.0070037841797,13.814599990844727,194.7823944091797C13.7677001953125,194.76190185546875,13.643199920654297,194.7082061767578,13.52750015258789,194.4053955078125C13.46399974822998,194.2384033203125,13.504600524902344,194.0010986328125,13.648099899291992,193.69740295410156C14.515299797058105,191.8654022216797,18.22480010986328,189.50010681152344,19.825300216674805,188.96600341796875C19.960599899291992,188.9210968017578,20.087499618530273,188.8527069091797,20.200300216674805,188.76480102539062C21.215900421142578,187.9698944091797,22.05139923095703,187.34100341796875,22.746700286865234,186.81849670410156C25.952301025390625,184.4053955078125,26.514801025390625,183.90440368652344,27.58609962463379,180.36239624023438C27.586599349975586,180.3614044189453,27.587099075317383,180.3603973388672,27.587099075317383,180.3594970703125C28.26729965209961,178.09190368652344,29.117399215698242,171.87899780273438,30.017799377441406,165.30189514160156C30.755599975585938,159.91029357910156,31.518800735473633,154.33509826660156,32.196502685546875,150.90249633789062L32.53980255126953,149.1549072265625C33.77549743652344,142.8574981689453,34.609500885009766,138.64779663085938,36.3036003112793,134.93499755859375C35.57600021362305,134.3992919921875,34.88140106201172,133.8778076171875,34.24230194091797,133.3842010498047C34.21759796142578,133.44540405273438,34.19459915161133,133.52369689941406,34.1692008972168,133.57730102539062C32.25170135498047,137.6417999267578,31.390399932861328,142.0303955078125,30.086700439453125,148.67349243164062L29.74340057373047,150.41810607910156C29.052000045776367,153.92300415039062,28.283899307250977,159.53579711914062,27.540800094604492,164.96299743652344C26.693599700927734,171.15440368652344,25.81719970703125,177.55580139160156,25.193099975585938,179.6387939453125C24.328399658203125,182.49819946289062,24.211700439453125,182.5861053466797,21.24340057373047,184.82040405273438C20.574899673461914,185.32330322265625,19.77859878540039,185.9228973388672,18.819599151611328,186.67100524902344C16.792301177978516,187.43080139160156,12.610599517822266,190.04600524902344,11.388400077819824,192.6280059814453C10.832200050354004,193.80279541015625,10.974300384521484,194.72760009765625,11.19159984588623,195.29600524902344C11.598299980163574,196.3614044189453,12.302900314331055,196.85260009765625,12.82289981842041,197.0771942138672C13.668600082397461,197.44239807128906,14.597800254821777,197.36720275878906,15.413200378417969,197.16409301757812C15.177800178527832,197.9394989013672,14.899999618530273,198.82229614257812,14.662699699401855,199.57620239257812C13.81209945678711,202.2812957763672,13.403900146484375,203.61920166015625,13.337499618530273,204.19920349121094C13.117799758911133,206.12890625,15.582099914550781,208.6063995361328,18.718399047851562,209.6103057861328C19.104598999023438,209.7342987060547,19.500598907470703,209.79100036621094,19.90489959716797,209.79100036621094C22.414199829101562,209.79100036621094,25.225200653076172,207.59080505371094,27.71940040588379,205.45799255371094C28.016799926757812,205.20309448242188,28.26580047607422,204.99020385742188,28.452800750732422,204.84280395507812C29.290199279785156,204.18359375,30.330699920654297,201.98049926757812,31.54560089111328,198.29400634765625C31.72330093383789,197.75489807128906,33.279998779296875,192.97659301757812,33.198402404785156,191.3282012939453C33.139801025390625,190.15530395507812,34.29800033569336,185.0615997314453,35.05390167236328,182.07530212402344L35.41570281982422,181.11630249023438C37.906898498535156,174.51080322265625,42.543601989746094,162.21490478515625,45.56119918823242,156.59190368652344C46.9724006652832,153.9626007080078,48.27349853515625,150.01600646972656,49.30889892578125,145.60450744628906C49.345401763916016,134.39720153808594,49.18960189819336,123.48049926757812,49.18960189819336,123.48049926757812L49.082298278808594,124.72239685058594zM69.23179626464844,242.16250610351562C68.88560485839844,245.36289978027344,68.61640167236328,247.60350036621094,68.51559448242188,247.98399353027344C68.20159912109375,248.7866973876953,68.21769714355469,250.0240020751953,68.24409484863281,252.0738067626953C68.27000427246094,254.03179931640625,68.30459594726562,256.71441650390625,68.0531997680664,260.0465087890625C67.56779479980469,266.4898986816406,66.6708984375,274.6919860839844,65.60890197753906,278.3843994140625C64.67770385742188,281.6217041015625,65.20169830322266,283.8746032714844,65.51470184326172,285.2213134765625C65.529296875,285.2847900390625,65.54399871826172,285.3482971191406,65.55819702148438,285.4097900390625C62.6431999206543,288.1715087890625,58.21979904174805,288.6236877441406,54.81549835205078,286.5806884765625C55.66460037231445,284.8081970214844,55.60260009765625,281.8179931640625,55.416099548339844,278.2515869140625C55.38779830932617,277.7085876464844,55.361900329589844,277.21551513671875,55.349700927734375,276.8042907714844C55.32820129394531,276.0729064941406,55.08509826660156,273.3169860839844,54.68949890136719,268.88238525390625C54.248600006103516,263.9420166015625,53.700199127197266,257.79351806640625,53.700199127197266,256.59918212890625C53.722198486328125,253.5532989501953,53.56449890136719,250.4770965576172,53.2328987121582,247.45370483398438C53.22610092163086,247.39219665527344,53.21480178833008,247.33160400390625,53.198699951171875,247.27110290527344C52.76499938964844,245.62750244140625,52.58919906616211,241.95379638671875,52.59709930419922,239.17529296875C51.701698303222656,239.19830322265625,50.85749816894531,239.22189331054688,50.08729934692383,239.2200927734375C50.07360076904297,242.3278045654297,50.337799072265625,246.1201934814453,50.757301330566406,247.81399536132812C51.072200775146484,250.71240234375,51.22119903564453,253.6616973876953,51.200199127197266,256.59039306640625C51.200199127197266,257.9049072265625,51.70800018310547,263.59820556640625,52.19919967651367,269.1040954589844C52.52389907836914,272.74468994140625,52.830501556396484,276.1831970214844,52.85060119628906,276.87750244140625C52.86330032348633,277.3052062988281,52.88970184326172,277.8179016113281,52.91939926147461,278.38238525390625C53.154300689697266,282.8658142089844,52.97359848022461,285.34820556640625,52.38570022583008,285.75738525390625C52.02880096435547,285.9635009765625,51.7958984375,286.33160400390625,51.76359939575195,286.7427978515625C51.73139953613281,287.15301513671875,51.90370178222656,287.5533142089844,52.2239990234375,287.8131103515625C54.326499938964844,289.5122985839844,56.87099838256836,290.3453063964844,59.40520095825195,290.3453063964844C62.4994010925293,290.3453063964844,65.57849884033203,289.10211181640625,67.81829833984375,286.6783142089844C68.04879760742188,286.4283142089844,68.16790008544922,286.09429931640625,68.14739990234375,285.7544860839844C68.12739562988281,285.4215087890625,68.0448989868164,285.0660095214844,67.94960021972656,284.6549072265625C67.67469787597656,283.4742126464844,67.26010131835938,281.6881103515625,68.01110076904297,279.0758056640625C69.12580108642578,275.2008056640625,70.05160522460938,266.8023986816406,70.5457992553711,260.2340087890625C70.80560302734375,256.7915954589844,70.77040100097656,254.04649353027344,70.74400329589844,252.04159545898438C70.72639465332031,250.6656036376953,70.70790100097656,249.2436981201172,70.84359741210938,248.89610290527344C71.00360107421875,248.48829650878906,71.32980346679688,245.95480346679688,71.72320556640625,242.39149475097656C71.09529876708984,242.51429748535156,70.24209594726562,242.40220642089844,69.23179626464844,242.16250610351562z"/>
<path id="shirt" fill="#35C476" d="M102.01280212402344,132.0635986328125L103.43000030517578,137L122.76000213623047,136C122.76000213623047,136,119.03759765625,118.33360290527344,112.55130004882812,107.13580322265625C110.63030242919922,103.72859954833984,108.38860321044922,100.89949798583984,105.82379913330078,99.3635025024414C105.22820281982422,98.99939727783203,104.62200164794922,98.69419860839844,104,98.48999786376953L103.99690246582031,98.50279998779297C103.99459838867188,98.50199890136719,103.99230194091797,98.50080108642578,103.98989868164062,98.5C99.31990051269531,96.98999786376953,89.65989685058594,93,89.48989868164062,93.5C89.31990051269531,94,86.31990051269531,101.66000366210938,76.14990234375,101.66000366210938C70.2228012084961,101.6719970703125,64.7509994506836,98.48300170898438,61.839900970458984,93.31999969482422C57.669898986816406,94.48999786376953,50.36989974975586,96.18000030517578,44.68989944458008,100.16000366210938C39.0098991394043,104.13999938964844,31.629899978637695,126.59010314941406,30.689899444580078,129.98001098632812C30.319900512695312,131.30999755859375,47.519901275634766,142.74000549316406,47.519901275634766,142.74000549316406L49.18989944458008,123.4800033569336C49.18989944458008,123.4800033569336,49.68989944458008,158.47999572753906,48.68989944458008,167.47999572753906C47.68989944458008,176.47999572753906,46.059898376464844,187,47.059898376464844,188.1699981689453C48.059898376464844,189.33999633789062,67.2698974609375,189.75999450683594,77.6698989868164,189.75999450683594C86.043701171875,189.75999450683594,101.13899993896484,189.31849670410156,106.09010314941406,187.9355926513672C106.5354995727539,187.39239501953125,107.00029754638672,186.86610412597656,107.43589782714844,186.26429748535156C106.31279754638672,183.72950744628906,105.06430053710938,178.5908966064453,104.2699966430664,171.17999267578125C103.66000366210938,165.4886932373047,102.57610321044922,143.8361053466797,102.01280212402344,132.0635986328125z"/>
<path id="shirtBoder" d="M86.77050018310547,177.0699005126953C86.46479797363281,177.0699005126953,86.16310119628906,176.9302978515625,85.966796875,176.66659545898438C85.63770294189453,176.22320556640625,85.72949981689453,175.59730529785156,86.17289733886719,175.26719665527344L96.46289825439453,167.61680603027344C96.9072036743164,167.28770446777344,97.533203125,167.3804931640625,97.86229705810547,167.82290649414062C98.19139862060547,168.26629638671875,98.09960174560547,168.89219665527344,97.65619659423828,169.22230529785156L87.36620330810547,176.87269592285156C87.1865005493164,177.0054931640625,86.97750091552734,177.0699005126953,86.77050018310547,177.0699005126953zM123.75,136.76229858398438C123.52729797363281,137.05191040039062,123.18949890136719,137.22959899902344,122.82420349121094,137.24859619140625L119.68810272216797,137.41079711914062C119.60659790039062,136.9993896484375,119.52660369873047,136.59149169921875,119.44139862060547,136.17160034179688L105.78340148925781,136.8780975341797C105.8031005859375,137.285888671875,105.82599639892578,137.706298828125,105.8489990234375,138.126708984375L103.56590270996094,138.2447967529297C104.15760040283203,150.23660278320312,105.00550079345703,166.31129455566406,105.51270294189453,171.04739379882812C106.23770141601562,177.8072967529297,107.318603515625,182.40919494628906,108.24210357666016,184.914794921875C107.4166030883789,186.63169860839844,106.22660064697266,187.5720977783203,105.33000183105469,188.9499053955078C105.26840209960938,189.04620361328125,105.14949798583984,189.20559692382812,105.00689697265625,189.3946075439453C98.2853012084961,190.82229614257812,84.4446029663086,191.0102996826172,77.6698989868164,191.0102996826172C66.53030395507812,191.0102996826172,47.6171989440918,190.74659729003906,46.10940170288086,188.9810028076172C45.12310028076172,187.8267059326172,45.348201751708984,184.67630004882812,46.69879913330078,173.64990234375C46.955101013183594,171.55520629882812,47.21780014038086,169.40870666503906,47.44779968261719,167.34230041503906C47.910701751708984,163.17340087890625,48.047401428222656,153.23150634765625,48.06209945678711,143.86619567871094C47.66460037231445,144.0565948486328,47.195899963378906,144.02490234375,46.82820129394531,143.7808074951172C28.872600555419922,131.8491973876953,29.227100372314453,130.5751953125,29.48590087890625,129.64511108398438C29.555700302124023,129.3936004638672,37.40290069580078,103.73930358886719,43.97269821166992,99.13580322265625C49.21730041503906,95.46150207519531,55.738800048828125,93.6875991821289,60.0546989440918,92.51370239257812C60.56930160522461,92.37359619140625,61.05419921875,92.24220275878906,61.50199890136719,92.11620330810547C62.06060028076172,91.9634017944336,62.64649963378906,92.20459747314453,62.92879867553711,92.70600128173828C65.60900115966797,97.45939636230469,70.66020202636719,100.40959930419922,76.11630249023438,100.40959930419922C76.12699890136719,100.40959930419922,76.13680267333984,100.40959930419922,76.14749908447266,100.40959930419922C85.69049835205078,100.40959930419922,88.28130340576172,93.1707992553711,88.30670166015625,93.09760284423828C88.41609954833984,92.77880096435547,88.67880249023438,92.48629760742188,88.9834976196289,92.34220123291016C89.7228012084961,91.99259948730469,90.23739624023438,92.10440063476562,97.45030212402344,94.80799865722656C99.94039916992188,95.74169921875,102.51180267333984,96.70539855957031,104.32779693603516,97.2947998046875C104.34850311279297,97.30049896240234,104.36920166015625,97.29540252685547,104.38980102539062,97.30220031738281C105.056396484375,97.52100372314453,105.70490264892578,97.8406982421875,106.3406982421875,98.22239685058594C106.43250274658203,98.27639770507812,106.52690124511719,98.32109832763672,106.6177978515625,98.37809753417969C106.62229919433594,98.38099670410156,106.62670135498047,98.3844985961914,106.6312026977539,98.38739776611328C109.4916000366211,100.18370056152344,111.94539642333984,103.4209976196289,114.01000213623047,107.2229995727539C120.26270294189453,118.39440155029297,123.7770004272461,134.7626953125,123.9834976196289,135.74249267578125C124.05860137939453,136.10018920898438,123.97360229492188,136.47280883789062,123.75,136.76229858398438zM121.2217025756836,134.82778930664062C118.93440246582031,124.814697265625,112.23269653320312,102.66429901123047,103.706298828125,99.7157974243164L103.70320129394531,99.72850036621094C103.66899871826172,99.7166976928711,103.63480377197266,99.69889831542969,103.60060119628906,99.68769836425781C101.7333984375,99.08419799804688,99.1093978881836,98.10030364990234,96.57230377197266,97.14910125732422C94.29010009765625,96.2936019897461,91.55670166015625,95.26920318603516,90.24030303955078,94.87129974365234C89.05380249023438,97.19940185546875,85.2177963256836,102.90989685058594,76.15049743652344,102.90989685058594C76.13880157470703,102.90989685058594,76.1260986328125,102.90989685058594,76.1144027709961,102.90989685058594C70.08900451660156,102.90989685058594,64.48500061035156,99.8196029663086,61.258399963378906,94.77760314941406C61.0797004699707,94.82589721679688,60.897098541259766,94.87570190429688,60.71099853515625,94.92649841308594C56.562599182128906,96.05439758300781,50.294498443603516,97.7594985961914,45.40729904174805,101.18379974365234C40.56010055541992,104.57980346679688,33.667999267578125,124.21019744873047,32.022499084472656,129.86399841308594C33.318397521972656,131.3459014892578,39.91210174560547,136.11599731445312,46.45759963989258,140.5251007080078L47.94490051269531,123.37229919433594C48.002498626708984,122.70870208740234,48.5802001953125,122.20870208740234,49.234901428222656,122.231201171875C49.90039825439453,122.25509643554688,50.430198669433594,122.79660034179688,50.439998626708984,123.46219635009766C50.46049880981445,124.8947982788086,50.9296989440918,158.643798828125,49.93220138549805,167.6179962158203C49.701698303222656,169.69419860839844,49.437599182128906,171.84939575195312,49.180198669433594,173.9539031982422C48.54100036621094,179.17269897460938,47.754398345947266,185.59750366210938,48.044498443603516,187.2635040283203C50.64509963989258,188.0135040283203,65.10600280761719,188.51060485839844,77.66999816894531,188.51060485839844C90.94439697265625,188.51060485839844,103.38189697265625,187.66290283203125,106.22270202636719,186.61219787597656C104.91699981689453,183.56239318847656,103.73930358886719,177.95399475097656,103.02639770507812,171.31430053710938C102.41069793701172,165.5655975341797,101.33509826660156,144.08270263671875,100.77030181884766,132.26559448242188L97.50879669189453,120.90509796142578C97.31839752197266,120.24150085449219,97.70120239257812,119.54959869384766,98.36519622802734,119.35870361328125C99.0282974243164,119.17220306396484,99.72160339355469,119.55249786376953,99.91110229492188,120.2155990600586L104.3573989868164,135.70050048828125L121.2217025756836,134.82778930664062zM77.7958984375,170.79649353027344C78.16799926757812,170.4635009765625,86.95999908447266,162.57679748535156,91.67289733886719,155.73739624023438C91.98639678955078,155.28280639648438,91.87210083007812,154.65980529785156,91.41699981689453,154.3468017578125C90.96289825439453,154.0323028564453,90.33889770507812,154.1486053466797,90.02639770507812,154.6027069091797C85.45020294189453,161.24330139160156,76.55280303955078,169.2252960205078,76.46389770507812,169.3043975830078C76.05180358886719,169.672607421875,76.0166015625,170.30540466308594,76.38379669189453,170.7165069580078C76.58200073242188,170.93820190429688,76.85549926757812,171.05050659179688,77.12989807128906,171.05050659179688C77.36720275878906,171.05039978027344,77.60549926757812,170.96640014648438,77.7958984375,170.79649353027344z"/>
<path id="hair" fill="#3D250C" d="M75.38999938964844,14.760000228881836C36.779998779296875,14.760000228881836,40.220001220703125,53.119998931884766,45.31999969482422,61.86000061035156C45.31999969482422,61.86000061035156,46.099998474121094,52.939998626708984,48.540000915527344,46.56999969482422C50.97999954223633,40.20000076293945,61.130001068115234,36.150001525878906,62.06999969482422,38.22999954223633C64.01429748535156,37.28759765625,65.4678955078125,35.565101623535156,66.06999969482422,33.48999786376953C66.06999969482422,33.48999786376953,69.68000030517578,36.73999786376953,71,37.279998779296875C72.31999969482422,37.81999969482422,75.18000030517578,34.44000244140625,75.18000030517578,34.44000244140625C75.18000030517578,34.44000244140625,79.55000305175781,34.44000244140625,79.55000305175781,37.66999816894531C79.55000305175781,37.66999816894531,83.72000122070312,34.44000244140625,85.05000305175781,35.01000213623047C85.44139862060547,36.815101623535156,86.85379791259766,38.223602294921875,88.66000366210938,38.61000061035156C88.66000366210938,38.61000061035156,91.87999725341797,37.09000015258789,93.20999908447266,37.279998779296875C99.29000091552734,38.41999816894531,100.20999908447266,42.540000915527344,101.83000183105469,46.61000061035156S104.33999633789062,62,104.33999633789062,62C106.94000244140625,59.34000015258789,114.56999969482422,14.760000228881836,75.38999938964844,14.760000228881836z"/>
<path id="hairBoder" d="M104.81839752197266,31.072399139404297C98.70999908447266,16.556800842285156,85.44339752197266,13.509900093078613,75.38960266113281,13.509900093078613C71.37689971923828,13.509900093078613,66.80009460449219,13.958200454711914,62.31370162963867,15.315899848937988C60.34870147705078,13.531299591064453,58.083499908447266,12.083700180053711,55.61909866333008,11.074799537658691C55.10689926147461,10.865799903869629,54.52389907836914,11.109999656677246,54.31489944458008,11.621199607849121C54.10540008544922,12.132400512695312,54.350101470947266,12.716400146484375,54.86130142211914,12.925399780273438C56.76169967651367,13.703499794006348,58.53160095214844,14.768500328063965,60.11800003051758,16.060699462890625C59.40599822998047,16.329299926757812,58.700199127197266,16.62339973449707,58.0010986328125,16.94580078125C56.94200134277344,16.28499984741211,55.75019836425781,15.84469985961914,54.47990036010742,15.678299903869629C53.93199920654297,15.607999801635742,53.42959976196289,15.992300033569336,53.358299255371094,16.54010009765625C53.2869987487793,17.087900161743164,53.67279815673828,17.589900970458984,54.22010040283203,17.661699295043945C54.766998291015625,17.733200073242188,55.29309844970703,17.875499725341797,55.79610061645508,18.069400787353516C51.83539962768555,20.309600830078125,48.23619842529297,23.561800003051758,45.543800354003906,28.250099182128906C38.51499938964844,40.489402770996094,40.9193000793457,56.79840087890625,44.2401008605957,62.48979949951172C44.51499938964844,62.96049880981445,45.062400817871094,63.200199127197266,45.593101501464844,63.0796012878418C46.124298095703125,62.96049880981445,46.517398834228516,62.511199951171875,46.56480026245117,61.96879959106445C46.572601318359375,61.88140106201172,47.360198974609375,53.14509963989258,49.707401275634766,47.0171012878418C51.016998291015625,43.598201751708984,54.834800720214844,40.960899353027344,57.70640182495117,39.7411994934082C59.52040100097656,38.970699310302734,60.66490173339844,38.874000549316406,61.045799255371094,38.946800231933594C61.192298889160156,39.15629959106445,61.400299072265625,39.31690216064453,61.64390182495117,39.40530014038086C61.96030044555664,39.51959991455078,62.31039810180664,39.50250244140625,62.6151008605957,39.35499954223633C64.30459594726562,38.53569793701172,65.68000030517578,37.2041015625,66.55850219726562,35.576202392578125C67.80509948730469,36.635799407958984,69.55950164794922,38.04100036621094,70.52629852294922,38.43659973144531C72.23040008544922,39.13240051269531,74.36520385742188,37.22419738769531,75.71379852294922,35.72809982299805C76.60540008544922,35.83209991455078,78.29969787597656,36.220298767089844,78.29969787597656,37.66999816894531C78.29969787597656,38.14710235595703,78.57119750976562,38.58209991455078,78.9989013671875,38.79209899902344C79.42569732666016,39.00160217285156,79.9374008178711,38.949798583984375,80.31529998779297,38.658302307128906C81.67369842529297,37.60749816894531,83.27140045166016,36.64710235595703,84.15609741210938,36.31500244140625C84.90119934082031,38.08789825439453,86.47740173339844,39.42140197753906,88.39830017089844,39.83209991455078C88.66780090332031,39.89019775390625,88.94519805908203,39.858001708984375,89.19319915771484,39.740299224853516C90.55750274658203,39.097198486328125,92.47840118408203,38.445899963378906,92.97930145263672,38.508399963378906C97.74690246582031,39.40239715576172,98.82009887695312,42.22719955444336,100.17849731445312,45.80329895019531C100.33869934082031,46.224700927734375,100.49980163574219,46.64849853515625,100.668701171875,47.07229995727539C102.19989776611328,50.919498443603516,103.08470153808594,61.986900329589844,103.09349822998047,62.098201751708984C103.13159942626953,62.58700180053711,103.4529037475586,63.00790023803711,103.91380310058594,63.17530059814453C104.05249786376953,63.22560119628906,104.1969985961914,63.25,104.339599609375,63.25C104.6697006225586,63.25,104.993896484375,63.11869812011719,105.23320007324219,62.874000549316406C107.3573989868164,60.70130157470703,110.25879669189453,43.99909973144531,104.81839752197266,31.072399139404297zM104.91699981689453,55.54410171508789C104.48149871826172,52.1598014831543,103.83689880371094,48.27159881591797,102.99120330810547,46.14759826660156C102.8281021118164,45.73649978637695,102.6708984375,45.32440185546875,102.5156021118164,44.915199279785156C101.1426010131836,41.300498962402344,99.58589935302734,37.203800201416016,93.38670349121094,36.0426025390625C92.0176010131836,35.84189987182617,89.68260192871094,36.780399322509766,88.54879760742188,37.28580093383789C87.40619659423828,36.903499603271484,86.53119659423828,35.94059753417969,86.27149963378906,34.74480056762695C86.18560028076172,34.34980010986328,85.91410064697266,34.02020263671875,85.54199981689453,33.861000061035156C84.23829650878906,33.302398681640625,82.1552963256836,34.323402404785156,80.27149963378906,35.59980010986328C79.18360137939453,33.74140167236328,76.6718978881836,33.190101623535156,75.17970275878906,33.190101623535156C74.8115005493164,33.190101623535156,74.46289825439453,33.35219955444336,74.22560119628906,33.632999420166016C73.24510192871094,34.79119873046875,71.90240478515625,35.93429946899414,71.37010192871094,36.075897216796875C70.50970458984375,35.64820098876953,68.27980041503906,33.79710006713867,66.90620422363281,32.56079864501953C66.58639526367188,32.27269744873047,66.13909912109375,32.171199798583984,65.72700500488281,32.28790283203125C65.31340026855469,32.406097412109375,64.98919677734375,32.728302001953125,64.86909484863281,33.14189910888672C64.44039916992188,34.620399475097656,63.489200592041016,35.88949966430664,62.210899353027344,36.718597412109375C61.82469940185547,36.53350067138672,61.308101654052734,36.41339874267578,60.61520004272461,36.43299865722656C57.21730041503906,36.53260040283203,49.6078987121582,40.287498474121094,47.372501373291016,46.12289810180664C46.054100036621094,49.56629943847656,45.21329879760742,53.67369842529297,44.71039962768555,56.81480026245117C42.89399719238281,49.87779998779297,42.604000091552734,38.38949966430664,47.71189880371094,29.495500564575195C50.21070098876953,25.14419937133789,53.70429992675781,21.845001220703125,58.14699935913086,19.59440040588379C58.33599853515625,19.782899856567383,58.51839828491211,19.979299545288086,58.686500549316406,20.191299438476562C58.8838005065918,20.44029998779297,59.17620086669922,20.570199966430664,59.470699310302734,20.570199966430664C59.688499450683594,20.570199966430664,59.90769958496094,20.499401092529297,60.09130096435547,20.353900909423828C60.52439880371094,20.010601043701172,60.597198486328125,19.381698608398438,60.25389862060547,18.949100494384766C60.189300537109375,18.867599487304688,60.11690139770508,18.79450035095215,60.04990005493164,18.715599060058594C60.726200103759766,18.434499740600586,61.41749954223633,18.170101165771484,62.132999420166016,17.93280029296875C62.48210144042969,18.303600311279297,62.821800231933594,18.683500289916992,63.14310073852539,19.079898834228516C63.34090042114258,19.32360076904297,63.629398345947266,19.450000762939453,63.9203987121582,19.450000762939453C64.1416015625,19.450000762939453,64.36419677734375,19.376800537109375,64.5498046875,19.226900100708008C64.97850036621094,18.879199981689453,65.04440307617188,18.249401092529297,64.6968002319336,17.820199966430664C64.55500030517578,17.645299911499023,64.40240478515625,17.480199813842773,64.25559997558594,17.309799194335938C67.5885009765625,16.446399688720703,71.3009033203125,16.01020050048828,75.38970184326172,16.01020050048828C88.29989624023438,16.01020050048828,97.21880340576172,20.94379997253418,101.89849853515625,30.674299240112305C106.00199890136719,39.20669937133789,105.83689880371094,49.353599548339844,104.91699981689453,55.54410171508789z"/>
</g>
</svg>