<svg xmlns="http://www.w3.org/2000/svg" xmlns:xlink="http://www.w3.org/1999/xlink" viewBox= "0 0 276 270" width="276px" height="270px">
<g xmlns="http://www.w3.org/2000/svg" id="Cake.svg">
<path id="bodyBorder" fill="#5B301F" d="M10,219.89999389648438C10,241.39999389648438,67.0999984741211,258.8999938964844,137.60000610351562,258.8999938964844C208.10000610351562,258.8999938964844,265.20001220703125,241.39999389648438,265.20001220703125,219.89999389648438C265.20001220703125,219.8000030517578,265.20001220703125,219.8000030517578,265.20001220703125,219.6999969482422L265.20001220703125,219.89999389648438L265.20001220703125,219.6999969482422L265.20001220703125,120.0999984741211C265.20001220703125,141.6999969482422,208.10000610351562,159.10000610351562,137.60000610351562,159.10000610351562S10,141.60000610351562,10,120.0999984741211L10,219.89999389648438L10,219.89999389648438L10,219.89999389648438z"/>
<path id="icing" fill="#9ADBD0" d="M265.20001220703125,120.0999984741211C265.20001220703125,98.5,208.10000610351562,81.0999984741211,137.60000610351562,81.0999984741211S10,98.5999984741211,10,120.0999984741211L10,140.39999389648438C10.600000381469727,140.39999389648438,11.300000190734863,140.5,11.899999618530273,140.60000610351562L11.899999618530273,162.1999969482422C11.899999618530273,166.3000030517578,15.200000762939453,169.60000610351562,19.299999237060547,169.60000610351562C23.399999618530273,169.60000610351562,26.700000762939453,166.3000030517578,26.700000762939453,162.1999969482422L26.700000762939453,161.6999969482422L26.700000762939453,154.10000610351562C26.700000762939453,152.6999969482422,27.799999237060547,151.60000610351562,29.200000762939453,151.60000610351562C30.600000381469727,151.60000610351562,31.700000762939453,152.6999969482422,31.700000762939453,154.10000610351562L31.700000762939453,169.6999969482422L31.700000762939453,213.5C31.700000762939453,219.3000030517578,36.400001525878906,224,42.20000076293945,224C48,224,52.70000076293945,219.3000030517578,52.70000076293945,213.5L52.70000076293945,183.60000610351562L52.70000076293945,178.1999969482422C52.70000076293945,173.3000030517578,56.599998474121094,169.39999389648438,61.5,169.39999389648438C66.4000015258789,169.39999389648438,70.30000305175781,173.3000030517578,70.30000305175781,178.1999969482422L70.30000305175781,189.60000610351562L70.30000305175781,196.3000030517578C70.30000305175781,200.39999389648438,73.5999984741211,203.6999969482422,77.69999694824219,203.6999969482422C81.80000305175781,203.6999969482422,85.0999984741211,200.39999389648438,85.0999984741211,196.3000030517578L85.0999984741211,193.10000610351562L85.0999984741211,191.60000610351562C85.0999984741211,176.5,104.4000015258789,170.39999389648438,121,170.39999389648438C137.60000610351562,170.39999389648438,157.39999389648438,184.1999969482422,157.39999389648438,205.5L157.39999389648438,208.39999389648438L157.39999389648438,217.60000610351562C157.39999389648438,223.39999389648438,162.10000610351562,228.1999969482422,167.89999389648438,228.1999969482422C173.6999969482422,228.1999969482422,178.39999389648438,223.5,178.39999389648438,217.60000610351562L178.39999389648438,196.60000610351562L178.39999389648438,177.10000610351562C178.39999389648438,172.8000030517578,181.89999389648438,169.3000030517578,186.1999969482422,169.3000030517578C190.5,169.3000030517578,194,172.8000030517578,194,177.10000610351562L194,180.60000610351562L194,190C194,195.8000030517578,198.6999969482422,200.5,204.5,200.5S215,195.8000030517578,215,190L215,181.5L215,172C215,170.5,216.1999969482422,169.3000030517578,217.6999969482422,169.3000030517578C219.1999969482422,169.3000030517578,220.39999389648438,170.5,220.39999389648438,172L220.39999389648438,181L220.39999389648438,207.39999389648438C220.39999389648438,211.5,223.6999969482422,214.8000030517578,227.8000030517578,214.8000030517578C231.89999389648438,214.8000030517578,235.1999969482422,211.5,235.1999969482422,207.39999389648438L235.1999969482422,164L235.1999969482422,152.1999969482422C235.1999969482422,150.5,236.60000610351562,149.10000610351562,238.3000030517578,149.10000610351562C239.8000030517578,149.10000610351562,241.10000610351562,150.1999969482422,241.39999389648438,151.60000610351562C241.39999389648438,151.60000610351562,241.39999389648438,151.60000610351562,241.5,151.5L241.5,158.89999389648438C241.5,163,244.8000030517578,166.3000030517578,248.89999389648438,166.3000030517578C253,166.3000030517578,256.29998779296875,163,256.29998779296875,158.89999389648438L256.29998779296875,147.1999969482422L256.29998779296875,142.89999389648438C256.29998779296875,140.10000610351562,258.5,137.89999389648438,261.29998779296875,137.89999389648438C262.79998779296875,137.89999389648438,264.20001220703125,138.60000610351562,265.1000061035156,139.6999969482422L265.20001220703125,120.0999984741211L265.20001220703125,120.0999984741211L265.20001220703125,120.0999984741211z"/>
<path id="icingBorder" fill="#FFFFFF" d="M26.200000762939453,133.1999969482422C25.600000381469727,133.1999969482422,25,132.8000030517578,24.700000762939453,132.1999969482422L23.299999237060547,128.6999969482422C23,127.9000015258789,23.399999618530273,127,24.200000762939453,126.69999694824219C25,126.4000015258789,25.899999618530273,126.80000305175781,26.200000762939453,127.5999984741211L27.600000381469727,131.10000610351562C27.899999618530273,131.89999389648438,27.5,132.8000030517578,26.700000762939453,133.10000610351562C26.5,133.10000610351562,26.299999237060547,133.1999969482422,26.200000762939453,133.1999969482422zM47.70000076293945,120.30000305175781L51.400001525878906,116.5999984741211C52,116,52,115,51.400001525878906,114.4000015258789C50.79999923706055,113.80000305175781,49.79999923706055,113.80000305175781,49.20000076293945,114.4000015258789L45.5,118.0999984741211C44.900001525878906,118.69999694824219,44.900001525878906,119.69999694824219,45.5,120.30000305175781C45.79999923706055,120.5999984741211,46.20000076293945,120.80000305175781,46.599998474121094,120.80000305175781C47,120.69999694824219,47.400001525878906,120.5999984741211,47.70000076293945,120.30000305175781zM61.20000076293945,140.8000030517578C61.79999923706055,140.1999969482422,61.79999923706055,139.1999969482422,61.20000076293945,138.60000610351562L57.70000076293945,135.10000610351562C57.099998474121094,134.5,56.099998474121094,134.5,55.5,135.10000610351562C54.900001525878906,135.6999969482422,54.900001525878906,136.6999969482422,55.5,137.3000030517578L59,140.8000030517578C59.29999923706055,141.10000610351562,59.70000076293945,141.3000030517578,60.099998474121094,141.3000030517578C60.5,141.1999969482422,60.900001525878906,141.10000610351562,61.20000076293945,140.8000030517578zM81.19999694824219,129.60000610351562L84,126.80000305175781C84.5999984741211,126.19999694824219,84.5999984741211,125.19999694824219,84,124.5999984741211C83.4000015258789,124,82.4000015258789,124,81.80000305175781,124.5999984741211L79,127.4000015258789C78.4000015258789,128,78.4000015258789,129,79,129.60000610351562C79.30000305175781,129.89999389648438,79.69999694824219,130.10000610351562,80.0999984741211,130.10000610351562C80.4000015258789,130,80.80000305175781,129.89999389648438,81.19999694824219,129.60000610351562zM107.4000015258789,143.60000610351562C108,143,108,142,107.4000015258789,141.39999389648438L102.80000305175781,136.8000030517578C102.19999694824219,136.1999969482422,101.19999694824219,136.1999969482422,100.5999984741211,136.8000030517578C100,137.39999389648438,100,138.39999389648438,100.5999984741211,139L105.19999694824219,143.60000610351562C105.5,143.89999389648438,105.9000015258789,144.10000610351562,106.30000305175781,144.10000610351562S107.0999984741211,143.89999389648438,107.4000015258789,143.60000610351562zM129.6999969482422,113.9000015258789L133.6999969482422,109.9000015258789C134.3000030517578,109.30000305175781,134.3000030517578,108.30000305175781,133.6999969482422,107.69999694824219C133.10000610351562,107.0999984741211,132.10000610351562,107.0999984741211,131.5,107.69999694824219L127.5,111.69999694824219C126.9000015258789,112.30000305175781,126.9000015258789,113.30000305175781,127.5,113.9000015258789C127.80000305175781,114.19999694824219,128.1999969482422,114.4000015258789,128.60000610351562,114.4000015258789C129,114.30000305175781,129.39999389648438,114.19999694824219,129.6999969482422,113.9000015258789zM76.0999984741211,105.9000015258789C76.69999694824219,105.30000305175781,76.69999694824219,104.30000305175781,76.0999984741211,103.69999694824219L71.69999694824219,99.30000305175781C71.0999984741211,98.69999694824219,70.0999984741211,98.69999694824219,69.5,99.30000305175781C68.9000015258789,99.9000015258789,68.9000015258789,100.9000015258789,69.5,101.5L73.9000015258789,105.9000015258789C74.19999694824219,106.19999694824219,74.5999984741211,106.4000015258789,75,106.4000015258789S75.80000305175781,106.19999694824219,76.0999984741211,105.9000015258789zM28.200000762939453,111L32.099998474121094,107.19999694824219C32.70000076293945,106.5999984741211,32.70000076293945,105.5999984741211,32.099998474121094,105C31.5,104.4000015258789,30.5,104.4000015258789,29.899999618530273,105L26,108.80000305175781C25.399999618530273,109.4000015258789,25.399999618530273,110.4000015258789,26,111C26.299999237060547,111.30000305175781,26.700000762939453,111.5,27.100000381469727,111.5C27.399999618530273,111.4000015258789,27.899999618530273,111.30000305175781,28.200000762939453,111zM142.60000610351562,98.9000015258789C143.1999969482422,98.30000305175781,143.1999969482422,97.30000305175781,142.60000610351562,96.69999694824219L137.89999389648438,92C137.3000030517578,91.4000015258789,136.3000030517578,91.4000015258789,135.6999969482422,92C135.10000610351562,92.5999984741211,135.10000610351562,93.5999984741211,135.6999969482422,94.19999694824219L140.39999389648438,98.9000015258789C140.6999969482422,99.19999694824219,141.10000610351562,99.4000015258789,141.5,99.4000015258789S142.3000030517578,99.19999694824219,142.60000610351562,98.9000015258789zM96.69999694824219,95.80000305175781C97.30000305175781,95.19999694824219,97.30000305175781,94.19999694824219,96.69999694824219,93.5999984741211L94.0999984741211,91C93.5,90.4000015258789,92.5,90.4000015258789,91.9000015258789,91C91.30000305175781,91.5999984741211,91.30000305175781,92.5999984741211,91.9000015258789,93.19999694824219L94.5,95.80000305175781C94.80000305175781,96.0999984741211,95.19999694824219,96.30000305175781,95.5999984741211,96.30000305175781C96,96.19999694824219,96.4000015258789,96.0999984741211,96.69999694824219,95.80000305175781zM162.3000030517578,124.30000305175781L165.10000610351562,121.5C165.6999969482422,120.9000015258789,165.6999969482422,119.9000015258789,165.10000610351562,119.30000305175781C164.5,118.69999694824219,163.5,118.69999694824219,162.89999389648438,119.30000305175781L160.10000610351562,122.0999984741211C159.5,122.69999694824219,159.5,123.69999694824219,160.10000610351562,124.30000305175781C160.39999389648438,124.5999984741211,160.8000030517578,124.80000305175781,161.1999969482422,124.80000305175781C161.60000610351562,124.80000305175781,162,124.5999984741211,162.3000030517578,124.30000305175781zM224.3000030517578,101.30000305175781L227.10000610351562,98.5C227.6999969482422,97.9000015258789,227.6999969482422,96.9000015258789,227.10000610351562,96.30000305175781C226.5,95.69999694824219,225.5,95.69999694824219,224.89999389648438,96.30000305175781L222.10000610351562,99.0999984741211C221.5,99.69999694824219,221.5,100.69999694824219,222.10000610351562,101.30000305175781C222.39999389648438,101.5999984741211,222.8000030517578,101.80000305175781,223.1999969482422,101.80000305175781C223.60000610351562,101.69999694824219,224,101.5999984741211,224.3000030517578,101.30000305175781zM136.3000030517578,132.5C136.89999389648438,131.89999389648438,136.89999389648438,130.89999389648438,136.3000030517578,130.3000030517578L131.89999389648438,125.9000015258789C131.3000030517578,125.30000305175781,130.3000030517578,125.30000305175781,129.6999969482422,125.9000015258789C129.10000610351562,126.5,129.10000610351562,127.5,129.6999969482422,128.10000610351562L134.10000610351562,132.5C134.39999389648438,132.8000030517578,134.8000030517578,133,135.1999969482422,133C135.60000610351562,133,136,132.8000030517578,136.3000030517578,132.5zM183.6999969482422,136.89999389648438L188.3000030517578,132.3000030517578C188.89999389648438,131.6999969482422,188.89999389648438,130.6999969482422,188.3000030517578,130.10000610351562C187.6999969482422,129.5,186.6999969482422,129.5,186.10000610351562,130.10000610351562L181.5,134.6999969482422C180.89999389648438,135.3000030517578,180.89999389648438,136.3000030517578,181.5,136.89999389648438C181.8000030517578,137.1999969482422,182.1999969482422,137.39999389648438,182.60000610351562,137.39999389648438S183.39999389648438,137.1999969482422,183.6999969482422,136.89999389648438zM209.89999389648438,132.6999969482422L214.39999389648438,128.10000610351562C215,127.5,215,126.5,214.39999389648438,125.9000015258789C213.8000030517578,125.30000305175781,212.8000030517578,125.30000305175781,212.1999969482422,125.9000015258789L207.6999969482422,130.5C207.10000610351562,131.10000610351562,207.10000610351562,132.10000610351562,207.6999969482422,132.6999969482422C208,133,208.39999389648438,133.1999969482422,208.8000030517578,133.1999969482422C209.1999969482422,133.10000610351562,209.60000610351562,133,209.89999389648438,132.6999969482422zM158,148.60000610351562C158.60000610351562,148,158.60000610351562,147,158,146.39999389648438L153.60000610351562,142C153,141.39999389648438,152,141.39999389648438,151.39999389648438,142C150.8000030517578,142.60000610351562,150.8000030517578,143.60000610351562,151.39999389648438,144.1999969482422L155.8000030517578,148.60000610351562C156.10000610351562,148.89999389648438,156.5,149.10000610351562,156.89999389648438,149.10000610351562S157.6999969482422,148.89999389648438,158,148.60000610351562zM206.1999969482422,155.60000610351562C206.8000030517578,155,206.8000030517578,154,206.1999969482422,153.39999389648438L201.8000030517578,149C201.1999969482422,148.39999389648438,200.1999969482422,148.39999389648438,199.60000610351562,149C199,149.60000610351562,199,150.60000610351562,199.60000610351562,151.1999969482422L204,155.60000610351562C204.3000030517578,155.89999389648438,204.6999969482422,156.10000610351562,205.10000610351562,156.10000610351562C205.5,156.10000610351562,205.89999389648438,156,206.1999969482422,155.60000610351562zM238.89999389648438,134.8000030517578C239.5,134.1999969482422,239.5,133.1999969482422,238.89999389648438,132.60000610351562L234.5,128.1999969482422C233.89999389648438,127.5999984741211,232.89999389648438,127.5999984741211,232.3000030517578,128.1999969482422C231.6999969482422,128.8000030517578,231.6999969482422,129.8000030517578,232.3000030517578,130.39999389648438L236.6999969482422,134.8000030517578C237,135.10000610351562,237.39999389648438,135.3000030517578,237.8000030517578,135.3000030517578S238.5,135.10000610351562,238.89999389648438,134.8000030517578zM182.3000030517578,106.80000305175781C182.89999389648438,106.19999694824219,182.89999389648438,105.19999694824219,182.3000030517578,104.5999984741211L177.6999969482422,100C177.10000610351562,99.4000015258789,176.10000610351562,99.4000015258789,175.5,100C174.89999389648438,100.5999984741211,174.89999389648438,101.5999984741211,175.5,102.19999694824219L180.10000610351562,106.80000305175781C180.39999389648438,107.0999984741211,180.8000030517578,107.30000305175781,181.1999969482422,107.30000305175781C181.60000610351562,107.30000305175781,182,107.0999984741211,182.3000030517578,106.80000305175781zM252.60000610351562,117.0999984741211C253.1999969482422,116.5,253.1999969482422,115.5,252.60000610351562,114.9000015258789L248,110.30000305175781C247.39999389648438,109.69999694824219,246.39999389648438,109.69999694824219,245.8000030517578,110.30000305175781C245.1999969482422,110.9000015258789,245.1999969482422,111.9000015258789,245.8000030517578,112.5L250.39999389648438,117.0999984741211C250.6999969482422,117.4000015258789,251.10000610351562,117.5999984741211,251.5,117.5999984741211C251.89999389648438,117.5999984741211,252.3000030517578,117.4000015258789,252.60000610351562,117.0999984741211zM176,93.80000305175781C176.60000610351562,93.19999694824219,176.60000610351562,92.19999694824219,176,91.5999984741211L172,87.5999984741211C171.39999389648438,87,170.39999389648438,87,169.8000030517578,87.5999984741211C169.1999969482422,88.19999694824219,169.1999969482422,89.19999694824219,169.8000030517578,89.80000305175781L173.8000030517578,93.80000305175781C174.10000610351562,94.0999984741211,174.5,94.30000305175781,174.89999389648438,94.30000305175781C175.3000030517578,94.30000305175781,175.6999969482422,94.0999984741211,176,93.80000305175781zM205.10000610351562,113.19999694824219C205.6999969482422,112.5999984741211,205.6999969482422,111.5999984741211,205.10000610351562,111L201.10000610351562,107C200.5,106.4000015258789,199.5,106.4000015258789,198.89999389648438,107C198.3000030517578,107.5999984741211,198.3000030517578,108.5999984741211,198.89999389648438,109.19999694824219L202.89999389648438,113.19999694824219C203.1999969482422,113.5,203.60000610351562,113.69999694824219,204,113.69999694824219S204.8000030517578,113.5999984741211,205.10000610351562,113.19999694824219zM137.60000610351562,84.0999984741211C171.39999389648438,84.0999984741211,203.10000610351562,88.0999984741211,227,95.4000015258789C249.39999389648438,102.19999694824219,262.29998779296875,111.30000305175781,262.29998779296875,120.0999984741211L262.29998779296875,123.80000305175781L262.29998779296875,135.10000610351562C262,135.10000610351562,261.79998779296875,135.10000610351562,261.5,135.10000610351562C257.1000061035156,135.10000610351562,253.5,138.6999969482422,253.5,143.10000610351562L253.5,147.39999389648438L253.5,159C253.5,161.39999389648438,251.5,163.39999389648438,249.10000610351562,163.39999389648438C246.6999969482422,163.39999389648438,244.6999969482422,161.39999389648438,244.6999969482422,159L244.6999969482422,151.60000610351562L244.6999969482422,145.6999969482422L242.3000030517578,147.39999389648438C241.1999969482422,146.60000610351562,239.89999389648438,146.10000610351562,238.5,146.10000610351562C235.10000610351562,146.10000610351562,232.39999389648438,148.89999389648438,232.39999389648438,152.1999969482422L232.39999389648438,164L232.39999389648438,207.5C232.39999389648438,209.89999389648438,230.39999389648438,211.89999389648438,228,211.89999389648438C225.60000610351562,211.89999389648438,223.60000610351562,209.89999389648438,223.60000610351562,207.5L223.60000610351562,181.10000610351562L223.60000610351562,172.10000610351562C223.60000610351562,169,221,166.39999389648438,217.89999389648438,166.39999389648438C214.8000030517578,166.39999389648438,212.1999969482422,168.89999389648438,212.1999969482422,172.10000610351562L212.1999969482422,181.60000610351562L212.1999969482422,190.10000610351562C212.1999969482422,194.3000030517578,208.8000030517578,197.60000610351562,204.6999969482422,197.60000610351562C200.5,197.60000610351562,197.1999969482422,194.1999969482422,197.1999969482422,190.10000610351562L197.1999969482422,180.6999969482422L197.1999969482422,177.1999969482422C197.1999969482422,171.1999969482422,192.3000030517578,166.39999389648438,186.39999389648438,166.39999389648438C180.39999389648438,166.39999389648438,175.60000610351562,171.3000030517578,175.60000610351562,177.1999969482422L175.60000610351562,196.6999969482422L175.60000610351562,217.6999969482422C175.60000610351562,221.89999389648438,172.1999969482422,225.3000030517578,168.10000610351562,225.3000030517578C164,225.3000030517578,160.60000610351562,221.89999389648438,160.60000610351562,217.6999969482422L160.60000610351562,208.5L160.60000610351562,205.60000610351562C160.60000610351562,183.10000610351562,139.8000030517578,167.5,121.19999694824219,167.5C101.80000305175781,167.5,82.30000305175781,175,82.30000305175781,191.6999969482422L82.30000305175781,193.1999969482422L82.30000305175781,196.39999389648438C82.30000305175781,198.8000030517578,80.30000305175781,200.8000030517578,77.9000015258789,200.8000030517578C75.5,200.8000030517578,73.5,198.8000030517578,73.5,196.39999389648438L73.5,189.6999969482422L73.5,178.3000030517578C73.5,171.8000030517578,68.19999694824219,166.5,61.70000076293945,166.5C55.20000076293945,166.5,49.900001525878906,171.8000030517578,49.900001525878906,178.3000030517578L49.900001525878906,183.6999969482422L49.900001525878906,213.60000610351562C49.900001525878906,217.8000030517578,46.5,221.10000610351562,42.400001525878906,221.10000610351562C38.29999923706055,221.10000610351562,34.900001525878906,217.6999969482422,34.900001525878906,213.60000610351562L34.900001525878906,169.8000030517578L34.900001525878906,154.1999969482422C34.900001525878906,151.1999969482422,32.5,148.6999969482422,29.399999618530273,148.6999969482422C26.399999618530273,148.6999969482422,23.899999618530273,151.1999969482422,23.899999618530273,154.1999969482422L23.899999618530273,161.8000030517578L23.899999618530273,162.3000030517578C23.899999618530273,164.6999969482422,21.899999618530273,166.6999969482422,19.5,166.6999969482422C17.100000381469727,166.6999969482422,15.100000381469727,164.6999969482422,15.100000381469727,162.3000030517578L15.100000381469727,140.6999969482422L15.100000381469727,138.1999969482422L13.199999809265137,137.89999389648438L13.199999809265137,120.19999694824219C13.199999809265137,111.30000305175781,26,102.30000305175781,48.5,95.5C72.0999984741211,88.0999984741211,103.80000305175781,84.0999984741211,137.60000610351562,84.0999984741211M137.60000610351562,81.0999984741211C67.0999984741211,81.0999984741211,10,98.5999984741211,10,120.0999984741211L10,140.39999389648438C10.600000381469727,140.39999389648438,11.300000190734863,140.5,11.899999618530273,140.60000610351562L11.899999618530273,162.1999969482422C11.899999618530273,166.3000030517578,15.200000762939453,169.60000610351562,19.299999237060547,169.60000610351562C23.399999618530273,169.60000610351562,26.700000762939453,166.3000030517578,26.700000762939453,162.1999969482422L26.700000762939453,161.6999969482422L26.700000762939453,154.10000610351562C26.700000762939453,152.6999969482422,27.799999237060547,151.60000610351562,29.200000762939453,151.60000610351562C30.600000381469727,151.60000610351562,31.700000762939453,152.6999969482422,31.700000762939453,154.10000610351562L31.700000762939453,169.6999969482422L31.700000762939453,213.5C31.700000762939453,219.3000030517578,36.400001525878906,224,42.20000076293945,224C48,224,52.70000076293945,219.3000030517578,52.70000076293945,213.5L52.70000076293945,183.60000610351562L52.70000076293945,178.1999969482422C52.70000076293945,173.3000030517578,56.599998474121094,169.39999389648438,61.5,169.39999389648438C66.4000015258789,169.39999389648438,70.30000305175781,173.3000030517578,70.30000305175781,178.1999969482422L70.30000305175781,189.60000610351562L70.30000305175781,196.3000030517578C70.30000305175781,200.39999389648438,73.5999984741211,203.6999969482422,77.69999694824219,203.6999969482422C81.80000305175781,203.6999969482422,85.0999984741211,200.39999389648438,85.0999984741211,196.3000030517578L85.0999984741211,193.10000610351562L85.0999984741211,191.60000610351562C85.0999984741211,176.5,104.4000015258789,170.39999389648438,121,170.39999389648438C137.60000610351562,170.39999389648438,157.39999389648438,184.1999969482422,157.39999389648438,205.5L157.39999389648438,208.39999389648438L157.39999389648438,217.60000610351562C157.39999389648438,223.39999389648438,162.10000610351562,228.1999969482422,167.89999389648438,228.1999969482422C173.6999969482422,228.1999969482422,178.39999389648438,223.5,178.39999389648438,217.60000610351562L178.39999389648438,196.60000610351562L178.39999389648438,177.10000610351562C178.39999389648438,172.8000030517578,181.89999389648438,169.3000030517578,186.1999969482422,169.3000030517578C190.5,169.3000030517578,194,172.8000030517578,194,177.10000610351562L194,180.60000610351562L194,190C194,195.8000030517578,198.6999969482422,200.5,204.5,200.5S215,195.8000030517578,215,190L215,181.5L215,172C215,170.5,216.1999969482422,169.3000030517578,217.6999969482422,169.3000030517578C219.1999969482422,169.3000030517578,220.39999389648438,170.5,220.39999389648438,172L220.39999389648438,181L220.39999389648438,207.39999389648438C220.39999389648438,211.5,223.6999969482422,214.8000030517578,227.8000030517578,214.8000030517578C231.89999389648438,214.8000030517578,235.1999969482422,211.5,235.1999969482422,207.39999389648438L235.1999969482422,164L235.1999969482422,152.1999969482422C235.1999969482422,150.5,236.60000610351562,149.10000610351562,238.3000030517578,149.10000610351562C239.8000030517578,149.10000610351562,241.10000610351562,150.1999969482422,241.39999389648438,151.60000610351562C241.39999389648438,151.60000610351562,241.39999389648438,151.60000610351562,241.5,151.5L241.5,158.89999389648438C241.5,163,244.8000030517578,166.3000030517578,248.89999389648438,166.3000030517578C253,166.3000030517578,256.29998779296875,163,256.29998779296875,158.89999389648438L256.29998779296875,147.1999969482422L256.29998779296875,142.89999389648438C256.29998779296875,140.10000610351562,258.5,137.89999389648438,261.29998779296875,137.89999389648438C262.79998779296875,137.89999389648438,264.20001220703125,138.60000610351562,265.1000061035156,139.6999969482422L265.1000061035156,120L265.1000061035156,120C265.20001220703125,98.5999984741211,208.10000610351562,81.0999984741211,137.60000610351562,81.0999984741211L137.60000610351562,81.0999984741211z"/>
<path id="candlesBorder" fill="#F27575" d="M54.400001525878906,52.20000076293945C51.70000076293945,52.20000076293945,49.5,54.400001525878906,49.5,57.099998474121094L49.5,115.0999984741211C52.20000076293945,113.0999984741211,55.70000076293945,112.30000305175781,59.29999923706055,112.19999694824219L59.29999923706055,57.20000076293945C59.29999923706055,54.400001525878906,57.099998474121094,52.20000076293945,54.400001525878906,52.20000076293945M98.5999984741211,96.9000015258789L98.5999984741211,44.099998474121094C98.5999984741211,41.400001525878906,96.4000015258789,39.20000076293945,93.69999694824219,39.20000076293945C91,39.20000076293945,88.80000305175781,41.400001525878906,88.80000305175781,44.099998474121094L88.80000305175781,95.80000305175781C92.19999694824219,95.9000015258789,95.5,96.30000305175781,98.5999984741211,97.19999694824219C98.5999984741211,97.0999984741211,98.5999984741211,97,98.5999984741211,96.9000015258789M116.80000305175781,126.5L116.80000305175781,67.19999694824219C116.80000305175781,64.5,114.5999984741211,62.29999923706055,111.9000015258789,62.29999923706055C109.19999694824219,62.29999923706055,107,64.5,107,67.19999694824219L107,126.80000305175781C110.30000305175781,127,113.5999984741211,126.80000305175781,116.80000305175781,126.5M152.6999969482422,39.20000076293945C150,39.20000076293945,147.8000030517578,41.400001525878906,147.8000030517578,44.099998474121094L147.8000030517578,96.9000015258789C147.8000030517578,97.0999984741211,147.8000030517578,97.30000305175781,147.8000030517578,97.5C151,95.80000305175781,154.1999969482422,94.0999984741211,157.60000610351562,93.80000305175781L157.60000610351562,44.099998474121094C157.6999969482422,41.400001525878906,155.5,39.20000076293945,152.6999969482422,39.20000076293945M183.89999389648438,67.19999694824219C183.89999389648438,64.5,181.6999969482422,62.29999923706055,179,62.29999923706055C176.3000030517578,62.29999923706055,174.10000610351562,64.5,174.10000610351562,67.19999694824219L174.10000610351562,127.0999984741211C174.10000610351562,127.30000305175781,174.10000610351562,127.5,174.10000610351562,127.69999694824219C177.5,127.4000015258789,181.10000610351562,126.9000015258789,183.8000030517578,127.80000305175781C183.8000030517578,127.5999984741211,183.89999389648438,127.30000305175781,183.89999389648438,127.0999984741211L183.89999389648438,67.19999694824219L183.89999389648438,67.19999694824219zM221.89999389648438,47.099998474121094C221.89999389648438,44.400001525878906,219.6999969482422,42.20000076293945,217,42.20000076293945C214.3000030517578,42.20000076293945,212.10000610351562,44.400001525878906,212.10000610351562,47.099998474121094L212.10000610351562,106.30000305175781C215,107.69999694824219,218.39999389648438,108.30000305175781,221.3000030517578,109.4000015258789C221.6999969482422,108.69999694824219,221.89999389648438,107.9000015258789,221.89999389648438,107L221.89999389648438,47.099998474121094L221.89999389648438,47.099998474121094z"/>
<path id="flamesBorder" fill="#FFF573" d="M61.599998474121094,36.900001525878906C61.599998474121094,40.900001525878906,58.400001525878906,44.099998474121094,54.400001525878906,44.099998474121094C50.400001525878906,44.099998474121094,47.20000076293945,40.900001525878906,47.20000076293945,36.900001525878906C47.20000076293945,32.900001525878906,52.29999923706055,26.299999237060547,54.400001525878906,22.700000762939453C56.400001525878906,26.299999237060547,61.599998474121094,32.900001525878906,61.599998474121094,36.900001525878906M100.9000015258789,24.899999618530273C100.9000015258789,28.899999618530273,97.69999694824219,32.099998474121094,93.69999694824219,32.099998474121094C89.69999694824219,32.099998474121094,86.5,28.899999618530273,86.5,24.899999618530273C86.5,20.899999618530273,91.5999984741211,14.300000190734863,93.69999694824219,10.699999809265137C95.69999694824219,14.300000190734863,100.9000015258789,21,100.9000015258789,24.899999618530273M119.0999984741211,48.79999923706055C119.0999984741211,52.79999923706055,115.9000015258789,56,111.9000015258789,56C107.9000015258789,56,104.69999694824219,52.79999923706055,104.69999694824219,48.79999923706055C104.69999694824219,44.79999923706055,109.80000305175781,38.20000076293945,111.9000015258789,34.599998474121094C114,38.20000076293945,119.0999984741211,44.900001525878906,119.0999984741211,48.79999923706055M160,24.200000762939453C160,28.200000762939453,156.8000030517578,31.399999618530273,152.8000030517578,31.399999618530273C148.8000030517578,31.399999618530273,145.60000610351562,28.200000762939453,145.60000610351562,24.200000762939453C145.60000610351562,20.200000762939453,150.6999969482422,13.600000381469727,152.8000030517578,10C154.8000030517578,13.600000381469727,160,20.299999237060547,160,24.200000762939453M186.1999969482422,46.70000076293945C186.1999969482422,50.70000076293945,183,53.900001525878906,179,53.900001525878906C175,53.900001525878906,171.8000030517578,50.70000076293945,171.8000030517578,46.70000076293945C171.8000030517578,42.70000076293945,176.89999389648438,36.099998474121094,179,32.5C181,36.099998474121094,186.1999969482422,42.79999923706055,186.1999969482422,46.70000076293945M224.1999969482422,27.100000381469727C224.1999969482422,31.100000381469727,221,34.29999923706055,217,34.29999923706055C213,34.29999923706055,209.8000030517578,31.100000381469727,209.8000030517578,27.100000381469727C209.8000030517578,23.100000381469727,214.89999389648438,16.5,217,12.899999618530273C219,16.5,224.1999969482422,23.100000381469727,224.1999969482422,27.100000381469727"/>
</g>
</svg>