<svg xmlns="http://www.w3.org/2000/svg" xmlns:xlink="http://www.w3.org/1999/xlink" viewBox= "0 0 638 415" width="638px" height="415px">
<g xmlns="http://www.w3.org/2000/svg" id="Car1V2.svg">
<path fill="#114F99" d="M35.900001525878906,358.20001220703125L475.8999938964844,358.6000061035156L475.20001220703125,254.60000610351562L39.79999923706055,251.3000030517578L35.900001525878906,358.20001220703125z"/>
<path id="TiresBorder" fill="#4F4F4F" d="M163.3000030517578,348.79998779296875C163.3000030517578,379.79998779296875,138.1999969482422,404.8999938964844,107.19999694824219,404.8999938964844C76.19999694824219,404.8999938964844,51.099998474121094,379.79998779296875,51.099998474121094,348.79998779296875C51.099998474121094,317.79998779296875,76.19999694824219,292.70001220703125,107.19999694824219,292.70001220703125C138.10000610351562,292.70001220703125,163.3000030517578,317.79998779296875,163.3000030517578,348.79998779296875zM387.1000061035156,292.70001220703125C356.1000061035156,292.70001220703125,331,317.79998779296875,331,348.79998779296875C331,379.79998779296875,356.1000061035156,404.8999938964844,387.1000061035156,404.8999938964844C418.1000061035156,404.8999938964844,443.20001220703125,379.79998779296875,443.20001220703125,348.79998779296875C443.29998779296875,317.79998779296875,418.1000061035156,292.70001220703125,387.1000061035156,292.70001220703125z"/>
<path id="Wheel" fill="#ADADAD" d="M147.60000610351562,348.79998779296875C147.60000610351562,371.1000061035156,129.5,389.20001220703125,107.19999694824219,389.20001220703125C84.9000015258789,389.20001220703125,66.80000305175781,371.1000061035156,66.80000305175781,348.79998779296875C66.80000305175781,326.5,84.9000015258789,308.3999938964844,107.19999694824219,308.3999938964844S147.60000610351562,326.5,147.60000610351562,348.79998779296875zM387.1000061035156,308.3999938964844C364.79998779296875,308.3999938964844,346.70001220703125,326.5,346.70001220703125,348.79998779296875C346.70001220703125,371.1000061035156,364.79998779296875,389.20001220703125,387.1000061035156,389.20001220703125C409.3999938964844,389.20001220703125,427.5,371.1000061035156,427.5,348.79998779296875C427.6000061035156,326.5,409.5,308.3999938964844,387.1000061035156,308.3999938964844z"/>
<path id="Rims" fill="#DDDDDD" d="M142,355.5C144.60000610351562,353.79998779296875,144.39999389648438,343.5,142,342C141.10000610351562,342.1000061035156,127,343.6000061035156,117,344.6000061035156L116.9000015258789,344.70001220703125C124.80000305175781,338.29998779296875,136,329.29998779296875,136.5,328.79998779296875C137.10000610351562,325.79998779296875,129.6999969482422,318.70001220703125,127,319.29998779296875C126.4000015258789,320,117.5999984741211,331,111.30000305175781,338.79998779296875L111.19999694824219,338.8999938964844C112.30000305175781,328.79998779296875,113.80000305175781,314.70001220703125,113.80000305175781,313.8999938964844C112.0999984741211,311.29998779296875,101.80000305175781,311.5,100.30000305175781,313.8999938964844C100.4000015258789,314.79998779296875,101.9000015258789,328.8999938964844,102.9000015258789,338.8999938964844L102.80000305175781,338.79998779296875C96.4000015258789,331,87.5999984741211,320,87.0999984741211,319.3999938964844C84.0999984741211,318.79998779296875,77,326.20001220703125,77.5999984741211,328.8999938964844C78.30000305175781,329.5,89.30000305175781,338.3999938964844,97.0999984741211,344.70001220703125L97.0999984741211,344.70001220703125C87.0999984741211,343.6000061035156,72.9000015258789,342.1000061035156,72.0999984741211,342.1000061035156C69.5,343.79998779296875,69.69999694824219,354.1000061035156,72.0999984741211,355.6000061035156C73,355.5,87.0999984741211,354,97.0999984741211,353L96.4000015258789,353.5C88.5999984741211,359.79998779296875,78.0999984741211,368.29998779296875,77.5999984741211,368.79998779296875C77,371.79998779296875,84.4000015258789,378.8999938964844,87.0999984741211,378.29998779296875C87.69999694824219,377.6000061035156,96.5999984741211,366.6000061035156,102.9000015258789,358.79998779296875L102.9000015258789,358.79998779296875C101.80000305175781,368.8999938964844,100.30000305175781,383,100.30000305175781,383.79998779296875C102,386.3999938964844,112.30000305175781,386.20001220703125,113.80000305175781,383.79998779296875C113.69999694824219,382.8999938964844,112.19999694824219,368.79998779296875,111.19999694824219,358.79998779296875L111.19999694824219,358.79998779296875L111.19999694824219,358.79998779296875C117.5999984741211,366.70001220703125,126.5,377.70001220703125,127,378.29998779296875C130,378.8999938964844,137.10000610351562,371.5,136.5,368.79998779296875C135.8000030517578,368.20001220703125,124.80000305175781,359.29998779296875,117,353L142,355.5zM114.5999984741211,348.79998779296875C114.5999984741211,352.8999938964844,111.30000305175781,356.29998779296875,107.0999984741211,356.29998779296875C103,356.29998779296875,99.5999984741211,353,99.5999984741211,348.79998779296875C99.5999984741211,344.6000061035156,102.9000015258789,341.29998779296875,107.0999984741211,341.29998779296875C111.30000305175781,341.29998779296875,114.5999984741211,344.70001220703125,114.5999984741211,348.79998779296875zM422,342.1000061035156C421.1000061035156,342.20001220703125,407,343.70001220703125,397,344.70001220703125C397,344.70001220703125,416,329.3999938964844,416.5,328.8999938964844C417.1000061035156,325.8999938964844,409.70001220703125,318.79998779296875,407,319.3999938964844C406.3999938964844,320.1000061035156,397.5,331.1000061035156,391.20001220703125,338.8999938964844L391.20001220703125,338.8999938964844L391.20001220703125,338.8999938964844C391.20001220703125,338.8999938964844,391.20001220703125,338.8999938964844,391.20001220703125,338.79998779296875C392.29998779296875,328.70001220703125,393.79998779296875,314.6000061035156,393.79998779296875,313.79998779296875C392.1000061035156,311.20001220703125,381.79998779296875,311.3999938964844,380.29998779296875,313.79998779296875C380.3999938964844,314.70001220703125,381.8999938964844,328.79998779296875,382.8999938964844,338.79998779296875C382.8999938964844,338.79998779296875,367.5,319.79998779296875,367.1000061035156,319.29998779296875C364.1000061035156,318.70001220703125,357,326.1000061035156,357.6000061035156,328.79998779296875C358.29998779296875,329.3999938964844,369.29998779296875,338.29998779296875,377.1000061035156,344.6000061035156L377.1000061035156,344.6000061035156C367,343.5,352.8999938964844,342,352.1000061035156,342C349.5,343.70001220703125,349.70001220703125,354,352.1000061035156,355.5C353,355.3999938964844,367.1000061035156,353.8999938964844,377.1000061035156,352.8999938964844L357.6000061035156,368.70001220703125C357,371.70001220703125,364.3999938964844,378.79998779296875,367.1000061035156,378.20001220703125C367.70001220703125,377.5,376.6000061035156,366.5,382.8999938964844,358.70001220703125L382.8999938964844,358.70001220703125C381.79998779296875,368.79998779296875,380.29998779296875,382.8999938964844,380.29998779296875,383.70001220703125C382,386.29998779296875,392.20001220703125,386.1000061035156,393.79998779296875,383.70001220703125C393.70001220703125,382.79998779296875,392.20001220703125,368.70001220703125,391.20001220703125,358.70001220703125L391.20001220703125,358.70001220703125L391.20001220703125,358.70001220703125C397.6000061035156,366.6000061035156,406.5,377.6000061035156,407,378.20001220703125C410,378.79998779296875,417.1000061035156,371.3999938964844,416.5,368.70001220703125C415.79998779296875,368.1000061035156,404.79998779296875,359.20001220703125,397,352.8999938964844C397,352.8999938964844,421.29998779296875,355.5,422,355.5C424.6000061035156,353.8999938964844,424.3999938964844,343.6000061035156,422,342.1000061035156zM387.1000061035156,356.29998779296875C383,356.29998779296875,379.6000061035156,353,379.6000061035156,348.79998779296875C379.6000061035156,344.70001220703125,382.8999938964844,341.29998779296875,387.1000061035156,341.29998779296875C391.20001220703125,341.29998779296875,394.6000061035156,344.6000061035156,394.6000061035156,348.79998779296875S391.29998779296875,356.29998779296875,387.1000061035156,356.29998779296875z"/>
<path id="Car" fill="#3980FF" d="M321.8999938964844,367.20001220703125L320.70001220703125,367.1000061035156C320.5,367.1000061035156,298,366,210.1999969482422,366L174.60000610351562,366L174.6999969482422,364.8999938964844C174.6999969482422,364.5,177.3000030517578,327.8999938964844,156.89999389648438,304.20001220703125L154,301.1000061035156C142.6999969482422,289.79998779296875,127,284,107.4000015258789,284C68.30000305175781,284,51.70000076293945,307.79998779296875,44.70000076293945,327.70001220703125C41.099998474121094,337.79998779296875,40.900001525878906,346.5,40.79999923706055,352.20001220703125C40.70000076293945,356.5,40.70000076293945,359.20001220703125,39.20000076293945,360.20001220703125C37.400001525878906,361.3999938964844,36,361.6000061035156,34.599998474121094,361.6000061035156C34,361.6000061035156,33.400001525878906,361.6000061035156,32.79999923706055,361.5C32,361.5,31.100000381469727,361.3999938964844,30.100000381469727,361.3999938964844C28,361.3999938964844,26.200000762939453,360.29998779296875,24.600000381469727,358C15.100000381469727,344.70001220703125,15.300000190734863,291.8999938964844,29,251.5L29.299999237060547,250.6999969482422L31.299999237060547,251.10000610351562C31.700000762939453,251.1999969482422,35.20000076293945,251.8000030517578,39.5,251.8000030517578C44.79999923706055,251.8000030517578,49.099998474121094,250.89999389648438,52.29999923706055,249.1999969482422C58.5,245.8000030517578,58.20000076293945,227.6999969482422,55.900001525878906,211.8000030517578L55.29999923706055,207.8000030517578L55.70000076293945,207.39999389648438C81.19999694824219,181.8000030517578,138.10000610351562,140.39999389648438,148.89999389648438,135.10000610351562C162.1999969482422,126.5,185.10000610351562,119.69999694824219,205.89999389648438,118.4000015258789L205.89999389648438,118.4000015258789C206.1999969482422,118.4000015258789,206.60000610351562,118.4000015258789,207.1999969482422,118.4000015258789C218.8000030517578,118.4000015258789,310.6000061035156,118.5,311.5,118.5C405.8999938964844,119,460.5,120.80000305175781,494.20001220703125,124.5999984741211L499.6000061035156,125.30000305175781C526.9000244140625,130,567.2000122070312,150.6999969482422,591.5,172.5C593.5,174.1999969482422,595.4000244140625,176,597.2999877929688,178L598.5999755859375,179.39999389648438L596.7000122070312,179.6999969482422C596.5,179.6999969482422,596.2999877929688,179.8000030517578,596.0999755859375,180C595.0999755859375,181.1999969482422,598.4000244140625,191.1999969482422,605.9000244140625,209.60000610351562L606.5,211.1999969482422L612.0999755859375,198.89999389648438L613,200.89999389648438C627.0999755859375,231,620,265.5,610.7999877929688,279.20001220703125C599.7999877929688,295.70001220703125,589.5,307.3999938964844,578.0999755859375,319.8999938964844C565.9000244140625,333.29998779296875,526.2000122070312,358.5,490.20001220703125,361.1000061035156C469.6000061035156,362.6000061035156,460.8999938964844,362.8999938964844,457.20001220703125,362.8999938964844C454.3999938964844,362.8999938964844,453.8999938964844,362.79998779296875,453.70001220703125,362.1000061035156L453.6000061035156,361.8999938964844L453.6000061035156,361.70001220703125C453.6000061035156,361.3999938964844,456.1000061035156,327.29998779296875,435.70001220703125,305.20001220703125C424,292.6000061035156,407.20001220703125,286.20001220703125,385.6000061035156,286.20001220703125C364.5,286.20001220703125,348.20001220703125,292.6000061035156,337.20001220703125,305.1000061035156C316.79998779296875,328.3999938964844,321.3999938964844,365.6000061035156,321.5,365.8999938964844L321.8999938964844,367.20001220703125z"/>
<path id="Back" fill="#2A4566" d="M226.1999969482422,119.4000015258789C226.1999969482422,118.9000015258789,226,118.4000015258789,225.60000610351562,118C225.1999969482422,117.5999984741211,224.6999969482422,117.4000015258789,224.1999969482422,117.5C224.1999969482422,117.5,220.89999389648438,117.5999984741211,219,117.5999984741211C188.8000030517578,118.0999984741211,135.3000030517578,152.6999969482422,111.69999694824219,176.39999389648438C103.0999984741211,185,100.0999984741211,191.10000610351562,102,195.8000030517578C104.5,201.8000030517578,114.5,202.60000610351562,122.9000015258789,202.60000610351562C124.9000015258789,202.60000610351562,126.9000015258789,202.60000610351562,128.5,202.5C136.6999969482422,202.3000030517578,145.5,202,153.89999389648438,201.8000030517578L153.89999389648438,201.8000030517578C154.10000610351562,201.8000030517578,154.3000030517578,201.8000030517578,154.5,201.8000030517578C175.3000030517578,201.1999969482422,193.60000610351562,200.6999969482422,193.60000610351562,200.6999969482422C194.10000610351562,200.6999969482422,194.5,200.5,194.8000030517578,200.1999969482422L226.8000030517578,173.1999969482422C227.3000030517578,172.8000030517578,227.5,172.1999969482422,227.5,171.60000610351562L226.1999969482422,119.4000015258789z"/>
<path id="Chair" fill="#8E341C" d="M140.5,199.8000030517578C140.5,169.6999969482422,155.3000030517578,153.6999969482422,176.60000610351562,147.6999969482422C197.89999389648438,141.6999969482422,212.3000030517578,169,212.3000030517578,169C212.3000030517578,169,204.8000030517578,135.60000610351562,233.60000610351562,121C262.3999938964844,106.4000015258789,274,126.0999984741211,279.29998779296875,132.60000610351562C285.1000061035156,147.60000610351562,288.8999938964844,174.1999969482422,294.70001220703125,199.8000030517578"/>
<path id="ChairBorder" d="M294.70001220703125,202.8000030517578C293.1000061035156,202.8000030517578,291.70001220703125,202.10000610351562,291.29998779296875,200.5C289.3999938964844,191.89999389648438,287.6000061035156,183.3000030517578,286,174.89999389648438C282.8999938964844,159,279.8999938964844,144,276.20001220703125,134.3000030517578C275.79998779296875,133.89999389648438,275.5,133.39999389648438,275.1000061035156,132.8000030517578C269.1000061035156,125,259,111.80000305175781,235.1999969482422,124C209.1999969482422,137.3000030517578,215.6999969482422,167.89999389648438,215.6999969482422,168.1999969482422C216.10000610351562,169.89999389648438,215.10000610351562,171.60000610351562,213.5,172.1999969482422C211.89999389648438,172.8000030517578,210,172.10000610351562,209.1999969482422,170.60000610351562C209.10000610351562,170.39999389648438,195.89999389648438,145.8000030517578,177.5,151C155.1999969482422,157.3000030517578,143.89999389648438,173.6999969482422,143.89999389648438,199.8000030517578C143.89999389648438,201.6999969482422,142.3000030517578,203.3000030517578,140.39999389648438,203.3000030517578C138.5,203.3000030517578,136.89999389648438,201.6999969482422,136.89999389648438,199.8000030517578C136.89999389648438,163,157.89999389648438,149.3000030517578,175.60000610351562,144.3000030517578C189.89999389648438,140.3000030517578,201.1999969482422,149.10000610351562,208,156.89999389648438C208.5,144.89999389648438,212.89999389648438,127.5,231.89999389648438,117.80000305175781C260.79998779296875,103,274.6000061035156,120.9000015258789,280.5,128.60000610351562C281,129.3000030517578,281.5,129.8000030517578,281.8999938964844,130.39999389648438C282.1000061035156,130.6999969482422,282.29998779296875,131,282.5,131.3000030517578C286.5,141.60000610351562,289.5,157.10000610351562,292.79998779296875,173.60000610351562C294.3999938964844,181.89999389648438,296.20001220703125,190.5,298.1000061035156,199C298.5,200.89999389648438,297.3999938964844,202.3000030517578,295.6000061035156,202.8000030517578C295.29998779296875,202.8000030517578,295,202.8000030517578,294.70001220703125,202.8000030517578z"/>
<path id="headlights1" fill="#AECFFF" d="M447.29998779296875,268.70001220703125C477.70001220703125,268.70001220703125,509.6000061035156,250.10000610351562,520.0999755859375,253.5C530.5,257,543,267.8999938964844,545.5999755859375,271C534.2000122070312,284.5,502.5,296.70001220703125,476.29998779296875,296.20001220703125C450,295.6000061035156,447.29998779296875,268.70001220703125,447.29998779296875,268.70001220703125zM596.7000122070312,180.60000610351562C595.5,182.10000610351562,606.5999755859375,209.5,606.5999755859375,209.5L610.5,201C610.5,200.89999389648438,597.9000244140625,179,596.7000122070312,180.60000610351562z"/>
<path id="Headlights" fill="#F4F4F4" d="M510.3999938964844,280.20001220703125C509.5,285.29998779296875,507.3999938964844,289.70001220703125,504.5,292.6000061035156C500.3999938964844,293.6000061035156,496.20001220703125,294.5,492.1000061035156,295.1000061035156C486.3999938964844,292.29998779296875,482.29998779296875,284.29998779296875,482.29998779296875,274.79998779296875C482.29998779296875,269.79998779296875,483.3999938964844,265.29998779296875,485.29998779296875,261.70001220703125C491.8999938964844,259.70001220703125,498,257.6000061035156,503.29998779296875,256C504.1000061035156,256.6000061035156,504.79998779296875,257.29998779296875,505.5,258.1000061035156L505.5,258.1000061035156C506,256.8999938964844,506.5,255.8000030517578,507.20001220703125,254.8000030517578C512.7999877929688,253.3000030517578,517.2999877929688,252.5,520.2000122070312,253.5C521.2999877929688,253.89999389648438,522.4000244140625,254.3000030517578,523.5,254.8000030517578C525.4000244140625,257.70001220703125,526.5999755859375,261.5,526.5999755859375,265.79998779296875C526.5999755859375,274.70001220703125,521.5999755859375,281.79998779296875,515.4000244140625,281.79998779296875C513.5,281.79998779296875,511.79998779296875,281.20001220703125,510.3999938964844,280.20001220703125"/>
<path id="Wheels" fill="#212121" d="M405.5,145.3000030517578C411.8999938964844,141.39999389648438,415.3999938964844,140.5,417.29998779296875,140.5C418.8999938964844,140.5,419.29998779296875,141.10000610351562,419.5,141.39999389648438C420.6000061035156,143,420.79998779296875,147.60000610351562,418.8999938964844,154C422,152.10000610351562,425.1000061035156,150.3000030517578,428.29998779296875,148.5C428.79998779296875,144.39999389648438,428.3999938964844,140.10000610351562,426.20001220703125,136.89999389648438C424.79998779296875,134.89999389648438,422.20001220703125,132.60000610351562,417.5,132.60000610351562C413.20001220703125,132.60000610351562,407.8999938964844,134.5,401.5,138.60000610351562C387.79998779296875,147.10000610351562,375.79998779296875,168.3000030517578,372.6000061035156,183.60000610351562C375.79998779296875,181.39999389648438,379.29998779296875,179.10000610351562,383,176.6999969482422C387.3999938964844,165,396.1000061035156,151.1999969482422,405.5,145.3000030517578z"/>
<path id="Shirt" fill="#FFD400" d="M319.8999938964844,184.10000610351562L320.3999938964844,184.10000610351562C321.70001220703125,181,322.1000061035156,177.3000030517578,321.3999938964844,174.89999389648438C320.79998779296875,172.8000030517578,319.6000061035156,170.10000610351562,318.29998779296875,167.3000030517578C316.5,163.3000030517578,314.5,158.8000030517578,313.20001220703125,154.1999969482422C313,153.5,313.29998779296875,152.89999389648438,313.79998779296875,152.5C314.8999938964844,151.6999969482422,315.1000061035156,151.39999389648438,315.1000061035156,151.39999389648438C315.1000061035156,151.39999389648438,315.5,150.8000030517578,312.5,148.39999389648438C312.20001220703125,148.10000610351562,311.8999938964844,147.6999969482422,311.8999938964844,147.3000030517578C311.70001220703125,145.3000030517578,311.3999938964844,143.39999389648438,311.20001220703125,141.6999969482422C310.70001220703125,138,310.3999938964844,135.5,310.5,134C310.20001220703125,133,311.3999938964844,129.3000030517578,311.6000061035156,131.6999969482422C312,132,313.5,133.60000610351562,314.29998779296875,134.39999389648438C317.1000061035156,137.6999969482422,323.6000061035156,145.10000610351562,333.6000061035156,146.60000610351562L343.3999938964844,118.4000015258789C341.29998779296875,117.4000015258789,337.20001220703125,114.69999694824219,333.5,112.69999694824219C323.1000061035156,107,307.3999938964844,98.4000015258789,299.20001220703125,98.4000015258789C298.1000061035156,98.4000015258789,297.20001220703125,98.5999984741211,296.5,98.9000015258789C296.3999938964844,99.30000305175781,295.3999938964844,101.30000305175781,295.3999938964844,102C295.3999938964844,106.5999984741211,296.29998779296875,114.0999984741211,284.5,118.80000305175781C280.6000061035156,120.4000015258789,276.6000061035156,121.30000305175781,272.79998779296875,121.30000305175781C260,121.30000305175781,251.60000610351562,112.4000015258789,249.10000610351562,109.30000305175781C238,114,231.89999389648438,123.69999694824219,232.6999969482422,137C233.39999389648438,149.5,235.3000030517578,168.5,237.10000610351562,180.10000610351562C237.8000030517578,184.89999389648438,238.8000030517578,192,239.60000610351562,199C254.10000610351562,199,270.6000061035156,199,284.3999938964844,199C291.5,196.5,297.70001220703125,195.39999389648438,303.79998779296875,193.60000610351562C304.3999938964844,193.39999389648438,305,192.1999969482422,305.6000061035156,192.10000610351562C308.6000061035156,187.3000030517578,313.8999938964844,184.10000610351562,319.8999938964844,184.10000610351562z"/>
<path id="ShirtBorder" d="M289.70001220703125,146.10000610351562C289.70001220703125,145.60000610351562,289.3999938964844,145.1999969482422,289,144.89999389648438C276,135.6999969482422,260.79998779296875,124.9000015258789,260.70001220703125,124.80000305175781C260,124.30000305175781,259,124.5,258.3999938964844,125.19999694824219C257.8999938964844,125.9000015258789,258,126.9000015258789,258.79998779296875,127.5C258.8999938964844,127.5999984741211,273,137.60000610351562,285.6000061035156,146.5L265.5,168.5C259.79998779296875,164,254.39999389648438,160.10000610351562,254.3000030517578,160C253.60000610351562,159.5,252.60000610351562,159.6999969482422,252,160.39999389648438C251.5,161.10000610351562,251.6999969482422,162.10000610351562,252.39999389648438,162.6999969482422C252.5,162.6999969482422,258.6000061035156,167.10000610351562,264.6000061035156,172C264.8999938964844,172.1999969482422,265.29998779296875,172.39999389648438,265.6000061035156,172.39999389648438C266,172.39999389648438,266.5,172.1999969482422,266.79998779296875,171.89999389648438L289.20001220703125,147.39999389648438C289.6000061035156,147,289.70001220703125,146.60000610351562,289.70001220703125,146.10000610351562zM303.79998779296875,192.5C297.70001220703125,194.3000030517578,290.3999938964844,196.39999389648438,283.3999938964844,198.89999389648438C286.8999938964844,198.89999389648438,290.29998779296875,198.89999389648438,293.70001220703125,198.89999389648438C297.20001220703125,197.8000030517578,300.70001220703125,196.8000030517578,303.79998779296875,195.89999389648438C304.20001220703125,194.5,304.8999938964844,193.1999969482422,305.6000061035156,192C305,192.1999969482422,304.3999938964844,192.3000030517578,303.79998779296875,192.5zM312.6000061035156,131.60000610351562C312.5,129.1999969482422,312.5,124.9000015258789,313.79998779296875,120.80000305175781C314.1000061035156,119.9000015258789,313.6000061035156,119,312.79998779296875,118.69999694824219C311.8999938964844,118.4000015258789,311,118.9000015258789,310.70001220703125,119.69999694824219C310,121.9000015258789,309.6000061035156,124.0999984741211,309.3999938964844,126.0999984741211C308.79998779296875,125.0999984741211,308.1000061035156,124.0999984741211,307.29998779296875,123.19999694824219C306.70001220703125,122.5,305.70001220703125,122.4000015258789,305,122.9000015258789C304.29998779296875,123.5,304.20001220703125,124.5,304.70001220703125,125.19999694824219C307.6000061035156,128.89999389648438,309.1000061035156,132.8000030517578,309.3999938964844,133.8000030517578L309.3999938964844,133.8000030517578L309.3999938964844,133.8000030517578L309.3999938964844,133.8000030517578C309.3999938964844,135.39999389648438,309.70001220703125,137.8000030517578,310.1000061035156,141.5C310.29998779296875,143.1999969482422,310.5,145,310.79998779296875,147.10000610351562C310.79998779296875,147.5,311.1000061035156,147.89999389648438,311.3999938964844,148.1999969482422C314.3999938964844,150.60000610351562,314,151.1999969482422,314,151.1999969482422C314,151.1999969482422,313.70001220703125,151.5,312.70001220703125,152.3000030517578C312.20001220703125,152.6999969482422,311.8999938964844,153.39999389648438,312.1000061035156,154C313.3999938964844,158.60000610351562,315.3999938964844,163.10000610351562,317.20001220703125,167.10000610351562C318.5,169.89999389648438,319.70001220703125,172.60000610351562,320.29998779296875,174.6999969482422C321,177.10000610351562,321.70001220703125,180.8000030517578,320.29998779296875,183.89999389648438L323.70001220703125,183.89999389648438C324.6000061035156,181,324.5,177.5,323.29998779296875,173.6999969482422C322.6000061035156,171.39999389648438,321.3999938964844,168.60000610351562,320,165.6999969482422C318.3999938964844,162.10000610351562,316.6000061035156,158.10000610351562,315.3999938964844,154.10000610351562C315.8999938964844,153.6999969482422,316.29998779296875,153.3000030517578,316.5,153C318.70001220703125,150.1999969482422,315.6000061035156,147.3000030517578,313.8999938964844,145.89999389648438C313.70001220703125,144.10000610351562,313.5,142.5,313.29998779296875,141C313.1000061035156,139.39999389648438,312.8999938964844,137.8000030517578,312.79998779296875,136.5C316.5,140.60000610351562,323.6000061035156,147.6999969482422,334.3999938964844,148.6999969482422C335.20001220703125,148.8000030517578,335.8999938964844,148.3000030517578,336.1000061035156,147.60000610351562L345.79998779296875,117.80000305175781C346.1000061035156,117,345.6000061035156,116.0999984741211,344.79998779296875,115.80000305175781C342.8999938964844,115.0999984741211,339.20001220703125,113.0999984741211,334.8999938964844,110.69999694824219C323.6000061035156,104.5,308.1000061035156,96,299,96C297.5,96,296.1000061035156,96.30000305175781,295,96.80000305175781C293,97.30000305175781,293,99.5999984741211,292.8999938964844,101.80000305175781C292.8999938964844,106.0999984741211,292.79998779296875,112.69999694824219,283,116.5999984741211C279.5,118.0999984741211,275.8999938964844,118.80000305175781,272.5,118.80000305175781C259.1000061035156,118.80000305175781,250.8000030517578,107.30000305175781,250.6999969482422,107.0999984741211C250.3000030517578,106.5,249.5,106.30000305175781,248.8000030517578,106.5C235.60000610351562,111.5,229.3000030517578,121.69999694824219,230.1999969482422,136.8000030517578C230.89999389648438,149.39999389648438,232.8000030517578,168.5,234.60000610351562,180.1999969482422C235.3000030517578,184.89999389648438,236.3000030517578,191.6999969482422,237.10000610351562,198.60000610351562C238.1999969482422,198.60000610351562,239.3000030517578,198.60000610351562,240.39999389648438,198.60000610351562C239.60000610351562,191.5,238.60000610351562,184.5,237.89999389648438,179.6999969482422C236.10000610351562,168.10000610351562,234.1999969482422,149.10000610351562,233.5,136.60000610351562C232.8000030517578,123.30000305175781,237.8000030517578,114.5999984741211,248.89999389648438,109.9000015258789C251.39999389648438,113,259.79998779296875,121.9000015258789,272.6000061035156,121.9000015258789C276.5,121.9000015258789,280.3999938964844,121.0999984741211,284.29998779296875,119.4000015258789C296.1000061035156,114.69999694824219,296.20001220703125,106.19999694824219,296.20001220703125,101.5999984741211C296.20001220703125,100.9000015258789,296.20001220703125,100,296.29998779296875,99.5C297,99.19999694824219,297.8999938964844,99,299,99C307.20001220703125,99,322.8999938964844,107.5999984741211,333.29998779296875,113.30000305175781C337,115.30000305175781,340,117,342.20001220703125,118L333.3999938964844,145.1999969482422C323.3999938964844,143.6999969482422,316.8999938964844,136.1999969482422,314.1000061035156,133C313.5,132.5,313,131.89999389648438,312.6000061035156,131.60000610351562L312.6000061035156,131.60000610351562z"/>
<path id="Body" fill="#BF8C5C" d="M283.5,116.9000015258789C293.29998779296875,113,293.20001220703125,106.30000305175781,293.20001220703125,102L293.20001220703125,101.9000015258789C289.6000061035156,101.5999984741211,287.5,100.5,286.6000061035156,98.5C286.3999938964844,97.9000015258789,286.1000061035156,97.30000305175781,285.8999938964844,96.5999984741211C281.1000061035156,99.9000015258789,275.8999938964844,101.80000305175781,271.1000061035156,101.80000305175781C266.79998779296875,101.80000305175781,262.29998779296875,100.19999694824219,258.20001220703125,97.5999984741211C258.70001220703125,102.69999694824219,256.29998779296875,108.30000305175781,255.5,109.80000305175781C255.1999969482422,110.19999694824219,254.8000030517578,110.5999984741211,254.1999969482422,110.9000015258789C257.79998779296875,114.30000305175781,264.20001220703125,119.19999694824219,272.79998779296875,119.19999694824219C276.20001220703125,119.19999694824219,279.8999938964844,118.4000015258789,283.5,116.9000015258789zM367.5,182.6999969482422C368,183.6999969482422,369.1000061035156,184.5,370.5,185C376.1000061035156,181.1999969482422,382.6000061035156,176.89999389648438,389.70001220703125,172.3000030517578C389.6000061035156,172.10000610351562,389.5,172,389.5,172C389.5,172,390.70001220703125,171.10000610351562,390.79998779296875,168.39999389648438C390.8999938964844,165.60000610351562,388.5,164.6999969482422,388.5,164.6999969482422C388.5,164.6999969482422,390.1000061035156,164.5,390.29998779296875,161.8000030517578C390.3999938964844,159.1999969482422,388.5,158.1999969482422,384.8999938964844,158.10000610351562C381.29998779296875,157.89999389648438,378.70001220703125,157.10000610351562,371.5,158.89999389648438C367.3999938964844,160,366,162.5,365.6000061035156,165.3000030517578L364.20001220703125,164.6999969482422C361.8999938964844,165.89999389648438,359.20001220703125,167,356.5,167.1999969482422C349.5,167.60000610351562,340.79998779296875,168.3000030517578,333.20001220703125,168.89999389648438C324.1000061035156,169.6999969482422,316.20001220703125,171.3000030517578,312.29998779296875,171.3000030517578C311.1000061035156,171.3000030517578,310.3999938964844,171.1999969482422,309.8999938964844,171.10000610351562C308.1000061035156,170.60000610351562,305.1000061035156,167.6999969482422,299.5,162.1999969482422C295.70001220703125,158.39999389648438,291,153.8000030517578,286.70001220703125,150.3000030517578L270.1000061035156,168.5C283.5,178.39999389648438,299.5,190.39999389648438,305.79998779296875,192.89999389648438C308.79998779296875,188.3000030517578,314,184.1999969482422,320,184.1999969482422L324,184.1999969482422L335.5,184.1999969482422L338.5,184.1999969482422C340,184.1999969482422,341.5,184.39999389648438,342.8999938964844,184.8000030517578C347.79998779296875,183.6999969482422,352.70001220703125,183.8000030517578,357.20001220703125,183.3000030517578C358,183.1999969482422,359,183.1999969482422,359.8999938964844,183.1999969482422C362,183.1999969482422,364.1000061035156,183.39999389648438,366,183.6999969482422L367.5,182.6999969482422zM352.8999938964844,144.3000030517578C359.20001220703125,142.8000030517578,387.8999938964844,137.6999969482422,389.1000061035156,137.5C389.29998779296875,137.5,389.5,137.5,389.79998779296875,137.5C390.6000061035156,137.5,391.8999938964844,137.60000610351562,393.29998779296875,137.6999969482422C395,137.8000030517578,397,138,398.3999938964844,138C399.29998779296875,138,399.6000061035156,137.89999389648438,399.79998779296875,137.89999389648438C400.1000061035156,137.6999969482422,400.79998779296875,137.10000610351562,401.6000061035156,136.5C404.70001220703125,134,407.20001220703125,132.10000610351562,408.3999938964844,131.6999969482422C408.6000061035156,131.60000610351562,408.79998779296875,131.5,409.1000061035156,131.39999389648438C409.70001220703125,131.10000610351562,410.5,130.8000030517578,411.3999938964844,130.8000030517578C412.8999938964844,130.8000030517578,414.20001220703125,131.6999969482422,415.29998779296875,133.39999389648438C416.1000061035156,134.6999969482422,416.20001220703125,136.1999969482422,415.79998779296875,137.60000610351562C415.29998779296875,139.3000030517578,414.1000061035156,140.8000030517578,413.20001220703125,141.3000030517578C412.79998779296875,141.5,412.3999938964844,141.60000610351562,411.8999938964844,141.8000030517578C411.5,141.89999389648438,411.1000061035156,142,410.70001220703125,142.1999969482422C410.8999938964844,142.1999969482422,411.1000061035156,142.1999969482422,411.29998779296875,142.1999969482422C412.79998779296875,142.1999969482422,415,141.89999389648438,417.3999938964844,141.39999389648438C418.20001220703125,140.8000030517578,418.79998779296875,140,419.1000061035156,139.3000030517578C419.8999938964844,137.5,419.8999938964844,135.60000610351562,419.70001220703125,135L416.79998779296875,129.60000610351562C416.5,129.10000610351562,416.70001220703125,128.5,417.20001220703125,128.1999969482422C417.70001220703125,127.9000015258789,418.29998779296875,128.10000610351562,418.6000061035156,128.60000610351562L421.6000061035156,134C422.1000061035156,135.1999969482422,422.1000061035156,137.39999389648438,421.29998779296875,139.5C422,138.89999389648438,422.70001220703125,138.3000030517578,423.29998779296875,137.60000610351562C423.8999938964844,136.39999389648438,424,134.6999969482422,423.70001220703125,134.10000610351562L420.8999938964844,128.6999969482422C420.6000061035156,128.1999969482422,420.79998779296875,127.5999984741211,421.3999938964844,127.30000305175781C421.8999938964844,127,422.5,127.19999694824219,422.79998779296875,127.69999694824219L425.6000061035156,133.1999969482422C425.70001220703125,133.39999389648438,425.79998779296875,133.6999969482422,425.79998779296875,134C426.20001220703125,133.3000030517578,426.3999938964844,132.8000030517578,426.5,132.5C427.29998779296875,130.6999969482422,422.8999938964844,126,421.3999938964844,124.5L420.8999938964844,123.9000015258789C419,121.80000305175781,416.3999938964844,119,414.29998779296875,119L414.20001220703125,119C412.6000061035156,119.0999984741211,404,122.30000305175781,398.29998779296875,124.5C393.6000061035156,126.19999694824219,390.8999938964844,127.19999694824219,390,127.5C388.29998779296875,127.9000015258789,374.8999938964844,128.3000030517578,364.79998779296875,128.3000030517578C359.8999938964844,128.3000030517578,353.5,128.1999969482422,350.70001220703125,127.69999694824219C348.5,127.30000305175781,346.29998779296875,126.30000305175781,343.5,124.80000305175781L338.29998779296875,140.8000030517578C344.20001220703125,142.6999969482422,349.3999938964844,144.10000610351562,352.1000061035156,144.10000610351562C352.6000061035156,144.3000030517578,352.79998779296875,144.3000030517578,352.8999938964844,144.3000030517578z"/>
<path id="Face" fill="#FFFFFF" d="M271.1000061035156,99.5C261.5,99.5,249.39999389648438,90.19999694824219,243.10000610351562,77.80000305175781C239.39999389648438,70.69999694824219,238.6999969482422,64,238.6999969482422,56.20000076293945C238.6999969482422,29.799999237060547,249.60000610351562,16.5,271.20001220703125,16.5C292.1000061035156,16.5,303.70001220703125,30.600000381469727,303.70001220703125,56.20000076293945C303.70001220703125,64.69999694824219,302.3999938964844,70.9000015258789,299.29998779296875,77.5999984741211C293.29998779296875,90.0999984741211,281.20001220703125,99.5,271.1000061035156,99.5z"/>
<path id="BodyBorder" d="M425.8999938964844,134.3000030517578C425.8999938964844,134.1999969482422,425.8999938964844,134.1999969482422,425.8999938964844,134.3000030517578C426.29998779296875,133.60000610351562,426.5,133,426.6000061035156,132.6999969482422C427.3999938964844,130.89999389648438,423,126.19999694824219,421.5,124.69999694824219L421,124.0999984741211C419.1000061035156,122,416.5,119.19999694824219,414.3999938964844,119.19999694824219L414.29998779296875,119.19999694824219C412.70001220703125,119.30000305175781,404.1000061035156,122.5,398.3999938964844,124.69999694824219C393.70001220703125,126.4000015258789,391,127.4000015258789,390.1000061035156,127.69999694824219C388.3999938964844,128.10000610351562,375,128.5,364.8999938964844,128.5C360,128.5,353.6000061035156,128.39999389648438,350.79998779296875,127.9000015258789C348.6000061035156,127.5,346.3999938964844,126.5,343.6000061035156,125L344.5,122.4000015258789C347.20001220703125,123.9000015258789,349.3999938964844,124.9000015258789,351.29998779296875,125.19999694824219C353.3999938964844,125.5,358.1000061035156,125.69999694824219,364.8999938964844,125.69999694824219C376.29998779296875,125.69999694824219,388.3999938964844,125.19999694824219,389.5,124.9000015258789C390.29998779296875,124.69999694824219,393.70001220703125,123.4000015258789,397.3999938964844,122.0999984741211C406,118.9000015258789,412.20001220703125,116.5999984741211,414.1000061035156,116.5C417.3999938964844,116.30000305175781,420.5,119.5999984741211,423,122.19999694824219L423.5,122.80000305175781C427.1000061035156,126.5999984741211,430.3999938964844,130.5,429.1000061035156,133.6999969482422C428.5,135.5,424.70001220703125,142.60000610351562,418.3999938964844,144C415.70001220703125,144.60000610351562,413.29998779296875,144.89999389648438,411.5,144.89999389648438C409.6000061035156,144.89999389648438,408.3999938964844,144.5,407.79998779296875,143.8000030517578C407.3999938964844,143.3000030517578,407.29998779296875,142.6999969482422,407.5,142.10000610351562C408,140.1999969482422,410,139.60000610351562,411.20001220703125,139.1999969482422C411.5,139.10000610351562,411.79998779296875,139,412,138.89999389648438C412.3999938964844,138.6999969482422,414.1000061035156,136.60000610351562,413.1000061035156,134.8000030517578C412.20001220703125,133.39999389648438,411.70001220703125,133.39999389648438,411.5,133.39999389648438C411.1000061035156,133.39999389648438,410.70001220703125,133.60000610351562,410.20001220703125,133.8000030517578C409.8999938964844,133.89999389648438,409.6000061035156,134,409.29998779296875,134.10000610351562C408.3999938964844,134.39999389648438,404.8999938964844,137.1999969482422,403.3999938964844,138.5C402.3999938964844,139.3000030517578,401.70001220703125,139.8000030517578,401.3999938964844,140.10000610351562C400.8999938964844,140.5,400.1000061035156,140.60000610351562,398.6000061035156,140.60000610351562C397.1000061035156,140.60000610351562,395,140.39999389648438,393.29998779296875,140.3000030517578C391.70001220703125,140.1999969482422,390.20001220703125,140,389.70001220703125,140.10000610351562C389.5,140.10000610351562,360,145.39999389648438,353.79998779296875,146.89999389648438C353.3999938964844,147,352.8999938964844,147,352.3999938964844,147C349.5,147,344,145.60000610351562,337.79998779296875,143.60000610351562L338.6000061035156,141C344.5,142.89999389648438,349.70001220703125,144.3000030517578,352.3999938964844,144.3000030517578C352.79998779296875,144.3000030517578,353,144.3000030517578,353.20001220703125,144.1999969482422C359.5,142.6999969482422,388.20001220703125,137.60000610351562,389.3999938964844,137.39999389648438C389.6000061035156,137.39999389648438,389.79998779296875,137.39999389648438,390.1000061035156,137.39999389648438C390.8999938964844,137.39999389648438,392.20001220703125,137.5,393.6000061035156,137.60000610351562C395.29998779296875,137.6999969482422,397.29998779296875,137.89999389648438,398.70001220703125,137.89999389648438C399.6000061035156,137.89999389648438,399.8999938964844,137.8000030517578,400.1000061035156,137.8000030517578C400.3999938964844,137.60000610351562,401.1000061035156,137,401.8999938964844,136.39999389648438C405,133.89999389648438,407.5,132,408.70001220703125,131.60000610351562C408.8999938964844,131.5,409.1000061035156,131.39999389648438,409.3999938964844,131.3000030517578C410,131,410.79998779296875,130.6999969482422,411.70001220703125,130.6999969482422C413.20001220703125,130.6999969482422,414.5,131.60000610351562,415.6000061035156,133.3000030517578C416.3999938964844,134.60000610351562,416.5,136.10000610351562,416.1000061035156,137.5C415.6000061035156,139.1999969482422,414.3999938964844,140.6999969482422,413.5,141.1999969482422C413.1000061035156,141.39999389648438,412.70001220703125,141.5,412.20001220703125,141.6999969482422C411.79998779296875,141.8000030517578,411.3999938964844,141.89999389648438,411,142.10000610351562C411.20001220703125,142.10000610351562,411.3999938964844,142.10000610351562,411.6000061035156,142.10000610351562C413.1000061035156,142.10000610351562,415.29998779296875,141.8000030517578,417.70001220703125,141.3000030517578L417.70001220703125,141.3000030517578L417.70001220703125,141.3000030517578C418.5,140.6999969482422,419.1000061035156,139.89999389648438,419.3999938964844,139.1999969482422C420.20001220703125,137.39999389648438,420.20001220703125,135.5,420,134.89999389648438L417.1000061035156,129.5C416.79998779296875,129,417,128.39999389648438,417.5,128.10000610351562C418,127.80000305175781,418.6000061035156,128,418.8999938964844,128.5L421.8999938964844,133.89999389648438C422.3999938964844,135.10000610351562,422.3999938964844,137.3000030517578,421.6000061035156,139.39999389648438L421.6000061035156,139.39999389648438C422.29998779296875,138.8000030517578,423,138.1999969482422,423.6000061035156,137.5L423.6000061035156,137.5L423.6000061035156,137.5L423.6000061035156,137.5C424.20001220703125,136.3000030517578,424.29998779296875,134.60000610351562,424,134L421.20001220703125,128.60000610351562C420.8999938964844,128.10000610351562,421.1000061035156,127.5,421.70001220703125,127.19999694824219C422.20001220703125,126.9000015258789,422.79998779296875,127.0999984741211,423.1000061035156,127.5999984741211L425.8999938964844,133.10000610351562C425.79998779296875,133.60000610351562,425.8999938964844,133.89999389648438,425.8999938964844,134.3000030517578zM268.20001220703125,170.39999389648438C278.70001220703125,178.1999969482422,296.3999938964844,190.8000030517578,304.5,194.10000610351562C304.8999938964844,193.3000030517578,305.29998779296875,192.5,305.79998779296875,191.6999969482422C299.5,189.1999969482422,283.5,178.1999969482422,270.1000061035156,168.3000030517578L268.20001220703125,170.39999389648438zM366,182.5C364.1000061035156,182.1999969482422,361.8999938964844,182,359.8999938964844,182C358.8999938964844,182,358,182,357.20001220703125,182.10000610351562C352.70001220703125,182.60000610351562,347.79998779296875,183.5,342.8999938964844,184.60000610351562C344.3999938964844,185,345.8999938964844,185.60000610351562,347.20001220703125,186.39999389648438C350.70001220703125,185.6999969482422,354.20001220703125,185.10000610351562,357.3999938964844,184.6999969482422C358.1000061035156,184.60000610351562,359,184.60000610351562,359.79998779296875,184.60000610351562C363.1000061035156,184.60000610351562,366.6000061035156,185.1999969482422,369,185.6999969482422L369,185.6999969482422C369.8999938964844,185.10000610351562,370.79998779296875,184.5,371.79998779296875,183.8000030517578C370.20001220703125,183.39999389648438,369,182.8000030517578,368.6000061035156,181.89999389648438C368.20001220703125,181,367.79998779296875,179.8000030517578,367.5,178.39999389648438C367.29998779296875,177.6999969482422,366.6000061035156,177.1999969482422,365.8999938964844,177.39999389648438C365.20001220703125,177.60000610351562,364.70001220703125,178.3000030517578,364.8999938964844,179C365.20001220703125,180.39999389648438,365.6000061035156,181.60000610351562,366,182.5L366,182.5zM388.5,172.89999389648438L388.5,172.89999389648438C388.5,172.89999389648438,388.5,173,388.5,172.89999389648438C389.6000061035156,172.3000030517578,390.6000061035156,171.60000610351562,391.70001220703125,170.89999389648438C392,170.1999969482422,392.20001220703125,169.39999389648438,392.20001220703125,168.3000030517578C392.29998779296875,166.60000610351562,391.6000061035156,165.3000030517578,390.79998779296875,164.5C391.29998779296875,163.89999389648438,391.6000061035156,163,391.6000061035156,161.6999969482422C391.79998779296875,156.89999389648438,386.79998779296875,156.6999969482422,384.8999938964844,156.60000610351562C384.20001220703125,156.60000610351562,383.6000061035156,156.5,382.8999938964844,156.39999389648438C380.1000061035156,156.10000610351562,377.1000061035156,155.89999389648438,371.1000061035156,157.39999389648438C367.8999938964844,158.1999969482422,366.20001220703125,159.89999389648438,365.20001220703125,161.6999969482422C362.79998779296875,163.3000030517578,359.3999938964844,165.10000610351562,356.20001220703125,165.3000030517578C349.20001220703125,165.6999969482422,340.5,166.39999389648438,332.79998779296875,167C324.1000061035156,167.6999969482422,315.8999938964844,168.39999389648438,312.20001220703125,168.39999389648438C310.8999938964844,168.39999389648438,310.6000061035156,168.3000030517578,310.5,168.3000030517578C309.29998779296875,168,305,163.8000030517578,301.29998779296875,160.10000610351562C297.29998779296875,156.10000610351562,292.79998779296875,151.6999969482422,288.3999938964844,148.1999969482422L286.6000061035156,150.1999969482422C290.8999938964844,153.6999969482422,295.5,158.3000030517578,299.3999938964844,162.10000610351562C305,167.60000610351562,308,170.5,309.79998779296875,171C310.29998779296875,171.10000610351562,311,171.1999969482422,312.20001220703125,171.1999969482422C316.1000061035156,171.1999969482422,323.8999938964844,170.5,333.1000061035156,169.8000030517578C340.70001220703125,169.1999969482422,349.3999938964844,168.39999389648438,356.3999938964844,168.10000610351562C359.1000061035156,168,361.79998779296875,166.89999389648438,364.1000061035156,165.60000610351562L364.1000061035156,165.60000610351562L364.1000061035156,165.60000610351562C364,166.5,364,167.3000030517578,364,168C364,168.6999969482422,364.6000061035156,169.39999389648438,365.29998779296875,169.39999389648438L365.29998779296875,169.39999389648438C366,169.39999389648438,366.6000061035156,168.8000030517578,366.70001220703125,168.10000610351562C366.70001220703125,164.5,367.20001220703125,161.39999389648438,371.79998779296875,160.1999969482422C377.3999938964844,158.6999969482422,379.8999938964844,159,382.70001220703125,159.1999969482422C383.3999938964844,159.3000030517578,384.1000061035156,159.3000030517578,384.79998779296875,159.39999389648438C389.1000061035156,159.60000610351562,389,160.8000030517578,389,161.6999969482422C389,162.8000030517578,388.6000061035156,163.1999969482422,388.3999938964844,163.3000030517578C388.20001220703125,163.3000030517578,388,163.39999389648438,387.8999938964844,163.5L387.8999938964844,163.5C386.79998779296875,163.10000610351562,383.1000061035156,162.10000610351562,379.5,163C378.8999938964844,163.10000610351562,378.6000061035156,163.6999969482422,378.79998779296875,164.3000030517578C378.8999938964844,164.89999389648438,379.5,165.1999969482422,380.1000061035156,165C383.70001220703125,164.10000610351562,387.5,165.5,387.6000061035156,165.60000610351562C387.70001220703125,165.60000610351562,387.79998779296875,165.60000610351562,387.79998779296875,165.60000610351562L387.79998779296875,165.60000610351562L387.79998779296875,165.60000610351562C387.8999938964844,165.6999969482422,388,165.8000030517578,388.20001220703125,165.89999389648438C388.3999938964844,166,389.70001220703125,166.60000610351562,389.70001220703125,168.3000030517578C389.6000061035156,170.10000610351562,389,170.8000030517578,388.8999938964844,170.89999389648438L388.8999938964844,170.89999389648438L388.8999938964844,170.89999389648438C387.6000061035156,170.60000610351562,382.20001220703125,169.39999389648438,378.20001220703125,170.89999389648438C377.70001220703125,171.10000610351562,377.3999938964844,171.6999969482422,377.6000061035156,172.1999969482422C377.79998779296875,172.6999969482422,378.3999938964844,173,378.8999938964844,172.8000030517578C382.6000061035156,171.3000030517578,388.3999938964844,172.89999389648438,388.5,172.89999389648438L388.5,172.89999389648438L388.5,172.89999389648438zM241.60000610351562,80C244.39999389648438,85.0999984741211,248.60000610351562,90.19999694824219,253.39999389648438,94.19999694824219L253.5,94.30000305175781L254,95C256.5,98.80000305175781,253.8000030517578,106.0999984741211,252.6999969482422,108.0999984741211C252.5,108.19999694824219,252.1999969482422,108.4000015258789,251.8000030517578,108.5C252.3000030517578,109.0999984741211,253.10000610351562,110,254.10000610351562,111C254.6999969482422,110.69999694824219,255.10000610351562,110.30000305175781,255.39999389648438,109.9000015258789C256.29998779296875,108.4000015258789,258.70001220703125,102.80000305175781,258.1000061035156,97.69999694824219L258.20001220703125,97.80000305175781C262.29998779296875,100.30000305175781,266.70001220703125,101.9000015258789,271.1000061035156,101.9000015258789C275.8999938964844,101.9000015258789,281,100,285.8999938964844,96.80000305175781L286,96.69999694824219C286.20001220703125,97.4000015258789,286.5,98,286.70001220703125,98.5999984741211C287.5,100.5999984741211,289.70001220703125,101.69999694824219,293.29998779296875,102C293.29998779296875,100.80000305175781,293.29998779296875,99.69999694824219,293.70001220703125,98.80000305175781C291.5,98.69999694824219,290.1000061035156,98.19999694824219,289.79998779296875,97.4000015258789C289.5,96.5999984741211,289.1000061035156,95.69999694824219,288.79998779296875,94.69999694824219L288.8999938964844,94.5999984741211C293.3999938964844,90.9000015258789,297.5,86.0999984741211,300.3999938964844,80.5999984741211L300.6000061035156,80.19999694824219L302.1000061035156,77C304,72.5999984741211,305.1000061035156,68.30000305175781,305.6000061035156,63.400001525878906L305.8999938964844,60.099998474121094C306,58.900001525878906,306,57.70000076293945,306,56.400001525878906C306,29.700000762939453,293.3999938964844,14.399999618530273,271.29998779296875,14.399999618530273C255.5,14.399999618530273,236.60000610351562,21.700000762939453,236.60000610351562,56.400001525878906C236.60000610351562,57.599998474121094,236.60000610351562,58.900001525878906,236.6999969482422,60.099998474121094L236.89999389648438,63.400001525878906C237.3000030517578,68.0999984741211,238.3000030517578,72.5,240.39999389648438,77.19999694824219L241.60000610351562,80zM302.5,56.20000076293945C302.5,64.5,301.29998779296875,70.5999984741211,298.20001220703125,77.19999694824219C292.5,89.4000015258789,280.79998779296875,98.5999984741211,271.1000061035156,98.5999984741211C261.79998779296875,98.5999984741211,250.1999969482422,89.5,244,77.4000015258789C240.39999389648438,70.4000015258789,239.6999969482422,63.900001525878906,239.6999969482422,56.29999923706055C239.6999969482422,30.600000381469727,250.3000030517578,17.600000381469727,271.1000061035156,17.600000381469727C291.29998779296875,17.5,302.5,31.200000762939453,302.5,56.20000076293945z"/>
<path id="Hair" fill="#6D553A" d="M302,66.4000015258789L301.20001220703125,66C300.70001220703125,65.69999694824219,300.29998779296875,65.5,297.3999938964844,50.20000076293945L297.3999938964844,50L297.5,49.79999923706055C297.5,49.70000076293945,299.8999938964844,39.900001525878906,297.20001220703125,35.5C296.6000061035156,34.5,295.70001220703125,33.900001525878906,294.6000061035156,33.599998474121094C293.1000061035156,33.29999923706055,291.70001220703125,33.099998474121094,290.1000061035156,33.099998474121094C287.5,33.099998474121094,284.79998779296875,33.5,282,33.900001525878906C278.70001220703125,34.400001525878906,275.3999938964844,34.900001525878906,271.3999938964844,34.900001525878906C267.79998779296875,34.900001525878906,264.5,34.400001525878906,261.6000061035156,34C259.20001220703125,33.599998474121094,256.8999938964844,33.29999923706055,254.89999389648438,33.29999923706055C252.89999389648438,33.29999923706055,251.3000030517578,33.599998474121094,249.89999389648438,34.29999923706055C245.10000610351562,36.70000076293945,246,47.79999923706055,246.3000030517578,49.20000076293945C246.5,50,245.89999389648438,51.5,243.8000030517578,56.900001525878906C242.6999969482422,59.900001525878906,241.3000030517578,63.5,241.1999969482422,64.5C241.10000610351562,65.30000305175781,240.60000610351562,65.69999694824219,240,65.69999694824219C239.60000610351562,65.69999694824219,239.3000030517578,65.5,239,65.19999694824219C237.3000030517578,63.29999923706055,234,53.599998474121094,235.3000030517578,43.29999923706055L234.39999389648438,33.29999923706055L235.6999969482422,33.5C236,33.5,236.89999389648438,33.400001525878906,237.8000030517578,31.899999618530273C238.6999969482422,30.299999237060547,237.89999389648438,26.5,237.5,25.299999237060547L237.10000610351562,24.200000762939453L238.3000030517578,24C238.39999389648438,24,243.3000030517578,23.200000762939453,245.89999389648438,20.399999618530273L245.89999389648438,20.399999618530273L248.39999389648438,18.100000381469727C254,13.699999809265137,261.29998779296875,11.5,270.70001220703125,11.5C292.6000061035156,11.5,303.3999938964844,25.899999618530273,306.20001220703125,39.400001525878906C309.1000061035156,53.400001525878906,307.20001220703125,59.400001525878906,302.79998779296875,65.5L302,66.4000015258789z"/>
<path id="HairBorder" d="M283.79998779296875,13.199999809265137C279.8999938964844,11.899999618530273,275.3999938964844,11.100000381469727,270.29998779296875,11.100000381469727C259.3999938964844,11.100000381469727,251.1999969482422,14,245.1999969482422,20C245.10000610351562,20.100000381469727,245,20.100000381469727,245,20.200000762939453C242.60000610351562,22.899999618530273,237.89999389648438,23.600000381469727,237.8000030517578,23.600000381469727C237.3000030517578,23.700000762939453,236.89999389648438,23.899999618530273,236.6999969482422,24.299999237060547C236.39999389648438,24.700000762939453,236.39999389648438,25.200000762939453,236.5,25.700000762939453C237.10000610351562,27.5,237.60000610351562,30.600000381469727,236.89999389648438,31.799999237060547C236.1999969482422,33,235.39999389648438,33.099998474121094,235.39999389648438,33.099998474121094C234.89999389648438,33,234.39999389648438,33.099998474121094,234,33.400001525878906C233.60000610351562,33.70000076293945,233.5,34.29999923706055,233.5,34.79999923706055L234.3000030517578,43.400001525878906C233,54.29999923706055,236.60000610351562,63.900001525878906,238.1999969482422,65.69999694824219C238.60000610351562,66.19999694824219,239.10000610351562,66.5,239.6999969482422,66.5C240.5,66.5,241.39999389648438,66,241.5,64.80000305175781C241.60000610351562,63.900001525878906,243,60.099998474121094,244.10000610351562,57.29999923706055C246.39999389648438,51.29999923706055,246.8000030517578,50.099998474121094,246.60000610351562,49.20000076293945C246.1999969482422,47.20000076293945,245.8000030517578,37,249.89999389648438,35C251.1999969482422,34.29999923706055,252.6999969482422,34,254.60000610351562,34C256.6000061035156,34,258.79998779296875,34.29999923706055,261.20001220703125,34.70000076293945C264.1000061035156,35.099998474121094,267.5,35.599998474121094,271.1000061035156,35.599998474121094C275.1000061035156,35.599998474121094,278.5,35.099998474121094,281.79998779296875,34.599998474121094C284.6000061035156,34.20000076293945,287.20001220703125,33.79999923706055,289.79998779296875,33.79999923706055C291.3999938964844,33.79999923706055,292.79998779296875,33.900001525878906,294.20001220703125,34.20000076293945C295.20001220703125,34.400001525878906,295.8999938964844,34.900001525878906,296.3999938964844,35.79999923706055C298.6000061035156,39.29999923706055,297.29998779296875,46.900001525878906,296.70001220703125,49.599998474121094C296.6000061035156,49.79999923706055,296.6000061035156,50.099998474121094,296.70001220703125,50.29999923706055C299.6000061035156,65.9000015258789,299.8999938964844,66.0999984741211,300.79998779296875,66.5C301,66.5999984741211,301.29998779296875,66.69999694824219,301.5,66.69999694824219C302,66.69999694824219,302.5,66.5,302.79998779296875,66C307.3999938964844,59.79999923706055,309.29998779296875,53.70000076293945,306.29998779296875,39.400001525878906C304.8999938964844,32.5,301.3999938964844,25.399999618530273,295.5,20L295.5,20C295.29998779296875,19.799999237060547,295.20001220703125,19.600000381469727,295.20001220703125,19.600000381469727C295,19.299999237060547,294.70001220703125,19.200000762939453,294.3999938964844,19.100000381469727L294.3999938964844,19.100000381469727C292.8999938964844,17.799999237060547,291.20001220703125,16.700000762939453,289.3999938964844,15.600000381469727L289.3999938964844,15.600000381469727C287.70001220703125,10.800000190734863,286.70001220703125,10.800000190734863,285.8999938964844,10.699999809265137C285.20001220703125,10.699999809265137,284.3999938964844,11,284,12.100000381469727C284.20001220703125,12.600000381469727,284,12.899999618530273,283.79998779296875,13.199999809265137L283.79998779296875,13.199999809265137zM304.8999938964844,39.900001525878906C307.70001220703125,53.400001525878906,306.1000061035156,59.099998474121094,301.70001220703125,65.19999694824219C301.20001220703125,65,298.5,50.099998474121094,298.5,50.099998474121094C298.5,50.099998474121094,302.3999938964844,34.29999923706055,294.79998779296875,32.70000076293945C287.1000061035156,31.100000381469727,280.70001220703125,34.099998474121094,271.3999938964844,34.099998474121094C262.1000061035156,34.099998474121094,254.89999389648438,30.899999618530273,249.39999389648438,33.599998474121094C243.89999389648438,36.29999923706055,245,48.400001525878906,245.1999969482422,49.599998474121094C245.39999389648438,50.79999923706055,240.3000030517578,62.400001525878906,240.10000610351562,64.69999694824219C239.89999389648438,66.9000015258789,234.60000610351562,56.099998474121094,236.1999969482422,43.5L236.1999969482422,43.5C236,40.900001525878906,235.39999389648438,34.70000076293945,235.39999389648438,34.70000076293945C235.39999389648438,34.70000076293945,237.10000610351562,35,238.5,32.70000076293945C239.89999389648438,30.399999618530273,238.3000030517578,25.299999237060547,238.3000030517578,25.299999237060547C238.3000030517578,25.299999237060547,243.6999969482422,24.5,246.5,21.299999237060547L246.5,21.299999237060547L246.5,21.299999237060547C251.8000030517578,15.899999618530273,259.29998779296875,12.800000190734863,270.5,12.800000190734863C275.20001220703125,12.800000190734863,279.3999938964844,13.5,283,14.600000381469727L283,14.600000381469727C282.20001220703125,15.600000381469727,281.29998779296875,16.700000762939453,280.3999938964844,17.700000762939453L278.5,14.800000190734863C278,14.100000381469727,277.1000061035156,13.899999618530273,276.3999938964844,14.300000190734863C276.3999938964844,14.300000190734863,270.3999938964844,17.600000381469727,265.70001220703125,20.100000381469727C264.8999938964844,20.5,264.6000061035156,21.5,265.1000061035156,22.299999237060547C265.5,23.100000381469727,266.5,23.399999618530273,267.29998779296875,22.899999618530273C270.6000061035156,21.100000381469727,274.6000061035156,18.899999618530273,276.6000061035156,17.799999237060547L278.79998779296875,21.200000762939453C279.1000061035156,21.600000381469727,279.5,21.899999618530273,280,21.899999618530273C280.5,21.899999618530273,281,21.799999237060547,281.29998779296875,21.399999618530273C281.70001220703125,21,284.3999938964844,18.200000762939453,286.20001220703125,15.699999809265137L286.29998779296875,15.600000381469727C286.29998779296875,15.699999809265137,286.3999938964844,15.699999809265137,286.3999938964844,15.800000190734863C287.1000061035156,17.600000381469727,288,20.399999618530273,288.6000061035156,22.799999237060547C288.70001220703125,23.200000762939453,289,23.600000381469727,289.3999938964844,23.799999237060547C289.79998779296875,24,290.29998779296875,24,290.70001220703125,23.899999618530273L293.70001220703125,22.700000762939453C294.79998779296875,24.200000762939453,296.3999938964844,26.600000381469727,296.8999938964844,28.200000762939453C297.1000061035156,28.899999618530273,297.79998779296875,29.299999237060547,298.3999938964844,29.299999237060547C298.6000061035156,29.299999237060547,298.70001220703125,29.299999237060547,298.8999938964844,29.200000762939453C299.6000061035156,29,300.1000061035156,28.200000762939453,300,27.5C302.3999938964844,31.399999618530273,304,35.70000076293945,304.8999938964844,39.900001525878906z"/>
<path id="Taillight" fill="#FF5B3B" d="M40.29999923706055,231.39999389648438C37,236.6999969482422,34.29999923706055,244.6999969482422,32.900001525878906,248.5C34.20000076293945,248.60000610351562,37.79999923706055,249.6999969482422,39.5,249.6999969482422C44.099998474121094,249.6999969482422,49.79999923706055,247,52.29999923706055,245.60000610351562C55.400001525878906,243.89999389648438,54.900001525878906,227.8000030517578,53.599998474121094,214.8000030517578C50.5,218.39999389648438,43.099998474121094,226.8000030517578,40.29999923706055,231.39999389648438z"/>
<path id="CarBorder" d="M189,248.39999389648438C173.5,248.39999389648438,168.10000610351562,247.89999389648438,167.5,238.10000610351562C167.39999389648438,236.6999969482422,168.5,235.39999389648438,169.89999389648438,235.3000030517578C171.3000030517578,235.1999969482422,172.60000610351562,236.3000030517578,172.6999969482422,237.6999969482422C173,242.39999389648438,173.10000610351562,243.10000610351562,189,243.10000610351562C207.3000030517578,243.10000610351562,207.3000030517578,240.8000030517578,207.3000030517578,238C207.3000030517578,236.60000610351562,208.5,235.39999389648438,209.89999389648438,235.39999389648438C211.3000030517578,235.39999389648438,212.5,236.60000610351562,212.5,238C212.5,247.6999969482422,203.1999969482422,248.39999389648438,189,248.39999389648438zM509.29998779296875,274.79998779296875C509.29998779296875,267.70001220703125,506.8999938964844,261.29998779296875,502.8999938964844,257.70001220703125C500.5,258.3999938964844,497.8999938964844,259.29998779296875,495.20001220703125,260.20001220703125C492.3999938964844,261.1000061035156,489.3999938964844,262.1000061035156,486.3999938964844,263C484.70001220703125,266.5,483.79998779296875,270.5,483.79998779296875,274.79998779296875C483.79998779296875,283.20001220703125,487.20001220703125,290.70001220703125,492.29998779296875,293.5C496.1000061035156,292.8999938964844,499.8999938964844,292.20001220703125,503.6000061035156,291.20001220703125C507.20001220703125,287.5,509.29998779296875,281.3999938964844,509.29998779296875,274.79998779296875zM507.20001220703125,257.8999938964844L507.20001220703125,257.8999938964844C510.5,262.20001220703125,512.4000244140625,268.29998779296875,512.4000244140625,274.8999938964844C512.4000244140625,276.5,512.2999877929688,278,512.0999755859375,279.5L512.0999755859375,279.5L512.0999755859375,279.5C513.0999755859375,280,514.2000122070312,280.29998779296875,515.2999877929688,280.29998779296875C520.5999755859375,280.29998779296875,524.9000244140625,273.79998779296875,524.9000244140625,265.79998779296875C524.9000244140625,262.70001220703125,524.2000122070312,259.70001220703125,523,257.20001220703125C522.7999877929688,256.79998779296875,522.5999755859375,256.3999938964844,522.4000244140625,256.1000061035156C521.4000244140625,255.6999969482422,520.5,255.3000030517578,519.7000122070312,255C519,254.8000030517578,518.0999755859375,254.6999969482422,517.0999755859375,254.6999969482422C514.9000244140625,254.6999969482422,512.0999755859375,255.1999969482422,508.20001220703125,256.20001220703125C508,256.5,507.8999938964844,256.79998779296875,507.70001220703125,257.1000061035156L507.20001220703125,257.8999938964844zM482.1000061035156,265.1000061035156C472,268.1000061035156,461,270.6000061035156,450.1000061035156,271C451.5,277.3999938964844,456.79998779296875,293.3999938964844,476.29998779296875,293.79998779296875C479.79998779296875,293.8999938964844,483.3999938964844,293.70001220703125,487.1000061035156,293.29998779296875L487.1000061035156,293.29998779296875C483.1000061035156,289.1000061035156,480.6000061035156,282.20001220703125,480.6000061035156,274.70001220703125C480.6000061035156,271.3999938964844,481.1000061035156,268.1000061035156,482.1000061035156,265.1000061035156zM548.5999755859375,271.1000061035156L547.2999877929688,272.6000061035156C535.4000244140625,286.70001220703125,503.6000061035156,298.6000061035156,477.79998779296875,298.6000061035156C477.20001220703125,298.6000061035156,476.70001220703125,298.6000061035156,476.1000061035156,298.6000061035156C448.1000061035156,298.1000061035156,444.8999938964844,269.29998779296875,444.8999938964844,269L444.6000061035156,266.3999938964844L447.20001220703125,266.3999938964844C463.3999938964844,266.3999938964844,480.29998779296875,260.8999938964844,493.79998779296875,256.5C503.6000061035156,253.3000030517578,511.29998779296875,250.8000030517578,516.7999877929688,250.8000030517578C518.2999877929688,250.8000030517578,519.5,251,520.7000122070312,251.39999389648438C531.7999877929688,255.10000610351562,544.7000122070312,266.5,547.2999877929688,269.6000061035156L548.5999755859375,271.1000061035156zM527.0999755859375,259.5C527.7000122070312,261.5,528,263.70001220703125,528,265.8999938964844C528,275.6000061035156,522.2999877929688,283.5,515.2000122070312,283.5C513.9000244140625,283.5,512.5999755859375,283.20001220703125,511.3999938964844,282.70001220703125L511.3999938964844,282.70001220703125C510.79998779296875,285,510,287.1000061035156,509,289L509,289L509,289C522.7999877929688,284.79998779296875,535.2999877929688,278.29998779296875,542.2999877929688,271.1000061035156C539.5,268.20001220703125,533.5,263.20001220703125,527.0999755859375,259.5zM397.3999938964844,122.19999694824219C401,120.9000015258789,404.1000061035156,119.69999694824219,406.70001220703125,118.80000305175781C388.6000061035156,118.30000305175781,368.3999938964844,117.9000015258789,345.8999938964844,117.5999984741211C345.8999938964844,117.69999694824219,345.8999938964844,117.9000015258789,345.79998779296875,118L344.6000061035156,121.5999984741211C363.3999938964844,121.80000305175781,380.70001220703125,122.0999984741211,396.5,122.5C396.8999938964844,122.4000015258789,397.20001220703125,122.30000305175781,397.3999938964844,122.19999694824219zM303.1000061035156,199C234,198.8000030517578,129.39999389648438,199.39999389648438,128,199.39999389648438C109.5,199.39999389648438,104.5999984741211,196.8000030517578,103.69999694824219,194.60000610351562C102.30000305175781,191.1999969482422,108.9000015258789,184,114,178.89999389648438C139.8000030517578,153.10000610351562,192.39999389648438,121.5999984741211,219,121.0999984741211L233,121.0999984741211C233,119.80000305175781,233,118.4000015258789,233,117.0999984741211L218.89999389648438,117.0999984741211C218.60000610351562,117.0999984741211,218.39999389648438,117.0999984741211,218.10000610351562,117.0999984741211L218.10000610351562,117L218.10000610351562,116.19999694824219L218.10000610351562,116.19999694824219L218.10000610351562,116.19999694824219L215.6999969482422,116.19999694824219L213,116.19999694824219C190.6999969482422,116.19999694824219,163.3000030517578,123.4000015258789,147.8000030517578,133.39999389648438C134.1999969482422,140.1999969482422,61.20000076293945,193.60000610351562,44.400001525878906,217.10000610351562C14.800000190734863,254.5,10.5,334.5,21.100000381469727,356.3999938964844C23.399999618530273,361.1000061035156,26.299999237060547,363.5,29.899999618530273,363.5C30.899999618530273,363.5,31.799999237060547,363.6000061035156,32.5,363.6000061035156C33.20000076293945,363.6000061035156,33.900001525878906,363.70001220703125,34.5,363.70001220703125C36.099998474121094,363.70001220703125,38,363.5,40.20000076293945,362C42.5,360.3999938964844,42.599998474121094,357.20001220703125,42.70000076293945,352.3999938964844C42.79999923706055,346.79998779296875,43,338.3999938964844,46.5,328.5C53.29999923706055,309.20001220703125,69.4000015258789,286.20001220703125,107.30000305175781,286.20001220703125C126.5,286.20001220703125,141.8000030517578,291.79998779296875,152.8000030517578,303.1000061035156L152.8000030517578,303.1000061035156L154.1999969482422,304.6000061035156C175.10000610351562,327.6000061035156,172.5,364.6000061035156,172.5,365L172.3000030517578,368.20001220703125L210.10000610351562,368.20001220703125C298.20001220703125,368.20001220703125,320.29998779296875,369.20001220703125,320.5,369.29998779296875L324.1000061035156,369.5L323.6000061035156,365.8999938964844C323.6000061035156,365.5,319,329.29998779296875,338.79998779296875,306.6000061035156C349.3999938964844,294.5,365.20001220703125,288.3999938964844,385.70001220703125,288.3999938964844C406.70001220703125,288.3999938964844,423,294.6000061035156,434.29998779296875,306.79998779296875C454,328.20001220703125,451.70001220703125,361.3999938964844,451.70001220703125,361.79998779296875L451.6000061035156,362.5L451.8999938964844,363.1000061035156C452.70001220703125,365.1000061035156,454.5,365.1000061035156,457.29998779296875,365.1000061035156C461,365.1000061035156,469.70001220703125,364.79998779296875,490.3999938964844,363.29998779296875C526.9000244140625,360.70001220703125,567.2999877929688,335.1000061035156,579.5999755859375,321.5C591,308.8999938964844,601.4000244140625,297.20001220703125,612.5,280.5C618.4000244140625,271.6000061035156,623.9000244140625,253.60000610351562,622.9000244140625,233.3000030517578C622,216.10000610351562,616,191.39999389648438,592.7000122070312,171.3000030517578C566.4000244140625,147.60000610351562,523.9000244140625,126.4000015258789,496,123L494.20001220703125,122.80000305175781L494.20001220703125,122.80000305175781L493,122C481.29998779296875,113.5999984741211,440.70001220703125,85.19999694824219,409.3999938964844,73.80000305175781L408.70001220703125,73.5L408,73.5999984741211C385.1000061035156,75.4000015258789,341.8999938964844,95.30000305175781,308.3999938964844,117.5C307.3999938964844,118.19999694824219,306.3999938964844,118.80000305175781,305.5,119.5L305.5,119.5C294.1000061035156,127.30000305175781,283.8999938964844,135.3000030517578,276.3999938964844,142.8000030517578L273.70001220703125,145.5L276.70001220703125,147.89999389648438C283.8999938964844,153.8000030517578,305.79998779296875,170.5,323.8999938964844,184.3000030517578L319.8999938964844,184.3000030517578C311.29998779296875,184.1999969482422,304.20001220703125,190.6999969482422,303.1000061035156,199L303.1000061035156,199zM52.599998474121094,217.89999389648438C53.900001525878906,230.89999389648438,53.400001525878906,244,50.29999923706055,245.6999969482422C47.79999923706055,247.10000610351562,44,247.8000030517578,39.5,247.8000030517578C37.79999923706055,247.8000030517578,36.20000076293945,247.6999969482422,34.900001525878906,247.60000610351562C36.29999923706055,243.8000030517578,39,236.8000030517578,42.29999923706055,231.5C45.099998474121094,226.89999389648438,49.5,221.5,52.599998474121094,217.89999389648438zM600,187C602.5,190.6999969482422,605.7000122070312,196,608.5999755859375,201L606.7999877929688,205C604.0999755859375,198.39999389648438,601.5,191.6999969482422,600,187zM350.3999938964844,201.10000610351562C350.3999938964844,207.6999969482422,345,213,338.5,213L320,213C313.3999938964844,213,308.1000061035156,207.60000610351562,308.1000061035156,201.10000610351562C308.1000061035156,194.5,313.5,189.1999969482422,320,189.1999969482422L338.5,189.1999969482422C345,189.1999969482422,350.3999938964844,194.5,350.3999938964844,201.10000610351562zM355.70001220703125,203.5C355.79998779296875,203.5,355.79998779296875,203.5,355.8999938964844,203.5C356.3999938964844,203.5,405.5,202.39999389648438,468.79998779296875,217.1999969482422C502.29998779296875,225,519.2000122070312,238.8000030517578,519.4000244140625,238.89999389648438C519.7000122070312,239.1999969482422,520.0999755859375,239.3000030517578,520.5,239.3000030517578C521,239.3000030517578,521.5,239.10000610351562,521.7999877929688,238.6999969482422C522.4000244140625,238,522.2999877929688,236.89999389648438,521.5999755859375,236.3000030517578C520.9000244140625,235.6999969482422,503.8999938964844,221.89999389648438,469.6000061035156,213.89999389648438C417.3999938964844,201.6999969482422,374.79998779296875,200.1999969482422,360.70001220703125,200.10000610351562L360.70001220703125,200.10000610351562C383.70001220703125,184.1999969482422,465.20001220703125,129.39999389648438,491.20001220703125,128.1999969482422L500.79998779296875,127.80000305175781C527.7000122070312,132.89999389648438,566.5999755859375,153.10000610351562,590.0999755859375,174.3000030517578C592,175.89999389648438,593.7999877929688,177.60000610351562,595.5999755859375,179.39999389648438L595.5999755859375,179.39999389648438C595.5,179.5,595.4000244140625,179.5,595.4000244140625,179.60000610351562C594.7000122070312,180.5,593.5,181.89999389648438,605.0999755859375,210.1999969482422L606.5999755859375,213.89999389648438L611.7000122070312,202.6999969482422L611.7000122070312,202.6999969482422C625,231.89999389648438,618.2000122070312,265,609.2999877929688,278.29998779296875C598.2999877929688,294.70001220703125,588.0999755859375,306.3999938964844,576.7999877929688,318.79998779296875C564.7999877929688,332,525.7000122070312,356.70001220703125,490.20001220703125,359.29998779296875C469.70001220703125,360.79998779296875,461,361.1000061035156,457.3999938964844,361.1000061035156C456.70001220703125,361.1000061035156,456.20001220703125,361.1000061035156,455.8999938964844,361.1000061035156C456.1000061035156,355.29998779296875,456.5,324.70001220703125,437.3999938964844,304.1000061035156C425.3999938964844,291,408,284.3999938964844,385.79998779296875,284.3999938964844C364.1000061035156,284.3999938964844,347.29998779296875,291,335.8999938964844,304C317,325.6000061035156,319,358.6000061035156,319.6000061035156,365.20001220703125C314,365,287.29998779296875,364.20001220703125,210.1999969482422,364.20001220703125L176.6999969482422,364.20001220703125C176.8000030517578,361.79998779296875,176.89999389648438,355.70001220703125,176,347.79998779296875L176,347.79998779296875L305.70001220703125,348.8999938964844L305.70001220703125,345.3999938964844L175.6999969482422,344.29998779296875L175.5,344.29998779296875C175.10000610351562,341.79998779296875,174.6999969482422,339.1000061035156,174,336.29998779296875L174,336.29998779296875L304.6000061035156,336.29998779296875L304.70001220703125,333.8999938964844C304.8999938964844,329.3999938964844,306.5,316.6000061035156,312,311.1000061035156L308.5,307.6000061035156C302.20001220703125,313.8999938964844,300.3999938964844,326.1000061035156,299.8999938964844,331.29998779296875L173.3000030517578,331.29998779296875L172.8000030517578,331.29998779296875C170.10000610351562,321.70001220703125,165.6999969482422,311.5,158.3000030517578,303L158.1999969482422,303C157.60000610351562,292.20001220703125,156.60000610351562,281.20001220703125,155.8000030517578,270.5C153.1999969482422,239.3000030517578,150.8000030517578,209.89999389648438,156.89999389648438,203.3000030517578L156.89999389648438,203.3000030517578L156.89999389648438,203.3000030517578C193.1999969482422,203.10000610351562,256.20001220703125,202.89999389648438,303,203L303,203.10000610351562C304,211.5,311.20001220703125,218,319.79998779296875,218L338.29998779296875,218C346.70001220703125,218,353.70001220703125,211.89999389648438,355,203.8000030517578L355,203.8000030517578C355.29998779296875,203.8000030517578,355.5,203.60000610351562,355.70001220703125,203.5zM111.19999694824219,176.10000610351562C102.9000015258789,184.39999389648438,97.9000015258789,190.89999389648438,100.0999984741211,196.1999969482422C102.19999694824219,201.3000030517578,110.5999984741211,203.5,128.10000610351562,203.5C128.5,203.5,138,203.39999389648438,152.89999389648438,203.39999389648438C147.6999969482422,213.39999389648438,149.89999389648438,239.10000610351562,152.5,270.8999938964844C153.3000030517578,280.20001220703125,154.10000610351562,289.70001220703125,154.6999969482422,299.1000061035156L154.6999969482422,299.1000061035156C143,287.8999938964844,127.19999694824219,282.20001220703125,107.5,282.20001220703125C67.19999694824219,282.20001220703125,50.099998474121094,306.70001220703125,42.900001525878906,327.20001220703125C39.20000076293945,337.70001220703125,39,346.5,38.900001525878906,352.29998779296875C38.79999923706055,355.20001220703125,38.79999923706055,358.20001220703125,38.099998474121094,358.70001220703125C36.29999923706055,359.8999938964844,35,359.79998779296875,32.900001525878906,359.70001220703125C32.099998474121094,359.70001220703125,31.200000762939453,359.6000061035156,30.100000381469727,359.6000061035156C28.700000762939453,359.6000061035156,27.399999618530273,358.70001220703125,26.200000762939453,357.1000061035156C16.899999618530273,344.20001220703125,17.299999237060547,292.29998779296875,30.899999618530273,252.39999389648438L30.899999618530273,252.3000030517578L31.100000381469727,252.3000030517578C31.299999237060547,252.3000030517578,34.900001525878906,253,39.5,253C45,253,49.400001525878906,252.10000610351562,52.70000076293945,250.1999969482422C61,245.60000610351562,58,219.6999969482422,56.79999923706055,211.8000030517578L56.5,209.5L57,209C82.4000015258789,183.5,139.1999969482422,142.1999969482422,149.6999969482422,137.10000610351562L149.8000030517578,137C161.10000610351562,129.60000610351562,180.1999969482422,123.5,198.60000610351562,121.30000305175781L198.8000030517578,121.30000305175781C168.8000030517578,131.10000610351562,129.8000030517578,157.5,111.19999694824219,176.10000610351562zM354.5,195.8000030517578L354.5,195.8000030517578C352.29998779296875,189,345.8999938964844,184.10000610351562,338.3999938964844,184.10000610351562L335.3999938964844,184.10000610351562C318.3999938964844,171.1999969482422,294.6000061035156,153.10000610351562,284.1000061035156,144.8000030517578C313.79998779296875,117,378.6000061035156,83.0999984741211,407.79998779296875,80.4000015258789C433.5,89.9000015258789,465.79998779296875,111.19999694824219,482,122.5C465.8999938964844,121.0999984741211,445.29998779296875,120,419.79998779296875,119.19999694824219C420.8999938964844,120.19999694824219,422,121.30000305175781,422.8999938964844,122.30000305175781L423.3999938964844,122.9000015258789C423.5,123,423.70001220703125,123.19999694824219,423.79998779296875,123.30000305175781C443,124,459.3999938964844,124.80000305175781,473,125.80000305175781L473,125.80000305175781C435.70001220703125,140.3000030517578,371.3999938964844,184.10000610351562,354.5,195.8000030517578z"/>
<path id="Windsheild" opacity="0.5" fill="#D7E9FF" enable-background="new    " d="M407.8999938964844,80.4000015258789C378.70001220703125,83.0999984741211,313.8999938964844,117,284.20001220703125,144.8000030517578C294.70001220703125,153.10000610351562,318.3999938964844,171.1999969482422,335.5,184.10000610351562L338.5,184.10000610351562C346,184.10000610351562,352.3999938964844,189,354.6000061035156,195.8000030517578C372.8999938964844,183.10000610351562,447.5,132.1999969482422,482.3999938964844,122.69999694824219C466.29998779296875,111.5,433.79998779296875,90,407.8999938964844,80.4000015258789z"/>
<path id="Vents" fill="#1C66D1" d="M618.4000244140625,226.8000030517578C618.4000244140625,226.8000030517578,618.4000244140625,243,617.5999755859375,246.89999389648438C616.7999877929688,250.8000030517578,617.5999755859375,258.5,593.7000122070312,284.70001220703125C584.5,293,576.5,300.1000061035156,569.0999755859375,306.1000061035156L568.5,279.3999938964844C569.2000122070312,278.79998779296875,569.7999877929688,278.29998779296875,570.5,277.70001220703125C611.5,240.6999969482422,611.5,233.8000030517578,618.4000244140625,226.8000030517578zM484.8999938964844,317.1000061035156C474.1000061035156,317.1000061035156,475.6000061035156,338.70001220703125,484.8999938964844,338.70001220703125C514.2000122070312,338.70001220703125,531.5,334.79998779296875,559.7999877929688,313.5C560.2999877929688,306.5,561.2000122070312,295.6000061035156,562,285C540.9000244140625,302.70001220703125,521,317.1000061035156,484.8999938964844,317.1000061035156zM561.2000122070312,262.70001220703125C570.7000122070312,256.1000061035156,594.7999877929688,235.39999389648438,600,222.60000610351562C605.2000122070312,209.8000030517578,593.0999755859375,193.5,593.0999755859375,193.5C593.0999755859375,193.5,542.7000122070312,237.60000610351562,528.5,245.89999389648438C528.5,246,551.7000122070312,269.29998779296875,561.2000122070312,262.70001220703125z"/>
</g>
</svg>