<svg xmlns="http://www.w3.org/2000/svg" xmlns:xlink="http://www.w3.org/1999/xlink" viewBox= "0 0 638 416" width="638px" height="416px">
<g xmlns="http://www.w3.org/2000/svg" id="Car2V2.svg">
<path fill="#AF3922" d="M35.900001525878906,358.29998779296875L475.8999938964844,358.70001220703125L475.20001220703125,254.6999969482422L39.79999923706055,251.39999389648438L35.900001525878906,358.29998779296875z"/>
<path id="TiresBorder" fill="#4F4F4F" d="M163.3000030517578,348.79998779296875C163.3000030517578,379.79998779296875,138.1999969482422,404.8999938964844,107.19999694824219,404.8999938964844C76.19999694824219,404.8999938964844,51.099998474121094,379.79998779296875,51.099998474121094,348.79998779296875C51.099998474121094,317.79998779296875,76.19999694824219,292.70001220703125,107.19999694824219,292.70001220703125C138.10000610351562,292.70001220703125,163.3000030517578,317.79998779296875,163.3000030517578,348.79998779296875zM387.1000061035156,292.70001220703125C356.1000061035156,292.70001220703125,331,317.79998779296875,331,348.79998779296875C331,379.79998779296875,356.1000061035156,404.8999938964844,387.1000061035156,404.8999938964844C418.1000061035156,404.8999938964844,443.20001220703125,379.79998779296875,443.20001220703125,348.79998779296875C443.29998779296875,317.79998779296875,418.1000061035156,292.70001220703125,387.1000061035156,292.70001220703125z"/>
<path id="Tires" fill="#ADADAD" d="M147.60000610351562,348.79998779296875C147.60000610351562,371.1000061035156,129.5,389.20001220703125,107.19999694824219,389.20001220703125C84.9000015258789,389.20001220703125,66.80000305175781,371.1000061035156,66.80000305175781,348.79998779296875C66.80000305175781,326.5,84.9000015258789,308.3999938964844,107.19999694824219,308.3999938964844S147.60000610351562,326.5,147.60000610351562,348.79998779296875zM387.1000061035156,308.3999938964844C364.79998779296875,308.3999938964844,346.70001220703125,326.5,346.70001220703125,348.79998779296875C346.70001220703125,371.1000061035156,364.79998779296875,389.20001220703125,387.1000061035156,389.20001220703125C409.3999938964844,389.20001220703125,427.5,371.1000061035156,427.5,348.79998779296875C427.6000061035156,326.5,409.5,308.3999938964844,387.1000061035156,308.3999938964844z"/>
<path id="Rims" fill="#DDDDDD" d="M142,355.5C144.60000610351562,353.79998779296875,144.39999389648438,343.5,142,342C141.10000610351562,342.1000061035156,127,343.6000061035156,117,344.6000061035156L116.9000015258789,344.70001220703125C124.80000305175781,338.29998779296875,136,329.29998779296875,136.5,328.79998779296875C137.10000610351562,325.79998779296875,129.6999969482422,318.70001220703125,127,319.29998779296875C126.4000015258789,320,117.5999984741211,331,111.30000305175781,338.79998779296875L111.19999694824219,338.8999938964844C112.30000305175781,328.79998779296875,113.80000305175781,314.70001220703125,113.80000305175781,313.8999938964844C112.0999984741211,311.29998779296875,101.80000305175781,311.5,100.30000305175781,313.8999938964844C100.4000015258789,314.79998779296875,101.9000015258789,328.8999938964844,102.9000015258789,338.8999938964844L102.80000305175781,338.79998779296875C96.4000015258789,331,87.5999984741211,320,87.0999984741211,319.3999938964844C84.0999984741211,318.79998779296875,77,326.20001220703125,77.5999984741211,328.8999938964844C78.30000305175781,329.5,89.30000305175781,338.3999938964844,97.0999984741211,344.70001220703125L97.0999984741211,344.70001220703125C87.0999984741211,343.6000061035156,72.9000015258789,342.1000061035156,72.0999984741211,342.1000061035156C69.5,343.79998779296875,69.69999694824219,354,72.0999984741211,355.6000061035156C73,355.5,87.0999984741211,354,97.0999984741211,353L96.4000015258789,353.5C88.5999984741211,359.79998779296875,78.0999984741211,368.29998779296875,77.5999984741211,368.79998779296875C77,371.79998779296875,84.4000015258789,378.8999938964844,87.0999984741211,378.29998779296875C87.69999694824219,377.6000061035156,96.5999984741211,366.6000061035156,102.9000015258789,358.79998779296875L102.9000015258789,358.79998779296875C101.80000305175781,368.8999938964844,100.30000305175781,383,100.30000305175781,383.79998779296875C102,386.3999938964844,112.30000305175781,386.20001220703125,113.80000305175781,383.79998779296875C113.69999694824219,382.8999938964844,112.19999694824219,368.79998779296875,111.19999694824219,358.79998779296875L111.19999694824219,358.79998779296875L111.19999694824219,358.79998779296875C117.5999984741211,366.70001220703125,126.5,377.70001220703125,127,378.29998779296875C130,378.8999938964844,137.10000610351562,371.5,136.5,368.79998779296875C135.8000030517578,368.20001220703125,124.80000305175781,359.29998779296875,117,353L142,355.5zM114.5999984741211,348.79998779296875C114.5999984741211,352.8999938964844,111.30000305175781,356.29998779296875,107.0999984741211,356.29998779296875C103,356.29998779296875,99.5999984741211,353,99.5999984741211,348.79998779296875C99.5999984741211,344.6000061035156,102.9000015258789,341.29998779296875,107.0999984741211,341.29998779296875C111.30000305175781,341.29998779296875,114.5999984741211,344.70001220703125,114.5999984741211,348.79998779296875zM422,342.1000061035156C421.1000061035156,342.20001220703125,407,343.70001220703125,397,344.70001220703125C397,344.70001220703125,416,329.3999938964844,416.5,328.8999938964844C417.1000061035156,325.8999938964844,409.70001220703125,318.79998779296875,407,319.3999938964844C406.3999938964844,320.1000061035156,397.5,331.1000061035156,391.20001220703125,338.8999938964844L391.20001220703125,338.8999938964844L391.20001220703125,338.8999938964844C391.20001220703125,338.8999938964844,391.20001220703125,338.8999938964844,391.20001220703125,338.79998779296875C392.29998779296875,328.70001220703125,393.79998779296875,314.6000061035156,393.79998779296875,313.79998779296875C392.1000061035156,311.20001220703125,381.79998779296875,311.3999938964844,380.29998779296875,313.79998779296875C380.3999938964844,314.70001220703125,381.8999938964844,328.79998779296875,382.8999938964844,338.79998779296875C382.8999938964844,338.79998779296875,367.5,319.79998779296875,367.1000061035156,319.29998779296875C364.1000061035156,318.70001220703125,357,326.1000061035156,357.6000061035156,328.79998779296875C358.29998779296875,329.3999938964844,369.29998779296875,338.29998779296875,377.1000061035156,344.6000061035156L377.1000061035156,344.6000061035156C367,343.5,352.8999938964844,342,352.1000061035156,342C349.5,343.70001220703125,349.70001220703125,354,352.1000061035156,355.5C353,355.3999938964844,367.1000061035156,353.8999938964844,377.1000061035156,352.8999938964844L357.6000061035156,368.70001220703125C357,371.70001220703125,364.3999938964844,378.79998779296875,367.1000061035156,378.20001220703125C367.70001220703125,377.5,376.6000061035156,366.5,382.8999938964844,358.70001220703125L382.8999938964844,358.70001220703125C381.79998779296875,368.79998779296875,380.29998779296875,382.8999938964844,380.29998779296875,383.70001220703125C382,386.29998779296875,392.20001220703125,386.1000061035156,393.79998779296875,383.70001220703125C393.70001220703125,382.79998779296875,392.20001220703125,368.70001220703125,391.20001220703125,358.70001220703125L391.20001220703125,358.70001220703125L391.20001220703125,358.70001220703125C397.6000061035156,366.6000061035156,406.5,377.6000061035156,407,378.20001220703125C410,378.79998779296875,417.1000061035156,371.3999938964844,416.5,368.70001220703125C415.79998779296875,368.1000061035156,404.79998779296875,359.20001220703125,397,352.8999938964844C397,352.8999938964844,421.29998779296875,355.5,422,355.5C424.6000061035156,353.8999938964844,424.3999938964844,343.6000061035156,422,342.1000061035156zM387.1000061035156,356.29998779296875C383,356.29998779296875,379.6000061035156,353,379.6000061035156,348.79998779296875C379.6000061035156,344.70001220703125,382.8999938964844,341.29998779296875,387.1000061035156,341.29998779296875C391.20001220703125,341.29998779296875,394.6000061035156,344.6000061035156,394.6000061035156,348.79998779296875S391.29998779296875,356.29998779296875,387.1000061035156,356.29998779296875z"/>
<path id="Car" fill="#FF603B" d="M321.8999938964844,367.20001220703125L320.70001220703125,367.1000061035156C320.5,367.1000061035156,298,366,210.1999969482422,366L174.60000610351562,366L174.6999969482422,364.8999938964844C174.6999969482422,364.5,177.3000030517578,327.8999938964844,156.89999389648438,304.20001220703125L154,301.1000061035156C142.6999969482422,289.79998779296875,127,284,107.4000015258789,284C68.30000305175781,284,51.70000076293945,307.79998779296875,44.70000076293945,327.70001220703125C41.099998474121094,337.79998779296875,40.900001525878906,346.5,40.79999923706055,352.20001220703125C40.70000076293945,356.5,40.70000076293945,359.20001220703125,39.20000076293945,360.20001220703125C37.400001525878906,361.3999938964844,36,361.6000061035156,34.599998474121094,361.6000061035156C34,361.6000061035156,33.400001525878906,361.6000061035156,32.79999923706055,361.5C32,361.5,31.100000381469727,361.3999938964844,30.100000381469727,361.3999938964844C28,361.3999938964844,26.200000762939453,360.29998779296875,24.600000381469727,358C15.100000381469727,344.70001220703125,15.300000190734863,291.8999938964844,29,251.5L29.299999237060547,250.6999969482422L31.299999237060547,251.10000610351562C31.700000762939453,251.1999969482422,35.20000076293945,251.8000030517578,39.5,251.8000030517578C44.79999923706055,251.8000030517578,49.099998474121094,250.89999389648438,52.29999923706055,249.1999969482422C58.5,245.8000030517578,58.20000076293945,227.6999969482422,55.900001525878906,211.8000030517578L55.29999923706055,207.8000030517578L55.70000076293945,207.39999389648438C81.19999694824219,181.8000030517578,138.10000610351562,140.39999389648438,148.89999389648438,135.10000610351562C162.1999969482422,126.5,185.10000610351562,119.69999694824219,205.89999389648438,118.4000015258789L205.89999389648438,118.4000015258789C206.1999969482422,118.4000015258789,206.60000610351562,118.4000015258789,207.1999969482422,118.4000015258789C218.8000030517578,118.4000015258789,310.6000061035156,118.5,311.5,118.5C405.8999938964844,119,460.5,120.80000305175781,494.20001220703125,124.5999984741211L499.6000061035156,125.30000305175781C526.9000244140625,130,567.2000122070312,150.6999969482422,591.5,172.5C593.5,174.1999969482422,595.4000244140625,176,597.2999877929688,178L598.5999755859375,179.39999389648438L596.7000122070312,179.6999969482422C596.5,179.6999969482422,596.2999877929688,179.8000030517578,596.0999755859375,180C595.0999755859375,181.1999969482422,598.4000244140625,191.1999969482422,605.9000244140625,209.60000610351562L606.5,211.1999969482422L612.0999755859375,198.89999389648438L613,200.89999389648438C627.0999755859375,231,620,265.5,610.9000244140625,279.20001220703125C599.9000244140625,295.70001220703125,589.5999755859375,307.3999938964844,578.2000122070312,319.8999938964844C566,333.29998779296875,526.2999877929688,358.5,490.29998779296875,361.1000061035156C469.70001220703125,362.6000061035156,461,362.8999938964844,457.29998779296875,362.8999938964844C454.5,362.8999938964844,454,362.79998779296875,453.79998779296875,362.1000061035156L453.70001220703125,361.8999938964844L453.70001220703125,361.70001220703125C453.70001220703125,361.3999938964844,456.20001220703125,327.29998779296875,435.79998779296875,305.20001220703125C424.1000061035156,292.6000061035156,407.29998779296875,286.20001220703125,385.70001220703125,286.20001220703125C364.6000061035156,286.20001220703125,348.29998779296875,292.6000061035156,337.29998779296875,305.1000061035156C316.8999938964844,328.3999938964844,321.5,365.6000061035156,321.6000061035156,365.8999938964844L321.8999938964844,367.20001220703125z"/>
<path id="Back" fill="#8E341C" d="M226.1999969482422,119.4000015258789C226.1999969482422,118.9000015258789,226,118.4000015258789,225.60000610351562,118C225.1999969482422,117.5999984741211,224.6999969482422,117.4000015258789,224.1999969482422,117.5C224.1999969482422,117.5,220.89999389648438,117.5999984741211,219,117.5999984741211C188.8000030517578,118.0999984741211,135.3000030517578,152.6999969482422,111.69999694824219,176.39999389648438C103.0999984741211,185,100.0999984741211,191.10000610351562,102,195.8000030517578C104.5,201.8000030517578,114.5,202.60000610351562,122.9000015258789,202.60000610351562C124.9000015258789,202.60000610351562,126.9000015258789,202.60000610351562,128.5,202.5C136.6999969482422,202.3000030517578,145.5,202,153.89999389648438,201.8000030517578L153.89999389648438,201.8000030517578C154.10000610351562,201.8000030517578,154.3000030517578,201.8000030517578,154.5,201.8000030517578C175.3000030517578,201.1999969482422,193.60000610351562,200.6999969482422,193.60000610351562,200.6999969482422C194.10000610351562,200.6999969482422,194.5,200.5,194.8000030517578,200.1999969482422L226.8000030517578,173.1999969482422C227.3000030517578,172.8000030517578,227.5,172.1999969482422,227.5,171.60000610351562L226.1999969482422,119.4000015258789z"/>
<path id="Chair" fill="#1C4A8C" d="M140.5,199.8000030517578C140.5,169.6999969482422,155.3000030517578,153.6999969482422,176.60000610351562,147.6999969482422C197.89999389648438,141.6999969482422,212.3000030517578,169,212.3000030517578,169C212.3000030517578,169,204.8000030517578,135.60000610351562,233.60000610351562,121C262.3999938964844,106.4000015258789,274,126.0999984741211,279.29998779296875,132.60000610351562C285.1000061035156,147.60000610351562,288.8999938964844,174.1999969482422,294.70001220703125,199.8000030517578"/>
<path id="ChairBorder" d="M294.70001220703125,202.3000030517578C293.1000061035156,202.3000030517578,291.70001220703125,202.1999969482422,291.29998779296875,200.60000610351562C289.3999938964844,192,287.70001220703125,183.39999389648438,286,175C282.8999938964844,159.10000610351562,279.8999938964844,144.10000610351562,276.20001220703125,134.39999389648438C275.79998779296875,134,275.5,133.5,275.1000061035156,132.89999389648438C269.1000061035156,125.0999984741211,259,111.9000015258789,235.1999969482422,124.0999984741211C209.1999969482422,137.39999389648438,215.6999969482422,168,215.6999969482422,168.3000030517578C216.10000610351562,170,215.10000610351562,171.6999969482422,213.5,172.3000030517578C211.89999389648438,172.89999389648438,210,172.1999969482422,209.1999969482422,170.6999969482422C209.10000610351562,170.5,195.89999389648438,145.89999389648438,177.5,151.10000610351562C155.1999969482422,157.39999389648438,143.89999389648438,173.8000030517578,143.89999389648438,199.89999389648438C143.89999389648438,201.8000030517578,142.3000030517578,203.39999389648438,140.39999389648438,203.39999389648438C138.5,203.39999389648438,136.89999389648438,201.8000030517578,136.89999389648438,199.89999389648438C136.89999389648438,163.10000610351562,157.89999389648438,149.39999389648438,175.60000610351562,144.39999389648438C189.89999389648438,140.39999389648438,201.1999969482422,149.1999969482422,208,157C208.5,145,212.89999389648438,127.5999984741211,231.89999389648438,117.9000015258789C260.79998779296875,103.0999984741211,274.6000061035156,121,280.5,128.6999969482422C281,129.39999389648438,281.5,129.89999389648438,281.8999938964844,130.5C282.1000061035156,130.8000030517578,282.29998779296875,131.10000610351562,282.5,131.39999389648438C286.5,141.6999969482422,289.5,157.1999969482422,292.79998779296875,173.6999969482422C294.3999938964844,182,296.20001220703125,190.60000610351562,298.1000061035156,199.10000610351562C298.5,201,297.29998779296875,201.8000030517578,295.5,202.1999969482422C295.20001220703125,202.3000030517578,295,202.3000030517578,294.70001220703125,202.3000030517578z"/>
<path id="Steeringwheel" fill="#212121" d="M426.1000061035156,136.89999389648438C424.70001220703125,134.89999389648438,422.1000061035156,132.60000610351562,417.3999938964844,132.60000610351562C413.1000061035156,132.60000610351562,407.79998779296875,134.5,401.3999938964844,138.60000610351562C386.29998779296875,148,373.20001220703125,173,371.79998779296875,188.3000030517578C374.70001220703125,186.39999389648438,377.79998779296875,184.3000030517578,381.1000061035156,182.10000610351562C384.70001220703125,169.60000610351562,394.70001220703125,152.10000610351562,405.6000061035156,145.39999389648438C412,141.5,415.5,140.60000610351562,417.3999938964844,140.60000610351562C419,140.60000610351562,419.3999938964844,141.1999969482422,419.6000061035156,141.5C420.8999938964844,143.3000030517578,421,148.8000030517578,418.20001220703125,156.39999389648438C418.1000061035156,156.6999969482422,417.6000061035156,157.8000030517578,416.70001220703125,159.5C420.29998779296875,157.3000030517578,423.8999938964844,155.10000610351562,427.5,153C428.70001220703125,147.60000610351562,429.1000061035156,141.3000030517578,426.1000061035156,136.89999389648438z"/>
<path id="Body" fill="#FADBBD" d="M414.20001220703125,117.9000015258789C411.29998779296875,118.0999984741211,392,125.80000305175781,389.79998779296875,126.30000305175781C387.6000061035156,126.80000305175781,357.70001220703125,127.69999694824219,351,126.5C344.29998779296875,125.4000015258789,329.3999938964844,113.30000305175781,305.6000061035156,105.0999984741211L307.8999938964844,127.69999694824219C307.8999938964844,127.69999694824219,348.70001220703125,145.39999389648438,355,143.89999389648438C361.29998779296875,142.39999389648438,389.3999938964844,138.6999969482422,389.3999938964844,138.6999969482422C391,138.5,399.3999938964844,139.6999969482422,400.5,138.89999389648438C401.6000061035156,138.10000610351562,407.20001220703125,133.3000030517578,408.79998779296875,132.8000030517578C410.3999938964844,132.3000030517578,412.20001220703125,130.8000030517578,414.20001220703125,134C415.70001220703125,136.60000610351562,413.5,139.5,412.6000061035156,140C411.70001220703125,140.5,409.20001220703125,140.60000610351562,408.79998779296875,142.3000030517578C408.3999938964844,143.6999969482422,412.29998779296875,143.8000030517578,418.1000061035156,142.5C423.8999938964844,141.1999969482422,427.3999938964844,134.39999389648438,427.8999938964844,133C429,130.39999389648438,424.70001220703125,125.9000015258789,422.3999938964844,123.5C420.20001220703125,121.19999694824219,417.1000061035156,117.69999694824219,414.20001220703125,117.9000015258789zM271.1000061035156,100.4000015258789C276.29998779296875,100.4000015258789,281.8999938964844,98,286.8999938964844,94.19999694824219C287.29998779296875,95.5999984741211,287.70001220703125,96.80000305175781,288.20001220703125,97.9000015258789C289.6000061035156,101.30000305175781,297.70001220703125,100.19999694824219,300,100C302.29998779296875,99.80000305175781,309.3999938964844,124.19999694824219,293.20001220703125,132.3000030517578C277,140.39999389648438,235.5,115.69999694824219,240.39999389648438,113.69999694824219C245.1999969482422,111.69999694824219,253.3000030517578,110.5,254.10000610351562,109C255,107.5,258.6000061035156,99,255.39999389648438,94.0999984741211C255.39999389648438,94.0999984741211,255.5,94.0999984741211,255.5,94C260.3999938964844,97.9000015258789,265.8999938964844,100.4000015258789,271.1000061035156,100.4000015258789zM369.6000061035156,184.60000610351562C371.1000061035156,185.3000030517578,373.20001220703125,185.6999969482422,375.29998779296875,185.89999389648438C379.8999938964844,182.8000030517578,385,179.5,390.3999938964844,176C390.6000061035156,173.5,389.5,172,389.5,172C389.5,172,390.70001220703125,171.10000610351562,390.79998779296875,168.39999389648438C390.8999938964844,165.60000610351562,388.5,164.6999969482422,388.5,164.6999969482422C388.5,164.6999969482422,390.1000061035156,164.5,390.29998779296875,161.8000030517578C390.3999938964844,159.1999969482422,388.5,158.1999969482422,384.8999938964844,158.10000610351562C381.29998779296875,157.89999389648438,378.70001220703125,157.10000610351562,371.5,158.89999389648438C368.6000061035156,159.60000610351562,367.1000061035156,161.10000610351562,366.29998779296875,162.8000030517578L366.29998779296875,162.8000030517578C363.70001220703125,164.60000610351562,360,166.60000610351562,356.3999938964844,166.8000030517578C339.29998779296875,167.6999969482422,313.20001220703125,170.60000610351562,310.20001220703125,169.8000030517578C306.1000061035156,168.6999969482422,256.29998779296875,124.0999984741211,246.8000030517578,122.30000305175781C237.3000030517578,120.5,239.3000030517578,141.1999969482422,243.39999389648438,147.89999389648438C247.5,154.6999969482422,300,188.39999389648438,307.5,189C308.70001220703125,189.10000610351562,310.29998779296875,189.10000610351562,312.20001220703125,189C314.3999938964844,187.60000610351562,317.1000061035156,186.6999969482422,320,186.6999969482422L333.1000061035156,186.6999969482422C341.20001220703125,185.60000610351562,349.79998779296875,184.5,357.29998779296875,183.60000610351562C361.3999938964844,183.10000610351562,366.5,183.89999389648438,369.6000061035156,184.60000610351562L369.6000061035156,184.60000610351562z"/>
<path id="face" fill="#FFFDFD" d="M299.70001220703125,77.80000305175781L299.70001220703125,77.80000305175781C299.6000061035156,77.9000015258789,299.6000061035156,77.9000015258789,299.70001220703125,77.80000305175781L299.70001220703125,77.80000305175781C300.20001220703125,77.0999984741211,303.3999938964844,65.19999694824219,303.8999938964844,62C303.8999938964844,61.79999923706055,303.8999938964844,61.5,303.8999938964844,61.20000076293945L303.8999938964844,61.20000076293945L303.8999938964844,61.20000076293945C304,59.599998474121094,304.1000061035156,57.900001525878906,304.1000061035156,56.099998474121094C304.1000061035156,55.29999923706055,304.1000061035156,54.5,304.1000061035156,53.70000076293945C303.20001220703125,26.600000381469727,288.79998779296875,16,271.1000061035156,16C252.8000030517578,16,238,26,238,56.400001525878906C238,56.5,238,56.599998474121094,238,56.70000076293945C238,57.400001525878906,238,58,238,58.70000076293945C238,58.79999923706055,238,58.79999923706055,238,58.900001525878906C238,59.70000076293945,238.10000610351562,60.599998474121094,238.10000610351562,61.400001525878906L238.10000610351562,61.400001525878906C238.10000610351562,61.70000076293945,238.10000610351562,62.099998474121094,238.1999969482422,62.400001525878906C238.8000030517578,66,242.10000610351562,78.0999984741211,242.3000030517578,77.9000015258789L242.3000030517578,77.9000015258789C242.39999389648438,78,242.39999389648438,78.0999984741211,242.5,78.19999694824219C245.60000610351562,84.19999694824219,250.39999389648438,90,255.6999969482422,94.0999984741211L255.6999969482422,94.0999984741211L255.6999969482422,94.0999984741211L255.6999969482422,94.0999984741211L255.6999969482422,94.0999984741211L255.6999969482422,94.0999984741211L255.6999969482422,94.0999984741211C255.60000610351562,94.0999984741211,255.60000610351562,94.19999694824219,255.5,94.19999694824219C260.5,98.0999984741211,266,100.5999984741211,271.1000061035156,100.5999984741211C276.29998779296875,100.5999984741211,281.8999938964844,98.19999694824219,286.8999938964844,94.4000015258789C286.8999938964844,94.30000305175781,286.8999938964844,94.30000305175781,286.79998779296875,94.19999694824219C292,89.9000015258789,296.70001220703125,84.19999694824219,299.70001220703125,77.80000305175781z"/>
<path id="Shirt" fill="#5AECFF" d="M307.5,188.89999389648438C300,188.3000030517578,247.5,154.60000610351562,243.39999389648438,147.8000030517578C239.3000030517578,141,237.3000030517578,120.4000015258789,246.8000030517578,122.19999694824219C256.29998779296875,124,306.1000061035156,168.60000610351562,310.20001220703125,169.6999969482422C310.8999938964844,169.89999389648438,313,169.89999389648438,315.8999938964844,169.6999969482422C318.1000061035156,156.39999389648438,319.5,144.5,311.3999938964844,132.8000030517578C307.1000061035156,121.5999984741211,309.70001220703125,102.5,309.70001220703125,102.5C305.8999938964844,99.9000015258789,299.1000061035156,98,295.70001220703125,98.5C292.6000061035156,99.0999984741211,293.79998779296875,123.5999984741211,293.79998779296875,123.5999984741211L271.6000061035156,129.60000610351562L250.10000610351562,108.5C233.5,113.80000305175781,231.3000030517578,124.30000305175781,232,137C232.6999969482422,149.6999969482422,234.60000610351562,168.5,236.39999389648438,180.3000030517578C237.1999969482422,185.5,238.10000610351562,192.39999389648438,238.89999389648438,198.89999389648438C248.1999969482422,198.89999389648438,257.3999938964844,198.89999389648438,266.29998779296875,198.89999389648438L276.29998779296875,198.89999389648438C285.3999938964844,198.89999389648438,293.3999938964844,198.89999389648438,300.3999938964844,198.89999389648438C300.3999938964844,198.89999389648438,305.6000061035156,199,305.6000061035156,198.89999389648438C306.29998779296875,194.39999389648438,309,190.60000610351562,312.79998779296875,188.5C312.6000061035156,188.60000610351562,312.29998779296875,188.8000030517578,312.1000061035156,188.89999389648438C310.20001220703125,189,308.6000061035156,189,307.5,188.89999389648438z"/>
<path id="ShirtBorder" d="M312.8999938964844,132.10000610351562C308.8999938964844,121.4000015258789,311.29998779296875,103,311.29998779296875,102.80000305175781C311.3999938964844,102.19999694824219,311.1000061035156,101.5999984741211,310.6000061035156,101.30000305175781C307.1000061035156,98.80000305175781,301.1000061035156,96.9000015258789,296.8999938964844,96.9000015258789C296.3999938964844,96.9000015258789,295.8999938964844,96.9000015258789,295.3999938964844,97C294.20001220703125,97.19999694824219,291.1000061035156,97.80000305175781,292.20001220703125,122.5L272.1000061035156,127.9000015258789L251.3000030517578,107.4000015258789C250.89999389648438,107,250.1999969482422,106.80000305175781,249.6999969482422,107C231.60000610351562,112.69999694824219,229.8000030517578,124.9000015258789,230.5,137.10000610351562C231.1999969482422,149.6999969482422,233.10000610351562,168.8000030517578,234.89999389648438,180.5C235.60000610351562,185.1999969482422,236.60000610351562,192,237.39999389648438,198.89999389648438C238.5,198.89999389648438,239.60000610351562,198.89999389648438,240.6999969482422,198.89999389648438C239.89999389648438,191.89999389648438,238.89999389648438,184.8000030517578,238.1999969482422,180C236.39999389648438,168.39999389648438,234.5,149.39999389648438,233.8000030517578,136.89999389648438C233.10000610351562,124.19999694824219,235.60000610351562,115.19999694824219,249.89999389648438,110.4000015258789L270.70001220703125,130.8000030517578C271.1000061035156,131.1999969482422,271.70001220703125,131.39999389648438,272.29998779296875,131.1999969482422L294.5,125.19999694824219C295.20001220703125,125,295.70001220703125,124.30000305175781,295.70001220703125,123.5999984741211C295.20001220703125,113.80000305175781,295.3999938964844,102.30000305175781,296.6000061035156,100.0999984741211C296.79998779296875,100.0999984741211,297,100.0999984741211,297.20001220703125,100.0999984741211C300.3999938964844,100.0999984741211,305.1000061035156,101.5999984741211,308.20001220703125,103.4000015258789C307.70001220703125,107.5999984741211,306.29998779296875,123.4000015258789,310.20001220703125,133.5C310.20001220703125,133.60000610351562,310.29998779296875,133.6999969482422,310.3999938964844,133.8000030517578C317.8999938964844,144.6999969482422,316.79998779296875,155.8000030517578,314.79998779296875,168.5C315.79998779296875,168.5,316.8999938964844,168.39999389648438,318.1000061035156,168.3000030517578C319.79998779296875,155.60000610351562,320.79998779296875,143.60000610351562,312.8999938964844,132.10000610351562z"/>
<path id="BodyBorder" d="M305.3999938964844,63.20000076293945L305.70001220703125,59.900001525878906L305.70001220703125,59.900001525878906C305.79998779296875,58.70000076293945,305.79998779296875,57.5,305.79998779296875,56.20000076293945C305.79998779296875,29.5,293.20001220703125,14.199999809265137,271.1000061035156,14.199999809265137C255.3000030517578,14.199999809265137,236.39999389648438,21.5,236.39999389648438,56.20000076293945C236.39999389648438,57.400001525878906,236.39999389648438,58.70000076293945,236.5,59.900001525878906L236.6999969482422,63.20000076293945L236.6999969482422,63.20000076293945C237.10000610351562,67.9000015258789,238.10000610351562,72.4000015258789,240.1999969482422,77L240.1999969482422,77L241.6999969482422,80.0999984741211C244.8000030517578,85.9000015258789,249,91.80000305175781,254.5,95.9000015258789L254.5,95.9000015258789C256.1000061035156,99.9000015258789,253.6999969482422,106.19999694824219,252.6999969482422,108.0999984741211C252.60000610351562,108.19999694824219,252.39999389648438,108.30000305175781,252.1999969482422,108.4000015258789L254.60000610351562,110.80000305175781C255,110.5,255.1999969482422,110.30000305175781,255.39999389648438,109.9000015258789C256.20001220703125,108.5,258.3999938964844,103.30000305175781,258.20001220703125,98.5C262,100.5999984741211,266.29998779296875,101.9000015258789,271.1000061035156,101.9000015258789C275.8999938964844,101.9000015258789,281.1000061035156,100,285.8999938964844,96.69999694824219C286.1000061035156,97.4000015258789,286.3999938964844,98,286.6000061035156,98.5999984741211C287.3999938964844,100.5,289.3999938964844,101.5999984741211,292.70001220703125,101.9000015258789C293,100.4000015258789,293.29998779296875,99.4000015258789,293.6000061035156,98.69999694824219C291.3999938964844,98.5999984741211,289.8999938964844,98.0999984741211,289.6000061035156,97.30000305175781C289.29998779296875,96.5,288.8999938964844,95.5999984741211,288.6000061035156,94.5999984741211L288.6000061035156,94.5999984741211C293.29998779296875,90.80000305175781,297.3999938964844,85.80000305175781,300.3999938964844,80.0999984741211L301.8999938964844,76.9000015258789L301.8999938964844,76.9000015258789C303.79998779296875,72.4000015258789,304.8999938964844,68.0999984741211,305.3999938964844,63.20000076293945M302.5,56.20000076293945C302.5,64.5,301.29998779296875,70.5999984741211,298.20001220703125,77.19999694824219C292.5,89.4000015258789,280.79998779296875,98.5999984741211,271.1000061035156,98.5999984741211C261.79998779296875,98.5999984741211,250.1999969482422,89.5,244,77.4000015258789C240.39999389648438,70.4000015258789,239.6999969482422,63.900001525878906,239.6999969482422,56.29999923706055C239.6999969482422,30.600000381469727,250.3000030517578,17.600000381469727,271.1000061035156,17.600000381469727C291.29998779296875,17.5,302.5,31.200000762939453,302.5,56.20000076293945zM425.8999938964844,134.1999969482422C426.29998779296875,133.5,426.5,133,426.6000061035156,132.6999969482422C427.3999938964844,130.89999389648438,423,126.19999694824219,421.5,124.69999694824219L421,124.0999984741211C419.1000061035156,122,416.5,119.19999694824219,414.3999938964844,119.19999694824219L414.29998779296875,119.19999694824219C412.70001220703125,119.30000305175781,404.1000061035156,122.5,398.3999938964844,124.69999694824219C393.70001220703125,126.4000015258789,391,127.4000015258789,390.1000061035156,127.69999694824219C388.3999938964844,128.10000610351562,375,128.5,364.8999938964844,128.5C360,128.5,353.6000061035156,128.39999389648438,350.79998779296875,127.9000015258789C347.79998779296875,127.4000015258789,343.5,125,337.70001220703125,121.69999694824219C330.8999938964844,117.9000015258789,322,112.9000015258789,310.79998779296875,108.5C310.8999938964844,107.4000015258789,310.8999938964844,106.5,311,105.69999694824219C322.70001220703125,110.19999694824219,332,115.4000015258789,339,119.30000305175781C344.3999938964844,122.30000305175781,348.70001220703125,124.69999694824219,351.20001220703125,125.19999694824219C353.29998779296875,125.5,358,125.69999694824219,364.79998779296875,125.69999694824219C376.20001220703125,125.69999694824219,388.29998779296875,125.19999694824219,389.3999938964844,124.9000015258789C390.20001220703125,124.69999694824219,393.6000061035156,123.4000015258789,397.29998779296875,122.0999984741211C405.8999938964844,118.9000015258789,412.1000061035156,116.5999984741211,414,116.5C417.29998779296875,116.30000305175781,420.3999938964844,119.5999984741211,422.8999938964844,122.19999694824219L423.3999938964844,122.80000305175781C427,126.5999984741211,430.29998779296875,130.5,429,133.6999969482422C428.3999938964844,135.5,424.6000061035156,142.60000610351562,418.29998779296875,144C415.6000061035156,144.60000610351562,413.20001220703125,144.89999389648438,411.3999938964844,144.89999389648438C409.5,144.89999389648438,408.29998779296875,144.5,407.70001220703125,143.8000030517578C407.29998779296875,143.3000030517578,407.20001220703125,142.6999969482422,407.3999938964844,142.10000610351562C407.8999938964844,140.1999969482422,409.8999938964844,139.60000610351562,411.1000061035156,139.1999969482422C411.3999938964844,139.10000610351562,411.70001220703125,139,411.8999938964844,138.89999389648438C412.29998779296875,138.6999969482422,414,136.60000610351562,413,134.8000030517578C412.1000061035156,133.39999389648438,411.6000061035156,133.39999389648438,411.3999938964844,133.39999389648438C411,133.39999389648438,410.6000061035156,133.60000610351562,410.1000061035156,133.8000030517578C409.79998779296875,133.89999389648438,409.5,134,409.20001220703125,134.10000610351562C408.29998779296875,134.39999389648438,404.79998779296875,137.1999969482422,403.29998779296875,138.5C402.29998779296875,139.3000030517578,401.6000061035156,139.8000030517578,401.29998779296875,140.10000610351562C400.79998779296875,140.5,400,140.60000610351562,398.5,140.60000610351562C397,140.60000610351562,394.8999938964844,140.39999389648438,393.20001220703125,140.3000030517578C391.6000061035156,140.1999969482422,390.1000061035156,140,389.6000061035156,140.10000610351562C389.29998779296875,140.10000610351562,361.6000061035156,143.8000030517578,355.3999938964844,145.3000030517578C355,145.39999389648438,354.6000061035156,145.39999389648438,354.20001220703125,145.39999389648438C347.29998779296875,145.39999389648438,323.6000061035156,135.8000030517578,312.79998779296875,131.3000030517578C312.3999938964844,130.3000030517578,312.20001220703125,129.10000610351562,311.8999938964844,128C325.5,133.8000030517578,348.1000061035156,142.6999969482422,354.20001220703125,142.6999969482422C354.5,142.6999969482422,354.70001220703125,142.6999969482422,354.79998779296875,142.60000610351562C361.1000061035156,141.10000610351562,388.20001220703125,137.5,389.29998779296875,137.39999389648438C389.5,137.39999389648438,389.70001220703125,137.39999389648438,389.8999938964844,137.39999389648438C390.70001220703125,137.39999389648438,392,137.5,393.3999938964844,137.60000610351562C395.1000061035156,137.6999969482422,397.1000061035156,137.89999389648438,398.5,137.89999389648438C399.3999938964844,137.89999389648438,399.70001220703125,137.8000030517578,399.8999938964844,137.8000030517578C400.20001220703125,137.60000610351562,400.8999938964844,137,401.70001220703125,136.39999389648438C404.79998779296875,133.89999389648438,407.29998779296875,132,408.5,131.60000610351562C408.70001220703125,131.5,408.8999938964844,131.39999389648438,409.20001220703125,131.3000030517578C409.79998779296875,131,410.6000061035156,130.6999969482422,411.5,130.6999969482422C413,130.6999969482422,414.29998779296875,131.60000610351562,415.3999938964844,133.3000030517578C416.20001220703125,134.60000610351562,416.29998779296875,136.10000610351562,415.8999938964844,137.5C415.3999938964844,139.1999969482422,414.20001220703125,140.6999969482422,413.29998779296875,141.1999969482422C412.8999938964844,141.39999389648438,412.5,141.5,412,141.6999969482422C411.6000061035156,141.8000030517578,411.20001220703125,141.89999389648438,410.79998779296875,142.10000610351562C411,142.10000610351562,411.20001220703125,142.10000610351562,411.3999938964844,142.10000610351562C412.8999938964844,142.10000610351562,415.1000061035156,141.8000030517578,417.5,141.3000030517578L417.5,141.3000030517578C418.29998779296875,140.6999969482422,418.8999938964844,139.89999389648438,419.20001220703125,139.1999969482422C420,137.39999389648438,420,135.5,419.79998779296875,134.89999389648438L416.8999938964844,129.5C416.6000061035156,129,416.79998779296875,128.39999389648438,417.29998779296875,128.10000610351562C417.79998779296875,127.80000305175781,418.3999938964844,128,418.70001220703125,128.5L421.70001220703125,133.89999389648438C422.20001220703125,135.10000610351562,422.20001220703125,137.3000030517578,421.3999938964844,139.39999389648438L421.3999938964844,139.39999389648438C422.1000061035156,138.8000030517578,422.79998779296875,138.1999969482422,423.3999938964844,137.5L423.3999938964844,137.5C424,136.3000030517578,424.1000061035156,134.60000610351562,423.79998779296875,134L421,128.60000610351562C420.70001220703125,128.10000610351562,420.8999938964844,127.5,421.5,127.19999694824219C422,126.9000015258789,422.6000061035156,127.0999984741211,422.8999938964844,127.5999984741211L425.70001220703125,133.10000610351562C425.79998779296875,133.60000610351562,425.8999938964844,133.89999389648438,425.8999938964844,134.1999969482422L425.8999938964844,134.1999969482422L425.8999938964844,134.1999969482422zM380.20001220703125,178.89999389648438C379.70001220703125,179.10000610351562,379.29998779296875,179.6999969482422,379.5,180.1999969482422C379.6000061035156,180.60000610351562,380.1000061035156,180.89999389648438,380.5,180.89999389648438C380.6000061035156,180.89999389648438,380.70001220703125,180.89999389648438,380.79998779296875,180.89999389648438C381.70001220703125,180.60000610351562,382.6000061035156,180.5,383.5,180.39999389648438C384.5,179.6999969482422,385.6000061035156,179,386.6000061035156,178.39999389648438C385.29998779296875,178.1999969482422,382.70001220703125,178.10000610351562,380.20001220703125,178.89999389648438zM365.8999938964844,182.5C364,182.1999969482422,361.79998779296875,182,359.79998779296875,182C358.79998779296875,182,357.8999938964844,182,357.1000061035156,182.10000610351562C351.3999938964844,182.6999969482422,344.8999938964844,183.60000610351562,338.6000061035156,184.39999389648438C332.79998779296875,185.1999969482422,327.1000061035156,185.89999389648438,322.1000061035156,186.5L338.3999938964844,186.5C339.3999938964844,186.5,340.29998779296875,186.60000610351562,341.29998779296875,186.8000030517578C346.79998779296875,186.10000610351562,352.3999938964844,185.3000030517578,357.3999938964844,184.8000030517578C358.1000061035156,184.6999969482422,359,184.6999969482422,359.79998779296875,184.6999969482422C363.1000061035156,184.6999969482422,366.70001220703125,185.3000030517578,369.20001220703125,185.8000030517578L369.20001220703125,185.8000030517578C370.5,186.39999389648438,372,186.6999969482422,373.6000061035156,187C374.79998779296875,186.1999969482422,376,185.39999389648438,377.20001220703125,184.60000610351562C373.70001220703125,184.39999389648438,369.6000061035156,183.8000030517578,368.79998779296875,182.10000610351562C368.3999938964844,181.1999969482422,368,180,367.70001220703125,178.60000610351562C367.5,177.89999389648438,366.79998779296875,177.39999389648438,366.1000061035156,177.60000610351562C365.3999938964844,177.8000030517578,364.8999938964844,178.5,365.1000061035156,179.1999969482422C365.29998779296875,180.39999389648438,365.6000061035156,181.60000610351562,365.8999938964844,182.5L365.8999938964844,182.5zM387.79998779296875,163.39999389648438C386.6000061035156,163,383,162,379.3999938964844,162.89999389648438C378.79998779296875,163,378.5,163.60000610351562,378.70001220703125,164.1999969482422C378.79998779296875,164.8000030517578,379.3999938964844,165.10000610351562,380,164.89999389648438C383.6000061035156,164,387.3999938964844,165.39999389648438,387.5,165.5C387.6000061035156,165.5,387.70001220703125,165.60000610351562,387.70001220703125,165.60000610351562L387.70001220703125,165.60000610351562C387.79998779296875,165.6999969482422,387.8999938964844,165.8000030517578,388.1000061035156,165.8000030517578C388.29998779296875,165.89999389648438,389.6000061035156,166.5,389.6000061035156,168.1999969482422C389.5,170.1999969482422,388.79998779296875,170.8000030517578,388.79998779296875,170.8000030517578L388.79998779296875,170.8000030517578C387.3999938964844,170.5,382.1000061035156,169.3000030517578,378.1000061035156,170.8000030517578C377.6000061035156,171,377.29998779296875,171.60000610351562,377.5,172.10000610351562C377.70001220703125,172.60000610351562,378.29998779296875,172.89999389648438,378.79998779296875,172.6999969482422C382.70001220703125,171.1999969482422,388.5,172.8000030517578,388.6000061035156,172.8000030517578L388.70001220703125,172.8000030517578C388.8999938964844,173.3000030517578,389.3999938964844,174.39999389648438,389.20001220703125,176.10000610351562C389.20001220703125,176.39999389648438,389.1000061035156,176.60000610351562,389,176.8000030517578C390,176.1999969482422,390.8999938964844,175.5,391.8999938964844,174.89999389648438C391.79998779296875,173.60000610351562,391.5,172.60000610351562,391.20001220703125,172C391.70001220703125,171.3000030517578,392.20001220703125,170.10000610351562,392.29998779296875,168.1999969482422C392.3999938964844,166.5,391.70001220703125,165.1999969482422,390.8999938964844,164.39999389648438C391.3999938964844,163.8000030517578,391.70001220703125,162.89999389648438,391.70001220703125,161.60000610351562C391.8999938964844,156.8000030517578,386.8999938964844,156.60000610351562,385,156.5C384.29998779296875,156.5,383.70001220703125,156.39999389648438,383,156.3000030517578C380.20001220703125,156,377.20001220703125,155.8000030517578,371.20001220703125,157.3000030517578C368,158.10000610351562,366.29998779296875,159.8000030517578,365.29998779296875,161.60000610351562C362.8999938964844,163.1999969482422,359.5,165,356.29998779296875,165.1999969482422C349.29998779296875,165.60000610351562,340.6000061035156,166.3000030517578,332.8999938964844,166.89999389648438C324.20001220703125,167.60000610351562,316,168.3000030517578,312.29998779296875,168.3000030517578C311,168.3000030517578,310.70001220703125,168.1999969482422,310.6000061035156,168.1999969482422C309.1000061035156,167.6999969482422,300.1000061035156,160.3000030517578,291.3999938964844,153.10000610351562C270.6000061035156,136,252.8000030517578,121.69999694824219,247,120.5999984741211C244.10000610351562,120.0999984741211,241.8000030517578,121.19999694824219,240.3000030517578,123.80000305175781C236.8000030517578,130,239,143,242.1999969482422,148.3000030517578C246.60000610351562,155.39999389648438,299.5,189.39999389648438,307.29998779296875,190C307.8999938964844,190,308.5,190.10000610351562,309.29998779296875,190.10000610351562C309.6000061035156,190.10000610351562,309.8999938964844,190.10000610351562,310.29998779296875,190.10000610351562C311.79998779296875,188.6999969482422,313.6000061035156,187.6999969482422,315.6000061035156,187.10000610351562C313.1000061035156,187.3000030517578,311,187.39999389648438,309.29998779296875,187.39999389648438C308.6000061035156,187.39999389648438,308,187.39999389648438,307.5,187.3000030517578C300.29998779296875,186.6999969482422,248.39999389648438,153.39999389648438,244.39999389648438,146.8000030517578C241.60000610351562,142.3000030517578,239.6999969482422,130.10000610351562,242.60000610351562,125C243.3000030517578,123.69999694824219,244.3000030517578,123.0999984741211,245.60000610351562,123.0999984741211C245.89999389648438,123.0999984741211,246.1999969482422,123.0999984741211,246.5,123.19999694824219C252.10000610351562,124.19999694824219,274.70001220703125,142.8000030517578,289.6000061035156,155.10000610351562C302.8999938964844,166.10000610351562,308.1000061035156,170.1999969482422,309.79998779296875,170.6999969482422C310.29998779296875,170.8000030517578,311,170.89999389648438,312.20001220703125,170.89999389648438C316.1000061035156,170.89999389648438,323.8999938964844,170.1999969482422,333.1000061035156,169.5C340.70001220703125,168.89999389648438,349.3999938964844,168.10000610351562,356.3999938964844,167.8000030517578C359.1000061035156,167.6999969482422,361.79998779296875,166.60000610351562,364.1000061035156,165.3000030517578C364,166.1999969482422,364,167,364,167.6999969482422C364,168.39999389648438,364.6000061035156,169.10000610351562,365.29998779296875,169.10000610351562L365.29998779296875,169.10000610351562C366,169.10000610351562,366.6000061035156,168.5,366.70001220703125,167.8000030517578C366.70001220703125,164.1999969482422,367.20001220703125,161.10000610351562,371.79998779296875,159.89999389648438C377.3999938964844,158.39999389648438,379.8999938964844,158.6999969482422,382.70001220703125,158.89999389648438C383.3999938964844,159,384.1000061035156,159,384.79998779296875,159.10000610351562C389.1000061035156,159.3000030517578,389,160.5,389,161.39999389648438C389,162.5,388.6000061035156,162.89999389648438,388.3999938964844,163C388.1000061035156,163.1999969482422,387.8999938964844,163.3000030517578,387.79998779296875,163.39999389648438L387.79998779296875,163.39999389648438z"/>
<path id="Hair" fill="#FF6E0B" d="M234.6999969482422,48.900001525878906C233.89999389648438,55.5,234,60.29999923706055,234,60.29999923706055C234,60.29999923706055,234,60.29999923706055,252.3000030517578,52.599998474121094C269.1000061035156,45.599998474121094,282.6000061035156,36.29999923706055,285.70001220703125,23.200000762939453L285.70001220703125,23.200000762939453C289.3999938964844,36.599998474121094,305.6000061035156,59.599998474121094,305.6000061035156,59.599998474121094C305.6000061035156,59.599998474121094,309.29998779296875,53.599998474121094,304.8999938964844,37.900001525878906C300.70001220703125,22.899999618530273,286.20001220703125,14.399999618530273,285,18.299999237060547L285,18.299999237060547C282,15.699999809265137,273.20001220703125,10.399999618530273,255.60000610351562,14.899999618530273C244.8000030517578,17.600000381469727,239.39999389648438,28,236.6999969482422,38.099998474121094C226.6999969482422,33.599998474121094,210,31,199.60000610351562,35.900001525878906C173.3000030517578,48.20000076293945,190.60000610351562,85.9000015258789,172.3000030517578,88.9000015258789C217,99.30000305175781,205.10000610351562,57,228,50.29999923706055C230.6999969482422,49.5,232.89999389648438,49.099998474121094,234.6999969482422,48.900001525878906z"/>
<path id="HairBorder" d="M251.6999969482422,51.20000076293945L235.60000610351562,57.900001525878906C235.8000030517578,49.400001525878906,238,21.100000381469727,256,16.600000381469727C260.3999938964844,15.5,264.5,15,268.29998779296875,15C278.5,15,283.29998779296875,18.899999618530273,284.6000061035156,20.299999237060547C283.20001220703125,32.400001525878906,272.3999938964844,42.5,251.6999969482422,51.20000076293945zM305.1000061035156,56C300.1000061035156,48.70000076293945,287.1000061035156,28.5,286.6000061035156,19.100000381469727L286.6000061035156,19.100000381469727C290,19.100000381469727,300.1000061035156,26.600000381469727,303.3999938964844,38.400001525878906C305.8999938964844,47.29999923706055,305.70001220703125,53,305.1000061035156,56zM234.8000030517578,39.20000076293945C234.10000610351562,42.099998474121094,233.60000610351562,44.900001525878906,233.1999969482422,47.5L233.1999969482422,47.5C231.60000610351562,47.79999923706055,229.6999969482422,48.20000076293945,227.5,48.79999923706055C217.89999389648438,51.599998474121094,214,60.099998474121094,210.1999969482422,68.4000015258789C205.39999389648438,79,200.8000030517578,89,184.89999389648438,89C182.6999969482422,89,180.39999389648438,88.80000305175781,177.8000030517578,88.4000015258789C182.60000610351562,84.5999984741211,183.39999389648438,77,184.3000030517578,68.9000015258789C185.5,57.099998474121094,186.89999389648438,43.70000076293945,200.3000030517578,37.400001525878906C203.6999969482422,35.79999923706055,208.3000030517578,34.900001525878906,213.39999389648438,34.900001525878906C221.1999969482422,35,229,36.79999923706055,234.8000030517578,39.20000076293945L234.8000030517578,39.20000076293945zM235.60000610351562,36C229.1999969482422,33.5,221,31.799999237060547,213.5,31.799999237060547C207.8000030517578,31.799999237060547,202.89999389648438,32.70000076293945,199,34.599998474121094C183.89999389648438,41.70000076293945,182.39999389648438,56.599998474121094,181.10000610351562,68.69999694824219C180,79.5999984741211,178.89999389648438,86.4000015258789,172.10000610351562,87.5C171.3000030517578,87.5999984741211,170.8000030517578,88.30000305175781,170.6999969482422,89.0999984741211C170.6999969482422,89.9000015258789,171.1999969482422,90.5999984741211,172,90.69999694824219C176.8000030517578,91.80000305175781,181.10000610351562,92.4000015258789,185,92.4000015258789C202.89999389648438,92.4000015258789,208.39999389648438,80.4000015258789,213.3000030517578,69.9000015258789C216.89999389648438,62,220.39999389648438,54.5,228.60000610351562,52.099998474121094C230.1999969482422,51.599998474121094,231.6999969482422,51.29999923706055,233,51.099998474121094L233,51.099998474121094C232.5,56.29999923706055,232.60000610351562,60.099998474121094,232.60000610351562,60.599998474121094C232.60000610351562,61.099998474121094,232.89999389648438,61.599998474121094,233.3000030517578,61.900001525878906C233.60000610351562,62.099998474121094,233.89999389648438,62.20000076293945,234.1999969482422,62.20000076293945C234.39999389648438,62.20000076293945,234.60000610351562,62.20000076293945,234.8000030517578,62.099998474121094L253.10000610351562,54.400001525878906C270.6000061035156,47.099998474121094,281.3999938964844,38.599998474121094,285.8999938964844,28.600000381469727L285.8999938964844,28.600000381469727L285.8999938964844,28.600000381469727L285.8999938964844,28.600000381469727C291.20001220703125,42.099998474121094,303.79998779296875,59.900001525878906,304.5,60.900001525878906C304.79998779296875,61.29999923706055,305.29998779296875,61.599998474121094,305.79998779296875,61.599998474121094C305.79998779296875,61.599998474121094,305.79998779296875,61.599998474121094,305.8999938964844,61.599998474121094C306.3999938964844,61.599998474121094,306.8999938964844,61.29999923706055,307.20001220703125,60.79999923706055C307.3999938964844,60.5,311.20001220703125,54,306.70001220703125,37.900001525878906C303,24.600000381469727,291.6000061035156,16.200000762939453,286.79998779296875,16.200000762939453C286.20001220703125,16.200000762939453,285.6000061035156,16.299999237060547,285.1000061035156,16.600000381469727L285.1000061035156,16.600000381469727C282.20001220703125,14.600000381469727,277,12,268.5,12C264.5,12,260.1000061035156,12.600000381469727,255.39999389648438,13.699999809265137C244.39999389648438,16.200000762939453,238.60000610351562,26,235.60000610351562,36"/>
<path id="Headlight1" fill="#FFD0B0" d="M447.29998779296875,268.70001220703125C477.70001220703125,268.70001220703125,509.6000061035156,250.10000610351562,520.0999755859375,253.5C530.5,257,543,267.8999938964844,545.5999755859375,271C534.2000122070312,284.5,502.5,296.70001220703125,476.29998779296875,296.20001220703125C450,295.6000061035156,447.29998779296875,268.70001220703125,447.29998779296875,268.70001220703125zM596.7000122070312,180.60000610351562C595.5,182.10000610351562,606.5999755859375,209.5,606.5999755859375,209.5L610.5,201C610.5,200.89999389648438,597.9000244140625,179,596.7000122070312,180.60000610351562z"/>
<path id="Headlight" fill="#F4F4F4" d="M510.3999938964844,280.20001220703125C509.5,285.29998779296875,507.29998779296875,289.70001220703125,504.5,292.6000061035156C500.3999938964844,293.6000061035156,496.20001220703125,294.5,492.1000061035156,295.1000061035156C486.3999938964844,292.29998779296875,482.20001220703125,284.29998779296875,482.20001220703125,274.79998779296875C482.20001220703125,269.79998779296875,483.29998779296875,265.29998779296875,485.20001220703125,261.70001220703125C491.79998779296875,259.70001220703125,497.8999938964844,257.6000061035156,503.20001220703125,256C504,256.6000061035156,504.70001220703125,257.29998779296875,505.3999938964844,258.1000061035156L505.3999938964844,258.1000061035156C505.8999938964844,256.8999938964844,506.3999938964844,255.8000030517578,507.1000061035156,254.8000030517578C512.7000122070312,253.3000030517578,517.2000122070312,252.5,520.0999755859375,253.5C521.2000122070312,253.89999389648438,522.2999877929688,254.3000030517578,523.4000244140625,254.8000030517578C525.2999877929688,257.70001220703125,526.5,261.5,526.5,265.79998779296875C526.5,274.70001220703125,521.5,281.79998779296875,515.2999877929688,281.79998779296875C513.5,281.79998779296875,511.79998779296875,281.20001220703125,510.3999938964844,280.20001220703125"/>
<path id="Taillight" fill="#FF452C" d="M40.29999923706055,231.39999389648438C37,236.6999969482422,34.29999923706055,244.6999969482422,32.900001525878906,248.5C34.20000076293945,248.60000610351562,37.79999923706055,249.6999969482422,39.5,249.6999969482422C44.099998474121094,249.6999969482422,49.79999923706055,247,52.29999923706055,245.60000610351562C55.400001525878906,243.89999389648438,54.900001525878906,227.8000030517578,53.599998474121094,214.8000030517578C50.5,218.39999389648438,43.099998474121094,226.8000030517578,40.29999923706055,231.39999389648438z"/>
<path id="CarBorder" d="M189,248.39999389648438C173.5,248.39999389648438,168.10000610351562,247.89999389648438,167.5,238.10000610351562C167.39999389648438,236.6999969482422,168.5,235.39999389648438,169.89999389648438,235.3000030517578C171.3000030517578,235.1999969482422,172.60000610351562,236.3000030517578,172.6999969482422,237.6999969482422C173,242.39999389648438,173.10000610351562,243.10000610351562,189,243.10000610351562C207.3000030517578,243.10000610351562,207.3000030517578,240.8000030517578,207.3000030517578,238C207.3000030517578,236.60000610351562,208.5,235.39999389648438,209.89999389648438,235.39999389648438C211.3000030517578,235.39999389648438,212.5,236.60000610351562,212.5,238C212.5,247.6999969482422,203.1999969482422,248.39999389648438,189,248.39999389648438zM509.29998779296875,274.79998779296875C509.29998779296875,267.70001220703125,506.8999938964844,261.29998779296875,502.8999938964844,257.70001220703125C500.5,258.3999938964844,497.8999938964844,259.29998779296875,495.20001220703125,260.20001220703125C492.29998779296875,261.1000061035156,489.3999938964844,262.1000061035156,486.3999938964844,263C484.70001220703125,266.5,483.79998779296875,270.5,483.79998779296875,274.79998779296875C483.79998779296875,283.20001220703125,487.20001220703125,290.70001220703125,492.29998779296875,293.5C496.1000061035156,292.8999938964844,499.8999938964844,292.20001220703125,503.6000061035156,291.20001220703125C507.20001220703125,287.5,509.29998779296875,281.3999938964844,509.29998779296875,274.79998779296875zM507.20001220703125,257.8999938964844L507.20001220703125,257.8999938964844C510.5,262.20001220703125,512.4000244140625,268.29998779296875,512.4000244140625,274.8999938964844C512.4000244140625,276.5,512.2999877929688,278,512.0999755859375,279.5L512.0999755859375,279.5L512.0999755859375,279.5C513.0999755859375,280,514.2000122070312,280.29998779296875,515.2999877929688,280.29998779296875C520.5999755859375,280.29998779296875,524.9000244140625,273.79998779296875,524.9000244140625,265.79998779296875C524.9000244140625,262.70001220703125,524.2000122070312,259.70001220703125,523,257.20001220703125C522.7999877929688,256.79998779296875,522.5999755859375,256.3999938964844,522.4000244140625,256.1000061035156C521.4000244140625,255.6999969482422,520.5,255.3000030517578,519.7000122070312,255C519,254.8000030517578,518.0999755859375,254.6999969482422,517.0999755859375,254.6999969482422C514.9000244140625,254.6999969482422,512.0999755859375,255.1999969482422,508.20001220703125,256.20001220703125C508,256.5,507.8999938964844,256.79998779296875,507.70001220703125,257.1000061035156L507.20001220703125,257.8999938964844zM482.1000061035156,265.1000061035156C472,268.1000061035156,461,270.6000061035156,450.1000061035156,271C451.5,277.3999938964844,456.79998779296875,293.3999938964844,476.29998779296875,293.79998779296875C479.79998779296875,293.8999938964844,483.3999938964844,293.70001220703125,487.1000061035156,293.29998779296875L487.1000061035156,293.29998779296875C483.1000061035156,289.1000061035156,480.6000061035156,282.20001220703125,480.6000061035156,274.70001220703125C480.6000061035156,271.3999938964844,481.1000061035156,268.1000061035156,482.1000061035156,265.1000061035156zM548.5999755859375,271.1000061035156L547.2999877929688,272.6000061035156C535.4000244140625,286.70001220703125,503.6000061035156,298.6000061035156,477.79998779296875,298.6000061035156C477.20001220703125,298.6000061035156,476.70001220703125,298.6000061035156,476.1000061035156,298.6000061035156C448.1000061035156,298.1000061035156,444.8999938964844,269.29998779296875,444.8999938964844,269L444.6000061035156,266.3999938964844L447.20001220703125,266.3999938964844C463.3999938964844,266.3999938964844,480.29998779296875,260.8999938964844,493.79998779296875,256.5C503.6000061035156,253.3000030517578,511.29998779296875,250.8000030517578,516.7999877929688,250.8000030517578C518.2999877929688,250.8000030517578,519.5,251,520.7000122070312,251.39999389648438C531.7999877929688,255.10000610351562,544.7000122070312,266.5,547.2999877929688,269.6000061035156L548.5999755859375,271.1000061035156zM527.0999755859375,259.5C527.7000122070312,261.5,528,263.70001220703125,528,265.8999938964844C528,275.6000061035156,522.2999877929688,283.5,515.2000122070312,283.5C513.9000244140625,283.5,512.5999755859375,283.20001220703125,511.3999938964844,282.70001220703125L511.3999938964844,282.70001220703125C510.79998779296875,285,510,287.1000061035156,509,289L509,289L509,289C522.7999877929688,284.79998779296875,535.2999877929688,278.29998779296875,542.2999877929688,271.1000061035156C539.5,268.20001220703125,533.5,263.20001220703125,527.0999755859375,259.5zM397.3999938964844,122.19999694824219C401,120.9000015258789,404.1000061035156,119.69999694824219,406.70001220703125,118.80000305175781C388.79998779296875,118.30000305175781,358.20001220703125,117.9000015258789,335.79998779296875,117.69999694824219C335.5,117.69999694824219,342.79998779296875,121.69999694824219,342.8999938964844,121.69999694824219C361.6000061035156,121.9000015258789,380.79998779296875,122.19999694824219,396.5,122.5999984741211C396.8999938964844,122.4000015258789,397.20001220703125,122.30000305175781,397.3999938964844,122.19999694824219zM303.1000061035156,199C234,198.8000030517578,129.39999389648438,199.39999389648438,128,199.39999389648438C109.5,199.39999389648438,104.5999984741211,196.8000030517578,103.69999694824219,194.60000610351562C102.30000305175781,191.1999969482422,108.9000015258789,184,114,178.89999389648438C139.8000030517578,153.10000610351562,192.39999389648438,121.5999984741211,219,121.0999984741211L226.60000610351562,121.0999984741211L229.3000030517578,119.4000015258789C230.6999969482422,118.5,231.10000610351562,118.4000015258789,233.1999969482422,117.0999984741211L218.89999389648438,117C218.60000610351562,117,218.39999389648438,117,218.10000610351562,117L218.10000610351562,116.9000015258789L218.10000610351562,116.0999984741211L218.10000610351562,116.0999984741211L218.10000610351562,116.0999984741211L215.6999969482422,116.0999984741211L213,116.0999984741211C190.6999969482422,116.0999984741211,163.3000030517578,123.30000305175781,147.8000030517578,133.3000030517578C134.1999969482422,140.10000610351562,61.20000076293945,193.5,44.400001525878906,217C14.800000190734863,254.39999389648438,10.5,334.3999938964844,21.100000381469727,356.29998779296875C23.399999618530273,361,26.299999237060547,363.3999938964844,29.899999618530273,363.3999938964844C30.899999618530273,363.3999938964844,31.799999237060547,363.5,32.5,363.5C33.20000076293945,363.5,33.900001525878906,363.6000061035156,34.5,363.6000061035156C36.099998474121094,363.6000061035156,38,363.3999938964844,40.20000076293945,361.8999938964844C42.5,360.29998779296875,42.599998474121094,357.1000061035156,42.70000076293945,352.29998779296875C42.79999923706055,346.70001220703125,43,338.29998779296875,46.5,328.3999938964844C53.29999923706055,309.1000061035156,69.4000015258789,286.1000061035156,107.30000305175781,286.1000061035156C126.5,286.1000061035156,141.8000030517578,291.70001220703125,152.8000030517578,303L152.8000030517578,303L154.1999969482422,304.5C175.10000610351562,327.5,172.5,364.5,172.5,364.8999938964844L172.3000030517578,368.1000061035156L210.10000610351562,368.1000061035156C298.20001220703125,368.1000061035156,320.29998779296875,369.1000061035156,320.5,369.20001220703125L324.1000061035156,369.3999938964844L323.6000061035156,365.79998779296875C323.6000061035156,365.3999938964844,319,329.20001220703125,338.79998779296875,306.5C349.3999938964844,294.3999938964844,365.20001220703125,288.29998779296875,385.70001220703125,288.29998779296875C406.70001220703125,288.29998779296875,423,294.5,434.29998779296875,306.70001220703125C454,328.1000061035156,451.70001220703125,361.29998779296875,451.70001220703125,361.70001220703125L451.6000061035156,362.3999938964844L451.8999938964844,363C452.70001220703125,365,454.5,365,457.29998779296875,365C461,365,469.70001220703125,364.70001220703125,490.3999938964844,363.20001220703125C526.9000244140625,360.6000061035156,567.2999877929688,335,579.5999755859375,321.3999938964844C591,308.79998779296875,601.4000244140625,297.1000061035156,612.5,280.3999938964844C618.4000244140625,271.5,623.9000244140625,253.5,622.9000244140625,233.1999969482422C622,216,616,191.3000030517578,592.7000122070312,171.1999969482422C566.4000244140625,147.5,523.9000244140625,126.30000305175781,496,122.9000015258789L494.20001220703125,122.69999694824219L494.20001220703125,122.69999694824219L493,121.9000015258789C481.29998779296875,113.5,440.70001220703125,85.0999984741211,409.3999938964844,73.69999694824219L408.70001220703125,73.4000015258789L408,73.5C385.1000061035156,75.30000305175781,341.8999938964844,95.19999694824219,308.3999938964844,117.4000015258789C307.3999938964844,118.0999984741211,306.3999938964844,118.69999694824219,305.5,119.4000015258789L305.5,119.4000015258789C294.1000061035156,127.19999694824219,283.8999938964844,135.1999969482422,276.3999938964844,142.6999969482422L273.70001220703125,145.39999389648438L276.70001220703125,147.8000030517578C283.8999938964844,153.6999969482422,305.79998779296875,170.39999389648438,323.8999938964844,184.1999969482422L319.8999938964844,184.1999969482422C311.29998779296875,184.1999969482422,304.20001220703125,190.6999969482422,303.1000061035156,199L303.1000061035156,199zM52.599998474121094,217.89999389648438C53.900001525878906,230.89999389648438,53.400001525878906,244,50.29999923706055,245.6999969482422C47.79999923706055,247.10000610351562,44,247.8000030517578,39.5,247.8000030517578C37.79999923706055,247.8000030517578,36.20000076293945,247.6999969482422,34.900001525878906,247.60000610351562C36.29999923706055,243.8000030517578,39,236.8000030517578,42.29999923706055,231.5C45.099998474121094,226.89999389648438,49.5,221.5,52.599998474121094,217.89999389648438zM600,187C602.5,190.6999969482422,605.7000122070312,196,608.5999755859375,201L606.7999877929688,205C604.0999755859375,198.39999389648438,601.5,191.6999969482422,600,187zM350.3999938964844,201.10000610351562C350.3999938964844,207.6999969482422,345,213,338.5,213L320,213C313.3999938964844,213,308.1000061035156,207.60000610351562,308.1000061035156,201.10000610351562C308.1000061035156,194.5,313.5,189.1999969482422,320,189.1999969482422L338.5,189.1999969482422C345,189.1999969482422,350.3999938964844,194.5,350.3999938964844,201.10000610351562zM355.70001220703125,203.5C355.79998779296875,203.5,355.79998779296875,203.5,355.8999938964844,203.5C356.3999938964844,203.5,405.5,202.39999389648438,468.79998779296875,217.1999969482422C502.29998779296875,225,519.2000122070312,238.8000030517578,519.4000244140625,238.89999389648438C519.7000122070312,239.1999969482422,520.0999755859375,239.3000030517578,520.5,239.3000030517578C521,239.3000030517578,521.5,239.10000610351562,521.7999877929688,238.6999969482422C522.4000244140625,238,522.2999877929688,236.89999389648438,521.5999755859375,236.3000030517578C520.9000244140625,235.6999969482422,503.8999938964844,221.89999389648438,469.6000061035156,213.89999389648438C417.3999938964844,201.6999969482422,374.79998779296875,200.1999969482422,360.70001220703125,200.10000610351562L360.70001220703125,200.10000610351562C383.70001220703125,184.1999969482422,465.20001220703125,129.39999389648438,491.20001220703125,128.1999969482422L500.79998779296875,127.80000305175781C527.7000122070312,132.89999389648438,566.5999755859375,153.10000610351562,590.0999755859375,174.3000030517578C592,175.89999389648438,593.7999877929688,177.60000610351562,595.5999755859375,179.39999389648438L595.5999755859375,179.39999389648438C595.5,179.5,595.4000244140625,179.5,595.4000244140625,179.60000610351562C594.7000122070312,180.5,593.5,181.89999389648438,605.0999755859375,210.1999969482422L606.5999755859375,213.89999389648438L611.7000122070312,202.6999969482422L611.7000122070312,202.6999969482422C625,231.89999389648438,618.2000122070312,265,609.2999877929688,278.29998779296875C598.2999877929688,294.70001220703125,588.0999755859375,306.3999938964844,576.7999877929688,318.79998779296875C564.7999877929688,332,525.7000122070312,356.70001220703125,490.20001220703125,359.29998779296875C469.70001220703125,360.79998779296875,461,361.1000061035156,457.3999938964844,361.1000061035156C456.70001220703125,361.1000061035156,456.20001220703125,361.1000061035156,455.8999938964844,361.1000061035156C456.1000061035156,355.29998779296875,456.5,324.70001220703125,437.3999938964844,304.1000061035156C425.3999938964844,291,408,284.3999938964844,385.79998779296875,284.3999938964844C364.1000061035156,284.3999938964844,347.29998779296875,291,335.8999938964844,304C317,325.6000061035156,319,358.6000061035156,319.6000061035156,365.20001220703125C314,365,287.29998779296875,364.20001220703125,210.1999969482422,364.20001220703125L176.6999969482422,364.20001220703125C176.8000030517578,361.79998779296875,176.89999389648438,355.70001220703125,176,347.79998779296875L176,347.79998779296875L305.70001220703125,348.8999938964844L305.70001220703125,345.3999938964844L175.6999969482422,344.29998779296875L175.5,344.29998779296875C175.10000610351562,341.79998779296875,174.6999969482422,339.1000061035156,174,336.29998779296875L174,336.29998779296875L304.6000061035156,336.29998779296875L304.70001220703125,333.8999938964844C304.8999938964844,329.3999938964844,306.5,316.6000061035156,312,311.1000061035156L308.5,307.6000061035156C302.20001220703125,313.8999938964844,300.3999938964844,326.1000061035156,299.8999938964844,331.29998779296875L173.3000030517578,331.29998779296875L172.8000030517578,331.29998779296875C170.10000610351562,321.70001220703125,165.6999969482422,311.5,158.3000030517578,303L158.1999969482422,303C157.60000610351562,292.20001220703125,156.60000610351562,281.20001220703125,155.8000030517578,270.5C153.1999969482422,239.3000030517578,150.8000030517578,209.89999389648438,156.89999389648438,203.3000030517578L156.89999389648438,203.3000030517578L156.89999389648438,203.3000030517578C193.1999969482422,203.10000610351562,256.20001220703125,202.89999389648438,303,203L303,203.10000610351562C304,211.5,311.20001220703125,218,319.79998779296875,218L338.29998779296875,218C346.70001220703125,218,353.70001220703125,211.89999389648438,355,203.8000030517578L355,203.8000030517578C355.29998779296875,203.8000030517578,355.5,203.60000610351562,355.70001220703125,203.5zM111.19999694824219,176.10000610351562C102.9000015258789,184.39999389648438,97.9000015258789,190.89999389648438,100.0999984741211,196.1999969482422C102.19999694824219,201.3000030517578,110.5999984741211,203.5,128.10000610351562,203.5C128.5,203.5,138,203.39999389648438,152.89999389648438,203.39999389648438C147.6999969482422,213.39999389648438,149.89999389648438,239.10000610351562,152.5,270.8999938964844C153.3000030517578,280.20001220703125,154.10000610351562,289.70001220703125,154.6999969482422,299.1000061035156L154.6999969482422,299.1000061035156C143,287.8999938964844,127.19999694824219,282.20001220703125,107.5,282.20001220703125C67.19999694824219,282.20001220703125,50.099998474121094,306.70001220703125,42.900001525878906,327.20001220703125C39.20000076293945,337.70001220703125,39,346.5,38.900001525878906,352.29998779296875C38.79999923706055,355.20001220703125,38.79999923706055,358.20001220703125,38.099998474121094,358.70001220703125C36.29999923706055,359.8999938964844,35,359.79998779296875,32.900001525878906,359.70001220703125C32.099998474121094,359.70001220703125,31.200000762939453,359.6000061035156,30.100000381469727,359.6000061035156C28.700000762939453,359.6000061035156,27.399999618530273,358.70001220703125,26.200000762939453,357.1000061035156C16.899999618530273,344.20001220703125,17.299999237060547,292.29998779296875,30.899999618530273,252.39999389648438L30.899999618530273,252.3000030517578L31.100000381469727,252.3000030517578C31.299999237060547,252.3000030517578,34.900001525878906,253,39.5,253C45,253,49.400001525878906,252.10000610351562,52.70000076293945,250.1999969482422C61,245.60000610351562,58,219.6999969482422,56.79999923706055,211.8000030517578L56.5,209.5L57,209C82.4000015258789,183.5,139.1999969482422,142.1999969482422,149.6999969482422,137.10000610351562L149.8000030517578,137C161.10000610351562,129.60000610351562,180.1999969482422,123.5,198.60000610351562,121.30000305175781L198.8000030517578,121.30000305175781C168.8000030517578,131.10000610351562,129.8000030517578,157.5,111.19999694824219,176.10000610351562zM354.5,195.8000030517578L354.5,195.8000030517578C352.29998779296875,189,345.8999938964844,184.10000610351562,338.3999938964844,184.10000610351562L335.3999938964844,184.10000610351562C318.3999938964844,171.1999969482422,294.6000061035156,153.10000610351562,284.1000061035156,144.8000030517578C313.79998779296875,117,378.6000061035156,83.0999984741211,407.79998779296875,80.4000015258789C433.5,89.9000015258789,465.79998779296875,111.19999694824219,482,122.5C465.8999938964844,121.0999984741211,445.29998779296875,120,419.8999938964844,119.19999694824219C421,120.19999694824219,422.1000061035156,121.30000305175781,423,122.30000305175781L423.5,122.9000015258789C423.6000061035156,123,423.79998779296875,123.19999694824219,423.8999938964844,123.30000305175781C443.1000061035156,124,459.5,124.80000305175781,473.1000061035156,125.80000305175781L473.1000061035156,125.80000305175781C435.70001220703125,140.3000030517578,371.3999938964844,184.10000610351562,354.5,195.8000030517578z"/>
<path id="WindShield" opacity="0.5" fill="#D7E9FF" enable-background="new    " d="M407.8999938964844,80.4000015258789C378.70001220703125,83.0999984741211,313.8999938964844,117,284.20001220703125,144.8000030517578C294.70001220703125,153.10000610351562,318.3999938964844,171.1999969482422,335.5,184.10000610351562L338.5,184.10000610351562C346,184.10000610351562,352.3999938964844,189,354.6000061035156,195.8000030517578C373,183.10000610351562,447.5,132.1999969482422,482.3999938964844,122.69999694824219C466.29998779296875,111.5,433.79998779296875,90,407.8999938964844,80.4000015258789z"/>
<path id="Vents" fill="#D33C1E" d="M618.4000244140625,226.89999389648438C618.4000244140625,226.89999389648438,618.4000244140625,243.10000610351562,617.5999755859375,247C616.7999877929688,250.89999389648438,617.5999755859375,258.6000061035156,593.7000122070312,284.79998779296875C584.5,293.1000061035156,576.5,300.20001220703125,569.0999755859375,306.20001220703125L568.5,279.5C569.2000122070312,278.8999938964844,569.7999877929688,278.3999938964844,570.5,277.79998779296875C611.5,240.8000030517578,611.5,233.8000030517578,618.4000244140625,226.89999389648438zM484.8999938964844,317.1000061035156C474.1000061035156,317.1000061035156,475.6000061035156,338.70001220703125,484.8999938964844,338.70001220703125C514.2000122070312,338.70001220703125,531.5,334.79998779296875,559.7999877929688,313.5C560.2999877929688,306.5,561.2000122070312,295.6000061035156,562,285C540.9000244140625,302.70001220703125,521,317.1000061035156,484.8999938964844,317.1000061035156zM561.2000122070312,262.79998779296875C570.7000122070312,256.20001220703125,594.7999877929688,235.5,600,222.6999969482422C605.2000122070312,209.89999389648438,593.0999755859375,193.60000610351562,593.0999755859375,193.60000610351562C593.0999755859375,193.60000610351562,542.7000122070312,237.6999969482422,528.5,246C528.5,246.10000610351562,551.7000122070312,269.3999938964844,561.2000122070312,262.79998779296875z"/>
</g>
</svg>