<svg xmlns="http://www.w3.org/2000/svg" xmlns:xlink="http://www.w3.org/1999/xlink" viewBox= "0 0 160 171" width="160px" height="171px">
<g xmlns="http://www.w3.org/2000/svg" id="Daffodil.svg">
<path id="stemBorder" fill="#5FB22F" d="M61.79999923706055,137.1999969482422C62.5,138,63.099998474121094,138.6999969482422,63.80000305175781,139.5C65.30000305175781,141.1999969482422,66.5999984741211,142.89999389648438,67.80000305175781,144.5C68.30000305175781,145.1999969482422,69.4000015258789,146.8000030517578,69.9000015258789,147.5L68.5999984741211,146.39999389648438C68,145.89999389648438,67.30000305175781,145.39999389648438,66.5,145.10000610351562C66.19999694824219,144.89999389648438,65.80000305175781,144.8000030517578,65.5,144.60000610351562L65,144.10000610351562C64.9000015258789,144,64.9000015258789,143.8000030517578,64.80000305175781,143.60000610351562C64.5,143,64.19999694824219,142.39999389648438,63.900001525878906,141.8000030517578C63.80000305175781,141.60000610351562,63.69999694824219,141.39999389648438,63.599998474121094,141.1999969482422C63.19999694824219,140.3000030517578,62.900001525878906,139.5,62.5,138.60000610351562L61.79999923706055,137.1999969482422zM75.69999694824219,161C75.69999694824219,161,75.9000015258789,160.1999969482422,76.30000305175781,158.8000030517578L76.4000015258789,158.5C76.4000015258789,159,76.5,159.3000030517578,76.5,159.3000030517578L77.19999694824219,159.39999389648438C77.19999694824219,159.39999389648438,77.80000305175781,158,78.80000305175781,155.6999969482422L79.19999694824219,154.60000610351562C79.4000015258789,154.3000030517578,79.5999984741211,154,79.9000015258789,153.6999969482422C80.19999694824219,153.3000030517578,80.5,152.89999389648438,80.9000015258789,152.39999389648438C81.19999694824219,151.89999389648438,81.5999984741211,151.39999389648438,82,150.89999389648438C82.4000015258789,150.39999389648438,82.9000015258789,149.8000030517578,83.30000305175781,149.1999969482422C83.5,148.89999389648438,83.80000305175781,148.60000610351562,84,148.3000030517578C84.30000305175781,148,84.5,147.6999969482422,84.80000305175781,147.39999389648438C85.80000305175781,146.10000610351562,87,144.89999389648438,88.19999694824219,143.5C88.80000305175781,142.89999389648438,89.5,142.1999969482422,90.0999984741211,141.5C90.80000305175781,140.89999389648438,91.4000015258789,140.10000610351562,92.0999984741211,139.39999389648438C92.9000015258789,138.60000610351562,93.69999694824219,137.8000030517578,94.5999984741211,136.89999389648438L94.5999984741211,136.89999389648438C95.69999694824219,136.89999389648438,96.80000305175781,137.10000610351562,97.80000305175781,137.1999969482422C99,137.39999389648438,100.19999694824219,137.6999969482422,101.30000305175781,138C101.80000305175781,138.1999969482422,102.4000015258789,138.3000030517578,102.9000015258789,138.5C103.4000015258789,138.6999969482422,103.9000015258789,138.89999389648438,104.4000015258789,139C105.30000305175781,139.3000030517578,106.19999694824219,139.60000610351562,106.9000015258789,139.89999389648438C108.30000305175781,140.5,109.19999694824219,140.8000030517578,109.19999694824219,140.8000030517578L109.69999694824219,140.3000030517578C109.69999694824219,140.3000030517578,109.30000305175781,139.39999389648438,108.5,138.10000610351562C108,137.39999389648438,107.5,136.60000610351562,106.69999694824219,135.6999969482422C106.30000305175781,135.3000030517578,105.9000015258789,134.8000030517578,105.4000015258789,134.39999389648438C104.9000015258789,134,104.4000015258789,133.5,103.80000305175781,133.10000610351562C103.19999694824219,132.60000610351562,102.5,132.3000030517578,101.9000015258789,131.89999389648438C101.5999984741211,131.8000030517578,101.4000015258789,131.60000610351562,101.0999984741211,131.5L101.0999984741211,131.5C101.19999694824219,131.39999389648438,101.4000015258789,131.3000030517578,101.5,131.1999969482422C102.4000015258789,130.60000610351562,103.30000305175781,130,104.19999694824219,129.39999389648438C105.0999984741211,128.89999389648438,106.0999984741211,128.3000030517578,107,127.80000305175781C108.9000015258789,126.80000305175781,110.80000305175781,125.80000305175781,112.69999694824219,125C114.5999984741211,124.0999984741211,116.5,123.4000015258789,118.30000305175781,122.80000305175781C120.0999984741211,122.0999984741211,121.80000305175781,121.5999984741211,123.4000015258789,121.0999984741211C126.5999984741211,120.0999984741211,129.39999389648438,119.5,131.3000030517578,119.0999984741211C133.1999969482422,118.69999694824219,134.3000030517578,118.5,134.3000030517578,118.5L134.3000030517578,117.80000305175781C134.3000030517578,117.80000305175781,133.1999969482422,117.80000305175781,131.1999969482422,117.80000305175781C129.1999969482422,117.9000015258789,126.30000305175781,118.0999984741211,122.9000015258789,118.5999984741211C121.19999694824219,118.9000015258789,119.4000015258789,119.19999694824219,117.4000015258789,119.5999984741211C115.5,120,113.4000015258789,120.5,111.30000305175781,121.19999694824219C109.19999694824219,121.80000305175781,107.0999984741211,122.5999984741211,105,123.4000015258789C103.9000015258789,123.80000305175781,102.9000015258789,124.30000305175781,101.80000305175781,124.80000305175781C100.80000305175781,125.30000305175781,99.69999694824219,125.80000305175781,98.69999694824219,126.4000015258789C97.69999694824219,127,96.5999984741211,127.5,95.5999984741211,128.10000610351562C95.0999984741211,128.39999389648438,94.5999984741211,128.6999969482422,94.0999984741211,129L94.0999984741211,129C94.4000015258789,128.60000610351562,94.69999694824219,128.3000030517578,95,127.9000015258789C95.9000015258789,126.80000305175781,96.69999694824219,125.80000305175781,97.5999984741211,124.80000305175781L99,123.30000305175781L100.5,121.80000305175781C102.5,119.9000015258789,104.5999984741211,118.0999984741211,106.80000305175781,116.30000305175781C109,114.5999984741211,111.19999694824219,113,113.4000015258789,111.5999984741211C115.5999984741211,110.0999984741211,117.80000305175781,108.9000015258789,120,107.69999694824219C122.0999984741211,106.5,124.19999694824219,105.5,126.0999984741211,104.5999984741211C128,103.69999694824219,129.8000030517578,102.9000015258789,131.5,102.30000305175781C133.10000610351562,101.5999984741211,134.5,101.0999984741211,135.6999969482422,100.69999694824219C138.10000610351562,99.80000305175781,139.39999389648438,99.5,139.39999389648438,99.5L139.3000030517578,98.80000305175781C139.3000030517578,98.80000305175781,137.89999389648438,99,135.39999389648438,99.5C132.89999389648438,100,129.39999389648438,101,125.19999694824219,102.4000015258789C121.0999984741211,103.80000305175781,116.30000305175781,105.69999694824219,111.4000015258789,108.30000305175781C108.9000015258789,109.5,106.5,111,104,112.5999984741211C101.9000015258789,114,99.80000305175781,115.5,97.80000305175781,117.0999984741211C98.5,115.80000305175781,99.0999984741211,114.5,99.80000305175781,113.19999694824219C100.69999694824219,111.5,101.5,109.80000305175781,102.4000015258789,108.19999694824219C103.4000015258789,106.5999984741211,104.4000015258789,105,105.4000015258789,103.30000305175781L106.9000015258789,100.9000015258789C107.4000015258789,100.0999984741211,107.9000015258789,99.30000305175781,108.5,98.5C109.5999984741211,97,110.69999694824219,95.4000015258789,111.80000305175781,93.9000015258789C112.30000305175781,93.0999984741211,112.9000015258789,92.4000015258789,113.4000015258789,91.5999984741211C114,90.9000015258789,114.5999984741211,90.19999694824219,115.19999694824219,89.5C116.4000015258789,88.0999984741211,117.5,86.69999694824219,118.5999984741211,85.30000305175781C119.80000305175781,84,121,82.69999694824219,122.19999694824219,81.4000015258789C122.80000305175781,80.80000305175781,123.4000015258789,80.0999984741211,123.9000015258789,79.5C124.5,78.9000015258789,125.0999984741211,78.30000305175781,125.69999694824219,77.80000305175781C126.9000015258789,76.69999694824219,128.10000610351562,75.5999984741211,129.1999969482422,74.5C130.39999389648438,73.5,131.5,72.5999984741211,132.60000610351562,71.69999694824219C133.6999969482422,70.80000305175781,134.8000030517578,70,135.89999389648438,69.19999694824219C137,68.5,138,67.69999694824219,139,67.0999984741211C140,66.5,140.89999389648438,65.9000015258789,141.8000030517578,65.4000015258789C142.6999969482422,64.9000015258789,143.5,64.5,144.1999969482422,64.0999984741211C144.89999389648438,63.70000076293945,145.60000610351562,63.400001525878906,146.1999969482422,63.099998474121094C146.8000030517578,62.79999923706055,147.3000030517578,62.599998474121094,147.6999969482422,62.400001525878906C148.5,62,149,61.900001525878906,149,61.900001525878906L148.8000030517578,61.20000076293945C148.8000030517578,61.20000076293945,148.3000030517578,61.29999923706055,147.39999389648438,61.599998474121094C147,61.70000076293945,146.39999389648438,61.900001525878906,145.8000030517578,62.099998474121094C145.1999969482422,62.29999923706055,144.39999389648438,62.599998474121094,143.6999969482422,62.900001525878906C142.89999389648438,63.20000076293945,142,63.599998474121094,141.10000610351562,64C140.1999969482422,64.5,139.1999969482422,65,138.10000610351562,65.5C137,66,136,66.69999694824219,134.8000030517578,67.4000015258789C133.60000610351562,68.0999984741211,132.39999389648438,68.80000305175781,131.1999969482422,69.69999694824219C130,70.5,128.6999969482422,71.4000015258789,127.39999389648438,72.30000305175781C126.19999694824219,73.30000305175781,124.9000015258789,74.30000305175781,123.5,75.4000015258789C122.80000305175781,75.9000015258789,122.0999984741211,76.4000015258789,121.5,77C120.9000015258789,77.5999984741211,120.19999694824219,78.19999694824219,119.5999984741211,78.80000305175781C118.30000305175781,80,116.9000015258789,81.19999694824219,115.5999984741211,82.5C114.30000305175781,83.80000305175781,113,85.19999694824219,111.69999694824219,86.5999984741211C111.0999984741211,87.30000305175781,110.4000015258789,88,109.69999694824219,88.69999694824219C109.0999984741211,89.4000015258789,108.5,90.19999694824219,107.9000015258789,90.9000015258789C106.69999694824219,92.4000015258789,105.4000015258789,93.9000015258789,104.19999694824219,95.5C103.5999984741211,96.30000305175781,103,97.0999984741211,102.4000015258789,97.9000015258789L100.69999694824219,100.30000305175781C99.5999984741211,101.9000015258789,98.4000015258789,103.5,97.30000305175781,105.0999984741211C96.5,106.30000305175781,95.69999694824219,107.5999984741211,94.9000015258789,108.80000305175781C95,108.5999984741211,95,108.4000015258789,95.0999984741211,108.19999694824219C95.5,106.69999694824219,95.80000305175781,105.0999984741211,96.19999694824219,103.5999984741211C96.9000015258789,100.5,97.5,97.5,97.80000305175781,94.5C97.9000015258789,93,98.0999984741211,91.5,98.0999984741211,90.0999984741211C98.0999984741211,89.4000015258789,98.0999984741211,88.69999694824219,98.0999984741211,87.9000015258789C98.0999984741211,87.19999694824219,98.0999984741211,86.5,98,85.80000305175781C98,85.0999984741211,98,84.4000015258789,97.9000015258789,83.69999694824219C97.80000305175781,83,97.80000305175781,82.4000015258789,97.69999694824219,81.69999694824219C97.5999984741211,81,97.5999984741211,80.4000015258789,97.5,79.80000305175781C97.4000015258789,79.19999694824219,97.30000305175781,78.5999984741211,97.19999694824219,78C97.0999984741211,77.4000015258789,97,76.80000305175781,96.9000015258789,76.19999694824219C96.80000305175781,75.5999984741211,96.5999984741211,75.0999984741211,96.5,74.5C96.19999694824219,73.4000015258789,96,72.4000015258789,95.5999984741211,71.5C95.30000305175781,70.5999984741211,95,69.69999694824219,94.5999984741211,68.9000015258789C94.19999694824219,68.0999984741211,93.9000015258789,67.4000015258789,93.5999984741211,66.69999694824219C93.4000015258789,66.4000015258789,93.30000305175781,66.0999984741211,93.19999694824219,65.80000305175781C93,65.5,92.9000015258789,65.30000305175781,92.69999694824219,65.0999984741211C92.4000015258789,64.5999984741211,92.19999694824219,64.30000305175781,92,63.900001525878906C91.5999984741211,63.29999923706055,91.4000015258789,63,91.4000015258789,63L90.80000305175781,63.20000076293945C90.80000305175781,63.20000076293945,90.9000015258789,63.599998474121094,91,64.30000305175781C91.0999984741211,64.69999694824219,91.0999984741211,65.0999984741211,91.19999694824219,65.69999694824219C91.19999694824219,66,91.30000305175781,66.30000305175781,91.30000305175781,66.5999984741211C91.30000305175781,66.9000015258789,91.4000015258789,67.19999694824219,91.4000015258789,67.5C91.5,68.19999694824219,91.5,68.9000015258789,91.5999984741211,69.69999694824219C91.69999694824219,70.5,91.69999694824219,71.4000015258789,91.80000305175781,72.30000305175781C91.9000015258789,73.19999694824219,91.9000015258789,74.19999694824219,91.9000015258789,75.19999694824219C91.9000015258789,75.69999694824219,91.9000015258789,76.19999694824219,91.9000015258789,76.80000305175781C91.9000015258789,77.30000305175781,91.9000015258789,77.9000015258789,91.9000015258789,78.5C91.9000015258789,79.0999984741211,91.9000015258789,79.5999984741211,91.9000015258789,80.19999694824219C91.9000015258789,80.80000305175781,91.80000305175781,81.4000015258789,91.80000305175781,82C91.80000305175781,82.5999984741211,91.69999694824219,83.19999694824219,91.69999694824219,83.80000305175781C91.69999694824219,84.4000015258789,91.5999984741211,85.0999984741211,91.5999984741211,85.69999694824219C91.5,87,91.4000015258789,88.30000305175781,91.30000305175781,89.69999694824219C91.19999694824219,91,91.0999984741211,92.4000015258789,90.9000015258789,93.80000305175781C90.69999694824219,96.5999984741211,90.4000015258789,99.5,90.0999984741211,102.5C89.9000015258789,104,89.69999694824219,105.5,89.5999984741211,107C89.4000015258789,108.5,89.0999984741211,110,88.9000015258789,111.5C88.30000305175781,114.5,87.69999694824219,117.5,87,120.5C86.5,122.5999984741211,86,124.69999694824219,85.5,126.69999694824219C85.0999984741211,127.5999984741211,84.69999694824219,128.60000610351562,84.4000015258789,129.5L83.19999694824219,133C83,133.39999389648438,82.80000305175781,133.6999969482422,82.5999984741211,134.10000610351562C82.4000015258789,134.5,82.19999694824219,134.89999389648438,82,135.3000030517578C81.5999984741211,135.60000610351562,81.19999694824219,136,80.9000015258789,136.39999389648438C81,135.1999969482422,81.19999694824219,134.10000610351562,81.30000305175781,132.89999389648438C81.5,130.6999969482422,81.69999694824219,128.5,81.9000015258789,126.30000305175781C82,124.0999984741211,82.30000305175781,121.9000015258789,82.4000015258789,119.69999694824219C82.5999984741211,117.5,82.69999694824219,115.30000305175781,82.5999984741211,113.19999694824219C82.5,111.0999984741211,82.4000015258789,109.0999984741211,82,107.19999694824219C81.69999694824219,105.30000305175781,81.4000015258789,103.5,80.9000015258789,101.80000305175781C80.5,100.0999984741211,80,98.5999984741211,79.5999984741211,97.30000305175781C79.0999984741211,96,78.69999694824219,94.9000015258789,78.30000305175781,94C77.80000305175781,92.80000305175781,77.30000305175781,92,77.0999984741211,91.5L77.0999984741211,91.5C76.80000305175781,82,76.0999984741211,74.5,75.30000305175781,68.4000015258789L75.30000305175781,68.4000015258789C76.19999694824219,66.4000015258789,77.4000015258789,64.80000305175781,78.69999694824219,63.70000076293945C81,61.79999923706055,84,61.599998474121094,87.9000015258789,63.20000076293945L89.5,59.400001525878906C84.19999694824219,57.29999923706055,79.69999694824219,57.599998474121094,76.19999694824219,60.5C75.69999694824219,60.900001525878906,75.19999694824219,61.29999923706055,74.80000305175781,61.79999923706055L74.80000305175781,61.79999923706055C76.80000305175781,34.70000076293945,81.5999984741211,28.100000381469727,83.9000015258789,26.5C84.9000015258789,25.799999237060547,86.30000305175781,25.299999237060547,89,27L91.5999984741211,22.700000762939453C86.80000305175781,19.799999237060547,83.19999694824219,20.899999618530273,81,22.399999618530273C78.9000015258789,23.899999618530273,73.69999694824219,27.399999618530273,70.80000305175781,49.79999923706055L70,49.599998474121094C67.80000305175781,44.70000076293945,65.5999984741211,43.400001525878906,64.4000015258789,42.599998474121094C62.099998474121094,41.20000076293945,58.29999923706055,40.099998474121094,53.099998474121094,43.599998474121094L55.900001525878906,47.79999923706055C59,45.70000076293945,60.70000076293945,46.29999923706055,61.70000076293945,46.900001525878906C65,49,67.30000305175781,55.20000076293945,68.80000305175781,63.79999923706055L68.80000305175781,63.79999923706055C68.5999984741211,67.30000305175781,68.4000015258789,71.0999984741211,68.30000305175781,75.19999694824219L68.30000305175781,75.19999694824219C67.30000305175781,80.5,66.80000305175781,86.69999694824219,66.69999694824219,93.19999694824219L66.5999984741211,93.19999694824219C66.30000305175781,92.5,66.0999984741211,91.80000305175781,65.80000305175781,91.0999984741211S65.30000305175781,89.69999694824219,65,89C64.69999694824219,88.30000305175781,64.4000015258789,87.69999694824219,64.0999984741211,87C63.5,85.69999694824219,62.79999923706055,84.4000015258789,62.20000076293945,83.19999694824219C61.599998474121094,82,61,80.80000305175781,60.29999923706055,79.5999984741211C59.599998474121094,78.5,58.900001525878906,77.4000015258789,58.29999923706055,76.4000015258789C57.599998474121094,75.4000015258789,57,74.4000015258789,56.400001525878906,73.5C55.79999923706055,72.5999984741211,55.20000076293945,71.69999694824219,54.599998474121094,71C53.400001525878906,69.5,52.29999923706055,68.19999694824219,51.400001525878906,67.0999984741211C49.599998474121094,65,48.400001525878906,63.79999923706055,48.400001525878906,63.79999923706055L47.70000076293945,64C47.70000076293945,64,48.20000076293945,65.5999984741211,49.20000076293945,68.19999694824219C49.70000076293945,69.5,50.29999923706055,71.0999984741211,51.099998474121094,72.9000015258789C51.5,73.80000305175781,51.79999923706055,74.80000305175781,52.20000076293945,75.80000305175781C52.599998474121094,76.80000305175781,53,77.9000015258789,53.400001525878906,78.9000015258789C53.79999923706055,80,54.29999923706055,81.0999984741211,54.79999923706055,82.30000305175781C55.29999923706055,83.4000015258789,55.70000076293945,84.69999694824219,56.20000076293945,85.9000015258789C56.70000076293945,87.19999694824219,57.20000076293945,88.4000015258789,57.70000076293945,89.69999694824219C58,90.4000015258789,58.20000076293945,91,58.5,91.69999694824219C58.70000076293945,92.4000015258789,59,93,59.29999923706055,93.69999694824219C59.79999923706055,95.0999984741211,60.400001525878906,96.4000015258789,61,97.80000305175781C61.29999923706055,98.5,61.599998474121094,99.19999694824219,61.900001525878906,99.9000015258789C62.20000076293945,100.5999984741211,62.5,101.30000305175781,62.70000076293945,102C63.80000305175781,104.9000015258789,65,107.80000305175781,65.9000015258789,110.80000305175781C66.4000015258789,112.30000305175781,66.80000305175781,113.80000305175781,67.30000305175781,115.30000305175781C67.5999984741211,116.19999694824219,67.80000305175781,117.19999694824219,68.0999984741211,118.0999984741211L68.0999984741211,118.0999984741211C68.5,121.69999694824219,68.9000015258789,125.19999694824219,69.30000305175781,128.39999389648438L69.30000305175781,128.39999389648438C69.5999984741211,134.39999389648438,70,139.60000610351562,70.30000305175781,143.8000030517578L70.30000305175781,143.8000030517578C70.19999694824219,143.60000610351562,70.0999984741211,143.39999389648438,70,143.1999969482422C69,141.39999389648438,67.9000015258789,139.5,66.5999984741211,137.60000610351562C65.30000305175781,135.60000610351562,63.900001525878906,133.60000610351562,62.29999923706055,131.60000610351562C61.5,130.60000610351562,60.70000076293945,129.60000610351562,59.79999923706055,128.5C59.5,128.1999969482422,59.29999923706055,127.9000015258789,59,127.5999984741211L58.900001525878906,127.69999694824219C58.900001525878906,127.5999984741211,58.900001525878906,127.5,58.79999923706055,127.4000015258789C58.400001525878906,125.5999984741211,58.099998474121094,123.9000015258789,57.599998474121094,122.30000305175781C57.20000076293945,120.5999984741211,56.79999923706055,118.9000015258789,56.20000076293945,117.30000305175781C56.099998474121094,116.9000015258789,56,116.5,55.79999923706055,116.0999984741211C55.70000076293945,115.69999694824219,55.599998474121094,115.30000305175781,55.5,115C55.29999923706055,114.30000305175781,55.099998474121094,113.5,54.900001525878906,112.9000015258789C54.5,111.5,54,110.30000305175781,53.70000076293945,109.0999984741211C53.400001525878906,107.9000015258789,53,106.9000015258789,52.70000076293945,106C52.099998474121094,104.30000305175781,51.599998474121094,103.30000305175781,51.599998474121094,103.30000305175781L50.900001525878906,103.4000015258789C50.900001525878906,103.4000015258789,50.599998474121094,104.4000015258789,50.20000076293945,106.19999694824219C50,107.0999984741211,49.79999923706055,108.19999694824219,49.70000076293945,109.4000015258789C49.5,110.5999984741211,49.5,112.0999984741211,49.5,113.5999984741211C49.5,114.4000015258789,49.5,115.19999694824219,49.5,116C49.5,116.4000015258789,49.5,116.9000015258789,49.599998474121094,117.30000305175781C49.599998474121094,117.69999694824219,49.70000076293945,118.19999694824219,49.79999923706055,118.5999984741211L49.79999923706055,118.5999984741211C49.20000076293945,118.0999984741211,48.599998474121094,117.5999984741211,48,117.0999984741211C46.900001525878906,116.19999694824219,45.79999923706055,115.4000015258789,44.70000076293945,114.5999984741211C43.599998474121094,113.80000305175781,42.5,113,41.29999923706055,112.30000305175781C40.099998474121094,111.5999984741211,39,110.9000015258789,37.79999923706055,110.30000305175781C35.400001525878906,109.0999984741211,33,108.19999694824219,30.700000762939453,107.5C29.5,107.19999694824219,28.399999618530273,106.9000015258789,27.299999237060547,106.5999984741211C26.200000762939453,106.4000015258789,25.100000381469727,106.19999694824219,24.100000381469727,106C23.100000381469727,105.80000305175781,22.100000381469727,105.80000305175781,21.100000381469727,105.69999694824219C20.100000381469727,105.5999984741211,19.299999237060547,105.5,18.399999618530273,105.5C16.700000762939453,105.5,15.200000762939453,105.5,14,105.5999984741211C11.600000381469727,105.9000015258789,10.199999809265137,106.0999984741211,10.199999809265137,106.0999984741211L10.100000381469727,106.80000305175781C10.100000381469727,106.80000305175781,11.399999618530273,107.30000305175781,13.699999809265137,108C14.300000190734863,108.19999694824219,14.899999618530273,108.4000015258789,15.5,108.5999984741211C16.200000762939453,108.80000305175781,16.899999618530273,109.0999984741211,17.600000381469727,109.30000305175781C18.299999237060547,109.5,19.100000381469727,109.9000015258789,20,110.19999694824219C20.799999237060547,110.5,21.700000762939453,110.80000305175781,22.600000381469727,111.19999694824219C23.5,111.5999984741211,24.399999618530273,111.9000015258789,25.399999618530273,112.30000305175781C26.399999618530273,112.69999694824219,27.299999237060547,113.19999694824219,28.299999237060547,113.5999984741211C29.299999237060547,114.0999984741211,30.299999237060547,114.5,31.400001525878906,115C32.400001525878906,115.5,33.5,116,34.599998474121094,116.5C35.70000076293945,117,36.70000076293945,117.5999984741211,37.900001525878906,118.0999984741211C39,118.69999694824219,40.099998474121094,119.19999694824219,41.20000076293945,119.80000305175781C42.29999923706055,120.4000015258789,43.400001525878906,121.0999984741211,44.5,121.69999694824219C45.599998474121094,122.4000015258789,46.70000076293945,123.0999984741211,47.70000076293945,123.9000015258789C48.70000076293945,124.69999694824219,49.79999923706055,125.4000015258789,50.79999923706055,126.30000305175781L51.79999923706055,127.19999694824219C52.099998474121094,128,52.400001525878906,128.8000030517578,52.79999923706055,129.60000610351562C53.20000076293945,130.5,53.70000076293945,131.5,54.099998474121094,132.39999389648438C54.599998474121094,133.3000030517578,54.900001525878906,134.3000030517578,55.400001525878906,135.1999969482422C56.099998474121094,136.5,56.70000076293945,137.8000030517578,57.400001525878906,139L57.400001525878906,139C56.29999923706055,138.5,55.20000076293945,138,54.099998474121094,137.5C53.29999923706055,137.1999969482422,52.5,136.89999389648438,51.70000076293945,136.60000610351562C50.900001525878906,136.39999389648438,50.099998474121094,136.1999969482422,49.29999923706055,136C48.5,135.89999389648438,47.70000076293945,135.8000030517578,46.900001525878906,135.6999969482422C46.099998474121094,135.6999969482422,45.400001525878906,135.6999969482422,44.599998474121094,135.6999969482422C43.099998474121094,135.8000030517578,41.70000076293945,135.89999389648438,40.5,136.1999969482422C39.20000076293945,136.5,38.099998474121094,136.8000030517578,37.099998474121094,137.10000610351562C36.099998474121094,137.39999389648438,35.29999923706055,137.8000030517578,34.599998474121094,138.10000610351562C33.29999923706055,138.8000030517578,32.599998474121094,139.3000030517578,32.599998474121094,139.3000030517578L32.70000076293945,140C32.70000076293945,140,33.5,140.3000030517578,35,140.60000610351562C35.70000076293945,140.6999969482422,36.599998474121094,141,37.5,141.10000610351562C38.400001525878906,141.3000030517578,39.5,141.5,40.599998474121094,141.6999969482422C41.20000076293945,141.8000030517578,41.70000076293945,141.89999389648438,42.29999923706055,142C42.900001525878906,142.10000610351562,43.5,142.1999969482422,44.099998474121094,142.3000030517578C44.70000076293945,142.39999389648438,45.400001525878906,142.5,46,142.6999969482422C46.599998474121094,142.8000030517578,47.29999923706055,142.89999389648438,48,143C48.70000076293945,143.10000610351562,49.29999923706055,143.1999969482422,50,143.3000030517578C50.70000076293945,143.39999389648438,51.400001525878906,143.5,52.099998474121094,143.60000610351562C53.5,143.8000030517578,55,144.1999969482422,56.29999923706055,144.6999969482422L56.29999923706055,144.60000610351562C55.900001525878906,144.8000030517578,55.5,145.10000610351562,55.099998474121094,145.3000030517578C54.20000076293945,146,53.5,146.60000610351562,52.900001525878906,147.39999389648438C52.29999923706055,148.10000610351562,51.79999923706055,148.8000030517578,51.400001525878906,149.5C51.20000076293945,149.8000030517578,51,150.10000610351562,50.900001525878906,150.39999389648438C50.79999923706055,150.6999969482422,50.70000076293945,151,50.599998474121094,151.1999969482422C50.400001525878906,151.6999969482422,50.29999923706055,152.10000610351562,50.20000076293945,152.39999389648438C50.099998474121094,152.6999969482422,50.099998474121094,152.8000030517578,50.099998474121094,152.8000030517578L50.599998474121094,153.3000030517578C50.599998474121094,153.3000030517578,50.79999923706055,153.3000030517578,51.099998474121094,153.1999969482422C51.400001525878906,153.1999969482422,51.79999923706055,153.10000610351562,52.29999923706055,152.89999389648438C52.5,152.8000030517578,52.79999923706055,152.6999969482422,53.099998474121094,152.6999969482422C53.400001525878906,152.60000610351562,53.70000076293945,152.5,54,152.5C54.599998474121094,152.3000030517578,55.29999923706055,152.10000610351562,56,151.89999389648438C56.70000076293945,151.60000610351562,57.400001525878906,151.5,58.20000076293945,151.1999969482422C58.599998474121094,151.10000610351562,58.900001525878906,151,59.29999923706055,150.89999389648438C59.70000076293945,150.8000030517578,60,150.6999969482422,60.29999923706055,150.60000610351562C60.599998474121094,150.5,61,150.39999389648438,61.29999923706055,150.3000030517578C61.599998474121094,150.1999969482422,62,150,62.29999923706055,150C63,149.8000030517578,63.69999694824219,149.8000030517578,64.4000015258789,150L64.5,150C64.5999984741211,150.10000610351562,64.5999984741211,150.10000610351562,64.69999694824219,150.1999969482422C65.80000305175781,151.5,66.69999694824219,152.6999969482422,67.69999694824219,153.6999969482422C68.19999694824219,154.3000030517578,68.69999694824219,154.8000030517578,69.19999694824219,155.3000030517578C69.69999694824219,155.8000030517578,70.19999694824219,156.1999969482422,70.5999984741211,156.6999969482422C71.5,157.60000610351562,72.30000305175781,158.3000030517578,73,158.8000030517578C73.5999984741211,159.3000030517578,74,159.60000610351562,74.4000015258789,159.89999389648438L74.19999694824219,159.60000610351562C74.69999694824219,160.39999389648438,74.9000015258789,160.89999389648438,74.9000015258789,160.89999389648438L75.5999984741211,160.6999969482422"/>
<path id="flowers" fill="#FFEF22" d="M67.5999984741211,45.400001525878906C67.9000015258789,47.70000076293945,61.79999923706055,49.20000076293945,61,51.20000076293945C60.20000076293945,53.29999923706055,63.5,58.599998474121094,61.79999923706055,59.900001525878906C60.099998474121094,61.29999923706055,55.79999923706055,56.900001525878906,53.599998474121094,57.099998474121094C51.29999923706055,57.29999923706055,48.099998474121094,62.599998474121094,46.099998474121094,61.599998474121094C44.099998474121094,60.599998474121094,46.29999923706055,54.79999923706055,45,52.900001525878906C43.79999923706055,51.099998474121094,37.5,51,37.29999923706055,48.70000076293945C37,46.400001525878906,43.099998474121094,44.900001525878906,43.900001525878906,43C44.70000076293945,40.900001525878906,41.400001525878906,35.599998474121094,43.099998474121094,34.29999923706055C44.79999923706055,32.900001525878906,49.099998474121094,37.29999923706055,51.400001525878906,37.099998474121094C53.70000076293945,36.900001525878906,56.900001525878906,31.600000381469727,58.900001525878906,32.599998474121094C60.900001525878906,33.599998474121094,58.70000076293945,39.400001525878906,60,41.29999923706055C61.099998474121094,43,67.30000305175781,43.099998474121094,67.5999984741211,45.400001525878906zM76.5999984741211,24.899999618530273C76.4000015258789,27.200000762939453,82.5999984741211,28.399999618530273,83.4000015258789,30.399999618530273C84.30000305175781,32.5,81.19999694824219,37.900001525878906,82.9000015258789,39.20000076293945C84.5999984741211,40.5,88.80000305175781,35.900001525878906,91,36.099998474121094C93.30000305175781,36.29999923706055,96.69999694824219,41.400001525878906,98.5999984741211,40.29999923706055C100.5,39.29999923706055,98.19999694824219,33.5,99.4000015258789,31.600000381469727C100.5,29.799999237060547,106.80000305175781,29.399999618530273,107,27.100000381469727C107.19999694824219,24.799999237060547,101,23.600000381469727,100.19999694824219,21.600000381469727C99.30000305175781,19.5,102.4000015258789,14.100000381469727,100.69999694824219,12.800000190734863C98.9000015258789,11.5,94.80000305175781,16.100000381469727,92.5999984741211,15.899999618530273C90.30000305175781,15.699999809265137,86.9000015258789,10.600000381469727,85,11.699999809265137C83.0999984741211,12.699999809265137,85.4000015258789,18.5,84.19999694824219,20.399999618530273C83,22.299999237060547,76.80000305175781,22.600000381469727,76.5999984741211,24.899999618530273zM77.30000305175781,61.29999923706055C77.19999694824219,63.20000076293945,82.19999694824219,64.19999694824219,82.9000015258789,65.80000305175781C83.5999984741211,67.5,81.0999984741211,71.9000015258789,82.5,73C83.9000015258789,74.0999984741211,87.30000305175781,70.30000305175781,89.19999694824219,70.4000015258789C91.0999984741211,70.5,93.9000015258789,74.69999694824219,95.5,73.9000015258789C97.0999984741211,73,95.19999694824219,68.30000305175781,96.0999984741211,66.69999694824219C97,65.19999694824219,102.19999694824219,64.9000015258789,102.30000305175781,63C102.4000015258789,61.099998474121094,97.4000015258789,60.099998474121094,96.69999694824219,58.5C96,56.79999923706055,98.5,52.400001525878906,97.0999984741211,51.29999923706055C95.69999694824219,50.20000076293945,92.30000305175781,54,90.4000015258789,53.900001525878906C88.5,53.79999923706055,85.69999694824219,49.599998474121094,84.0999984741211,50.400001525878906C82.5,51.29999923706055,84.4000015258789,56,83.5,57.599998474121094C82.5999984741211,59.099998474121094,77.4000015258789,59.400001525878906,77.30000305175781,61.29999923706055z"/>
<path id="flowersBorder" fill="#FFC524" d="M46.599998474121094,62.20000076293945C46.29999923706055,62.20000076293945,46.099998474121094,62.099998474121094,45.900001525878906,62C44.5,61.29999923706055,44.70000076293945,59.20000076293945,44.900001525878906,57C45,55.5,45.099998474121094,53.79999923706055,44.70000076293945,53.099998474121094C44.29999923706055,52.5,42.70000076293945,52,41.400001525878906,51.599998474121094C39.29999923706055,51,37.099998474121094,50.29999923706055,36.900001525878906,48.70000076293945C36.70000076293945,47.099998474121094,38.70000076293945,46,40.599998474121094,44.900001525878906C41.79999923706055,44.20000076293945,43.29999923706055,43.400001525878906,43.5,42.70000076293945C43.79999923706055,41.900001525878906,43.29999923706055,40.29999923706055,42.900001525878906,38.900001525878906C42.29999923706055,36.79999923706055,41.70000076293945,34.70000076293945,42.79999923706055,33.79999923706055C43.099998474121094,33.599998474121094,43.5,33.400001525878906,43.900001525878906,33.400001525878906C45,33.400001525878906,46.29999923706055,34.20000076293945,47.70000076293945,35C49,35.79999923706055,50.400001525878906,36.599998474121094,51.29999923706055,36.5C52.20000076293945,36.400001525878906,53.29999923706055,35.29999923706055,54.5,34.29999923706055C55.79999923706055,33.099998474121094,57.099998474121094,31.899999618530273,58.29999923706055,31.899999618530273C58.599998474121094,31.899999618530273,58.79999923706055,32,59,32.099998474121094C60.400001525878906,32.79999923706055,60.20000076293945,34.900001525878906,60,37.099998474121094C59.900001525878906,38.599998474121094,59.79999923706055,40.29999923706055,60.20000076293945,41C60.599998474121094,41.599998474121094,62.20000076293945,42.099998474121094,63.5,42.5C65.5999984741211,43.099998474121094,67.80000305175781,43.79999923706055,68,45.400001525878906C68.19999694824219,47,66.19999694824219,48.099998474121094,64.30000305175781,49.20000076293945C63.099998474121094,49.900001525878906,61.599998474121094,50.70000076293945,61.400001525878906,51.400001525878906C61.099998474121094,52.20000076293945,61.599998474121094,53.79999923706055,62,55.20000076293945C62.599998474121094,57.29999923706055,63.19999694824219,59.400001525878906,62.099998474121094,60.29999923706055C61.79999923706055,60.5,61.400001525878906,60.70000076293945,61,60.70000076293945C59.900001525878906,60.70000076293945,58.599998474121094,59.900001525878906,57.20000076293945,59.099998474121094C55.900001525878906,58.29999923706055,54.5,57.5,53.599998474121094,57.599998474121094C52.70000076293945,57.70000076293945,51.599998474121094,58.79999923706055,50.400001525878906,59.79999923706055C49.099998474121094,61,47.79999923706055,62.20000076293945,46.599998474121094,62.20000076293945zM43.900001525878906,34.400001525878906C43.70000076293945,34.400001525878906,43.5,34.400001525878906,43.400001525878906,34.599998474121094C42.70000076293945,35.099998474121094,43.29999923706055,37,43.79999923706055,38.599998474121094C44.29999923706055,40.29999923706055,44.79999923706055,42,44.400001525878906,43.099998474121094C44,44.099998474121094,42.5,45,41,45.79999923706055C39.400001525878906,46.70000076293945,37.70000076293945,47.70000076293945,37.79999923706055,48.599998474121094C37.900001525878906,49.599998474121094,39.79999923706055,50.099998474121094,41.5,50.599998474121094C43.20000076293945,51.099998474121094,44.79999923706055,51.599998474121094,45.400001525878906,52.5C46.099998474121094,53.5,45.900001525878906,55.20000076293945,45.79999923706055,57C45.70000076293945,58.70000076293945,45.5,60.70000076293945,46.29999923706055,61C47.099998474121094,61.400001525878906,48.5,60.099998474121094,49.70000076293945,58.900001525878906C51,57.70000076293945,52.20000076293945,56.599998474121094,53.400001525878906,56.400001525878906C54.599998474121094,56.29999923706055,56,57.099998474121094,57.599998474121094,58C59.099998474121094,58.900001525878906,60.79999923706055,59.79999923706055,61.400001525878906,59.29999923706055C62.099998474121094,58.79999923706055,61.5,56.900001525878906,61,55.29999923706055C60.5,53.599998474121094,60,51.900001525878906,60.400001525878906,50.79999923706055C60.79999923706055,49.79999923706055,62.29999923706055,48.900001525878906,63.80000305175781,48.099998474121094C65.4000015258789,47.20000076293945,67.0999984741211,46.20000076293945,67,45.29999923706055C66.9000015258789,44.400001525878906,65,43.79999923706055,63.30000305175781,43.29999923706055C61.599998474121094,42.79999923706055,60,42.29999923706055,59.400001525878906,41.400001525878906C58.70000076293945,40.400001525878906,58.900001525878906,38.70000076293945,59,36.900001525878906C59.099998474121094,35.20000076293945,59.29999923706055,33.20000076293945,58.5,32.900001525878906C57.70000076293945,32.5,56.29999923706055,33.79999923706055,55.099998474121094,35C53.79999923706055,36.20000076293945,52.599998474121094,37.29999923706055,51.400001525878906,37.5C50.20000076293945,37.599998474121094,48.79999923706055,36.79999923706055,47.20000076293945,35.900001525878906C46,35.20000076293945,44.70000076293945,34.400001525878906,43.900001525878906,34.400001525878906zM98.19999694824219,41C97,41,95.69999694824219,39.900001525878906,94.4000015258789,38.70000076293945C93.19999694824219,37.70000076293945,92,36.70000076293945,91.19999694824219,36.599998474121094L91.19999694824219,36.599998474121094C90.19999694824219,36.599998474121094,88.9000015258789,37.400001525878906,87.69999694824219,38.20000076293945C86.30000305175781,39.099998474121094,85,39.900001525878906,83.9000015258789,39.900001525878906L83.9000015258789,39.900001525878906C83.5,39.900001525878906,83.0999984741211,39.79999923706055,82.80000305175781,39.599998474121094C81.5999984741211,38.70000076293945,82.0999984741211,36.599998474121094,82.69999694824219,34.5C83.0999984741211,33.099998474121094,83.5,31.399999618530273,83.19999694824219,30.600000381469727C82.9000015258789,29.899999618530273,81.5,29.200000762939453,80.19999694824219,28.5C78.19999694824219,27.5,76.19999694824219,26.5,76.30000305175781,24.899999618530273C76.4000015258789,23.299999237060547,78.5999984741211,22.5,80.5999984741211,21.799999237060547C81.9000015258789,21.299999237060547,83.5,20.799999237060547,83.9000015258789,20.200000762939453C84.30000305175781,19.5,84.19999694824219,17.799999237060547,84,16.299999237060547C83.80000305175781,14.100000381469727,83.5,12,84.9000015258789,11.300000190734863C85.0999984741211,11.199999809265137,85.4000015258789,11.100000381469727,85.69999694824219,11.100000381469727C86.9000015258789,11.100000381469727,88.19999694824219,12.199999809265137,89.5,13.399999618530273C90.69999694824219,14.399999618530273,91.9000015258789,15.399999618530273,92.69999694824219,15.5L92.69999694824219,15.5C93.69999694824219,15.5,95,14.699999809265137,96.19999694824219,13.899999618530273C97.5999984741211,13,98.9000015258789,12.199999809265137,100,12.199999809265137C100.4000015258789,12.199999809265137,100.80000305175781,12.300000190734863,101.0999984741211,12.5C102.30000305175781,13.399999618530273,101.80000305175781,15.5,101.19999694824219,17.600000381469727C100.80000305175781,19,100.4000015258789,20.700000762939453,100.69999694824219,21.5C101,22.200000762939453,102.4000015258789,22.899999618530273,103.69999694824219,23.600000381469727C105.69999694824219,24.600000381469727,107.69999694824219,25.600000381469727,107.5999984741211,27.200000762939453C107.5,28.799999237060547,105.30000305175781,29.600000381469727,103.30000305175781,30.299999237060547C102,30.799999237060547,100.4000015258789,31.299999237060547,100,31.899999618530273C99.5999984741211,32.599998474121094,99.69999694824219,34.29999923706055,99.9000015258789,35.79999923706055C100.0999984741211,38,100.4000015258789,40.099998474121094,99,40.79999923706055C98.69999694824219,40.900001525878906,98.5,41,98.19999694824219,41zM91,35.599998474121094C91.0999984741211,35.599998474121094,91.0999984741211,35.599998474121094,91.19999694824219,35.599998474121094C92.4000015258789,35.70000076293945,93.69999694824219,36.79999923706055,95,37.900001525878906C96.30000305175781,39,97.80000305175781,40.29999923706055,98.5,39.900001525878906C99.30000305175781,39.5,99,37.599998474121094,98.80000305175781,35.79999923706055C98.5999984741211,34,98.4000015258789,32.29999923706055,99,31.299999237060547C99.5999984741211,30.299999237060547,101.19999694824219,29.799999237060547,102.80000305175781,29.200000762939453C104.5,28.600000381469727,106.4000015258789,28,106.5,27C106.5999984741211,26,104.80000305175781,25.100000381469727,103.19999694824219,24.299999237060547C101.5999984741211,23.5,100.19999694824219,22.799999237060547,99.69999694824219,21.700000762939453C99.19999694824219,20.600000381469727,99.5999984741211,18.899999618530273,100.0999984741211,17.200000762939453C100.5,15.5,101,13.600000381469727,100.30000305175781,13.100000381469727C99.5999984741211,12.600000381469727,98,13.600000381469727,96.5,14.5C95.0999984741211,15.399999618530273,93.69999694824219,16.299999237060547,92.5,16.299999237060547L92.5,16.299999237060547C92.4000015258789,16.299999237060547,92.4000015258789,16.299999237060547,92.30000305175781,16.299999237060547C91.0999984741211,16.200000762939453,89.80000305175781,15.100000381469727,88.5,14C87.19999694824219,12.899999618530273,85.69999694824219,11.600000381469727,85,12C84.19999694824219,12.399999618530273,84.5,14.300000190734863,84.69999694824219,16.100000381469727C84.9000015258789,17.899999618530273,85.0999984741211,19.600000381469727,84.5,20.600000381469727C83.9000015258789,21.600000381469727,82.30000305175781,22.100000381469727,80.69999694824219,22.700000762939453C79,23.299999237060547,77.0999984741211,23.899999618530273,77,24.899999618530273C76.9000015258789,25.899999618530273,78.69999694824219,26.799999237060547,80.30000305175781,27.600000381469727C81.9000015258789,28.399999618530273,83.30000305175781,29.100000381469727,83.80000305175781,30.200000762939453C84.30000305175781,31.299999237060547,83.9000015258789,33,83.4000015258789,34.70000076293945C83,36.400001525878906,82.5,38.20000076293945,83.19999694824219,38.79999923706055C83.9000015258789,39.29999923706055,85.5,38.29999923706055,87,37.400001525878906C88.5,36.400001525878906,89.80000305175781,35.599998474121094,91,35.599998474121094zM95,74.5C94,74.5,93,73.5999984741211,91.80000305175781,72.5999984741211C90.80000305175781,71.80000305175781,89.80000305175781,70.9000015258789,89.0999984741211,70.9000015258789L89.0999984741211,70.9000015258789C88.30000305175781,70.9000015258789,87.19999694824219,71.5999984741211,86.19999694824219,72.19999694824219C85,72.9000015258789,84,73.5999984741211,83,73.5999984741211L83,73.5999984741211C82.69999694824219,73.5999984741211,82.4000015258789,73.5,82.0999984741211,73.30000305175781C81.0999984741211,72.5,81.5,70.9000015258789,82,69.0999984741211C82.30000305175781,67.9000015258789,82.69999694824219,66.5999984741211,82.4000015258789,65.9000015258789C82.0999984741211,65.30000305175781,81,64.69999694824219,79.9000015258789,64.19999694824219C78.30000305175781,63.400001525878906,76.5999984741211,62.5,76.69999694824219,61.20000076293945C76.80000305175781,59.900001525878906,78.5999984741211,59.29999923706055,80.30000305175781,58.70000076293945C81.4000015258789,58.29999923706055,82.69999694824219,57.900001525878906,83,57.400001525878906C83.4000015258789,56.79999923706055,83.19999694824219,55.400001525878906,83.0999984741211,54.20000076293945C82.9000015258789,52.400001525878906,82.69999694824219,50.70000076293945,83.80000305175781,50.099998474121094C84,50,84.19999694824219,49.900001525878906,84.5,49.900001525878906C85.5,49.900001525878906,86.5,50.79999923706055,87.69999694824219,51.79999923706055C88.69999694824219,52.599998474121094,89.69999694824219,53.5,90.4000015258789,53.5L90.4000015258789,53.5C91.19999694824219,53.5,92.30000305175781,52.79999923706055,93.30000305175781,52.20000076293945C94.5,51.5,95.5,50.79999923706055,96.5,50.79999923706055C96.80000305175781,50.79999923706055,97.0999984741211,50.900001525878906,97.4000015258789,51.099998474121094C98.4000015258789,51.900001525878906,98,53.5,97.5,55.29999923706055C97.19999694824219,56.5,96.80000305175781,57.79999923706055,97.0999984741211,58.5C97.4000015258789,59.099998474121094,98.5,59.70000076293945,99.5999984741211,60.20000076293945C101.19999694824219,61,102.9000015258789,61.900001525878906,102.80000305175781,63.20000076293945C102.69999694824219,64.5,100.9000015258789,65.0999984741211,99.19999694824219,65.69999694824219C98.0999984741211,66.0999984741211,96.80000305175781,66.5,96.5,67C96.0999984741211,67.5999984741211,96.30000305175781,69,96.4000015258789,70.19999694824219C96.5999984741211,72,96.80000305175781,73.80000305175781,95.69999694824219,74.4000015258789C95.5,74.4000015258789,95.30000305175781,74.5,95,74.5zM89.0999984741211,70.0999984741211L89.0999984741211,70.0999984741211C90.19999694824219,70.19999694824219,91.19999694824219,71.0999984741211,92.30000305175781,72C93.4000015258789,72.9000015258789,94.5999984741211,73.9000015258789,95.19999694824219,73.5999984741211C95.80000305175781,73.30000305175781,95.5999984741211,71.69999694824219,95.5,70.30000305175781C95.30000305175781,68.80000305175781,95.19999694824219,67.4000015258789,95.69999694824219,66.5999984741211C96.19999694824219,65.80000305175781,97.5,65.4000015258789,98.80000305175781,64.9000015258789C100.19999694824219,64.4000015258789,101.80000305175781,63.900001525878906,101.80000305175781,63.099998474121094C101.9000015258789,62.29999923706055,100.4000015258789,61.599998474121094,99.0999984741211,60.900001525878906C97.80000305175781,60.20000076293945,96.5999984741211,59.599998474121094,96.19999694824219,58.79999923706055C95.80000305175781,57.900001525878906,96.19999694824219,56.5,96.5,55.099998474121094C96.9000015258789,53.70000076293945,97.30000305175781,52.20000076293945,96.69999694824219,51.79999923706055C96.19999694824219,51.400001525878906,94.80000305175781,52.20000076293945,93.5999984741211,53C92.4000015258789,53.79999923706055,91.30000305175781,54.5,90.30000305175781,54.5L90.19999694824219,54.5C89.19999694824219,54.400001525878906,88.19999694824219,53.5,87.0999984741211,52.599998474121094C86,51.70000076293945,84.80000305175781,50.70000076293945,84.19999694824219,51C83.5999984741211,51.29999923706055,83.80000305175781,52.900001525878906,83.9000015258789,54.29999923706055C84.0999984741211,55.79999923706055,84.19999694824219,57.20000076293945,83.69999694824219,58C83.19999694824219,58.79999923706055,81.9000015258789,59.20000076293945,80.5999984741211,59.70000076293945C79.19999694824219,60.20000076293945,77.5999984741211,60.70000076293945,77.5999984741211,61.5C77.5,62.29999923706055,79,63,80.30000305175781,63.70000076293945C81.5999984741211,64.4000015258789,82.80000305175781,65,83.19999694824219,65.80000305175781C83.5999984741211,66.69999694824219,83.19999694824219,68.0999984741211,82.9000015258789,69.5C82.5,70.9000015258789,82.0999984741211,72.4000015258789,82.69999694824219,72.80000305175781C82.80000305175781,72.9000015258789,82.9000015258789,72.9000015258789,83.0999984741211,72.9000015258789L83.0999984741211,72.9000015258789C83.80000305175781,72.9000015258789,84.80000305175781,72.19999694824219,85.80000305175781,71.5999984741211C87.0999984741211,70.80000305175781,88.19999694824219,70.0999984741211,89.0999984741211,70.0999984741211z"/>
<path id="centerDraw" fill="#FFB624" d="M45.099998474121094,46.20000076293945C47,45.400001525878906,52.20000076293945,44.29999923706055,53,44.29999923706055C53.79999923706055,44.29999923706055,55.70000076293945,47.099998474121094,55,49C54.29999923706055,50.900001525878906,50.20000076293945,55,48.5,55.29999923706055S43.20000076293945,47,45.099998474121094,46.20000076293945zM99.19999694824219,24.899999618530273C97.30000305175781,24.200000762939453,92,23.299999237060547,91.19999694824219,23.299999237060547C90.4000015258789,23.299999237060547,88.5999984741211,26.200000762939453,89.4000015258789,28.100000381469727C90.19999694824219,30,94.4000015258789,33.900001525878906,96.0999984741211,34.20000076293945C97.80000305175781,34.400001525878906,101.0999984741211,25.600000381469727,99.19999694824219,24.899999618530273zM95.80000305175781,61.29999923706055C94.19999694824219,60.70000076293945,89.9000015258789,60,89.19999694824219,60C88.5,60,87.0999984741211,62.400001525878906,87.69999694824219,63.900001525878906C88.30000305175781,65.4000015258789,91.80000305175781,68.69999694824219,93.19999694824219,68.9000015258789C94.69999694824219,69.0999984741211,97.4000015258789,61.900001525878906,95.80000305175781,61.29999923706055z"/>
<path id="centercircleBorder" fill="#EF8200" d="M51.599998474121094,50.099998474121094C51.900001525878906,52.79999923706055,50.099998474121094,55.20000076293945,47.599998474121094,55.5C45.099998474121094,55.79999923706055,42.79999923706055,53.79999923706055,42.5,51.099998474121094C42.20000076293945,48.400001525878906,44,46,46.5,45.70000076293945C49.099998474121094,45.5,51.29999923706055,47.400001525878906,51.599998474121094,50.099998474121094zM92.80000305175781,29.100000381469727C92.5999984741211,31.799999237060547,94.5,34.20000076293945,97,34.29999923706055C99.5,34.5,101.69999694824219,32.400001525878906,101.9000015258789,29.700000762939453C102.0999984741211,27,100.19999694824219,24.600000381469727,97.69999694824219,24.5C95.0999984741211,24.299999237060547,92.9000015258789,26.399999618530273,92.80000305175781,29.100000381469727zM90.5999984741211,64.69999694824219C90.4000015258789,66.9000015258789,92,68.9000015258789,94,69C96.0999984741211,69.0999984741211,97.9000015258789,67.5,98,65.19999694824219C98.19999694824219,63,96.5999984741211,61,94.5,60.900001525878906C92.5,60.79999923706055,90.69999694824219,62.5,90.5999984741211,64.69999694824219z"/>
</g>
</svg>