<svg xmlns="http://www.w3.org/2000/svg" xmlns:xlink="http://www.w3.org/1999/xlink" viewBox= "0 0 201 406" width="201px" height="406px">
<g xmlns="http://www.w3.org/2000/svg" id="Evergreen.svg">
<path id="eBorder" fill="#725721" d="M124.69999694824219,376.79998779296875C123.5,381.5,91.9000015258789,394.79998779296875,76.5999984741211,374.70001220703125C74.19999694824219,372.29998779296875,97.4000015258789,334.5,78.5,289.6000061035156C92.69999694824219,275.3999938964844,122.19999694824219,277.79998779296875,119.9000015258789,289.6000061035156C105.69999694824219,360.79998779296875,125.9000015258789,372.1000061035156,124.69999694824219,376.79998779296875L124.69999694824219,376.79998779296875z"/>
<path id="evergreenDraw" fill="#33871B" d="M95.4000015258789,10L60.400001525878906,103.0999984741211L75.0999984741211,94.69999694824219L29.600000381469727,183.6999969482422L57.20000076293945,170.3000030517578L15.600000381469727,257.79998779296875L39.599998474121094,254.5C39.599998474121094,254.5,10,314.8999938964844,14.399999618530273,323.1000061035156C85.5999984741211,341.8999938964844,129.60000610351562,339.20001220703125,189.60000610351562,324.29998779296875L161.60000610351562,255.29998779296875L185.60000610351562,261L145.60000610351562,176.1999969482422L168.60000610351562,184.10000610351562L123.30000305175781,94.5999984741211L139.1999969482422,99.80000305175781L95.4000015258789,10z"/>
</g>
</svg>