<svg xmlns="http://www.w3.org/2000/svg" xmlns:xlink="http://www.w3.org/1999/xlink" viewBox= "0 0 209 442" width="209px" height="442px">
<g xmlns="http://www.w3.org/2000/svg" id="FarmerV2.svg">
<path id="shoe" fill="#845C47" d="M158.89999389648438,390.8999938964844C162.8000030517578,394,171,402.6000061035156,179.10000610351562,403.70001220703125C188,405.1000061035156,191.6999969482422,421.5,179.8000030517578,424.5C176.5,424.8999938964844,162,429.3999938964844,150.60000610351562,417.79998779296875C146.39999389648438,413.70001220703125,137.5,415,136,410.6000061035156C134.60000610351562,406.20001220703125,134.39999389648438,395.8999938964844,136.39999389648438,395.20001220703125C138.39999389648438,394.6000061035156,155,387.79998779296875,158.89999389648438,390.8999938964844zM80,392.79998779296875C76.5999984741211,396.3999938964844,69.5999984741211,406.1000061035156,61.79999923706055,408.29998779296875C53.20000076293945,411,51.900001525878906,427.70001220703125,64.0999984741211,429C67.4000015258789,429,82.4000015258789,431.29998779296875,92.0999984741211,418.20001220703125C95.69999694824219,413.6000061035156,104.69999694824219,413.6000061035156,105.5,409C106.30000305175781,404.3999938964844,105,394.29998779296875,103,394C100.9000015258789,393.6000061035156,83.5,389.20001220703125,80,392.79998779296875z"/>
<path id="soles" fill="#684734" d="M144.5,411.6000061035156C152.1999969482422,413.5,153.6999969482422,416.8999938964844,161.8000030517578,419.5C168.6999969482422,421.79998779296875,172.6999969482422,420.29998779296875,187,417.8999938964844C186.10000610351562,420.79998779296875,183.89999389648438,423.3999938964844,179.89999389648438,424.3999938964844C176.60000610351562,424.79998779296875,162.10000610351562,429.29998779296875,150.6999969482422,417.70001220703125C146.5,413.6000061035156,137.60000610351562,414.8999938964844,136.10000610351562,410.5C135.8000030517578,409.5,135.5,408.29998779296875,135.3000030517578,407C137.3000030517578,408.70001220703125,140.39999389648438,410.6000061035156,144.5,411.6000061035156zM97.30000305175781,411.3999938964844C90,414.29998779296875,88.9000015258789,417.8999938964844,81.30000305175781,421.70001220703125C74.80000305175781,425,70.5999984741211,424,56.20000076293945,423.70001220703125C57.5,426.5,60.099998474121094,428.70001220703125,64.0999984741211,429.1000061035156C67.4000015258789,429.1000061035156,82.4000015258789,431.3999938964844,92.0999984741211,418.29998779296875C95.69999694824219,413.70001220703125,104.69999694824219,413.70001220703125,105.5,409.1000061035156C105.69999694824219,408.1000061035156,105.69999694824219,406.79998779296875,105.69999694824219,405.5C104,407.3999938964844,101.19999694824219,409.79998779296875,97.30000305175781,411.3999938964844z"/>
<path id="shoeBorder" d="M169.89999389648438,427.29998779296875C163.8000030517578,427.29998779296875,156.10000610351562,425.70001220703125,149.5,418.8999938964844C147.89999389648438,417.29998779296875,145.1999969482422,416.70001220703125,142.60000610351562,416C139.1999969482422,415.1000061035156,135.6999969482422,414.29998779296875,134.60000610351562,411.1000061035156C133.1999969482422,407,132.89999389648438,398.20001220703125,134.39999389648438,395.20001220703125C134.8000030517578,394.3999938964844,135.3000030517578,393.8999938964844,136,393.70001220703125C136.3000030517578,393.6000061035156,136.6999969482422,393.3999938964844,137.39999389648438,393.20001220703125C150.39999389648438,388.3999938964844,157.1999969482422,387.3999938964844,160,389.6000061035156L160,389.6000061035156C160.8000030517578,390.20001220703125,161.6999969482422,391,162.8000030517578,391.8999938964844C167,395.6000061035156,173.39999389648438,401.20001220703125,179.39999389648438,402L179.5,402C185.39999389648438,403,188.8000030517578,409.1000061035156,189,414.20001220703125C189.3000030517578,420,185.89999389648438,424.5,180.1999969482422,426C180.10000610351562,426,180.10000610351562,426,180,426C179.6999969482422,426,179.1999969482422,426.1000061035156,178.6999969482422,426.20001220703125C176.8000030517578,426.70001220703125,173.60000610351562,427.29998779296875,169.89999389648438,427.29998779296875zM68.80000305175781,430.79998779296875C67.5,430.79998779296875,66.4000015258789,430.70001220703125,65.5,430.70001220703125C64.9000015258789,430.70001220703125,64.5,430.70001220703125,64.0999984741211,430.70001220703125C64,430.70001220703125,64,430.70001220703125,63.900001525878906,430.70001220703125C58.099998474121094,430.1000061035156,54.099998474121094,426.1000061035156,53.599998474121094,420.29998779296875C53.099998474121094,415.1000061035156,55.599998474121094,408.6000061035156,61.29999923706055,406.79998779296875L61.400001525878906,406.79998779296875C67.19999694824219,405.1000061035156,72.80000305175781,398.70001220703125,76.4000015258789,394.5C77.30000305175781,393.3999938964844,78.0999984741211,392.5,78.80000305175781,391.79998779296875L78.80000305175781,391.79998779296875C81.30000305175781,389.1000061035156,88.19999694824219,389.20001220703125,101.69999694824219,392.1000061035156C102.4000015258789,392.20001220703125,102.9000015258789,392.3999938964844,103.19999694824219,392.3999938964844C103.9000015258789,392.5,104.5,392.8999938964844,105,393.6000061035156C106.9000015258789,396.29998779296875,107.80000305175781,405.1000061035156,107.0999984741211,409.3999938964844C106.5,412.70001220703125,103.0999984741211,414.1000061035156,99.9000015258789,415.3999938964844C97.4000015258789,416.3999938964844,94.80000305175781,417.5,93.4000015258789,419.29998779296875C85.80000305175781,429.5,75.19999694824219,430.79998779296875,68.80000305175781,430.79998779296875zM80.5999984741211,420.20001220703125C84,418.5,86,416.8999938964844,88,415.29998779296875C90.4000015258789,413.3999938964844,92.5999984741211,411.6000061035156,96.69999694824219,409.8999938964844C100.0999984741211,408.5,102.5999984741211,406.5,104.0999984741211,404.8999938964844C104,401,103.19999694824219,396.6000061035156,102.4000015258789,395.6000061035156C102.0999984741211,395.5,101.5999984741211,395.3999938964844,101.0999984741211,395.29998779296875C85.80000305175781,392,82.0999984741211,393.1000061035156,81.19999694824219,394C80.5999984741211,394.70001220703125,79.80000305175781,395.6000061035156,78.9000015258789,396.6000061035156C76.30000305175781,399.6000061035156,72.9000015258789,403.6000061035156,69,406.5C71.9000015258789,407,74.5999984741211,408.1000061035156,76.5,409.8999938964844C77.19999694824219,410.5,77.19999694824219,411.5,76.5999984741211,412.20001220703125C76,412.8999938964844,75,412.8999938964844,74.30000305175781,412.29998779296875C71.69999694824219,409.8999938964844,66.9000015258789,408.8999938964844,62.29999923706055,410C58.400001525878906,411.20001220703125,56.5,416.1000061035156,56.900001525878906,420.1000061035156C57,420.6000061035156,57.099998474121094,421.3999938964844,57.29999923706055,422.20001220703125C59.5,422.29998779296875,61.599998474121094,422.29998779296875,63.29999923706055,422.3999938964844C72.30000305175781,422.6000061035156,75.69999694824219,422.70001220703125,80.5999984741211,420.20001220703125zM82,423.1000061035156C77.9000015258789,425.1000061035156,74.69999694824219,425.6000061035156,69.80000305175781,425.6000061035156C67.9000015258789,425.6000061035156,65.69999694824219,425.5,63.20000076293945,425.3999938964844C62,425.3999938964844,60.70000076293945,425.29998779296875,59.29999923706055,425.29998779296875C60.400001525878906,426.29998779296875,61.900001525878906,427.1000061035156,64.0999984741211,427.3999938964844C64.5,427.3999938964844,65,427.3999938964844,65.5,427.5C70.5999984741211,427.70001220703125,82.5,428.29998779296875,90.5999984741211,417.29998779296875C90.69999694824219,417.1000061035156,90.9000015258789,417,91,416.79998779296875C90.5999984741211,417.1000061035156,90.19999694824219,417.3999938964844,89.80000305175781,417.79998779296875C88,419.3999938964844,85.80000305175781,421.29998779296875,82,423.1000061035156zM103.4000015258789,409.79998779296875C102.69999694824219,410.3999938964844,101.80000305175781,410.8999938964844,100.9000015258789,411.3999938964844C102,410.8999938964844,102.9000015258789,410.3999938964844,103.4000015258789,409.79998779296875zM168.39999389648438,422.29998779296875C166,422.29998779296875,163.8000030517578,421.8999938964844,161.1999969482422,421.1000061035156C157.3000030517578,419.79998779296875,154.8000030517578,418.29998779296875,152.60000610351562,416.8999938964844C152.1999969482422,416.6000061035156,151.6999969482422,416.3999938964844,151.3000030517578,416.1000061035156C151.5,416.20001220703125,151.60000610351562,416.3999938964844,151.8000030517578,416.5C161.39999389648438,426.29998779296875,173.10000610351562,424,178.10000610351562,423C178.6999969482422,422.8999938964844,179.1999969482422,422.79998779296875,179.5,422.70001220703125C181.6999969482422,422.1000061035156,183.10000610351562,421.1000061035156,184,420C182.60000610351562,420.20001220703125,181.39999389648438,420.5,180.1999969482422,420.70001220703125C175.10000610351562,421.70001220703125,171.60000610351562,422.29998779296875,168.39999389648438,422.29998779296875zM140.89999389648438,412.20001220703125C139.89999389648438,411.79998779296875,139,411.3999938964844,138.1999969482422,410.8999938964844C138.8000030517578,411.5,139.8000030517578,411.8999938964844,140.89999389648438,412.20001220703125zM154.1999969482422,414.20001220703125C156.39999389648438,415.5,158.60000610351562,416.8999938964844,162.1999969482422,418.1000061035156C167.39999389648438,419.79998779296875,170.6999969482422,419.20001220703125,179.60000610351562,417.70001220703125C181.39999389648438,417.3999938964844,183.3000030517578,417,185.60000610351562,416.70001220703125C185.6999969482422,415.8999938964844,185.8000030517578,415.1000061035156,185.6999969482422,414.5C185.5,410.5,182.89999389648438,406,178.89999389648438,405.29998779296875C174.3000030517578,404.8999938964844,169.6999969482422,406.5,167.39999389648438,409.29998779296875C166.8000030517578,410,165.8000030517578,410.1000061035156,165.10000610351562,409.5C164.39999389648438,408.8999938964844,164.3000030517578,407.8999938964844,164.89999389648438,407.20001220703125C166.5,405.20001220703125,169,403.70001220703125,171.8000030517578,402.79998779296875C167.5,400.5,163.5,397,160.60000610351562,394.3999938964844C159.60000610351562,393.5,158.6999969482422,392.70001220703125,158,392.20001220703125C157,391.3999938964844,153.10000610351562,390.8999938964844,138.5,396.29998779296875C138,396.5,137.5,396.70001220703125,137.1999969482422,396.79998779296875C136.60000610351562,397.8999938964844,136.39999389648438,402.3999938964844,136.8000030517578,406.29998779296875C138.60000610351562,407.70001220703125,141.3000030517578,409.3999938964844,144.89999389648438,410.20001220703125C149.1999969482422,411.1000061035156,151.60000610351562,412.6000061035156,154.1999969482422,414.20001220703125z"/>
<path id="pants" fill="#6FAED8" d="M78.30000305175781,252.8000030517578C76.0999984741211,284.29998779296875,75.5,354.70001220703125,75.80000305175781,358.5C76.0999984741211,362.29998779296875,73.69999694824219,398.1000061035156,73.69999694824219,398.1000061035156C73.69999694824219,398.1000061035156,78.9000015258789,392,87.30000305175781,393.3999938964844C95.69999694824219,394.79998779296875,106.19999694824219,400.70001220703125,106.69999694824219,402.79998779296875C107.19999694824219,405.3999938964844,107.69999694824219,388.29998779296875,108.4000015258789,386.20001220703125C109.0999984741211,384.1000061035156,117.69999694824219,306.6000061035156,117.69999694824219,301.29998779296875C117.69999694824219,296.1000061035156,118.9000015258789,290.29998779296875,119.5999984741211,291.1000061035156C125.5999984741211,307,131.6999969482422,379.6000061035156,132,385.5C132.3000030517578,391.3999938964844,131.8000030517578,406.1000061035156,133.60000610351562,407.8999938964844C135.3000030517578,409.6000061035156,137.8000030517578,402.1000061035156,144.8000030517578,399C151.8000030517578,395.8999938964844,163.60000610351562,394.1000061035156,166,395.20001220703125C168.39999389648438,396.20001220703125,156.1999969482422,268.6000061035156,156.10000610351562,250.8000030517578C152.39999389648438,248.8000030517578,82.0999984741211,244.60000610351562,78.30000305175781,252.8000030517578z"/>
<path id="pantsBorder" d="M134.1999969482422,409.8999938964844C133.60000610351562,409.8999938964844,133,409.6000061035156,132.5,409.20001220703125C131,407.70001220703125,130.6999969482422,403.5,130.60000610351562,392.3999938964844C130.60000610351562,389.79998779296875,130.5,387.3999938964844,130.39999389648438,385.70001220703125C130.10000610351562,380.5,124.9000015258789,319,119.5,296.79998779296875C119.30000305175781,298.20001220703125,119.19999694824219,299.79998779296875,119.19999694824219,301.3999938964844C119.19999694824219,306.20001220703125,110.5999984741211,384.3999938964844,109.80000305175781,386.79998779296875C109.5,387.6000061035156,109.19999694824219,392.5,109,395.70001220703125C108.9000015258789,397.70001220703125,108.69999694824219,399.6000061035156,108.5999984741211,400.8999938964844C108.4000015258789,403.20001220703125,108.30000305175781,404.6000061035156,106.69999694824219,404.70001220703125C106.5999984741211,404.70001220703125,105.30000305175781,404.70001220703125,104.9000015258789,403.20001220703125C103.9000015258789,401.5,94.5999984741211,396.29998779296875,86.80000305175781,395C79.4000015258789,393.79998779296875,74.69999694824219,399.1000061035156,74.69999694824219,399.20001220703125C74.19999694824219,399.70001220703125,73.5,399.8999938964844,72.9000015258789,399.6000061035156C72.30000305175781,399.29998779296875,71.80000305175781,398.70001220703125,71.9000015258789,398C72.5999984741211,388.1000061035156,74.30000305175781,361.70001220703125,74,358.6000061035156C73.69999694824219,355,74.19999694824219,284.6000061035156,76.5,252.60000610351562C76.5,252.39999389648438,76.5999984741211,252.1999969482422,76.5999984741211,252C77.19999694824219,250.6999969482422,78.69999694824219,249.60000610351562,81.19999694824219,248.8000030517578C96.80000305175781,243.6999969482422,153.10000610351562,247.3000030517578,156.89999389648438,249.39999389648438C157.39999389648438,249.6999969482422,157.6999969482422,250.1999969482422,157.6999969482422,250.8000030517578C157.6999969482422,258.5,160,286.70001220703125,162.5,316.6000061035156C168.6999969482422,392,168.5,395.3999938964844,167,396.5C166.5,396.79998779296875,165.89999389648438,396.8999938964844,165.3000030517578,396.70001220703125C163.6999969482422,396,152.60000610351562,397.29998779296875,145.39999389648438,400.5C142,402,139.6999969482422,404.79998779296875,138,406.79998779296875C136.5,408.6000061035156,135.60000610351562,409.70001220703125,134.1999969482422,409.79998779296875C134.3000030517578,409.8999938964844,134.3000030517578,409.8999938964844,134.1999969482422,409.8999938964844zM121.5999984741211,292C127.5999984741211,310.3999938964844,133.3000030517578,379.79998779296875,133.6999969482422,385.6000061035156C133.8000030517578,387.29998779296875,133.8000030517578,389.79998779296875,133.89999389648438,392.3999938964844C133.89999389648438,396.3999938964844,134,403.5,134.60000610351562,406.1000061035156C134.89999389648438,405.70001220703125,135.3000030517578,405.29998779296875,135.6999969482422,404.79998779296875C137.5,402.70001220703125,140.10000610351562,399.3999938964844,144.1999969482422,397.6000061035156C150.10000610351562,394.8999938964844,160,393,164.8000030517578,393.3999938964844C164.89999389648438,389.20001220703125,164.10000610351562,376.1000061035156,162.8000030517578,360.20001220703125C162.6999969482422,360,162.60000610351562,359.79998779296875,162.5,359.5C161.89999389648438,355.8999938964844,156.39999389648438,353.8999938964844,152,352.29998779296875L151,351.8999938964844C150.1999969482422,351.6000061035156,149.6999969482422,350.70001220703125,150,349.79998779296875C150.3000030517578,349,151.1999969482422,348.5,152.10000610351562,348.79998779296875L153,349.1000061035156C156.10000610351562,350.20001220703125,159.60000610351562,351.5,162.1999969482422,353.5C161.3000030517578,341.6000061035156,160.1999969482422,328.70001220703125,159.3000030517578,316.79998779296875C157,288.20001220703125,154.8000030517578,261.20001220703125,154.5,252C150.39999389648438,251.1999969482422,134.6999969482422,249.8000030517578,116.69999694824219,249.5C90.0999984741211,249.10000610351562,81,251.5,79.69999694824219,253.1999969482422C77.5,285.20001220703125,76.9000015258789,354.70001220703125,77.30000305175781,358.29998779296875C77.5999984741211,361.5,76.0999984741211,385,75.4000015258789,394.3999938964844C78,392.70001220703125,82.0999984741211,390.8999938964844,87.4000015258789,391.79998779296875C93,392.70001220703125,101.19999694824219,396.20001220703125,105.4000015258789,399.3999938964844C105.5,398.20001220703125,105.5999984741211,396.70001220703125,105.69999694824219,395.5C106.0999984741211,390.20001220703125,106.30000305175781,386.8999938964844,106.69999694824219,385.79998779296875C106.9000015258789,384.79998779296875,107.80000305175781,377.5,109,367.70001220703125C108.9000015258789,367.6000061035156,108.9000015258789,367.3999938964844,108.80000305175781,367.29998779296875C108.80000305175781,367.20001220703125,106.30000305175781,356.5,103.5,348C103.19999694824219,347.1000061035156,103.69999694824219,346.20001220703125,104.5,345.8999938964844C105.4000015258789,345.6000061035156,106.30000305175781,346.1000061035156,106.5999984741211,346.8999938964844C107.9000015258789,350.79998779296875,109.0999984741211,355,110,358.6000061035156C112.69999694824219,335,115.9000015258789,304.20001220703125,115.9000015258789,301.3999938964844C115.9000015258789,301.29998779296875,115.9000015258789,290.79998779296875,118.5999984741211,289.70001220703125C118.80000305175781,289.6000061035156,118.9000015258789,289.6000061035156,119.0999984741211,289.6000061035156L126.0999984741211,285.3999938964844C126.9000015258789,284.8999938964844,127.9000015258789,285.20001220703125,128.3000030517578,286C128.8000030517578,286.79998779296875,128.5,287.79998779296875,127.69999694824219,288.20001220703125L121.5999984741211,292zM105.5999984741211,367.5C105.19999694824219,367.5,104.9000015258789,367.3999938964844,104.5999984741211,367.1000061035156L99.30000305175781,362.70001220703125C98.5999984741211,362.1000061035156,98.5,361.1000061035156,99.0999984741211,360.3999938964844C99.69999694824219,359.70001220703125,100.69999694824219,359.6000061035156,101.4000015258789,360.20001220703125L106.69999694824219,364.6000061035156C107.4000015258789,365.20001220703125,107.5,366.20001220703125,106.9000015258789,366.8999938964844C106.5,367.29998779296875,106,367.5,105.5999984741211,367.5zM152.5,364.29998779296875C151.6999969482422,364.29998779296875,150.89999389648438,363.70001220703125,150.89999389648438,362.79998779296875C150.8000030517578,361.8999938964844,151.5,361.1000061035156,152.39999389648438,361.1000061035156C155.3000030517578,360.8999938964844,158.1999969482422,358.79998779296875,158.1999969482422,358.79998779296875C158.89999389648438,358.29998779296875,159.89999389648438,358.3999938964844,160.5,359.1000061035156C161,359.79998779296875,160.89999389648438,360.79998779296875,160.1999969482422,361.3999938964844C160.10000610351562,361.5,156.60000610351562,364.1000061035156,152.6999969482422,364.3999938964844C152.60000610351562,364.29998779296875,152.5,364.29998779296875,152.5,364.29998779296875z"/>
<path id="body" fill="#6B3D1F" d="M161.60000610351562,287.29998779296875C161.89999389648438,285.3999938964844,160.89999389648438,282.29998779296875,161.10000610351562,279.3999938964844C161.10000610351562,278.6000061035156,161.5,286.5,156.89999389648438,285.5C153.1999969482422,278.8999938964844,160.8000030517578,269.20001220703125,161.6999969482422,267.70001220703125C163.60000610351562,264.79998779296875,166.3000030517578,263.20001220703125,167.3000030517578,258C167.8000030517578,255.1999969482422,168.89999389648438,223.60000610351562,166.39999389648438,208.8000030517578C164.1999969482422,195.89999389648438,164.1999969482422,177.1999969482422,164.10000610351562,174.39999389648438C164,168.39999389648438,169.10000610351562,138.60000610351562,174.39999389648438,150.60000610351562C179.6999969482422,162.5,191.6999969482422,196.3000030517578,192.60000610351562,206.10000610351562C193.5,215.89999389648438,181.39999389648438,257.6000061035156,180.89999389648438,259.1000061035156C180.39999389648438,260.70001220703125,179.8000030517578,263.3999938964844,180,265.29998779296875C180.3000030517578,269,180.39999389648438,285.6000061035156,179.5,287.70001220703125C178.60000610351562,289.79998779296875,172.8000030517578,299.79998779296875,162.10000610351562,298.3999938964844C151.3000030517578,297.20001220703125,161.60000610351562,287.29998779296875,161.60000610351562,287.29998779296875zM22.100000381469727,189.10000610351562C22.100000381469727,189.10000610351562,16.100000381469727,198,16.899999618530273,201.1999969482422C17.600000381469727,204.3000030517578,20.600000381469727,207.10000610351562,22.5,209.10000610351562C24.899999618530273,211.60000610351562,50.29999923706055,234.60000610351562,50.29999923706055,234.60000610351562L55.900001525878906,243.8000030517578C55.900001525878906,243.8000030517578,62.20000076293945,248.1999969482422,65.30000305175781,251.3000030517578C66.30000305175781,252.39999389648438,67.4000015258789,251.60000610351562,69.5,249C71.80000305175781,249,73.69999694824219,246,73.19999694824219,244.5C75.0999984741211,244.10000610351562,76.69999694824219,240.60000610351562,76.19999694824219,239.1999969482422C79.5,237.6999969482422,78.5,233.8000030517578,77.9000015258789,233C75.5999984741211,230.6999969482422,73.4000015258789,228.8000030517578,73.4000015258789,228.8000030517578L78.30000305175781,231.6999969482422C78.30000305175781,231.6999969482422,80.19999694824219,229.1999969482422,79.30000305175781,227.10000610351562C78.30000305175781,225,66.69999694824219,219.60000610351562,66.69999694824219,219.60000610351562L58.900001525878906,219.89999389648438L46.099998474121094,194.3000030517578C45.900001525878906,194.3000030517578,37.099998474121094,186.10000610351562,22.100000381469727,189.10000610351562zM130.8000030517578,115C131.39999389648438,120.80000305175781,133.1999969482422,127.30000305175781,138.1999969482422,127.69999694824219C140.8000030517578,127.69999694824219,138.3000030517578,163,115.30000305175781,163C92.30000305175781,163,87.9000015258789,131.8000030517578,88.30000305175781,128.89999389648438C96.4000015258789,129.60000610351562,98.5,120.69999694824219,98.69999694824219,113.4000015258789M150.39999389648438,48.099998474121094C146.60000610351562,31.200000762939453,132.3000030517578,24,115.4000015258789,24C98.4000015258789,24,84.0999984741211,31.299999237060547,80.30000305175781,48.20000076293945C79.5999984741211,51.099998474121094,79.30000305175781,65.0999984741211,79.30000305175781,68.5999984741211C79.30000305175781,82,86.80000305175781,98.80000305175781,88.5999984741211,102.0999984741211C90.4000015258789,105.4000015258789,103,121.4000015258789,115.69999694824219,121.69999694824219C128.3000030517578,122,140.6999969482422,104.9000015258789,142.8000030517578,101.80000305175781C144.89999389648438,98.69999694824219,151.5,81.30000305175781,151.5,68.69999694824219C151.5,65,151.10000610351562,51,150.39999389648438,48.099998474121094z"/>
<path id="face" fill="#FFFFFF" d="M151.5,68.5999984741211C151.5,81.19999694824219,144.89999389648438,98.5999984741211,142.8000030517578,101.69999694824219C140.6999969482422,104.80000305175781,128.39999389648438,121.9000015258789,115.69999694824219,121.5999984741211C103.0999984741211,121.30000305175781,90.4000015258789,105.4000015258789,88.5999984741211,102C86.80000305175781,98.5999984741211,79.30000305175781,82,79.30000305175781,68.5999984741211C79.30000305175781,65.0999984741211,79.5999984741211,51.099998474121094,80.30000305175781,48.20000076293945C84.0999984741211,31.200000762939453,98.4000015258789,24,115.4000015258789,24C132.39999389648438,24,146.60000610351562,31.299999237060547,150.5,48.099998474121094C151.10000610351562,51,151.5,65,151.5,68.5999984741211z"/>
<path id="bodyBorder" d="M66.0999984741211,253.3000030517578C65.5,253.3000030517578,64.80000305175781,253.10000610351562,64,252.39999389648438C61.099998474121094,249.39999389648438,54.900001525878906,245.10000610351562,54.79999923706055,245.10000610351562C54.599998474121094,245,54.5,244.8000030517578,54.29999923706055,244.60000610351562L48.79999923706055,235.60000610351562C46.400001525878906,233.39999389648438,23.399999618530273,212.60000610351562,21.100000381469727,210.1999969482422C20.899999618530273,209.89999389648438,20.600000381469727,209.6999969482422,20.299999237060547,209.39999389648438C18.299999237060547,207.3000030517578,15.800000190734863,204.6999969482422,15.100000381469727,201.60000610351562C14.300000190734863,198.10000610351562,19.100000381469727,190.5,20.600000381469727,188.3000030517578C20.799999237060547,187.89999389648438,21.200000762939453,187.6999969482422,21.600000381469727,187.60000610351562C37.29999923706055,184.60000610351562,46.5,192.89999389648438,46.900001525878906,193.1999969482422C47,193.3000030517578,47.20000076293945,193.5,47.20000076293945,193.6999969482422L59.599998474121094,218.39999389648438L66.30000305175781,218.10000610351562C66.5999984741211,218.10000610351562,66.80000305175781,218.10000610351562,67.0999984741211,218.3000030517578C71.69999694824219,220.39999389648438,79.4000015258789,224.3000030517578,80.5,226.60000610351562C81.80000305175781,229.39999389648438,79.80000305175781,232.3000030517578,79.4000015258789,232.8000030517578C79.9000015258789,233.89999389648438,80.19999694824219,235.60000610351562,79.69999694824219,237.3000030517578C79.4000015258789,238.5,78.69999694824219,239.5,77.69999694824219,240.1999969482422C77.5999984741211,241.3000030517578,77.0999984741211,242.5,76.5999984741211,243.39999389648438C76,244.39999389648438,75.4000015258789,245.10000610351562,74.5999984741211,245.60000610351562C74.5,246.5,74.0999984741211,247.5,73.5,248.39999389648438C72.5999984741211,249.60000610351562,71.30000305175781,250.5,70.0999984741211,250.6999969482422C68.5999984741211,252.5,67.5,253.39999389648438,66.19999694824219,253.5C66.19999694824219,253.3000030517578,66.19999694824219,253.3000030517578,66.0999984741211,253.3000030517578zM57,242.60000610351562C58.29999923706055,243.5,63.400001525878906,247.1999969482422,66.19999694824219,250C66.5,249.8000030517578,67,249.3000030517578,68.0999984741211,248C68.4000015258789,247.60000610351562,68.9000015258789,247.39999389648438,69.4000015258789,247.39999389648438C69.9000015258789,247.39999389648438,70.4000015258789,247.10000610351562,70.9000015258789,246.5C71.4000015258789,245.8000030517578,71.5999984741211,245.1999969482422,71.5,245C71.4000015258789,244.60000610351562,71.4000015258789,244.10000610351562,71.5999984741211,243.6999969482422C71.80000305175781,243.3000030517578,72.19999694824219,243,72.69999694824219,242.89999389648438C73.5,242.6999969482422,74.69999694824219,240.39999389648438,74.5,239.60000610351562C74.19999694824219,238.8000030517578,74.5999984741211,238,75.4000015258789,237.60000610351562C76,237.3000030517578,76.4000015258789,236.89999389648438,76.5999984741211,236.3000030517578C76.9000015258789,235.3000030517578,76.5999984741211,234.3000030517578,76.5,233.89999389648438C74.30000305175781,231.8000030517578,72.19999694824219,229.89999389648438,72.19999694824219,229.89999389648438C71.5999984741211,229.3000030517578,71.4000015258789,228.39999389648438,71.9000015258789,227.6999969482422C72.4000015258789,227,73.30000305175781,226.8000030517578,74.0999984741211,227.3000030517578L77.5,229.39999389648438C77.69999694824219,228.8000030517578,77.80000305175781,228.1999969482422,77.5999984741211,227.8000030517578C76.9000015258789,226.8000030517578,71.19999694824219,223.60000610351562,66.0999984741211,221.3000030517578L58.70000076293945,221.60000610351562C58.099998474121094,221.60000610351562,57.5,221.3000030517578,57.20000076293945,220.6999969482422L44.5,195.39999389648438C43.099998474121094,194.3000030517578,35.5,188.5,22.899999618530273,190.60000610351562C20.299999237060547,194.5,18,199.39999389648438,18.299999237060547,200.8000030517578C18.799999237060547,203.10000610351562,21,205.3000030517578,22.700000762939453,207.10000610351562C23,207.39999389648438,23.200000762939453,207.6999969482422,23.5,207.89999389648438C25.299999237060547,209.89999389648438,42.400001525878906,225.39999389648438,51.20000076293945,233.3000030517578C51.29999923706055,233.39999389648438,51.400001525878906,233.5,51.5,233.6999969482422L57,242.60000610351562zM115.30000305175781,164.6999969482422C108.19999694824219,164.6999969482422,102.0999984741211,161.89999389648438,97.19999694824219,156.39999389648438C88.4000015258789,146.5,86.4000015258789,131.1999969482422,86.69999694824219,128.8000030517578C86.80000305175781,127.9000015258789,87.5999984741211,127.30000305175781,88.5,127.4000015258789C90.4000015258789,127.5999984741211,92,127.0999984741211,93.30000305175781,126C95.5,124,96.9000015258789,119.9000015258789,97.0999984741211,114.30000305175781C91.69999694824219,109.5,87.9000015258789,104.19999694824219,87.19999694824219,102.9000015258789C85.30000305175781,99.4000015258789,77.69999694824219,82.4000015258789,77.69999694824219,68.5999984741211C77.69999694824219,65.30000305175781,78,51,78.69999694824219,47.79999923706055C82.4000015258789,31.600000381469727,95.69999694824219,22.399999618530273,115.4000015258789,22.399999618530273C135,22.399999618530273,148.39999389648438,31.600000381469727,152.10000610351562,47.79999923706055C152.8000030517578,51,153.1999969482422,65.30000305175781,153.1999969482422,68.69999694824219C153.1999969482422,81.9000015258789,146.39999389648438,99.5999984741211,144.1999969482422,102.69999694824219C142.89999389648438,104.5999984741211,138.5,110.69999694824219,132.60000610351562,115.80000305175781C133.1999969482422,120.5,134.6999969482422,125.80000305175781,138.39999389648438,126.19999694824219C140.6999969482422,126.30000305175781,140.6999969482422,129.8000030517578,140.6999969482422,131.3000030517578C140.6999969482422,136.5,139.10000610351562,144.60000610351562,135.60000610351562,151.3000030517578C130.89999389648438,160.10000610351562,123.9000015258789,164.6999969482422,115.30000305175781,164.6999969482422zM89.9000015258789,130.60000610351562C90.30000305175781,134.89999389648438,92.69999694824219,146.5,99.5,154.1999969482422C103.80000305175781,159,109.0999984741211,161.39999389648438,115.19999694824219,161.39999389648438C121.80000305175781,161.39999389648438,127.19999694824219,158.1999969482422,131.3000030517578,151.89999389648438C136.8000030517578,143.3000030517578,137.6999969482422,131.89999389648438,137.1999969482422,129.1999969482422C134.3000030517578,128.60000610351562,130.89999389648438,126,129.5,118C125.30000305175781,121.0999984741211,120.5,123.30000305175781,115.5999984741211,123.19999694824219C110,123.0999984741211,104.5999984741211,120.19999694824219,100,116.69999694824219C99.5,120.9000015258789,98.30000305175781,125.5999984741211,95.30000305175781,128.3000030517578C93.80000305175781,129.6999969482422,92,130.5,89.9000015258789,130.60000610351562zM115.4000015258789,25.600000381469727C104.80000305175781,25.600000381469727,86.4000015258789,28.600000381469727,81.9000015258789,48.5C81.30000305175781,51.099998474121094,80.9000015258789,64.5,80.9000015258789,68.5999984741211C80.9000015258789,81.80000305175781,88.5,98.5999984741211,90,101.30000305175781C91.80000305175781,104.5,104.0999984741211,119.69999694824219,115.69999694824219,120C115.80000305175781,120,115.9000015258789,120,116,120C128,120,140.10000610351562,102.69999694824219,141.39999389648438,100.80000305175781C143.1999969482422,98.0999984741211,149.8000030517578,81.19999694824219,149.8000030517578,68.5999984741211C149.8000030517578,64.5,149.39999389648438,51.099998474121094,148.8000030517578,48.5C144.3000030517578,28.5,125.9000015258789,25.600000381469727,115.4000015258789,25.600000381469727zM164.10000610351562,300.29998779296875L164.10000610351562,300.29998779296875C163.39999389648438,300.29998779296875,162.60000610351562,300.29998779296875,161.89999389648438,300.20001220703125C158.5,299.79998779296875,156.5,298.5,155.8000030517578,296.3999938964844C154.60000610351562,292.70001220703125,158.5,288.29998779296875,160.10000610351562,286.70001220703125L160.10000610351562,286.6000061035156C159.1999969482422,287.20001220703125,158,287.5,156.6999969482422,287.20001220703125C156.1999969482422,287.1000061035156,155.8000030517578,286.79998779296875,155.60000610351562,286.3999938964844C151.6999969482422,279.5,158.10000610351562,270.3999938964844,160.10000610351562,267.3999938964844C160.3000030517578,267.20001220703125,160.39999389648438,267,160.5,266.8999938964844C161.10000610351562,266,161.8000030517578,265.20001220703125,162.39999389648438,264.5C163.89999389648438,262.79998779296875,165.1999969482422,261.1000061035156,165.8000030517578,257.8999938964844C166.1999969482422,255.6999969482422,167.39999389648438,224.10000610351562,164.89999389648438,209.3000030517578C162.89999389648438,197.5,162.6999969482422,181.3000030517578,162.60000610351562,176C162.60000610351562,175.39999389648438,162.60000610351562,175,162.60000610351562,174.6999969482422C162.5,170.10000610351562,165.3000030517578,151.89999389648438,169.5,147.60000610351562C170.3000030517578,146.8000030517578,171.10000610351562,146.39999389648438,172,146.39999389648438C174.39999389648438,146.39999389648438,175.6999969482422,149.1999969482422,176.10000610351562,150.10000610351562C181.39999389648438,161.89999389648438,193.5,196.10000610351562,194.39999389648438,206.10000610351562C195.39999389648438,216.5,182.6999969482422,259.3999938964844,182.60000610351562,259.79998779296875C182.10000610351562,261.29998779296875,181.60000610351562,263.79998779296875,181.8000030517578,265.29998779296875C182,268.29998779296875,182.3000030517578,285.79998779296875,181.1999969482422,288.5C179.60000610351562,291.70001220703125,173.8000030517578,300.29998779296875,164.10000610351562,300.29998779296875zM191,206.3000030517578C190.10000610351562,196.6999969482422,178.10000610351562,162.6999969482422,173,151.3000030517578C172.39999389648438,150,172,149.60000610351562,171.89999389648438,149.5C169.39999389648438,150.6999969482422,165.6999969482422,168.5,165.8000030517578,174.39999389648438C165.8000030517578,174.6999969482422,165.8000030517578,175.10000610351562,165.8000030517578,175.6999969482422C165.89999389648438,181,166.10000610351562,197,168.10000610351562,208.60000610351562C170.60000610351562,223.5,169.60000610351562,255.3000030517578,169,258.29998779296875C168.1999969482422,262.3999938964844,166.39999389648438,264.5,164.8000030517578,266.3999938964844C164.1999969482422,267.1000061035156,163.60000610351562,267.79998779296875,163.1999969482422,268.5C163.10000610351562,268.6000061035156,163,268.79998779296875,162.8000030517578,269.1000061035156C158.39999389648438,275.5,156.8000030517578,280.3999938964844,158.10000610351562,283.79998779296875C159.3000030517578,283.3999938964844,159.5,280.79998779296875,159.60000610351562,280.20001220703125C159.60000610351562,279.79998779296875,159.60000610351562,279.5,159.60000610351562,279.20001220703125C159.60000610351562,278.29998779296875,160.39999389648438,277.6000061035156,161.1999969482422,277.6000061035156C161.6999969482422,277.6000061035156,162.10000610351562,277.79998779296875,162.39999389648438,278.1000061035156C162.89999389648438,278.6000061035156,162.89999389648438,279.1000061035156,162.8000030517578,280.29998779296875C162.8000030517578,281.29998779296875,163,282.3999938964844,163.10000610351562,283.3999938964844C163.3000030517578,284.8999938964844,163.5,286.20001220703125,163.3000030517578,287.3999938964844C163.3000030517578,287.79998779296875,163.10000610351562,288.1000061035156,162.8000030517578,288.3999938964844C160.89999389648438,290.20001220703125,158.39999389648438,293.6000061035156,158.89999389648438,295.20001220703125C159.10000610351562,295.8999938964844,160.1999969482422,296.29998779296875,161.1999969482422,296.6000061035156C162.60000610351562,295.8999938964844,167.1999969482422,289.70001220703125,169.3000030517578,286.3999938964844C169.60000610351562,285.8999938964844,170.1999969482422,285.79998779296875,170.6999969482422,286.1000061035156C171.1999969482422,286.3999938964844,171.3000030517578,287,171,287.5C170.89999389648438,287.6000061035156,167.10000610351562,293.79998779296875,163.8000030517578,297C163.89999389648438,297,164,297,164.10000610351562,297C164.5,297,164.8000030517578,297,165.1999969482422,296.8999938964844C167.3000030517578,295.8999938964844,171.89999389648438,290.5,172.60000610351562,288.1000061035156C172.8000030517578,287.6000061035156,173.3000030517578,287.29998779296875,173.8000030517578,287.3999938964844C174.3000030517578,287.6000061035156,174.60000610351562,288.1000061035156,174.5,288.6000061035156C174,290.29998779296875,171.89999389648438,293.20001220703125,169.6999969482422,295.6000061035156C175.3000030517578,292.8999938964844,178,287.1000061035156,178,287C178.6999969482422,285.20001220703125,178.6999969482422,269.70001220703125,178.39999389648438,265.3999938964844C178.10000610351562,263,178.89999389648438,260,179.39999389648438,258.6000061035156C180,256.79998779296875,191.89999389648438,215.6999969482422,191,206.3000030517578z"/>
<path id="shirt" fill="#E52E2E" d="M165.3000030517578,208.10000610351562L165.1999969482422,208.10000610351562L165.89999389648438,216.8000030517578L196.39999389648438,217L195.39999389648438,198.5L193.6999969482422,199C187.89999389648438,164.89999389648438,177.10000610351562,134.10000610351562,161.3000030517578,129.5C154.60000610351562,126.4000015258789,143,124.5,137.5,123.80000305175781L134.1999969482422,119.69999694824219L119.19999694824219,144.5L120,145.5L115.30000305175781,152.6999969482422L111.19999694824219,146.1999969482422L112.5,144.3000030517578L95.0999984741211,117.5999984741211L87.5,124.0999984741211C79.5,125.9000015258789,68.0999984741211,129.1999969482422,62.5,134.39999389648438C54.599998474121094,141.6999969482422,30.700000762939453,170.3000030517578,24.700000762939453,177.5C22.700000762939453,176.60000610351562,21.5,176,21.5,176C21.5,176,12.100000381469727,188.60000610351562,12.899999618530273,191.6999969482422C13.699999809265137,194.8000030517578,47.20000076293945,197.1999969482422,47.20000076293945,197.1999969482422C47.20000076293945,197.1999969482422,54,195.10000610351562,53.20000076293945,192.6999969482422C53.20000076293945,192.60000610351562,53.099998474121094,192.5,52.900001525878906,192.3000030517578L69.19999694824219,177.8000030517578C69.19999694824219,177.8000030517578,77.30000305175781,225.39999389648438,77.30000305175781,228.39999389648438C77.30000305175781,232.1999969482422,73.69999694824219,242.39999389648438,75.5,246.1999969482422C77.19999694824219,250,76.5,255.89999389648438,76.5,255.89999389648438S95.80000305175781,263,122,263C148.10000610351562,263,156.10000610351562,255,156.10000610351562,255L156.8000030517578,246.3000030517578L158.6999969482422,226.89999389648438L163.60000610351562,178.3000030517578L165.3000030517578,208.10000610351562z"/>
<path id="buttons" fill="#FFFFFF" d="M112.80000305175781,179.89999389648438C112.80000305175781,181.3000030517578,111.5999984741211,182.5,110.19999694824219,182.5C108.80000305175781,182.5,107.5999984741211,181.3000030517578,107.5999984741211,179.89999389648438C107.5999984741211,178.5,108.80000305175781,177.3000030517578,110.19999694824219,177.3000030517578C111.69999694824219,177.39999389648438,112.80000305175781,178.5,112.80000305175781,179.89999389648438zM111.30000305175781,203.60000610351562C109.9000015258789,203.60000610351562,108.69999694824219,204.8000030517578,108.69999694824219,206.1999969482422C108.69999694824219,207.60000610351562,109.9000015258789,208.8000030517578,111.30000305175781,208.8000030517578C112.69999694824219,208.8000030517578,113.9000015258789,207.60000610351562,113.9000015258789,206.1999969482422S112.69999694824219,203.60000610351562,111.30000305175781,203.60000610351562zM110.5999984741211,229.10000610351562C109.19999694824219,229.10000610351562,108,230.3000030517578,108,231.6999969482422C108,233.10000610351562,109.19999694824219,234.3000030517578,110.5999984741211,234.3000030517578C112,234.3000030517578,113.19999694824219,233.10000610351562,113.19999694824219,231.6999969482422S112,229.10000610351562,110.5999984741211,229.10000610351562z"/>
<path id="shirtBorder" d="M122,264.6000061035156C95.9000015258789,264.6000061035156,76.69999694824219,257.8999938964844,75.9000015258789,257.6000061035156C75.19999694824219,257.29998779296875,74.69999694824219,256.6000061035156,74.80000305175781,255.89999389648438C74.80000305175781,255.8000030517578,75.4000015258789,250.5,73.9000015258789,247.10000610351562C72.5999984741211,244.1999969482422,73.5999984741211,239.10000610351562,74.69999694824219,234.3000030517578C75.19999694824219,232,75.5999984741211,229.8000030517578,75.5999984741211,228.60000610351562C75.5999984741211,226.60000610351562,71.19999694824219,200.1999969482422,68,181.10000610351562L54.79999923706055,192.89999389648438C54.900001525878906,193.5,54.70000076293945,194,54.5,194.60000610351562C53.29999923706055,196.89999389648438,48.900001525878906,198.39999389648438,47.599998474121094,198.8000030517578C47.400001525878906,198.89999389648438,47.20000076293945,198.89999389648438,47,198.89999389648438C12.300000190734863,196.5,11.5,193.3000030517578,11.199999809265137,192.1999969482422C10.300000190734863,188.6999969482422,17.100000381469727,179.10000610351562,20.100000381469727,175.10000610351562C20.600000381469727,174.5,21.399999618530273,174.3000030517578,22.100000381469727,174.60000610351562C22.100000381469727,174.60000610351562,22.899999618530273,175,24.200000762939453,175.60000610351562C31.899999618530273,166.3000030517578,53.70000076293945,140.39999389648438,61.400001525878906,133.3000030517578C67.0999984741211,128.10000610351562,78.19999694824219,124.69999694824219,86.80000305175781,122.69999694824219L94.0999984741211,116.5C94.5,116.19999694824219,94.9000015258789,116.0999984741211,95.4000015258789,116.0999984741211C95.9000015258789,116.19999694824219,96.30000305175781,116.4000015258789,96.5,116.80000305175781L113.9000015258789,143.5C114.30000305175781,144,114.30000305175781,144.6999969482422,113.9000015258789,145.3000030517578L113.19999694824219,146.3000030517578L115.4000015258789,149.6999969482422L118.0999984741211,145.60000610351562L118,145.5C117.5999984741211,145,117.5,144.1999969482422,117.9000015258789,143.60000610351562L132.89999389648438,118.80000305175781C133.1999969482422,118.30000305175781,133.6999969482422,118.0999984741211,134.1999969482422,118C134.6999969482422,118,135.1999969482422,118.19999694824219,135.60000610351562,118.5999984741211L138.5,122.0999984741211C144.6999969482422,123,155.39999389648438,124.80000305175781,162,127.80000305175781C181.10000610351562,133.5,190.89999389648438,172.60000610351562,195.1999969482422,196.6999969482422C195.6999969482422,196.60000610351562,196.1999969482422,196.6999969482422,196.60000610351562,196.89999389648438C197,197.1999969482422,197.3000030517578,197.60000610351562,197.3000030517578,198.10000610351562L198.3000030517578,216.60000610351562C198.3000030517578,217,198.1999969482422,217.5,197.89999389648438,217.8000030517578C197.60000610351562,218.10000610351562,197.1999969482422,218.3000030517578,196.6999969482422,218.3000030517578L196.6999969482422,218.3000030517578L166.1999969482422,218.10000610351562C165.39999389648438,218.10000610351562,164.6999969482422,217.39999389648438,164.60000610351562,216.60000610351562L163.89999389648438,207.89999389648438C163.89999389648438,207.60000610351562,163.89999389648438,207.39999389648438,164,207.1999969482422L163.60000610351562,199.1999969482422L158.89999389648438,246.10000610351562L158.1999969482422,254.6999969482422C158.1999969482422,255.10000610351562,158,255.39999389648438,157.6999969482422,255.6999969482422C156.89999389648438,256.3999938964844,148.5,264.6000061035156,122,264.6000061035156zM14.399999618530273,191.10000610351562C17.100000381469727,192.6999969482422,33,194.60000610351562,46.900001525878906,195.60000610351562C48.79999923706055,195,50.79999923706055,194,51.400001525878906,193.3000030517578C49.099998474121094,191.39999389648438,38.79999923706055,186.10000610351562,23.899999618530273,179L23.899999618530273,179C23.100000381469727,178.60000610351562,22.399999618530273,178.3000030517578,21.899999618530273,178.10000610351562C17.799999237060547,183.6999969482422,14.600000381469727,189.3000030517578,14.399999618530273,191.10000610351562zM114.4000015258789,154.39999389648438L114.4000015258789,154.1999969482422C114.19999694824219,154.10000610351562,114,153.89999389648438,113.9000015258789,153.6999969482422L111.19999694824219,149.39999389648438L102.19999694824219,163.1999969482422C101.9000015258789,163.6999969482422,101.30000305175781,164,100.69999694824219,163.89999389648438C100.0999984741211,163.89999389648438,99.5999984741211,163.5,99.30000305175781,163L83.0999984741211,127.4000015258789C83.0999984741211,127.30000305175781,83,127.19999694824219,83,127.0999984741211C73.80000305175781,129.5,67,132.60000610351562,63.5,135.8000030517578C56.099998474121094,142.60000610351562,34.20000076293945,168.6999969482422,27.200000762939453,177.10000610351562C37.29999923706055,181.89999389648438,48.70000076293945,187.60000610351562,52.79999923706055,190.39999389648438L67.4000015258789,177.39999389648438L66.0999984741211,171.10000610351562C65.9000015258789,170.1999969482422,66.5,169.39999389648438,67.4000015258789,169.1999969482422C68.30000305175781,169,69.0999984741211,169.60000610351562,69.30000305175781,170.5L70.80000305175781,177.6999969482422L70.80000305175781,177.6999969482422L70.80000305175781,177.6999969482422C71.5999984741211,182.60000610351562,78.9000015258789,225.60000610351562,78.9000015258789,228.60000610351562C78.9000015258789,230.1999969482422,78.4000015258789,232.39999389648438,77.9000015258789,235C77.0999984741211,238.6999969482422,76,243.8000030517578,76.9000015258789,245.8000030517578C78.30000305175781,248.89999389648438,78.30000305175781,252.89999389648438,78.19999694824219,255C82.5,256.3999938964844,97.9000015258789,260.79998779296875,117.69999694824219,261.3999938964844C119.30000305175781,214.3000030517578,115.80000305175781,170.89999389648438,114.4000015258789,154.39999389648438zM95.4000015258789,250.1999969482422C95.30000305175781,250.3000030517578,95.19999694824219,250.3000030517578,95,250.3000030517578C94.5999984741211,250.3000030517578,94.19999694824219,250.10000610351562,94.0999984741211,249.6999969482422L90.30000305175781,240.39999389648438C90.0999984741211,239.89999389648438,90.30000305175781,239.3000030517578,90.9000015258789,239.10000610351562C91.5,238.89999389648438,92,239.10000610351562,92.19999694824219,239.6999969482422L96,249C96.0999984741211,249.39999389648438,95.9000015258789,250,95.4000015258789,250.1999969482422zM166.8000030517578,205.89999389648438L191.8000030517578,197.89999389648438C185,159.1999969482422,173.6999969482422,134.8000030517578,160.8000030517578,131.10000610351562C160.6999969482422,131.10000610351562,160.60000610351562,131,160.60000610351562,131C155.39999389648438,128.60000610351562,147.10000610351562,127,141.39999389648438,126L143.5,128.60000610351562C143.8000030517578,129,144,129.60000610351562,143.8000030517578,130.10000610351562L133.6999969482422,161C133.5,161.60000610351562,133,162,132.39999389648438,162.10000610351562C131.8000030517578,162.1999969482422,131.1999969482422,162,130.8000030517578,161.5L120.0999984741211,148.1999969482422L116.5999984741211,153.5C116.5,153.60000610351562,116.4000015258789,153.6999969482422,116.30000305175781,153.8000030517578L116.30000305175781,154C117.5999984741211,170.5,121.19999694824219,214,119.5999984741211,261.1000061035156C120.4000015258789,261.1000061035156,121.0999984741211,261.1000061035156,121.9000015258789,261.1000061035156C143.6999969482422,261.1000061035156,152.5,255.39999389648438,154.5,253.89999389648438L155.1999969482422,245.89999389648438L162,178.3000030517578L158.10000610351562,168.39999389648438C157.8000030517578,167.60000610351562,158.1999969482422,166.60000610351562,159,166.3000030517578C159.8000030517578,166,160.8000030517578,166.39999389648438,161.10000610351562,167.1999969482422L165.10000610351562,177.5L165.10000610351562,177.60000610351562C165.10000610351562,177.6999969482422,165.10000610351562,177.6999969482422,165.10000610351562,177.8000030517578C165.10000610351562,177.89999389648438,165.10000610351562,177.89999389648438,165.10000610351562,177.89999389648438L165.10000610351562,178L166.8000030517578,205.89999389648438zM167.3000030517578,215.3000030517578L194.60000610351562,215.39999389648438L193.8000030517578,200.6999969482422L166.8000030517578,209.3000030517578L167.3000030517578,215.3000030517578zM121.19999694824219,144.60000610351562L131.39999389648438,157.3000030517578L140.3000030517578,130.10000610351562L136.10000610351562,124.9000015258789L136.10000610351562,124.9000015258789L134.3000030517578,122.69999694824219L121.0999984741211,144.5L121.19999694824219,144.60000610351562L121.19999694824219,144.60000610351562zM86.5999984741211,127.0999984741211L101.0999984741211,158.89999389648438L109.9000015258789,145.5L109.9000015258789,145.5L110.5999984741211,144.5L94.80000305175781,120.19999694824219L88.5999984741211,125.5L88.5999984741211,125.5L86.5999984741211,127.0999984741211zM110.5999984741211,235C108.80000305175781,235,107.30000305175781,233.5,107.30000305175781,231.6999969482422C107.30000305175781,229.89999389648438,108.80000305175781,228.39999389648438,110.5999984741211,228.39999389648438C112.4000015258789,228.39999389648438,113.9000015258789,229.89999389648438,113.9000015258789,231.6999969482422S112.4000015258789,235,110.5999984741211,235zM110.5999984741211,229.89999389648438C109.5999984741211,229.89999389648438,108.80000305175781,230.6999969482422,108.80000305175781,231.6999969482422C108.80000305175781,232.6999969482422,109.5999984741211,233.5,110.5999984741211,233.5C111.5999984741211,233.5,112.4000015258789,232.6999969482422,112.4000015258789,231.6999969482422S111.5999984741211,229.89999389648438,110.5999984741211,229.89999389648438zM111.30000305175781,209.5C109.5,209.5,108,208,108,206.1999969482422C108,204.39999389648438,109.5,202.89999389648438,111.30000305175781,202.89999389648438C113.0999984741211,202.89999389648438,114.5999984741211,204.39999389648438,114.5999984741211,206.1999969482422S113.19999694824219,209.5,111.30000305175781,209.5zM111.30000305175781,204.3000030517578C110.30000305175781,204.3000030517578,109.5,205.10000610351562,109.5,206.10000610351562C109.5,207.10000610351562,110.30000305175781,207.89999389648438,111.30000305175781,207.89999389648438C112.30000305175781,207.89999389648438,113.0999984741211,207.10000610351562,113.0999984741211,206.10000610351562S112.30000305175781,204.3000030517578,111.30000305175781,204.3000030517578zM110.19999694824219,183.3000030517578C108.4000015258789,183.3000030517578,106.9000015258789,181.8000030517578,106.9000015258789,180C106.9000015258789,178.1999969482422,108.4000015258789,176.6999969482422,110.19999694824219,176.6999969482422C112,176.6999969482422,113.5,178.1999969482422,113.5,180S112.0999984741211,183.3000030517578,110.19999694824219,183.3000030517578zM110.19999694824219,178.10000610351562C109.19999694824219,178.10000610351562,108.4000015258789,178.89999389648438,108.4000015258789,179.89999389648438C108.4000015258789,180.89999389648438,109.19999694824219,181.6999969482422,110.19999694824219,181.6999969482422C111.19999694824219,181.6999969482422,112,180.89999389648438,112,179.89999389648438S111.19999694824219,178.10000610351562,110.19999694824219,178.10000610351562z"/>
<path id="belt" fill="#BF5200" d="M75.19999694824219,250.8000030517578L75.30000305175781,259.6000061035156C75.30000305175781,259.6000061035156,87.9000015258789,265.29998779296875,118,265.29998779296875C148.10000610351562,265.29998779296875,158.39999389648438,257,158.39999389648438,257L157.1999969482422,249.3000030517578C157.1999969482422,249.3000030517578,144.1999969482422,256,117.9000015258789,256C91.80000305175781,256,75.19999694824219,250.8000030517578,75.19999694824219,250.8000030517578z"/>
<path id="beltBorder" d="M118.0999984741211,266.29998779296875C88.0999984741211,266.29998779296875,75.5,260.79998779296875,75,260.6000061035156L74.4000015258789,260.29998779296875L74.19999694824219,249.39999389648438L75.5,249.8000030517578C75.69999694824219,249.89999389648438,92.30000305175781,255,118.0999984741211,255C143.8000030517578,255,156.8000030517578,248.5,156.89999389648438,248.39999389648438L158.10000610351562,247.8000030517578L159.60000610351562,257.3999938964844L159.1999969482422,257.79998779296875C158.6999969482422,258.1000061035156,148.1999969482422,266.29998779296875,118.0999984741211,266.29998779296875zM76.30000305175781,258.8999938964844C79.0999984741211,260,92,264.20001220703125,118,264.20001220703125C144.10000610351562,264.20001220703125,155.10000610351562,258,157.3000030517578,256.5L156.39999389648438,250.6999969482422C152.5,252.3000030517578,139.89999389648438,256.8999938964844,117.9000015258789,256.8999938964844C96,256.8999938964844,80.5,253.1999969482422,76,252L76.30000305175781,258.8999938964844z"/>
<path id="Buckle" fill="#EF9F00" d="M124.5,266.6000061035156L110.69999694824219,266.6000061035156C109.5999984741211,266.6000061035156,108.69999694824219,265.70001220703125,108.69999694824219,264.6000061035156L108.69999694824219,256.20001220703125C108.69999694824219,255.10000610351562,109.5999984741211,254.1999969482422,110.69999694824219,254.1999969482422L124.5,254.1999969482422C125.5999984741211,254.1999969482422,126.5,255.10000610351562,126.5,256.20001220703125L126.5,264.6000061035156C126.5,265.70001220703125,125.5999984741211,266.6000061035156,124.5,266.6000061035156zM112.69999694824219,262.6000061035156L122.5,262.6000061035156L122.5,258.20001220703125L112.69999694824219,258.20001220703125L112.69999694824219,262.6000061035156z"/>
<path id="hat" fill="#964B12" d="M77.9000015258789,58C77.69999694824219,62.5,77.5999984741211,66.9000015258789,77.5999984741211,68.5C77.5999984741211,69.80000305175781,77.69999694824219,71.0999984741211,77.80000305175781,72.5C70.69999694824219,72.69999694824219,36.900001525878906,73,40,58C43.20000076293945,42.70000076293945,66,51.900001525878906,76.80000305175781,55.79999923706055L77.9000015258789,56C77.9000015258789,56,79.5,37.5,80.19999694824219,28.200000762939453C81,18.899999618530273,93.69999694824219,13.600000381469727,100.5,14.800000190734863C107.30000305175781,16,106.9000015258789,22.5,115,22.200000762939453C123,22,124.69999694824219,12.399999618530273,135,12.899999618530273C145.3000030517578,13.399999618530273,148,22.5,148,30.899999618530273C148,39.29999923706055,152.10000610351562,55.20000076293945,152.10000610351562,55.20000076293945L152.10000610351562,55.5C161.8000030517578,52.099998474121094,184.60000610351562,40.70000076293945,188,56.900001525878906C191,71.5,161,71.4000015258789,153,71.19999694824219C153,70.4000015258789,153.10000610351562,69.5999984741211,153.10000610351562,68.80000305175781C153.10000610351562,66.80000305175781,153,61.599998474121094,152.8000030517578,56.79999923706055L151.10000610351562,56.900001525878906C147.89999389648438,59.599998474121094,137.1999969482422,67,115.4000015258789,67C96.5999984741211,67,84.9000015258789,61.5,79.5999984741211,58.29999923706055L77.9000015258789,58z"/>
<path id="hatBorder" d="M189.60000610351562,56.400001525878906C188.8000030517578,52.5,186.89999389648438,49.79999923706055,184,48.20000076293945C176.60000610351562,44.20000076293945,164.5,48.79999923706055,155.8000030517578,52.20000076293945C154.89999389648438,52.5,154.10000610351562,52.79999923706055,153.39999389648438,53.099998474121094C152.39999389648438,49,149.6999969482422,37.29999923706055,149.6999969482422,30.700000762939453C149.6999969482422,18.700000762939453,144.39999389648438,11.5,135.10000610351562,11.100000381469727C128.89999389648438,10.800000190734863,125.5,13.800000190734863,122.4000015258789,16.5C120.0999984741211,18.600000381469727,118,20.399999618530273,115,20.399999618530273C111.30000305175781,20.5,109.80000305175781,19,108,17.200000762939453C106.30000305175781,15.5,104.4000015258789,13.600000381469727,100.9000015258789,13C96.19999694824219,12.199999809265137,89.4000015258789,14.100000381469727,84.69999694824219,17.700000762939453C81.0999984741211,20.5,79,24,78.69999694824219,27.899999618530273C78.0999984741211,35.400001525878906,77,48.900001525878906,76.5,53.79999923706055C76.19999694824219,53.70000076293945,75.9000015258789,53.599998474121094,75.69999694824219,53.5C66.4000015258789,50.099998474121094,52.20000076293945,44.900001525878906,44,49.5C41.099998474121094,51.099998474121094,39.20000076293945,53.79999923706055,38.400001525878906,57.5C37.70000076293945,60.599998474121094,38.400001525878906,63.400001525878906,40.400001525878906,65.69999694824219C46.599998474121094,73.0999984741211,64.69999694824219,74.0999984741211,74.0999984741211,74.0999984741211C75.30000305175781,74.0999984741211,76.9000015258789,74.0999984741211,78,74.0999984741211C77.9000015258789,73,77.80000305175781,71.9000015258789,77.69999694824219,70.9000015258789C64.19999694824219,71.19999694824219,47.70000076293945,69.5,42.900001525878906,63.70000076293945C41.599998474121094,62.099998474121094,41.20000076293945,60.400001525878906,41.599998474121094,58.20000076293945C42.20000076293945,55.400001525878906,43.5,53.5,45.599998474121094,52.29999923706055C52.5,48.5,66.30000305175781,53.5,74.5999984741211,56.5C74.80000305175781,56.599998474121094,75,56.599998474121094,75.0999984741211,56.70000076293945L75.0999984741211,56.70000076293945C75.5999984741211,57.20000076293945,88.19999694824219,68.19999694824219,115.4000015258789,68.19999694824219C142.60000610351562,68.19999694824219,153,57.099998474121094,153.39999389648438,56.599998474121094C153.5,56.5,153.5,56.400001525878906,153.60000610351562,56.29999923706055C154.60000610351562,55.900001525878906,155.8000030517578,55.5,157,55C164.6999969482422,52,176.39999389648438,47.5,182.5,50.79999923706055C184.60000610351562,51.900001525878906,185.89999389648438,53.900001525878906,186.5,56.79999923706055C187,59,186.5,60.900001525878906,185.1999969482422,62.400001525878906C180.6999969482422,67.80000305175781,165.39999389648438,69.4000015258789,153.10000610351562,69.0999984741211C153.10000610351562,70.19999694824219,153,71.19999694824219,152.89999389648438,72.30000305175781C161.6999969482422,72.5,181.3000030517578,72,187.60000610351562,64.4000015258789C189.60000610351562,62.400001525878906,190.3000030517578,59.599998474121094,189.60000610351562,56.400001525878906zM115.4000015258789,65.0999984741211C98.30000305175781,65.0999984741211,87.0999984741211,60.400001525878906,81.5999984741211,57.29999923706055L147.60000610351562,57.29999923706055C142.6999969482422,60.5,132.6999969482422,65.0999984741211,115.4000015258789,65.0999984741211zM79.69999694824219,54.099998474121094C80.0999984741211,49,81.30000305175781,35.70000076293945,81.9000015258789,28.299999237060547C82.19999694824219,24.600000381469727,84.69999694824219,22,86.69999694824219,20.399999618530273C91.0999984741211,17,97,15.699999809265137,100.30000305175781,16.299999237060547C102.80000305175781,16.799999237060547,104.19999694824219,18.100000381469727,105.69999694824219,19.600000381469727C107.69999694824219,21.600000381469727,110,23.899999618530273,115.0999984741211,23.799999237060547C119.4000015258789,23.700000762939453,122,21.299999237060547,124.5999984741211,19C127.4000015258789,16.5,130,14.199999809265137,135,14.399999618530273C144.5,14.800000190734863,146.5,23.5,146.5,30.700000762939453C146.5,37.79999923706055,149.3000030517578,49.900001525878906,150.3000030517578,54L79.69999694824219,54.099998474121094L79.69999694824219,54.099998474121094z"/>
</g>
</svg>