<svg xmlns="http://www.w3.org/2000/svg" xmlns:xlink="http://www.w3.org/1999/xlink" viewBox= "0 0 220 429" width="220px" height="429px">
<g xmlns="http://www.w3.org/2000/svg" id="Farmer1V2.svg">
<path id="shoe" fill="#845C47" d="M144.1999969482422,380.3999938964844C145,388.70001220703125,154.10000610351562,394.6000061035156,161.10000610351562,395.20001220703125C168.8000030517578,396.1000061035156,172.5,410.1000061035156,162.39999389648438,413.1000061035156C159.60000610351562,413.6000061035156,148.3000030517578,417.79998779296875,138.10000610351562,408.29998779296875C134.3000030517578,404.8999938964844,126.80000305175781,406.3999938964844,125.4000015258789,402.70001220703125C124,399,123.5,390.1000061035156,125.19999694824219,389.5C126.80000305175781,388.8999938964844,140.6999969482422,377.8999938964844,144.1999969482422,380.3999938964844zM74.80000305175781,380.29998779296875C74.9000015258789,388.6000061035156,67.5,395.6000061035156,60.70000076293945,397C53.20000076293945,398.79998779296875,51.099998474121094,413.1000061035156,61.400001525878906,414.8999938964844C64.30000305175781,415,75,418,84,407.29998779296875C87.4000015258789,403.5,95.0999984741211,404.1000061035156,96,400.20001220703125C97,396.3999938964844,96.5,387.5,94.69999694824219,387.1000061035156C93,386.70001220703125,78,377.5,74.80000305175781,380.29998779296875z"/>
<path id="sole" fill="#684734" d="M132.60000610351562,403.29998779296875C139.3000030517578,404.6000061035156,140.60000610351562,407.3999938964844,147.60000610351562,409.3999938964844C153.60000610351562,411.1000061035156,159.6999969482422,410.1000061035156,168.1999969482422,407.29998779296875C167.60000610351562,409.8999938964844,166.3000030517578,411.8999938964844,162.3000030517578,413.1000061035156C158.3000030517578,414.29998779296875,148.1999969482422,417.79998779296875,138,408.29998779296875C134.1999969482422,404.8999938964844,126.69999694824219,406.3999938964844,125.30000305175781,402.70001220703125C125,401.8999938964844,124.69999694824219,400.79998779296875,124.5,399.70001220703125C126.30000305175781,401,129.10000610351562,402.6000061035156,132.60000610351562,403.29998779296875zM88.9000015258789,401.70001220703125C82.4000015258789,403.79998779296875,82.4000015258789,406.70001220703125,75.69999694824219,409.5C69.9000015258789,411.8999938964844,63.79999923706055,411.6000061035156,55,409.79998779296875C55.900001525878906,412.29998779296875,57.400001525878906,414.1000061035156,61.5,414.8999938964844S75,418,84,407.29998779296875C87.4000015258789,403.5,95.0999984741211,404.1000061035156,96,400.20001220703125C96.19999694824219,399.3999938964844,96.30000305175781,398.29998779296875,96.4000015258789,397.1000061035156C94.9000015258789,398.70001220703125,92.30000305175781,400.6000061035156,88.9000015258789,401.70001220703125z"/>
<path id="shoeBorder" d="M67.30000305175781,417C65.4000015258789,417,63.70000076293945,416.79998779296875,62.5,416.6000061035156C62,416.5,61.599998474121094,416.5,61.29999923706055,416.5C61.20000076293945,416.5,61.20000076293945,416.5,61.099998474121094,416.5C56.099998474121094,415.6000061035156,52.79999923706055,411.8999938964844,52.70000076293945,406.79998779296875C52.5,401.3999938964844,55.79999923706055,396.5,60.29999923706055,395.5L60.400001525878906,395.5C66.69999694824219,394.20001220703125,73.30000305175781,387.79998779296875,73.0999984741211,380.5C73.0999984741211,380,73.30000305175781,379.6000061035156,73.5999984741211,379.29998779296875C76.30000305175781,376.79998779296875,82.19999694824219,379.1000061035156,92.0999984741211,384.20001220703125C93.30000305175781,384.79998779296875,94.80000305175781,385.6000061035156,95.0999984741211,385.70001220703125C95.69999694824219,385.79998779296875,96.30000305175781,386.29998779296875,96.69999694824219,387C98.30000305175781,389.70001220703125,98.4000015258789,397.5,97.5999984741211,400.79998779296875C96.9000015258789,403.70001220703125,93.80000305175781,404.70001220703125,90.9000015258789,405.70001220703125C88.69999694824219,406.3999938964844,86.5,407.1000061035156,85.19999694824219,408.6000061035156C79.0999984741211,415.6000061035156,72.30000305175781,417,67.30000305175781,417zM153.39999389648438,416.1000061035156C148.60000610351562,416.1000061035156,142.60000610351562,414.79998779296875,136.89999389648438,409.5C135.5,408.29998779296875,133.1999969482422,407.79998779296875,131,407.29998779296875C128,406.70001220703125,124.9000015258789,406,123.80000305175781,403.20001220703125C122.5999984741211,400,121.80000305175781,392.20001220703125,123.0999984741211,389.3999938964844C123.4000015258789,388.70001220703125,123.9000015258789,388.20001220703125,124.5999984741211,387.8999938964844C124.9000015258789,387.79998779296875,126.19999694824219,386.8999938964844,127.4000015258789,386.1000061035156C136.60000610351562,379.8999938964844,142.1999969482422,377,145.1999969482422,379.1000061035156C145.60000610351562,379.3999938964844,145.8000030517578,379.79998779296875,145.89999389648438,380.29998779296875C146.6999969482422,388.1000061035156,155.5,393.20001220703125,161.3000030517578,393.70001220703125L161.39999389648438,393.70001220703125C166,394.29998779296875,169.6999969482422,398.79998779296875,170.1999969482422,404.1000061035156C170.60000610351562,409.20001220703125,167.8000030517578,413.29998779296875,162.89999389648438,414.70001220703125C162.8000030517578,414.70001220703125,162.8000030517578,414.70001220703125,162.6999969482422,414.70001220703125C162.39999389648438,414.70001220703125,162,414.79998779296875,161.60000610351562,415C159.8000030517578,415.3999938964844,156.89999389648438,416.1000061035156,153.39999389648438,416.1000061035156zM66.5,412.20001220703125C63.79999923706055,412.20001220703125,60.900001525878906,411.8999938964844,57.900001525878906,411.29998779296875C58.70000076293945,412.20001220703125,59.900001525878906,412.8999938964844,61.70000076293945,413.20001220703125C62,413.20001220703125,62.5,413.29998779296875,63,413.29998779296875C67,413.79998779296875,75.4000015258789,414.8999938964844,82.69999694824219,406.29998779296875C81.0999984741211,407.6000061035156,79.4000015258789,409,76.0999984741211,410.29998779296875C73,411.70001220703125,69.9000015258789,412.20001220703125,66.5,412.20001220703125zM88,403.1000061035156C88.69999694824219,402.8999938964844,89.30000305175781,402.6000061035156,89.9000015258789,402.3999938964844C91.9000015258789,401.70001220703125,93.80000305175781,401.1000061035156,94.30000305175781,400.1000061035156C92.9000015258789,401,91.19999694824219,402,89.0999984741211,402.6000061035156C88.80000305175781,402.79998779296875,88.4000015258789,402.8999938964844,88,403.1000061035156zM75.30000305175781,408.6000061035156C78.4000015258789,407.29998779296875,80,406,81.5,404.79998779296875C83.30000305175781,403.29998779296875,85,402,88.5999984741211,400.79998779296875C91.30000305175781,399.8999938964844,93.4000015258789,398.5,94.9000015258789,397.29998779296875C95.0999984741211,393.8999938964844,94.69999694824219,389.70001220703125,94.0999984741211,388.6000061035156C93.5,388.3999938964844,92.5,387.8999938964844,90.69999694824219,387C81.4000015258789,382.20001220703125,77.80000305175781,381.20001220703125,76.4000015258789,381.3999938964844C76.0999984741211,387.5,72.30000305175781,392.70001220703125,67.69999694824219,395.79998779296875C69.9000015258789,396.3999938964844,71.9000015258789,397.5,73.30000305175781,399C73.9000015258789,399.70001220703125,73.9000015258789,400.70001220703125,73.19999694824219,401.29998779296875C72.5,401.8999938964844,71.5,401.8999938964844,70.9000015258789,401.20001220703125C68.80000305175781,399,64.9000015258789,398,61,398.6000061035156C57.70000076293945,399.3999938964844,55.900001525878906,403.29998779296875,56,406.70001220703125C56,407.29998779296875,56.099998474121094,408.20001220703125,56.400001525878906,409.1000061035156C63.70000076293945,410.5,69.80000305175781,410.8999938964844,75.30000305175781,408.6000061035156zM127,402.29998779296875C127.5999984741211,403.20001220703125,129.60000610351562,403.70001220703125,131.6999969482422,404.1000061035156C132.39999389648438,404.29998779296875,133.1999969482422,404.3999938964844,134,404.6000061035156C133.5,404.5,133,404.29998779296875,132.5,404.20001220703125C130.3000030517578,403.79998779296875,128.5,403.1000061035156,127,402.29998779296875zM147.3000030517578,410.3999938964844C143.89999389648438,409.3999938964844,141.8000030517578,408.20001220703125,139.89999389648438,407.20001220703125C139.10000610351562,406.79998779296875,138.3000030517578,406.29998779296875,137.5,405.8999938964844C138.10000610351562,406.20001220703125,138.6999969482422,406.6000061035156,139.1999969482422,407.1000061035156C147.60000610351562,415,156.89999389648438,412.79998779296875,160.8000030517578,411.8999938964844C161.3000030517578,411.79998779296875,161.6999969482422,411.70001220703125,162,411.6000061035156C163.6999969482422,411.1000061035156,164.8000030517578,410.20001220703125,165.60000610351562,409.29998779296875C161.39999389648438,410.5,157.5,411.29998779296875,153.8000030517578,411.29998779296875C151.60000610351562,411.29998779296875,149.39999389648438,411,147.3000030517578,410.3999938964844zM140.89999389648438,405.3999938964844C142.8000030517578,406.3999938964844,144.8000030517578,407.5,147.89999389648438,408.3999938964844C153.60000610351562,410.1000061035156,159.60000610351562,409,166.6999969482422,406.70001220703125C166.89999389648438,405.70001220703125,166.89999389648438,404.79998779296875,166.89999389648438,404.20001220703125C166.60000610351562,400.8999938964844,164.3000030517578,397.20001220703125,161,396.79998779296875C157.10000610351562,396.6000061035156,153.3000030517578,398.1000061035156,151.5,400.5C151,401.20001220703125,149.89999389648438,401.3999938964844,149.1999969482422,400.79998779296875C148.5,400.29998779296875,148.3000030517578,399.20001220703125,148.89999389648438,398.5C150.10000610351562,396.8999938964844,151.89999389648438,395.6000061035156,154,394.70001220703125C148.8000030517578,392.20001220703125,143.89999389648438,387.6000061035156,142.8000030517578,381.3999938964844L142.8000030517578,381.3999938964844C141.39999389648438,381.3999938964844,137.89999389648438,382.8999938964844,129.3000030517578,388.6000061035156C127.5999984741211,389.70001220703125,126.69999694824219,390.29998779296875,126.0999984741211,390.6000061035156C125.5999984741211,391.70001220703125,125.69999694824219,396,126.30000305175781,399.29998779296875C127.9000015258789,400.3999938964844,130.10000610351562,401.5,132.89999389648438,402.1000061035156C136.5,403,138.60000610351562,404.20001220703125,140.89999389648438,405.3999938964844z"/>
<path id="body" fill="#BF8C5C" d="M53.5,210.1999969482422C56.599998474121094,212.39999389648438,73.69999694824219,216,76.19999694824219,219.1999969482422C77,220.1999969482422,76.9000015258789,223.5,75,223.6999969482422C76.4000015258789,224.60000610351562,74.5999984741211,229,73.30000305175781,228.60000610351562C75.19999694824219,231.3000030517578,72.30000305175781,232.39999389648438,71.5999984741211,233.1999969482422C72.0999984741211,233.8000030517578,72.9000015258789,235.39999389648438,69.80000305175781,236.8000030517578C68.5,237,65.80000305175781,236.10000610351562,59.900001525878906,232.6999969482422C54.099998474121094,229.3000030517578,51.79999923706055,221.6999969482422,47.5,218.5C47.599998474121094,218.5,50.29999923706055,208,53.5,210.1999969482422zM169.3000030517578,240.8000030517578C172.5,244.39999389648438,176.10000610351562,248.10000610351562,176.8000030517578,250.5C177.5,252.89999389648438,186.6999969482422,263.6000061035156,189.1999969482422,264.29998779296875C191.60000610351562,264.8999938964844,200,268.1000061035156,203.39999389648438,265.3999938964844C206.6999969482422,262.70001220703125,208.1999969482422,259,207.5,257.6000061035156C206.6999969482422,256.20001220703125,199,247.6999969482422,199.1999969482422,247.3000030517578C199.5,246.89999389648438,205.60000610351562,248.10000610351562,205.60000610351562,244.10000610351562C205.60000610351562,240.10000610351562,195.39999389648438,238.60000610351562,192.1999969482422,238.89999389648438C189,239.1999969482422,181.5,240.3000030517578,177.8000030517578,235.60000610351562L169.3000030517578,240.8000030517578zM93.19999694824219,115.5999984741211C93.9000015258789,124.4000015258789,92.4000015258789,137.5,80.69999694824219,138.1999969482422C66.5999984741211,139,87.4000015258789,167.3000030517578,107,166.89999389648438C126.5999984741211,166.5,143.5,139.8000030517578,137.3000030517578,139C131.39999389648438,138.3000030517578,122.69999694824219,133.3000030517578,122.30000305175781,115.69999694824219"/>
<path id="face" fill="#FFFFFF" d="M143.5,75.5999984741211C143.5,99.0999984741211,124.5,120.5999984741211,107.80000305175781,120.5999984741211C91.4000015258789,120.5999984741211,72.0999984741211,99.0999984741211,72.0999984741211,75.5999984741211C72.0999984741211,72.0999984741211,72.4000015258789,58.29999923706055,73.0999984741211,55.400001525878906C76.9000015258789,38.70000076293945,91,31.5,107.80000305175781,31.5C124.5999984741211,31.5,138.6999969482422,38.70000076293945,142.5,55.29999923706055C143.10000610351562,58.20000076293945,143.5,72.0999984741211,143.5,75.5999984741211z"/>
<path id="bodyBorder" d="M69.5,238.5C68.0999984741211,238.5,65.80000305175781,238,59.20000076293945,234.10000610351562C55.599998474121094,232,53.29999923706055,228.5,51.20000076293945,225.39999389648438C49.70000076293945,223.1999969482422,48.29999923706055,221,46.70000076293945,219.8000030517578C46.20000076293945,219.39999389648438,45.900001525878906,218.6999969482422,46.099998474121094,218.10000610351562C46.900001525878906,215.10000610351562,49,208.1999969482422,52.599998474121094,208.1999969482422C53.20000076293945,208.1999969482422,53.900001525878906,208.39999389648438,54.400001525878906,208.8000030517578C55.5,209.60000610351562,59.599998474121094,210.89999389648438,63.20000076293945,212C70.69999694824219,214.39999389648438,75.80000305175781,216.10000610351562,77.4000015258789,218.10000610351562C78.30000305175781,219.1999969482422,78.5,221.39999389648438,77.80000305175781,223C77.5999984741211,223.5,77.30000305175781,223.89999389648438,77,224.3000030517578C77.0999984741211,225,77,225.6999969482422,76.80000305175781,226.60000610351562C76.5,227.5,76.0999984741211,228.5,75.4000015258789,229.1999969482422C76,231.39999389648438,74.5,232.8000030517578,73.5999984741211,233.60000610351562C73.69999694824219,234.10000610351562,73.69999694824219,234.60000610351562,73.5999984741211,235.10000610351562C73.30000305175781,236.39999389648438,72.19999694824219,237.39999389648438,70.5,238.1999969482422C70.4000015258789,238.3000030517578,70.19999694824219,238.3000030517578,70,238.3000030517578C69.9000015258789,238.5,69.69999694824219,238.5,69.5,238.5zM49.5,217.89999389648438C51.20000076293945,219.39999389648438,52.5,221.39999389648438,53.900001525878906,223.60000610351562C55.79999923706055,226.5,57.900001525878906,229.60000610351562,60.79999923706055,231.3000030517578C66.30000305175781,234.5,68.5,235.1999969482422,69.4000015258789,235.1999969482422C70.30000305175781,234.8000030517578,70.5,234.39999389648438,70.5,234.39999389648438C70.5,234.39999389648438,70.5,234.3000030517578,70.4000015258789,234.1999969482422C69.9000015258789,233.60000610351562,69.9000015258789,232.6999969482422,70.5,232.10000610351562C70.69999694824219,231.8000030517578,71,231.60000610351562,71.30000305175781,231.39999389648438C72.5999984741211,230.39999389648438,72.5,230.3000030517578,72,229.5C71.5999984741211,228.89999389648438,71.5999984741211,228.1999969482422,72,227.60000610351562C72.30000305175781,227.1999969482422,72.69999694824219,227,73.19999694824219,226.89999389648438C73.5999984741211,226.39999389648438,74,225.3000030517578,73.9000015258789,224.8000030517578C73.5,224.39999389648438,73.30000305175781,223.8000030517578,73.4000015258789,223.3000030517578C73.5,222.60000610351562,74.0999984741211,222.10000610351562,74.80000305175781,222C75.0999984741211,221.8000030517578,75.19999694824219,220.5,74.9000015258789,220.10000610351562C73.80000305175781,218.6999969482422,66.9000015258789,216.5,62.29999923706055,215.10000610351562C57.20000076293945,213.5,54.099998474121094,212.5,52.599998474121094,211.5C51.79999923706055,212,50.400001525878906,214.89999389648438,49.5,217.89999389648438zM199.39999389648438,268.1000061035156L199.39999389648438,268.1000061035156C196.10000610351562,268.1000061035156,192.3000030517578,266.8999938964844,190,266.20001220703125C189.5,266,189,265.8999938964844,188.6999969482422,265.79998779296875C185.60000610351562,265,176.10000610351562,253.8000030517578,175.1999969482422,250.89999389648438C174.60000610351562,249.10000610351562,171.8000030517578,246,169.39999389648438,243.3000030517578C168.89999389648438,242.8000030517578,168.5,242.3000030517578,168.10000610351562,241.8000030517578C167.8000030517578,241.39999389648438,167.60000610351562,241,167.6999969482422,240.5C167.8000030517578,240,168,239.60000610351562,168.5,239.39999389648438L176.89999389648438,234.1999969482422C177.60000610351562,233.8000030517578,178.5,233.89999389648438,179,234.60000610351562C180.60000610351562,236.60000610351562,183.3000030517578,237.60000610351562,187.3000030517578,237.60000610351562C188.6999969482422,237.60000610351562,190.10000610351562,237.5,191.10000610351562,237.39999389648438C191.39999389648438,237.39999389648438,191.6999969482422,237.3000030517578,192,237.3000030517578C192.3000030517578,237.3000030517578,192.60000610351562,237.3000030517578,192.89999389648438,237.3000030517578C195.6999969482422,237.3000030517578,207.10000610351562,238.5,207.10000610351562,244.1999969482422C207.10000610351562,247.60000610351562,204.3000030517578,248.5,202.10000610351562,248.8000030517578C202.89999389648438,249.6999969482422,203.8000030517578,250.8000030517578,204.5,251.6999969482422C207.10000610351562,254.6999969482422,208.39999389648438,256.29998779296875,208.8000030517578,257C210.10000610351562,259.29998779296875,208,263.79998779296875,204.3000030517578,266.79998779296875C203.1999969482422,267.6000061035156,201.5,268.1000061035156,199.39999389648438,268.1000061035156zM205.89999389648438,258.3999938964844C205.60000610351562,257.8999938964844,203.60000610351562,255.5,202,253.6999969482422C198.89999389648438,250.10000610351562,197.6999969482422,248.60000610351562,197.39999389648438,247.6999969482422L194.6999969482422,247.3000030517578C193.5,248.1999969482422,191,248.5,189,248.5C188.3000030517578,248.5,187.60000610351562,248.39999389648438,187.10000610351562,248.39999389648438C184.89999389648438,248,184.3000030517578,247,184.1999969482422,246.1999969482422C184.10000610351562,245.6999969482422,184.5,245.10000610351562,185.10000610351562,245.10000610351562C185.6999969482422,245,186.1999969482422,245.39999389648438,186.1999969482422,246C186.1999969482422,246.10000610351562,186.39999389648438,246.1999969482422,186.8000030517578,246.39999389648438C188.8000030517578,247.10000610351562,192.89999389648438,246.39999389648438,193.60000610351562,245.8000030517578C193.8000030517578,245.39999389648438,194.1999969482422,245.3000030517578,194.60000610351562,245.39999389648438L198.3000030517578,246C198.8000030517578,245.8000030517578,199.39999389648438,245.6999969482422,200,245.6999969482422C203.10000610351562,245.6999969482422,203.8000030517578,245.10000610351562,203.8000030517578,244.1999969482422C203.8000030517578,242.39999389648438,197.3000030517578,240.60000610351562,192.8000030517578,240.60000610351562C192.60000610351562,240.60000610351562,192.3000030517578,240.60000610351562,192.1999969482422,240.60000610351562C191.89999389648438,240.60000610351562,191.6999969482422,240.60000610351562,191.39999389648438,240.6999969482422C190.3000030517578,240.8000030517578,188.8000030517578,240.89999389648438,187.3000030517578,240.89999389648438C182.89999389648438,240.89999389648438,179.6999969482422,239.89999389648438,177.5,237.6999969482422L171.89999389648438,241.1999969482422L171.89999389648438,241.1999969482422C174.89999389648438,244.5,177.6999969482422,247.60000610351562,178.39999389648438,250C179,251.89999389648438,187.60000610351562,262,189.6999969482422,262.70001220703125C190,262.79998779296875,190.5,262.8999938964844,191.10000610351562,263.1000061035156C191.1999969482422,263.1000061035156,191.39999389648438,263.20001220703125,191.5,263.20001220703125C190.89999389648438,262.3999938964844,190.10000610351562,261.3999938964844,189.10000610351562,260.20001220703125C188.3000030517578,259.20001220703125,187.60000610351562,258.20001220703125,187,257.5C186.6999969482422,257.1000061035156,186.6999969482422,256.3999938964844,187.10000610351562,256.1000061035156C187.5,255.6999969482422,188.1999969482422,255.8000030517578,188.5,256.20001220703125C189,256.8999938964844,189.8000030517578,257.79998779296875,190.60000610351562,258.8999938964844C192,260.70001220703125,194.3000030517578,263.70001220703125,194.8000030517578,264.1000061035156C194.8000030517578,264.1000061035156,194.8000030517578,264.1000061035156,194.89999389648438,264.20001220703125C195.89999389648438,264.3999938964844,197,264.6000061035156,198,264.70001220703125C197.3000030517578,263.8999938964844,196.39999389648438,262.79998779296875,195.3000030517578,261.29998779296875C194.10000610351562,259.70001220703125,192.8000030517578,258.1000061035156,191.89999389648438,257.29998779296875C191.5,256.8999938964844,191.5,256.29998779296875,191.89999389648438,255.89999389648438C192.3000030517578,255.5,192.89999389648438,255.5,193.3000030517578,255.89999389648438C194.1999969482422,256.79998779296875,195.5,258.3999938964844,196.8000030517578,260.1000061035156C198,261.70001220703125,199.8000030517578,263.8999938964844,200.6999969482422,264.70001220703125C201.39999389648438,264.6000061035156,201.89999389648438,264.3999938964844,202.1999969482422,264.1000061035156C202.8000030517578,263.6000061035156,203.3000030517578,263.1000061035156,203.6999969482422,262.70001220703125C201.89999389648438,261,197.6999969482422,256.70001220703125,195.89999389648438,254.3000030517578C195.60000610351562,253.89999389648438,195.60000610351562,253.1999969482422,196.10000610351562,252.89999389648438C196.5,252.60000610351562,197.1999969482422,252.60000610351562,197.5,253.10000610351562C199.39999389648438,255.5,203.3000030517578,259.6000061035156,204.89999389648438,261.1000061035156C205.8000030517578,259.8999938964844,206.10000610351562,258.79998779296875,205.89999389648438,258.3999938964844zM106.5999984741211,168.39999389648438C91,168.39999389648438,74.80000305175781,152,74.4000015258789,142.60000610351562C74.30000305175781,139,76.5999984741211,136.6999969482422,80.5999984741211,136.5C83.5999984741211,136.3000030517578,85.9000015258789,135.3000030517578,87.69999694824219,133.1999969482422C91.69999694824219,128.60000610351562,91.80000305175781,120.4000015258789,91.5,116.4000015258789C80,108.4000015258789,70.30000305175781,92.80000305175781,70.30000305175781,75.5999984741211C70.30000305175781,73.19999694824219,70.5999984741211,58.400001525878906,71.30000305175781,55C74.9000015258789,39,88.19999694824219,29.799999237060547,107.5999984741211,29.799999237060547L107.5999984741211,29.799999237060547C127,29.799999237060547,140.1999969482422,39,143.89999389648438,54.900001525878906L143.89999389648438,54.900001525878906C144.60000610351562,58.099998474121094,145,72.19999694824219,145,75.5C145,86.80000305175781,140.60000610351562,98.5999984741211,133,107.80000305175781C130.1999969482422,111.19999694824219,127.0999984741211,114.0999984741211,123.9000015258789,116.30000305175781C124.5,133.60000610351562,133.5,136.60000610351562,137.39999389648438,137.10000610351562C138.8000030517578,137.3000030517578,140.3000030517578,138.3000030517578,140.10000610351562,140.8000030517578C139.6999969482422,148.10000610351562,124.30000305175781,167.89999389648438,106.9000015258789,168.1999969482422C106.9000015258789,168.39999389648438,106.80000305175781,168.39999389648438,106.5999984741211,168.39999389648438zM95,118.5C95.0999984741211,123.69999694824219,94.30000305175781,130.6999969482422,90.30000305175781,135.3000030517578C87.9000015258789,138,84.80000305175781,139.5,80.9000015258789,139.6999969482422C78.0999984741211,139.89999389648438,77.69999694824219,141.1999969482422,77.80000305175781,142.5C78.0999984741211,149.8000030517578,92.9000015258789,165.5,107.0999984741211,165.1999969482422C118.0999984741211,165,129,155.60000610351562,134.5,147C136.89999389648438,143.10000610351562,137.1999969482422,141.10000610351562,137.10000610351562,140.5C133.39999389648438,140,122.30000305175781,136.89999389648438,120.9000015258789,118.4000015258789C116.5999984741211,120.80000305175781,112.0999984741211,122.19999694824219,107.80000305175781,122.19999694824219C103.5999984741211,122.19999694824219,99.19999694824219,120.9000015258789,95,118.5zM107.80000305175781,33.099998474121094C97.30000305175781,33.099998474121094,79.0999984741211,36,74.69999694824219,55.70000076293945C74.0999984741211,58.29999923706055,73.69999694824219,71.5,73.69999694824219,75.5C73.69999694824219,98.4000015258789,92.80000305175781,118.9000015258789,107.80000305175781,118.9000015258789C112.19999694824219,118.9000015258789,116.9000015258789,117.30000305175781,121.30000305175781,114.4000015258789C121.4000015258789,114.30000305175781,121.5,114.19999694824219,121.69999694824219,114.0999984741211C132.60000610351562,106.80000305175781,141.89999389648438,92,141.89999389648438,75.5C141.89999389648438,71.5,141.5,58.20000076293945,140.89999389648438,55.599998474121094L140.89999389648438,55.599998474121094C136.39999389648438,36,118.19999694824219,33.099998474121094,107.80000305175781,33.099998474121094z"/>
<path id="pants" fill="#A1C5D3" d="M72.30000305175781,242.6999969482422C70.9000015258789,251.60000610351562,68.30000305175781,281.29998779296875,71,297.3999938964844C73.69999694824219,313.5,74.0999984741211,321.3999938964844,73.69999694824219,326.20001220703125C73.4000015258789,331,70.0999984741211,384.29998779296875,69.4000015258789,386.70001220703125C68.69999694824219,389.1000061035156,71.69999694824219,386,77.30000305175781,386.70001220703125C93,388.29998779296875,97.19999694824219,396,99.19999694824219,395.20001220703125C102.4000015258789,392.3999938964844,102.5999984741211,316.6000061035156,103.9000015258789,304.20001220703125C105.30000305175781,291.79998779296875,106.4000015258789,270.5,107.4000015258789,270.20001220703125C108.4000015258789,269.8999938964844,109.0999984741211,270.3999938964844,109.0999984741211,270.3999938964844C109.0999984741211,270.3999938964844,110.4000015258789,294.29998779296875,113.80000305175781,307C117.19999694824219,319.70001220703125,120.69999694824219,394.6000061035156,121.4000015258789,396.20001220703125C125.4000015258789,400.3999938964844,143.39999389648438,381.79998779296875,149.6999969482422,388C151,385.3999938964844,142.6999969482422,328.6000061035156,143.39999389648438,319C144.10000610351562,309.3999938964844,146.5,288.8999938964844,148,275C149.39999389648438,261,147.60000610351562,240.1999969482422,145.89999389648438,240.60000610351562C144.3000030517578,240.89999389648438,72.30000305175781,242.6999969482422,72.30000305175781,242.6999969482422z"/>
<path id="pantsBorder" d="M123.0999984741211,398.5C122,398.5,121.0999984741211,398.20001220703125,120.30000305175781,397.3999938964844C120.19999694824219,397.29998779296875,120.0999984741211,397.1000061035156,120,396.8999938964844C119.69999694824219,396.20001220703125,119.5,393.8999938964844,118.4000015258789,376.1000061035156C117,353.5,114.5999984741211,315.79998779296875,112.30000305175781,307.3999938964844C110,298.79998779296875,108.5999984741211,285.29998779296875,108,277.20001220703125C107.69999694824219,280.3999938964844,107.4000015258789,284.3999938964844,107.0999984741211,287.8999938964844C106.5999984741211,293.70001220703125,106.19999694824219,299.6000061035156,105.5999984741211,304.3999938964844C105.0999984741211,308.79998779296875,104.80000305175781,321.70001220703125,104.4000015258789,336.6000061035156C103.19999694824219,382.8999938964844,102.4000015258789,394.6000061035156,100.30000305175781,396.3999938964844C100.19999694824219,396.5,100,396.6000061035156,99.80000305175781,396.70001220703125C98.30000305175781,397.29998779296875,97.0999984741211,396.29998779296875,95.4000015258789,395.1000061035156C92.4000015258789,392.8999938964844,87.4000015258789,389.29998779296875,77.19999694824219,388.29998779296875C74.69999694824219,388,72.80000305175781,388.5,71.5,388.8999938964844C70.30000305175781,389.20001220703125,69.19999694824219,389.5,68.30000305175781,388.70001220703125C67.4000015258789,387.79998779296875,67.80000305175781,386.70001220703125,67.9000015258789,386.29998779296875C68.4000015258789,384.1000061035156,70.5999984741211,349.6000061035156,71.5,334.8999938964844C71.80000305175781,330.3999938964844,72,327.20001220703125,72.0999984741211,326.20001220703125C72.5,320.20001220703125,71.69999694824219,311.20001220703125,69.4000015258789,297.79998779296875C66.5,281,69.4000015258789,251,70.69999694824219,242.60000610351562C70.80000305175781,241.8000030517578,71.5,241.1999969482422,72.30000305175781,241.1999969482422C100.69999694824219,240.5,143.60000610351562,239.3000030517578,145.8000030517578,239C146.39999389648438,238.89999389648438,147,239.10000610351562,147.39999389648438,239.5C150,241.8000030517578,151,263.1000061035156,149.8000030517578,275.20001220703125C149.3000030517578,280.20001220703125,148.6999969482422,285.8999938964844,148,291.70001220703125C146.8000030517578,302.20001220703125,145.6999969482422,313,145.1999969482422,319.20001220703125C144.89999389648438,324,146.89999389648438,341.70001220703125,148.6999969482422,357.29998779296875C151.39999389648438,380.79998779296875,152,387.29998779296875,151.3000030517578,388.79998779296875C151.10000610351562,389.29998779296875,150.60000610351562,389.6000061035156,150.10000610351562,389.70001220703125C149.60000610351562,389.79998779296875,149.10000610351562,389.6000061035156,148.6999969482422,389.20001220703125C146.1999969482422,386.70001220703125,139.39999389648438,390.6000061035156,134,393.79998779296875C129.6999969482422,396.29998779296875,125.9000015258789,398.5,123.0999984741211,398.5zM123,395.29998779296875C124.5,395.6000061035156,129.5,392.70001220703125,132.3000030517578,391C137.8000030517578,387.79998779296875,143.89999389648438,384.20001220703125,148.3000030517578,385.29998779296875C148.10000610351562,380.29998779296875,146.6999969482422,368.29998779296875,145.39999389648438,357.5C144.5,349.3999938964844,143.5,341.20001220703125,142.8000030517578,334.29998779296875C139.60000610351562,336.3999938964844,133.60000610351562,336.3999938964844,130.10000610351562,335.1000061035156C129.3000030517578,334.79998779296875,128.8000030517578,333.8999938964844,129.10000610351562,333C129.39999389648438,332.20001220703125,130.3000030517578,331.70001220703125,131.1999969482422,332C134.60000610351562,333.20001220703125,140.60000610351562,332.70001220703125,141.60000610351562,331C141.8000030517578,330.70001220703125,142.10000610351562,330.3999938964844,142.39999389648438,330.29998779296875C141.89999389648438,325,141.6999969482422,320.79998779296875,141.8000030517578,318.70001220703125C142.1999969482422,312.5,143.39999389648438,301.6000061035156,144.60000610351562,291.1000061035156C145.1999969482422,285.29998779296875,145.89999389648438,279.5,146.39999389648438,274.6000061035156C147.6999969482422,261.8999938964844,146.3000030517578,245.5,145.1999969482422,242C137.10000610351562,242.39999389648438,87.30000305175781,243.6999969482422,73.69999694824219,244.10000610351562C72.19999694824219,254.8000030517578,70.0999984741211,282.1000061035156,72.5999984741211,296.8999938964844C74.9000015258789,310.6000061035156,75.80000305175781,319.8999938964844,75.4000015258789,326.1000061035156C75.30000305175781,327.1000061035156,75.0999984741211,330.29998779296875,74.80000305175781,334.79998779296875C74.30000305175781,342,73.9000015258789,348.6000061035156,73.5,354.5C74.5999984741211,352,75.9000015258789,348.79998779296875,77.5,344.79998779296875C77.80000305175781,344,78.80000305175781,343.5,79.5999984741211,343.8999938964844C80.4000015258789,344.20001220703125,80.9000015258789,345.20001220703125,80.5,346C75.80000305175781,358,73.30000305175781,362.70001220703125,73.19999694824219,362.8999938964844C73.0999984741211,363,73.0999984741211,363.1000061035156,73,363.20001220703125C72.19999694824219,374.5,71.69999694824219,382.20001220703125,71.30000305175781,385.29998779296875C72.80000305175781,384.8999938964844,74.9000015258789,384.5,77.5999984741211,384.79998779296875C88.69999694824219,386,94.30000305175781,390,97.4000015258789,392.20001220703125C97.69999694824219,392.3999938964844,98.0999984741211,392.70001220703125,98.5,393C100,386.79998779296875,100.80000305175781,356.70001220703125,101.30000305175781,336.29998779296875C101.69999694824219,321.29998779296875,102,308.3999938964844,102.5,303.79998779296875C103,299.1000061035156,103.5,293.20001220703125,104,287.3999938964844C105.5,268.8999938964844,105.69999694824219,268.8999938964844,107.0999984741211,268.3999938964844C108.5,267.8999938964844,109.69999694824219,268.3999938964844,110.30000305175781,268.8999938964844C110.5999984741211,269.20001220703125,110.80000305175781,269.6000061035156,110.9000015258789,270.1000061035156C110.9000015258789,270.29998779296875,112.19999694824219,293.8999938964844,115.5999984741211,306.29998779296875C118,315,120.30000305175781,351.5,121.80000305175781,375.70001220703125C122.19999694824219,384.70001220703125,122.69999694824219,393,123,395.29998779296875z"/>
<path id="top" fill="#873CAA" d="M128,132.6999969482422L126.19999694824219,128.5L109,143.89999389648438C109,143.89999389648438,110.0999984741211,145.10000610351562,111.30000305175781,147.39999389648438C108.80000305175781,149.60000610351562,107,151.1999969482422,107,151.1999969482422C107,151.1999969482422,105.4000015258789,149.5,103.0999984741211,147.10000610351562C104.5,144.89999389648438,105.4000015258789,143.89999389648438,105.4000015258789,143.89999389648438L88.80000305175781,127.5L86.5999984741211,130.60000610351562C86.4000015258789,130.39999389648438,86.19999694824219,130.3000030517578,86.0999984741211,130.3000030517578C80.5999984741211,128.5,70.0999984741211,129.10000610351562,62.099998474121094,135.10000610351562C52.29999923706055,142.5,12.600000381469727,183.89999389648438,12.899999618530273,190.10000610351562C13.199999809265137,196.3000030517578,31.200000762939453,210.60000610351562,40.79999923706055,216.10000610351562C44.70000076293945,218.3000030517578,46.29999923706055,219.5,46.900001525878906,220.10000610351562L55.900001525878906,210.5C55.900001525878906,210.5,35.099998474121094,192.39999389648438,35.099998474121094,190C35.099998474121094,187.60000610351562,70.69999694824219,159.8000030517578,72,159.8000030517578C73.30000305175781,159.8000030517578,73.4000015258789,174.60000610351562,76.5,181.8000030517578C79.5999984741211,189,81.30000305175781,207.5,79.5999984741211,214.39999389648438C77.9000015258789,221.3000030517578,71.5999984741211,242.6999969482422,72.30000305175781,244.8000030517578C73,246.89999389648438,101.19999694824219,248.6999969482422,117.30000305175781,247.3000030517578C133.39999389648438,245.89999389648438,146.3000030517578,242.6999969482422,147,241C147.6999969482422,239.3000030517578,137.60000610351562,223.89999389648438,136.5,208.1999969482422C135.5,192.39999389648438,138.60000610351562,181.10000610351562,138.60000610351562,181.10000610351562C138.60000610351562,181.10000610351562,145.5,218.89999389648438,149.60000610351562,223C153.6999969482422,227.10000610351562,170.89999389648438,246.6999969482422,172.60000610351562,247C174.3000030517578,247.3000030517578,184.60000610351562,236,184.60000610351562,236C184.60000610351562,236,164.6999969482422,212.6999969482422,162.60000610351562,206.10000610351562C160.5,199.60000610351562,161.60000610351562,151.5,151.60000610351562,142.89999389648438C142.1999969482422,134.8000030517578,130.89999389648438,131.3000030517578,128,132.6999969482422z"/>
<path id="topBorder" d="M104.0999984741211,249.39999389648438C99.19999694824219,249.39999389648438,94,249.1999969482422,88.9000015258789,248.89999389648438C71.5999984741211,247.89999389648438,71.0999984741211,246.3000030517578,70.69999694824219,245.1999969482422C70.19999694824219,243.60000610351562,71.30000305175781,238.6999969482422,75.9000015258789,221.39999389648438C76.69999694824219,218.3000030517578,77.5,215.60000610351562,77.9000015258789,213.89999389648438C79.5,207.39999389648438,77.80000305175781,189.10000610351562,74.9000015258789,182.3000030517578C73.0999984741211,178,72.30000305175781,171.39999389648438,71.69999694824219,166.5C71.5,165,71.30000305175781,163.1999969482422,71.0999984741211,162C64.5999984741211,166.39999389648438,40,186,36.79999923706055,190C38.5,192.5,48,201.5,56.900001525878906,209.1999969482422C57.20000076293945,209.5,57.400001525878906,209.89999389648438,57.5,210.3000030517578C57.5,210.6999969482422,57.400001525878906,211.1999969482422,57.099998474121094,211.5L48.099998474121094,221.10000610351562C47.79999923706055,221.39999389648438,47.400001525878906,221.60000610351562,46.900001525878906,221.60000610351562C46.400001525878906,221.60000610351562,46,221.39999389648438,45.70000076293945,221.10000610351562C45.400001525878906,220.8000030517578,44.29999923706055,219.89999389648438,40,217.39999389648438C31.600000381469727,212.60000610351562,11.699999809265137,197.5,11.300000190734863,190.10000610351562C10.899999618530273,182.5,53.5,139.5,61.099998474121094,133.6999969482422C69.0999984741211,127.69999694824219,79.5,126.5999984741211,86.0999984741211,128.5L87.5,126.5C87.80000305175781,126.0999984741211,88.19999694824219,125.9000015258789,88.69999694824219,125.80000305175781C89.19999694824219,125.80000305175781,89.5999984741211,125.9000015258789,90,126.30000305175781L106.5999984741211,142.6999969482422C107.19999694824219,143.3000030517578,107.19999694824219,144.3000030517578,106.69999694824219,144.89999389648438C106.69999694824219,144.89999389648438,106.19999694824219,145.5,105.30000305175781,146.89999389648438C106.0999984741211,147.6999969482422,106.69999694824219,148.39999389648438,107.19999694824219,149C107.80000305175781,148.5,108.5,147.89999389648438,109.30000305175781,147.10000610351562C108.5,145.6999969482422,107.9000015258789,145,107.9000015258789,145C107.30000305175781,144.3000030517578,107.4000015258789,143.3000030517578,108,142.6999969482422L125.19999694824219,127.30000305175781C125.5999984741211,127,126.0999984741211,126.80000305175781,126.5999984741211,126.9000015258789C127.0999984741211,127,127.5,127.4000015258789,127.69999694824219,127.80000305175781L129,130.6999969482422C134,130.1999969482422,144.3000030517578,134.3000030517578,152.6999969482422,141.60000610351562C159.6999969482422,147.60000610351562,161.5,168.5,162.89999389648438,191.3000030517578C163.3000030517578,198,163.6999969482422,203.8000030517578,164.1999969482422,205.5C165.8000030517578,210.60000610351562,180.39999389648438,228.39999389648438,185.89999389648438,234.8000030517578C186.39999389648438,235.39999389648438,186.39999389648438,236.3000030517578,185.89999389648438,236.89999389648438C175,248.89999389648438,173.1999969482422,248.60000610351562,172.39999389648438,248.39999389648438C171.10000610351562,248.10000610351562,168.8000030517578,246,156,231.89999389648438C152.6999969482422,228.3000030517578,149.89999389648438,225.3000030517578,148.60000610351562,223.89999389648438C145.39999389648438,220.6999969482422,141.1999969482422,201.8000030517578,138.8000030517578,189.8000030517578C138.1999969482422,194.39999389648438,137.8000030517578,200.6999969482422,138.3000030517578,207.8000030517578C139,218.10000610351562,143.6999969482422,228.39999389648438,146.5,234.5C148.5,238.6999969482422,149.10000610351562,240.1999969482422,148.60000610351562,241.39999389648438C147,245.3000030517578,125.0999984741211,248.10000610351562,117.5,248.6999969482422C113.69999694824219,249.1999969482422,109.0999984741211,249.39999389648438,104.0999984741211,249.39999389648438zM73.80000305175781,243.8000030517578C77.9000015258789,245.1999969482422,101.5999984741211,246.89999389648438,117.0999984741211,245.60000610351562C132.10000610351562,244.3000030517578,142.8000030517578,241.60000610351562,145.1999969482422,240.3000030517578C144.89999389648438,239.39999389648438,144.10000610351562,237.60000610351562,143.3000030517578,236C140.39999389648438,229.6999969482422,135.5,219.10000610351562,134.8000030517578,208.1999969482422C133.8000030517578,192.3000030517578,136.8000030517578,181,136.89999389648438,180.60000610351562C137.10000610351562,179.89999389648438,137.8000030517578,179.39999389648438,138.5,179.39999389648438C139.3000030517578,179.39999389648438,139.89999389648438,180,140,180.6999969482422C142.60000610351562,195.10000610351562,147.8000030517578,219,150.5,221.6999969482422C151.89999389648438,223.10000610351562,154.6999969482422,226.1999969482422,158,229.8000030517578C162.6999969482422,234.89999389648438,170.3000030517578,243.3000030517578,172.5,245.10000610351562C174.10000610351562,244.10000610351562,178.39999389648438,239.89999389648438,182.10000610351562,235.89999389648438C177.8000030517578,230.8000030517578,162.6999969482422,212.60000610351562,160.6999969482422,206.60000610351562C160,204.5,159.6999969482422,199.10000610351562,159.1999969482422,191.60000610351562C158.1999969482422,176,156.60000610351562,149.8000030517578,150.1999969482422,144.1999969482422C142.39999389648438,137.5,133.8000030517578,134.39999389648438,130,134.10000610351562L131.8000030517578,138.3000030517578C132,138.89999389648438,131.89999389648438,139.5,131.60000610351562,140C116,158.5,114.9000015258789,158.3000030517578,113.9000015258789,158.1999969482422C113.19999694824219,158.10000610351562,112.5999984741211,157.60000610351562,112.5,156.89999389648438C112.0999984741211,154.5,111.4000015258789,152.1999969482422,110.5,150.1999969482422C109.5999984741211,150.89999389648438,108.9000015258789,151.60000610351562,108.5,152C108.9000015258789,154.5,109.9000015258789,162.5,109.19999694824219,174.6999969482422C109.0999984741211,175.60000610351562,108.4000015258789,176.3000030517578,107.5,176.1999969482422C106.5999984741211,176.10000610351562,105.9000015258789,175.39999389648438,106,174.5C106.69999694824219,161.8000030517578,105.5,153.60000610351562,105.19999694824219,152.10000610351562C104.80000305175781,151.6999969482422,104.0999984741211,150.89999389648438,103.19999694824219,149.89999389648438C102.0999984741211,151.89999389648438,101,154.10000610351562,99.9000015258789,156.60000610351562C99.69999694824219,157.10000610351562,99.19999694824219,157.5,98.5999984741211,157.60000610351562C97.5,157.6999969482422,96.4000015258789,157.8000030517578,81.30000305175781,137.10000610351562C80.9000015258789,136.5,80.9000015258789,135.8000030517578,81.30000305175781,135.1999969482422L83.80000305175781,131.60000610351562C78.0999984741211,130.39999389648438,69.4000015258789,131.60000610351562,62.79999923706055,136.60000610351562C51,145.5,14.300000190734863,185.10000610351562,14.300000190734863,190.1999969482422C14.600000381469727,195.3000030517578,31.399999618530273,209.1999969482422,41.400001525878906,214.89999389648438C44,216.39999389648438,45.599998474121094,217.39999389648438,46.5,218.10000610351562L53.29999923706055,210.8000030517578C33.400001525878906,193,33.400001525878906,190.6999969482422,33.400001525878906,190C33.400001525878906,189,33.400001525878906,187.60000610351562,52,172.6999969482422C64.0999984741211,163,70.80000305175781,158.10000610351562,72,158.10000610351562C74,158.10000610351562,74.30000305175781,160.10000610351562,75,166.1999969482422C75.5999984741211,170.89999389648438,76.30000305175781,177.1999969482422,77.9000015258789,181.10000610351562C81.0999984741211,188.60000610351562,82.9000015258789,207.5,81.0999984741211,214.6999969482422C80.69999694824219,216.5,79.9000015258789,219.1999969482422,79.0999984741211,222.3000030517578C77.30000305175781,228.89999389648438,74.0999984741211,240.8000030517578,73.80000305175781,243.8000030517578zM112.80000305175781,146.6999969482422C113.9000015258789,148.8000030517578,114.80000305175781,151.10000610351562,115.5,153.60000610351562C118.30000305175781,150.8000030517578,123.80000305175781,144.60000610351562,128.89999389648438,138.60000610351562L126.69999694824219,133.39999389648438L126.69999694824219,133.39999389648438L125.80000305175781,131.3000030517578L111.4000015258789,144.1999969482422C111.69999694824219,144.6999969482422,112.19999694824219,145.60000610351562,112.80000305175781,146.6999969482422L112.80000305175781,146.6999969482422zM84.80000305175781,135.89999389648438C89.9000015258789,142.89999389648438,95.5,150.1999969482422,98.0999984741211,153.10000610351562C99.30000305175781,150.5,100.5,148.1999969482422,101.80000305175781,146.1999969482422L101.80000305175781,146.1999969482422C102.4000015258789,145.3000030517578,102.9000015258789,144.5,103.30000305175781,144L89.0999984741211,130L88,131.60000610351562L88,131.60000610351562L84.80000305175781,135.89999389648438zM116.30000305175781,225.3000030517578C116,225.3000030517578,115.69999694824219,225.1999969482422,115.4000015258789,225C115.30000305175781,224.89999389648438,107,219.1999969482422,100.5,218.60000610351562C99.5999984741211,218.5,99,217.6999969482422,99,216.8000030517578C99,215.89999389648438,99.9000015258789,215.3000030517578,100.80000305175781,215.3000030517578C108.0999984741211,216,116.9000015258789,222,117.19999694824219,222.1999969482422C117.9000015258789,222.6999969482422,118.0999984741211,223.6999969482422,117.5999984741211,224.5C117.4000015258789,225,116.80000305175781,225.3000030517578,116.30000305175781,225.3000030517578z"/>
<path id="belt" fill="#606060" d="M148.39999389648438,247.5C148.39999389648438,247.5,133.1999969482422,250.3000030517578,110.69999694824219,250.3000030517578S71,247.5,71,247.5L72,239C72,239,89.80000305175781,241.8000030517578,110.80000305175781,241.8000030517578C131.8000030517578,241.8000030517578,146.89999389648438,238.60000610351562,146.89999389648438,238.60000610351562L148.39999389648438,247.5z"/>
<path id="beltBorder" d="M110.69999694824219,251.89999389648438C88.30000305175781,251.89999389648438,70.9000015258789,249.10000610351562,70.69999694824219,249.10000610351562C69.80000305175781,249,69.19999694824219,248.1999969482422,69.30000305175781,247.3000030517578L70.30000305175781,238.8000030517578C70.4000015258789,238.39999389648438,70.5999984741211,238,70.9000015258789,237.6999969482422C71.30000305175781,237.39999389648438,71.69999694824219,237.3000030517578,72.0999984741211,237.39999389648438C72.30000305175781,237.39999389648438,90,240.1999969482422,110.69999694824219,240.1999969482422C131.39999389648438,240.1999969482422,146.3000030517578,237,146.39999389648438,237C146.8000030517578,236.89999389648438,147.3000030517578,237,147.6999969482422,237.1999969482422C148.10000610351562,237.39999389648438,148.3000030517578,237.8000030517578,148.39999389648438,238.3000030517578L149.89999389648438,247.1999969482422C150,248.10000610351562,149.5,248.89999389648438,148.60000610351562,249.10000610351562C148.5,249.10000610351562,133.10000610351562,251.89999389648438,110.69999694824219,251.89999389648438zM72.69999694824219,246.10000610351562C77.4000015258789,246.8000030517578,92.30000305175781,248.60000610351562,110.5999984741211,248.60000610351562C128.60000610351562,248.60000610351562,142,246.8000030517578,146.39999389648438,246.10000610351562L145.39999389648438,240.39999389648438C140.89999389648438,241.1999969482422,127.69999694824219,243.39999389648438,110.69999694824219,243.39999389648438C93.4000015258789,243.39999389648438,78.19999694824219,241.5,73.30000305175781,240.8000030517578L72.69999694824219,246.10000610351562z"/>
<path fill="#686868" d="M102.5,241.1999969482422L116.19999694824219,241.1999969482422L116.19999694824219,250.89999389648438L102.5,250.89999389648438L102.5,241.1999969482422z"/>
<path id="buckleBorder" fill="#D3D3D3" d="M116.19999694824219,252.5L102.5,252.5C101.5999984741211,252.5,100.9000015258789,251.8000030517578,100.9000015258789,250.89999389648438L100.9000015258789,241.1999969482422C100.9000015258789,240.3000030517578,101.5999984741211,239.60000610351562,102.5,239.60000610351562L116.19999694824219,239.60000610351562C117.0999984741211,239.60000610351562,117.80000305175781,240.3000030517578,117.80000305175781,241.1999969482422L117.80000305175781,250.89999389648438C117.9000015258789,251.8000030517578,117.0999984741211,252.5,116.19999694824219,252.5zM104.0999984741211,249.1999969482422L114.5999984741211,249.1999969482422L114.5999984741211,242.8000030517578L104.0999984741211,242.8000030517578L104.0999984741211,249.1999969482422z"/>
<path id="hair" fill="#54311E" d="M136.6999969482422,132.3000030517578C136.89999389648438,135.39999389648438,137.3000030517578,138.60000610351562,138.5,143.10000610351562C142.10000610351562,155.5,134.3000030517578,157,134,165.10000610351562C139.10000610351562,157.60000610351562,149.6999969482422,163.1999969482422,150.8000030517578,153.1999969482422C151.89999389648438,143.1999969482422,152.89999389648438,144.39999389648438,153.39999389648438,140.3000030517578C153.89999389648438,136.3000030517578,149.10000610351562,133.10000610351562,149,130.10000610351562C148.89999389648438,127.0999984741211,152.5,121.0999984741211,152.3000030517578,115C152.10000610351562,108.9000015258789,151.10000610351562,110,149.6999969482422,106.19999694824219C148.3000030517578,102.4000015258789,150.89999389648438,94.5,151.60000610351562,88.5999984741211C152.3000030517578,82.69999694824219,147.39999389648438,71.9000015258789,145.10000610351562,68.0999984741211C142.8000030517578,64.30000305175781,146,50.20000076293945,141.10000610351562,46.5C136.3000030517578,42.79999923706055,137.8000030517578,40.599998474121094,130.3000030517578,34.29999923706055S111,31.5,111,31.5C111,31.5,102.80000305175781,25.200000762939453,84.19999694824219,31.799999237060547C65.5,38.5,69,61.29999923706055,69,67C69,72.69999694824219,60,74.80000305175781,59.599998474121094,86.30000305175781C59.20000076293945,97.80000305175781,59.400001525878906,97.69999694824219,60.79999923706055,105.19999694824219C62.20000076293945,112.69999694824219,58.099998474121094,116.69999694824219,57.099998474121094,123.30000305175781C56.099998474121094,129.89999389648438,65.5,139.89999389648438,65.30000305175781,143.89999389648438C65.0999984741211,147.89999389648438,63.29999923706055,155.8000030517578,64.5,157.89999389648438C65.69999694824219,160,65.30000305175781,163.8000030517578,68.80000305175781,166.6999969482422C72.30000305175781,169.6999969482422,74.69999694824219,179.1999969482422,75.0999984741211,177.5C75.4000015258789,175.8000030517578,77.5,166.6999969482422,77.19999694824219,163.6999969482422C76.9000015258789,160.6999969482422,78.9000015258789,153.60000610351562,78.80000305175781,149.89999389648438C78.5999984741211,146.1999969482422,75.69999694824219,142.8000030517578,75.5,138.89999389648438C75.30000305175781,135.10000610351562,78.80000305175781,133.6999969482422,79,128.39999389648438C79,128.10000610351562,79,127.80000305175781,79,127.5C81.5999984741211,127.4000015258789,84.0999984741211,127.69999694824219,86.0999984741211,128.3000030517578L87.5,126.30000305175781C87.80000305175781,125.9000015258789,88.19999694824219,125.69999694824219,88.69999694824219,125.5999984741211C89.19999694824219,125.5999984741211,89.5999984741211,125.69999694824219,90,126.0999984741211L90.80000305175781,126.9000015258789C91.80000305175781,123,91.80000305175781,118.80000305175781,91.5999984741211,116.19999694824219C86.69999694824219,112.80000305175781,82.0999984741211,107.9000015258789,78.4000015258789,102.19999694824219C77.4000015258789,98.30000305175781,74.30000305175781,95.0999984741211,73.9000015258789,90.69999694824219C73.4000015258789,85.5,75.30000305175781,86.80000305175781,76,81.19999694824219C76.69999694824219,75.5999984741211,74.69999694824219,73,75.0999984741211,66.69999694824219C75.5,60.400001525878906,83.4000015258789,58.20000076293945,84.9000015258789,54.5C84.9000015258789,54.5,89.5999984741211,56.79999923706055,93.80000305175781,56.79999923706055C98,56.79999923706055,97.4000015258789,50.20000076293945,104.4000015258789,50.20000076293945C111.30000305175781,50.20000076293945,111.9000015258789,53.79999923706055,115.5999984741211,56.5C119.19999694824219,59.20000076293945,119.5,55.900001525878906,125.30000305175781,57.70000076293945C136.1999969482422,58.599998474121094,135.60000610351562,74.9000015258789,135,84C134.5,91.80000305175781,137.10000610351562,94.5,139.60000610351562,98C137.8000030517578,101.5,135.6999969482422,104.80000305175781,133.1999969482422,107.80000305175781C130.39999389648438,111.19999694824219,127.30000305175781,114.0999984741211,124.0999984741211,116.30000305175781C124.30000305175781,120.5999984741211,124.9000015258789,124.0999984741211,125.9000015258789,126.80000305175781C126.0999984741211,126.69999694824219,126.4000015258789,126.69999694824219,126.69999694824219,126.80000305175781C127.19999694824219,126.9000015258789,127.5999984741211,127.30000305175781,127.80000305175781,127.69999694824219L129.10000610351562,130.60000610351562C130.89999389648438,130.60000610351562,133.60000610351562,131.1999969482422,136.6999969482422,132.3000030517578z"/>
<path id="hairBorder" d="M75,179.3000030517578C73.69999694824219,179.3000030517578,73.30000305175781,178.3000030517578,72.19999694824219,175.8000030517578C71.19999694824219,173.39999389648438,69.5,169.39999389648438,67.80000305175781,167.89999389648438C65.0999984741211,165.60000610351562,64.4000015258789,162.8000030517578,63.79999923706055,160.8000030517578C63.599998474121094,159.89999389648438,63.400001525878906,159.1999969482422,63.099998474121094,158.6999969482422C62.099998474121094,157,62.400001525878906,153.6999969482422,63.099998474121094,148.6999969482422C63.400001525878906,146.89999389648438,63.599998474121094,145.10000610351562,63.70000076293945,143.89999389648438C63.79999923706055,142.6999969482422,62.099998474121094,139.89999389648438,60.599998474121094,137.39999389648438C57.900001525878906,132.8000030517578,54.79999923706055,127.5999984741211,55.5,123.19999694824219C55.900001525878906,120.5999984741211,56.79999923706055,118.4000015258789,57.599998474121094,116.30000305175781C58.900001525878906,112.9000015258789,60,109.9000015258789,59.20000076293945,105.69999694824219L58.79999923706055,103.69999694824219C57.70000076293945,98,57.5,97,57.900001525878906,86.4000015258789C58.20000076293945,79.0999984741211,61.5,75.30000305175781,64.30000305175781,72.30000305175781C66.0999984741211,70.30000305175781,67.30000305175781,68.9000015258789,67.30000305175781,67.0999984741211C67.30000305175781,66.5,67.30000305175781,65.69999694824219,67.19999694824219,64.80000305175781C66.80000305175781,56.400001525878906,65.80000305175781,36.79999923706055,83.5999984741211,30.5C89.4000015258789,28.399999618530273,94.9000015258789,27.399999618530273,99.80000305175781,27.399999618530273C106,27.399999618530273,109.80000305175781,29.100000381469727,111.19999694824219,30C112.4000015258789,29.700000762939453,115.19999694824219,29.200000762939453,118.4000015258789,29.200000762939453C123.69999694824219,29.200000762939453,128,30.600000381469727,131.3000030517578,33.29999923706055C135.60000610351562,36.900001525878906,137.10000610351562,39.29999923706055,138.3000030517578,41.20000076293945C139.3000030517578,42.70000076293945,140,44,142,45.5C145.5,48.20000076293945,145.60000610351562,54.5,145.60000610351562,60C145.60000610351562,63,145.6999969482422,66.30000305175781,146.39999389648438,67.5C148.8000030517578,71.5999984741211,153.8000030517578,82.5999984741211,153.10000610351562,89C152.89999389648438,91,152.39999389648438,93.19999694824219,152,95.30000305175781C151.1999969482422,99.19999694824219,150.3000030517578,103.69999694824219,151.10000610351562,105.9000015258789C151.5,107,151.89999389648438,107.69999694824219,152.1999969482422,108.30000305175781C153.10000610351562,109.80000305175781,153.60000610351562,111,153.8000030517578,115.30000305175781C153.89999389648438,119.0999984741211,152.60000610351562,122.80000305175781,151.60000610351562,125.80000305175781C151,127.5999984741211,150.39999389648438,129.39999389648438,150.39999389648438,130.3000030517578C150.39999389648438,131.10000610351562,151.3000030517578,132.3000030517578,152.10000610351562,133.5C153.5,135.5,155.1999969482422,137.89999389648438,154.8000030517578,140.8000030517578C154.60000610351562,142.5,154.3000030517578,143.39999389648438,154,144.3000030517578C153.5,145.6999969482422,152.89999389648438,147.5,152.1999969482422,153.60000610351562C151.5,160.3000030517578,146.89999389648438,161.3000030517578,143,162.10000610351562C140,162.8000030517578,137.10000610351562,163.39999389648438,135.1999969482422,166.1999969482422C134.8000030517578,166.8000030517578,134,167.10000610351562,133.3000030517578,166.8000030517578C132.60000610351562,166.60000610351562,132.1999969482422,165.89999389648438,132.1999969482422,165.1999969482422C132.3000030517578,161.60000610351562,133.6999969482422,159.1999969482422,135.10000610351562,156.89999389648438C137,153.60000610351562,138.8000030517578,150.60000610351562,136.8000030517578,143.6999969482422C134.8000030517578,136.39999389648438,134.8000030517578,132.39999389648438,134.89999389648438,126.9000015258789L134.89999389648438,125.0999984741211C134.89999389648438,122.30000305175781,136,118.5,137.1999969482422,114.4000015258789C138.60000610351562,109.30000305175781,140.39999389648438,103,139.1999969482422,100.9000015258789C138.60000610351562,100,138,99.0999984741211,137.39999389648438,98.19999694824219C135.10000610351562,95.0999984741211,132.6999969482422,91.80000305175781,133.3000030517578,84.19999694824219C134,73.19999694824219,133.8000030517578,60.400001525878906,125.0999984741211,59.70000076293945C125,59.70000076293945,124.9000015258789,59.70000076293945,124.69999694824219,59.599998474121094C123.5999984741211,59.29999923706055,122.69999694824219,59.099998474121094,121.9000015258789,59.099998474121094C121.19999694824219,59.099998474121094,120.5999984741211,59.20000076293945,120,59.29999923706055C119.4000015258789,59.400001525878906,118.9000015258789,59.5,118.19999694824219,59.5C117,59.5,115.80000305175781,59.099998474121094,114.5,58.099998474121094C113.4000015258789,57.20000076293945,112.5,56.29999923706055,111.69999694824219,55.5C109.9000015258789,53.5,108.5999984741211,52.099998474121094,104.30000305175781,52.099998474121094C101.19999694824219,52.099998474121094,100.0999984741211,53.599998474121094,98.9000015258789,55.400001525878906C97.80000305175781,56.900001525878906,96.5,58.79999923706055,93.80000305175781,58.79999923706055C90.69999694824219,58.79999923706055,87.30000305175781,57.70000076293945,85.5,57C84.69999694824219,58,83.4000015258789,59,82,60C79.5,61.900001525878906,76.9000015258789,63.900001525878906,76.69999694824219,67C76.5,69.80000305175781,76.9000015258789,71.9000015258789,77.19999694824219,73.9000015258789C77.5999984741211,76.0999984741211,78,78.5,77.5999984741211,81.5999984741211C77.30000305175781,84.4000015258789,76.5999984741211,85.69999694824219,76.0999984741211,86.69999694824219C75.5999984741211,87.69999694824219,75.30000305175781,88.30000305175781,75.5,90.69999694824219C75.69999694824219,92.80000305175781,76.69999694824219,94.69999694824219,77.80000305175781,96.69999694824219C79.0999984741211,99.19999694824219,80.5,101.80000305175781,80.4000015258789,105C80.30000305175781,107.9000015258789,79.19999694824219,109.5999984741211,78.19999694824219,111.19999694824219C77.19999694824219,112.80000305175781,76.30000305175781,114.19999694824219,76.4000015258789,116.9000015258789C76.5,119.5,77.5,120.80000305175781,78.4000015258789,122.19999694824219C79.5,123.69999694824219,80.69999694824219,125.4000015258789,80.5999984741211,128.60000610351562C80.5,131.6999969482422,79.30000305175781,133.6999969482422,78.4000015258789,135.3000030517578C77.5999984741211,136.60000610351562,77.0999984741211,137.60000610351562,77.0999984741211,138.89999389648438C77.19999694824219,140.5,77.9000015258789,142.1999969482422,78.69999694824219,143.89999389648438C79.5,145.8000030517578,80.4000015258789,147.6999969482422,80.5,149.8000030517578C80.5999984741211,151.8000030517578,80.0999984741211,154.5,79.5999984741211,157.1999969482422C79.19999694824219,159.6999969482422,78.69999694824219,162.1999969482422,78.9000015258789,163.5C79.19999694824219,166,78.0999984741211,171.60000610351562,77,176.6999969482422C76.9000015258789,177.1999969482422,76.80000305175781,177.5,76.80000305175781,177.6999969482422C76.5,178.89999389648438,75.69999694824219,179.3000030517578,75,179.3000030517578L75,179.3000030517578zM99.80000305175781,30.5C95.30000305175781,30.5,90.19999694824219,31.5,84.69999694824219,33.400001525878906C69.19999694824219,38.900001525878906,70.0999984741211,56.79999923706055,70.5,64.5C70.5,65.5,70.5999984741211,66.4000015258789,70.5999984741211,67C70.5999984741211,70,68.69999694824219,72.0999984741211,66.80000305175781,74.30000305175781C64.30000305175781,77.0999984741211,61.5,80.19999694824219,61.29999923706055,86.4000015258789C60.79999923706055,96.5999984741211,61,97.5,62,103L62.400001525878906,105C63.400001525878906,110.19999694824219,62,113.80000305175781,60.599998474121094,117.4000015258789C59.79999923706055,119.4000015258789,59.099998474121094,121.4000015258789,58.70000076293945,123.69999694824219C58.20000076293945,127,61.099998474121094,131.8000030517578,63.400001525878906,135.6999969482422C65.4000015258789,139.1999969482422,67.0999984741211,141.89999389648438,67,144C66.9000015258789,145.39999389648438,66.69999694824219,147.1999969482422,66.4000015258789,149.10000610351562C66.0999984741211,151.60000610351562,65.4000015258789,156.10000610351562,65.9000015258789,157.10000610351562C66.4000015258789,158,66.69999694824219,159,67,160.10000610351562C67.5,162,68,163.89999389648438,69.9000015258789,165.5C71.80000305175781,167.10000610351562,73.30000305175781,170.1999969482422,74.4000015258789,172.8000030517578C75,169.60000610351562,75.69999694824219,165.60000610351562,75.5,164C75.30000305175781,162.3000030517578,75.80000305175781,159.60000610351562,76.30000305175781,156.8000030517578C76.69999694824219,154.3000030517578,77.19999694824219,151.8000030517578,77.0999984741211,150.10000610351562C77,148.60000610351562,76.30000305175781,147,75.5999984741211,145.3000030517578C74.80000305175781,143.39999389648438,73.9000015258789,141.3000030517578,73.80000305175781,139.10000610351562C73.69999694824219,136.8000030517578,74.5999984741211,135.1999969482422,75.5,133.6999969482422C76.4000015258789,132.1999969482422,77.19999694824219,130.8000030517578,77.30000305175781,128.5C77.4000015258789,126.4000015258789,76.69999694824219,125.5,75.69999694824219,124.0999984741211C74.5999984741211,122.5999984741211,73.30000305175781,120.69999694824219,73.0999984741211,117.19999694824219C72.9000015258789,113.4000015258789,74.19999694824219,111.30000305175781,75.4000015258789,109.5C76.30000305175781,108.0999984741211,77,106.9000015258789,77.0999984741211,105C77.19999694824219,102.5999984741211,76.0999984741211,100.5999984741211,74.9000015258789,98.30000305175781C73.69999694824219,96.0999984741211,72.5,93.9000015258789,72.30000305175781,91.0999984741211C72,88,72.5,86.80000305175781,73.19999694824219,85.30000305175781C73.69999694824219,84.4000015258789,74.0999984741211,83.5,74.4000015258789,81.30000305175781C74.69999694824219,78.69999694824219,74.4000015258789,76.80000305175781,74,74.5999984741211C73.69999694824219,72.5,73.30000305175781,70.19999694824219,73.4000015258789,66.9000015258789C73.69999694824219,62.400001525878906,77.0999984741211,59.70000076293945,79.9000015258789,57.5C81.4000015258789,56.29999923706055,82.9000015258789,55.20000076293945,83.30000305175781,54.099998474121094C83.5,53.70000076293945,83.80000305175781,53.400001525878906,84.19999694824219,53.20000076293945C84.5999984741211,53,85.0999984741211,53.099998474121094,85.5,53.20000076293945C85.5,53.20000076293945,89.9000015258789,55.29999923706055,93.69999694824219,55.29999923706055C94.5999984741211,55.29999923706055,95.0999984741211,54.70000076293945,96.19999694824219,53.29999923706055C97.5999984741211,51.400001525878906,99.5,48.70000076293945,104.30000305175781,48.70000076293945C110,48.70000076293945,112.0999984741211,50.900001525878906,114.0999984741211,53.099998474121094C114.80000305175781,53.900001525878906,115.5,54.70000076293945,116.5,55.29999923706055C117.4000015258789,56,117.9000015258789,56.099998474121094,118.30000305175781,56.099998474121094C118.5999984741211,56.099998474121094,119,56,119.4000015258789,55.900001525878906C120.0999984741211,55.79999923706055,120.9000015258789,55.599998474121094,121.9000015258789,55.599998474121094C123,55.599998474121094,124.19999694824219,55.79999923706055,125.5,56.20000076293945C138.3000030517578,57.400001525878906,137,76.19999694824219,136.5,84.19999694824219C136.10000610351562,90.5999984741211,137.89999389648438,93.19999694824219,140,96.0999984741211C140.6999969482422,97,141.3000030517578,97.9000015258789,142,99C144,102.30000305175781,142.1999969482422,108.5,140.39999389648438,115.0999984741211C139.39999389648438,118.80000305175781,138.3000030517578,122.5999984741211,138.3000030517578,125L138.3000030517578,126.80000305175781C138.3000030517578,132,138.3000030517578,135.8000030517578,140.10000610351562,142.6999969482422C142.5,150.89999389648438,140.10000610351562,154.89999389648438,138.10000610351562,158.39999389648438C137.6999969482422,159.10000610351562,137.3000030517578,159.8000030517578,136.89999389648438,160.5C138.8000030517578,159.60000610351562,140.6999969482422,159.10000610351562,142.5,158.8000030517578C146.39999389648438,158,148.6999969482422,157.5,149.1999969482422,153.10000610351562C149.89999389648438,146.6999969482422,150.60000610351562,144.6999969482422,151.10000610351562,143.10000610351562C151.39999389648438,142.1999969482422,151.60000610351562,141.60000610351562,151.8000030517578,140.1999969482422C152,138.5,150.8000030517578,136.8000030517578,149.60000610351562,135.1999969482422C148.5,133.6999969482422,147.39999389648438,132.10000610351562,147.3000030517578,130.39999389648438C147.1999969482422,128.8000030517578,147.8000030517578,127,148.60000610351562,124.5999984741211C149.60000610351562,121.69999694824219,150.6999969482422,118.5,150.60000610351562,115.19999694824219C150.5,111.5,150.10000610351562,110.9000015258789,149.5,109.80000305175781C149.10000610351562,109.0999984741211,148.60000610351562,108.30000305175781,148.10000610351562,106.9000015258789C147,103.9000015258789,147.89999389648438,99.4000015258789,148.89999389648438,94.5999984741211C149.3000030517578,92.5,149.6999969482422,90.4000015258789,150,88.5999984741211C150.60000610351562,83.4000015258789,146.1999969482422,73.19999694824219,143.8000030517578,69.0999984741211C142.6999969482422,67.19999694824219,142.60000610351562,63.79999923706055,142.60000610351562,60C142.60000610351562,55.400001525878906,142.5,49.70000076293945,140.1999969482422,48C137.8000030517578,46.099998474121094,136.8000030517578,44.599998474121094,135.6999969482422,42.900001525878906C134.5,41.099998474121094,133.1999969482422,39,129.3000030517578,35.70000076293945C126.5999984741211,33.5,123,32.29999923706055,118.5,32.29999923706055C114.5999984741211,32.29999923706055,111.5,33.20000076293945,111.5,33.20000076293945C111,33.29999923706055,110.5,33.20000076293945,110.0999984741211,32.900001525878906C110,32.79999923706055,106.80000305175781,30.5,99.80000305175781,30.5z"/>
<path id="Hat" fill="#964B12" d="M148.10000610351562,70.19999694824219C147.5,69,147,68,146.5,67.30000305175781C145.8000030517578,66.0999984741211,145.8000030517578,62.79999923706055,145.6999969482422,59.79999923706055C145.6999969482422,57.599998474121094,145.60000610351562,55.400001525878906,145.39999389648438,53.29999923706055C156.6999969482422,49,178.5,43.79999923706055,181.10000610351562,55.900001525878906C184.10000610351562,69.19999694824219,158.8000030517578,70.30000305175781,148.10000610351562,70.19999694824219zM67.19999694824219,55.20000076293945C69.5999984741211,57.099998474121094,82.30000305175781,66,106.9000015258789,66C134.3000030517578,66,144.60000610351562,54.900001525878906,144.60000610351562,54.900001525878906L144.60000610351562,54.20000076293945C144.60000610351562,54.20000076293945,140.39999389648438,38.29999923706055,140.39999389648438,29.899999618530273C140.39999389648438,21.5,137.60000610351562,12.399999618530273,127.0999984741211,11.899999618530273C116.5999984741211,11.399999618530273,114.9000015258789,21,106.69999694824219,21.200000762939453C98.5,21.399999618530273,98.80000305175781,15,91.9000015258789,13.800000190734863C85,12.600000381469727,71.9000015258789,17.899999618530273,71.0999984741211,27.200000762939453C70.30000305175781,36.5,68.69999694824219,55,68.69999694824219,55L67.19999694824219,55L67.0999984741211,54.400001525878906C54.099998474121094,49.900001525878906,32.599998474121094,43.70000076293945,29.700000762939453,57.20000076293945C26.899999618530273,70.5,52.79999923706055,72.19999694824219,64.4000015258789,72C66.0999984741211,70.0999984741211,67.30000305175781,68.69999694824219,67.30000305175781,67C67.30000305175781,66.4000015258789,67.30000305175781,65.5999984741211,67.19999694824219,64.69999694824219C67.0999984741211,62.29999923706055,67,58.900001525878906,67.19999694824219,55.20000076293945L67.19999694824219,55.20000076293945L67.19999694824219,55.20000076293945z"/>
<path id="HatBorder" d="M182.8000030517578,55.599998474121094C182.10000610351562,52.599998474121094,180.39999389648438,50.20000076293945,177.6999969482422,48.79999923706055C168.39999389648438,43.79999923706055,150.39999389648438,49.79999923706055,145.5,51.599998474121094C144.39999389648438,46.900001525878906,142,36.29999923706055,142,30.100000381469727C142,18.100000381469727,136.60000610351562,10.899999618530273,127.0999984741211,10.5C120.69999694824219,10.199999809265137,117.30000305175781,13.199999809265137,114.19999694824219,15.899999618530273C111.80000305175781,18,109.69999694824219,19.799999237060547,106.5,19.899999618530273C102.69999694824219,20,101.19999694824219,18.5,99.30000305175781,16.700000762939453C97.5999984741211,15,95.69999694824219,13.100000381469727,92,12.5C87.0999984741211,11.600000381469727,80.0999984741211,13.699999809265137,75.30000305175781,17.299999237060547C71.69999694824219,20.100000381469727,69.5999984741211,23.600000381469727,69.30000305175781,27.299999237060547C68.69999694824219,34.599998474121094,67.5999984741211,47.5,67.0999984741211,52.79999923706055C55.5,48.900001525878906,41.29999923706055,45,33.400001525878906,49.5C30.600000381469727,51.099998474121094,28.799999237060547,53.599998474121094,28.100000381469727,57C27.399999618530273,60.099998474121094,28.100000381469727,62.900001525878906,30,65.30000305175781C36.099998474121094,72.69999694824219,54.70000076293945,73.80000305175781,62.900001525878906,73.80000305175781C63.29999923706055,73.30000305175781,63.79999923706055,72.80000305175781,64.19999694824219,72.30000305175781C64.80000305175781,71.69999694824219,65.30000305175781,71.0999984741211,65.69999694824219,70.5C65.5999984741211,70.5,65.5,70.5,65.30000305175781,70.5C52.900001525878906,70.69999694824219,37.099998474121094,68.80000305175781,32.5,63.20000076293945C31.200000762939453,61.599998474121094,30.799999237060547,59.79999923706055,31.299999237060547,57.70000076293945C31.799999237060547,55.20000076293945,33.099998474121094,53.5,35,52.400001525878906C42.20000076293945,48.29999923706055,57.900001525878906,53.20000076293945,65.19999694824219,55.70000076293945C65.30000305175781,56,65.4000015258789,56.20000076293945,65.69999694824219,56.400001525878906C66.19999694824219,56.900001525878906,79.0999984741211,67.9000015258789,106.80000305175781,67.9000015258789C134.60000610351562,67.9000015258789,145.1999969482422,56.79999923706055,145.6999969482422,56.29999923706055C146,55.900001525878906,146.1999969482422,55.5,146.10000610351562,55C155.89999389648438,51.29999923706055,169.5,48.29999923706055,176.10000610351562,51.79999923706055C178,52.79999923706055,179.10000610351562,54.400001525878906,179.60000610351562,56.5C180.10000610351562,58.599998474121094,179.6999969482422,60.400001525878906,178.39999389648438,62C173.1999969482422,68.4000015258789,154.6999969482422,69,147.1999969482422,68.9000015258789C147.6999969482422,69.80000305175781,148.1999969482422,70.9000015258789,148.8000030517578,72.19999694824219C158.8000030517578,72.19999694824219,175.3000030517578,70.9000015258789,180.89999389648438,64.0999984741211C182.8000030517578,61.400001525878906,183.5,58.70000076293945,182.8000030517578,55.599998474121094zM106.9000015258789,64.4000015258789C89.4000015258789,64.4000015258789,78,59.70000076293945,72.30000305175781,56.599998474121094L139.8000030517578,56.599998474121094C134.8000030517578,59.70000076293945,124.5,64.4000015258789,106.9000015258789,64.4000015258789zM70.4000015258789,53.29999923706055C70.80000305175781,48.20000076293945,72,34.900001525878906,72.5999984741211,27.5C72.9000015258789,23.899999618530273,75.30000305175781,21.299999237060547,77.30000305175781,19.799999237060547C81.9000015258789,16.299999237060547,88,15,91.4000015258789,15.600000381469727C94,16.100000381469727,95.4000015258789,17.399999618530273,96.9000015258789,18.899999618530273C99,20.899999618530273,101.30000305175781,23.200000762939453,106.5,23.100000381469727C110.80000305175781,23,113.5999984741211,20.600000381469727,116.19999694824219,18.399999618530273C119.0999984741211,15.899999618530273,121.80000305175781,13.600000381469727,126.80000305175781,13.800000190734863C136.5,14.199999809265137,138.60000610351562,22.899999618530273,138.60000610351562,30.100000381469727C138.60000610351562,37.20000076293945,141.5,49.29999923706055,142.5,53.400001525878906L70.4000015258789,53.29999923706055L70.4000015258789,53.29999923706055z"/>
</g>
</svg>