<svg xmlns="http://www.w3.org/2000/svg" xmlns:xlink="http://www.w3.org/1999/xlink" viewBox= "0 0 198 405" width="198px" height="405px">
<g xmlns="http://www.w3.org/2000/svg" id="FatherV2.svg">
<path id="Shoes" fill="#6D4533" d="M132.10000610351562,377.5C131.8000030517578,380,132,389.8999938964844,135,392C138,394.1000061035156,150.1999969482422,393,166.3000030517578,387.29998779296875C182.39999389648438,381.6000061035156,186,376.29998779296875,185.6999969482422,373.29998779296875C185.39999389648438,370.29998779296875,182,367.3999938964844,177.89999389648438,367.79998779296875C173.8000030517578,368.20001220703125,169.60000610351562,371.3999938964844,164.1999969482422,370.6000061035156C158.8000030517578,369.79998779296875,155.3000030517578,366.8999938964844,151.6999969482422,367.70001220703125S132.60000610351562,373.5,132.10000610351562,377.5zM16.399999618530273,374.20001220703125C15.899999618530273,378.6000061035156,12.899999618530273,389.70001220703125,17,390.70001220703125C21.100000381469727,391.70001220703125,34.599998474121094,390,38.900001525878906,390.5C43.20000076293945,391,61.099998474121094,393.70001220703125,66,391.6000061035156C70.9000015258789,389.5,71.80000305175781,386.8999938964844,71.4000015258789,384.1000061035156C70.69999694824219,379,60.599998474121094,380.6000061035156,58.099998474121094,379.70001220703125C55.79999923706055,378.8999938964844,38.599998474121094,367.70001220703125,35.29999923706055,367.6000061035156S16.5,373.29998779296875,16.399999618530273,374.20001220703125z"/>
<path id="ShoesBorder" d="M187.1999969482422,373C186.8000030517578,369.29998779296875,182.8000030517578,365.5,177.6999969482422,366.1000061035156C176,366.29998779296875,174.3000030517578,366.8999938964844,172.60000610351562,367.5C170,368.3999938964844,167.39999389648438,369.3999938964844,164.5,368.8999938964844C162.3000030517578,368.6000061035156,160.5,367.8999938964844,158.8000030517578,367.29998779296875C156.3000030517578,366.3999938964844,154,365.5,151.5,366.1000061035156C151.3000030517578,366.1000061035156,131.39999389648438,371.29998779296875,130.60000610351562,377.29998779296875L130.60000610351562,377.29998779296875C130.39999389648438,378.79998779296875,130,390.3999938964844,134.1999969482422,393.29998779296875C135.39999389648438,394.1000061035156,137.5,394.5,140.39999389648438,394.5C146.8000030517578,394.5,156.60000610351562,392.3999938964844,167,388.70001220703125C185.3000030517578,382.1000061035156,187.60000610351562,376,187.1999969482422,373zM165.6999969482422,385.70001220703125C148.5,391.79998779296875,137.8000030517578,391.8999938964844,135.89999389648438,390.6000061035156C135.8000030517578,390.6000061035156,135.8000030517578,390.5,135.6999969482422,390.5C144.60000610351562,391,153.39999389648438,389.70001220703125,161.89999389648438,386.79998779296875C170.5,383.70001220703125,177.39999389648438,380.20001220703125,181.89999389648438,377.29998779296875C179.60000610351562,379.3999938964844,175,382.29998779296875,165.6999969482422,385.70001220703125zM161.1999969482422,384.79998779296875C152.60000610351562,387.79998779296875,143.6999969482422,389,134.60000610351562,388.29998779296875C133.60000610351562,385.1000061035156,133.39999389648438,379.79998779296875,133.60000610351562,377.6000061035156C133.89999389648438,375.29998779296875,146.39999389648438,370.3999938964844,152,369.1000061035156C153.60000610351562,368.79998779296875,155.3000030517578,369.3999938964844,157.5,370.20001220703125C158.1999969482422,370.5,159,370.79998779296875,159.8000030517578,371C160.3000030517578,372.20001220703125,160.5,373.5,160.39999389648438,374.70001220703125C160.39999389648438,375.29998779296875,160.8000030517578,375.70001220703125,161.39999389648438,375.70001220703125L161.39999389648438,375.70001220703125C161.89999389648438,375.70001220703125,162.39999389648438,375.29998779296875,162.39999389648438,374.70001220703125C162.39999389648438,373.6000061035156,162.3000030517578,372.6000061035156,162.10000610351562,371.5C162.6999969482422,371.6000061035156,163.3000030517578,371.70001220703125,163.89999389648438,371.79998779296875C164.1999969482422,371.79998779296875,164.39999389648438,371.79998779296875,164.60000610351562,371.8999938964844C164.89999389648438,372.79998779296875,165.10000610351562,373.79998779296875,165,374.79998779296875C164.89999389648438,375.29998779296875,165.3000030517578,375.79998779296875,165.89999389648438,375.8999938964844L166,375.8999938964844C166.5,375.8999938964844,166.89999389648438,375.5,167,375C167.10000610351562,374,167,372.8999938964844,166.6999969482422,371.8999938964844C169.1999969482422,371.70001220703125,171.5,370.8999938964844,173.60000610351562,370.20001220703125C175.1999969482422,369.6000061035156,176.60000610351562,369.1000061035156,178,369C181,368.70001220703125,183.60000610351562,370.79998779296875,183.89999389648438,372.8999938964844C180.10000610351562,376.29998779296875,172.10000610351562,380.8999938964844,161.1999969482422,384.79998779296875zM73,383.8999938964844C72.30000305175781,378.8999938964844,65.9000015258789,378.6000061035156,61.599998474121094,378.5C60.400001525878906,378.5,59.099998474121094,378.3999938964844,58.599998474121094,378.20001220703125C57.900001525878906,378,54.70000076293945,376.1000061035156,51.900001525878906,374.3999938964844C43.70000076293945,369.5,37.70000076293945,366.1000061035156,35.400001525878906,366C33,365.8999938964844,26.700000762939453,368.1000061035156,24.200000762939453,369C15.100000381469727,372.29998779296875,15,373.1000061035156,14.899999618530273,374C14.800000190734863,374.79998779296875,14.600000381469727,375.79998779296875,14.399999618530273,377C13.300000190734863,382.8999938964844,11.899999618530273,391.1000061035156,16.700000762939453,392.29998779296875C19.299999237060547,392.8999938964844,24.700000762939453,392.6000061035156,30,392.29998779296875C33.70000076293945,392.1000061035156,37.20000076293945,391.8999938964844,38.900001525878906,392.1000061035156C39.599998474121094,392.20001220703125,40.5,392.29998779296875,41.70000076293945,392.3999938964844C48.400001525878906,393.20001220703125,55,394,60,394C63,394,65.30000305175781,393.70001220703125,66.80000305175781,393.1000061035156C71.5999984741211,391,73.5999984741211,388,73,383.8999938964844zM41.900001525878906,389.20001220703125C40.70000076293945,389,39.70000076293945,388.8999938964844,39,388.8999938964844C38.400001525878906,388.79998779296875,37.70000076293945,388.79998779296875,36.79999923706055,388.79998779296875C34.79999923706055,388.79998779296875,32.20000076293945,388.8999938964844,29.5,389.1000061035156C24.700000762939453,389.3999938964844,19.299999237060547,389.70001220703125,17.200000762939453,389.1000061035156C17,389,16.799999237060547,388.79998779296875,16.600000381469727,388.5C17.700000762939453,388.3999938964844,18.700000762939453,388.29998779296875,19.799999237060547,388.20001220703125C27.200000762939453,387.5,34.900001525878906,386.79998779296875,39.79999923706055,387.70001220703125C47.599998474121094,389,55.5,389.8999938964844,63.400001525878906,390.5C58.29999923706055,391.29998779296875,47.099998474121094,389.8999938964844,41.900001525878906,389.20001220703125zM67.69999694824219,388.79998779296875C58.5,388.20001220703125,49.29999923706055,387.20001220703125,40.20000076293945,385.70001220703125C35.099998474121094,384.79998779296875,27.600000381469727,385.5,19.700000762939453,386.20001220703125C18.600000381469727,386.29998779296875,17.5,386.3999938964844,16.399999618530273,386.5C16.299999237060547,383.70001220703125,17.100000381469727,379.29998779296875,17.399999618530273,377.5C17.600000381469727,376.6000061035156,17.700000762939453,375.70001220703125,17.799999237060547,375C20.399999618530273,373.5,32.599998474121094,369.1000061035156,35.099998474121094,369.20001220703125C35.70000076293945,369.20001220703125,37.29999923706055,370,39.29999923706055,371C38.70000076293945,371.6000061035156,37.70000076293945,372.3999938964844,37,372.79998779296875L36.5,373.1000061035156C36,373.3999938964844,35.900001525878906,374,36.29999923706055,374.5C36.5,374.79998779296875,36.79999923706055,374.8999938964844,37.099998474121094,374.8999938964844C37.29999923706055,374.8999938964844,37.5,374.79998779296875,37.70000076293945,374.70001220703125L38.20000076293945,374.3999938964844C39.29999923706055,373.6000061035156,40.5,372.79998779296875,41.20000076293945,371.8999938964844C42.29999923706055,372.5,43.400001525878906,373.1000061035156,44.5,373.79998779296875C44.5,373.8999938964844,44.400001525878906,373.8999938964844,44.400001525878906,374C43.70000076293945,375,43,376.1000061035156,41.900001525878906,376.5C41.400001525878906,376.70001220703125,41.099998474121094,377.20001220703125,41.20000076293945,377.70001220703125C41.29999923706055,378.1000061035156,41.70000076293945,378.3999938964844,42.20000076293945,378.3999938964844C42.29999923706055,378.3999938964844,42.400001525878906,378.3999938964844,42.5,378.3999938964844C44.29999923706055,377.8999938964844,45.400001525878906,376.29998779296875,46.099998474121094,375.1000061035156C46.20000076293945,375,46.20000076293945,374.8999938964844,46.29999923706055,374.79998779296875C47.400001525878906,375.3999938964844,48.400001525878906,376,49.29999923706055,376.6000061035156C48.79999923706055,377.70001220703125,48,378.6000061035156,47,379.29998779296875C46.599998474121094,379.6000061035156,46.5,380.29998779296875,46.79999923706055,380.70001220703125C47,381,47.29999923706055,381.1000061035156,47.599998474121094,381.1000061035156C47.79999923706055,381.1000061035156,48,381,48.20000076293945,380.8999938964844C49.400001525878906,380,50.29999923706055,378.8999938964844,51,377.6000061035156C54.70000076293945,379.79998779296875,56.70000076293945,381,57.599998474121094,381.29998779296875C58.5,381.6000061035156,59.79999923706055,381.70001220703125,61.5,381.70001220703125C64.69999694824219,381.79998779296875,69.5,382,69.80000305175781,384.3999938964844C70,385.79998779296875,69.80000305175781,387.3999938964844,67.69999694824219,388.79998779296875z"/>
<path id="Pants" fill="#2D3E59" d="M128.39999389648438,290.20001220703125C127.69999694824219,273.20001220703125,106.9000015258789,235.39999389648438,104.69999694824219,229.60000610351562S91.80000305175781,209.8000030517578,92,207.1999969482422C92,207.1999969482422,75.80000305175781,207.5,59,207.89999389648438C42.099998474121094,208.3000030517578,36.5,211.89999389648438,38.900001525878906,229.3000030517578C39.70000076293945,234.89999389648438,42.099998474121094,239.10000610351562,45.400001525878906,242.60000610351562C37.20000076293945,256.3999938964844,33.5,294.79998779296875,31.899999618530273,298.5C30.100000381469727,302.79998779296875,27.200000762939453,309.3999938964844,26.799999237060547,313.20001220703125C26.399999618530273,317,25.299999237060547,329.3999938964844,23,334.8999938964844C20.700000762939453,340.3999938964844,14.5,355.8999938964844,14.899999618530273,359.29998779296875C15.399999618530273,362.70001220703125,18,365.1000061035156,18,367.20001220703125C18,369.29998779296875,12.399999618530273,375.1000061035156,12.399999618530273,378.5C12.399999618530273,381.8999938964844,14.699999809265137,378.8999938964844,23.5,377.70001220703125C32.29999923706055,376.3999938964844,43.599998474121094,372.5,46.29999923706055,364.8999938964844C49.099998474121094,357.29998779296875,54,336.5,54.900001525878906,330.20001220703125C55.79999923706055,323.8999938964844,59.099998474121094,313.70001220703125,62.29999923706055,309C65.5,304.29998779296875,68.30000305175781,296.6000061035156,71.5999984741211,289.79998779296875C73.5,285.8999938964844,76.69999694824219,280,79.0999984741211,275.79998779296875C84.9000015258789,283.8999938964844,90.19999694824219,291.29998779296875,95.69999694824219,296.5C104,304.29998779296875,108,326.3999938964844,111.0999984741211,336.6000061035156C114.19999694824219,346.79998779296875,120.0999984741211,358.29998779296875,122.9000015258789,361.5C125.80000305175781,364.70001220703125,124.5,367.6000061035156,124.5,372C124.5,376.3999938964844,123.9000015258789,381.3999938964844,125,381.3999938964844C126.0999984741211,381.3999938964844,129.8000030517578,380.20001220703125,130.6999969482422,378.3999938964844C131.60000610351562,376.6000061035156,134.10000610351562,375.20001220703125,138.10000610351562,374.6000061035156C142.10000610351562,374,151.3000030517578,370.5,153.6999969482422,364.29998779296875C156.1999969482422,358.1000061035156,129.10000610351562,307.20001220703125,128.39999389648438,290.20001220703125z"/>
<path id="PantsBorder" d="M77.19999694824219,275.8999938964844C77.4000015258789,276.20001220703125,77.5999984741211,276.5,77.80000305175781,276.79998779296875C78.30000305175781,277.5,78.80000305175781,278.20001220703125,79.30000305175781,278.79998779296875C77.0999984741211,282.70001220703125,74.69999694824219,287.20001220703125,73.0999984741211,290.3999938964844C72,292.70001220703125,71,295.1000061035156,70,297.3999938964844C67.9000015258789,302.20001220703125,66,306.6000061035156,63.70000076293945,309.8999938964844C60.599998474121094,314.29998779296875,57.5,324.29998779296875,56.599998474121094,330.3999938964844C55.599998474121094,336.8999938964844,50.70000076293945,357.79998779296875,47.900001525878906,365.5C44.20000076293945,375.6000061035156,28.5,378.6000061035156,23.799999237060547,379.29998779296875C20.399999618530273,379.79998779296875,18.100000381469727,380.5,16.399999618530273,381.1000061035156C15.199999809265137,381.5,14.199999809265137,381.79998779296875,13.399999618530273,381.79998779296875C12.899999618530273,381.79998779296875,12.399999618530273,381.70001220703125,11.899999618530273,381.29998779296875C10.899999618530273,380.6000061035156,10.800000190734863,379.5,10.800000190734863,378.6000061035156C10.800000190734863,376.20001220703125,12.600000381469727,373.3999938964844,14.399999618530273,370.79998779296875C15.199999809265137,369.6000061035156,16.399999618530273,367.79998779296875,16.399999618530273,367.20001220703125C16.399999618530273,366.6000061035156,15.899999618530273,365.70001220703125,15.300000190734863,364.70001220703125C14.5,363.29998779296875,13.600000381469727,361.6000061035156,13.300000190734863,359.5C12.800000190734863,355.5,19.399999618530273,339.20001220703125,21.5,334.29998779296875C23.399999618530273,329.70001220703125,24.5,319.70001220703125,25,314.8999938964844C25.100000381469727,314.20001220703125,25.100000381469727,313.6000061035156,25.200000762939453,313.1000061035156C25.700000762939453,309,28.5,302.3999938964844,30.399999618530273,298C30.799999237060547,297.1000061035156,31.5,292.6000061035156,32.29999923706055,287.79998779296875C34.70000076293945,272.79998779296875,37.5,256.8999938964844,41.70000076293945,246.8000030517578C42.400001525878906,247.60000610351562,43.29999923706055,248.1999969482422,44.29999923706055,248.39999389648438C44.400001525878906,248.39999389648438,44.400001525878906,248.39999389648438,44.5,248.39999389648438C40.20000076293945,259.3999938964844,37.20000076293945,277.8999938964844,35.5,288.29998779296875C34.5,294.8999938964844,33.900001525878906,298.1000061035156,33.400001525878906,299.29998779296875C31.700000762939453,303.29998779296875,28.799999237060547,309.8999938964844,28.399999618530273,313.5C28.299999237060547,314,28.299999237060547,314.6000061035156,28.200000762939453,315.29998779296875C27.600000381469727,320.6000061035156,26.600000381469727,330.6000061035156,24.5,335.6000061035156C19.700000762939453,347,16.299999237060547,357.20001220703125,16.5,359.1000061035156C16.700000762939453,360.6000061035156,17.399999618530273,361.8999938964844,18.100000381469727,363.1000061035156C18.899999618530273,364.5,19.600000381469727,365.79998779296875,19.600000381469727,367.20001220703125C19.600000381469727,368.6000061035156,18.700000762939453,370,17,372.5C15.800000190734863,374.3999938964844,14.100000381469727,376.8999938964844,14,378.3999938964844C14.399999618530273,378.29998779296875,14.899999618530273,378.1000061035156,15.300000190734863,378C17,377.5,19.600000381469727,376.6000061035156,23.200000762939453,376.1000061035156C32,374.79998779296875,42.29999923706055,371.1000061035156,44.70000076293945,364.3999938964844C47.400001525878906,357,52.400001525878906,336.20001220703125,53.29999923706055,330C54.29999923706055,323.3999938964844,57.599998474121094,313,61,308.1000061035156C63.099998474121094,305.1000061035156,64.9000015258789,300.79998779296875,66.9000015258789,296.20001220703125C67.9000015258789,293.8999938964844,69,291.3999938964844,70.0999984741211,289.1000061035156C72,285.29998779296875,74.9000015258789,280,77.19999694824219,275.8999938964844zM144.89999389648438,333.5C138.10000610351562,317.29998779296875,130.3000030517578,298.8999938964844,130,290.20001220703125C129.39999389648438,276.70001220703125,116.80000305175781,251,110.0999984741211,237.1999969482422C108.19999694824219,233.3000030517578,106.69999694824219,230.3000030517578,106.19999694824219,229C105.0999984741211,226.10000610351562,102.0999984741211,221.5,99.19999694824219,217C96.9000015258789,213.39999389648438,93.69999694824219,208.5,93.5999984741211,207.3000030517578C93.5999984741211,206.89999389648438,93.5,206.39999389648438,93.19999694824219,206.10000610351562C92.9000015258789,205.8000030517578,92.5,205.60000610351562,92,205.60000610351562C91.80000305175781,205.60000610351562,75.5999984741211,205.89999389648438,58.900001525878906,206.3000030517578C55.79999923706055,206.39999389648438,52.900001525878906,206.60000610351562,50.400001525878906,206.89999389648438C50.599998474121094,208.10000610351562,50.900001525878906,209.10000610351562,51.099998474121094,210.10000610351562C53.29999923706055,209.8000030517578,55.900001525878906,209.60000610351562,59,209.5C72.9000015258789,209.1999969482422,86.5,208.89999389648438,90.69999694824219,208.8000030517578C91.4000015258789,210.6999969482422,93.30000305175781,213.6999969482422,96.5,218.6999969482422C99.19999694824219,222.8000030517578,102.19999694824219,227.5,103.19999694824219,230.10000610351562C103.69999694824219,231.5,105.19999694824219,234.39999389648438,107.19999694824219,238.5C113.9000015258789,252.10000610351562,126.30000305175781,277.3999938964844,126.80000305175781,290.20001220703125C127.19999694824219,299.5,135,318.20001220703125,142,334.70001220703125C147,346.5,153.1999969482422,361.29998779296875,152.3000030517578,363.70001220703125C150.1999969482422,369,141.8000030517578,372.5,137.89999389648438,373C133.39999389648438,373.70001220703125,130.5,375.29998779296875,129.3000030517578,377.6000061035156C128.89999389648438,378.29998779296875,127.30000305175781,379.1000061035156,126.0999984741211,379.5C126.0999984741211,378.5,126.0999984741211,377,126.19999694824219,375.70001220703125C126.19999694824219,374.5,126.30000305175781,373.20001220703125,126.30000305175781,371.8999938964844C126.30000305175781,370.8999938964844,126.4000015258789,370,126.4000015258789,369C126.5999984741211,366,126.80000305175781,363.20001220703125,124.19999694824219,360.29998779296875C121.69999694824219,357.5,115.80000305175781,346.29998779296875,112.69999694824219,336C112.0999984741211,333.8999938964844,111.4000015258789,331.20001220703125,110.69999694824219,328.3999938964844C107.80000305175781,317.1000061035156,103.80000305175781,301.70001220703125,96.9000015258789,295.20001220703125C91.5,290.1000061035156,86.19999694824219,282.6000061035156,80.5,274.70001220703125C77.5999984741211,270.6000061035156,74.5,266.29998779296875,71.19999694824219,262C67.30000305175781,256.8999938964844,62.099998474121094,253.3000030517578,57.099998474121094,249.8000030517578C56.79999923706055,249.60000610351562,56.5,249.3000030517578,56.099998474121094,249.10000610351562C55.70000076293945,249.3000030517578,55.29999923706055,249.39999389648438,54.70000076293945,249.39999389648438C54.599998474121094,249.39999389648438,54.5,249.39999389648438,54.400001525878906,249.39999389648438C52.900001525878906,249.3000030517578,51.900001525878906,248.89999389648438,51.20000076293945,248.39999389648438C50.79999923706055,248.60000610351562,50.5,248.6999969482422,50.099998474121094,248.8000030517578C51.79999923706055,250.10000610351562,53.5,251.3000030517578,55.20000076293945,252.5C60,255.89999389648438,65,259.3999938964844,68.5999984741211,264C71.9000015258789,268.29998779296875,74.9000015258789,272.5,77.80000305175781,276.6000061035156C83.5,284.6000061035156,88.9000015258789,292.20001220703125,94.5999984741211,297.5C100.80000305175781,303.3999938964844,104.69999694824219,318.29998779296875,107.5,329.1000061035156C108.19999694824219,332,108.9000015258789,334.70001220703125,109.5999984741211,336.79998779296875C112.5999984741211,346.8999938964844,118.5999984741211,358.79998779296875,121.80000305175781,362.29998779296875C123.5,364.20001220703125,123.4000015258789,365.8999938964844,123.19999694824219,368.6000061035156C123.0999984741211,369.5,123.0999984741211,370.6000061035156,123.0999984741211,371.70001220703125C123.0999984741211,372.8999938964844,123.0999984741211,374.20001220703125,123,375.3999938964844C122.80000305175781,379.3999938964844,122.80000305175781,381.1000061035156,123.80000305175781,382.1000061035156C124.19999694824219,382.5,124.69999694824219,382.70001220703125,125.19999694824219,382.70001220703125C126.69999694824219,382.70001220703125,131.10000610351562,381.29998779296875,132.3000030517578,378.79998779296875C132.89999389648438,377.5,135.1999969482422,376.3999938964844,138.5,375.8999938964844C142.60000610351562,375.29998779296875,152.60000610351562,371.5,155.39999389648438,364.6000061035156C156.60000610351562,361.5,152.6999969482422,351.79998779296875,144.89999389648438,333.5z"/>
<path id="Body" fill="#E0B585" d="M86.9000015258789,107.5999984741211C89.5999984741211,113.9000015258789,93,117.19999694824219,87.80000305175781,119S50,114.5,57.400001525878906,95.9000015258789C58.29999923706055,94.69999694824219,60.599998474121094,88.0999984741211,61.900001525878906,82.5999984741211C59.099998474121094,80.9000015258789,57.099998474121094,79.4000015258789,56.5,78.9000015258789C55.400001525878906,77.9000015258789,53.599998474121094,73.30000305175781,51.900001525878906,66.5C49.599998474121094,64.5999984741211,47.599998474121094,60,47.599998474121094,56.70000076293945C47.599998474121094,54.599998474121094,48.20000076293945,52.79999923706055,49.20000076293945,51.400001525878906C49.400001525878906,25,62,17.700000762939453,77.5999984741211,17.700000762939453C93.30000305175781,17.700000762939453,106,24.399999618530273,106,52.099998474121094C106,72.5,100.0999984741211,90.0999984741211,85.80000305175781,91.5C85.80000305175781,91.80000305175781,85.80000305175781,91.9000015258789,85.80000305175781,91.9000015258789S84.19999694824219,101.30000305175781,86.9000015258789,107.5999984741211zM157.1999969482422,199C155.89999389648438,197.3000030517578,148.10000610351562,196.89999389648438,142.1999969482422,195.39999389648438C136.3000030517578,193.89999389648438,112.5999984741211,166.60000610351562,108.69999694824219,161.60000610351562C104.80000305175781,156.60000610351562,101.9000015258789,141.39999389648438,101,137.10000610351562L95.69999694824219,178.6999969482422C95.69999694824219,178.6999969482422,107.5,188.89999389648438,115.19999694824219,194.60000610351562C122.9000015258789,200.3000030517578,130.8000030517578,201.3000030517578,134.89999389648438,204.60000610351562C139,207.89999389648438,136.1999969482422,207.89999389648438,139.8000030517578,211.5C143.5,215,151.10000610351562,214.39999389648438,152.39999389648438,215.5C153.6999969482422,216.60000610351562,149.8000030517578,218.5,151.8000030517578,221.5C153.6999969482422,224.39999389648438,162.1999969482422,216.10000610351562,163,213.10000610351562C163.8000030517578,210.10000610351562,158.5,200.6999969482422,157.1999969482422,199zM50,213.10000610351562C48.599998474121094,205.60000610351562,42,177.3000030517578,43.70000076293945,174C45,171.3000030517578,51.099998474121094,158.10000610351562,54.5,150.8000030517578C52.400001525878906,148.6999969482422,48.20000076293945,145.3000030517578,41.29999923706055,143.10000610351562C35.79999923706055,141.3000030517578,32.5,140.5,30.700000762939453,140.10000610351562C28.200000762939453,148.8000030517578,21.600000381469727,175.1999969482422,22.5,180.89999389648438C23.600000381469727,187.10000610351562,33.29999923706055,204.10000610351562,35.400001525878906,210.60000610351562C37.5,217.10000610351562,39.20000076293945,222.39999389648438,38.70000076293945,224.10000610351562C38.20000076293945,225.8000030517578,36.099998474121094,232.60000610351562,37.20000076293945,237.60000610351562C38.29999923706055,242.60000610351562,38,245.10000610351562,39.79999923706055,245.3000030517578C40.79999923706055,245.5,41.70000076293945,245.10000610351562,42.29999923706055,244.3000030517578C42.5,245.5,43.400001525878906,246.5,44.599998474121094,246.6999969482422C46.70000076293945,247.10000610351562,46.900001525878906,246.10000610351562,46.900001525878906,246.10000610351562C47.29999923706055,247,48.099998474121094,247.5,49.099998474121094,247.5C50.099998474121094,247.5,51,247.10000610351562,51.599998474121094,246.39999389648438C51.599998474121094,246.39999389648438,52,247.89999389648438,54.70000076293945,248.10000610351562C57.400001525878906,248.3000030517578,56.900001525878906,244.10000610351562,57.29999923706055,240.89999389648438C57.70000076293945,237.6999969482422,58.79999923706055,227.8000030517578,56.599998474121094,224.1999969482422C54.29999923706055,220.5,51.5,220.60000610351562,50,213.10000610351562z"/>
<path id="Shirt" fill="#92FFD0" d="M102.19999694824219,128.3000030517578C99.0999984741211,119.19999694824219,96.80000305175781,117.9000015258789,95.80000305175781,112.80000305175781C94.80000305175781,107.69999694824219,94,103.30000305175781,89.9000015258789,101.80000305175781C89.30000305175781,101.5,88.69999694824219,101.30000305175781,88.0999984741211,101.19999694824219C87.5999984741211,100.19999694824219,87.19999694824219,99.5999984741211,87.19999694824219,99.5999984741211L86.5,109.80000305175781C86.5,109.80000305175781,86.69999694824219,110,86.9000015258789,110.19999694824219L86.4000015258789,114.9000015258789L80.5,111.0999984741211L81.4000015258789,108.5999984741211L55.400001525878906,90.5L48.900001525878906,99L50.70000076293945,100.5C45.900001525878906,103.9000015258789,39.900001525878906,107.69999694824219,37,112.19999694824219L37,112.19999694824219C29.700000762939453,119.4000015258789,27.899999618530273,142.39999389648438,28.5,139.60000610351562C28.5,139.60000610351562,30.600000381469727,139.60000610351562,41.29999923706055,143.10000610351562C41.900001525878906,143.3000030517578,42.5,143.5,43,143.6999969482422C43.099998474121094,143.6999969482422,43.29999923706055,143.8000030517578,43.400001525878906,143.8000030517578C43.900001525878906,144,44.5,144.1999969482422,45,144.39999389648438C45,144.39999389648438,45.099998474121094,144.39999389648438,45.099998474121094,144.5C45.599998474121094,144.6999969482422,46,144.89999389648438,46.5,145.10000610351562C46.599998474121094,145.10000610351562,46.70000076293945,145.1999969482422,46.79999923706055,145.1999969482422C47.29999923706055,145.39999389648438,47.70000076293945,145.6999969482422,48.099998474121094,145.89999389648438C48.20000076293945,145.89999389648438,48.20000076293945,146,48.29999923706055,146C48.70000076293945,146.1999969482422,49,146.39999389648438,49.400001525878906,146.60000610351562C49.5,146.60000610351562,49.599998474121094,146.6999969482422,49.599998474121094,146.6999969482422C50,146.89999389648438,50.29999923706055,147.1999969482422,50.599998474121094,147.39999389648438C50.70000076293945,147.5,50.79999923706055,147.5,50.900001525878906,147.60000610351562C51.20000076293945,147.8000030517578,51.400001525878906,148,51.70000076293945,148.10000610351562C51.79999923706055,148.1999969482422,51.900001525878906,148.1999969482422,51.900001525878906,148.3000030517578C52.20000076293945,148.5,52.400001525878906,148.6999969482422,52.70000076293945,148.89999389648438C52.79999923706055,149,52.900001525878906,149.10000610351562,53,149.1999969482422C53.099998474121094,149.3000030517578,53.29999923706055,149.39999389648438,53.400001525878906,149.5C53.599998474121094,149.6999969482422,53.79999923706055,149.89999389648438,54,150C54.099998474121094,150.10000610351562,54.099998474121094,150.10000610351562,54.20000076293945,150.1999969482422C54.29999923706055,150.3000030517578,54.5,150.5,54.599998474121094,150.60000610351562L54.599998474121094,150.60000610351562C51.099998474121094,158,45.099998474121094,171.10000610351562,43.79999923706055,173.8000030517578C42.20000076293945,177,48.400001525878906,204,50,212.3000030517578C55.20000076293945,210.89999389648438,61.70000076293945,209.60000610351562,68.5999984741211,209.89999389648438C84.30000305175781,210.60000610351562,98,217.6999969482422,98.4000015258789,216.10000610351562C102,202.6999969482422,101.30000305175781,192,102.5,178.1999969482422S105.30000305175781,137.39999389648438,102.19999694824219,128.3000030517578z"/>
<path id="BodyBorder" d="M158.10000610351562,212.60000610351562C156.60000610351562,212.60000610351562,155.10000610351562,211,153.1999969482422,209C152.8000030517578,208.5,152.3000030517578,208,152,207.8000030517578C151.89999389648438,207.8000030517578,151.60000610351562,207.8000030517578,151.3000030517578,207.8000030517578C149.10000610351562,207.6999969482422,143.89999389648438,207.39999389648438,142.1999969482422,202.8000030517578C142,202.3000030517578,142.3000030517578,201.6999969482422,142.8000030517578,201.5C143.3000030517578,201.3000030517578,143.89999389648438,201.60000610351562,144.10000610351562,202.10000610351562C145.39999389648438,205.5,149.5,205.6999969482422,151.5,205.89999389648438C152.10000610351562,205.89999389648438,152.5,206,152.8000030517578,206.10000610351562C153.3000030517578,206.3000030517578,153.6999969482422,206.8000030517578,154.6999969482422,207.8000030517578C155.3000030517578,208.5,156.89999389648438,210.1999969482422,157.6999969482422,210.6999969482422C157.5,209.6999969482422,156.39999389648438,207.60000610351562,155.8000030517578,206.5C155.60000610351562,206.10000610351562,155.39999389648438,205.6999969482422,155.1999969482422,205.3000030517578C154,202.89999389648438,153.3000030517578,202.60000610351562,152.5,202.60000610351562C152,202.5,151.60000610351562,202,151.60000610351562,201.5C151.6999969482422,201,152.1999969482422,200.60000610351562,152.6999969482422,200.60000610351562C154.5,200.8000030517578,155.6999969482422,201.89999389648438,157,204.39999389648438C157.1999969482422,204.8000030517578,157.39999389648438,205.1999969482422,157.60000610351562,205.60000610351562C159.3000030517578,208.8000030517578,160.1999969482422,210.89999389648438,159.5,212.10000610351562C159.1999969482422,212.60000610351562,158.8000030517578,212.8000030517578,158.1999969482422,212.89999389648438C158.1999969482422,212.60000610351562,158.1999969482422,212.60000610351562,158.10000610351562,212.60000610351562zM50.5,67.4000015258789C47.900001525878906,65,46,60.20000076293945,46,56.70000076293945C46,54.5,46.599998474121094,52.5,47.599998474121094,50.900001525878906C48,27.799999237060547,58,16.100000381469727,77.5999984741211,16.100000381469727C98.0999984741211,16.100000381469727,107.5999984741211,27.600000381469727,107.5999984741211,52.099998474121094C107.5999984741211,75.80000305175781,100.0999984741211,90.69999694824219,87.19999694824219,93L87.19999694824219,93C87,94.4000015258789,86.69999694824219,97.80000305175781,87,101.30000305175781L86.5,109.69999694824219C86.5,109.69999694824219,86.69999694824219,109.9000015258789,86.9000015258789,110.0999984741211L86.80000305175781,111.19999694824219C86.30000305175781,110.30000305175781,85.9000015258789,109.30000305175781,85.4000015258789,108.19999694824219C83.19999694824219,103.0999984741211,83.5999984741211,96.30000305175781,83.9000015258789,93.30000305175781L83.9000015258789,93.30000305175781L83.80000305175781,93.30000305175781C83.69999694824219,93.30000305175781,83.69999694824219,93.30000305175781,83.5999984741211,93.30000305175781C76.5,92.30000305175781,68.69999694824219,88.5,63,85.0999984741211L63,85.0999984741211C62.20000076293945,88.30000305175781,61.099998474121094,91.5,60.20000076293945,93.80000305175781L57.5,91.9000015258789C58.29999923706055,89.5999984741211,59.400001525878906,86.4000015258789,60.20000076293945,83.4000015258789L60.20000076293945,83.4000015258789C57.70000076293945,81.80000305175781,56,80.5999984741211,55.599998474121094,80.19999694824219C54,78.80000305175781,52.20000076293945,73.9000015258789,50.5,67.4000015258789zM58.5,53.79999923706055C57.70000076293945,54.20000076293945,56.70000076293945,53.79999923706055,56.400001525878906,53C55.79999923706055,51.70000076293945,54.599998474121094,50.900001525878906,53.20000076293945,50.79999923706055C51.099998474121094,50.79999923706055,49.29999923706055,53.5,49.29999923706055,56.79999923706055C49.29999923706055,60.70000076293945,52.20000076293945,65.80000305175781,54,65.80000305175781C54.900001525878906,65.80000305175781,55.599998474121094,66.5,55.599998474121094,67.4000015258789C55.599998474121094,68.19999694824219,55,68.80000305175781,54.29999923706055,69C55.70000076293945,74,57,77.0999984741211,57.70000076293945,77.69999694824219C59.79999923706055,79.5,73.30000305175781,88.5,84,90C88.9000015258789,90,104.4000015258789,87,104.4000015258789,52.099998474121094C104.4000015258789,29.399999618530273,96.19999694824219,19.299999237060547,77.69999694824219,19.299999237060547C60.5,19.299999237060547,52,28.5,51,48C51.70000076293945,47.70000076293945,52.5,47.5,53.29999923706055,47.5C56,47.70000076293945,58.29999923706055,49.20000076293945,59.400001525878906,51.70000076293945C59.70000076293945,52.5,59.29999923706055,53.400001525878906,58.5,53.79999923706055zM158.5,198C157.3000030517578,196.5,154.60000610351562,196,149.39999389648438,195.10000610351562C147.10000610351562,194.6999969482422,144.6999969482422,194.3000030517578,142.60000610351562,193.8000030517578C137.89999389648438,192.60000610351562,116.19999694824219,168.39999389648438,109.9000015258789,160.60000610351562C109,159.39999389648438,107.4000015258789,156.6999969482422,105.5999984741211,150.10000610351562C105.5999984741211,153.10000610351562,105.5,156.1999969482422,105.4000015258789,159.1999969482422C106.0999984741211,160.60000610351562,106.80000305175781,161.8000030517578,107.4000015258789,162.60000610351562C107.69999694824219,162.89999389648438,134.60000610351562,195.10000610351562,141.8000030517578,196.89999389648438C144,197.5,146.5,197.89999389648438,148.8000030517578,198.3000030517578C151.5,198.8000030517578,155.1999969482422,199.39999389648438,155.89999389648438,200C159,203.89999389648438,161.60000610351562,211.60000610351562,161.3000030517578,212.60000610351562C160.6999969482422,214.89999389648438,154.6999969482422,220.39999389648438,153,220.39999389648438L153,220.39999389648438C152.60000610351562,219.6999969482422,152.8000030517578,219.1999969482422,153.39999389648438,218C153.89999389648438,217.1999969482422,154.89999389648438,215.39999389648438,153.3000030517578,214.10000610351562C152.5,213.39999389648438,151.1999969482422,213.3000030517578,149.1999969482422,213C146.5,212.60000610351562,142.8000030517578,212.10000610351562,140.8000030517578,210.1999969482422C139.39999389648438,208.8000030517578,139.1999969482422,208.1999969482422,139,207.5C138.60000610351562,206.1999969482422,138.10000610351562,205.10000610351562,135.8000030517578,203.1999969482422C133.8000030517578,201.60000610351562,131.10000610351562,200.5,128.10000610351562,199.3000030517578C124.4000015258789,197.8000030517578,120.19999694824219,196.1999969482422,116.0999984741211,193.10000610351562C112.30000305175781,190.3000030517578,107.5,186.39999389648438,103.5999984741211,183.1999969482422C103.5,184.60000610351562,103.4000015258789,185.89999389648438,103.4000015258789,187.1999969482422C106.9000015258789,190.10000610351562,110.9000015258789,193.3000030517578,114.19999694824219,195.6999969482422C118.69999694824219,199,123.30000305175781,200.8000030517578,126.9000015258789,202.3000030517578C129.6999969482422,203.39999389648438,132.1999969482422,204.39999389648438,133.8000030517578,205.6999969482422C135.60000610351562,207.10000610351562,135.6999969482422,207.60000610351562,135.89999389648438,208.39999389648438C136.1999969482422,209.60000610351562,136.6999969482422,210.6999969482422,138.60000610351562,212.5C141.39999389648438,215.1999969482422,145.6999969482422,215.8000030517578,148.89999389648438,216.1999969482422C149.39999389648438,216.3000030517578,150.10000610351562,216.39999389648438,150.60000610351562,216.5C149.89999389648438,217.6999969482422,148.6999969482422,219.8000030517578,150.39999389648438,222.3000030517578C151,223.1999969482422,151.89999389648438,223.6999969482422,153,223.6999969482422C153.1999969482422,223.6999969482422,153.39999389648438,223.6999969482422,153.60000610351562,223.60000610351562C157.5,223,163.6999969482422,216.39999389648438,164.5,213.39999389648438C165.60000610351562,209.5,159.39999389648438,199.1999969482422,158.5,198zM55.400001525878906,220.1999969482422C54,218.8000030517578,52.70000076293945,217.60000610351562,51.79999923706055,213.6999969482422C51.29999923706055,213.8000030517578,50.70000076293945,214,50.20000076293945,214.10000610351562C50.099998474121094,213.8000030517578,50.099998474121094,213.5,50,213.10000610351562C49.900001525878906,212.5,49.70000076293945,211.8000030517578,49.599998474121094,210.89999389648438C50.099998474121094,210.8000030517578,50.599998474121094,210.60000610351562,51.20000076293945,210.5C50.900001525878906,209.3000030517578,50.599998474121094,207.8000030517578,50.29999923706055,206.1999969482422C48.5,197.60000610351562,44.20000076293945,177.39999389648438,45.20000076293945,174.8000030517578C46.099998474121094,173.10000610351562,48.70000076293945,167.39999389648438,51.5,161.39999389648438C52.70000076293945,158.8000030517578,53.900001525878906,156.1999969482422,55,153.8000030517578L54.900001525878906,153.6999969482422C54.900001525878906,153.6999969482422,54.20000076293945,152.6999969482422,52.599998474121094,151.3000030517578C51.400001525878906,153.89999389648438,49.900001525878906,157,48.5,160.10000610351562C45.79999923706055,165.8000030517578,43.099998474121094,171.8000030517578,42.20000076293945,173.5C40.900001525878906,176.1999969482422,42.79999923706055,186.89999389648438,47.099998474121094,207.10000610351562C47.70000076293945,209.89999389648438,48.20000076293945,212.1999969482422,48.5,213.6999969482422C49.599998474121094,219.3000030517578,51.5,221.1999969482422,53.20000076293945,222.8000030517578C53.900001525878906,223.5,54.599998474121094,224.1999969482422,55.20000076293945,225.10000610351562C56.70000076293945,227.5,56.5,234.60000610351562,55.70000076293945,240.6999969482422C55.599998474121094,241.5,55.5,242.3000030517578,55.5,243.10000610351562C55.400001525878906,244.1999969482422,55.29999923706055,246.1999969482422,55,246.5C55,246.5,55,246.5,54.900001525878906,246.5C53.599998474121094,246.39999389648438,53.29999923706055,246,53.20000076293945,245.89999389648438C53,245.39999389648438,52.599998474121094,244.89999389648438,52,244.8000030517578C51.400001525878906,244.6999969482422,50.79999923706055,244.89999389648438,50.400001525878906,245.39999389648438C50.099998474121094,245.6999969482422,49.70000076293945,245.89999389648438,49.29999923706055,245.89999389648438C49.20000076293945,245.89999389648438,49.20000076293945,245.89999389648438,49.099998474121094,245.89999389648438C48.900001525878906,245.89999389648438,48.599998474121094,245.8000030517578,48.5,245.60000610351562C48.20000076293945,244.89999389648438,47.599998474121094,244.5,46.79999923706055,244.60000610351562C46.29999923706055,244.60000610351562,45.900001525878906,244.89999389648438,45.599998474121094,245.3000030517578C45.5,245.3000030517578,45.29999923706055,245.3000030517578,44.900001525878906,245.1999969482422C44.400001525878906,245.10000610351562,44,244.6999969482422,43.900001525878906,244.10000610351562C43.79999923706055,243.39999389648438,43.29999923706055,242.89999389648438,42.70000076293945,242.6999969482422C42,242.5,41.400001525878906,242.8000030517578,41,243.39999389648438C40.79999923706055,243.6999969482422,40.5,243.8000030517578,40.20000076293945,243.6999969482422C40.20000076293945,243.6999969482422,40.20000076293945,243.6999969482422,40.099998474121094,243.6999969482422C39.900001525878906,243.3000030517578,39.70000076293945,242,39.5,240.8000030517578C39.29999923706055,239.8000030517578,39.20000076293945,238.60000610351562,38.900001525878906,237.1999969482422C38.5,235.10000610351562,38.400001525878906,231.1999969482422,40.400001525878906,224.5C41,222.60000610351562,39.900001525878906,219,37.599998474121094,211.6999969482422L37.099998474121094,210C36.20000076293945,207.10000610351562,33.900001525878906,202.3000030517578,31.399999618530273,197.3000030517578C28.299999237060547,191,24.899999618530273,183.89999389648438,24.299999237060547,180.60000610351562C23.5,175.6999969482422,29.200000762939453,152.10000610351562,32,142C30.600000381469727,141.60000610351562,29.700000762939453,141.5,29.200000762939453,141.39999389648438C29,141.5,28.899999618530273,141.5,28.799999237060547,141.5C26,151.60000610351562,20.100000381469727,175.3000030517578,21.100000381469727,181.10000610351562C21.700000762939453,184.89999389648438,25.200000762939453,191.89999389648438,28.5,198.6999969482422C30.899999618530273,203.60000610351562,33.20000076293945,208.3000030517578,34,211L34.5,212.6999969482422C35.900001525878906,217,37.599998474121094,222.39999389648438,37.29999923706055,223.60000610351562C35.5,229.5,35,234.3000030517578,35.70000076293945,237.89999389648438C36,239.1999969482422,36.099998474121094,240.3000030517578,36.29999923706055,241.3000030517578C36.79999923706055,244.1999969482422,37.099998474121094,246.5,39.599998474121094,246.89999389648438C40.29999923706055,247,41.099998474121094,247,41.70000076293945,246.6999969482422C42.400001525878906,247.5,43.29999923706055,248.10000610351562,44.29999923706055,248.3000030517578C45.29999923706055,248.5,46,248.5,46.599998474121094,248.3000030517578C47.29999923706055,248.8000030517578,48.20000076293945,249.10000610351562,49.099998474121094,249.10000610351562C49.900001525878906,249.10000610351562,50.599998474121094,248.89999389648438,51.29999923706055,248.60000610351562C52,249.10000610351562,53,249.5,54.5,249.60000610351562C54.599998474121094,249.60000610351562,54.70000076293945,249.60000610351562,54.79999923706055,249.60000610351562C55.900001525878906,249.60000610351562,56.599998474121094,249.1999969482422,57,248.8000030517578C58.400001525878906,247.60000610351562,58.5,245.39999389648438,58.70000076293945,243.10000610351562C58.70000076293945,242.39999389648438,58.79999923706055,241.60000610351562,58.900001525878906,240.89999389648438C59.400001525878906,236.89999389648438,60.400001525878906,227.10000610351562,58,223.1999969482422C57.099998474121094,221.8000030517578,56.20000076293945,221,55.400001525878906,220.1999969482422z"/>
<path id="ShirtBorder" d="M85.4000015258789,121C85.9000015258789,121,86.4000015258789,120.80000305175781,86.80000305175781,120.4000015258789C87.19999694824219,120,87.4000015258789,119.5,87.4000015258789,119L87.4000015258789,119C87.4000015258789,117.9000015258789,86.5,117,85.4000015258789,117L85.4000015258789,117C84.30000305175781,117,83.4000015258789,117.9000015258789,83.4000015258789,119S84.30000305175781,121,85.4000015258789,121L85.4000015258789,121zM84.9000015258789,119C84.9000015258789,118.69999694824219,85.0999984741211,118.5,85.4000015258789,118.5L85.4000015258789,118.5C85.69999694824219,118.5,85.9000015258789,118.69999694824219,85.9000015258789,119C85.9000015258789,119.0999984741211,85.80000305175781,119.30000305175781,85.80000305175781,119.4000015258789C85.69999694824219,119.5,85.5999984741211,119.5,85.4000015258789,119.5L85.4000015258789,119.5C85.0999984741211,119.5,84.9000015258789,119.30000305175781,84.9000015258789,119zM103.69999694824219,127.69999694824219C102.0999984741211,123.0999984741211,100.69999694824219,120.4000015258789,99.5999984741211,118.30000305175781C98.5,116.30000305175781,97.80000305175781,114.80000305175781,97.30000305175781,112.4000015258789L97.30000305175781,112.19999694824219C96.30000305175781,107,95.30000305175781,102,90.5,100.19999694824219C89.9000015258789,99.9000015258789,89.30000305175781,99.69999694824219,88.69999694824219,99.5999984741211C88.5,99.30000305175781,88.4000015258789,99.0999984741211,88.30000305175781,98.9000015258789C88,98.4000015258789,87.5,98.19999694824219,86.9000015258789,98.30000305175781C86.4000015258789,98.4000015258789,86,98.9000015258789,85.9000015258789,99.4000015258789L85.19999694824219,109.5999984741211C85.19999694824219,109.69999694824219,85.19999694824219,109.9000015258789,85.19999694824219,110L85,112L82.4000015258789,110.30000305175781L81.5,112.9000015258789L82.9000015258789,109C83.0999984741211,108.30000305175781,82.9000015258789,107.5,82.30000305175781,107.0999984741211L56.29999923706055,89C55.599998474121094,88.5,54.599998474121094,88.69999694824219,54.099998474121094,89.30000305175781L47.599998474121094,98C47.099998474121094,98.69999694824219,47.20000076293945,99.69999694824219,47.900001525878906,100.19999694824219L48,100.30000305175781C47.79999923706055,100.4000015258789,47.599998474121094,100.5999984741211,47.400001525878906,100.69999694824219C42.29999923706055,104.19999694824219,35.79999923706055,110.9000015258789,35.79999923706055,110.9000015258789L35.79999923706055,110.9000015258789C28.899999618530273,117.69999694824219,26.100000381469727,138.6999969482422,26.899999618530273,140.39999389648438C27.200000762939453,141,27.899999618530273,141.39999389648438,28.600000381469727,141.3000030517578C28.700000762939453,141.3000030517578,28.899999618530273,141.1999969482422,29.100000381469727,141.1999969482422C30.299999237060547,141.39999389648438,33.5,142.10000610351562,40.900001525878906,144.5C50.900001525878906,147.6999969482422,54.900001525878906,153.39999389648438,54.900001525878906,153.5C55.20000076293945,154,55.70000076293945,154.1999969482422,56.29999923706055,154.1999969482422C56.400001525878906,154.1999969482422,56.400001525878906,154.1999969482422,56.5,154.1999969482422C57.099998474121094,154.10000610351562,57.599998474121094,153.6999969482422,57.79999923706055,153.10000610351562C57.79999923706055,153.10000610351562,58.900001525878906,149.8000030517578,63.70000076293945,138.39999389648438C64,137.60000610351562,63.70000076293945,136.60000610351562,62.79999923706055,136.3000030517578C62,136,61,136.3000030517578,60.70000076293945,137.1999969482422C58.099998474121094,143.39999389648438,56.599998474121094,147.3000030517578,55.70000076293945,149.5C53.400001525878906,147.1999969482422,49.099998474121094,143.8000030517578,41.900001525878906,141.5C35.29999923706055,139.39999389648438,31.899999618530273,138.5,30.200000762939453,138.1999969482422C30.600000381469727,133.3000030517578,33,118.5,38.20000076293945,113.30000305175781C38.29999923706055,113.19999694824219,38.400001525878906,113.0999984741211,38.400001525878906,113L38.400001525878906,113C38.400001525878906,113,43.5,107.0999984741211,49.29999923706055,103.30000305175781C49.79999923706055,103,50.20000076293945,102.69999694824219,50.599998474121094,102.4000015258789L75.80000305175781,123.19999694824219C76.0999984741211,123.4000015258789,76.5,123.5999984741211,76.80000305175781,123.5999984741211C76.9000015258789,123.5999984741211,77.0999984741211,123.5999984741211,77.19999694824219,123.5C77.69999694824219,123.4000015258789,78.0999984741211,123,78.30000305175781,122.5L81.5,113.4000015258789L85.5999984741211,116.0999984741211C86,116.4000015258789,86.5,116.4000015258789,86.9000015258789,116.30000305175781C88,118,89.80000305175781,121.0999984741211,90.5,124C90.5999984741211,124.5,91,124.80000305175781,91.5,124.80000305175781C91.5999984741211,124.80000305175781,91.69999694824219,124.80000305175781,91.69999694824219,124.80000305175781C92.19999694824219,124.69999694824219,92.5999984741211,124.0999984741211,92.4000015258789,123.5999984741211C91.5,119.9000015258789,89.19999694824219,116.19999694824219,88.0999984741211,114.5999984741211L88.30000305175781,113.0999984741211C92.30000305175781,116.9000015258789,93.5999984741211,117.5,94.19999694824219,117.5C94.30000305175781,117.5,94.5,117.5,94.5999984741211,117.4000015258789C94.9000015258789,117.30000305175781,95.19999694824219,117.0999984741211,95.30000305175781,116.80000305175781C95.69999694824219,117.80000305175781,96.19999694824219,118.69999694824219,96.69999694824219,119.80000305175781C97.80000305175781,121.80000305175781,99.0999984741211,124.4000015258789,100.5999984741211,128.8000030517578C103.5999984741211,137.6999969482422,102.0999984741211,165,100.80000305175781,178.1999969482422C100.4000015258789,182.5,100.19999694824219,186.5,100,190.39999389648438C99.5999984741211,198.5,99.19999694824219,206.1999969482422,97,214.8000030517578C96,214.60000610351562,94.5,214.10000610351562,93.0999984741211,213.60000610351562C87.5999984741211,211.89999389648438,78.4000015258789,208.89999389648438,68.5999984741211,208.5C67.9000015258789,208.5,67.19999694824219,208.5,66.5,208.5C60.20000076293945,208.5,54.29999923706055,209.8000030517578,49.599998474121094,211C49.79999923706055,211.8000030517578,49.900001525878906,212.60000610351562,50,213.1999969482422C50.099998474121094,213.60000610351562,50.099998474121094,213.89999389648438,50.20000076293945,214.1999969482422C55.20000076293945,212.89999389648438,61.70000076293945,211.5,68.4000015258789,211.8000030517578C77.9000015258789,212.1999969482422,86.80000305175781,215.10000610351562,92.0999984741211,216.8000030517578C95.0999984741211,217.8000030517578,96.69999694824219,218.3000030517578,97.80000305175781,218.3000030517578C98.19999694824219,218.3000030517578,98.5999984741211,218.1999969482422,98.9000015258789,218C99.4000015258789,217.8000030517578,99.69999694824219,217.3000030517578,99.80000305175781,216.8000030517578C102.30000305175781,207.39999389648438,102.80000305175781,199.1999969482422,103.19999694824219,190.60000610351562C103.4000015258789,186.8000030517578,103.5999984741211,182.8000030517578,104,178.60000610351562C105.5,164.10000610351562,106.9000015258789,137.10000610351562,103.69999694824219,127.69999694824219zM76,119.4000015258789L51.099998474121094,98.80000305175781L55.79999923706055,92.69999694824219L79.5,109.19999694824219L76,119.4000015258789zM88.5999984741211,110L88.5999984741211,110C88.30000305175781,109.69999694824219,88.0999984741211,109.5,87.80000305175781,109.19999694824219L88.0999984741211,104C89,105.69999694824219,89.9000015258789,107.69999694824219,90.69999694824219,109.5C90.69999694824219,109.5999984741211,90.80000305175781,109.5999984741211,90.80000305175781,109.69999694824219C91.0999984741211,110.30000305175781,91.30000305175781,110.80000305175781,91.5,111.4000015258789C91.5,111.5,91.5999984741211,111.5999984741211,91.5999984741211,111.69999694824219C91.80000305175781,112.30000305175781,92,112.80000305175781,92.19999694824219,113.30000305175781C91.9000015258789,113,91.5999984741211,112.80000305175781,91.30000305175781,112.5C91.0999984741211,112.4000015258789,91,112.19999694824219,90.80000305175781,112C90.69999694824219,111.9000015258789,90.5,111.69999694824219,90.4000015258789,111.5999984741211C90.19999694824219,111.4000015258789,89.9000015258789,111.0999984741211,89.69999694824219,110.9000015258789C89.5999984741211,110.80000305175781,89.5999984741211,110.80000305175781,89.5,110.69999694824219C89.19999694824219,110.5,88.9000015258789,110.19999694824219,88.5999984741211,110L88.5999984741211,110zM91.19999694824219,104.5C92.19999694824219,105.5,92.80000305175781,107,93.30000305175781,108.9000015258789C92.5999984741211,107.4000015258789,91.9000015258789,105.9000015258789,91.19999694824219,104.5z"/>
<path id="EyeWhites" fill="#FFFFFF" d="M85.0999984741211,56.900001525878906C85,57.79999923706055,82.0999984741211,59.70000076293945,78.5,59.70000076293945C74.9000015258789,59.70000076293945,72.5,58.29999923706055,71.80000305175781,57.20000076293945C70.69999694824219,55.5,74.80000305175781,52.79999923706055,78.5,52.79999923706055S85.30000305175781,54.900001525878906,85.0999984741211,56.900001525878906zM104,57.20000076293945C103.9000015258789,58.099998474121094,101.5999984741211,60,98.69999694824219,60C95.80000305175781,60,93.9000015258789,58.599998474121094,93.30000305175781,57.5C92.4000015258789,55.79999923706055,95.69999694824219,53.099998474121094,98.5999984741211,53.099998474121094S104.19999694824219,55.20000076293945,104,57.20000076293945z"/>
<path id="Eyes" d="M80.5999984741211,55.900001525878906C80.5999984741211,57.5,79.30000305175781,58.79999923706055,77.69999694824219,58.79999923706055C76.0999984741211,58.79999923706055,74.80000305175781,57.5,74.80000305175781,55.900001525878906C74.80000305175781,54.29999923706055,76.0999984741211,53,77.69999694824219,53L77.69999694824219,53C79.30000305175781,52.900001525878906,80.5999984741211,54.20000076293945,80.5999984741211,55.900001525878906C80.5999984741211,55.79999923706055,80.5999984741211,55.900001525878906,80.5999984741211,55.900001525878906zM100.5999984741211,56.20000076293945C100.80000305175781,57.5,100,58.79999923706055,98.5999984741211,59.099998474121094C97.19999694824219,59.400001525878906,96,58.5,95.69999694824219,57.099998474121094C95.5999984741211,56.79999923706055,95.5999984741211,56.5,95.69999694824219,56.20000076293945C95.5,54.900001525878906,96.30000305175781,53.599998474121094,97.69999694824219,53.29999923706055C99.0999984741211,53,100.30000305175781,53.900001525878906,100.5999984741211,55.29999923706055C100.5999984741211,55.599998474121094,100.5999984741211,55.900001525878906,100.5999984741211,56.20000076293945z"/>
<path id="MouthNose" d="M87.4000015258789,78.80000305175781C84.30000305175781,78.80000305175781,81,78.30000305175781,79.19999694824219,77.5C78.5999984741211,77.30000305175781,78.4000015258789,76.5999984741211,78.5999984741211,76.0999984741211C78.80000305175781,75.5,79.5,75.30000305175781,80,75.5C82.4000015258789,76.5999984741211,87.9000015258789,76.9000015258789,91.4000015258789,76.30000305175781C92,76.19999694824219,92.5999984741211,76.5999984741211,92.69999694824219,77.19999694824219C92.80000305175781,77.80000305175781,92.4000015258789,78.4000015258789,91.80000305175781,78.5C90.5,78.69999694824219,89,78.80000305175781,87.4000015258789,78.80000305175781zM94.9000015258789,69.5999984741211C95.80000305175781,67.9000015258789,94.0999984741211,65.69999694824219,92.5,63.599998474121094C91.5999984741211,62.400001525878906,90.5999984741211,61.099998474121094,90.5999984741211,60.5C90.5,60.099998474121094,90.0999984741211,59.70000076293945,89.69999694824219,59.79999923706055C89.30000305175781,59.900001525878906,88.9000015258789,60.29999923706055,89,60.70000076293945C89.0999984741211,61.79999923706055,90.0999984741211,63.099998474121094,91.30000305175781,64.5999984741211C92.4000015258789,66,94,68.0999984741211,93.5,68.80000305175781C93.4000015258789,69,92.69999694824219,69.69999694824219,88.9000015258789,69.30000305175781C88.4000015258789,69.30000305175781,88.0999984741211,69.5999984741211,88,70C88,70.5,88.30000305175781,70.80000305175781,88.69999694824219,70.9000015258789C89.5,71,90.0999984741211,71,90.80000305175781,71C93,71.0999984741211,94.30000305175781,70.69999694824219,94.9000015258789,69.5999984741211z"/>
<path id="EyeLids" d="M72,57.79999923706055C71.9000015258789,57.79999923706055,71.9000015258789,57.79999923706055,71.80000305175781,57.79999923706055C71.30000305175781,57.70000076293945,71,57.29999923706055,71.0999984741211,56.79999923706055C71.5999984741211,54.099998474121094,74.80000305175781,52.099998474121094,78.5,52.099998474121094C81.9000015258789,52.099998474121094,84.9000015258789,53.70000076293945,85.69999694824219,56.099998474121094C85.9000015258789,56.5,85.5999984741211,57,85.19999694824219,57.20000076293945C84.80000305175781,57.400001525878906,84.30000305175781,57.099998474121094,84.0999984741211,56.70000076293945C83.5,55.099998474121094,81.0999984741211,53.900001525878906,78.5,53.900001525878906C75.5999984741211,53.900001525878906,73.0999984741211,55.29999923706055,72.80000305175781,57.20000076293945C72.69999694824219,57.5,72.4000015258789,57.79999923706055,72,57.79999923706055zM104.0999984741211,58.099998474121094C104.5999984741211,58,104.9000015258789,57.599998474121094,104.80000305175781,57.099998474121094C104.4000015258789,54.400001525878906,101.69999694824219,52.400001525878906,98.5,52.400001525878906L98.5,52.400001525878906C95.80000305175781,52.20000076293945,93.30000305175781,53.79999923706055,92.30000305175781,56.29999923706055C92.0999984741211,56.70000076293945,92.30000305175781,57.20000076293945,92.80000305175781,57.400001525878906C93.19999694824219,57.599998474121094,93.69999694824219,57.400001525878906,93.9000015258789,56.900001525878906C94.5999984741211,55.099998474121094,96.4000015258789,53.900001525878906,98.4000015258789,54C100.69999694824219,54,102.80000305175781,55.400001525878906,103,57.29999923706055C103.0999984741211,57.70000076293945,103.4000015258789,58,103.80000305175781,58C104,58.099998474121094,104.0999984741211,58.099998474121094,104.0999984741211,58.099998474121094z"/>
<path id="EyeBrows" d="M68.5999984741211,51.5C67.9000015258789,49.20000076293945,69.80000305175781,47.20000076293945,73.30000305175781,45.70000076293945C76.80000305175781,44.20000076293945,83.9000015258789,45.5,84.4000015258789,46.79999923706055C84.9000015258789,48.099998474121094,84.30000305175781,48.400001525878906,83,48.79999923706055C81.69999694824219,49.20000076293945,78.5,46.5,73.0999984741211,48.29999923706055C68,50,69.5,51.900001525878906,68.5999984741211,51.5zM106.9000015258789,51.79999923706055C107.5,49.5,106,47.599998474121094,103.0999984741211,46.099998474121094C100.19999694824219,44.599998474121094,94.19999694824219,46,93.80000305175781,47.29999923706055C93.4000015258789,48.599998474121094,93.9000015258789,48.900001525878906,94.9000015258789,49.20000076293945C95.9000015258789,49.5,98.69999694824219,46.900001525878906,103.19999694824219,48.70000076293945C107.4000015258789,50.29999923706055,106.0999984741211,52.29999923706055,106.9000015258789,51.79999923706055z"/>
<path id="Hair" fill="#60361A" d="M107.30000305175781,15.800000190734863C102.9000015258789,19.799999237060547,67.30000305175781,10.399999618530273,57.900001525878906,18.299999237060547C42.599998474121094,31.100000381469727,43.599998474121094,46.29999923706055,46.099998474121094,55.5C46.599998474121094,51,49.599998474121094,47.5,53.29999923706055,47.5C55.400001525878906,47.599998474121094,57.29999923706055,48.70000076293945,58.5,50.29999923706055C59.29999923706055,49.79999923706055,60.20000076293945,49.400001525878906,61.099998474121094,49.099998474121094C63.400001525878906,47.900001525878906,57.400001525878906,40.79999923706055,65,34.20000076293945C70.69999694824219,29.299999237060547,79.5,27.399999618530273,87.80000305175781,33.29999923706055C96.5,26.200000762939453,106.5,33.79999923706055,106.5,33.79999923706055S105.19999694824219,21.299999237060547,107.30000305175781,15.800000190734863z"/>
<path id="HairBorder" d="M108.19999694824219,14.5C107.5999984741211,14.100000381469727,106.69999694824219,14.100000381469727,106.19999694824219,14.600000381469727C104.9000015258789,15.800000190734863,96.30000305175781,15,90,14.399999618530273C77.30000305175781,13.300000190734863,62.900001525878906,12,56.900001525878906,17.100000381469727C42.70000076293945,28.899999618530273,39.20000076293945,45.79999923706055,47.400001525878906,63.400001525878906C47.599998474121094,63.79999923706055,47.900001525878906,64,48.20000076293945,64.19999694824219C46.79999923706055,61.79999923706055,46,59,46,56.70000076293945C46,55,46.400001525878906,53.5,47,52.099998474121094C45,42.5,46.20000076293945,30.100000381469727,59,19.5C61.70000076293945,17.299999237060547,67,16.600000381469727,73.0999984741211,16.600000381469727C78.5,16.600000381469727,84.5,17.100000381469727,89.80000305175781,17.600000381469727C97,18.200000762939453,101.9000015258789,18.600000381469727,105,18.200000762939453C104.30000305175781,22.200000762939453,104.4000015258789,27.399999618530273,104.5999984741211,30.700000762939453C100.30000305175781,28.5,93.5999984741211,27.100000381469727,87.69999694824219,31.200000762939453C78.4000015258789,25.299999237060547,69.0999984741211,28.299999237060547,63.900001525878906,32.900001525878906C58.20000076293945,37.79999923706055,59.20000076293945,43.099998474121094,59.70000076293945,46.20000076293945C59.79999923706055,46.70000076293945,59.900001525878906,47.29999923706055,59.900001525878906,47.70000076293945C58.900001525878906,48.099998474121094,58.099998474121094,48.5,57.20000076293945,49.099998474121094C58,49.79999923706055,58.70000076293945,50.70000076293945,59.20000076293945,51.70000076293945L59.20000076293945,51.70000076293945C59.900001525878906,51.29999923706055,60.70000076293945,50.900001525878906,61.5,50.599998474121094C61.599998474121094,50.599998474121094,61.599998474121094,50.5,61.70000076293945,50.5C63.599998474121094,49.5,63.20000076293945,47.5,62.900001525878906,45.70000076293945C62.400001525878906,42.79999923706055,61.70000076293945,39.099998474121094,66,35.400001525878906C70.80000305175781,31.299999237060547,78.69999694824219,28.899999618530273,86.80000305175781,34.599998474121094C87.4000015258789,35,88.19999694824219,35,88.80000305175781,34.5C96.30000305175781,28.299999237060547,105.0999984741211,34.79999923706055,105.4000015258789,35.099998474121094C105.9000015258789,35.5,106.5999984741211,35.5,107.19999694824219,35.20000076293945C107.80000305175781,34.900001525878906,108.0999984741211,34.29999923706055,108,33.599998474121094C108,33.5,106.80000305175781,21.399999618530273,108.69999694824219,16.299999237060547C109.0999984741211,15.699999809265137,108.80000305175781,14.899999618530273,108.19999694824219,14.5z"/>
</g>
</svg>