<svg xmlns="http://www.w3.org/2000/svg" xmlns:xlink="http://www.w3.org/1999/xlink" viewBox= "0 0 197 119" width="197px" height="119px">
<g xmlns="http://www.w3.org/2000/svg" id="Flowers.svg">
<path id="leavesbBorder" fill="#669303" d="M185.8000030517578,61.70000076293945C186.89999389648438,66.5,178.10000610351562,67.5,167.39999389648438,68.9000015258789C156.60000610351562,70.30000305175781,145.89999389648438,62.79999923706055,145.89999389648438,62.79999923706055C145.89999389648438,62.79999923706055,152.60000610351562,52.900001525878906,163.39999389648438,51.5C174.1999969482422,50,184.6999969482422,56.900001525878906,185.8000030517578,61.70000076293945M60.5,106.5999984741211C65.30000305175781,107.69999694824219,76.0999984741211,101.30000305175781,79.4000015258789,91C82.80000305175781,80.69999694824219,76.80000305175781,70.30000305175781,76.80000305175781,70.30000305175781S65.4000015258789,76.5999984741211,62,86.9000015258789C58.70000076293945,97.19999694824219,55.70000076293945,105.5,60.5,106.5999984741211"/>
<path id="leavesaBorder" fill="#618400" d="M174.8000030517578,87C172.5,90.69999694824219,165.1999969482422,87,155.8000030517578,79.0999984741211C146.39999389648438,71.19999694824219,148.60000610351562,63.5,148.60000610351562,63.5C148.60000610351562,63.5,159.8000030517578,60.29999923706055,169.1999969482422,68.19999694824219C178.60000610351562,76,177.10000610351562,83.30000305175781,174.8000030517578,87M42.599998474121094,85.5C44.900001525878906,89.19999694824219,50.79999923706055,93.69999694824219,62,88.80000305175781C73.19999694824219,83.80000305175781,75.0999984741211,72.4000015258789,75.0999984741211,72.4000015258789C75.0999984741211,72.4000015258789,69.0999984741211,67,57.900001525878906,72C46.70000076293945,76.9000015258789,40.20000076293945,81.80000305175781,42.599998474121094,85.5"/>
<path id="floweraDraw" fill="#CE7CCE" stroke="#CE7CCE" stroke-miterlimit="10" d="M154.60000610351562,37.20000076293945C152.8000030517578,36.5,151,36,149.3000030517578,35.70000076293945C157.3000030517578,30.899999618530273,167.10000610351562,32.599998474121094,164.60000610351562,28.899999618530273C161.6999969482422,24.700000762939453,147.10000610351562,15.100000381469727,138.89999389648438,22.899999618530273C136.10000610351562,25.5,134,27.899999618530273,132.5,30.100000381469727C132.10000610351562,27.600000381469727,131.39999389648438,24.700000762939453,130.39999389648438,21.299999237060547C126.9000015258789,10.199999809265137,109.69999694824219,11,105.30000305175781,13.199999809265137C101.30000305175781,15.199999809265137,111.19999694824219,18.899999618530273,115.80000305175781,27.700000762939453C113.80000305175781,26.899999618530273,111.5,26.200000762939453,109,25.799999237060547C98.9000015258789,24.100000381469727,90,27.200000762939453,89.0999984741211,32.599998474121094C88.19999694824219,38.099998474121094,95.9000015258789,40.099998474121094,106,41.79999923706055C112.0999984741211,42.79999923706055,117.5999984741211,43.5,121.30000305175781,42.70000076293945C119.9000015258789,44.900001525878906,118.80000305175781,47.599998474121094,118.30000305175781,50.70000076293945C116.9000015258789,58.70000076293945,121.5999984741211,60.20000076293945,126.69999694824219,61.099998474121094C131.8000030517578,62,135.3000030517578,61.79999923706055,136.6999969482422,53.79999923706055C137.10000610351562,51.599998474121094,137.10000610351562,49.400001525878906,136.89999389648438,47.400001525878906C139.60000610351562,50.20000076293945,144.10000610351562,52.79999923706055,149.3000030517578,54.79999923706055C158.89999389648438,58.5,167.5,58.79999923706055,169.1999969482422,53.5C170.6999969482422,48.099998474121094,164.1999969482422,40.900001525878906,154.60000610351562,37.20000076293945"/>
<path id="flowerbDraw" fill="#B68BCC" stroke="#B68BCC" stroke-miterlimit="10" d="M121.0999984741211,63.20000076293945C119.19999694824219,62.70000076293945,117.4000015258789,62.400001525878906,115.5999984741211,62.29999923706055C123.5999984741211,56.70000076293945,133.8000030517578,57.20000076293945,131.10000610351562,53.900001525878906C128,50.20000076293945,112.69999694824219,42.5,104.5999984741211,51.099998474121094C101.80000305175781,54,99.69999694824219,56.599998474121094,98.19999694824219,58.79999923706055C97.69999694824219,56.400001525878906,97,53.70000076293945,95.69999694824219,50.5C91.80000305175781,40.20000076293945,74.0999984741211,42.900001525878906,69.5999984741211,45.599998474121094C65.5999984741211,48,76,50.400001525878906,80.9000015258789,58.5C78.80000305175781,57.900001525878906,76.4000015258789,57.599998474121094,73.9000015258789,57.400001525878906C63.5,56.900001525878906,54.400001525878906,60.900001525878906,53.599998474121094,66.4000015258789C52.79999923706055,71.80000305175781,60.79999923706055,72.9000015258789,71.19999694824219,73.30000305175781C77.5,73.5999984741211,83.19999694824219,73.5999984741211,86.9000015258789,72.4000015258789C85.5,74.69999694824219,84.5,77.5,84,80.5C82.80000305175781,88.4000015258789,87.69999694824219,89.4000015258789,92.9000015258789,89.5999984741211C98.0999984741211,89.80000305175781,101.80000305175781,89.30000305175781,102.9000015258789,81.4000015258789C103.19999694824219,79.19999694824219,103.19999694824219,77.0999984741211,102.9000015258789,75.19999694824219C105.80000305175781,77.5999984741211,110.4000015258789,79.5999984741211,115.80000305175781,80.9000015258789C125.80000305175781,83.30000305175781,134.60000610351562,82.5999984741211,136.1999969482422,77.30000305175781C137.89999389648438,72,131.10000610351562,65.69999694824219,121.0999984741211,63.20000076293945"/>
<path id="flowercDraw" fill="#9064BF" stroke="#9064BF" stroke-miterlimit="10" d="M90.9000015258789,31.799999237060547C89.19999694824219,26.5,79.9000015258789,24.299999237060547,69.9000015258789,27C67.5,27.600000381469727,65.30000305175781,28.5,63.29999923706055,29.5C66.80000305175781,20.399999618530273,76.30000305175781,15.800000190734863,72,14.300000190734863C67.19999694824219,12.600000381469727,49.900001525878906,13.399999618530273,47.79999923706055,24.600000381469727C47.20000076293945,28,46.79999923706055,30.899999618530273,46.79999923706055,33.400001525878906C45,31.399999618530273,42.5,29.299999237060547,39.400001525878906,27C30.100000381469727,20.100000381469727,16.700000762939453,30.899999618530273,14.399999618530273,35.29999923706055C12.399999618530273,39.20000076293945,22,36.5,30.700000762939453,40.5C29,41,27.299999237060547,41.70000076293945,25.600000381469727,42.5C16.399999618530273,47,10.899999618530273,54.79999923706055,13.300000190734863,59.79999923706055C15.699999809265137,64.80000305175781,24.299999237060547,63.70000076293945,33.5,59.20000076293945C38.5,56.70000076293945,42.599998474121094,53.79999923706055,45,50.79999923706055C45,52.79999923706055,45.29999923706055,54.900001525878906,46,57.099998474121094C48.400001525878906,64.9000015258789,52,64.5999984741211,57,63.29999923706055C62,62,66.5,60.099998474121094,64,52.29999923706055C63.099998474121094,49.29999923706055,61.599998474121094,46.70000076293945,59.900001525878906,44.70000076293945C63.70000076293945,45.20000076293945,69.19999694824219,44,75.19999694824219,42.400001525878906C85,39.79999923706055,92.5,37.099998474121094,90.9000015258789,31.799999237060547"/>
<path id="center3Border" fill="#FFC639" d="M136.10000610351562,36.79999923706055C135.89999389648438,38.099998474121094,133.5,38.79999923706055,130.8000030517578,38.29999923706055C128.10000610351562,37.79999923706055,126.0999984741211,36.400001525878906,126.30000305175781,35.099998474121094C126.5,33.79999923706055,128.89999389648438,33.099998474121094,131.60000610351562,33.599998474121094S136.3000030517578,35.5,136.10000610351562,36.79999923706055"/>
<path id="center2Border" fill="#FFC639" d="M101.80000305175781,66.69999694824219C102.0999984741211,64.80000305175781,99.80000305175781,63.20000076293945,96.80000305175781,63C93.69999694824219,62.900001525878906,91,64.30000305175781,90.80000305175781,66.0999984741211C90.5,68,92.80000305175781,69.5999984741211,95.80000305175781,69.80000305175781C98.80000305175781,70,101.5,68.5,101.80000305175781,66.69999694824219"/>
<path id="center1Border" fill="#FFC639" d="M43.20000076293945,42.099998474121094C43.79999923706055,43.900001525878906,47.29999923706055,44.5,51.20000076293945,43.5C55,42.5,57.70000076293945,40.20000076293945,57.099998474121094,38.400001525878906S53,36,49.099998474121094,37C45.29999923706055,38,42.70000076293945,40.29999923706055,43.20000076293945,42.099998474121094"/>
</g>
</svg>