<svg xmlns="http://www.w3.org/2000/svg" xmlns:xlink="http://www.w3.org/1999/xlink" viewBox= "0 0 145 298" width="145px" height="298px">
<g xmlns="http://www.w3.org/2000/svg" id="Girl3V2.svg">
<path id="Body" fill="#BF8C5C" d="M85.5999984741211,74.30000305175781C79.9000015258789,70.9000015258789,74.5999984741211,64.9000015258789,71.5,57.599998474121094L72.4000015258789,57.5C70.4000015258789,58.099998474121094,68,56,67.19999694824219,53C66.4000015258789,49.900001525878906,67.30000305175781,47,69.4000015258789,46.400001525878906C69.80000305175781,46.29999923706055,70.19999694824219,46.29999923706055,70.5999984741211,46.400001525878906L68.80000305175781,46.70000076293945C68.69999694824219,45.79999923706055,68.69999694824219,44.900001525878906,68.69999694824219,44C68.69999694824219,41.5,69,31.200000762939453,69.4000015258789,29.100000381469727C72.19999694824219,16.799999237060547,82.5999984741211,11.5,95,11.5C107.4000015258789,11.5,117.69999694824219,16.799999237060547,120.5,29.100000381469727C121,31.200000762939453,121.19999694824219,41.5,121.19999694824219,44C121.19999694824219,44.900001525878906,121.19999694824219,45.79999923706055,121.0999984741211,46.79999923706055L118.5999984741211,46.599998474121094C119.19999694824219,46.400001525878906,119.80000305175781,46.400001525878906,120.30000305175781,46.5C122.30000305175781,47.099998474121094,123.30000305175781,50,122.5,53C121.69999694824219,56,119.30000305175781,58.099998474121094,117.30000305175781,57.5L118.4000015258789,57.599998474121094C115.0999984741211,65.4000015258789,109.30000305175781,71.9000015258789,103.0999984741211,75.0999984741211C103.5999984741211,78.9000015258789,104.9000015258789,83.4000015258789,108.5,84.5C114.80000305175781,86.4000015258789,102.69999694824219,97.69999694824219,93.30000305175781,97.69999694824219S73.30000305175781,85,80,83C84.30000305175781,81.69999694824219,85.5,78.0999984741211,85.5999984741211,74.30000305175781L85.5999984741211,74.30000305175781zM67.19999694824219,87.0999984741211C61.599998474121094,93.19999694824219,55.5,121.5,55.5,121.5C55.5,121.5,54.5,127.30000305175781,52.79999923706055,127.69999694824219C51.099998474121094,128.10000610351562,36.099998474121094,108.80000305175781,36.099998474121094,108.80000305175781C36.099998474121094,108.80000305175781,37.400001525878906,103.69999694824219,35.5,99.80000305175781C34.5,97.9000015258789,34.900001525878906,93.5999984741211,33.70000076293945,91.4000015258789C27.899999618530273,90.69999694824219,30.399999618530273,99.9000015258789,30.399999618530273,99.9000015258789C26,94.5999984741211,22.899999618530273,86.5,16.200000762939453,88.4000015258789C12.399999618530273,91,14.100000381469727,100.4000015258789,15.5,102.80000305175781C16.899999618530273,105.19999694824219,26.100000381469727,112,29.5,115.5C32.099998474121094,119.5,50.20000076293945,147.39999389648438,57.70000076293945,147.3000030517578C63,147.3000030517578,69.69999694824219,123.5,72.30000305175781,109.5999984741211M115.69999694824219,100.9000015258789C118.5999984741211,104.30000305175781,116.80000305175781,121,118.0999984741211,128.8000030517578C119.69999694824219,138.5,120.30000305175781,159.1999969482422,120,161C119.4000015258789,164.39999389648438,117.5999984741211,165.39999389648438,116.4000015258789,167.3000030517578C115.80000305175781,168.3000030517578,110.0999984741211,174.6999969482422,112.5,179C115.5,179.60000610351562,115.30000305175781,174.5,115.19999694824219,175C115.0999984741211,176.89999389648438,115.69999694824219,178.89999389648438,115.5,180.1999969482422C115.5,180.1999969482422,108.69999694824219,186.60000610351562,115.80000305175781,187.5C122.9000015258789,188.39999389648438,126.5999984741211,181.8000030517578,127.19999694824219,180.5C127.80000305175781,179.10000610351562,127.69999694824219,168.3000030517578,127.5,165.8000030517578C127.4000015258789,164.60000610351562,127.69999694824219,162.8000030517578,128.10000610351562,161.6999969482422C128.5,160.6999969482422,132.10000610351562,133.1999969482422,131.5,126.80000305175781C130.89999389648438,120.4000015258789,127.80000305175781,85.19999694824219,118.80000305175781,86.19999694824219M91.0999984741211,196.89999389648438L67.4000015258789,201.39999389648438C68.0999984741211,206.89999389648438,68.30000305175781,212.8000030517578,69.30000305175781,217C70.30000305175781,221.1999969482422,72.0999984741211,228.10000610351562,72.30000305175781,230.3000030517578C72.5,232.5,71.30000305175781,236.39999389648438,71.69999694824219,239.10000610351562C72.0999984741211,241.8000030517578,74.5,257.3999938964844,75,260.1000061035156C75.9000015258789,265.70001220703125,73.80000305175781,267.1000061035156,70.19999694824219,270.1000061035156C68.0999984741211,271.79998779296875,60.70000076293945,274.5,59.29999923706055,278.29998779296875C57.599998474121094,282.70001220703125,64.80000305175781,286.20001220703125,69.19999694824219,285.29998779296875C73.5,284.3999938964844,78.30000305175781,280.6000061035156,81.5999984741211,279.70001220703125C84.9000015258789,278.79998779296875,88.5,276.1000061035156,88.5999984741211,273.29998779296875C88.69999694824219,270.5,86.19999694824219,266.1000061035156,86.5,264.8999938964844C86.80000305175781,263.70001220703125,88.4000015258789,249.3000030517578,88.9000015258789,245.89999389648438C89.30000305175781,242.5,91.4000015258789,230.60000610351562,91.0999984741211,228.10000610351562C90.80000305175781,225.60000610351562,90.80000305175781,221.8000030517578,91.4000015258789,219.10000610351562C91.5999984741211,218.10000610351562,91.9000015258789,216.6999969482422,92,215.10000610351562L92.0999984741211,214.8000030517578C92.4000015258789,218,92.9000015258789,221.10000610351562,94,224.8000030517578C95.5,229.60000610351562,95.19999694824219,232,95.0999984741211,232.89999389648438C94.9000015258789,233.8000030517578,94.19999694824219,240.39999389648438,94.80000305175781,244.89999389648438C95.4000015258789,249.39999389648438,98.30000305175781,256.3999938964844,98.30000305175781,260.1000061035156C98.30000305175781,263.79998779296875,95.69999694824219,269.3999938964844,96.30000305175781,272C96.9000015258789,274.6000061035156,105.30000305175781,277.79998779296875,106.80000305175781,279.29998779296875C108.30000305175781,280.79998779296875,115.69999694824219,285.5,120.69999694824219,284.29998779296875C125.69999694824219,283.1000061035156,127.0999984741211,280,126.69999694824219,277.3999938964844C126.30000305175781,274.79998779296875,122.19999694824219,272,119.5,270.20001220703125C116.80000305175781,268.3999938964844,110.0999984741211,265.5,110.4000015258789,262.1000061035156C110.69999694824219,258.6000061035156,111.9000015258789,241.1999969482422,112.5,238C113.0999984741211,234.8000030517578,112.69999694824219,230.89999389648438,112.5,228.1999969482422C112.30000305175781,225.5,113.9000015258789,217.3000030517578,114,213.89999389648438C114.0999984741211,210.39999389648438,115.19999694824219,202.6999969482422,115.4000015258789,200.1999969482422C115.5999984741211,197.60000610351562,91,196.60000610351562,91,196.60000610351562L91.0999984741211,196.89999389648438z"/>
<path id="BodyBorder" d="M77.80000305175781,234.1999969482422C76.5999984741211,234.1999969482422,75.4000015258789,234,74.5999984741211,233.3000030517578C74.19999694824219,232.89999389648438,74.19999694824219,232.3000030517578,74.5,231.89999389648438C74.9000015258789,231.5,75.5,231.5,75.9000015258789,231.8000030517578C76.5,232.3000030517578,79,232.1999969482422,80.9000015258789,231.6999969482422C81.4000015258789,231.60000610351562,82,231.89999389648438,82.0999984741211,232.5C82.19999694824219,233,81.9000015258789,233.60000610351562,81.30000305175781,233.6999969482422C80.69999694824219,233.89999389648438,79.30000305175781,234.1999969482422,77.80000305175781,234.1999969482422zM104.5,75.69999694824219C110.5999984741211,72.30000305175781,116.0999984741211,66,119.4000015258789,58.599998474121094C121.4000015258789,58,123.0999984741211,55.900001525878906,123.80000305175781,53.29999923706055C124.5999984741211,50.5,124,47.70000076293945,122.5,46.20000076293945C122.5,45.5,122.5999984741211,44.70000076293945,122.5999984741211,44C122.5999984741211,41.599998474121094,122.4000015258789,31.099998474121094,121.80000305175781,28.799999237060547C119,17,109.30000305175781,10.300000190734863,95,10.300000190734863C80.69999694824219,10.300000190734863,70.9000015258789,17.100000381469727,68.19999694824219,28.899999618530273C67.5999984741211,31.400001525878906,67.4000015258789,42.29999923706055,67.4000015258789,44.099998474121094C67.4000015258789,44.79999923706055,67.4000015258789,45.5,67.5,46.20000076293945C65.80000305175781,47.70000076293945,65.19999694824219,50.5,66,53.400001525878906C66.69999694824219,56.099998474121094,68.5999984741211,58.20000076293945,70.5999984741211,58.79999923706055C73.69999694824219,65.69999694824219,78.5999984741211,71.5,84.30000305175781,75.0999984741211L84.30000305175781,75.0999984741211C84.0999984741211,78.80000305175781,82.5,81,79.5999984741211,81.9000015258789C77.4000015258789,82.5,76.30000305175781,84.30000305175781,76.5999984741211,86.5C77.4000015258789,91.69999694824219,85.80000305175781,99.0999984741211,93.19999694824219,99.0999984741211C101,99.0999984741211,110.69999694824219,92,111.4000015258789,87.19999694824219C111.69999694824219,85.4000015258789,110.69999694824219,84,108.80000305175781,83.4000015258789C106.19999694824219,82.4000015258789,105,78.9000015258789,104.5,75.69999694824219L104.5,75.69999694824219zM73.69999694824219,57.29999923706055C73.5999984741211,56.70000076293945,73,56.20000076293945,72.4000015258789,56.29999923706055L71.5999984741211,56.400001525878906C70.5,56.29999923706055,69.0999984741211,54.900001525878906,68.5,52.70000076293945C67.9000015258789,50.5,68.4000015258789,48.599998474121094,69.30000305175781,47.900001525878906L70.9000015258789,47.599998474121094C71.5,47.5,71.9000015258789,47,71.9000015258789,46.400001525878906C71.9000015258789,45.79999923706055,71.5,45.29999923706055,70.9000015258789,45.20000076293945C70.5999984741211,45.099998474121094,70.30000305175781,45.099998474121094,70,45.099998474121094C70,44.70000076293945,70,44.400001525878906,70,44C70,41,70.30000305175781,31.299999237060547,70.69999694824219,29.399999618530273C73.9000015258789,15,87.30000305175781,12.800000190734863,95,12.800000190734863C102.69999694824219,12.800000190734863,116,15,119.30000305175781,29.399999618530273C119.69999694824219,31.299999237060547,120,41.099998474121094,120,44.099998474121094C120,44.5,120,44.79999923706055,120,45.20000076293945C119.4000015258789,45.20000076293945,118.80000305175781,45.20000076293945,118.30000305175781,45.400001525878906C117.80000305175781,45.599998474121094,117.4000015258789,46.099998474121094,117.5,46.70000076293945C117.5999984741211,47.29999923706055,118,47.70000076293945,118.5999984741211,47.79999923706055L120.69999694824219,48C121.5,48.70000076293945,122,50.5,121.4000015258789,52.70000076293945C120.80000305175781,54.79999923706055,119.5,56.099998474121094,118.4000015258789,56.29999923706055L117.5,56.20000076293945C116.9000015258789,56.20000076293945,116.30000305175781,56.599998474121094,116.19999694824219,57.20000076293945C116.0999984741211,57.70000076293945,116.30000305175781,58.20000076293945,116.69999694824219,58.400001525878906C113.5,65.19999694824219,108.30000305175781,70.9000015258789,102.5999984741211,73.80000305175781C100,75.0999984741211,97.4000015258789,75.80000305175781,95,75.80000305175781C92.30000305175781,75.80000305175781,89.19999694824219,74.9000015258789,86.30000305175781,73.0999984741211C81.0999984741211,70,76.30000305175781,64.5999984741211,73.30000305175781,58.29999923706055C73.5999984741211,58.20000076293945,73.80000305175781,57.79999923706055,73.69999694824219,57.29999923706055zM109,86.5999984741211C108.5,89.69999694824219,100.4000015258789,96.4000015258789,93.30000305175781,96.4000015258789C86.9000015258789,96.4000015258789,79.80000305175781,89.80000305175781,79.19999694824219,86C79.0999984741211,85,79.4000015258789,84.5,80.4000015258789,84.19999694824219C83,83.4000015258789,86,81.4000015258789,86.69999694824219,76.4000015258789C89.5,77.80000305175781,92.30000305175781,78.5,94.9000015258789,78.5C97.19999694824219,78.5,99.69999694824219,78,102.0999984741211,76.9000015258789C103,81.69999694824219,105.0999984741211,84.80000305175781,108.0999984741211,85.69999694824219C109.0999984741211,85.9000015258789,109,86.30000305175781,109,86.5999984741211zM92.30000305175781,223C92.5,223.6999969482422,92.69999694824219,224.39999389648438,92.9000015258789,225.1999969482422C93.9000015258789,228.39999389648438,94.19999694824219,230.89999389648438,93.9000015258789,232.8000030517578C93.80000305175781,233.6999969482422,93,240.39999389648438,93.5999984741211,245.1999969482422C93.9000015258789,247.3000030517578,94.5999984741211,249.89999389648438,95.4000015258789,252.5C96.19999694824219,255.39999389648438,97.0999984741211,258.3999938964844,97.0999984741211,260.20001220703125C97.0999984741211,261.70001220703125,96.5999984741211,263.70001220703125,96.0999984741211,265.70001220703125C95.4000015258789,268.29998779296875,94.80000305175781,270.70001220703125,95.19999694824219,272.3999938964844C95.69999694824219,274.3999938964844,98.5999984741211,276.1000061035156,102.69999694824219,278.29998779296875C104.0999984741211,279,105.5999984741211,279.79998779296875,106,280.29998779296875C107.5,281.79998779296875,113.9000015258789,285.8999938964844,119,285.8999938964844L119,285.8999938964844C119.69999694824219,285.8999938964844,120.4000015258789,285.79998779296875,121,285.70001220703125C126.9000015258789,284.29998779296875,128.39999389648438,280.29998779296875,128,277.3999938964844C127.5,274.3999938964844,123.80000305175781,271.70001220703125,120.30000305175781,269.3999938964844C119.69999694824219,269,118.9000015258789,268.6000061035156,118.0999984741211,268.1000061035156C115.69999694824219,266.70001220703125,111.5999984741211,264.3999938964844,111.80000305175781,262.3999938964844C111.9000015258789,261.6000061035156,112,260,112.0999984741211,258.1000061035156C112.5999984741211,252.10000610351562,113.4000015258789,240.89999389648438,113.9000015258789,238.5C114.4000015258789,235.6999969482422,114.19999694824219,232.5,114,229.89999389648438C114,229.39999389648438,113.9000015258789,228.8000030517578,113.9000015258789,228.39999389648438C113.80000305175781,227,114.30000305175781,223.6999969482422,114.69999694824219,220.6999969482422C115,218.1999969482422,115.4000015258789,215.6999969482422,115.4000015258789,214.1999969482422C115.5,212.3000030517578,115.9000015258789,208.89999389648438,116.19999694824219,206C116.5,203.6999969482422,116.69999694824219,201.60000610351562,116.80000305175781,200.5C116.80000305175781,200.1999969482422,116.80000305175781,199.6999969482422,116.30000305175781,199.1999969482422C114.0999984741211,196.8000030517578,98,195.8000030517578,91.0999984741211,195.5C90.69999694824219,195.5,90.4000015258789,195.60000610351562,90.19999694824219,195.89999389648438L89.9000015258789,196.10000610351562L67.0999984741211,200.39999389648438C66.4000015258789,200.5,66,201.10000610351562,66.0999984741211,201.8000030517578C66.4000015258789,203.8000030517578,66.5999984741211,205.89999389648438,66.80000305175781,208C67.0999984741211,211.5,67.4000015258789,214.8000030517578,68.0999984741211,217.5L68.5,219.1999969482422C69.5,223.1999969482422,70.9000015258789,228.8000030517578,71,230.60000610351562C71.0999984741211,231.39999389648438,70.9000015258789,232.60000610351562,70.69999694824219,233.89999389648438C70.4000015258789,235.6999969482422,70.0999984741211,237.8000030517578,70.4000015258789,239.5C70.5999984741211,240.8000030517578,71.30000305175781,245.39999389648438,72,249.89999389648438C72.69999694824219,254.5,73.4000015258789,259.1000061035156,73.69999694824219,260.3999938964844C74.4000015258789,265,73.0999984741211,266.1000061035156,69.80000305175781,268.79998779296875L69.30000305175781,269.20001220703125C68.69999694824219,269.70001220703125,67.5999984741211,270.29998779296875,66.4000015258789,271C63.20000076293945,272.70001220703125,59.20000076293945,274.8999938964844,58.099998474121094,277.8999938964844C57.5,279.5,57.70000076293945,281.1000061035156,58.70000076293945,282.6000061035156C60.400001525878906,285,64.0999984741211,286.79998779296875,67.5999984741211,286.79998779296875L67.5999984741211,286.79998779296875C68.19999694824219,286.79998779296875,68.80000305175781,286.70001220703125,69.30000305175781,286.6000061035156C71.9000015258789,286.1000061035156,74.5,284.6000061035156,76.9000015258789,283.29998779296875C78.69999694824219,282.29998779296875,80.4000015258789,281.29998779296875,81.80000305175781,281C85.5999984741211,280,89.5999984741211,276.8999938964844,89.80000305175781,273.3999938964844C89.9000015258789,271.5,89.0999984741211,269.29998779296875,88.4000015258789,267.5C88.0999984741211,266.6000061035156,87.69999694824219,265.5,87.69999694824219,265.20001220703125C87.9000015258789,264.3999938964844,88.5,259.20001220703125,89.4000015258789,252.10000610351562C89.69999694824219,249.5,90,247.1999969482422,90.0999984741211,246.10000610351562C90.19999694824219,245.1999969482422,90.4000015258789,243.6999969482422,90.69999694824219,242C91.69999694824219,235.39999389648438,92.5999984741211,229.89999389648438,92.30000305175781,228C92.0999984741211,226.60000610351562,92.0999984741211,224.60000610351562,92.19999694824219,222.6999969482422L92.30000305175781,223zM114.30000305175781,200.5C114.19999694824219,201.60000610351562,114,203.5,113.80000305175781,205.5C113.5,208.5,113.0999984741211,211.89999389648438,113,213.89999389648438C112.9000015258789,215.39999389648438,112.5999984741211,217.8000030517578,112.30000305175781,220.1999969482422C111.80000305175781,223.5,111.4000015258789,226.6999969482422,111.5,228.3000030517578C111.5,228.8000030517578,111.5999984741211,229.3000030517578,111.5999984741211,229.89999389648438C111.80000305175781,232.3000030517578,112,235.39999389648438,111.5,237.8000030517578C111,240.3000030517578,110.19999694824219,251.1999969482422,109.69999694824219,257.70001220703125C109.5,259.70001220703125,109.4000015258789,261.20001220703125,109.4000015258789,262C109.0999984741211,265.5,113.5,268,117,270.1000061035156C117.80000305175781,270.5,118.5,271,119.0999984741211,271.29998779296875C121,272.6000061035156,125.4000015258789,275.5,125.69999694824219,277.6000061035156C126.0999984741211,280.20001220703125,124.19999694824219,282.20001220703125,120.5999984741211,283.1000061035156C120.19999694824219,283.20001220703125,119.69999694824219,283.29998779296875,119.19999694824219,283.29998779296875L119.19999694824219,283.29998779296875C114.80000305175781,283.29998779296875,109.0999984741211,279.6000061035156,107.9000015258789,278.5C107.30000305175781,277.8999938964844,106,277.20001220703125,104,276.1000061035156C102.0999984741211,275.1000061035156,98,272.8999938964844,97.69999694824219,271.79998779296875C97.4000015258789,270.70001220703125,98,268.3999938964844,98.5999984741211,266.29998779296875C99.19999694824219,264.20001220703125,99.69999694824219,262,99.69999694824219,260.20001220703125C99.69999694824219,258,98.80000305175781,255,97.9000015258789,251.8000030517578C97.19999694824219,249.39999389648438,96.5,246.8000030517578,96.19999694824219,244.89999389648438C95.5999984741211,240.5,96.4000015258789,234.10000610351562,96.5,233.3000030517578C96.9000015258789,231,96.5,228.10000610351562,95.4000015258789,224.60000610351562C93.80000305175781,219.5,93.5,215.39999389648438,93.30000305175781,211.8000030517578L92.5,198.10000610351562C101.9000015258789,198.3000030517578,112.30000305175781,199.39999389648438,114.30000305175781,200.5zM91.5,198.10000610351562L91.5,206.1999969482422C91.5,211,90.9000015258789,216.1999969482422,90.30000305175781,218.8000030517578C89.69999694824219,221.6999969482422,89.69999694824219,225.60000610351562,90,228.1999969482422C90.19999694824219,229.89999389648438,89.0999984741211,237.1999969482422,88.4000015258789,241.60000610351562C88.0999984741211,243.39999389648438,87.9000015258789,244.8000030517578,87.80000305175781,245.8000030517578C87.69999694824219,246.89999389648438,87.4000015258789,249.1999969482422,87.0999984741211,251.89999389648438C86.5,256.70001220703125,85.69999694824219,264,85.5,264.70001220703125C85.30000305175781,265.6000061035156,85.5999984741211,266.6000061035156,86.30000305175781,268.5C86.9000015258789,270.1000061035156,87.5999984741211,272,87.5,273.3999938964844C87.4000015258789,275.3999938964844,84.5,277.8999938964844,81.4000015258789,278.70001220703125C79.69999694824219,279.1000061035156,77.9000015258789,280.1000061035156,75.9000015258789,281.20001220703125C73.5999984741211,282.5,71.19999694824219,283.79998779296875,69,284.20001220703125C68.5999984741211,284.29998779296875,68.19999694824219,284.29998779296875,67.80000305175781,284.29998779296875L67.80000305175781,284.29998779296875C65.0999984741211,284.29998779296875,62.099998474121094,282.8999938964844,60.900001525878906,281.20001220703125C60.400001525878906,280.3999938964844,60.20000076293945,279.6000061035156,60.5,278.79998779296875C61.29999923706055,276.70001220703125,65,274.6000061035156,67.69999694824219,273.20001220703125C69.0999984741211,272.3999938964844,70.30000305175781,271.79998779296875,71,271.20001220703125L71.5,270.79998779296875C74.80000305175781,268,77.19999694824219,266.1000061035156,76.30000305175781,260C76.0999984741211,258.6000061035156,75.4000015258789,254.10000610351562,74.5999984741211,249.5C73.9000015258789,244.89999389648438,73.19999694824219,240.39999389648438,73,239.10000610351562C72.80000305175781,237.8000030517578,73,236,73.30000305175781,234.1999969482422C73.5,232.8000030517578,73.69999694824219,231.5,73.5999984741211,230.39999389648438C73.5,228.3000030517578,72.0999984741211,222.89999389648438,71,218.5L70.5999984741211,216.8000030517578C70,214.3000030517578,69.69999694824219,211,69.4000015258789,207.60000610351562C69.19999694824219,205.89999389648438,69.0999984741211,204.1999969482422,68.9000015258789,202.5L91.5,198.10000610351562zM19.100000381469727,89.4000015258789C21.700000762939453,89.9000015258789,23.700000762939453,92.5999984741211,26.399999618530273,96.5C27.399999618530273,97.9000015258789,28.299999237060547,99.30000305175781,29.399999618530273,100.5999984741211C29.799999237060547,101.0999984741211,30.399999618530273,101.19999694824219,30.899999618530273,100.9000015258789C31.399999618530273,100.5999984741211,31.700000762939453,100,31.5,99.5C31,97.69999694824219,30.600000381469727,94.30000305175781,31.700000762939453,93C31.899999618530273,92.80000305175781,32.20000076293945,92.5999984741211,32.79999923706055,92.5C33.099998474121094,93.5,33.20000076293945,94.69999694824219,33.400001525878906,96C33.599998474121094,97.5999984741211,33.79999923706055,99.19999694824219,34.29999923706055,100.30000305175781C36,103.69999694824219,34.79999923706055,108.4000015258789,34.79999923706055,108.5C34.70000076293945,108.9000015258789,34.79999923706055,109.30000305175781,35,109.5999984741211C50.5,129.60000610351562,52.099998474121094,129.1999969482422,52.900001525878906,129C55.099998474121094,128.5,56.099998474121094,124.19999694824219,56.5,121.80000305175781C56.599998474121094,121.5,62.599998474121094,93.69999694824219,67.9000015258789,88C68.4000015258789,87.5,68.30000305175781,86.69999694824219,67.80000305175781,86.19999694824219C67.30000305175781,85.69999694824219,66.5,85.80000305175781,66,86.30000305175781C60.20000076293945,92.5999984741211,54.20000076293945,120.0999984741211,53.900001525878906,121.4000015258789C53.5,123.5,52.79999923706055,125.69999694824219,52.29999923706055,126.4000015258789C50.29999923706055,124.9000015258789,43.29999923706055,116.5,37.099998474121094,108.5999984741211C37.400001525878906,107,38,102.80000305175781,36.29999923706055,99.30000305175781C35.900001525878906,98.5999984741211,35.79999923706055,97.19999694824219,35.599998474121094,95.80000305175781C35.400001525878906,94,35.20000076293945,92.19999694824219,34.5,90.9000015258789C34.29999923706055,90.5,34,90.30000305175781,33.5,90.19999694824219C31.399999618530273,89.9000015258789,30.200000762939453,90.80000305175781,29.5,91.5C28.600000381469727,92.5,28.299999237060547,94,28.200000762939453,95.4000015258789C28.200000762939453,95.30000305175781,28.100000381469727,95.30000305175781,28.100000381469727,95.19999694824219C25,90.69999694824219,21.5,85.5,15.5,87.19999694824219C15.399999618530273,87.19999694824219,15.199999809265137,87.30000305175781,15.100000381469727,87.4000015258789C10.5,90.5999984741211,12.399999618530273,100.5999984741211,14.100000381469727,103.4000015258789C15,104.80000305175781,17.600000381469727,107.0999984741211,21.799999237060547,110.5999984741211C24.200000762939453,112.5999984741211,26.700000762939453,114.69999694824219,28.200000762939453,116.19999694824219C36,128.3000030517578,50.20000076293945,148.5,57.29999923706055,148.5L57.29999923706055,148.5C65.69999694824219,148.5,73.0999984741211,110.19999694824219,73.19999694824219,109.80000305175781C73.30000305175781,109.0999984741211,72.9000015258789,108.5,72.19999694824219,108.30000305175781C71.5,108.19999694824219,70.9000015258789,108.5999984741211,70.69999694824219,109.30000305175781C67.0999984741211,128.10000610351562,60.599998474121094,145.89999389648438,57.29999923706055,145.89999389648438L57.29999923706055,145.89999389648438C53.099998474121094,145.89999389648438,42.5,133.60000610351562,30.200000762939453,114.5999984741211C30.200000762939453,114.5,30.100000381469727,114.5,30.100000381469727,114.4000015258789C28.600000381469727,112.80000305175781,26,110.5999984741211,23.5,108.5C20.5,106,17,103.0999984741211,16.299999237060547,101.9000015258789C15.800000190734863,101.0999984741211,15.300000190734863,99.30000305175781,15,97.30000305175781L15,97.30000305175781C17.100000381469727,99.5999984741211,19.200000762939453,102.19999694824219,19.200000762939453,102.30000305175781C19.399999618530273,102.5,19.700000762939453,102.69999694824219,20,102.69999694824219C20.200000762939453,102.69999694824219,20.399999618530273,102.5999984741211,20.600000381469727,102.5C21,102.19999694824219,21.100000381469727,101.5,20.700000762939453,101.0999984741211C20.5,100.9000015258789,17.299999237060547,96.9000015258789,14.699999809265137,94.30000305175781L14.699999809265137,94.30000305175781C14.699999809265137,93.80000305175781,14.800000190734863,93.30000305175781,14.800000190734863,92.80000305175781L14.800000190734863,92.80000305175781C17.799999237060547,95.80000305175781,20.399999618530273,98.9000015258789,20.399999618530273,98.9000015258789C20.600000381469727,99.0999984741211,20.899999618530273,99.30000305175781,21.200000762939453,99.30000305175781C21.399999618530273,99.30000305175781,21.600000381469727,99.19999694824219,21.799999237060547,99.0999984741211C22.200000762939453,98.69999694824219,22.299999237060547,98.0999984741211,21.899999618530273,97.69999694824219C21.799999237060547,97.5,18.799999237060547,93.9000015258789,15.399999618530273,90.5999984741211L15.399999618530273,90.5999984741211C15.600000381469727,90.19999694824219,15.800000190734863,89.80000305175781,16.100000381469727,89.5999984741211L16.100000381469727,89.5999984741211C18.100000381469727,91.80000305175781,20.799999237060547,94.9000015258789,21.100000381469727,95.5999984741211C21.299999237060547,96,21.600000381469727,96.19999694824219,22,96.19999694824219C22.100000381469727,96.19999694824219,22.299999237060547,96.19999694824219,22.399999618530273,96.0999984741211C22.899999618530273,95.9000015258789,23.100000381469727,95.30000305175781,22.899999618530273,94.80000305175781C23,93.9000015258789,20.899999618530273,91.30000305175781,19.100000381469727,89.4000015258789L19.100000381469727,89.4000015258789L19.100000381469727,89.4000015258789zM28.600000381469727,108.80000305175781C28.299999237060547,108.80000305175781,28,108.69999694824219,27.799999237060547,108.4000015258789C27.100000381469727,107.5,25.5,103.5,25.899999618530273,101.4000015258789C26,100.9000015258789,26.5,100.5,27.100000381469727,100.5999984741211C27.600000381469727,100.69999694824219,28,101.19999694824219,27.899999618530273,101.80000305175781C27.700000762939453,103.0999984741211,28.899999618530273,106.5999984741211,29.399999618530273,107.19999694824219C29.700000762939453,107.5999984741211,29.700000762939453,108.30000305175781,29.200000762939453,108.5999984741211C29,108.69999694824219,28.799999237060547,108.80000305175781,28.600000381469727,108.80000305175781zM117.5999984741211,186.39999389648438C118.5999984741211,186.3000030517578,122,182.39999389648438,122.5999984741211,180.6999969482422C122.69999694824219,180.1999969482422,123.19999694824219,180,123.69999694824219,180.10000610351562C124.19999694824219,180.1999969482422,124.4000015258789,180.6999969482422,124.30000305175781,181.1999969482422C124,182.10000610351562,123.0999984741211,183.60000610351562,122,184.89999389648438C124.80000305175781,183,126.19999694824219,180,126.19999694824219,180C126.5999984741211,178.8000030517578,126.69999694824219,168.6999969482422,126.4000015258789,165.89999389648438C126.19999694824219,164.3000030517578,126.69999694824219,162.3000030517578,127,161.3000030517578C127.5,159.5,130.89999389648438,132.89999389648438,130.3000030517578,126.9000015258789L130.3000030517578,126.5C127.5999984741211,97.5,123.30000305175781,90,120.9000015258789,88.0999984741211C120.30000305175781,87.5999984741211,119.69999694824219,87.4000015258789,119,87.4000015258789C118.30000305175781,87.5,117.69999694824219,87,117.5999984741211,86.30000305175781C117.5,85.5999984741211,118,85,118.69999694824219,84.9000015258789C120,84.80000305175781,121.30000305175781,85.19999694824219,122.4000015258789,86.0999984741211C127.0999984741211,90,130.60000610351562,103.5,132.6999969482422,126.19999694824219L132.6999969482422,126.5999984741211C133.3000030517578,132.8000030517578,129.8000030517578,160.5,129.3000030517578,162C129,163,128.6999969482422,164.5,128.8000030517578,165.5C128.89999389648438,167.10000610351562,129.1999969482422,179,128.39999389648438,180.8000030517578C127.4000015258789,183.10000610351562,123.5999984741211,188.6999969482422,117.0999984741211,188.6999969482422C116.5999984741211,188.6999969482422,116.0999984741211,188.6999969482422,115.5999984741211,188.60000610351562C113.30000305175781,188.3000030517578,111.9000015258789,187.39999389648438,111.5,186C110.80000305175781,183.89999389648438,112.5999984741211,181.39999389648438,113.80000305175781,180C113.30000305175781,180.1999969482422,112.80000305175781,180.1999969482422,112.19999694824219,180.10000610351562C111.80000305175781,180,111.5,179.8000030517578,111.4000015258789,179.5C108.9000015258789,175,113.30000305175781,169.1999969482422,114.9000015258789,167C115.0999984741211,166.8000030517578,115.19999694824219,166.60000610351562,115.30000305175781,166.5C115.69999694824219,165.89999389648438,116.0999984741211,165.39999389648438,116.5999984741211,164.89999389648438C117.5999984741211,163.6999969482422,118.4000015258789,162.6999969482422,118.80000305175781,160.60000610351562C119.0999984741211,158.89999389648438,118.5,138.39999389648438,116.9000015258789,128.8000030517578C116.4000015258789,125.5999984741211,116.30000305175781,121,116.30000305175781,116.5C116.30000305175781,110.5999984741211,116.19999694824219,103.19999694824219,114.69999694824219,101.5C114.19999694824219,101,114.30000305175781,100.19999694824219,114.80000305175781,99.69999694824219C115.30000305175781,99.19999694824219,116.0999984741211,99.30000305175781,116.5999984741211,99.80000305175781C118.5,102,118.69999694824219,107.5999984741211,118.80000305175781,116.4000015258789C118.80000305175781,120.80000305175781,118.9000015258789,125.30000305175781,119.4000015258789,128.3000030517578C121,137.89999389648438,121.69999694824219,158.8000030517578,121.30000305175781,160.89999389648438C120.80000305175781,163.60000610351562,119.5999984741211,165.10000610351562,118.5,166.3000030517578C118.0999984741211,166.8000030517578,117.69999694824219,167.1999969482422,117.4000015258789,167.6999969482422C117.30000305175781,167.8000030517578,117.0999984741211,168.10000610351562,116.9000015258789,168.39999389648438C115.69999694824219,169.89999389648438,112.4000015258789,174.3000030517578,113.30000305175781,177.39999389648438C113.69999694824219,177,113.9000015258789,176,114,175.3000030517578C114,175.10000610351562,114,174.8000030517578,114,174.60000610351562C114,174.10000610351562,114.4000015258789,173.60000610351562,114.9000015258789,173.39999389648438C115.4000015258789,173.1999969482422,115.9000015258789,173.39999389648438,116.30000305175781,173.8000030517578C116.4000015258789,174,116.5,174.3000030517578,116.5999984741211,174.6999969482422L116.5999984741211,174.6999969482422L116.5999984741211,174.6999969482422C116.5999984741211,174.89999389648438,116.5999984741211,175.10000610351562,116.5999984741211,175.3000030517578C116.5999984741211,176,116.69999694824219,176.60000610351562,116.80000305175781,177.3000030517578C116.9000015258789,178.3000030517578,117,179.1999969482422,116.9000015258789,180C116.9000015258789,180.3000030517578,116.69999694824219,180.5,116.5,180.6999969482422C115.30000305175781,181.89999389648438,113.69999694824219,184,114,185C114.0999984741211,185.3000030517578,114.5,185.5,115.0999984741211,185.6999969482422L115.0999984741211,185.6999969482422C116,185.3000030517578,119,181.1999969482422,120.4000015258789,179.10000610351562C120.69999694824219,178.6999969482422,121.19999694824219,178.5,121.5999984741211,178.8000030517578C122,179.10000610351562,122.19999694824219,179.60000610351562,121.9000015258789,180C121.5999984741211,180.5,119.4000015258789,184,117.5,186L117.5999984741211,186.39999389648438z"/>
<path id="Dress" fill="#FF66A1" d="M117.0999984741211,188.6999969482422C116.5999984741211,188.6999969482422,116.0999984741211,188.6999969482422,115.5999984741211,188.60000610351562C113.30000305175781,188.3000030517578,111.9000015258789,187.39999389648438,111.5,186C110.80000305175781,183.89999389648438,112.5999984741211,181.39999389648438,113.80000305175781,180C113.30000305175781,180.1999969482422,112.80000305175781,180.1999969482422,112.19999694824219,180.10000610351562C111.80000305175781,180,111.5,179.8000030517578,111.4000015258789,179.5C108.9000015258789,175,113.30000305175781,169.1999969482422,114.9000015258789,167C115.0999984741211,166.8000030517578,115.19999694824219,166.60000610351562,115.30000305175781,166.5C115.69999694824219,165.89999389648438,116.0999984741211,165.39999389648438,116.5999984741211,164.89999389648438C117.5,163.8000030517578,118.19999694824219,162.89999389648438,118.69999694824219,161.10000610351562C117.0999984741211,150.39999389648438,115.9000015258789,140.60000610351562,116,138.1999969482422C116.19999694824219,134.1999969482422,114.5999984741211,107.4000015258789,115,104.9000015258789C115.0999984741211,104.5,115.19999694824219,103.80000305175781,115.4000015258789,102.9000015258789C115.19999694824219,102.30000305175781,115,101.80000305175781,114.69999694824219,101.5C114.19999694824219,101,114.30000305175781,100.19999694824219,114.80000305175781,99.69999694824219C115.19999694824219,99.30000305175781,115.69999694824219,99.30000305175781,116.0999984741211,99.5C117.0999984741211,95.30000305175781,118.30000305175781,90,119,87.4000015258789C118.30000305175781,87.5,117.69999694824219,87,117.5999984741211,86.30000305175781C117.5,85.5999984741211,118,85,118.69999694824219,84.9000015258789C118.80000305175781,84.9000015258789,118.9000015258789,84.9000015258789,119.0999984741211,84.9000015258789C118.30000305175781,84.19999694824219,116.0999984741211,83.19999694824219,109.80000305175781,82.69999694824219C108,83,107,93.9000015258789,93.5999984741211,93.9000015258789S79.4000015258789,81.5,79.4000015258789,81.5C75,82,67.0999984741211,85.9000015258789,67.0999984741211,85.9000015258789C67.0999984741211,85.9000015258789,70.9000015258789,103.19999694824219,71.69999694824219,106.30000305175781C72.5,109.5,71.30000305175781,124.4000015258789,71.30000305175781,128.6999969482422C71.30000305175781,133,70.30000305175781,141,70.30000305175781,143.1999969482422C70.30000305175781,145.39999389648438,54.599998474121094,203.1999969482422,54.70000076293945,204.3000030517578C54.79999923706055,205.39999389648438,63.20000076293945,212.39999389648438,73.0999984741211,213.5C78,214.10000610351562,82.9000015258789,214.39999389648438,87.9000015258789,214.5C87.9000015258789,214.5,92.69999694824219,213.1999969482422,101.69999694824219,213.6999969482422C110.80000305175781,214.1999969482422,118.4000015258789,213.60000610351562,122.0999984741211,212.5C125.80000305175781,211.39999389648438,127.5999984741211,210.6999969482422,127.9000015258789,210.10000610351562C128.1999969482422,209.60000610351562,125.80000305175781,199.39999389648438,123.19999694824219,186.89999389648438C121.5999984741211,187.89999389648438,119.5,188.6999969482422,117.0999984741211,188.6999969482422z"/>
<path id="DressBorder" d="M126.80000305175781,197.39999389648438C126.0999984741211,194,125.19999694824219,190.10000610351562,124.4000015258789,185.89999389648438C123.69999694824219,186.5,123,187,122.19999694824219,187.39999389648438C122.19999694824219,187.5,122.30000305175781,187.6999969482422,122.30000305175781,187.8000030517578C122.30000305175781,187.8000030517578,122.30000305175781,187.8000030517578,122.30000305175781,187.8000030517578C123,191.3000030517578,123.69999694824219,194.89999389648438,124.4000015258789,197.89999389648438C125.5,203,126.5999984741211,207.89999389648438,126.69999694824219,209.39999389648438C126.5,209.5,126.19999694824219,209.60000610351562,125.80000305175781,209.8000030517578C125.69999694824219,209.89999389648438,125.5,209.89999389648438,125.4000015258789,210C125.4000015258789,210,125.4000015258789,210,125.4000015258789,210C125.30000305175781,210,125.19999694824219,210.10000610351562,125.0999984741211,210.10000610351562C124.4000015258789,210.39999389648438,123.30000305175781,210.6999969482422,121.9000015258789,211.10000610351562C118.0999984741211,212.1999969482422,110.0999984741211,212.6999969482422,101.9000015258789,212.1999969482422C101.30000305175781,212.1999969482422,100.80000305175781,212.10000610351562,100.19999694824219,212.10000610351562C100,210.5,99.5999984741211,205,99.5999984741211,193.10000610351562C99.5999984741211,192.8000030517578,99.4000015258789,192.5,99.19999694824219,192.3000030517578C99.0999984741211,192.1999969482422,99.0999984741211,192.1999969482422,99,192.1999969482422C99,192.1999969482422,99,192.1999969482422,99,192.1999969482422C98.9000015258789,192.10000610351562,98.69999694824219,192.10000610351562,98.5,192.10000610351562C97.9000015258789,192.10000610351562,97.5,192.5,97.5,193.10000610351562C97.5,204.6999969482422,97.9000015258789,210.1999969482422,98.0999984741211,212.10000610351562L98,212.10000610351562C92.0999984741211,212.10000610351562,88.69999694824219,212.89999389648438,87.9000015258789,213C87.80000305175781,213,87.69999694824219,213,87.5999984741211,213C86.30000305175781,213,81.5999984741211,212.89999389648438,73.4000015258789,212.10000610351562C70.69999694824219,211.8000030517578,68.0999984741211,211,65.9000015258789,210.10000610351562C67.9000015258789,207.1999969482422,76,194.6999969482422,77.0999984741211,179.6999969482422C77.0999984741211,179.3000030517578,76.9000015258789,178.89999389648438,76.5,178.6999969482422C76.4000015258789,178.60000610351562,76.30000305175781,178.60000610351562,76.0999984741211,178.5C75.5,178.5,75.0999984741211,178.89999389648438,75,179.39999389648438C73.9000015258789,194.39999389648438,65.30000305175781,207.1999969482422,63.900001525878906,209.10000610351562C59.79999923706055,207.10000610351562,57,204.6999969482422,56.20000076293945,203.8000030517578C56.70000076293945,201.5,59.79999923706055,189.6999969482422,62.79999923706055,178.1999969482422C69.0999984741211,154.3000030517578,71.69999694824219,144.10000610351562,71.69999694824219,143C71.69999694824219,142.10000610351562,71.9000015258789,140.1999969482422,72.0999984741211,138C72.4000015258789,134.89999389648438,72.69999694824219,131,72.69999694824219,128.5C72.69999694824219,127.19999694824219,72.80000305175781,124.69999694824219,73,121.9000015258789C73.4000015258789,114.0999984741211,73.5999984741211,107.9000015258789,73.0999984741211,105.80000305175781C72.69999694824219,104.4000015258789,71.80000305175781,100,70.80000305175781,95.5999984741211C70,91.80000305175781,69.19999694824219,88.0999984741211,68.80000305175781,86.30000305175781C70.69999694824219,85.4000015258789,75.19999694824219,83.4000015258789,78.5,82.69999694824219C79.4000015258789,87.5,83.30000305175781,94.9000015258789,93.80000305175781,94.9000015258789C93.80000305175781,94.9000015258789,93.80000305175781,94.9000015258789,93.80000305175781,94.9000015258789L93.80000305175781,94.9000015258789C104.5999984741211,94.9000015258789,108,88.19999694824219,109.5999984741211,84.9000015258789C109.80000305175781,84.5,110.0999984741211,84,110.30000305175781,83.69999694824219C114.69999694824219,84.0999984741211,116.69999694824219,84.69999694824219,117.5999984741211,85.0999984741211C117.9000015258789,85.19999694824219,118,85.30000305175781,118.19999694824219,85.4000015258789C117.80000305175781,86.80000305175781,114.0999984741211,102,113.80000305175781,104.5C113.5999984741211,105.80000305175781,113.9000015258789,112.4000015258789,114.30000305175781,122.4000015258789C114.5999984741211,129.1999969482422,114.9000015258789,136.1999969482422,114.80000305175781,138C114.69999694824219,140.60000610351562,116.0999984741211,151.6999969482422,117.9000015258789,163.3000030517578C118.4000015258789,162.60000610351562,118.80000305175781,161.6999969482422,119,160.5C119.0999984741211,160.1999969482422,119.0999984741211,159.3000030517578,119.0999984741211,158C119.0999984741211,156.6999969482422,119.0999984741211,154.89999389648438,119,152.8000030517578C118,145.60000610351562,117.4000015258789,139.8000030517578,117.4000015258789,138C117.4000015258789,136.6999969482422,117.30000305175781,133.3000030517578,117.19999694824219,129.10000610351562C117.19999694824219,128.89999389648438,117.0999984741211,128.6999969482422,117.0999984741211,128.60000610351562C117.0999984741211,128.5,117.0999984741211,128.3000030517578,117,128.10000610351562C116.9000015258789,126.30000305175781,116.80000305175781,124.30000305175781,116.80000305175781,122.4000015258789C116.69999694824219,120,116.5999984741211,117.5,116.5,115.0999984741211C116.5,112.4000015258789,116.4000015258789,109.5999984741211,116.30000305175781,107.0999984741211C116.30000305175781,106,116.30000305175781,105.30000305175781,116.30000305175781,105C116.4000015258789,104.30000305175781,116.69999694824219,102.5999984741211,117.30000305175781,100.30000305175781C117.30000305175781,100.30000305175781,117.4000015258789,100.4000015258789,117.4000015258789,100.4000015258789C118.30000305175781,96.5999984741211,119.5,91.19999694824219,120.4000015258789,87.4000015258789C120.4000015258789,87.4000015258789,120.4000015258789,87.4000015258789,120.30000305175781,87.4000015258789C120.4000015258789,87,120.5,86.5999984741211,120.5999984741211,86.30000305175781C120.80000305175781,85.9000015258789,120.9000015258789,85.4000015258789,120.69999694824219,84.9000015258789C120.69999694824219,84.9000015258789,120.80000305175781,84.9000015258789,120.80000305175781,84.9000015258789C120.80000305175781,84.80000305175781,120.69999694824219,84.69999694824219,120.69999694824219,84.5999984741211C120.19999694824219,83.4000015258789,118.5,82,110,81.19999694824219C109.9000015258789,81.19999694824219,109.80000305175781,81.19999694824219,109.5999984741211,81.19999694824219C109.5,81.19999694824219,109.30000305175781,81.30000305175781,109.19999694824219,81.30000305175781C108.30000305175781,81.5999984741211,107.9000015258789,82.5,107.19999694824219,83.80000305175781C106.0999984741211,86,104.4000015258789,89.19999694824219,100.5999984741211,91C98.80000305175781,91.80000305175781,96.5999984741211,92.30000305175781,93.69999694824219,92.30000305175781C81.69999694824219,92.30000305175781,80.80000305175781,81.5999984741211,80.80000305175781,81.0999984741211C80.80000305175781,80.80000305175781,80.5999984741211,80.4000015258789,80.4000015258789,80.19999694824219C80.19999694824219,80,79.9000015258789,79.9000015258789,79.5999984741211,79.9000015258789C79.5999984741211,79.9000015258789,79.5,79.9000015258789,79.5,79.9000015258789C79.19999694824219,79.9000015258789,78.9000015258789,80,78.5999984741211,80C74.5999984741211,80.69999694824219,68.9000015258789,83.4000015258789,67.19999694824219,84.19999694824219C67,84.30000305175781,66.80000305175781,84.4000015258789,66.80000305175781,84.4000015258789C66.69999694824219,84.5,66.5999984741211,84.5,66.5,84.5999984741211C66.4000015258789,84.69999694824219,66.30000305175781,84.80000305175781,66.19999694824219,84.9000015258789C66.19999694824219,84.9000015258789,66.19999694824219,85,66.0999984741211,85C66.0999984741211,85,66.0999984741211,85,66.0999984741211,85C66,85.19999694824219,65.9000015258789,85.5,66,85.80000305175781C66.0999984741211,86,66.4000015258789,87.5,66.9000015258789,89.5999984741211C67.69999694824219,93.0999984741211,68.80000305175781,98.19999694824219,69.5999984741211,101.9000015258789C70,103.9000015258789,70.4000015258789,105.5,70.5999984741211,106.30000305175781C70.5999984741211,106.4000015258789,70.69999694824219,106.5999984741211,70.69999694824219,106.69999694824219C70.9000015258789,108.4000015258789,70.9000015258789,112,70.69999694824219,115.80000305175781C70.5999984741211,117.80000305175781,70.5,119.9000015258789,70.4000015258789,121.69999694824219C70.30000305175781,124.5999984741211,70.0999984741211,127,70.0999984741211,128.39999389648438C70.0999984741211,130.8000030517578,69.80000305175781,134.60000610351562,69.5,137.6999969482422C69.30000305175781,140.10000610351562,69.0999984741211,141.89999389648438,69.0999984741211,142.89999389648438C69,144.39999389648438,64.0999984741211,162.8000030517578,60.29999923706055,177.5C59.599998474121094,180.10000610351562,59,182.39999389648438,58.5,184.5C54.20000076293945,200.6999969482422,53.599998474121094,203.3000030517578,53.599998474121094,203.89999389648438C53.599998474121094,203.89999389648438,53.599998474121094,203.89999389648438,53.599998474121094,203.89999389648438C53.599998474121094,203.89999389648438,53.599998474121094,203.89999389648438,53.599998474121094,203.89999389648438C53.599998474121094,203.89999389648438,53.599998474121094,204,53.599998474121094,204C53.599998474121094,204,53.599998474121094,204.10000610351562,53.599998474121094,204.10000610351562C53.599998474121094,204.1999969482422,53.599998474121094,204.3000030517578,53.70000076293945,204.3000030517578C53.70000076293945,204.39999389648438,53.70000076293945,204.39999389648438,53.79999923706055,204.5C54.29999923706055,205.5,55.79999923706055,206.89999389648438,57.900001525878906,208.3000030517578C61.599998474121094,210.89999389648438,67.19999694824219,213.60000610351562,73.0999984741211,214.3000030517578C81.0999984741211,215.1999969482422,85.9000015258789,215.3000030517578,87.5,215.3000030517578C87.80000305175781,215.3000030517578,88,215.3000030517578,88,215.3000030517578C88.0999984741211,215.3000030517578,88.19999694824219,215.3000030517578,88.30000305175781,215.3000030517578C88.30000305175781,215.3000030517578,91.69999694824219,214.39999389648438,97.9000015258789,214.39999389648438C99.0999984741211,214.39999389648438,100.4000015258789,214.39999389648438,101.69999694824219,214.5C103.80000305175781,214.60000610351562,105.9000015258789,214.6999969482422,108,214.6999969482422C114.19999694824219,214.6999969482422,119.5,214.1999969482422,122.5,213.3000030517578C127.4000015258789,211.89999389648438,128.60000610351562,211.1999969482422,129.10000610351562,210.39999389648438C129.1999969482422,210.1999969482422,129.3000030517578,210.10000610351562,129.3000030517578,209.8000030517578C129.39999389648438,209.5,129,207.60000610351562,126.80000305175781,197.39999389648438z"/>
<path id="MouthNose" d="M97.69999694824219,59.29999923706055C97.19999694824219,59.29999923706055,96.80000305175781,59.20000076293945,96.4000015258789,59.099998474121094C96,59,95.80000305175781,58.5,96,58.099998474121094C96.0999984741211,57.70000076293945,96.5999984741211,57.5,97,57.70000076293945C97.5,57.900001525878906,98.5999984741211,57.900001525878906,99.4000015258789,57.29999923706055C99.9000015258789,56.900001525878906,100.19999694824219,56.400001525878906,100.19999694824219,55.599998474121094C100.19999694824219,55.099998474121094,100,54.900001525878906,99.80000305175781,54.70000076293945C99,54.099998474121094,97.30000305175781,54.20000076293945,96.69999694824219,54.29999923706055C96.30000305175781,54.400001525878906,95.9000015258789,54.099998474121094,95.80000305175781,53.70000076293945C95.69999694824219,53.29999923706055,96,52.900001525878906,96.4000015258789,52.79999923706055C96.69999694824219,52.70000076293945,99.30000305175781,52.29999923706055,100.69999694824219,53.5C101.30000305175781,54,101.5999984741211,54.70000076293945,101.5999984741211,55.5C101.5999984741211,57.099998474121094,100.80000305175781,58,100.19999694824219,58.400001525878906C99.4000015258789,59.099998474121094,98.5,59.29999923706055,97.69999694824219,59.29999923706055zM100.0999984741211,65.9000015258789C100.5,65.80000305175781,100.69999694824219,65.4000015258789,100.5999984741211,65C100.5,64.5999984741211,100.0999984741211,64.4000015258789,99.69999694824219,64.5C99.5999984741211,64.5,93.19999694824219,66,89,62.79999923706055C88.69999694824219,62.5,88.19999694824219,62.599998474121094,88,62.900001525878906C87.80000305175781,63.19999694824219,87.80000305175781,63.69999694824219,88.0999984741211,64C90.5999984741211,65.9000015258789,93.5999984741211,66.30000305175781,96,66.30000305175781C98.30000305175781,66.30000305175781,100,65.9000015258789,100.0999984741211,65.9000015258789z"/>
<path id="EyesWhite" fill="#FFFFFF" d="M90.69999694824219,48.400001525878906C90.5,49.900001525878906,88.69999694824219,51.5,85.80000305175781,51.5C82.9000015258789,51.5,79.9000015258789,49.79999923706055,79.9000015258789,47.70000076293945C79.9000015258789,46,82.30000305175781,44.599998474121094,85.30000305175781,44.599998474121094S90.80000305175781,46.79999923706055,90.69999694824219,48.400001525878906zM101.19999694824219,48.400001525878906C101.4000015258789,49.900001525878906,103.0999984741211,51.5,106.0999984741211,51.5C109.0999984741211,51.5,112,49.79999923706055,112,47.70000076293945C112,46,109.5999984741211,44.599998474121094,106.5999984741211,44.599998474121094S101,46.79999923706055,101.19999694824219,48.400001525878906z"/>
<path id="Eyes" d="M83,47.900001525878906C83,49.599998474121094,84.30000305175781,50.900001525878906,86,50.900001525878906C87.69999694824219,50.900001525878906,89,49.599998474121094,89,47.900001525878906C89,46.20000076293945,87.69999694824219,44.900001525878906,86,44.900001525878906S83,46.29999923706055,83,47.900001525878906zM108.9000015258789,47.900001525878906C108.9000015258789,49.599998474121094,107.5999984741211,50.900001525878906,105.9000015258789,50.900001525878906C104.19999694824219,50.900001525878906,102.9000015258789,49.599998474121094,102.9000015258789,47.900001525878906C102.9000015258789,46.20000076293945,104.19999694824219,44.900001525878906,105.9000015258789,44.900001525878906S108.9000015258789,46.29999923706055,108.9000015258789,47.900001525878906z"/>
<path id="EyeLids" d="M90.5,49.70000076293945C90.0999984741211,49.70000076293945,89.69999694824219,49.400001525878906,89.69999694824219,48.900001525878906C89.69999694824219,47.099998474121094,87.69999694824219,45.5,85.0999984741211,45.5C82.9000015258789,45.5,80.5999984741211,46.400001525878906,80.5999984741211,48.400001525878906C80.5999984741211,48.79999923706055,80.30000305175781,49.20000076293945,79.80000305175781,49.20000076293945S79,48.900001525878906,79,48.400001525878906C79,45.79999923706055,81.5,44,85,44C88.30000305175781,44,91.0999984741211,46.20000076293945,91.0999984741211,48.900001525878906C91.30000305175781,49.29999923706055,90.9000015258789,49.70000076293945,90.5,49.70000076293945zM102.0999984741211,48.900001525878906C102.0999984741211,47.099998474121094,104.0999984741211,45.5,106.5999984741211,45.5C108.80000305175781,45.5,111.19999694824219,46.400001525878906,111.19999694824219,48.400001525878906C111.19999694824219,48.79999923706055,111.5,49.20000076293945,112,49.20000076293945C112.5,49.20000076293945,112.80000305175781,48.900001525878906,112.80000305175781,48.400001525878906C112.80000305175781,45.79999923706055,110.30000305175781,44,106.69999694824219,44C103.4000015258789,44,100.69999694824219,46.20000076293945,100.69999694824219,48.900001525878906C100.69999694824219,49.29999923706055,101,49.70000076293945,101.5,49.70000076293945S102.0999984741211,49.29999923706055,102.0999984741211,48.900001525878906z"/>
<path id="Shoes" fill="#48FFC2" d="M120.80000305175781,284.29998779296875C115.80000305175781,285.5,108.4000015258789,280.79998779296875,106.9000015258789,279.29998779296875C105.4000015258789,277.79998779296875,97.0999984741211,274.6000061035156,96.4000015258789,272C96,270.5,96.80000305175781,267.8999938964844,97.4000015258789,265.20001220703125C102.5,269.8999938964844,113.4000015258789,276,116.4000015258789,273.3999938964844C117.9000015258789,272.1000061035156,117.5999984741211,270.20001220703125,116.69999694824219,268.5C117.80000305175781,269.1000061035156,118.80000305175781,269.70001220703125,119.5,270.20001220703125C122.19999694824219,272,126.30000305175781,274.79998779296875,126.69999694824219,277.3999938964844C127.19999694824219,280,125.80000305175781,283.1000061035156,120.80000305175781,284.29998779296875zM71.0999984741211,274.29998779296875C69.9000015258789,273.3999938964844,69.5999984741211,271.8999938964844,69.69999694824219,270.3999938964844C67.19999694824219,272.1000061035156,60.599998474121094,274.70001220703125,59.29999923706055,278.20001220703125C57.599998474121094,282.6000061035156,64.80000305175781,286.1000061035156,69.19999694824219,285.20001220703125C73.5,284.29998779296875,78.30000305175781,280.5,81.5999984741211,279.6000061035156C84.9000015258789,278.70001220703125,88.5,276,88.5999984741211,273.20001220703125C88.69999694824219,271.3999938964844,87.69999694824219,269,87,267.20001220703125C82.9000015258789,270.8999938964844,74.19999694824219,276.6000061035156,71.0999984741211,274.29998779296875z"/>
<path id="ShoesBorder" d="M119.0999984741211,285.79998779296875L119.0999984741211,285.79998779296875C113.9000015258789,285.79998779296875,107.5999984741211,281.79998779296875,106.0999984741211,280.20001220703125C105.69999694824219,279.79998779296875,104.19999694824219,279,102.80000305175781,278.20001220703125C98.69999694824219,276,95.80000305175781,274.29998779296875,95.30000305175781,272.29998779296875C94.9000015258789,270.6000061035156,95.5,268.1000061035156,96.19999694824219,265.6000061035156L96.4000015258789,265C96.5,264.6000061035156,96.80000305175781,264.20001220703125,97.30000305175781,264.1000061035156C97.69999694824219,264,98.19999694824219,264.1000061035156,98.5,264.3999938964844C102.80000305175781,268.29998779296875,110.80000305175781,272.8999938964844,114.5999984741211,272.8999938964844C115.19999694824219,272.8999938964844,115.5999984741211,272.79998779296875,115.80000305175781,272.6000061035156C116.0999984741211,272.29998779296875,117,271.6000061035156,115.80000305175781,269.29998779296875C115.5,268.79998779296875,115.5999984741211,268.20001220703125,116,267.79998779296875C116.4000015258789,267.3999938964844,117,267.29998779296875,117.5,267.6000061035156L118.19999694824219,268C119,268.5,119.80000305175781,268.8999938964844,120.4000015258789,269.29998779296875C123.9000015258789,271.6000061035156,127.5999984741211,274.29998779296875,128.10000610351562,277.29998779296875C128.60000610351562,280.20001220703125,127,284.20001220703125,121.0999984741211,285.6000061035156C120.5,285.70001220703125,119.80000305175781,285.79998779296875,119.0999984741211,285.79998779296875zM98.19999694824219,267.5C97.80000305175781,269.20001220703125,97.4000015258789,270.79998779296875,97.69999694824219,271.70001220703125C98,272.79998779296875,102,275,104,276C106,277.1000061035156,107.19999694824219,277.79998779296875,107.9000015258789,278.3999938964844C109,279.5,114.80000305175781,283.20001220703125,119.19999694824219,283.20001220703125L119.19999694824219,283.20001220703125C119.69999694824219,283.20001220703125,120.19999694824219,283.1000061035156,120.5999984741211,283C124.19999694824219,282.1000061035156,126.0999984741211,280.1000061035156,125.69999694824219,277.5C125.4000015258789,275.3999938964844,121,272.3999938964844,119.0999984741211,271.20001220703125C119,271.20001220703125,119,271.1000061035156,118.9000015258789,271.1000061035156C118.9000015258789,272.70001220703125,118.0999984741211,273.70001220703125,117.4000015258789,274.29998779296875C116.69999694824219,274.8999938964844,115.69999694824219,275.20001220703125,114.5,275.20001220703125C110,275.29998779296875,102.5999984741211,271,98.19999694824219,267.5zM67.69999694824219,286.70001220703125C64.19999694824219,286.70001220703125,60.400001525878906,284.8999938964844,58.79999923706055,282.5C57.79999923706055,281,57.599998474121094,279.3999938964844,58.20000076293945,277.79998779296875C59.29999923706055,274.79998779296875,63.29999923706055,272.6000061035156,66.5,270.8999938964844C67.5,270.3999938964844,68.5,269.79998779296875,69.0999984741211,269.3999938964844C69.5,269.1000061035156,70,269.1000061035156,70.4000015258789,269.3999938964844C70.80000305175781,269.6000061035156,71.0999984741211,270.1000061035156,71,270.6000061035156C70.80000305175781,272.5,71.5999984741211,273.20001220703125,71.9000015258789,273.3999938964844C72.0999984741211,273.6000061035156,72.5,273.70001220703125,73,273.70001220703125C76.30000305175781,273.70001220703125,82.80000305175781,269.3999938964844,86.30000305175781,266.3999938964844C86.5999984741211,266.1000061035156,87,266,87.4000015258789,266.1000061035156C87.80000305175781,266.20001220703125,88.0999984741211,266.5,88.30000305175781,266.8999938964844L88.5,267.6000061035156C89.19999694824219,269.3999938964844,90,271.6000061035156,89.9000015258789,273.5C89.69999694824219,277,85.69999694824219,280.1000061035156,81.9000015258789,281.1000061035156C80.5999984741211,281.3999938964844,78.80000305175781,282.3999938964844,77,283.3999938964844C74.5999984741211,284.70001220703125,72,286.20001220703125,69.4000015258789,286.70001220703125C68.9000015258789,286.6000061035156,68.30000305175781,286.70001220703125,67.69999694824219,286.70001220703125zM68.5999984741211,272.6000061035156C68.30000305175781,272.79998779296875,68,272.8999938964844,67.5999984741211,273.1000061035156C64.9000015258789,274.6000061035156,61.20000076293945,276.6000061035156,60.400001525878906,278.70001220703125C60.099998474121094,279.5,60.20000076293945,280.29998779296875,60.79999923706055,281.1000061035156C62,282.79998779296875,65,284.20001220703125,67.69999694824219,284.20001220703125C68.0999984741211,284.20001220703125,68.5,284.20001220703125,68.9000015258789,284.1000061035156C71.0999984741211,283.6000061035156,73.5,282.29998779296875,75.80000305175781,281.1000061035156C77.80000305175781,280,79.5999984741211,279,81.30000305175781,278.6000061035156C84.4000015258789,277.79998779296875,87.30000305175781,275.29998779296875,87.4000015258789,273.29998779296875C87.5,272.20001220703125,87,270.79998779296875,86.5,269.3999938964844C82.9000015258789,272.20001220703125,76.9000015258789,276.20001220703125,72.9000015258789,276.20001220703125C71.9000015258789,276.20001220703125,71,275.8999938964844,70.30000305175781,275.3999938964844C69.69999694824219,274.79998779296875,69,273.8999938964844,68.5999984741211,272.6000061035156z"/>
<path id="Hair" fill="#482D18" d="M95.0999984741211,11C57.400001525878906,10.899999618530273,64.9000015258789,63,68.9000015258789,69.9000015258789C71,74.0999984741211,75.4000015258789,76.5999984741211,75.4000015258789,76.5999984741211C75.4000015258789,76.5999984741211,75.19999694824219,73.4000015258789,75.4000015258789,72.19999694824219C75.80000305175781,73.0999984741211,78.5999984741211,73,79.80000305175781,74C78,72,69.80000305175781,45.20000076293945,75.5999984741211,37.20000076293945C75.5999984741211,38.29999923706055,76.30000305175781,41.20000076293945,77.5,41.099998474121094C77,39.5,78.69999694824219,37.29999923706055,79.9000015258789,35.099998474121094C79.69999694824219,36.599998474121094,80.69999694824219,40.20000076293945,81.9000015258789,40.900001525878906C83,41.599998474121094,98.9000015258789,41.400001525878906,99.5,40.900001525878906C100.0999984741211,40.400001525878906,102.30000305175781,36.900001525878906,101.80000305175781,34.70000076293945C103.4000015258789,36.099998474121094,103.5999984741211,40.29999923706055,104,40.79999923706055C104.4000015258789,41.29999923706055,111.0999984741211,41.29999923706055,112.0999984741211,40.79999923706055C113.0999984741211,40.29999923706055,113.19999694824219,39.70000076293945,113.5,36.400001525878906C118.69999694824219,45.099998474121094,113.4000015258789,72.9000015258789,111.5999984741211,73.5999984741211C111.9000015258789,73.80000305175781,114.19999694824219,73.5,114.4000015258789,72.5C114.69999694824219,72.80000305175781,114.4000015258789,77.19999694824219,114.4000015258789,77.19999694824219C114.4000015258789,77.19999694824219,117.80000305175781,74.0999984741211,119.69999694824219,71.4000015258789C125.80000305175781,62.79999923706055,134.5,11.100000381469727,95.0999984741211,11z"/>
<path id="HairBorder" d="M114.30000305175781,78.4000015258789C114.0999984741211,78.4000015258789,113.9000015258789,78.4000015258789,113.80000305175781,78.30000305175781C113.30000305175781,78.0999984741211,113.0999984741211,77.5999984741211,113.0999984741211,77.0999984741211C113.19999694824219,76.30000305175781,113.19999694824219,75.4000015258789,113.19999694824219,74.69999694824219C112.69999694824219,74.80000305175781,112.19999694824219,74.9000015258789,111.9000015258789,74.9000015258789C111.5999984741211,74.9000015258789,111.0999984741211,74.9000015258789,110.80000305175781,74.5999984741211C110.5,74.30000305175781,110.30000305175781,73.9000015258789,110.4000015258789,73.5C110.4000015258789,73.19999694824219,110.5999984741211,72.9000015258789,110.9000015258789,72.69999694824219C112.19999694824219,70.69999694824219,116,51.29999923706055,113.9000015258789,41.099998474121094C113.5999984741211,41.5,113.30000305175781,41.79999923706055,112.80000305175781,42.099998474121094C111.9000015258789,42.599998474121094,109.19999694824219,42.70000076293945,107.80000305175781,42.70000076293945C103.80000305175781,42.70000076293945,103.5,42.20000076293945,103.19999694824219,41.79999923706055C102.9000015258789,41.400001525878906,102.80000305175781,40.900001525878906,102.5999984741211,39.900001525878906C102.5999984741211,39.70000076293945,102.5,39.400001525878906,102.4000015258789,39.099998474121094C101.69999694824219,40.5,100.9000015258789,41.70000076293945,100.4000015258789,42.099998474121094C100.0999984741211,42.29999923706055,99.5,42.900001525878906,89.5,42.900001525878906C82.30000305175781,42.900001525878906,81.5999984741211,42.5,81.30000305175781,42.20000076293945C80.5,41.70000076293945,79.80000305175781,40.400001525878906,79.4000015258789,39.099998474121094C79,39.900001525878906,78.80000305175781,40.599998474121094,78.9000015258789,41C79,41.400001525878906,78.9000015258789,41.79999923706055,78.69999694824219,42.099998474121094C78.5,42.400001525878906,78.0999984741211,42.599998474121094,77.80000305175781,42.599998474121094L77.69999694824219,42.599998474121094C77.30000305175781,42.599998474121094,76.69999694824219,42.5,76.0999984741211,41.900001525878906C75.9000015258789,41.70000076293945,75.69999694824219,41.5,75.5999984741211,41.20000076293945C73.19999694824219,50.79999923706055,79.4000015258789,71.4000015258789,81.0999984741211,73.30000305175781C81.5,73.80000305175781,81.5,74.5,81.0999984741211,75C80.69999694824219,75.5,80,75.5999984741211,79.4000015258789,75.19999694824219C79,74.9000015258789,78.19999694824219,74.69999694824219,77.5,74.5999984741211C77.30000305175781,74.5999984741211,77.0999984741211,74.5,76.9000015258789,74.5C76.9000015258789,75.30000305175781,76.9000015258789,76.19999694824219,77,76.9000015258789C77,77.4000015258789,76.80000305175781,77.80000305175781,76.4000015258789,78C76,78.19999694824219,75.5,78.30000305175781,75.0999984741211,78C74.9000015258789,77.9000015258789,70.4000015258789,75.19999694824219,68.0999984741211,70.69999694824219C65.0999984741211,65.5,61,39.79999923706055,70.30000305175781,23.600000381469727C75.5,14.600000381469727,83.9000015258789,10,95.30000305175781,10C108,10,116.9000015258789,15.100000381469727,122,25.100000381469727C130.39999389648438,41.400001525878906,125.30000305175781,66.30000305175781,120.9000015258789,72.4000015258789C118.9000015258789,75.19999694824219,115.5999984741211,78.19999694824219,115.4000015258789,78.4000015258789C114.9000015258789,78.30000305175781,114.5999984741211,78.4000015258789,114.30000305175781,78.4000015258789zM95.0999984741211,12.300000190734863C84.5999984741211,12.300000190734863,76.9000015258789,16.5,72.0999984741211,24.700000762939453C63.29999923706055,40,67.5,64.9000015258789,70,69.19999694824219C71.0999984741211,71.30000305175781,72.80000305175781,73,74.0999984741211,74.0999984741211C74.0999984741211,73.30000305175781,74.0999984741211,72.5,74.19999694824219,72C74.30000305175781,71.5,74.80000305175781,71,75.30000305175781,71C75.80000305175781,71,76.19999694824219,71.19999694824219,76.5,71.5999984741211C76.69999694824219,71.69999694824219,77.0999984741211,71.80000305175781,77.5,71.9000015258789C74.4000015258789,64,69.4000015258789,43.79999923706055,74.5999984741211,36.599998474121094C74.9000015258789,36.20000076293945,75.5,36,76,36.099998474121094C76.5,36.29999923706055,76.9000015258789,36.79999923706055,76.80000305175781,37.29999923706055C76.80000305175781,37.5,76.80000305175781,37.70000076293945,76.80000305175781,37.900001525878906C77.0999984741211,37.29999923706055,77.5,36.599998474121094,77.9000015258789,36C78.19999694824219,35.5,78.5,35,78.69999694824219,34.5C79,34,79.5999984741211,33.70000076293945,80.19999694824219,33.900001525878906C80.80000305175781,34.099998474121094,81.0999984741211,34.599998474121094,81.0999984741211,35.20000076293945C81,36.400001525878906,81.9000015258789,39.20000076293945,82.4000015258789,39.79999923706055C82.9000015258789,39.900001525878906,84.80000305175781,40.099998474121094,89.30000305175781,40.099998474121094C94,40.099998474121094,97.69999694824219,39.900001525878906,98.69999694824219,39.79999923706055C99.30000305175781,39,100.80000305175781,36.400001525878906,100.4000015258789,35C100.30000305175781,34.5,100.5,33.900001525878906,101,33.599998474121094C101.5,33.29999923706055,102.0999984741211,33.400001525878906,102.5,33.70000076293945C103.9000015258789,35,104.4000015258789,37.5,104.69999694824219,39.099998474121094C104.69999694824219,39.29999923706055,104.80000305175781,39.5,104.80000305175781,39.70000076293945C105.30000305175781,39.79999923706055,106.19999694824219,39.79999923706055,107.4000015258789,39.79999923706055C109.5999984741211,39.79999923706055,111,39.599998474121094,111.30000305175781,39.5C111.5999984741211,39.29999923706055,111.69999694824219,39.20000076293945,112,36.099998474121094C112.0999984741211,35.599998474121094,112.4000015258789,35.099998474121094,113,35C113.5,34.900001525878906,114.0999984741211,35.099998474121094,114.30000305175781,35.599998474121094C119,43.599998474121094,115.5999984741211,64.5999984741211,113.69999694824219,71.19999694824219L113.69999694824219,71.19999694824219C114.0999984741211,71.0999984741211,114.5999984741211,71.19999694824219,114.9000015258789,71.5C115.19999694824219,71.80000305175781,115.4000015258789,72,115.4000015258789,74C116.4000015258789,73,117.5,71.80000305175781,118.30000305175781,70.5999984741211C122.30000305175781,65,127,41.099998474121094,119.19999694824219,25.899999618530273C114.9000015258789,16.899999618530273,106.69999694824219,12.300000190734863,95.0999984741211,12.300000190734863z"/>
</g>
</svg>