<svg xmlns="http://www.w3.org/2000/svg" xmlns:xlink="http://www.w3.org/1999/xlink" viewBox= "0 0 156 309" width="156px" height="309px">
<g xmlns="http://www.w3.org/2000/svg" id="GirlV2.svg">
<path id="Body" fill="#955D31" d="M134.54000854492188,190.33999633789062C133.6199951171875,192.83999633789062,130.08999633789062,190.6699981689453,129.8300018310547,190.83999633789062C129.57000732421875,191.00999450683594,132.4199981689453,198.13999938964844,132.57000732421875,199.19000244140625C132.72000122070312,200.24000549316406,130.88999938964844,202.1699981689453,128.20999145507812,203.0800018310547C125.52999877929688,203.99000549316406,121.02999877929688,200.0399932861328,119.68000030517578,199.0800018310547C118.33000183105469,198.1199951171875,115.12999725341797,189.32009887695312,115.22000122070312,187.6300048828125C115.30999755859375,185.94000244140625,113.12999725341797,178.69000244140625,113.12999725341797,178.69000244140625C110.61000061035156,172.80999755859375,106.58000183105469,158.4199981689453,103.22000122070312,152.5399932861328C99.86000061035156,146.66000366210938,97.66000366210938,137.1699981689453,97.66000366210938,127.05999755859375C97.66000366210938,116.94999694824219,101.7699966430664,97.33000183105469,107.66000366210938,100.05999755859375C113.55000305175781,102.79000091552734,111.12000274658203,130.66000366210938,113.28990173339844,137.19000244140625C115.27059936523438,143.44400024414062,116.8998031616211,149.8040008544922,118.1698989868164,156.24000549316406C119.84989929199219,163.8000030517578,119.14990234375,173.2100067138672,120.4198989868164,176.91000366210938C121.69989776611328,180.6199951171875,121.9999008178711,180.1699981689453,127.43990325927734,183.9600067138672C129.48001098632812,184.5500030517578,135.45999145507812,187.83999633789062,134.54000854492188,190.33999633789062zM78.3699951171875,109.68000030517578C87.80000305175781,109.68000030517578,99.88999938964844,98.3499984741211,93.61000061035156,96.44000244140625C87.33000183105469,94.52999877929688,88,81.56999969482422,88,81.56999969482422L70,80.11000061035156C71.1199951171875,85.19000244140625,71.83999633789062,93,65.1300048828125,95S68.94000244140625,109.68000030517578,78.3699951171875,109.68000030517578zM104.69999694824219,282.2598876953125C101.9800033569336,280.44989013671875,95.30000305175781,277.58990478515625,95.5999984741211,274.1199035644531C95.9000015258789,270.64990234375,97.1500015258789,253.20989990234375,97.75,250.03990173339844C98.3499984741211,246.86990356445312,97.9000015258789,242.95989990234375,97.75,240.23989868164062C97.5999984741211,237.5198974609375,99.11000061035156,229.37989807128906,99.26000213623047,225.90989685058594C99.41000366210938,222.4398956298828,100.45999908447266,214.74989318847656,100.61000061035156,212.1898956298828C100.73660278320312,210.0294952392578,83.24409484863281,208.92320251464844,77.77999877929688,208.63040161132812L77.77999877929688,208.60000610351562L77.654296875,208.62379455566406C76.72520446777344,208.57449340820312,76.16999816894531,208.54989624023438,76.16999816894531,208.54989624023438L76.19279479980469,208.90089416503906L52.51000213623047,213.38999938964844C53.26000213623047,218.94000244140625,53.40999984741211,224.75999450683594,54.45000076293945,228.9499969482422C55.48999786376953,233.13999938964844,57.29999923706055,240.0399932861328,57.45000076293945,242.2899932861328C57.599998474121094,244.5399932861328,56.400001525878906,248.42999267578125,56.849998474121094,251.1300048828125C57.29999923706055,253.8300018310547,59.70000076293945,269.389892578125,60.150001525878906,272.1300048828125C61.04999923706055,277.7099914550781,58.95000076293945,279.1300048828125,55.30999755859375,282.1300048828125C53.20000076293945,283.8599853515625,45.83000183105469,286.55999755859375,44.41999816894531,290.29998779296875C42.76000213623047,294.7099914550781,49.970001220703125,298.2200012207031,54.30999755859375,297.29998779296875C58.650001525878906,296.3800048828125,63.400001525878906,292.54998779296875,66.74000549316406,291.70001220703125C70.08000183105469,290.8500061035156,73.6300048828125,288.1000061035156,73.74000549316406,285.260009765625C73.8499984741211,282.4200134277344,71.33999633789062,278.07000732421875,71.63999938964844,276.8699951171875C71.94000244140625,275.6700134277344,73.63999938964844,261.29998779296875,74.04000091552734,257.8699951171875C74.44000244140625,254.44000244140625,76.58999633789062,242.58999633789062,76.29000091552734,240.0399932861328C75.94139862060547,237.0417938232422,76.04240417480469,234.00830078125,76.58999633789062,231.0399932861328C76.87950134277344,229.5009002685547,77.0978012084961,227.95089721679688,77.28179931640625,226.3972930908203C77.54650115966797,229.91600036621094,78.20500183105469,233.3966064453125,79.25990295410156,236.77000427246094C80.7698974609375,241.60000610351562,80.45989990234375,244.01010131835938,80.30989837646484,244.9199981689453C79.77090454101562,248.8970947265625,79.67359924316406,252.92149353027344,80.0198974609375,256.91998291015625C80.61990356445312,261.44000244140625,83.47990417480469,268.46002197265625,83.47990417480469,272.0799865722656C83.47990417480469,275.7001037597656,80.87989807128906,281.4100036621094,81.47990417480469,284C82.07989501953125,286.5899963378906,90.47989654541016,289.79998779296875,91.97000122070312,291.30999755859375C93.45999908447266,292.82000732421875,100.88999938964844,297.5299987792969,105.87000274658203,296.30999755859375C110.8499984741211,295.0899963378906,112.30999755859375,292.0199890136719,111.87000274658203,289.42999267578125C111.43000030517578,286.8399963378906,107.41999816894531,284.07000732421875,104.69999694824219,282.2598876953125zM39.18000030517578,191.61000061035156C39.68000030517578,191.52000427246094,41.47999954223633,197.47000122070312,44.48999786376953,196C45.44000244140625,195.5,45.04999923706055,191.91000366210938,43.62999725341797,188.41000366210938C42.209999084472656,184.91000366210938,40.15999984741211,182.75,41.76000213623047,178.35000610351562C43.93000030517578,172.35000610351562,48.09000015258789,157.8699951171875,51.45000076293945,151.99000549316406C54.80999755859375,146.11000061035156,58.90999984741211,134.47000122070312,58.90999984741211,124.38999938964844C58.90999984741211,114.30999755859375,54.47999954223633,95.94000244140625,48.45000076293945,100.80999755859375C42.45000076293945,105.68000030517578,45.220001220703125,134.1199951171875,43.12000274658203,138.3300018310547C41.02000045776367,142.5399932861328,38.79999923706055,152.42999267578125,37.119998931884766,160C35.439998626708984,167.57000732421875,33.220001220703125,178.1199951171875,33.220001220703125,184C33.220001220703125,186.27000427246094,32.619998931884766,193.42999267578125,33.34000015258789,195.44000244140625C34.060001373291016,197.4499969482422,40.790000915527344,206.44000244140625,43.34000015258789,204.61000061035156C45.540000915527344,203.05999755859375,40.939998626708984,199.50999450683594,40.34000015258789,197.61000061035156C39.73999786376953,195.7100067138672,38.93000030517578,191.67999267578125,39.18000030517578,191.61000061035156z"/>
<path id="Head" fill="#FFFFFF" d="M108.0999984741211,54.279998779296875C108.0999984741211,73.81999969482422,92.31999969482422,91.6500015258789,78.44000244140625,91.6500015258789C64.83000183105469,91.6500015258789,48.77000045776367,73.81999969482422,48.77000045776367,54.279998779296875C48.77000045776367,51.40999984741211,49.05999755859375,39.88999938964844,49.599998474121094,37.48999786376953C52.73999786376953,23.610000610351562,64.45999908447266,17.630001068115234,78.44000244140625,17.630001068115234C92.41999816894531,17.630001068115234,104.0999984741211,23.630001068115234,107.26000213623047,37.44000244140625C107.80999755859375,39.849998474121094,108.0999984741211,51.38999938964844,108.0999984741211,54.279998779296875z"/>
<path id="Skirt" fill="#FFD731" d="M108.12000274658203,192C105.12000274658203,177,99.56999969482422,162.7100067138672,98.8499984741211,162.8300018310547C92.02320098876953,166.05799865722656,84.55099487304688,167.68930053710938,77,167.60000610351562C69.01179504394531,167.57569885253906,61.281700134277344,164.76800537109375,55.13999938964844,159.66000366210938C54.06999969482422,160.5,49.77000045776367,171.11000061035156,48.94000244140625,175.0399932861328C48.577999114990234,176.75390625,46.76860046386719,184.4423065185547,44.85309982299805,192.6562042236328C45.13780212402344,194.3916015625,45.03820037841797,195.7115020751953,44.489898681640625,196C44.33519744873047,196.07550048828125,44.18589782714844,196.11959838867188,44.03759765625,196.15780639648438C43.63960266113281,197.8697967529297,43.246002197265625,199.568603515625,42.86720275878906,201.21090698242188C43.82979965209961,202.5404052734375,44.448299407958984,203.8291015625,43.33989715576172,204.61000061035156C42.982200622558594,204.86669921875,42.54029846191406,204.90440368652344,42.04640197753906,204.7845001220703C40.72019958496094,210.58889770507812,39.748600006103516,215.01199340820312,39.78990173339844,215.3800048828125C39.9099006652832,216.4499969482422,40.529998779296875,223.25999450683594,50.419898986816406,224.3800048828125C60.309898376464844,225.5,65.03990173339844,222.3800048828125,69.28990173339844,224.88999938964844C73.53990173339844,227.39990234375,77.28990173339844,223.02000427246094,77.28990173339844,223.02000427246094C77.28990173339844,223.02000427246094,80.12989807128906,225.42999267578125,89.18990325927734,225.91000366210938C98.2499008178711,226.38999938964844,100.4999008178711,220.77999877929688,104.9999008178711,222.1300048828125C109.4999008178711,223.47999572753906,112.68990325927734,221.6999969482422,112.9999008178711,221.1300048828125S111.12000274658203,207,108.12000274658203,192z"/>
<path id="BodyBorder" d="M135.712890625,190.7720947265625C135.22659301757812,192.09530639648438,134.0830078125,192.84530639648438,132.6376953125,192.80140686035156C132.3037109375,192.79359436035156,131.97360229492188,192.7487030029297,131.65921020507812,192.68319702148438C131.90139770507812,193.37359619140625,132.17579650878906,194.1313934326172,132.39849853515625,194.74960327148438C133.31838989257812,197.29159545898438,133.72860717773438,198.46249389648438,133.80770874023438,199.01229858398438C134.09970092773438,201.06700134277344,131.33799743652344,203.33749389648438,128.61239624023438,204.2633056640625C128.21009826660156,204.39999389648438,127.78919982910156,204.4615020751953,127.35649871826172,204.4615020751953C124.63680267333984,204.4615020751953,121.47470092773438,202.0269012451172,119.66020202636719,200.63040161132812C119.375,200.41070556640625,119.13580322265625,200.22610473632812,118.9551010131836,200.09820556640625C117.70610046386719,199.20950317382812,113.82129669189453,190.39610290527344,113.9717025756836,187.56300354003906C114.02539825439453,186.5561981201172,112.8301010131836,182.0435028076172,111.9531021118164,179.11669921875C110.97460174560547,176.8188018798828,109.77729797363281,173.28660583496094,108.50969696044922,169.55029296875C106.4657974243164,163.51910400390625,104.14839935302734,156.68409729003906,102.13469696044922,153.1602020263672C101.23809814453125,151.59100341796875,100.43190002441406,149.80389404296875,99.72699737548828,147.84860229492188C99.80069732666016,145.94769287109375,99.91719818115234,142.89010620117188,100.05349731445312,139.47019958496094C100.97760009765625,144.3159942626953,102.43060302734375,148.639404296875,104.30470275878906,151.9199981689453C106.4384994506836,155.65289306640625,108.7968978881836,162.60989379882812,110.87789916992188,168.7476043701172C112.1406021118164,172.47320556640625,113.33300018310547,175.99169921875,114.279296875,178.1977996826172C114.2968978881836,178.2407989501953,114.3134994506836,178.28469848632812,114.32720184326172,178.32960510253906C114.70120239257812,179.57569885253906,116.56449890136719,185.88040161132812,116.4677963256836,187.69580078125C116.4092025756836,189.06590270996094,119.33789825439453,197.09719848632812,120.42870330810547,198.07960510253906C120.60350036621094,198.20260620117188,120.86910247802734,198.4066925048828,121.18460083007812,198.64990234375C121.31060028076172,198.7469024658203,121.46160125732422,198.8625030517578,121.62319946289062,198.9853057861328C121.39420318603516,198.37789916992188,121.127197265625,197.6466064453125,120.80280303955078,196.74850463867188C120.49230194091797,195.89109802246094,120.19930267333984,195.08050537109375,119.98149871826172,194.5229034423828C119.8301010131836,194.13720703125,120.02059936523438,193.70159912109375,120.40630340576172,193.5511932373047C120.79399871826172,193.4008026123047,121.22760009765625,193.59030151367188,121.37799835205078,193.9759979248047C121.59970092773438,194.54339599609375,121.89749908447266,195.36659240722656,122.21299743652344,196.2386932373047C122.7354965209961,197.68299865722656,123.52449798583984,199.86570739746094,123.76280212402344,200.2093963623047C123.83899688720703,200.31979370117188,123.87139892578125,200.4456024169922,123.8843994140625,200.57310485839844C124.44200134277344,200.9243927001953,125.018798828125,201.2480010986328,125.5728988647461,201.497802734375C125.28209686279297,200.81849670410156,124.93170166015625,199.90330505371094,124.46890258789062,198.6575927734375C124.0020980834961,197.39979553222656,123.5186996459961,196.0989990234375,123.1719970703125,195.42030334472656C122.9834976196289,195.05209350585938,123.12999725341797,194.60000610351562,123.49909973144531,194.4114990234375C123.87020111083984,194.22300720214844,124.31939697265625,194.37049865722656,124.50789642333984,194.7386016845703C124.89459991455078,195.4954071044922,125.37120056152344,196.77769470214844,125.8750991821289,198.13510131835938C126.38179779052734,199.4980010986328,127.13929748535156,201.53720092773438,127.47930145263672,201.96270751953125C127.59529876708984,201.95199584960938,127.70539855957031,201.9304962158203,127.80770111083984,201.8957977294922C128.45889282226562,201.6746063232422,129.010009765625,201.39869689941406,129.481689453125,201.1096954345703C128.29530334472656,198.89610290527344,127.2229995727539,196.6020050048828,126.30290222167969,194.27569580078125C126.15059661865234,193.88999938964844,126.33899688720703,193.45440673828125,126.72380065917969,193.30209350585938C127.11150360107422,193.14979553222656,127.54609680175781,193.33920288085938,127.69740295410156,193.72300720214844C128.56658935546875,195.9208984375,129.57530212402344,198.08729553222656,130.68780517578125,200.1833953857422C131.0823974609375,199.79310607910156,131.3035888671875,199.45559692382812,131.33029174804688,199.2884063720703C131.26580810546875,198.96609497070312,130.56170654296875,197.0207977294922,130.048095703125,195.5998992919922C128.8560028076172,192.3032989501953,128.41830444335938,191.08700561523438,128.59970092773438,190.43359375L127.10469818115234,189.65660095214844C125.78929901123047,190.07159423828125,123.23069763183594,189.43299865722656,122.03829956054688,188.7904052734375C120.70429992675781,188.07159423828125,120.54219818115234,187.25039672851562,120.64179992675781,186.6887969970703C120.71209716796875,186.2884063720703,121.08219909667969,186.04229736328125,121.48650360107422,186.0989990234375C121.88690185546875,186.15859985351562,122.16519927978516,186.54629516601562,122.11830139160156,186.94859313964844C122.12809753417969,186.99549865722656,122.25990295410156,187.2073974609375,122.75990295410156,187.47500610351562C124.08309936523438,188.1820068359375,126.24919891357422,188.42129516601562,126.66809844970703,188.2279052734375C126.90049743652344,188.00909423828125,127.18180084228516,188.00619506835938,127.46600341796875,188.15469360351562L130.3769989013672,189.66799926757812C130.552490234375,189.7169952392578,130.7292022705078,189.77630615234375,130.9093017578125,189.84320068359375C131.38980102539062,190.02000427246094,132.11630249023438,190.2884979248047,132.69540405273438,190.3011932373047C133.19049072265625,190.32850646972656,133.27450561523438,190.15960693359375,133.3673095703125,189.90859985351562C133.4219970703125,189.7592010498047,133.33799743652344,189.5404052734375,133.2589111328125,189.3822021484375C132.42489624023438,187.73280334472656,128.7091064453125,185.6282958984375,127.09290313720703,185.1595001220703C126.96199798583984,185.12240600585938,126.83799743652344,185.06280517578125,126.72570037841797,184.9846954345703C125.7228012084961,184.2864990234375,124.89659881591797,183.73269653320312,124.2061996459961,183.2707977294922C120.95719909667969,181.0959930419922,120.38590240478516,180.64089965820312,119.2384033203125,177.3177032470703C119.2384033203125,177.3166961669922,119.2384033203125,177.31570434570312,119.23739624023438,177.31480407714844C118.57430267333984,175.3822021484375,118.41320037841797,172.23370361328125,118.22669982910156,168.58920288085938C118.02850341796875,164.73080444335938,117.80480194091797,160.35780334472656,116.94940185546875,156.51060485839844C115.6895980834961,150.1219024658203,114.05879974365234,143.75819396972656,112.09880065917969,137.56719970703125C111.25019836425781,135.01499938964844,111.07440185546875,129.7761993408203,110.87129974365234,123.71080017089844C110.68810272216797,118.23580169677734,110.44300079345703,110.94049835205078,109.45819854736328,106.1281967163086C110.12339782714844,105.4219970703125,110.8042984008789,104.73059844970703,111.50869750976562,104.06279754638672C112.74030303955078,108.48619842529297,113.09220123291016,115.32599639892578,113.37030029296875,123.62740325927734C113.55879974365234,129.25439453125,113.73650360107422,134.56979370117188,114.47669982910156,136.7958984375C116.4708023071289,143.09230041503906,118.12419891357422,149.54739379882812,119.39659881591797,155.9980010986328C120.29019927978516,160.02090454101562,120.52059936523438,164.5052947998047,120.7228012084961,168.46139526367188C120.90049743652344,171.91650390625,121.05290222167969,174.90089416503906,121.60169982910156,176.50140380859375C122.50700378417969,179.12539672851562,122.62319946289062,179.20350646972656,125.5968017578125,181.1938018798828C126.26090240478516,181.6381072998047,127.04889678955078,182.16549682617188,127.99720001220703,182.82369995117188C129.79598999023438,183.41940307617188,134.1846923828125,185.6732940673828,135.48941040039062,188.25439453125C136.04000854492188,189.3424072265625,135.91500854492188,190.2241973876953,135.712890625,190.7720947265625zM105.3926010131836,281.2193908691406C104.78910064697266,280.8179931640625,104.01470184326172,280.37469482421875,103.19529724121094,279.9059143066406C100.75779724121094,278.51141357421875,96.67669677734375,276.1763916015625,96.8447036743164,274.22821044921875C96.91400146484375,273.4302978515625,97.033203125,271.8981018066406,97.18260192871094,269.9714050292969C97.6532974243164,263.9176940917969,98.5282974243164,252.648193359375,98.97850036621094,250.27220153808594C99.5009994506836,247.5084991455078,99.27729797363281,244.29269409179688,99.09860229492188,241.7086944580078C99.06050109863281,241.1656951904297,99.02439880371094,240.6501007080078,98.99800109863281,240.17059326171875C98.9208984375,238.76730346679688,99.37010192871094,235.44500732421875,99.76750183105469,232.51339721679688C100.11319732666016,229.95970153808594,100.44039916992188,227.547607421875,100.50869750976562,225.96359252929688C100.54620361328125,225.1020050048828,100.64350128173828,223.9532012939453,100.76740264892578,222.69129943847656C99.95149993896484,223.07640075683594,99.0967025756836,223.55490112304688,98.1333999633789,224.03289794921875C98.07679748535156,224.71139526367188,98.03350067138672,225.33140563964844,98.0105972290039,225.856201171875C97.94709777832031,227.32589721679688,97.61309814453125,229.79269409179688,97.28990173339844,232.17750549316406C96.83779907226562,235.51539611816406,96.41100311279297,238.66769409179688,96.50180053710938,240.30929565429688C96.52909851074219,240.79859924316406,96.56529998779297,241.326904296875,96.60430145263672,241.88250732421875C96.77320098876953,244.32290649414062,96.98419952392578,247.36000061035156,96.52130126953125,249.8072967529297C96.04669952392578,252.3179931640625,95.19709777832031,263.2476806640625,94.69020080566406,269.77801513671875C94.54080200195312,271.69500732421875,94.42259979248047,273.2193908691406,94.35430145263672,274.01239013671875C94.04859924316406,277.55340576171875,98.431396484375,280.0611877441406,101.95390319824219,282.0758972167969C102.73509979248047,282.523193359375,103.47339630126953,282.9460144042969,104.00759887695312,283.301513671875C105.88059997558594,284.547607421875,110.26830291748047,287.46649169921875,110.63749694824219,289.639404296875C111.06719970703125,292.1745910644531,109.17459869384766,294.2135925292969,105.572998046875,295.0964050292969C101.34739685058594,296.12860107421875,94.39820098876953,291.9919128417969,92.85910034179688,290.43231201171875C92.22339630126953,289.78680419921875,90.96160125732422,289.0982971191406,88.95680236816406,288.02801513671875C87.00859832763672,286.9880065917969,82.95390319824219,284.82391357421875,82.697998046875,283.7174987792969C82.44509887695312,282.626708984375,83.05540466308594,280.301513671875,83.59349822998047,278.2486877441406C84.152099609375,276.1188049316406,84.7302017211914,273.91668701171875,84.7302017211914,272.0798034667969C84.7302017211914,269.9137878417969,83.86009979248047,266.876708984375,82.93820190429688,263.660888671875C82.24000549316406,261.2214050292969,81.51730346679688,258.6990051269531,81.26530456542969,256.81231689453125C80.92739868164062,252.91189575195312,81.02310180664062,248.9665985107422,81.5426025390625,245.122802734375C81.68319702148438,244.2751007080078,82.10800170898438,241.69309997558594,80.45230102539062,236.39720153808594C79.43710327148438,233.14959716796875,78.7991943359375,229.80450439453125,78.53590393066406,226.42039489746094C78.63520050048828,225.56849670410156,78.71549987792969,224.714599609375,78.78620147705078,223.86000061035156C77.72819519042969,223.38600158691406,77.29000091552734,223.02000427246094,77.29000091552734,223.02000427246094C77.29000091552734,223.02000427246094,76.779296875,223.6134033203125,75.9259033203125,224.23800659179688C75.94760131835938,224.94790649414062,75.97529602050781,225.6573944091797,76.02670288085938,226.36480712890625C75.84770202636719,227.85479736328125,75.63740539550781,229.3406982421875,75.36039733886719,230.81309509277344C74.79010009765625,233.9069061279297,74.68510437011719,237.06019592285156,75.04890441894531,240.18519592285156C75.23739624023438,241.78970336914062,74.21540069580078,248.3531951904297,73.53959655761719,252.6968994140625C73.20849609375,254.82090759277344,72.92340087890625,256.6558837890625,72.79840087890625,257.7252197265625C71.97419738769531,264.79449462890625,70.6509017944336,275.6724853515625,70.42779541015625,276.5660095214844C70.21099853515625,277.43218994140625,70.56309509277344,278.4635009765625,71.25689697265625,280.3629150390625C71.82969665527344,281.9302978515625,72.54249572753906,283.8815002441406,72.49130249023438,285.21148681640625C72.41320037841797,287.2213134765625,69.58160400390625,289.6871032714844,66.43170166015625,290.4888000488281C64.77110290527344,290.9117126464844,62.903900146484375,291.9408874511719,60.92729949951172,293.03179931640625C58.62900161743164,294.2994079589844,56.25250244140625,295.6098937988281,54.05080032348633,296.07769775390625C51.58110046386719,296.5971984863281,47.85009765625,295.3501892089844,46.221702575683594,293.4547119140625C45.44779968261719,292.5542907714844,45.2411994934082,291.6665954589844,45.58940124511719,290.7417907714844C46.40340042114258,288.5826110839844,50.10449981689453,286.5669860839844,52.80719757080078,285.09429931640625C54.179298400878906,284.3471984863281,55.36479949951172,283.7016906738281,56.1051025390625,283.09429931640625L56.591400146484375,282.69488525390625C59.9390983581543,279.94879150390625,62.35749816894531,277.96539306640625,61.383399963378906,271.92730712890625C61.17250061035156,270.64019775390625,60.52989959716797,266.5211181640625,59.86240005493164,262.23687744140625C59.108001708984375,257.4010009765625,58.3218994140625,252.3560028076172,58.083099365234375,250.92340087890625C57.85850143432617,249.57569885253906,58.11920166015625,247.78379821777344,58.37120056152344,246.05130004882812C58.57680130004883,244.63819885253906,58.770599365234375,243.30419921875,58.6973991394043,242.20660400390625C58.562599182128906,240.18800354003906,57.244300842285156,234.9438934326172,56.18470001220703,230.72999572753906L55.663700103759766,228.64889526367188C55.364601135253906,227.44430541992188,55.14179992675781,226.08340454101562,54.955101013183594,224.62530517578125C54.1531982421875,224.6273956298828,53.31559753417969,224.60760498046875,52.427799224853516,224.55239868164062C52.634498596191406,226.2393035888672,52.88410186767578,227.8280029296875,53.23699951171875,229.25050354003906L53.760398864746094,231.3394012451172C54.74040222167969,235.23880004882812,56.08319854736328,240.57870483398438,56.20330047607422,242.3726043701172C56.25849914550781,243.20660400390625,56.08319854736328,244.41360473632812,55.89710235595703,245.6909942626953C55.63050079345703,247.5240020751953,55.32830047607422,249.6020965576172,55.61730194091797,251.3345947265625C55.8551025390625,252.7633056640625,56.639801025390625,257.7974853515625,57.3922004699707,262.6217041015625C58.061100006103516,266.9147033691406,58.7047004699707,271.0426025390625,58.916099548339844,272.3287048339844C59.66019821166992,276.94390869140625,58.29790115356445,278.0621032714844,55.005897521972656,280.76129150390625L54.517601013183594,281.1626892089844C53.96139907836914,281.6188049316406,52.819801330566406,282.2408142089844,51.61140060424805,282.89898681640625C48.39459991455078,284.6510009765625,44.3922004699707,286.83160400390625,43.250099182128906,289.8598937988281C42.5797004699707,291.64111328125,42.96150207519531,293.4966125488281,44.32530212402344,295.0845031738281C46.199798583984375,297.26519775390625,49.703697204589844,298.7007141113281,52.78820037841797,298.7007141113281C53.403900146484375,298.7007141113281,54.003501892089844,298.6430969238281,54.569400787353516,298.52301025390625C57.13479995727539,297.9790954589844,59.791099548339844,296.5132141113281,62.13479995727539,295.22119140625C63.96730041503906,294.2095031738281,65.69830322265625,293.2554016113281,67.04840087890625,292.91070556640625C70.84429931640625,291.9458923339844,74.85209655761719,288.8384094238281,74.98930358886719,285.3081970214844C75.05960083007812,283.48590087890625,74.28669738769531,281.3706970214844,73.60499572753906,279.5044860839844C73.28810119628906,278.6372985839844,72.85400390625,277.44879150390625,72.85299682617188,277.1724853515625C73.21530151367188,275.7213134765625,75.26119995117188,258.19110107421875,75.28170013427734,258.0142822265625C75.40080261230469,256.9927978515625,75.68310546875,255.1802978515625,76.00970458984375,253.08169555664062C77.00140380859375,246.71060180664062,77.74310302734375,241.69400024414062,77.53170013427734,239.89520263671875C77.3345947265625,238.1999053955078,77.30569458007812,236.49659729003906,77.40730285644531,234.8007049560547C77.60940551757812,235.58580017089844,77.82450103759766,236.3679962158203,78.06680297851562,237.14329528808594C79.04779815673828,240.28199768066406,79.38760375976562,242.82980346679688,79.07119750976562,244.75169372558594C78.52090454101562,248.81320190429688,78.4207992553711,252.94410705566406,78.78070068359375,257.08367919921875C79.06289672851562,259.210693359375,79.8115005493164,261.822998046875,80.53559875488281,264.34930419921875C81.36909484863281,267.25750732421875,82.23040008544922,270.2643127441406,82.23040008544922,272.0798034667969C82.23040008544922,273.593505859375,81.69430541992188,275.63739013671875,81.17570495605469,277.614990234375C80.50430297851562,280.1736145019531,79.8699951171875,282.589599609375,80.26260375976562,284.2820129394531C80.73820495605469,286.335693359375,83.67860412597656,288.0447082519531,87.78019714355469,290.2341003417969C89.13860321044922,290.9587097167969,90.67769622802734,291.781005859375,91.08000183105469,292.1882019042969C92.60639953613281,293.7341003417969,98.8739013671875,297.756591796875,104.12590026855469,297.756591796875C104.8290023803711,297.756591796875,105.51460266113281,297.6842956542969,106.16790008544922,297.5242004394531C112.08000183105469,296.07598876953125,113.59860229492188,292.14630126953125,113.10250091552734,289.2204895019531C112.5947036743164,286.2330017089844,108.85639953613281,283.52398681640625,105.3926010131836,281.2193908691406zM45.15530014038086,203.90390014648438C45.381900787353516,202.3227996826172,44.11720275878906,200.73500061035156,42.894100189208984,199.2008056640625C42.347198486328125,198.5133056640625,41.666099548339844,197.65879821777344,41.53179931640625,197.23399353027344C41.476600646972656,197.05819702148438,41.420501708984375,196.8677978515625,41.363800048828125,196.66659545898438C42.359901428222656,197.44979858398438,43.595699310302734,197.8258056640625,45.07279968261719,197.10609436035156C47.311100006103516,195.92739868164062,45.865299224853516,190.5944061279297,44.78810119628906,187.94009399414062C44.47119903564453,187.15789794921875,44.13279724121094,186.4586944580078,43.805702209472656,185.78089904785156C42.67340087890625,183.43809509277344,41.855499267578125,181.74569702148438,42.93510055541992,178.77499389648438C43.546897888183594,177.0845947265625,44.296897888183594,174.78179931640625,45.166099548339844,172.1157989501953C47.27989959716797,165.62649536132812,50.17539978027344,156.74029541015625,52.53569793701172,152.60989379882812C53.52179718017578,150.88429260253906,54.5093994140625,148.80189514160156,55.43330001831055,146.50070190429688C55.4375,146.17230224609375,55.44000244140625,145.8618927001953,55.44000244140625,145.57989501953125C55.44000244140625,144.21560668945312,55.520999908447266,141.4232940673828,55.605201721191406,138.15699768066406C54.08440017700195,143.6761932373047,52.002197265625,148.5041046142578,50.36470031738281,151.36959838867188C47.87739944458008,155.72210693359375,45.055599212646484,164.38229370117188,42.78849792480469,171.34129333496094C41.926700592041016,173.98680114746094,41.182098388671875,176.27200317382812,40.58489990234375,177.9232940673828C39.14500045776367,181.88330078125,40.37010192871094,184.4174041748047,41.55459976196289,186.8686065673828C41.864200592041016,187.51019287109375,42.18499755859375,188.1732940673828,42.47159957885742,188.87930297851562C43.63420104980469,191.74549865722656,43.88520050048828,194.18299865722656,43.71870040893555,194.95249938964844C42.869598388671875,195.11459350585938,42.00389862060547,193.89779663085938,40.983299255371094,192.02769470214844C40.44670104980469,191.04530334472656,39.98820114135742,190.2006072998047,38.958900451660156,190.37930297851562C38.9193000793457,190.38609313964844,38.88029861450195,190.39590454101562,38.841697692871094,190.40660095214844C38.51599884033203,190.49839782714844,38.219600677490234,190.7386016845703,38.058502197265625,191.0364990234375C37.43550109863281,192.1887969970703,39.129798889160156,197.92909240722656,39.14789962768555,197.98570251464844C39.42179870605469,198.85389709472656,40.158599853515625,199.77870178222656,40.938899993896484,200.75819396972656C41.533599853515625,201.50430297851562,42.771400451660156,203.05799865722656,42.690399169921875,203.52679443359375L42.610801696777344,203.5941925048828C42.59320068359375,203.60690307617188,42.474098205566406,203.62060546875,42.24359893798828,203.5482940673828C39.724098205566406,202.7631072998047,35.02439880371094,196.43499755859375,34.516502380371094,195.01800537109375C34.06679916381836,193.7631072998047,34.26359939575195,189.30709838867188,34.38079833984375,186.6439971923828C34.429100036621094,185.54539489746094,34.47019958496094,184.60299682617188,34.47019958496094,183.99949645996094C34.47019958496094,178.4232940673828,36.53860092163086,168.38909912109375,38.340301513671875,160.27000427246094C39.86180114746094,153.4145050048828,42.16059875488281,143.05369567871094,44.23870086669922,138.88819885253906C45.09510040283203,137.1708984375,45.22840118408203,133.16510009765625,45.38960266113281,126.2323989868164C45.501399993896484,121.44509887695312,45.645599365234375,115.30650329589844,46.31639862060547,110.31449890136719C45.435302734375,109.56220245361328,44.652198791503906,108.91110229492188,44.06639862060547,108.42990112304688C43.288002014160156,113.1249008178711,43.052101135253906,119.24320220947266,42.890602111816406,126.17430114746094C42.77239990234375,131.23629760742188,42.65039825439453,136.47119140625,42.001399993896484,137.77200317382812C39.95600128173828,141.8730926513672,37.94820022583008,150.4980926513672,35.89979934692383,159.72900390625C34.07019805908203,167.97219848632812,31.97010040283203,178.18020629882812,31.97010040283203,183.99949645996094C31.97010040283203,184.57760620117188,31.92959976196289,185.48089599609375,31.88319969177246,186.53469848632812C31.699600219726562,190.6977996826172,31.594100952148438,194.2729949951172,32.163002014160156,195.86180114746094C32.87099838256836,197.83740234375,37.95349884033203,204.82960510253906,41.499900817871094,205.93499755859375C41.886600494384766,206.0550994873047,42.23529815673828,206.10389709472656,42.546302795410156,206.10389709472656C43.22650146484375,206.10389709472656,43.72840118408203,205.8695068359375,44.05950164794922,205.63119506835938C44.67679977416992,205.1968994140625,45.055702209472656,204.60020446777344,45.15530014038086,203.90390014648438zM47.52000045776367,54.27989959716797C47.52000045776367,51.6598014831543,47.796897888183594,39.80970001220703,48.380401611328125,37.21540069580078C51.37649917602539,23.973800659179688,62.33250045776367,16.380001068115234,78.43989562988281,16.380001068115234C94.50779724121094,16.380001068115234,105.45600128173828,23.954700469970703,108.47850036621094,37.16120147705078C109.0791015625,39.79650115966797,109.34960174560547,51.55229949951172,109.34960174560547,54.27989959716797C109.34960174560547,63.66559982299805,105.73729705810547,73.43609619140625,99.44039916992188,81.08699798583984C96.57969665527344,84.56169891357422,93.3291015625,87.3678970336914,89.95590209960938,89.37830352783203C90.60639953613281,92.04789733886719,91.78119659423828,94.44979858398438,93.81770324707031,95.17410278320312C93.20770263671875,95.51959991455078,92.37149810791016,96.05660247802734,91.39759826660156,96.71510314941406C89.50849914550781,95.35790252685547,88.38059997558594,93.02960205078125,87.70640563964844,90.59500122070312C84.60580444335938,92.09010314941406,81.45140075683594,92.89990234375,78.44000244140625,92.89990234375C76.01899719238281,92.89990234375,73.50489807128906,92.34970092773438,71.00309753417969,91.34950256347656C70.04290008544922,93.59159851074219,68.47779846191406,94.91429901123047,66.81590270996094,95.68360137939453L64.69290161132812,93.83280181884766C64.72100067138672,93.82389831542969,64.74449920654297,93.81069946289062,64.77299499511719,93.80220031738281C66.6510009765625,93.24240112304688,67.95379638671875,92.06279754638672,68.70590209960938,90.30259704589844C57.67070007324219,84.63459777832031,47.52000045776367,70.35049438476562,47.52000045776367,54.27989959716797zM50.02000045776367,54.27989959716797C50.02000045776367,70.20130157470703,63.400901794433594,90.4000015258789,78.43989562988281,90.4000015258789C91.22850036621094,90.4000015258789,106.84960174560547,73.73249816894531,106.84960174560547,54.27989959716797C106.84960174560547,50.93320083618164,106.5322036743164,39.870201110839844,106.04100036621094,37.717899322509766C103.30180358886719,25.746700286865234,93.24120330810547,18.880001068115234,78.43989562988281,18.880001068115234C58.125,18.880001068115234,52.415000915527344,30.712499618530273,50.819297790527344,37.76570129394531C50.33399963378906,39.92150115966797,50.02000045776367,50.9473991394043,50.02000045776367,54.27989959716797zM66.05760192871094,243.7653045654297C64.14649963378906,244.2008056640625,61.636199951171875,244.33169555664062,61.08879852294922,243.8258056640625C60.68299865722656,243.4508056640625,60.05120086669922,243.47720336914062,59.67570114135742,243.88150024414062C59.30070114135742,244.28680419921875,59.325599670410156,244.9196014404297,59.73139953613281,245.2946014404297C60.448699951171875,245.95770263671875,61.66109848022461,246.16180419921875,62.88330078125,246.16180419921875C64.36080169677734,246.16180419921875,65.85250091552734,245.86300659179688,66.50239562988281,245.71449279785156C67.04100036621094,245.5915069580078,67.37739562988281,245.05630493164062,67.25439453125,244.51719665527344C67.13180541992188,243.9801025390625,66.59130096435547,243.63929748535156,66.05760192871094,243.7653045654297z"/>
<path id="SkirtBorder" d="M114.09860229492188,221.7261962890625C113.39550018310547,223.02110290527344,109.42179870605469,224.7593994140625,104.6406021118164,223.32679748535156C103.14450073242188,222.87860107421875,102.00579833984375,223.41859436035156,99.95899963378906,224.49969482421875C97.7822036743164,225.64810180664062,94.8593978881836,227.18820190429688,90.25980377197266,227.18820190429688C89.8916015625,227.18820190429688,89.51370239257812,227.17840576171875,89.12409973144531,227.15789794921875C82.47570037841797,226.80630493164062,79.00740051269531,225.44700622558594,77.47029876708984,224.61399841308594C75.60600280761719,226.28489685058594,72.16659545898438,228.04080200195312,68.65440368652344,225.9665069580078C66.73550415039062,224.8336944580078,64.63389587402344,225.0709991455078,61.45759963989258,225.42840576171875C58.583099365234375,225.7545928955078,55.006900787353516,226.1569061279297,50.27939987182617,225.62179565429688C40.57769775390625,224.5240936279297,38.8468017578125,218.22140502929688,38.552799224853516,215.56320190429688C38.49660110473633,215.06300354003906,38.89939880371094,212.94140625,40.881797790527344,204.277099609375C41.85060119628906,204.85679626464844,42.719600677490234,205.05540466308594,43.3400993347168,204.610107421875C43.35540008544922,204.59930419921875,43.36289978027344,204.58619689941406,43.37750244140625,204.5751953125C42.12229919433594,210.05880737304688,41.13610076904297,214.50010681152344,41.042999267578125,215.3336944580078C41.359901428222656,217.95379638671875,43.02439880371094,222.28489685058594,50.56060028076172,223.1374053955078C55.005897521972656,223.6403045654297,58.42679977416992,223.2545928955078,61.17679977416992,222.94500732421875C62.91640090942383,222.74789428710938,64.46849822998047,222.57620239257812,65.92300415039062,222.6580047607422L66.08070373535156,216.822998046875C66.09529876708984,216.27029418945312,66.54359436035156,215.84249877929688,67.10710144042969,215.8502960205078C67.6593017578125,215.86590576171875,68.09489440917969,216.3249053955078,68.07980346679688,216.87759399414062L67.9154052734375,222.96429443359375C68.59619903564453,223.1490936279297,69.26290130615234,223.422607421875,69.92599487304688,223.81419372558594C73.2052993774414,225.75169372558594,76.21699523925781,222.3502960205078,76.34349822998047,222.20379638671875C76.35490417480469,222.19070434570312,76.37179565429688,222.1865997314453,76.38359832763672,222.17410278320312C76.55909729003906,220.26190185546875,76.73350524902344,214.12049865722656,76.82009887695312,208.61399841308594C76.82890319824219,208.0670928955078,77.27470397949219,207.6295928955078,77.81959533691406,207.6295928955078C77.82499694824219,207.6295928955078,77.8302993774414,207.6295928955078,77.83570098876953,207.6295928955078C78.38790130615234,207.63839721679688,78.82890319824219,208.093505859375,78.82009887695312,208.64520263671875C78.76609802246094,212.07650756835938,78.62449645996094,219.40679931640625,78.3699951171875,222.2436065673828C79.23300170898438,222.7635040283203,82.32049560546875,224.29429626464844,89.2571029663086,224.66180419921875C93.8136978149414,224.89810180664062,96.46800231933594,223.51429748535156,98.79319763183594,222.28880310058594C99.83650207519531,221.7386016845703,100.84989929199219,221.2053985595703,101.92479705810547,220.90859985351562L101.09300231933594,209.27130126953125C101.0530014038086,208.7205047607422,101.46800231933594,208.24200439453125,102.018798828125,208.20289611816406C102.57929992675781,208.152099609375,103.04810333251953,208.5789031982422,103.08719635009766,209.12869262695312L103.9136962890625,220.69239807128906C104.37760162353516,220.71640014648438,104.85420227050781,220.7808074951172,105.3595962524414,220.9324951171875C108.66529846191406,221.92269897460938,111.01290130615234,221.00869750976562,111.77069854736328,220.55459594726562C111.6135025024414,218.08099365234375,109.66819763183594,206.11219787597656,106.89469909667969,192.2449951171875C104.36930084228516,179.62100219726562,99.99629974365234,167.47349548339844,98.4395980834961,164.39439392089844C91.72959899902344,167.39830017089844,84.32530212402344,168.9237060546875,76.98550415039062,168.85049438476562C69.19839477539062,168.8271026611328,61.59149932861328,166.22059631347656,55.422000885009766,161.4853057861328C53.991302490234375,164.21279907226562,50.86830139160156,171.95889282226562,50.16320037841797,175.29879760742188C49.88780212402344,176.6024932861328,48.81159973144531,181.20700073242188,47.449302673339844,187.03610229492188C46.383697509765625,191.5948944091797,44.99489974975586,197.53790283203125,43.781898498535156,202.81300354003906C43.45989990234375,201.9178009033203,42.648597717285156,200.89830017089844,41.88100051879883,199.93460083007812C42.15769958496094,198.7375946044922,42.4556999206543,197.4512939453125,42.77739715576172,196.06610107421875C43.29669952392578,196.2794952392578,43.86579895019531,196.30520629882812,44.4901008605957,196.00039672851562C45.29779815673828,195.57530212402344,45.1338005065918,192.9156951904297,44.19490051269531,189.9779052734375C44.4573974609375,188.85299682617188,44.72840118408203,187.69200134277344,45.01470184326172,186.466796875C46.31990051269531,180.88279724121094,47.44729995727539,176.05960083007812,47.716800689697266,174.78219604492188C48.41699981689453,171.4676971435547,52.77149963378906,159.92970275878906,54.36869812011719,158.67669677734375C54.83209991455078,158.3134002685547,55.48640060424805,158.32220458984375,55.93949890136719,158.69920349121094C61.843299865722656,163.60940551757812,69.32429504394531,166.3271026611328,77.00399780273438,166.35060119628906C84.33799743652344,166.43069458007812,91.70030212402344,164.82809448242188,98.31549835205078,161.7001953125C98.41999816894531,161.65040588378906,98.5302963256836,161.61619567871094,98.64459991455078,161.59669494628906C99.62120056152344,161.4375,100.3926010131836,161.30960083007812,103.8134994506836,171.341796875C105.12310028076172,175.1815948486328,107.58300018310547,182.94039916992188,109.345703125,191.75489807128906C109.57710266113281,192.90980529785156,114.99610137939453,220.0758056640625,114.09860229492188,221.7261962890625zM53.480499267578125,194.36000061035156C53.916500091552734,194.36000061035156,54.31739807128906,194.07290649414062,54.44190216064453,193.63250732421875C56.25830078125,187.23109436035156,57.474098205566406,180.62469482421875,58.05619812011719,173.99769592285156C58.10449981689453,173.4468994140625,57.69779968261719,172.9615936279297,57.147499084472656,172.9136962890625C56.595298767089844,172.86099243164062,56.112300872802734,173.27310180664062,56.06399917602539,173.8218994140625C55.492698669433594,180.32479858398438,54.299800872802734,186.80630493164062,52.51810073852539,193.08749389648438C52.36720275878906,193.6186981201172,52.67580032348633,194.17149353027344,53.20709991455078,194.3218994140625C53.298301696777344,194.34829711914062,53.390098571777344,194.36000061035156,53.480499267578125,194.36000061035156z"/>
<path id="Shirt" fill="#FFD2F7" d="M64.45999908447266,93.62999725341797C60,94.0999984741211,53.38999938964844,95.38999938964844,49.599998474121094,98.54000091552734C45.80999755859375,101.69000244140625,42.970001220703125,107.54000091552734,42.970001220703125,107.54000091552734C42.970001220703125,107.54000091552734,54.650001525878906,116.83999633789062,55.44000244140625,120C56.22999954223633,123.16000366210938,55.44000244140625,141.32000732421875,55.44000244140625,145.5800018310547C55.44000244140625,149.83999633789062,54.90999984741211,159.91000366210938,55.44000244140625,160.38999938964844C55.970001220703125,160.8699951171875,60.81999969482422,167.8800048828125,76.33999633789062,167.8800048828125C91.86000061035156,167.8800048828125,98.77999877929688,164.7100067138672,99.26000213623047,163.1300048828125C99.73999786376953,161.5500030517578,99.51000213623047,153.24000549316406,99.66999816894531,149.3000030517578C99.83000183105469,145.36000061035156,100.66999816894531,122.37000274658203,101.02999877929688,119.83999633789062C101.38999938964844,117.30999755859375,104.5,112.11000061035156,106.70999908447266,109.2699966430664C108.24549865722656,107.34970092773438,109.91649627685547,105.54180145263672,111.70999908447266,103.86000061035156C107.54010009765625,98.61289978027344,101.38880157470703,95.32019805908203,94.70999908447266,94.76000213623047C93,95.0999984741211,78.6500015258789,106,78.6500015258789,106L64.45999908447266,93.62999725341797z"/>
<path id="ShirtBorder" d="M112.6884994506836,103.08219909667969C108.32230377197266,97.58809661865234,101.80760192871094,94.10079956054688,94.81449890136719,93.51429748535156C94.69930267333984,93.50550079345703,94.58209991455078,93.51139831542969,94.46589660644531,93.53379821777344C92.77059936523438,93.87120056152344,83.44149780273438,100.8062973022461,78.7052001953125,104.38980102539062L65.28120422363281,92.6875991821289C65.01899719238281,92.45909881591797,64.67279815673828,92.35260009765625,64.3291015625,92.38680267333984C60.3588981628418,92.8052978515625,53.0625,94.03669738769531,48.801300048828125,97.57869720458984C44.84919738769531,100.8634033203125,41.96630096435547,106.74569702148438,41.845699310302734,106.99420166015625C41.590301513671875,107.52059936523438,41.73390197753906,108.15339660644531,42.19139862060547,108.51809692382812C46.90380096435547,112.27050018310547,53.75340270996094,118.40769958496094,54.22699737548828,120.30329895019531C54.76750183105469,122.46440124511719,54.482398986816406,133.32089233398438,54.311500549316406,139.80718994140625C54.24359893798828,142.39559936523438,54.18989944458008,144.4405059814453,54.18989944458008,145.58009338378906C54.18989944458008,146.9145965576172,54.13719940185547,148.83299255371094,54.08100128173828,150.8643035888672C53.82170104980469,160.2740020751953,53.950599670410156,160.7270965576172,54.57469940185547,161.29150390625L54.70459747314453,161.43699645996094C59.12110137939453,166.4691925048828,66.60250091552734,169.12939453125,76.33990478515625,169.12939453125C91.04889678955078,169.12939453125,99.60549926757812,166.2935028076172,100.45610046386719,163.4936981201172C100.79399871826172,162.3813934326172,100.8291015625,159.41949462890625,100.84770202636719,154.6743927001953C100.85549926757812,152.64610290527344,100.86329650878906,150.73060607910156,100.91899871826172,149.35069274902344L101.0333023071289,146.40980529785156C101.31449890136719,139.13589477539062,101.9708023071289,122.10220336914062,102.2677001953125,120.01580047607422C102.56649780273438,117.9136962890625,105.37999725341797,113.01429748535156,107.68659973144531,110.05049896240234C109.17980194091797,108.18280029296875,110.82140350341797,106.40689849853516,112.56449890136719,104.77220153808594C113.04000091552734,104.32679748535156,113.09380340576172,103.59190368652344,112.6884994506836,103.08219909667969zM105.72360229492188,108.50260162353516C104.62460327148438,109.91480255126953,103.20580291748047,112.03600311279297,102.02570343017578,114.16639709472656C102.0802993774414,112.90270233154297,102.18560028076172,111.6707992553711,102.37789916992188,110.76920318603516C102.49410247802734,110.22920227050781,102.14939880371094,109.69740295410156,101.60929870605469,109.58219909667969C101.07019805908203,109.46649932861328,100.53700256347656,109.81120300292969,100.42279815673828,110.3511962890625C99.92430114746094,112.68409729003906,99.94869995117188,116.77660369873047,99.99559783935547,118.75509643554688C99.90640258789062,119.07550048828125,99.83270263671875,119.38379669189453,99.79290008544922,119.6636962890625C99.51460266113281,121.61389923095703,99.00090026855469,134.22959899902344,98.53510284423828,146.3135986328125L98.4207992553711,149.2490997314453C98.36319732666016,150.67489624023438,98.35540008544922,152.61289978027344,98.34760284423828,154.6645965576172C98.33589935302734,157.7281036376953,98.32029724121094,161.9243927001953,98.09369659423828,162.69290161132812C97.44719696044922,163.7436981201172,91.08979797363281,166.62939453125,76.33979797363281,166.62939453125C67.47160339355469,166.62939453125,60.455501556396484,164.19970703125,56.583499908447266,159.78860473632812C56.56690216064453,159.77000427246094,56.551300048828125,159.75149536132812,56.536102294921875,159.73489379882812C56.369102478027344,158.58839416503906,56.49510192871094,154.01370239257812,56.58000183105469,150.93310546875C56.636600494384766,148.88429260253906,56.68989944458008,146.94920349121094,56.68989944458008,145.58009338378906C56.68989944458008,144.47320556640625,56.74610137939453,142.34129333496094,56.81100082397461,139.87310791015625C57.055599212646484,130.55380249023438,57.22800064086914,121.99810028076172,56.652801513671875,119.6968002319336C56.58100128173828,119.40979766845703,56.42530059814453,119.08000183105469,56.2327995300293,118.7322998046875C55.96189880371094,116.13770294189453,55.54249954223633,113.53260040283203,54.97610092163086,110.98300170898438C54.85649871826172,110.44339752197266,54.32419967651367,110.10310363769531,53.783199310302734,110.22370147705078C53.244102478027344,110.34329986572266,52.904300689697266,110.87750244140625,53.02389907836914,111.4166030883789C53.33100128173828,112.79940032958984,53.59149932861328,114.19950103759766,53.81050109863281,115.6051025390625C50.910400390625,112.47049713134766,46.597999572753906,108.86740112304688,44.553199768066406,107.20909881591797C45.479000091552734,105.5083999633789,47.710899353027344,101.7354965209961,50.39889907836914,99.50160217285156C54.07609939575195,96.44499969482422,60.811500549316406,95.3135986328125,64.05270385742188,94.93319702148438L77.82859802246094,106.94249725341797C78.27539825439453,107.33170318603516,78.93499755859375,107.35310363769531,79.40570068359375,106.99569702148438C85.96189880371094,102.01570129394531,93.4041976928711,96.65440368652344,94.84760284423828,96.02690124511719C100.6865005493164,96.57959747314453,106.13860321044922,99.37359619140625,110.00189971923828,103.76570129394531C108.48729705810547,105.25160217285156,107.05370330810547,106.83799743652344,105.72360229492188,108.50260162353516z"/>
<path id="Shoes" fill="#FFD2F7" d="M111.93000030517578,289.42999267578125C111.51000213623047,286.8399963378906,107.4800033569336,284.07000732421875,104.76000213623047,282.260009765625C104.04000091552734,281.7699890136719,103.0199966430664,281.2099914550781,101.93000030517578,280.5799865722656C102.80000305175781,282.260009765625,103.13999938964844,284.1199951171875,101.61000061035156,285.44000244140625C98.61000061035156,288.010009765625,87.68000030517578,281.8999938964844,82.61000061035156,277.2200012207031C81.93000030517578,279.8500061035156,81.18000030517578,282.45001220703125,81.61000061035156,283.9800109863281C82.25,286.55999755859375,90.61000061035156,289.7799987792969,92.0999984741211,291.2900085449219C93.58999633789062,292.79998779296875,101.0199966430664,297.510009765625,106,296.2900085449219S112.3499984741211,292,111.93000030517578,289.42999267578125zM56.26000213623047,286.30999755859375C55.13999938964844,285.3644104003906,54.61000061035156,283.8926086425781,54.87000274658203,282.45001220703125C52.31999969482422,284.19000244140625,45.75,286.7799987792969,44.41999816894531,290.2900085449219C42.76000213623047,294.70001220703125,49.970001220703125,298.2099914550781,54.30999755859375,297.2900085449219C58.650001525878906,296.3699951171875,63.400001525878906,292.5400085449219,66.74000549316406,291.69000244140625C70.08000183105469,290.8399963378906,73.6300048828125,288.0899963378906,73.74000549316406,285.25C73.83000183105469,283.44000244140625,72.83999633789062,281.0299987792969,72.18000030517578,279.25C68,282.8599853515625,59.29999923706055,288.6099853515625,56.26000213623047,286.30999755859375z"/>
<path id="ShoesBorder" d="M113.16310119628906,289.2290954589844C112.67870330810547,286.24859619140625,108.92870330810547,283.53179931640625,105.46389770507812,281.22711181640625C104.86620330810547,280.81988525390625,104.09380340576172,280.3785095214844,103.27539825439453,279.91070556640625L102.55570220947266,279.4975891113281C102.07520294189453,279.21929931640625,101.4677963256836,279.29150390625,101.06639862060547,279.67529296875C100.66500091552734,280.0591125488281,100.56439971923828,280.6615905761719,100.81929779052734,281.15380859375C102.00679779052734,283.4468078613281,101.125,284.2074890136719,100.79679870605469,284.4906921386719C98.86810302734375,286.14208984375,89.14540100097656,281.5531921386719,83.45790100097656,276.30120849609375C83.13560485839844,276.0032958984375,82.67959594726562,275.8988952636719,82.25770568847656,276.0209045410156C81.83580017089844,276.1448974609375,81.51060485839844,276.4818115234375,81.40029907226562,276.9065856933594L81.23919677734375,277.52569580078125C80.55999755859375,280.1263122558594,79.91839599609375,282.5823059082031,80.39689636230469,284.2806091308594C80.90080261230469,286.3117980957031,83.82510375976562,288.0159912109375,87.90229797363281,290.2015075683594C89.26270294189453,290.9309997558594,90.80560302734375,291.7572021484375,91.20989990234375,292.16729736328125C92.73529815673828,293.7142028808594,99.00090026855469,297.7366027832031,104.25289916992188,297.7356872558594C104.95700073242188,297.7356872558594,105.64350128173828,297.66339111328125,106.29679870605469,297.5032958984375C112.1240005493164,296.0768127441406,113.66410064697266,292.2936096191406,113.16310119628906,289.2290954589844zM105.70210266113281,295.0758056640625C101.48919677734375,296.1040954589844,94.52729797363281,291.9713134765625,92.98919677734375,290.4117126464844C92.35250091552734,289.76519775390625,91.08979797363281,289.07379150390625,89.08300018310547,287.9975891113281C87.14059448242188,286.95660400390625,83.09860229492188,284.79058837890625,82.8134994506836,283.6412048339844C82.57229614257812,282.7847900390625,82.90330505371094,281.1451110839844,83.31939697265625,279.4761962890625C88.84669494628906,283.9361877441406,98.85749816894531,289.4458923339844,102.42680358886719,286.38641357421875C103.07820129394531,285.82391357421875,103.90039825439453,284.7984924316406,103.91699981689453,283.2008972167969C103.96880340576172,283.2341003417969,104.01860046386719,283.268310546875,104.06739807128906,283.301513671875C105.94629669189453,284.551513671875,110.3467025756836,287.477294921875,110.69529724121094,289.630615234375C110.69629669189453,289.630615234375,110.69629669189453,289.631591796875,110.69629669189453,289.631591796875C111.11129760742188,292.1734924316406,109.24510192871094,294.2076110839844,105.70210266113281,295.0758056640625zM73.35209655761719,278.8150939941406C73.20999908447266,278.4313049316406,72.88819885253906,278.14129638671875,72.49169921875,278.0386962890625C72.095703125,277.9361877441406,71.67289733886719,278.0357971191406,71.36329650878906,278.3033142089844C66.18069458007812,282.7807922363281,58.97850036621094,286.7203063964844,57.03860092163086,285.33160400390625C56.28129959106445,284.6744079589844,55.922401428222656,283.65869140625,56.10009765625,282.67138671875C56.18989944458008,282.1763000488281,55.97270202636719,281.67529296875,55.55030059814453,281.4009094238281C55.12739944458008,281.12750244140625,54.58149719238281,281.1322937011719,54.16550064086914,281.4175109863281C53.548797607421875,281.83740234375,52.60540008544922,282.35211181640625,51.60639953613281,282.89599609375C48.394500732421875,284.64599609375,44.39690017700195,286.82281494140625,43.25,289.8490905761719C42.57959747314453,291.63031005859375,42.96139907836914,293.4867858886719,44.32569885253906,295.0736999511719C46.19969940185547,297.25531005859375,49.70359802246094,298.6899108886719,52.78759765625,298.6899108886719C53.40380096435547,298.6899108886719,54.002899169921875,298.6322937011719,54.569297790527344,298.51220703125C57.134700775146484,297.9682922363281,59.79050064086914,296.5033874511719,62.13420104980469,295.21038818359375C63.96670150756836,294.19970703125,65.69770050048828,293.2445983886719,67.04830169677734,292.9007873535156C70.84420013427734,291.9360046386719,74.85200500488281,288.8276062011719,74.98870086669922,285.3110046386719C75.08250427246094,283.42230224609375,74.23529815673828,281.1673889160156,73.55459594726562,279.35589599609375L73.35209655761719,278.8150939941406zM66.43209838867188,290.47808837890625C64.77099609375,290.9010009765625,62.90380096435547,291.93121337890625,60.926700592041016,293.0220031738281C58.62879943847656,294.28961181640625,56.25239944458008,295.60009765625,54.050697326660156,296.06689453125C51.58100128173828,296.58740234375,47.849998474121094,295.34130859375,46.22159957885742,293.4447937011719C45.44770050048828,292.5444030761719,45.2411003112793,291.65570068359375,45.58879852294922,290.73291015625C46.40620040893555,288.5757141113281,50.10300064086914,286.56201171875,52.80220031738281,285.09130859375C53.129798889160156,284.91259765625,53.444297790527344,284.74169921875,53.74359893798828,284.5766906738281C54.02389907836914,285.60888671875,54.611297607421875,286.5533142089844,55.453102111816406,287.26519775390625C55.47019958496094,287.2789001464844,55.48780059814453,287.2934875488281,55.50579833984375,287.30718994140625C59.41450119018555,290.2641906738281,68.20989990234375,283.9848937988281,71.61520385742188,281.3179016113281C72.0990982055664,282.6636047363281,72.5448989868164,284.11669921875,72.49119567871094,285.2007141113281C72.41310119628906,287.21148681640625,69.58149719238281,289.6773986816406,66.43209838867188,290.47808837890625z"/>
<path id="Hair" fill="#482D18" d="M122.37999725341797,60.849998474121094C113.45999908447266,53,146,34.20000076293945,120.88999938964844,17.09000015258789C110.75959777832031,10.968999862670898,100.8416976928711,15.700699806213379,98.94319915771484,22.26689910888672C94.53579711914062,18.510601043701172,88.24839782714844,16,79.30999755859375,16C69.63929748535156,16,62.82099914550781,18.719100952148438,58.01900100708008,22.751300811767578C56.47719955444336,15.938400268554688,46.29199981689453,10.819499969482422,36,17.09000015258789C10.880000114440918,34.20000076293945,43.37999725341797,53,34.459999084472656,60.849998474121094C32.1244010925293,62.668800354003906,28.834800720214844,62.606300354003906,26.56999969482422,60.70000076293945C26.56999969482422,60.70000076293945,32.22999954223633,66.79000091552734,39,59.58000183105469C44.68980026245117,53.52040100097656,41.34919738769531,44.88520050048828,47.61689758300781,42.69260025024414C46.285301208496094,50.47959899902344,47.12999725341797,56.939998626708984,47.12999725341797,56.939998626708984L58.2599983215332,44.26000213623047L91.83000183105469,31.260000228881836C91.83000183105469,31.260000228881836,92.18000030517578,36.650001525878906,98.26000213623047,44.52000045776367C104.33999633789062,52.38999938964844,108.51000213623047,55.66999816894531,108.51000213623047,55.66999816894531C108.51000213623047,55.66999816894531,109.45269775390625,49.758201599121094,108.56880187988281,42.500099182128906C115.70970153808594,44.31739807128906,111.93599700927734,53.3213996887207,117.83000183105469,59.58000183105469C124.62000274658203,66.79000091552734,130.27999877929688,60.70000076293945,130.27999877929688,60.70000076293945C128.01199340820312,62.6078987121582,124.71880340576172,62.6703987121582,122.37999725341797,60.849998474121094z"/>
<path id="HairBorder" d="M129.47560119628906,59.74330139160156C127.6698989868164,61.26139831542969,125.00779724121094,61.3130989074707,123.20610046386719,59.911800384521484C120.6884994506836,57.69649887084961,122.58309936523438,54.07780075073242,125.88379669189453,48.35810089111328C131.0186004638672,39.459197998046875,138.0518035888672,27.271699905395508,121.53610229492188,16.020200729370117C115.81929779052734,12.565999984741211,109.31739807128906,12.055299758911133,104.14360046386719,14.65779972076416C101.5145034790039,15.979599952697754,99.53150177001953,17.96470069885254,98.41059875488281,20.25670051574707C93.46269989013672,16.603500366210938,87.06700134277344,14.750100135803223,79.31010437011719,14.750100135803223C70.94020080566406,14.750100135803223,64.01629638671875,16.749399185180664,58.63240051269531,20.687599182128906C57.554298400878906,18.207300186157227,55.473602294921875,16.052000045776367,52.66460037231445,14.646100044250488C47.48830032348633,12.056300163269043,41.01570129394531,12.570899963378906,35.29640197753906,16.056699752807617C18.831501007080078,27.27159881591797,25.847200393676758,39.45960235595703,30.970199584960938,48.35900115966797C34.26219940185547,54.07820129394531,36.15229797363281,57.695899963378906,33.69190216064453,59.86389923095703C31.833999633789062,61.310699462890625,29.176799774169922,61.260398864746094,27.374500274658203,59.74330139160156C26.86910057067871,59.31800079345703,26.119600296020508,59.35900115966797,25.664499282836914,59.8380012512207C25.208900451660156,60.31650161743164,25.204500198364258,61.06700134277344,25.654199600219727,61.550899505615234C25.76020050048828,61.66469955444336,28.293399810791016,64.34339904785156,32.121498107910156,64.35310363769531C32.128299713134766,64.35310363769531,32.13570022583008,64.35310363769531,32.143001556396484,64.35310363769531C34.85689926147461,64.35310363769531,37.47060012817383,63.03519821166992,39.911102294921875,60.43560028076172C42.80999755859375,57.34870147705078,43.540000915527344,53.7504997253418,44.18360137939453,50.576698303222656C44.627899169921875,48.38610076904297,45.00699996948242,46.617401123046875,45.94860076904297,45.38100051879883C45.22740173339844,51.76300048828125,45.83760070800781,56.69940185546875,45.890602111816406,57.10260009765625C45.9541015625,57.58890151977539,46.29679870605469,57.99319839477539,46.7666015625,58.135799407958984C46.886199951171875,58.172401428222656,47.00830078125,58.189998626708984,47.12989807128906,58.189998626708984C47.48390197753906,58.189998626708984,47.828102111816406,58.039100646972656,48.069400787353516,57.76470184326172L58.997100830078125,45.314998626708984L90.86530303955078,32.97419738769531C91.39949798583984,35.233001708984375,92.93070220947266,39.666099548339844,97.27059936523438,45.2843017578125C103.3750991821289,53.185699462890625,107.56159973144531,56.514801025390625,107.73739624023438,56.65250015258789C108.08599853515625,56.92639923095703,108.5519027709961,56.996299743652344,108.96489715576172,56.83409881591797C109.37799835205078,56.67250061035156,109.67389678955078,56.3047981262207,109.74420166015625,55.8672981262207C109.80680084228516,55.474700927734375,110.529296875,50.72010040283203,110.052001953125,44.56480026245117C111.6323013305664,45.758201599121094,112.08689880371094,47.831600189208984,112.63780212402344,50.56159973144531C113.28040313720703,53.74079895019531,114.00789642333984,57.34479904174805,116.91999816894531,60.43709945678711C119.36730194091797,63.035701751708984,121.98539733886719,64.35310363769531,124.70220184326172,64.35310363769531C124.71099853515625,64.35310363769531,124.7208023071289,64.35310363769531,124.72949981689453,64.35310363769531C128.55960083007812,64.34040069580078,131.08990478515625,61.66460037231445,131.1962890625,61.550899505615234C131.6455078125,61.06700134277344,131.6416015625,60.31650161743164,131.18560791015625,59.8380012512207S129.98049926757812,59.31850051879883,129.47560119628906,59.74330139160156zM46.47890090942383,41.821998596191406C43.111900329589844,43.3848991394043,42.40530014038086,46.767799377441406,41.733802795410156,50.0797004699707C41.12779998779297,53.06650161743164,40.50090026855469,56.155399322509766,38.08879852294922,58.724700927734375C37.629798889160156,59.2135009765625,37.16790008544922,59.645599365234375,36.70349884033203,60.020599365234375C38.538002014160156,56.495201110839844,35.90270233154297,51.91659927368164,33.136600494384766,47.111900329589844C27.989299774169922,38.169097900390625,22.154300689697266,28.032798767089844,36.65039825439453,18.157299041748047C41.64939880371094,15.11139965057373,47.077598571777344,14.645600318908691,51.54540252685547,16.88140106201172C54.0723991394043,18.146299362182617,55.8551025390625,20.118200302124023,56.58679962158203,22.33060073852539C55.77069854736328,23.060199737548828,54.99580001831055,23.840999603271484,54.264198303222656,24.674800872802734C49.756797790527344,29.812400817871094,47.53409957885742,36.12919998168945,46.47890090942383,41.821998596191406zM107.52639770507812,53.113399505615234C105.7802963256836,51.449798583984375,102.84870147705078,48.41469955444336,99.24909973144531,43.75600051879883C93.52639770507812,36.34880065917969,93.08110046386719,31.22330093383789,93.07720184326172,31.17889976501465C93.05180358886719,30.78190040588379,92.83789825439453,30.42060089111328,92.50299835205078,30.206199645996094C92.16609954833984,29.99139976501465,91.74810028076172,29.949899673461914,91.37899780273438,30.09440040588379L57.80870056152344,43.094398498535156C57.62070083618164,43.167198181152344,57.45320129394531,43.283897399902344,57.32040023803711,43.43519973754883L48.16120147705078,53.87030029296875C47.94239807128906,48.12810134887695,48.41749954223633,35.129600524902344,56.14360046386719,26.32390022277832C61.426300048828125,20.302900314331055,69.220703125,17.250200271606445,79.31010437011719,17.250200271606445C88.66220092773438,17.250200271606445,95.83300018310547,20.095399856567383,100.62310028076172,25.707199096679688C108.08789825439453,34.449798583984375,107.94139862060547,47.752601623535156,107.52639770507812,53.113399505615234zM118.74019622802734,58.72330093383789C116.31729888916016,56.1505012512207,115.69229888916016,53.05780029296875,115.08879852294922,50.06660079956055C114.38099670410156,46.56460189819336,113.62969970703125,42.98149871826172,109.7300033569336,41.56279754638672C108.931396484375,35.79249954223633,106.96420288085938,29.289199829101562,102.53309631347656,24.093399047851562C101.8676986694336,23.313199996948242,101.16190338134766,22.582000732421875,100.41699981689453,21.898799896240234C101.22530364990234,19.868000030517578,102.91999816894531,18.071199417114258,105.2665023803711,16.89120101928711C109.73529815673828,14.644599914550781,115.19329833984375,15.107999801635742,120.1854019165039,18.12310028076172C134.72640991210938,28.031299591064453,128.87879943847656,38.16659927368164,123.71859741210938,47.10850143432617C120.94319915771484,51.917598724365234,118.29869842529297,56.500099182128906,120.17559814453125,60.05670166015625C119.69429779052734,59.67300033569336,119.2157974243164,59.228599548339844,118.74019622802734,58.72330093383789z"/>
<path id="barret" fill="#FF8DEA" d="M58.43119812011719,46.81019973754883C58.03419876098633,46.81019973754883,57.644100189208984,46.621700286865234,57.40140151977539,46.270198822021484L53.17140197753906,40.139801025390625C52.779300689697266,39.5713996887207,52.921897888183594,38.79309844970703,53.49020004272461,38.4010009765625C54.057098388671875,38.0088996887207,54.83639907836914,38.15049743652344,55.229000091552734,38.71980285644531L59.45899963378906,44.85020065307617C59.85110092163086,45.41859817504883,59.708499908447266,46.1968994140625,59.140201568603516,46.5890007019043C58.923301696777344,46.738399505615234,58.676300048828125,46.81019973754883,58.43119812011719,46.81019973754883z"/>
</g>
</svg>