<svg xmlns="http://www.w3.org/2000/svg" xmlns:xlink="http://www.w3.org/1999/xlink" viewBox= "0 0 128 318" width="128px" height="318px">
<g xmlns="http://www.w3.org/2000/svg" id="Girl1V2.svg">
<path id="Body" fill="#FADBBD" d="M93.30000305175781,298.29998779296875C93.69999694824219,300.8999938964844,92.30000305175781,304,87.30000305175781,305.20001220703125C82.30000305175781,306.3999938964844,74.9000015258789,301.70001220703125,73.4000015258789,300.20001220703125C71.9000015258789,298.70001220703125,63.5,295.5,62.900001525878906,292.8999938964844C62.30000305175781,290.29998779296875,64.9000015258789,284.6000061035156,64.9000015258789,281C64.9000015258789,277.3999938964844,62,270.3999938964844,61.400001525878906,265.79998779296875C61,261.79998779296875,61.099998474121094,257.79998779296875,61.70000076293945,253.8000030517578C61.79999923706055,252.89999389648438,62.099998474121094,250.5,60.599998474121094,245.60000610351562C59.599998474121094,242.3000030517578,58.900001525878906,238.89999389648438,58.599998474121094,235.5C58.400001525878906,237,58.20000076293945,238.5,57.900001525878906,239.89999389648438C57.400001525878906,242.89999389648438,57.29999923706055,245.89999389648438,57.599998474121094,248.89999389648438C57.900001525878906,251.39999389648438,55.70000076293945,263.29998779296875,55.29999923706055,266.70001220703125C54.900001525878906,270.1000061035156,53.20000076293945,284.5,52.900001525878906,285.70001220703125C52.599998474121094,286.8999938964844,55.099998474121094,291.20001220703125,55,294.1000061035156C54.900001525878906,296.8999938964844,51.29999923706055,299.70001220703125,48,300.5C44.70000076293945,301.29998779296875,39.900001525878906,305.20001220703125,35.599998474121094,306.1000061035156C31.200000762939453,307,24,303.5,25.700000762939453,299.1000061035156C27.100000381469727,295.3999938964844,34.5,292.70001220703125,36.599998474121094,290.8999938964844C40.20000076293945,287.8999938964844,42.29999923706055,286.5,41.400001525878906,280.8999938964844C41,278.20001220703125,38.599998474121094,262.6000061035156,38.099998474121094,259.8999938964844C37.599998474121094,257.20001220703125,38.900001525878906,253.3000030517578,38.70000076293945,251.10000610351562C38.599998474121094,248.89999389648438,36.79999923706055,242,35.70000076293945,237.8000030517578C34.70000076293945,233.60000610351562,34.5,227.8000030517578,33.79999923706055,222.1999969482422L57.5,217.6999969482422L57.5,217.39999389648438C57.5,217.39999389648438,58,217.39999389648438,58.900001525878906,217.5L59.099998474121094,217.5L59.099998474121094,217.5C64.5999984741211,217.8000030517578,82.0999984741211,218.89999389648438,82,221.10000610351562C81.80000305175781,223.6999969482422,80.80000305175781,231.3000030517578,80.5999984741211,234.8000030517578C80.4000015258789,238.3000030517578,78.9000015258789,246.39999389648438,79.0999984741211,249.10000610351562C79.19999694824219,251.8000030517578,79.69999694824219,255.8000030517578,79.0999984741211,258.8999938964844C78.5,262,77.19999694824219,279.5,76.9000015258789,282.8999938964844C76.5999984741211,286.3999938964844,83.30000305175781,289.20001220703125,86,291C88.9000015258789,293,92.9000015258789,295.70001220703125,93.30000305175781,298.29998779296875zM20.600000381469727,200.5C21.100000381469727,200.39999389648438,22.899999618530273,206.39999389648438,25.899999618530273,204.89999389648438C26.899999618530273,204.39999389648438,26.5,200.8000030517578,25,197.3000030517578C23.600000381469727,193.8000030517578,21.5,191.60000610351562,23.100000381469727,187.1999969482422C25.299999237060547,181.1999969482422,29.399999618530273,166.6999969482422,32.79999923706055,160.8000030517578C36.20000076293945,154.89999389648438,40.29999923706055,143.3000030517578,40.29999923706055,133.1999969482422C40.29999923706055,123.0999984741211,35.900001525878906,104.69999694824219,29.799999237060547,109.5999984741211C23.799999237060547,114.5,26.600000381469727,142.89999389648438,24.5,147.10000610351562C22.399999618530273,151.3000030517578,20.200000762939453,161.1999969482422,18.5,168.8000030517578C16.799999237060547,176.39999389648438,14.600000381469727,186.89999389648438,14.600000381469727,192.8000030517578C14.600000381469727,195.10000610351562,14,202.1999969482422,14.700000762939453,204.1999969482422C15.399999618530273,206.1999969482422,22.200000762939453,215.1999969482422,24.700000762939453,213.39999389648438C26.899999618530273,211.89999389648438,22.299999237060547,208.3000030517578,21.700000762939453,206.39999389648438C21.200000762939453,204.60000610351562,20.399999618530273,200.60000610351562,20.600000381469727,200.5zM108.9000015258789,192.8000030517578C103.4000015258789,189,103.19999694824219,189.5,101.9000015258789,185.8000030517578C100.5999984741211,182.10000610351562,101.30000305175781,172.6999969482422,99.5999984741211,165.10000610351562C98.30000305175781,158.6999969482422,96.69999694824219,152.3000030517578,94.69999694824219,146.10000610351562C92.5,139.60000610351562,94.9000015258789,111.69999694824219,89.0999984741211,109C83.30000305175781,106.30000305175781,79.0999984741211,125.9000015258789,79.0999984741211,136C79.0999984741211,146.10000610351562,81.30000305175781,155.60000610351562,84.69999694824219,161.5C88.0999984741211,167.39999389648438,92.0999984741211,181.8000030517578,94.5999984741211,187.6999969482422C94.5999984741211,187.6999969482422,96.80000305175781,194.89999389648438,96.69999694824219,196.60000610351562C96.5999984741211,198.3000030517578,99.80000305175781,207,101.19999694824219,208C102.5999984741211,209,107,212.89999389648438,109.69999694824219,212C112.4000015258789,211.10000610351562,114.19999694824219,209.1999969482422,114.0999984741211,208.10000610351562C113.9000015258789,207,111.0999984741211,199.89999389648438,111.4000015258789,199.6999969482422C111.69999694824219,199.5,115.19999694824219,201.6999969482422,116.0999984741211,199.1999969482422S110.9000015258789,193.39999389648438,108.9000015258789,192.8000030517578zM38.099998474121094,78.5C41.20000076293945,85.80000305175781,46.5,91.9000015258789,52.20000076293945,95.30000305175781C52.099998474121094,99.0999984741211,50.900001525878906,102.69999694824219,46.599998474121094,103.9000015258789C39.900001525878906,105.9000015258789,50.400001525878906,118.5999984741211,59.79999923706055,118.5999984741211C69.19999694824219,118.5999984741211,81.30000305175781,107.30000305175781,75,105.4000015258789C71.5,104.30000305175781,70.0999984741211,99.80000305175781,69.5999984741211,96C75.80000305175781,92.80000305175781,81.5999984741211,86.4000015258789,84.9000015258789,78.5C86.5999984741211,78.19999694824219,88.30000305175781,76.4000015258789,89,73.9000015258789C89.69999694824219,71.19999694824219,89.0999984741211,68.69999694824219,87.5999984741211,67.69999694824219C87.69999694824219,66.80000305175781,87.69999694824219,65.9000015258789,87.69999694824219,65C87.69999694824219,62.400001525878906,87.4000015258789,52.20000076293945,86.9000015258789,50C84.0999984741211,37.79999923706055,73.69999694824219,32.5,61.400001525878906,32.5C49,32.5,38.599998474121094,37.79999923706055,35.79999923706055,50.099998474121094C35.29999923706055,52.20000076293945,35.099998474121094,62.400001525878906,35.099998474121094,65C35.099998474121094,65.9000015258789,35.099998474121094,66.80000305175781,35.20000076293945,67.69999694824219C33.599998474121094,68.5999984741211,32.900001525878906,71.30000305175781,33.599998474121094,74C34.5,76.5,36.29999923706055,78.30000305175781,38.099998474121094,78.5z"/>
<path id="BodyBorder" d="M116.9000015258789,197.10000610351562C115.5999984741211,194.5,111.19999694824219,192.3000030517578,109.4000015258789,191.6999969482422C108.5,191.10000610351562,107.69999694824219,190.5,107.0999984741211,190.10000610351562C104.0999984741211,188.10000610351562,104,188,103.0999984741211,185.39999389648438C102.5999984741211,183.8000030517578,102.4000015258789,180.8000030517578,102.19999694824219,177.39999389648438C102,173.39999389648438,101.80000305175781,169,100.9000015258789,164.89999389648438C99.5999984741211,158.5,98,152,96,145.6999969482422C95.30000305175781,143.5,95.0999984741211,138.10000610351562,94.9000015258789,132.5C94.5,119.30000305175781,93.80000305175781,109.69999694824219,89.69999694824219,107.80000305175781C88.4000015258789,107.19999694824219,87.0999984741211,107.30000305175781,85.9000015258789,108.0999984741211C80.5999984741211,111.5,77.9000015258789,128,77.9000015258789,135.89999389648438C77.9000015258789,146,80,155.6999969482422,83.5999984741211,162C85.5999984741211,165.5,87.9000015258789,172.39999389648438,90,178.39999389648438C91.30000305175781,182.10000610351562,92.5,185.6999969482422,93.4000015258789,188C94.30000305175781,190.89999389648438,95.5,195.39999389648438,95.4000015258789,196.39999389648438C95.30000305175781,199.1999969482422,99.0999984741211,207.89999389648438,100.4000015258789,208.89999389648438C100.5999984741211,209,100.80000305175781,209.1999969482422,101,209.39999389648438C102.80000305175781,210.8000030517578,106,213.3000030517578,108.80000305175781,213.3000030517578C109.19999694824219,213.3000030517578,109.69999694824219,213.1999969482422,110.0999984741211,213.10000610351562C113.19999694824219,212,115.5999984741211,209.6999969482422,115.30000305175781,207.89999389648438C115.19999694824219,207.3000030517578,114.80000305175781,206.1999969482422,113.9000015258789,203.60000610351562C113.69999694824219,203,113.4000015258789,202.1999969482422,113.19999694824219,201.60000610351562C114.5999984741211,201.89999389648438,116.5,201.8000030517578,117.30000305175781,199.6999969482422C117.4000015258789,199.10000610351562,117.5,198.1999969482422,116.9000015258789,197.10000610351562zM114.80000305175781,198.8000030517578C114.69999694824219,199.1999969482422,114.4000015258789,199.5,112.30000305175781,198.6999969482422C112.0999984741211,198.60000610351562,111.9000015258789,198.60000610351562,111.69999694824219,198.5L108.80000305175781,197C108.5,196.89999389648438,108.19999694824219,196.89999389648438,108,197.10000610351562C107.5999984741211,197.3000030517578,105.5,197.10000610351562,104.0999984741211,196.39999389648438C103.5,196.10000610351562,103.4000015258789,195.89999389648438,103.4000015258789,195.89999389648438C103.5,195.5,103.19999694824219,195.10000610351562,102.80000305175781,195C102.4000015258789,194.89999389648438,102,195.1999969482422,101.9000015258789,195.60000610351562C101.80000305175781,196.1999969482422,102,197,103.30000305175781,197.6999969482422C104.5,198.3000030517578,107.0999984741211,199,108.4000015258789,198.60000610351562L109.9000015258789,199.39999389648438C109.69999694824219,200.10000610351562,110.19999694824219,201.3000030517578,111.30000305175781,204.5C111.80000305175781,205.89999389648438,112.5,207.89999389648438,112.5999984741211,208.1999969482422C112.5999984741211,208.39999389648438,112.4000015258789,208.6999969482422,112,209.10000610351562C110.9000015258789,207,109.9000015258789,204.89999389648438,109,202.6999969482422C108.80000305175781,202.3000030517578,108.4000015258789,202.10000610351562,108,202.3000030517578C107.5999984741211,202.5,107.4000015258789,202.89999389648438,107.5999984741211,203.3000030517578C108.5,205.60000610351562,109.5999984741211,207.89999389648438,110.69999694824219,210.10000610351562C110.19999694824219,210.39999389648438,109.69999694824219,210.6999969482422,109,210.89999389648438C108.9000015258789,210.89999389648438,108.80000305175781,211,108.69999694824219,211L108.69999694824219,211C108.4000015258789,210.60000610351562,107.5999984741211,208.5,107.0999984741211,207.1999969482422C106.5999984741211,205.89999389648438,106.0999984741211,204.60000610351562,105.69999694824219,203.8000030517578C105.5,203.39999389648438,105.0999984741211,203.3000030517578,104.69999694824219,203.5C104.30000305175781,203.6999969482422,104.19999694824219,204.10000610351562,104.4000015258789,204.5C104.69999694824219,205.1999969482422,105.19999694824219,206.5,105.69999694824219,207.6999969482422C106.19999694824219,209,106.5,209.89999389648438,106.80000305175781,210.60000610351562C106.19999694824219,210.39999389648438,105.69999694824219,210,105.0999984741211,209.6999969482422C105.0999984741211,209.60000610351562,105.0999984741211,209.39999389648438,105,209.3000030517578C104.80000305175781,208.89999389648438,103.9000015258789,206.60000610351562,103.4000015258789,205.10000610351562C103.0999984741211,204.3000030517578,102.80000305175781,203.60000610351562,102.5999984741211,203C102.5,202.60000610351562,102,202.39999389648438,101.5999984741211,202.60000610351562C101.19999694824219,202.6999969482422,101,203.1999969482422,101.19999694824219,203.60000610351562C101.4000015258789,204.10000610351562,101.69999694824219,204.89999389648438,102,205.60000610351562C102.4000015258789,206.60000610351562,102.5999984741211,207.39999389648438,102.9000015258789,208C102.69999694824219,207.8000030517578,102.5,207.6999969482422,102.30000305175781,207.60000610351562C102,207.39999389648438,101.80000305175781,207.1999969482422,101.69999694824219,207.10000610351562C100.5999984741211,206.10000610351562,97.69999694824219,198.10000610351562,97.69999694824219,196.8000030517578C97.80000305175781,195,95.9000015258789,188.6999969482422,95.5999984741211,187.39999389648438L95.5999984741211,187.3000030517578C94.69999694824219,185.10000610351562,93.5,181.60000610351562,92.19999694824219,177.8000030517578C90.0999984741211,171.6999969482422,87.80000305175781,164.6999969482422,85.5999984741211,161C82.19999694824219,155.10000610351562,80.19999694824219,145.8000030517578,80.19999694824219,136.10000610351562C80.19999694824219,126.69999694824219,83.4000015258789,112.69999694824219,87.0999984741211,110.4000015258789C87.4000015258789,110.19999694824219,87.5999984741211,110.0999984741211,87.9000015258789,110.0999984741211C88.0999984741211,110.0999984741211,88.30000305175781,110.0999984741211,88.5,110.19999694824219C91.5,111.5999984741211,91.9000015258789,124.30000305175781,92.19999694824219,132.6999969482422C92.4000015258789,138.8000030517578,92.5999984741211,144,93.4000015258789,146.60000610351562C95.4000015258789,152.8000030517578,97,159.10000610351562,98.19999694824219,165.5C99.0999984741211,169.3000030517578,99.30000305175781,173.6999969482422,99.5,177.60000610351562C99.69999694824219,181.1999969482422,99.9000015258789,184.39999389648438,100.5,186.3000030517578C101.5999984741211,189.60000610351562,102.19999694824219,190.10000610351562,105.5,192.3000030517578C106.19999694824219,192.8000030517578,107,193.3000030517578,108,194C108.0999984741211,194.10000610351562,108.19999694824219,194.10000610351562,108.4000015258789,194.1999969482422C110,194.6999969482422,113.69999694824219,196.8000030517578,114.5999984741211,198.39999389648438C114.80000305175781,198.5,114.9000015258789,198.6999969482422,114.80000305175781,198.8000030517578zM48.70000076293945,253.39999389648438C48.79999923706055,253.89999389648438,48.5,254.5,48,254.60000610351562C47.400001525878906,254.6999969482422,45.900001525878906,255.10000610351562,44.400001525878906,255.10000610351562C43.20000076293945,255.10000610351562,42,254.89999389648438,41.20000076293945,254.1999969482422C40.79999923706055,253.8000030517578,40.79999923706055,253.1999969482422,41.20000076293945,252.8000030517578C41.599998474121094,252.39999389648438,42.20000076293945,252.39999389648438,42.599998474121094,252.8000030517578C43.099998474121094,253.3000030517578,45.599998474121094,253.1999969482422,47.599998474121094,252.6999969482422C48,252.5,48.599998474121094,252.89999389648438,48.70000076293945,253.39999389648438zM86.9000015258789,290.1000061035156C86.30000305175781,289.70001220703125,85.5,289.29998779296875,84.69999694824219,288.79998779296875C82.30000305175781,287.3999938964844,78.19999694824219,285.1000061035156,78.30000305175781,283.1000061035156C78.4000015258789,282.3999938964844,78.5,281.1000061035156,78.5999984741211,279.5C79.0999984741211,273.20001220703125,80,261.6000061035156,80.5,259.20001220703125C81,256.5,80.80000305175781,253.3000030517578,80.5999984741211,250.6999969482422C80.5999984741211,250.10000610351562,80.5,249.60000610351562,80.5,249.10000610351562C80.4000015258789,247.6999969482422,80.9000015258789,244.39999389648438,81.30000305175781,241.39999389648438C81.5999984741211,238.89999389648438,82,236.39999389648438,82,234.89999389648438C82.0999984741211,233,82.5,229.60000610351562,82.80000305175781,226.6999969482422C83.0999984741211,224.39999389648438,83.30000305175781,222.3000030517578,83.4000015258789,221.1999969482422C83.4000015258789,220.89999389648438,83.4000015258789,220.39999389648438,82.9000015258789,219.89999389648438C80.9000015258789,217.6999969482422,67.19999694824219,216.6999969482422,59.599998474121094,216.3000030517578C59.400001525878906,216.1999969482422,59.20000076293945,216.1999969482422,59,216.3000030517578L59,216.3000030517578C58.5,216.3000030517578,58.099998474121094,216.3000030517578,57.70000076293945,216.1999969482422C57.29999923706055,216.1999969482422,57,216.3000030517578,56.79999923706055,216.60000610351562L56.70000076293945,216.6999969482422L33.70000076293945,221C33,221.10000610351562,32.599998474121094,221.6999969482422,32.70000076293945,222.39999389648438C33,224.39999389648438,33.20000076293945,226.5,33.400001525878906,228.60000610351562C33.70000076293945,232.10000610351562,34,235.39999389648438,34.70000076293945,238.10000610351562L35.20000076293945,239.89999389648438C36.20000076293945,243.89999389648438,37.599998474121094,249.39999389648438,37.70000076293945,251.1999969482422C37.79999923706055,252,37.599998474121094,253.1999969482422,37.400001525878906,254.5C37.099998474121094,256.29998779296875,36.79999923706055,258.3999938964844,37.099998474121094,260.1000061035156C37.400001525878906,261.70001220703125,38.29999923706055,267.70001220703125,39.099998474121094,273.1000061035156C39.70000076293945,276.79998779296875,40.20000076293945,280,40.400001525878906,281.1000061035156C41.20000076293945,285.70001220703125,39.79999923706055,286.79998779296875,36.5,289.5L36,289.8999938964844C35.400001525878906,290.3999938964844,34.29999923706055,291,33.099998474121094,291.70001220703125C29.899999618530273,293.3999938964844,25.899999618530273,295.6000061035156,24.799999237060547,298.6000061035156C24.100000381469727,300.3999938964844,24.5,302.20001220703125,25.899999618530273,303.79998779296875C27.799999237060547,306,31.299999237060547,307.3999938964844,34.400001525878906,307.3999938964844C35,307.3999938964844,35.599998474121094,307.29998779296875,36.20000076293945,307.20001220703125C38.79999923706055,306.70001220703125,41.400001525878906,305.20001220703125,43.79999923706055,303.8999938964844C45.599998474121094,302.8999938964844,47.400001525878906,301.8999938964844,48.70000076293945,301.6000061035156C52.5,300.6000061035156,56.5,297.5,56.599998474121094,294C56.70000076293945,292.20001220703125,55.900001525878906,290,55.20000076293945,288.20001220703125C54.900001525878906,287.29998779296875,54.5,286.20001220703125,54.400001525878906,285.8999938964844C54.79999923706055,284.5,56.70000076293945,267.5,56.79999923706055,266.70001220703125C56.900001525878906,265.70001220703125,57.20000076293945,263.79998779296875,57.599998474121094,261.70001220703125C58.599998474121094,255.39999389648438,59.29999923706055,250.39999389648438,59.099998474121094,248.6999969482422C58.900001525878906,247,58.900001525878906,245.3000030517578,59,243.6999969482422C59.20000076293945,244.5,59.400001525878906,245.1999969482422,59.599998474121094,245.89999389648438C60.599998474121094,249.10000610351562,60.900001525878906,251.60000610351562,60.599998474121094,253.5C60,257.6000061035156,59.900001525878906,261.70001220703125,60.29999923706055,265.79998779296875C60.599998474121094,267.8999938964844,61.29999923706055,270.5,62.099998474121094,273.1000061035156C62.900001525878906,276,63.80000305175781,279,63.80000305175781,280.79998779296875C63.80000305175781,282.29998779296875,63.30000305175781,284.3999938964844,62.69999694824219,286.29998779296875C62,288.8999938964844,61.400001525878906,291.29998779296875,61.79999923706055,293C62.30000305175781,295.1000061035156,65.19999694824219,296.79998779296875,69.30000305175781,298.8999938964844C70.69999694824219,299.6000061035156,72.19999694824219,300.3999938964844,72.5999984741211,300.8999938964844C74.0999984741211,302.3999938964844,80.4000015258789,306.5,85.5999984741211,306.5C86.30000305175781,306.5,87,306.3999938964844,87.69999694824219,306.29998779296875C93.5999984741211,304.8999938964844,95.0999984741211,300.8999938964844,94.5999984741211,298C94.0999984741211,295.1000061035156,90.30000305175781,292.3999938964844,86.9000015258789,290.1000061035156zM56.900001525878906,239.6999969482422C56.29999923706055,242.8000030517578,56.20000076293945,245.89999389648438,56.599998474121094,249.10000610351562C56.79999923706055,250.6999969482422,55.79999923706055,257.20001220703125,55.099998474121094,261.5C54.79999923706055,263.70001220703125,54.5,265.6000061035156,54.29999923706055,266.6000061035156C53.5,273.8999938964844,52.20000076293945,284.5,51.900001525878906,285.3999938964844C51.70000076293945,286.29998779296875,52,287.29998779296875,52.70000076293945,289.20001220703125C53.29999923706055,290.79998779296875,54,292.70001220703125,53.900001525878906,294.1000061035156C53.79999923706055,296.1000061035156,51,298.6000061035156,47.79999923706055,299.3999938964844C46.099998474121094,299.79998779296875,44.29999923706055,300.8999938964844,42.29999923706055,301.8999938964844C40,303.20001220703125,37.599998474121094,304.5,35.400001525878906,304.8999938964844C32.900001525878906,305.3999938964844,29.200000762939453,304.20001220703125,27.600000381469727,302.29998779296875C26.799999237060547,301.3999938964844,26.600000381469727,300.5,27,299.6000061035156C27.799999237060547,297.3999938964844,31.5,295.3999938964844,34.20000076293945,294C35.599998474121094,293.20001220703125,36.79999923706055,292.6000061035156,37.5,292L38,291.6000061035156C41.29999923706055,288.8999938964844,43.79999923706055,286.8999938964844,42.79999923706055,280.79998779296875C42.599998474121094,279.70001220703125,42.099998474121094,276.3999938964844,41.5,272.79998779296875C40.70000076293945,267.5,39.70000076293945,261.3999938964844,39.5,259.79998779296875C39.29999923706055,258.5,39.5,256.70001220703125,39.79999923706055,254.89999389648438C40,253.5,40.20000076293945,252.1999969482422,40.099998474121094,251.10000610351562C40,249,38.599998474121094,243.6999969482422,37.5,239.3000030517578L37.099998474121094,237.5C36.5,235,36.20000076293945,231.6999969482422,35.79999923706055,228.3000030517578C35.599998474121094,226.60000610351562,35.5,224.89999389648438,35.29999923706055,223.1999969482422L56.5,219.1999969482422L57.29999923706055,232.5C57.29999923706055,233.5,57.400001525878906,234.39999389648438,57.400001525878906,235.39999389648438C57.29999923706055,236.89999389648438,57.099998474121094,238.3000030517578,56.900001525878906,239.6999969482422zM87,304C82.5,305.1000061035156,75.5,300.6000061035156,74.30000305175781,299.29998779296875C73.69999694824219,298.70001220703125,72.4000015258789,298,70.4000015258789,296.8999938964844C68.5,295.8999938964844,64.4000015258789,293.70001220703125,64.19999694824219,292.6000061035156C63.900001525878906,291.5,64.5999984741211,289.20001220703125,65.0999984741211,287.1000061035156C65.69999694824219,285,66.19999694824219,282.79998779296875,66.19999694824219,280.8999938964844C66.19999694824219,278.70001220703125,65.30000305175781,275.70001220703125,64.4000015258789,272.5C63.69999694824219,270.1000061035156,63,267.5,62.69999694824219,265.70001220703125C62.400001525878906,261.79998779296875,62.5,257.8999938964844,63,254C63.400001525878906,251.6999969482422,63,248.8000030517578,61.900001525878906,245.3000030517578C60.900001525878906,242.10000610351562,60.29999923706055,238.89999389648438,60,235.60000610351562C60.29999923706055,232.8000030517578,60.5,230,60.5,227.10000610351562L60.5,218.89999389648438C69.5,219.39999389648438,78.9000015258789,220.39999389648438,80.80000305175781,221.5C80.69999694824219,222.60000610351562,80.5,224.5,80.30000305175781,226.5C80,229.5,79.5999984741211,232.89999389648438,79.5,234.89999389648438C79.4000015258789,236.39999389648438,79.0999984741211,238.8000030517578,78.80000305175781,241.1999969482422C78.30000305175781,244.5,77.9000015258789,247.6999969482422,78,249.3000030517578C78,249.8000030517578,78.0999984741211,250.3000030517578,78.0999984741211,250.89999389648438C78.30000305175781,253.3000030517578,78.5,256.3999938964844,78,258.79998779296875C77.5,261.20001220703125,76.80000305175781,270.70001220703125,76.0999984741211,279.3999938964844C76,281,75.9000015258789,282.29998779296875,75.80000305175781,283C75.5,286.5,79.9000015258789,289,83.4000015258789,291.1000061035156C84.19999694824219,291.5,84.9000015258789,292,85.5,292.29998779296875C87.4000015258789,293.5,91.80000305175781,296.5,92.0999984741211,298.6000061035156C92.5,301.1000061035156,90.5999984741211,303.1000061035156,87,304zM26.600000381469727,212.8000030517578C26.799999237060547,211.1999969482422,25.600000381469727,209.60000610351562,24.299999237060547,208.10000610351562C23.799999237060547,207.39999389648438,23.100000381469727,206.60000610351562,22.899999618530273,206.10000610351562C22.799999237060547,205.89999389648438,22.799999237060547,205.6999969482422,22.700000762939453,205.5C23.700000762939453,206.3000030517578,24.899999618530273,206.6999969482422,26.399999618530273,205.89999389648438C28.600000381469727,204.6999969482422,27.200000762939453,199.39999389648438,26.100000381469727,196.6999969482422C25.799999237060547,195.89999389648438,25.399999618530273,195.1999969482422,25.100000381469727,194.5C24,192.1999969482422,23.100000381469727,190.5,24.200000762939453,187.5C24.799999237060547,185.8000030517578,25.600000381469727,183.5,26.5,180.6999969482422C28.700000762939453,173.89999389648438,31.5,165.39999389648438,33.79999923706055,161.3000030517578C37.599998474121094,154.6999969482422,41.400001525878906,142.8000030517578,41.400001525878906,133.10000610351562C41.400001525878906,125.4000015258789,38.70000076293945,110.4000015258789,33.400001525878906,107.9000015258789C32.400001525878906,107.4000015258789,30.799999237060547,107.0999984741211,29,108.5999984741211L29,108.5999984741211C25.100000381469727,111.80000305175781,24.5,122,24.200000762939453,134.89999389648438C24.100000381469727,140,24,145.1999969482422,23.299999237060547,146.5C21.100000381469727,150.8000030517578,19,160.5,17.200000762939453,168.3000030517578L17.200000762939453,168.39999389648438C15.5,175.89999389648438,13.300000190734863,186.6999969482422,13.300000190734863,192.6999969482422C13.300000190734863,193.3000030517578,13.300000190734863,194.1999969482422,13.199999809265137,195.3000030517578C13,199.5,12.899999618530273,203,13.5,204.60000610351562C14.200000762939453,206.60000610351562,19.299999237060547,213.60000610351562,22.799999237060547,214.6999969482422C23.200000762939453,214.8000030517578,23.5,214.89999389648438,23.899999618530273,214.89999389648438C24.600000381469727,214.89999389648438,25.100000381469727,214.6999969482422,25.399999618530273,214.39999389648438C26.100000381469727,214.10000610351562,26.5,213.5,26.600000381469727,212.8000030517578zM24.100000381469727,212.5C24.100000381469727,212.5,24,212.5,23.700000762939453,212.5C21.200000762939453,211.6999969482422,16.5,205.39999389648438,16,204C15.600000381469727,202.6999969482422,15.799999237060547,198.3000030517578,15.899999618530273,195.60000610351562C15.899999618530273,194.5,16,193.5,16,192.89999389648438C16,187.10000610351562,18.200000762939453,176.60000610351562,19.899999618530273,169.1999969482422L19.899999618530273,169.10000610351562C21.5,161.8000030517578,23.700000762939453,151.89999389648438,25.799999237060547,147.89999389648438C26.700000762939453,146.1999969482422,26.799999237060547,142.1999969482422,27,135.1999969482422C27.200000762939453,126.5999984741211,27.5,113.5,30.799999237060547,110.80000305175781C31.700000762939453,110.0999984741211,32.20000076293945,110.19999694824219,32.599998474121094,110.4000015258789C36.099998474121094,112.0999984741211,39.20000076293945,124.5999984741211,39.20000076293945,133.39999389648438C39.20000076293945,143.8000030517578,34.79999923706055,155.1999969482422,31.900001525878906,160.39999389648438C29.399999618530273,164.6999969482422,26.600000381469727,173.39999389648438,24.399999618530273,180.3000030517578C23.5,183,22.799999237060547,185.3000030517578,22.200000762939453,187C20.799999237060547,191,22,193.5,23.200000762939453,195.89999389648438C23.5,196.5,23.799999237060547,197.1999969482422,24.100000381469727,197.89999389648438C25.299999237060547,200.8000030517578,25.5,203.1999969482422,25.299999237060547,204C24.5,204.1999969482422,23.600000381469727,202.89999389648438,22.600000381469727,201.10000610351562C22.100000381469727,200.10000610351562,21.600000381469727,199.3000030517578,20.600000381469727,199.39999389648438L20.5,199.39999389648438C20.200000762939453,199.5,19.899999618530273,199.6999969482422,19.700000762939453,200C19.100000381469727,201.10000610351562,20.799999237060547,206.89999389648438,20.799999237060547,206.89999389648438C21.100000381469727,207.8000030517578,21.799999237060547,208.6999969482422,22.600000381469727,209.6999969482422C23,210.39999389648438,24.200000762939453,211.89999389648438,24.100000381469727,212.5L24.100000381469727,212.5zM37.20000076293945,79.5999984741211C40.400001525878906,86.80000305175781,45.599998474121094,92.69999694824219,51.20000076293945,96.0999984741211C51.099998474121094,96,51,96,50.900001525878906,95.9000015258789C50.70000076293945,99.5999984741211,49.099998474121094,101.80000305175781,46.20000076293945,102.69999694824219C44,103.30000305175781,42.900001525878906,105.0999984741211,43.20000076293945,107.30000305175781C44.099998474121094,113.5,53.599998474121094,119.80000305175781,59.79999923706055,119.80000305175781C67.5999984741211,119.80000305175781,77.30000305175781,112.69999694824219,78,107.9000015258789C78.30000305175781,106.0999984741211,77.30000305175781,104.69999694824219,75.4000015258789,104.0999984741211C72.80000305175781,103.30000305175781,71.5999984741211,99.9000015258789,71,96.5999984741211C74.30000305175781,94.80000305175781,77.4000015258789,92.0999984741211,80.19999694824219,88.80000305175781C82.5,86,84.4000015258789,82.80000305175781,85.9000015258789,79.5C86.19999694824219,79.4000015258789,86.5,79.30000305175781,86.80000305175781,79.0999984741211C88.4000015258789,78.19999694824219,89.69999694824219,76.4000015258789,90.30000305175781,74.19999694824219C90.9000015258789,72,90.69999694824219,69.80000305175781,89.80000305175781,68.19999694824219C89.5999984741211,67.80000305175781,89.30000305175781,67.5,89,67.19999694824219C89,66.5,89.0999984741211,65.80000305175781,89.0999984741211,65C89.0999984741211,62.599998474121094,88.9000015258789,52.099998474121094,88.30000305175781,49.70000076293945C85.5999984741211,38,75.9000015258789,31.200000762939453,61.5,31.200000762939453S37.400001525878906,38,34.70000076293945,49.79999923706055C34.20000076293945,52.099998474121094,34,62.599998474121094,34,65C34,65.69999694824219,34,66.4000015258789,34.099998474121094,67.0999984741211C33.70000076293945,67.4000015258789,33.400001525878906,67.80000305175781,33.099998474121094,68.30000305175781C32.20000076293945,69.9000015258789,32,72.19999694824219,32.599998474121094,74.30000305175781C33.400001525878906,77,35.20000076293945,79,37.20000076293945,79.5999984741211zM74.69999694824219,106.5C75.5999984741211,106.80000305175781,75.5999984741211,107.19999694824219,75.5,107.5C75,110.5999984741211,66.9000015258789,117.30000305175781,59.79999923706055,117.30000305175781C53.400001525878906,117.30000305175781,46.29999923706055,110.69999694824219,45.70000076293945,106.9000015258789C45.599998474121094,105.9000015258789,45.900001525878906,105.4000015258789,46.900001525878906,105.0999984741211C51,103.9000015258789,52.70000076293945,100.80000305175781,53.20000076293945,97.19999694824219C53.099998474121094,97.19999694824219,53.099998474121094,97.0999984741211,53,97.0999984741211C55.79999923706055,98.5,58.70000076293945,99.30000305175781,61.5,99.30000305175781C63.80000305175781,99.30000305175781,66.30000305175781,98.80000305175781,68.69999694824219,97.69999694824219C69.5,101.5,71.0999984741211,105.4000015258789,74.69999694824219,106.5zM51.400001525878906,96.19999694824219C51.900001525878906,96.5,52.29999923706055,96.69999694824219,52.79999923706055,97C52.29999923706055,96.69999694824219,51.79999923706055,96.5,51.400001525878906,96.19999694824219zM69.9000015258789,97.19999694824219L69.9000015258789,97.19999694824219L69.9000015258789,97.19999694824219zM35.29999923706055,69.5C35.5,69.19999694824219,35.79999923706055,68.69999694824219,36.29999923706055,68.5999984741211C36.5,68.5999984741211,36.70000076293945,68.5999984741211,36.900001525878906,68.5999984741211C37.599998474121094,68.80000305175781,38.20000076293945,68.30000305175781,38.400001525878906,67.69999694824219C38.599998474121094,67,38.099998474121094,66.4000015258789,37.5,66.19999694824219C37.20000076293945,66.0999984741211,36.900001525878906,66.0999984741211,36.599998474121094,66.0999984741211C36.599998474121094,65.69999694824219,36.599998474121094,65.30000305175781,36.599998474121094,65C36.599998474121094,62.099998474121094,36.900001525878906,52.29999923706055,37.29999923706055,50.400001525878906C38.70000076293945,44.20000076293945,43.70000076293945,33.79999923706055,61.599998474121094,33.79999923706055C79.5,33.79999923706055,84.5,44.099998474121094,85.9000015258789,50.29999923706055C86.30000305175781,52.20000076293945,86.5999984741211,62.099998474121094,86.5999984741211,65C86.5999984741211,65.4000015258789,86.5999984741211,65.69999694824219,86.5999984741211,66.0999984741211C86,66.0999984741211,85.4000015258789,66.0999984741211,84.9000015258789,66.30000305175781C84.30000305175781,66.5,83.9000015258789,67.30000305175781,84.19999694824219,67.9000015258789C84.4000015258789,68.5,85.19999694824219,68.9000015258789,85.80000305175781,68.5999984741211C86.0999984741211,68.5,86.4000015258789,68.5,86.80000305175781,68.5C87.30000305175781,68.5999984741211,87.5999984741211,69,87.80000305175781,69.4000015258789C88.4000015258789,70.4000015258789,88.5,72,88.0999984741211,73.5C87.69999694824219,75,86.80000305175781,76.30000305175781,85.80000305175781,76.9000015258789C85.5,77.0999984741211,85,77.30000305175781,84.5,77.0999984741211C83.80000305175781,76.9000015258789,83.0999984741211,77.30000305175781,83,78C82.80000305175781,78.5,83.0999984741211,79.0999984741211,83.5,79.4000015258789C78.69999694824219,89.5999984741211,69.5999984741211,96.80000305175781,61.79999923706055,96.80000305175781C52.900001525878906,96.80000305175781,44.70000076293945,88.80000305175781,40.20000076293945,79.30000305175781C40.5,79,40.599998474121094,78.5999984741211,40.5,78.0999984741211C40.400001525878906,77.5,39.79999923706055,77.19999694824219,39.29999923706055,77.19999694824219C39.099998474121094,77.19999694824219,39.099998474121094,77.19999694824219,39.099998474121094,77.19999694824219L39,77.19999694824219C37.599998474121094,77.5,35.900001525878906,75.9000015258789,35.20000076293945,73.5999984741211C34.599998474121094,72.0999984741211,34.70000076293945,70.5999984741211,35.29999923706055,69.5z"/>
<path id="NoseMouth" d="M64.19999694824219,80.19999694824219C63.69999694824219,80.19999694824219,63.30000305175781,80.0999984741211,62.900001525878906,80C62.5,79.9000015258789,62.30000305175781,79.4000015258789,62.5,79C62.599998474121094,78.5999984741211,63.099998474121094,78.4000015258789,63.5,78.5999984741211C64,78.80000305175781,65,78.80000305175781,65.80000305175781,78.19999694824219C66.30000305175781,77.80000305175781,66.5999984741211,77.30000305175781,66.5999984741211,76.5C66.5999984741211,76,66.4000015258789,75.80000305175781,66.19999694824219,75.5999984741211C65.5,75,63.69999694824219,75.0999984741211,63.099998474121094,75.19999694824219C62.69999694824219,75.30000305175781,62.30000305175781,75,62.19999694824219,74.5999984741211C62.099998474121094,74.19999694824219,62.400001525878906,73.80000305175781,62.80000305175781,73.69999694824219C63.099998474121094,73.5999984741211,65.69999694824219,73.19999694824219,67.0999984741211,74.4000015258789C67.69999694824219,74.9000015258789,68,75.5999984741211,68,76.4000015258789C68,78,67.19999694824219,78.9000015258789,66.5,79.30000305175781C65.9000015258789,80,65,80.19999694824219,64.19999694824219,80.19999694824219zM66.69999694824219,86.80000305175781C67.0999984741211,86.69999694824219,67.30000305175781,86.30000305175781,67.19999694824219,85.9000015258789C67.0999984741211,85.5,66.69999694824219,85.19999694824219,66.30000305175781,85.30000305175781C66.19999694824219,85.30000305175781,59.79999923706055,86.80000305175781,55.599998474121094,83.5999984741211C55.29999923706055,83.4000015258789,54.79999923706055,83.4000015258789,54.5,83.69999694824219C54.29999923706055,84,54.29999923706055,84.5,54.599998474121094,84.80000305175781C57.099998474121094,86.69999694824219,60.099998474121094,87.0999984741211,62.5,87.0999984741211C64.9000015258789,87.19999694824219,66.5,86.80000305175781,66.69999694824219,86.80000305175781z"/>
<path id="EyesWhite" fill="#FFFFFF" d="M57.20000076293945,69.4000015258789C57,70.9000015258789,55.20000076293945,72.5999984741211,52.29999923706055,72.5999984741211C49.400001525878906,72.5999984741211,46.400001525878906,70.80000305175781,46.400001525878906,68.5999984741211C46.400001525878906,66.80000305175781,48.79999923706055,65.4000015258789,51.79999923706055,65.4000015258789S57.400001525878906,67.5999984741211,57.20000076293945,69.4000015258789zM67.69999694824219,69.4000015258789C67.9000015258789,70.9000015258789,69.69999694824219,72.5999984741211,72.5999984741211,72.5999984741211C75.5,72.5999984741211,78.5,70.80000305175781,78.5,68.5999984741211C78.5,66.80000305175781,76.0999984741211,65.4000015258789,73.0999984741211,65.4000015258789S67.5,67.5999984741211,67.69999694824219,69.4000015258789z"/>
<path id="Eyes" d="M49.5,68.80000305175781C49.5,70.5,50.79999923706055,71.80000305175781,52.5,71.80000305175781C54.20000076293945,71.80000305175781,55.5,70.5,55.5,68.80000305175781C55.5,67.0999984741211,54.20000076293945,65.80000305175781,52.5,65.80000305175781S49.5,67.19999694824219,49.5,68.80000305175781zM75.5,68.80000305175781C75.5,70.5,74.19999694824219,71.80000305175781,72.5,71.80000305175781C70.80000305175781,71.80000305175781,69.5,70.5,69.5,68.80000305175781C69.5,67.0999984741211,70.80000305175781,65.80000305175781,72.5,65.80000305175781S75.5,67.19999694824219,75.5,68.80000305175781z"/>
<path id="EyeBrows" d="M57.099998474121094,70.5999984741211C56.70000076293945,70.5999984741211,56.29999923706055,70.30000305175781,56.29999923706055,69.80000305175781C56.29999923706055,68,54.29999923706055,66.5,51.79999923706055,66.5C49.599998474121094,66.5,47.20000076293945,67.4000015258789,47.20000076293945,69.4000015258789C47.20000076293945,69.80000305175781,46.900001525878906,70.19999694824219,46.400001525878906,70.19999694824219C45.900001525878906,70.19999694824219,45.599998474121094,69.9000015258789,45.599998474121094,69.4000015258789C45.599998474121094,66.80000305175781,48.099998474121094,65,51.70000076293945,65C55,65,57.70000076293945,67.19999694824219,57.70000076293945,69.80000305175781C57.79999923706055,70.19999694824219,57.5,70.5999984741211,57.099998474121094,70.5999984741211zM68.69999694824219,69.80000305175781C68.69999694824219,68,70.69999694824219,66.5,73.30000305175781,66.5C75.5,66.5,77.9000015258789,67.4000015258789,77.9000015258789,69.4000015258789C77.9000015258789,69.80000305175781,78.19999694824219,70.19999694824219,78.69999694824219,70.19999694824219C79.19999694824219,70.19999694824219,79.5,69.9000015258789,79.5,69.4000015258789C79.5,66.80000305175781,77,65,73.4000015258789,65C70.0999984741211,65,67.30000305175781,67.19999694824219,67.30000305175781,69.80000305175781C67.30000305175781,70.19999694824219,67.5999984741211,70.5999984741211,68.0999984741211,70.5999984741211S68.69999694824219,70.19999694824219,68.69999694824219,69.80000305175781z"/>
<path id="Skirt" fill="#6B3AA5" d="M89.5,200.5C86.5,184.89999389648438,82.19999694824219,171.6999969482422,81.5,171.8000030517578C74.30000305175781,175.3000030517578,66.5,177.1999969482422,58.5,177.3000030517578C45.099998474121094,177.3000030517578,36.5,166.89999389648438,36.5,166.89999389648438C35.400001525878906,167.8000030517578,31.099998474121094,178.8000030517578,30.299999237060547,182.89999389648438C30,184.5,28.5,191.1999969482422,26.700000762939453,198.8000030517578C27.5,201.60000610351562,28,205,26.299999237060547,205.89999389648438C25.799999237060547,206.10000610351562,25.399999618530273,206.3000030517578,25,206.3000030517578C24.799999237060547,207,24.700000762939453,207.8000030517578,24.5,208.5C25.700000762939453,209.89999389648438,26.600000381469727,211.3000030517578,26.5,212.8000030517578C26.399999618530273,213.5,26,214.10000610351562,25.299999237060547,214.39999389648438C25,214.6999969482422,24.5,214.89999389648438,23.799999237060547,214.89999389648438C23.600000381469727,214.89999389648438,23.399999618530273,214.89999389648438,23.100000381469727,214.8000030517578C21.899999618530273,220.3000030517578,21,224.39999389648438,21.100000381469727,224.8000030517578C21.200000762939453,225.89999389648438,29.600000381469727,233.1999969482422,39.5,234.39999389648438C44.400001525878906,235,49.29999923706055,235.39999389648438,54.29999923706055,235.39999389648438L56.70000076293945,231.6999969482422C56.70000076293945,231.6999969482422,59.099998474121094,234.10000610351562,68.19999694824219,234.5C77.30000305175781,235,84.9000015258789,234.39999389648438,88.5999984741211,233.3000030517578C92.30000305175781,232.1999969482422,94.0999984741211,231.39999389648438,94.4000015258789,230.8000030517578S92.5,216.10000610351562,89.5,200.5z"/>
<path id="SkirtBorder" d="M23.600000381469727,207.1999969482422C23.700000762939453,206.89999389648438,23.799999237060547,206.5,23.799999237060547,206.10000610351562C24.5,206.39999389648438,25.399999618530273,206.3000030517578,26.299999237060547,205.8000030517578C26.299999237060547,205.8000030517578,26.399999618530273,205.6999969482422,26.399999618530273,205.6999969482422C26.100000381469727,207,25.799999237060547,208.39999389648438,25.5,209.6999969482422C25.100000381469727,209.10000610351562,24.600000381469727,208.60000610351562,24.200000762939453,208C24.100000381469727,207.8000030517578,23.899999618530273,207.5,23.600000381469727,207.1999969482422zM95.5,231.39999389648438C95,232.1999969482422,93.9000015258789,233,88.9000015258789,234.39999389648438C84.69999694824219,235.6999969482422,76.80000305175781,236.1999969482422,68.0999984741211,235.6999969482422C61.900001525878906,235.39999389648438,58.70000076293945,234.1999969482422,57.099998474121094,233.3000030517578L55.400001525878906,236C55.20000076293945,236.39999389648438,54.79999923706055,236.60000610351562,54.29999923706055,236.60000610351562C54.29999923706055,236.60000610351562,54.29999923706055,236.60000610351562,54.29999923706055,236.60000610351562C49.29999923706055,236.60000610351562,44.29999923706055,236.1999969482422,39.400001525878906,235.60000610351562C29.399999618530273,234.5,20.200000762939453,227,20,224.89999389648438C20,224.5,20.299999237060547,222.39999389648438,22.100000381469727,214.39999389648438C22.399999618530273,214.5,22.600000381469727,214.60000610351562,22.799999237060547,214.6999969482422C23.200000762939453,214.8000030517578,23.5,214.89999389648438,23.899999618530273,214.89999389648438C24.100000381469727,214.89999389648438,24.299999237060547,214.89999389648438,24.5,214.8000030517578C23.399999618530273,219.60000610351562,22.600000381469727,223.39999389648438,22.5,224.5C23.600000381469727,226,31.099998474121094,232.10000610351562,39.70000076293945,233.10000610351562C44.29999923706055,233.6999969482422,49,234,53.70000076293945,234.10000610351562L55.099998474121094,231.89999389648438C55.099998474121094,231.89999389648438,55.099998474121094,231.8000030517578,55.099998474121094,231.8000030517578C58.29999923706055,225.3000030517578,74.5999984741211,184.60000610351562,78.4000015258789,174.39999389648438C72.0999984741211,176.89999389648438,65.30000305175781,178.3000030517578,58.5,178.3000030517578C58.5,178.3000030517578,58.5,178.3000030517578,58.400001525878906,178.3000030517578C47.29999923706055,178.3000030517578,39.5,171.60000610351562,36.70000076293945,168.6999969482422C35.20000076293945,171.6999969482422,32.29999923706055,179.39999389648438,31.5,182.89999389648438C31.200000762939453,184.1999969482422,30.200000762939453,188.89999389648438,28.899999618530273,194.8000030517578C28.399999618530273,196.8000030517578,27.899999618530273,199.10000610351562,27.399999618530273,201.5C27.200000762939453,199.8000030517578,26.600000381469727,197.89999389648438,26,196.60000610351562C26,196.5,26,196.5,25.899999618530273,196.39999389648438C26.100000381469727,195.6999969482422,26.200000762939453,195,26.399999618530273,194.3000030517578C27.700000762939453,188.39999389648438,28.799999237060547,183.6999969482422,29,182.39999389648438C29.700000762939453,178.89999389648438,34.099998474121094,167,35.599998474121094,165.6999969482422C36.099998474121094,165.3000030517578,36.900001525878906,165.3000030517578,37.29999923706055,165.89999389648438C37.400001525878906,166,45.70000076293945,175.8000030517578,58.20000076293945,175.8000030517578C58.20000076293945,175.8000030517578,58.20000076293945,175.8000030517578,58.29999923706055,175.8000030517578C66,175.6999969482422,73.80000305175781,173.89999389648438,80.80000305175781,170.5C80.9000015258789,170.39999389648438,81,170.39999389648438,81.0999984741211,170.39999389648438C82.19999694824219,170.1999969482422,82.80000305175781,170.10000610351562,85.5999984741211,179.6999969482422C86.69999694824219,183.3000030517578,88.69999694824219,190.8000030517578,90.5,200.10000610351562C92.0999984741211,207.1999969482422,96.4000015258789,229.89999389648438,95.5,231.39999389648438zM93.19999694824219,230.1999969482422C93.0999984741211,227.89999389648438,91.30000305175781,216.39999389648438,88.30000305175781,200.6999969482422C85.9000015258789,188.3000030517578,82.69999694824219,177.60000610351562,81.30000305175781,173.89999389648438C78.9000015258789,180.6999969482422,63.19999694824219,220.10000610351562,58.20000076293945,231.10000610351562C59.29999923706055,231.6999969482422,62.19999694824219,232.89999389648438,68.30000305175781,233.1999969482422C76.5999984741211,233.60000610351562,84.4000015258789,233.1999969482422,88.19999694824219,232C91.5,231,92.80000305175781,230.5,93.19999694824219,230.1999969482422z"/>
<path id="Shirt" fill="#D2FFFF" d="M45.900001525878906,102.5C41.5,102.9000015258789,34.79999923706055,104.30000305175781,31.099998474121094,107.4000015258789C27.399999618530273,110.5,24.5,116.4000015258789,24.5,116.4000015258789C24.5,116.4000015258789,36.20000076293945,125.69999694824219,37,128.89999389648438C37.79999923706055,132.10000610351562,37.099998474121094,150.1999969482422,37.099998474121094,154.5C37.099998474121094,158.8000030517578,36.599998474121094,168.8000030517578,37,169.3000030517578C37.400001525878906,169.8000030517578,42.400001525878906,176.8000030517578,57.900001525878906,176.8000030517578C73.4000015258789,176.8000030517578,80.30000305175781,173.60000610351562,80.80000305175781,172C81.30000305175781,170.39999389648438,81,162.10000610351562,81.19999694824219,158.1999969482422C81.4000015258789,154.3000030517578,82.19999694824219,131.3000030517578,82.5999984741211,128.6999969482422C83,126.0999984741211,86.0999984741211,121,88.30000305175781,118.0999984741211C89.80000305175781,116.19999694824219,91.5,114.4000015258789,93.30000305175781,112.69999694824219C89.0999984741211,107.5,83,104.19999694824219,76.30000305175781,103.5999984741211C74.5999984741211,103.9000015258789,60.20000076293945,114.80000305175781,60.20000076293945,114.80000305175781L45.900001525878906,102.5z"/>
<path id="ShirtBorder" d="M94.0999984741211,112C89.69999694824219,106.5,83.19999694824219,103,76.19999694824219,102.4000015258789C76.0999984741211,102.4000015258789,76,102.4000015258789,75.9000015258789,102.4000015258789C74.30000305175781,102.69999694824219,65.5999984741211,109.0999984741211,60.099998474121094,113.19999694824219L46.70000076293945,101.5C46.400001525878906,101.30000305175781,46.099998474121094,101.19999694824219,45.79999923706055,101.19999694824219C42.599998474121094,101.5,34.79999923706055,102.69999694824219,30.299999237060547,106.4000015258789C26.399999618530273,109.69999694824219,23.5,115.5999984741211,23.299999237060547,115.80000305175781C23,116.30000305175781,23.200000762939453,117,23.600000381469727,117.30000305175781C28.299999237060547,121.0999984741211,35.20000076293945,127.19999694824219,35.599998474121094,129.10000610351562C36.099998474121094,131.3000030517578,35.900001525878906,142.3000030517578,35.70000076293945,148.89999389648438C35.599998474121094,151.3000030517578,35.599998474121094,153.3000030517578,35.599998474121094,154.39999389648438C35.599998474121094,155.8000030517578,35.5,157.8000030517578,35.5,160C35.20000076293945,169.10000610351562,35.400001525878906,169.5,35.900001525878906,170.10000610351562L36,170.1999969482422C38.5,173.10000610351562,44.5,178,57.70000076293945,178C72.4000015258789,178,81,175.1999969482422,81.80000305175781,172.39999389648438C82.0999984741211,171.3000030517578,82.19999694824219,168.3000030517578,82.19999694824219,163.60000610351562C82.19999694824219,161.60000610351562,82.19999694824219,159.6999969482422,82.30000305175781,158.3000030517578L82.4000015258789,155.39999389648438C82.69999694824219,148.10000610351562,83.30000305175781,131.10000610351562,83.5999984741211,129C83.9000015258789,126.9000015258789,86.69999694824219,122,89,119C90.5,117.0999984741211,92.0999984741211,115.4000015258789,93.9000015258789,113.69999694824219C94.5,113.19999694824219,94.5999984741211,112.5,94.0999984741211,112zM87.19999694824219,117.4000015258789C86.0999984741211,118.80000305175781,84.69999694824219,120.9000015258789,83.5,123.0999984741211C83.5999984741211,121.80000305175781,83.69999694824219,120.5999984741211,83.9000015258789,119.69999694824219C84,119.19999694824219,83.69999694824219,118.5999984741211,83.0999984741211,118.5C82.5999984741211,118.4000015258789,82,118.69999694824219,81.9000015258789,119.30000305175781C81.4000015258789,121.5999984741211,81.4000015258789,125.80000305175781,81.5,127.69999694824219C81.4000015258789,128,81.30000305175781,128.3000030517578,81.30000305175781,128.60000610351562C81,130.5,80.5,143.1999969482422,80,155.1999969482422L79.9000015258789,158.10000610351562C79.80000305175781,159.5,79.80000305175781,161.5,79.80000305175781,163.5C79.80000305175781,166.60000610351562,79.80000305175781,170.8000030517578,79.5,171.5C78.9000015258789,172.60000610351562,72.5,175.39999389648438,57.70000076293945,175.39999389648438C45.599998474121094,175.39999389648438,40.099998474121094,171.10000610351562,37.900001525878906,168.5C37.79999923706055,167.39999389648438,37.900001525878906,163,38,160C38.099998474121094,157.8000030517578,38.099998474121094,155.8000030517578,38.099998474121094,154.3000030517578C38.099998474121094,153.1999969482422,38.099998474121094,151.1999969482422,38.20000076293945,148.8000030517578C38.400001525878906,139.39999389648438,38.599998474121094,130.6999969482422,38,128.39999389648438C37.900001525878906,128.10000610351562,37.79999923706055,127.69999694824219,37.5,127.4000015258789C37.20000076293945,124.80000305175781,36.79999923706055,122.19999694824219,36.29999923706055,119.69999694824219C36.20000076293945,119.19999694824219,35.599998474121094,118.80000305175781,35.099998474121094,118.9000015258789C34.599998474121094,119,34.20000076293945,119.5999984741211,34.29999923706055,120.0999984741211C34.599998474121094,121.5,34.900001525878906,122.9000015258789,35.099998474121094,124.19999694824219C32.20000076293945,121.0999984741211,27.899999618530273,117.5,25.899999618530273,115.9000015258789C26.799999237060547,114.19999694824219,29.100000381469727,110.4000015258789,31.700000762939453,108.19999694824219C35.400001525878906,105.0999984741211,42.099998474121094,104,45.29999923706055,103.5999984741211L59,115.5999984741211C59.400001525878906,116,60.099998474121094,116,60.599998474121094,115.69999694824219C67.19999694824219,110.69999694824219,74.69999694824219,105.4000015258789,76.0999984741211,104.69999694824219C81.9000015258789,105.30000305175781,87.4000015258789,108,91.30000305175781,112.4000015258789C89.9000015258789,114.0999984741211,88.5,115.69999694824219,87.19999694824219,117.4000015258789z"/>
<path id="Hair" fill="#FF941F" d="M62.30000305175781,31C56.400001525878906,31,51.599998474121094,32,47.79999923706055,33.70000076293945L49.20000076293945,32.79999923706055C49.20000076293945,32.79999923706055,49.70000076293945,32.599998474121094,52.099998474121094,26.600000381469727C54.5,20.600000381469727,48.5,11.5,37.29999923706055,12.300000190734863C10.600000381469727,15.699999809265137,28.600000381469727,43.70000076293945,18.399999618530273,46.20000076293945C15.799999237060547,46.70000076293945,13.199999809265137,45.29999923706055,12.199999809265137,42.900001525878906C12.199999809265137,42.900001525878906,14.200000762939453,50,22.5,47.099998474121094C30.799999237060547,44.20000076293945,30.400001525878906,33.099998474121094,40.099998474121094,38.79999923706055L41.900001525878906,37.70000076293945C29.5,48.900001525878906,33.79999923706055,70.30000305175781,33.79999923706055,70.30000305175781C33.79999923706055,70.30000305175781,44.20000076293945,69.0999984741211,58.79999923706055,62.5C73.4000015258789,55.79999923706055,73.4000015258789,44.70000076293945,73.4000015258789,44.70000076293945C73.9000015258789,49.900001525878906,75.9000015258789,54.79999923706055,79.0999984741211,59C84.5,66,88.19999694824219,68.9000015258789,88.19999694824219,68.9000015258789S97.69999694824219,33.5,62.30000305175781,31z"/>
<path id="HairBorder" d="M85.5,40.79999923706055C80.80000305175781,34.20000076293945,73,30.5,62.30000305175781,29.700000762939453C62.19999694824219,29.700000762939453,62.19999694824219,29.700000762939453,62.099998474121094,29.700000762939453C58.29999923706055,29.700000762939453,54.79999923706055,30.100000381469727,51.599998474121094,31C52,30,52.599998474121094,28.700000762939453,53.29999923706055,27C54.5,23.899999618530273,53.900001525878906,20.200000762939453,51.599998474121094,17C48.5,12.800000190734863,43.20000076293945,10.600000381469727,37.099998474121094,11C19.5,13.199999809265137,20.100000381469727,25.799999237060547,20.5,34.900001525878906C20.799999237060547,40.70000076293945,20.799999237060547,44.20000076293945,18.100000381469727,44.900001525878906C16.100000381469727,45.29999923706055,14.100000381469727,44.20000076293945,13.300000190734863,42.29999923706055C13,41.70000076293945,12.399999618530273,41.400001525878906,11.699999809265137,41.599998474121094C11.100000381469727,41.79999923706055,10.699999809265137,42.5,10.899999618530273,43.099998474121094C10.899999618530273,43.20000076293945,11.899999618530273,46.400001525878906,14.899999618530273,48C16,48.599998474121094,17.299999237060547,48.900001525878906,18.600000381469727,48.900001525878906C19.899999618530273,48.900001525878906,21.299999237060547,48.599998474121094,22.799999237060547,48.099998474121094C26.399999618530273,46.79999923706055,28.399999618530273,44.29999923706055,30.200000762939453,42C32.70000076293945,38.900001525878906,34.099998474121094,37.099998474121094,38.29999923706055,39.20000076293945C28.600000381469727,51.099998474121094,32.099998474121094,69.5,32.29999923706055,70.30000305175781C32.400001525878906,70.9000015258789,32.900001525878906,71.30000305175781,33.5,71.30000305175781L33.599998474121094,71.30000305175781C34,71.30000305175781,44.400001525878906,70,59,63.29999923706055C67.5,59.400001525878906,71.30000305175781,54.099998474121094,73,50.099998474121094C74,53.5,75.69999694824219,56.599998474121094,77.80000305175781,59.400001525878906C83.30000305175781,66.4000015258789,87,69.4000015258789,87.0999984741211,69.5C87.4000015258789,69.80000305175781,87.9000015258789,69.80000305175781,88.30000305175781,69.69999694824219C88.69999694824219,69.5999984741211,89,69.19999694824219,89.0999984741211,68.80000305175781C89.5999984741211,68.30000305175781,93.69999694824219,52.400001525878906,85.5,40.79999923706055zM28.5,40.5C26.799999237060547,42.599998474121094,25.100000381469727,44.79999923706055,22.200000762939453,45.79999923706055C21.899999618530273,45.900001525878906,21.5,46,21.200000762939453,46.099998474121094C23.600000381469727,43.900001525878906,23.399999618530273,39.400001525878906,23.200000762939453,34.79999923706055C22.799999237060547,25.700000762939453,22.200000762939453,15.399999618530273,37.5,13.5C42.70000076293945,13.100000381469727,47.099998474121094,15,49.70000076293945,18.5C51.5,20.899999618530273,52,23.799999237060547,51.099998474121094,26.100000381469727C49.20000076293945,31,48.5,31.799999237060547,48.5,31.899999618530273C48.5,31.899999618530273,48.599998474121094,31.700000762939453,48.900001525878906,31.600000381469727L49,31.899999618530273C45.70000076293945,33.20000076293945,42.79999923706055,35,40.400001525878906,37.400001525878906C33.900001525878906,33.79999923706055,31.099998474121094,37.20000076293945,28.5,40.5zM87.4000015258789,66.30000305175781C85.9000015258789,64.80000305175781,83.19999694824219,62.099998474121094,80,58C76.9000015258789,54.099998474121094,75,49.29999923706055,74.5,44.400001525878906C74.4000015258789,43.70000076293945,73.9000015258789,43.20000076293945,73.19999694824219,43.29999923706055C72.5,43.29999923706055,72,43.900001525878906,72,44.5C72,44.900001525878906,71.80000305175781,54.900001525878906,58.099998474121094,61.099998474121094C46.70000076293945,66.30000305175781,37.79999923706055,68.0999984741211,34.70000076293945,68.69999694824219C34.099998474121094,64.5,32.79999923706055,50.099998474121094,40.400001525878906,40.79999923706055C45.099998474121094,35.099998474121094,52.400001525878906,32.20000076293945,61.900001525878906,32.20000076293945L62,32.20000076293945C71.9000015258789,32.900001525878906,79,36.29999923706055,83.30000305175781,42.20000076293945C89.4000015258789,50.5,88.19999694824219,61.70000076293945,87.4000015258789,66.30000305175781z"/>
<path id="Shoes" fill="#FF73CD" d="M93.4000015258789,298.29998779296875C93,295.70001220703125,89,292.8999938964844,86.19999694824219,291.1000061035156C85.5,290.6000061035156,84.5,290.1000061035156,83.4000015258789,289.3999938964844C84.30000305175781,291.1000061035156,84.5999984741211,292.8999938964844,83.0999984741211,294.29998779296875C80.0999984741211,296.8999938964844,69.19999694824219,290.79998779296875,64.0999984741211,286.1000061035156C63.400001525878906,288.70001220703125,62.69999694824219,291.29998779296875,63.099998474121094,292.8999938964844C63.69999694824219,295.5,72.0999984741211,298.70001220703125,73.5999984741211,300.20001220703125C75.0999984741211,301.70001220703125,82.5,306.3999938964844,87.5,305.20001220703125S93.80000305175781,301,93.4000015258789,298.29998779296875zM37.70000076293945,295.20001220703125C36.599998474121094,294.29998779296875,36,292.79998779296875,36.29999923706055,291.29998779296875C33.79999923706055,293,27.200000762939453,295.6000061035156,25.799999237060547,299.1000061035156C24.100000381469727,303.5,31.299999237060547,307,35.70000076293945,306.1000061035156C40.099998474121094,305.20001220703125,44.79999923706055,301.29998779296875,48.099998474121094,300.5C51.400001525878906,299.70001220703125,55,296.8999938964844,55.099998474121094,294.1000061035156C55.20000076293945,292.29998779296875,54.20000076293945,289.8999938964844,53.5,288.1000061035156C49.5,291.79998779296875,40.79999923706055,297.5,37.70000076293945,295.20001220703125z"/>
<path id="ShoesBorder" d="M85.5999984741211,306.6000061035156C80.30000305175781,306.6000061035156,74.0999984741211,302.6000061035156,72.5999984741211,301C72.19999694824219,300.6000061035156,70.69999694824219,299.79998779296875,69.30000305175781,299C65.19999694824219,296.79998779296875,62.30000305175781,295.1000061035156,61.79999923706055,293.1000061035156C61.400001525878906,291.3999938964844,62,289,62.69999694824219,286.3999938964844L62.900001525878906,285.70001220703125C63,285.29998779296875,63.30000305175781,284.8999938964844,63.80000305175781,284.79998779296875C64.19999694824219,284.70001220703125,64.69999694824219,284.79998779296875,65,285.1000061035156C70.69999694824219,290.29998779296875,80.4000015258789,294.8999938964844,82.30000305175781,293.29998779296875C82.5999984741211,293,83.5,292.29998779296875,82.30000305175781,290C82,289.5,82.0999984741211,288.8999938964844,82.5,288.5C82.9000015258789,288.1000061035156,83.5,288,84,288.29998779296875L84.69999694824219,288.70001220703125C85.5,289.20001220703125,86.30000305175781,289.6000061035156,86.9000015258789,290C90.4000015258789,292.29998779296875,94.0999984741211,295,94.5999984741211,298L94.5999984741211,298C95.0999984741211,301.1000061035156,93.5,304.79998779296875,87.69999694824219,306.29998779296875C87,306.6000061035156,86.4000015258789,306.6000061035156,85.5999984741211,306.6000061035156zM64.80000305175781,288.3999938964844C64.4000015258789,290.1000061035156,64,291.70001220703125,64.30000305175781,292.6000061035156C64.5999984741211,293.70001220703125,68.5999984741211,295.8999938964844,70.5,296.8999938964844C72.5,298,73.80000305175781,298.70001220703125,74.4000015258789,299.29998779296875C75.5999984741211,300.5,82.69999694824219,305,87.0999984741211,304C90.69999694824219,303.1000061035156,92.5,301.1000061035156,92.0999984741211,298.5C91.69999694824219,296.3999938964844,87.30000305175781,293.3999938964844,85.5,292.20001220703125C85.5,292.20001220703125,85.4000015258789,292.1000061035156,85.30000305175781,292.1000061035156C85.30000305175781,293.70001220703125,84.5,294.70001220703125,83.80000305175781,295.29998779296875C80.30000305175781,298.29998779296875,70.30000305175781,292.79998779296875,64.80000305175781,288.3999938964844zM34.20000076293945,307.6000061035156C31.099998474121094,307.6000061035156,27.600000381469727,306.20001220703125,25.700000762939453,304C24.299999237060547,302.3999938964844,24,300.6000061035156,24.600000381469727,298.79998779296875C25.700000762939453,295.79998779296875,29.700000762939453,293.6000061035156,33,291.79998779296875C34,291.29998779296875,34.900001525878906,290.70001220703125,35.599998474121094,290.29998779296875C36,290,36.599998474121094,290,37,290.29998779296875C37.400001525878906,290.6000061035156,37.599998474121094,291.1000061035156,37.5,291.6000061035156C37.29999923706055,292.6000061035156,37.70000076293945,293.6000061035156,38.400001525878906,294.29998779296875C40.29999923706055,295.70001220703125,47.70000076293945,291.70001220703125,52.70000076293945,287.20001220703125C53,286.8999938964844,53.400001525878906,286.79998779296875,53.79999923706055,286.8999938964844C54.20000076293945,287,54.5,287.29998779296875,54.70000076293945,287.70001220703125L54.900001525878906,288.3999938964844C55.599998474121094,290.20001220703125,56.400001525878906,292.3999938964844,56.29999923706055,294.29998779296875C56.20000076293945,297.79998779296875,52.20000076293945,300.8999938964844,48.400001525878906,301.8999938964844C47.099998474121094,302.20001220703125,45.29999923706055,303.20001220703125,43.5,304.20001220703125C41.20000076293945,305.5,38.5,307,35.900001525878906,307.5C35.5,307.5,34.900001525878906,307.6000061035156,34.20000076293945,307.6000061035156zM35.20000076293945,293.5C34.900001525878906,293.70001220703125,34.599998474121094,293.79998779296875,34.29999923706055,294C31.599998474121094,295.5,27.899999618530273,297.5,27.100000381469727,299.6000061035156C26.700000762939453,300.5,27,301.3999938964844,27.700000762939453,302.29998779296875C29.299999237060547,304.20001220703125,33.099998474121094,305.3999938964844,35.5,304.8999938964844C37.70000076293945,304.3999938964844,40.099998474121094,303.1000061035156,42.400001525878906,301.8999938964844C44.400001525878906,300.79998779296875,46.20000076293945,299.79998779296875,47.900001525878906,299.3999938964844C51.099998474121094,298.6000061035156,53.900001525878906,296.1000061035156,54,294.1000061035156C54.099998474121094,293,53.599998474121094,291.5,53.099998474121094,290.20001220703125C48.900001525878906,293.6000061035156,40.599998474121094,299,37,296.20001220703125L37,296.20001220703125C36.099998474121094,295.3999938964844,35.5,294.5,35.20000076293945,293.5z"/>
</g>
</svg>