<svg xmlns="http://www.w3.org/2000/svg" xmlns:xlink="http://www.w3.org/1999/xlink" viewBox= "0 0 162 386" width="162px" height="386px">
<g xmlns="http://www.w3.org/2000/svg" id="GrandfatherV2.svg">
<path id="Body" fill="#BF8C5C" d="M82.0999984741211,126.80000305175781C55.29999923706055,126.80000305175781,54,111.69999694824219,60.900001525878906,107.5999984741211C65.80000305175781,104.69999694824219,68.19999694824219,99.0999984741211,69.0999984741211,93.30000305175781C62.400001525878906,89.0999984741211,56,82.0999984741211,52.599998474121094,72.30000305175781C52.099998474121094,72.5,51.599998474121094,72.5999984741211,50.900001525878906,72.69999694824219C47.20000076293945,73.19999694824219,42.900001525878906,56.400001525878906,45.20000076293945,53.79999923706055C46.5,52.400001525878906,48.29999923706055,52.29999923706055,50.099998474121094,53C50.29999923706055,48.099998474121094,50.70000076293945,40.900001525878906,51.29999923706055,38.099998474121094C55.29999923706055,20.799999237060547,68.19999694824219,12.200000762939453,83.5,12.200000762939453C99.30000305175781,12.200000762939453,112.5999984741211,21.600000381469727,116.0999984741211,39.70000076293945C116.5999984741211,42.099998474121094,116.9000015258789,48.900001525878906,117,53.400001525878906C119.0999984741211,52.29999923706055,121.19999694824219,52.099998474121094,122.69999694824219,53.79999923706055C125,56.400001525878906,120.69999694824219,73.19999694824219,117,72.69999694824219C115.80000305175781,72.5,114.9000015258789,72.0999984741211,114.19999694824219,71.69999694824219C110.5999984741211,81.19999694824219,103.9000015258789,88.69999694824219,97.0999984741211,93.19999694824219C98.30000305175781,99.4000015258789,102.19999694824219,105.9000015258789,107,109.19999694824219C113.30000305175781,113.5999984741211,108.9000015258789,126.80000305175781,82.0999984741211,126.80000305175781zM138.10000610351562,149.8000030517578L113.80000305175781,149.60000610351562L120.5999984741211,235.89999389648438C126.80000305175781,224.89999389648438,131.8000030517578,213.10000610351562,135.5,201C141,182.1999969482422,139.3000030517578,158.5,138.10000610351562,149.8000030517578zM30.799999237060547,227.60000610351562C33.900001525878906,233.39999389648438,43.79999923706055,150.39999389648438,43.79999923706055,150.39999389648438L19.200000762939453,156.39999389648438C20,174.5,27.799999237060547,221.6999969482422,30.799999237060547,227.60000610351562z"/>
<path id="BodyBorder" d="M123.9000015258789,52.900001525878906C122.9000015258789,51.79999923706055,121.5999984741211,51.20000076293945,120.0999984741211,51.099998474121094C119.5999984741211,51.099998474121094,119,51.20000076293945,118.5,51.29999923706055C118.4000015258789,47,118.0999984741211,41.79999923706055,117.69999694824219,39.599998474121094C114.30000305175781,21.799999237060547,101.19999694824219,10.700000762939453,83.5,10.700000762939453C66.19999694824219,10.700000762939453,53.599998474121094,20.899999618530273,49.70000076293945,37.900001525878906C49.099998474121094,40.400001525878906,48.70000076293945,46.29999923706055,48.5,51.099998474121094C48.20000076293945,51.099998474121094,48,51.099998474121094,47.79999923706055,51.099998474121094C46.29999923706055,51.099998474121094,45,51.79999923706055,44,52.900001525878906C42.79999923706055,54.20000076293945,42.599998474121094,57,43.400001525878906,61.19999694824219C44,64.69999694824219,45.20000076293945,68.4000015258789,46.5,70.80000305175781C47.79999923706055,73.19999694824219,49.20000076293945,74.4000015258789,50.70000076293945,74.4000015258789C50.79999923706055,74.4000015258789,51,74.4000015258789,51.099998474121094,74.4000015258789C51.29999923706055,74.4000015258789,51.400001525878906,74.30000305175781,51.599998474121094,74.30000305175781C55,83.19999694824219,60.900001525878906,89.9000015258789,67.30000305175781,94.19999694824219C66.9000015258789,96.4000015258789,66.19999694824219,98.5999984741211,65.0999984741211,100.69999694824219L67.4000015258789,103.19999694824219C68.69999694824219,100.9000015258789,69.5999984741211,98.5,70.19999694824219,96.0999984741211C70.4000015258789,96.19999694824219,70.5999984741211,96.30000305175781,70.80000305175781,96.4000015258789C71.30000305175781,96.5999984741211,71.80000305175781,96.9000015258789,72.19999694824219,97.0999984741211C72.5,97.19999694824219,72.69999694824219,97.30000305175781,73,97.5C73.4000015258789,97.69999694824219,73.9000015258789,97.9000015258789,74.30000305175781,98C74.5999984741211,98.0999984741211,74.80000305175781,98.19999694824219,75.0999984741211,98.30000305175781C75.69999694824219,98.5,76.4000015258789,98.69999694824219,77,98.9000015258789C77.0999984741211,98.9000015258789,77.19999694824219,99,77.30000305175781,99C77.9000015258789,99.19999694824219,78.4000015258789,99.30000305175781,79,99.4000015258789C79.19999694824219,99.4000015258789,79.4000015258789,99.5,79.5999984741211,99.5C80.0999984741211,99.5999984741211,80.5,99.5999984741211,81,99.69999694824219C81.19999694824219,99.69999694824219,81.4000015258789,99.69999694824219,81.5999984741211,99.80000305175781C82.19999694824219,99.9000015258789,82.9000015258789,99.9000015258789,83.5,99.9000015258789C83.9000015258789,99.9000015258789,84.4000015258789,99.9000015258789,84.80000305175781,99.80000305175781C84.9000015258789,99.80000305175781,85,99.80000305175781,85.0999984741211,99.80000305175781C85.5,99.80000305175781,85.9000015258789,99.69999694824219,86.4000015258789,99.5999984741211L86.5,99.5999984741211C87,99.5,87.4000015258789,99.4000015258789,87.9000015258789,99.30000305175781C88,99.30000305175781,88.0999984741211,99.30000305175781,88.19999694824219,99.19999694824219C88.69999694824219,99.0999984741211,89.0999984741211,99,89.5999984741211,98.80000305175781C89.5999984741211,98.80000305175781,89.5999984741211,98.80000305175781,89.69999694824219,98.80000305175781C90.19999694824219,98.5999984741211,90.69999694824219,98.5,91.19999694824219,98.30000305175781L91.30000305175781,98.30000305175781C92.9000015258789,97.69999694824219,94.5,96.9000015258789,96.0999984741211,96L96.0999984741211,96L96.0999984741211,96L96.0999984741211,96L96.0999984741211,96C96.69999694824219,98.0999984741211,97.5999984741211,100.19999694824219,98.69999694824219,102.19999694824219L101,99.5C100.0999984741211,97.80000305175781,99.5,96,99,94.19999694824219C105.5,89.69999694824219,111.5,82.69999694824219,115.19999694824219,74.0999984741211C115.69999694824219,74.30000305175781,116.30000305175781,74.4000015258789,116.9000015258789,74.5C117,74.5,117.19999694824219,74.5,117.30000305175781,74.5C118.80000305175781,74.5,120.19999694824219,73.30000305175781,121.5,70.9000015258789C123.80000305175781,66.4000015258789,126.5,55.70000076293945,123.9000015258789,52.900001525878906zM68.5,95C69,95.30000305175781,69.5999984741211,95.5999984741211,70.0999984741211,95.9000015258789C69.5999984741211,95.69999694824219,69.0999984741211,95.4000015258789,68.5,95zM120,65.69999694824219C118.80000305175781,69.4000015258789,117.5999984741211,70.9000015258789,117.0999984741211,71.19999694824219C114.69999694824219,70.80000305175781,114.0999984741211,69.4000015258789,114.0999984741211,69.4000015258789C113.9000015258789,68.5,112.9000015258789,68,112.0999984741211,68.30000305175781C111.19999694824219,68.5,110.69999694824219,69.4000015258789,111,70.30000305175781C111.19999694824219,70.80000305175781,111.5999984741211,71.5999984741211,112.19999694824219,72.30000305175781C108.4000015258789,81.4000015258789,101.80000305175781,88.4000015258789,95.19999694824219,92.4000015258789L95.19999694824219,92.4000015258789C94.69999694824219,92.69999694824219,94.19999694824219,93,93.69999694824219,93.30000305175781C93.5999984741211,93.30000305175781,93.5999984741211,93.4000015258789,93.5,93.4000015258789C92,94.19999694824219,90.5999984741211,94.9000015258789,89.0999984741211,95.4000015258789C89,95.4000015258789,88.9000015258789,95.5,88.80000305175781,95.5C88.5,95.5999984741211,88.19999694824219,95.69999694824219,87.9000015258789,95.80000305175781C87.5999984741211,95.9000015258789,87.4000015258789,96,87.0999984741211,96C86.80000305175781,96.0999984741211,86.5999984741211,96.0999984741211,86.30000305175781,96.19999694824219C86,96.30000305175781,85.5999984741211,96.30000305175781,85.30000305175781,96.4000015258789C85.0999984741211,96.4000015258789,84.9000015258789,96.5,84.69999694824219,96.5C84.19999694824219,96.5999984741211,83.69999694824219,96.5999984741211,83.19999694824219,96.5999984741211C82.69999694824219,96.5999984741211,82.0999984741211,96.5999984741211,81.5999984741211,96.5C81.4000015258789,96.5,81.30000305175781,96.5,81.19999694824219,96.5C80.80000305175781,96.5,80.4000015258789,96.4000015258789,80,96.4000015258789C79.9000015258789,96.4000015258789,79.69999694824219,96.4000015258789,79.5999984741211,96.30000305175781C78.5999984741211,96.0999984741211,77.5,95.9000015258789,76.5,95.69999694824219C76.4000015258789,95.69999694824219,76.30000305175781,95.69999694824219,76.19999694824219,95.5999984741211C75.80000305175781,95.5,75.30000305175781,95.30000305175781,74.9000015258789,95.19999694824219C74.80000305175781,95.19999694824219,74.80000305175781,95.19999694824219,74.69999694824219,95.0999984741211C73.69999694824219,94.69999694824219,72.69999694824219,94.30000305175781,71.80000305175781,93.80000305175781C71.80000305175781,93.80000305175781,71.80000305175781,93.80000305175781,71.69999694824219,93.80000305175781C71.19999694824219,93.5999984741211,70.80000305175781,93.30000305175781,70.30000305175781,93C63.30000305175781,88.5999984741211,58,80.80000305175781,54.900001525878906,72.80000305175781C56,72,56.599998474121094,71,56.79999923706055,70.30000305175781C57.099998474121094,69.4000015258789,56.599998474121094,68.5,55.70000076293945,68.30000305175781C54.79999923706055,68,53.900001525878906,68.5,53.70000076293945,69.4000015258789C53.70000076293945,69.5,53.20000076293945,70.80000305175781,50.70000076293945,71.19999694824219C50.20000076293945,71,49,69.4000015258789,47.79999923706055,65.5999984741211C46.099998474121094,60.5,45.900001525878906,55.79999923706055,46.400001525878906,55C46.79999923706055,54.5,47.29999923706055,54.29999923706055,47.900001525878906,54.29999923706055C49.29999923706055,54.20000076293945,51.29999923706055,55.29999923706055,53.099998474121094,57.099998474121094C53.70000076293945,57.69999694824219,54.79999923706055,57.69999694824219,55.400001525878906,57.099998474121094C56,56.5,56,55.400001525878906,55.400001525878906,54.79999923706055C54.20000076293945,53.599998474121094,53,52.70000076293945,51.79999923706055,52.099998474121094C52,47.29999923706055,52.29999923706055,41,52.900001525878906,38.599998474121094C56.400001525878906,23.200000762939453,67.80000305175781,14,83.5,14C99.69999694824219,14,111.30000305175781,23.799999237060547,114.5,40.20000076293945C114.9000015258789,42.29999923706055,115.19999694824219,48.20000076293945,115.30000305175781,52.599998474121094C114.4000015258789,53.20000076293945,113.4000015258789,53.900001525878906,112.5,54.79999923706055C111.9000015258789,55.400001525878906,111.9000015258789,56.5,112.5,57.099998474121094C113.0999984741211,57.69999694824219,114.19999694824219,57.69999694824219,114.80000305175781,57.099998474121094C116.5999984741211,55.29999923706055,118.5999984741211,54.20000076293945,120,54.29999923706055C120.5999984741211,54.29999923706055,121,54.5,121.4000015258789,55C122,55.900001525878906,121.69999694824219,60.599998474121094,120,65.69999694824219zM120.5999984741211,237.60000610351562C120.5,237.60000610351562,120.4000015258789,237.60000610351562,120.19999694824219,237.60000610351562C119.5,237.39999389648438,119,236.89999389648438,118.9000015258789,236.10000610351562L112.0999984741211,149.8000030517578C112.0999984741211,149.3000030517578,112.19999694824219,148.89999389648438,112.5,148.60000610351562C112.80000305175781,148.3000030517578,113.19999694824219,148.10000610351562,113.69999694824219,148.10000610351562L138,148.3000030517578C138.8000030517578,148.3000030517578,139.5,148.89999389648438,139.60000610351562,149.6999969482422C141.10000610351562,160.39999389648438,142.1999969482422,183.39999389648438,137,201.60000610351562C133.3000030517578,213.89999389648438,128.3000030517578,225.6999969482422,122,236.8000030517578C121.80000305175781,237.1999969482422,121.19999694824219,237.60000610351562,120.5999984741211,237.60000610351562zM115.5999984741211,151.1999969482422L121.9000015258789,230.3000030517578C126.89999389648438,220.8000030517578,131,210.8000030517578,134,200.5C139.60000610351562,181,137.39999389648438,157.39999389648438,136.6999969482422,151.39999389648438L115.5999984741211,151.1999969482422zM31.200000762939453,229.5C30.599998474121094,229.5,29.899999618530273,229.1999969482422,29.399999618530273,228.3000030517578C26.100000381469727,222.10000610351562,18.299999237060547,174.39999389648438,17.600000381469727,156.39999389648438C17.600000381469727,155.60000610351562,18.100000381469727,154.89999389648438,18.799999237060547,154.8000030517578L43.400001525878906,148.8000030517578C43.900001525878906,148.6999969482422,44.5,148.8000030517578,44.900001525878906,149.1999969482422C45.29999923706055,149.60000610351562,45.5,150.10000610351562,45.400001525878906,150.60000610351562C45.400001525878906,150.8000030517578,43.099998474121094,170.10000610351562,40.400001525878906,189.1999969482422C34.79999923706055,229,33.20000076293945,229.3000030517578,31.5,229.60000610351562C31.400001525878906,229.5,31.299999237060547,229.5,31.200000762939453,229.5zM20.899999618530273,157.60000610351562C21.799999237060547,175,27.899999618530273,212.3000030517578,31.200000762939453,223.8000030517578C34,213.3000030517578,39,177,41.900001525878906,152.39999389648438L20.899999618530273,157.60000610351562z"/>
<path id="Shirt" fill="#E1F9FF" d="M135.60000610351562,117.4000015258789C132,114.9000015258789,117.69999694824219,110.5,108.4000015258789,107.80000305175781L103,96.9000015258789L86.19999694824219,116.5999984741211L83,119.19999694824219L80.9000015258789,117.4000015258789L61.099998474121094,96.5999984741211L55,107.80000305175781C48.099998474121094,110.4000015258789,39.599998474121094,113.5,32.79999923706055,116.80000305175781C21.700000762939453,122.30000305175781,20.899999618530273,122.80000305175781,18.100000381469727,131C15.299999237060547,139.1999969482422,12.600000381469727,158.8000030517578,12.600000381469727,158.8000030517578L38.900001525878906,158C38.900001525878906,158,36.70000076293945,175.1999969482422,33.599998474121094,188C32.099998474121094,194.5,31.400001525878906,200.1999969482422,31.299999237060547,204.39999389648438C34.29999923706055,204,40.900001525878906,204.10000610351562,55.79999923706055,204.60000610351562C64.0999984741211,204.89999389648438,73.4000015258789,205.1999969482422,81,205.1999969482422C90.5999984741211,205.1999969482422,101.0999984741211,204.6999969482422,109.5,204.3000030517578C119.80000305175781,203.8000030517578,125.30000305175781,203.60000610351562,127.19999694824219,204C127.19999694824219,201.60000610351562,127,198.10000610351562,126.5,192.8000030517578C125.4000015258789,181.10000610351562,122.30000305175781,158.1999969482422,122.30000305175781,158.1999969482422C122.30000305175781,158.1999969482422,149.10000610351562,154.89999389648438,149.39999389648438,153.60000610351562C149.8000030517578,152.3000030517578,141.1999969482422,121.19999694824219,135.60000610351562,117.4000015258789z"/>
<path id="Pants" fill="#25515E" d="M29.299999237060547,215.89999389648438C28.100000381469727,226.60000610351562,31,272.1000061035156,36.400001525878906,297.1000061035156C41.79999923706055,322.1000061035156,52.599998474121094,361.8999938964844,53.900001525878906,361.8999938964844C55.20000076293945,361.8999938964844,99.69999694824219,364.79998779296875,101,360.29998779296875C102.30000305175781,355.79998779296875,114.80000305175781,307.79998779296875,119.80000305175781,284.79998779296875C124.80000305175781,261.79998779296875,129,220,128.5,213.8000030517578S29.299999237060547,215.89999389648438,29.299999237060547,215.89999389648438z"/>
<path id="PantsBorder" d="M54.5,260.20001220703125C54.5,272.29998779296875,63.599998474121094,352,63.69999694824219,352.79998779296875C63.80000305175781,353.29998779296875,63.400001525878906,353.79998779296875,62.80000305175781,353.8999938964844L62.69999694824219,353.8999938964844C62.19999694824219,353.8999938964844,61.79999923706055,353.5,61.70000076293945,353C61.29999923706055,349.70001220703125,52.5,272.3999938964844,52.5,260.20001220703125C52.5,259.6000061035156,52.900001525878906,259.20001220703125,53.5,259.20001220703125S54.5,259.70001220703125,54.5,260.20001220703125zM102.80000305175781,260C102.19999694824219,259.8999938964844,101.80000305175781,260.29998779296875,101.69999694824219,260.8999938964844C99.5999984741211,276.70001220703125,90.0999984741211,353.70001220703125,90,354.3999938964844C89.9000015258789,354.8999938964844,90.30000305175781,355.3999938964844,90.9000015258789,355.5L91,355.5C91.5,355.5,91.9000015258789,355.1000061035156,92,354.6000061035156C92.0999984741211,353.79998779296875,101.5999984741211,276.8999938964844,103.69999694824219,261.1000061035156C103.69999694824219,260.6000061035156,103.30000305175781,260.1000061035156,102.80000305175781,260zM121.30000305175781,285.1000061035156C116.4000015258789,307.70001220703125,104,355.3999938964844,102.5,360.70001220703125C102.0999984741211,362.20001220703125,101.5,364.3999938964844,81.69999694824219,364.3999938964844C75.19999694824219,364.3999938964844,66.80000305175781,364.20001220703125,55.599998474121094,363.6000061035156C54.70000076293945,363.6000061035156,54.099998474121094,363.5,53.900001525878906,363.5C52.400001525878906,363.5,51.70000076293945,363.5,45.099998474121094,339.29998779296875C41.20000076293945,324.8999938964844,37.20000076293945,308.8999938964844,34.79999923706055,297.3999938964844C29.399999618530273,272.6000061035156,26.399999618530273,227,27.700000762939453,215.6999969482422C27.799999237060547,214.89999389648438,28.399999618530273,214.3000030517578,29.200000762939453,214.3000030517578C29.399999618530273,214.3000030517578,52.70000076293945,212.3000030517578,76.4000015258789,211C125,208.39999389648438,127.89999389648438,210.89999389648438,129.1999969482422,212C129.89999389648438,212.60000610351562,130,213.1999969482422,130.10000610351562,213.60000610351562C130.5,219.8000030517578,126.39999389648438,261.70001220703125,121.30000305175781,285.1000061035156zM126.89999389648438,214.39999389648438C122.69999694824219,212.3000030517578,88.19999694824219,212.6999969482422,30.900001525878906,217.5C30.599998474121094,221.5,30.700000762939453,228.39999389648438,31.099998474121094,236.8000030517578C36.70000076293945,231.8000030517578,42.20000076293945,221.8000030517578,42.20000076293945,221.6999969482422C42.5,221.1999969482422,43.099998474121094,221,43.599998474121094,221.3000030517578C44.099998474121094,221.60000610351562,44.29999923706055,222.1999969482422,44,222.6999969482422C43.70000076293945,223.1999969482422,37.599998474121094,234.5,31.200000762939453,239.39999389648438C32.20000076293945,257.70001220703125,34.70000076293945,281.70001220703125,38,297C43.29999923706055,321.29998779296875,52.599998474121094,355.3999938964844,54.79999923706055,360.6000061035156C55.099998474121094,360.6000061035156,55.400001525878906,360.6000061035156,55.70000076293945,360.6000061035156C62.900001525878906,361,68.9000015258789,361.20001220703125,73.9000015258789,361.29998779296875L74.69999694824219,247.6999969482422L70.4000015258789,240.6999969482422C69.9000015258789,239.89999389648438,70.19999694824219,238.89999389648438,70.9000015258789,238.5C71.69999694824219,238,72.69999694824219,238.3000030517578,73.0999984741211,239L77.69999694824219,246.39999389648438C77.9000015258789,246.6999969482422,77.9000015258789,247,77.9000015258789,247.3000030517578L77.0999984741211,361.3999938964844C95.0999984741211,361.70001220703125,98.69999694824219,360.29998779296875,99.4000015258789,359.8999938964844C101.0999984741211,353.70001220703125,113.19999694824219,307,118.0999984741211,284.70001220703125C120.5999984741211,273.29998779296875,122.80000305175781,257.70001220703125,124.4000015258789,243.89999389648438C119,238.5,114.4000015258789,224.39999389648438,114.19999694824219,223.8000030517578C114,223.3000030517578,114.30000305175781,222.6999969482422,114.80000305175781,222.5C115.30000305175781,222.3000030517578,115.9000015258789,222.60000610351562,116.0999984741211,223.10000610351562C116.0999984741211,223.1999969482422,120.19999694824219,235.3000030517578,124.69999694824219,241.10000610351562C126.10000610351562,228.39999389648438,127,217.8000030517578,126.89999389648438,214.39999389648438z"/>
<path id="Belt" fill="#515151" d="M81,206.89999389648438C61.400001525878906,206.89999389648438,31.299999237060547,204.8000030517578,30,206.39999389648438C28.700000762939453,208,26.899999618530273,215.10000610351562,29.799999237060547,216.3000030517578C32.70000076293945,217.5,69.80000305175781,217.89999389648438,83.5,217.5C97.19999694824219,217.10000610351562,127.19999694824219,217.5,128.5,215.39999389648438C129.8000030517578,213.3000030517578,130.1999969482422,206.39999389648438,126.80000305175781,205.60000610351562C123.5,204.8000030517578,100.5999984741211,206.89999389648438,81,206.89999389648438z"/>
<path id="BeltBorder" d="M130.3000030517578,207C129.5,205,128.10000610351562,204.3000030517578,127.19999694824219,204C125.4000015258789,203.5,119.9000015258789,203.8000030517578,109.5,204.3000030517578C101.0999984741211,204.6999969482422,90.5999984741211,205.1999969482422,81,205.1999969482422C73.4000015258789,205.1999969482422,64.0999984741211,204.89999389648438,55.79999923706055,204.60000610351562C33.400001525878906,203.8000030517578,29.799999237060547,203.89999389648438,28.700000762939453,205.39999389648438C27.399999618530273,207.10000610351562,26,211.89999389648438,26.799999237060547,214.89999389648438C27.299999237060547,216.6999969482422,28.299999237060547,217.39999389648438,29.100000381469727,217.8000030517578C31.700000762939453,218.89999389648438,53.5,219.3000030517578,69.4000015258789,219.3000030517578C75.30000305175781,219.3000030517578,80.4000015258789,219.1999969482422,83.5,219.1999969482422C87.0999984741211,219.10000610351562,91.9000015258789,219,96.9000015258789,219C124.5,218.6999969482422,128.6999969482422,218.1999969482422,129.8000030517578,216.39999389648438C131,214.39999389648438,131.5,209.89999389648438,130.3000030517578,207zM30,214.10000610351562C29.5,212.1999969482422,30.5,208.8000030517578,31.099998474121094,207.60000610351562C33.5,207,45.29999923706055,207.5,55.70000076293945,207.8000030517578C59.79999923706055,207.89999389648438,64.19999694824219,208.10000610351562,68.5,208.1999969482422C68.5,208.39999389648438,68.4000015258789,208.60000610351562,68.4000015258789,208.8000030517578L68.4000015258789,215.39999389648438C68.4000015258789,215.60000610351562,68.4000015258789,215.8000030517578,68.5,216C52.400001525878906,216,32.599998474121094,215.5,30.400001525878906,214.8000030517578C30.200000762939453,214.6999969482422,30,214.39999389648438,30,214.10000610351562zM127.19999694824219,214.39999389648438C124.4000015258789,215.39999389648438,107.9000015258789,215.60000610351562,96.9000015258789,215.6999969482422C95.80000305175781,215.6999969482422,94.5999984741211,215.6999969482422,93.5,215.6999969482422C93.5,215.60000610351562,93.5,215.5,93.5,215.5L93.5,208.89999389648438C93.5,208.6999969482422,93.5,208.5,93.4000015258789,208.3000030517578C99.0999984741211,208.10000610351562,104.69999694824219,207.89999389648438,109.5999984741211,207.60000610351562C117.5,207.1999969482422,124.9000015258789,206.89999389648438,126.30000305175781,207.1999969482422C126.69999694824219,207.3000030517578,127,207.60000610351562,127.19999694824219,208.1999969482422C128.10000610351562,210.1999969482422,127.69999694824219,213.1999969482422,127.19999694824219,214.39999389648438z"/>
<path id="ShirtBorder" d="M113.80000305175781,142.3000030517578L90.80000305175781,142.3000030517578C89.9000015258789,142.3000030517578,89.19999694824219,143,89.19999694824219,143.89999389648438L89.19999694824219,155.60000610351562C89.19999694824219,162.8000030517578,95.0999984741211,168.6999969482422,102.30000305175781,168.6999969482422C109.5,168.6999969482422,115.4000015258789,162.8000030517578,115.4000015258789,155.60000610351562L115.4000015258789,143.89999389648438C115.4000015258789,143,114.69999694824219,142.3000030517578,113.80000305175781,142.3000030517578zM112.19999694824219,155.60000610351562C112.19999694824219,161,107.80000305175781,165.5,102.30000305175781,165.5C96.80000305175781,165.5,92.4000015258789,161.10000610351562,92.4000015258789,155.60000610351562L92.4000015258789,145.5L112.19999694824219,145.5L112.19999694824219,155.60000610351562zM136.60000610351562,116.0999984741211C132.89999389648438,113.5,119,109.19999694824219,109.5999984741211,106.5L104.5,96.19999694824219C104.30000305175781,95.69999694824219,103.80000305175781,95.4000015258789,103.19999694824219,95.30000305175781C102.69999694824219,95.19999694824219,102.0999984741211,95.4000015258789,101.80000305175781,95.9000015258789L85.0999984741211,115.5L83.0999984741211,117.0999984741211L82.0999984741211,116.19999694824219L62.400001525878906,95.5C62,95.0999984741211,61.5,94.9000015258789,61,95C60.5,95.0999984741211,60,95.4000015258789,59.79999923706055,95.80000305175781L53.79999923706055,106.4000015258789C52.900001525878906,106.69999694824219,52,107.0999984741211,51,107.4000015258789C44.79999923706055,109.69999694824219,37.79999923706055,112.4000015258789,31.900001525878906,115.19999694824219C20.5,120.80000305175781,19.399999618530273,121.60000610351562,16.399999618530273,130.3000030517578C13.600000381469727,138.5,10.899999618530273,157.60000610351562,10.800000190734863,158.39999389648438C10.699999809265137,158.89999389648438,10.899999618530273,159.39999389648438,11.199999809265137,159.6999969482422C11.5,160.10000610351562,12,160.1999969482422,12.5,160.1999969482422L36.900001525878906,159.39999389648438C36.20000076293945,164.1999969482422,34.29999923706055,177.1999969482422,31.900001525878906,187.3000030517578C30.299999237060547,194,29.700000762939453,200,29.5,204.5C30.099998474121094,204.1999969482422,31.099998474121094,204.10000610351562,32.79999923706055,204C33,200,33.5,194.5,35.099998474121094,188.10000610351562C38,175.6999969482422,40.20000076293945,159.10000610351562,40.400001525878906,158L41.70000076293945,153.1999969482422C41.900001525878906,152.3000030517578,41.400001525878906,151.39999389648438,40.599998474121094,151.1999969482422C39.70000076293945,151,38.79999923706055,151.5,38.599998474121094,152.3000030517578L37.5,156.10000610351562L14.399999618530273,156.8000030517578C15.200000762939453,151.6999969482422,17.399999618530273,137.60000610351562,19.600000381469727,131.1999969482422C22.200000762939453,123.69999694824219,22.399999618530273,123.39999389648438,33.400001525878906,118C39.099998474121094,115.19999694824219,46,112.5999984741211,52.20000076293945,110.30000305175781C52.400001525878906,110.19999694824219,52.5,110.19999694824219,52.70000076293945,110.0999984741211C52.70000076293945,110.19999694824219,52.79999923706055,110.19999694824219,52.79999923706055,110.30000305175781L72.5,131.8000030517578C72.80000305175781,132.10000610351562,73.19999694824219,132.3000030517578,73.69999694824219,132.3000030517578L73.80000305175781,132.3000030517578C74.30000305175781,132.3000030517578,74.80000305175781,132,75,131.5L82.0999984741211,120.19999694824219C82.30000305175781,120.30000305175781,82.5,120.39999389648438,82.69999694824219,120.5L82.69999694824219,204.89999389648438C83.4000015258789,204.89999389648438,84,204.89999389648438,84.69999694824219,204.89999389648438L84.69999694824219,121.30000305175781L91.4000015258789,132.3000030517578C91.69999694824219,132.8000030517578,92.19999694824219,133.10000610351562,92.69999694824219,133.10000610351562L92.69999694824219,133.10000610351562C93.19999694824219,133.10000610351562,93.69999694824219,132.8000030517578,94,132.39999389648438L109.69999694824219,109.5999984741211C119.5,112.5,131.5,116.30000305175781,134.5,118.4000015258789C135.1999969482422,118.9000015258789,137.89999389648438,121.60000610351562,142.8000030517578,136C145.1999969482422,143.3000030517578,147,149.89999389648438,147.5,152.3000030517578C144.39999389648438,153.1999969482422,133.6999969482422,154.8000030517578,123.5,156.10000610351562L122.0999984741211,145.89999389648438C122,145,121.0999984741211,144.39999389648438,120.30000305175781,144.5C119.4000015258789,144.60000610351562,118.80000305175781,145.39999389648438,118.9000015258789,146.3000030517578L120.5999984741211,158L120.5999984741211,158.10000610351562C120.5999984741211,158.3000030517578,123.69999694824219,181.10000610351562,124.69999694824219,192.60000610351562C125.19999694824219,197.60000610351562,125.4000015258789,201.10000610351562,125.4000015258789,203.39999389648438C126.10000610351562,203.39999389648438,126.69999694824219,203.5,127.10000610351562,203.60000610351562C127.60000610351562,203.6999969482422,128.10000610351562,204,128.6999969482422,204.39999389648438C128.8000030517578,201.89999389648438,128.60000610351562,198.10000610351562,128.10000610351562,192.3000030517578C127.19999694824219,182.5,124.9000015258789,164.6999969482422,124.19999694824219,159.3000030517578C150.60000610351562,156,150.8000030517578,154.8000030517578,151.10000610351562,153.60000610351562C151.60000610351562,151.60000610351562,142.60000610351562,120.19999694824219,136.60000610351562,116.0999984741211zM79.5999984741211,118.4000015258789L73.4000015258789,128.3000030517578L56,109.19999694824219L56.099998474121094,109.0999984741211L61.599998474121094,99.4000015258789L79.5999984741211,118.4000015258789L79.5999984741211,118.4000015258789zM106.5999984741211,109L92.9000015258789,128.8000030517578L86.69999694824219,118.5999984741211L87.4000015258789,117.80000305175781L87.4000015258789,117.80000305175781L102.69999694824219,99.80000305175781L107,108.4000015258789L106.5999984741211,109L106.5999984741211,109z"/>
<path id="Shoes" fill="#515252" d="M76.4000015258789,361.8999938964844C76.5999984741211,366.5,72.69999694824219,368.8999938964844,64.4000015258789,371.6000061035156C56.099998474121094,374.29998779296875,38.900001525878906,375.5,36.20000076293945,368.5C33.5,361.5,57.5,349.3999938964844,62.900001525878906,349.20001220703125C65.69999694824219,349,76.19999694824219,357.29998779296875,76.4000015258789,361.8999938964844zM91.69999694824219,349.1000061035156C88.9000015258789,349,78.30000305175781,357.29998779296875,78.19999694824219,361.8999938964844C78.0999984741211,366.5,81.9000015258789,368.8999938964844,90.30000305175781,371.6000061035156C98.5999984741211,374.29998779296875,115.80000305175781,375.5,118.5,368.5S97.0999984741211,349.29998779296875,91.69999694824219,349.1000061035156z"/>
<path id="ShoesBorder" d="M119,363.3999938964844C114.30000305175781,356.29998779296875,96.80000305175781,347.70001220703125,91.80000305175781,347.5C89.0999984741211,347.3999938964844,84.0999984741211,351.29998779296875,81.9000015258789,353.3999938964844C80.19999694824219,355,78.30000305175781,357.1000061035156,77.30000305175781,359.20001220703125C76.19999694824219,357,74.19999694824219,354.79998779296875,72.4000015258789,353.1000061035156C70.0999984741211,350.8999938964844,65.4000015258789,347.29998779296875,62.80000305175781,347.3999938964844C57.79999923706055,347.6000061035156,40.29999923706055,356.20001220703125,35.70000076293945,363.29998779296875C34.400001525878906,365.29998779296875,34,367.20001220703125,34.70000076293945,368.8999938964844C36.5,373.6000061035156,43.099998474121094,375.1000061035156,49.900001525878906,375.1000061035156C55.599998474121094,375.1000061035156,61.5,374,64.9000015258789,373C71.19999694824219,371,75.69999694824219,368.8999938964844,77.30000305175781,365.29998779296875C79,368.79998779296875,83.4000015258789,370.8999938964844,89.80000305175781,373C93.19999694824219,374.1000061035156,99.0999984741211,375.1000061035156,104.80000305175781,375.1000061035156C111.5999984741211,375.1000061035156,118.19999694824219,373.6000061035156,120,368.8999938964844C120.5999984741211,367.29998779296875,120.30000305175781,365.3999938964844,119,363.3999938964844zM63.900001525878906,370C55,372.79998779296875,39.79999923706055,373.20001220703125,37.70000076293945,367.8999938964844C37.400001525878906,367.20001220703125,37.70000076293945,366.29998779296875,38.400001525878906,365.20001220703125C39.900001525878906,362.79998779296875,43.099998474121094,360.29998779296875,46.70000076293945,358C48.79999923706055,358.3999938964844,50.70000076293945,359.3999938964844,52.099998474121094,361C52.29999923706055,361.20001220703125,52.599998474121094,361.29998779296875,52.79999923706055,361.29998779296875C53,361.29998779296875,53.29999923706055,361.20001220703125,53.5,361C53.900001525878906,360.6000061035156,53.900001525878906,360,53.599998474121094,359.6000061035156C52.29999923706055,358.20001220703125,50.79999923706055,357.20001220703125,49.099998474121094,356.5C49.79999923706055,356.1000061035156,50.400001525878906,355.79998779296875,51.099998474121094,355.3999938964844C53.400001525878906,355.6000061035156,55.599998474121094,356.70001220703125,57.20000076293945,358.5C57.400001525878906,358.70001220703125,57.70000076293945,358.79998779296875,57.900001525878906,358.79998779296875C58.099998474121094,358.79998779296875,58.400001525878906,358.70001220703125,58.599998474121094,358.5C59,358.1000061035156,59,357.5,58.70000076293945,357.1000061035156C57.400001525878906,355.6000061035156,55.70000076293945,354.6000061035156,53.900001525878906,353.8999938964844C57.900001525878906,352,61.5,350.70001220703125,63,350.6000061035156C63.599998474121094,350.6000061035156,66.30000305175781,351.8999938964844,69.69999694824219,354.8999938964844C73.19999694824219,358,74.80000305175781,360.6000061035156,74.80000305175781,361.79998779296875C74.80000305175781,364.79998779296875,73.0999984741211,367,63.900001525878906,370zM116.9000015258789,367.79998779296875C114.80000305175781,373.1000061035156,99.5999984741211,372.79998779296875,90.69999694824219,369.8999938964844C81.5,367,79.69999694824219,364.70001220703125,79.80000305175781,361.79998779296875C79.80000305175781,360.6000061035156,81.4000015258789,358,84.9000015258789,354.8999938964844C88.30000305175781,351.8999938964844,91,350.6000061035156,91.5999984741211,350.6000061035156C93.0999984741211,350.70001220703125,96.69999694824219,352,100.69999694824219,353.8999938964844C98.9000015258789,354.5,97.30000305175781,355.6000061035156,95.9000015258789,357.1000061035156C95.5,357.5,95.5999984741211,358.1000061035156,96,358.5C96.19999694824219,358.70001220703125,96.4000015258789,358.79998779296875,96.69999694824219,358.79998779296875C97,358.79998779296875,97.19999694824219,358.70001220703125,97.4000015258789,358.5C99,356.70001220703125,101.0999984741211,355.70001220703125,103.4000015258789,355.3999938964844C104.0999984741211,355.79998779296875,104.69999694824219,356.1000061035156,105.4000015258789,356.5C103.69999694824219,357.1000061035156,102.0999984741211,358.20001220703125,100.9000015258789,359.6000061035156C100.5,360,100.5999984741211,360.6000061035156,101,361C101.19999694824219,361.20001220703125,101.4000015258789,361.29998779296875,101.69999694824219,361.29998779296875C102,361.29998779296875,102.19999694824219,361.20001220703125,102.4000015258789,361C103.80000305175781,359.3999938964844,105.69999694824219,358.3999938964844,107.80000305175781,358C111.4000015258789,360.29998779296875,114.5999984741211,362.79998779296875,116.0999984741211,365.20001220703125C117,366.29998779296875,117.19999694824219,367.20001220703125,116.9000015258789,367.79998779296875z"/>
<path id="ChinMouthNose" d="M83.69999694824219,84.19999694824219C80.5999984741211,84.19999694824219,77.5,83,75.0999984741211,80.9000015258789C74.69999694824219,80.5,74.5999984741211,79.80000305175781,75,79.4000015258789C75.4000015258789,79,76.0999984741211,78.9000015258789,76.5,79.30000305175781C78.5999984741211,81.0999984741211,81.19999694824219,82.0999984741211,84,82C84.0999984741211,82,84.0999984741211,82,84.19999694824219,82C87.0999984741211,82,89.69999694824219,81,91.80000305175781,79.0999984741211C92.19999694824219,78.69999694824219,92.9000015258789,78.69999694824219,93.30000305175781,79.19999694824219C93.69999694824219,79.5999984741211,93.69999694824219,80.30000305175781,93.19999694824219,80.69999694824219C90.5999984741211,83,87.4000015258789,84.19999694824219,84,84.0999984741211C83.9000015258789,84.19999694824219,83.80000305175781,84.19999694824219,83.69999694824219,84.19999694824219zM88.9000015258789,68.69999694824219C89.5,67.5,89.5,66.0999984741211,88.69999694824219,65C87.69999694824219,63.400001525878906,85.5,62.69999694824219,82.9000015258789,63C82.30000305175781,63.099998474121094,81.9000015258789,63.599998474121094,81.9000015258789,64.19999694824219C82,64.80000305175781,82.5,65.19999694824219,83.0999984741211,65.19999694824219C84.9000015258789,65,86.30000305175781,65.4000015258789,86.9000015258789,66.30000305175781C87.19999694824219,66.69999694824219,87.19999694824219,67.30000305175781,87,67.80000305175781C86.5,68.69999694824219,85.4000015258789,69.19999694824219,83.9000015258789,69.19999694824219C83.30000305175781,69.19999694824219,82.80000305175781,69.69999694824219,82.80000305175781,70.30000305175781C82.80000305175781,70.9000015258789,83.30000305175781,71.4000015258789,83.9000015258789,71.4000015258789C86.19999694824219,71.19999694824219,88,70.30000305175781,88.9000015258789,68.69999694824219zM80.30000305175781,90.4000015258789C81,89.30000305175781,81.5999984741211,88.4000015258789,84.80000305175781,88.4000015258789C86.30000305175781,88.30000305175781,87.69999694824219,89,88.4000015258789,90.30000305175781C88.69999694824219,90.80000305175781,89.4000015258789,91,89.9000015258789,90.69999694824219C90.4000015258789,90.4000015258789,90.5999984741211,89.69999694824219,90.30000305175781,89.19999694824219C89.0999984741211,87.19999694824219,86.9000015258789,86.0999984741211,84.69999694824219,86.30000305175781C81,86.30000305175781,79.69999694824219,87.4000015258789,78.4000015258789,89.30000305175781C78.0999984741211,89.80000305175781,78.19999694824219,90.5,78.69999694824219,90.80000305175781C78.9000015258789,90.9000015258789,79.0999984741211,91,79.30000305175781,91C79.80000305175781,90.9000015258789,80.0999984741211,90.69999694824219,80.30000305175781,90.4000015258789z"/>
<path id="Hair" fill="#F7F8F9" d="M98.5,78.69999694824219C96.30000305175781,81.0999984741211,73.80000305175781,81.5,70.9000015258789,78.5C70.0999984741211,77.19999694824219,73.9000015258789,72.69999694824219,75.0999984741211,72.0999984741211C76.19999694824219,71.5,78.9000015258789,72.80000305175781,84.80000305175781,72.80000305175781C90.5999984741211,72.80000305175781,93.0999984741211,71.9000015258789,95,72C96.9000015258789,72.0999984741211,99.80000305175781,77.30000305175781,98.5,78.69999694824219zM55.29999923706055,27.200000762939453C53,24.5,51.900001525878906,27.200000762939453,50.400001525878906,31.299999237060547C49,35.400001525878906,44.099998474121094,54.20000076293945,47.29999923706055,53.5C49.099998474121094,53.099998474121094,51,53,52.900001525878906,53.29999923706055C57,53.29999923706055,62.099998474121094,41.900001525878906,62.5,37.29999923706055C62.80000305175781,32.70000076293945,57.599998474121094,29.900001525878906,55.29999923706055,27.200000762939453zM116.30000305175781,31.299999237060547C114.9000015258789,27.200000762939453,113.80000305175781,24.5,111.4000015258789,27.200000762939453C109.0999984741211,29.900001525878906,103.80000305175781,32.70000076293945,104.19999694824219,37.29999923706055C104.5999984741211,41.900001525878906,109.69999694824219,53.29999923706055,113.80000305175781,53.29999923706055C115.69999694824219,53,117.5999984741211,53.099998474121094,119.4000015258789,53.5C122.5999984741211,54.20000076293945,117.69999694824219,35.400001525878906,116.30000305175781,31.299999237060547z"/>
<path id="HairBorder" d="M58.29999923706055,28.400001525878906C57.5,27.700000762939453,56.70000076293945,27,56.20000076293945,26.400001525878906C55.79999923706055,26,54.70000076293945,24.700000762939453,53.099998474121094,25C51.29999923706055,25.400001525878906,50.400001525878906,27.5,49.20000076293945,31C49.099998474121094,31.200000762939453,42.900001525878906,51.099998474121094,45.70000076293945,54.29999923706055C46.099998474121094,54.70000076293945,46.599998474121094,54.900001525878906,47.099998474121094,54.900001525878906C47.20000076293945,54.900001525878906,47.400001525878906,54.900001525878906,47.5,54.900001525878906C49.20000076293945,54.5,50.900001525878906,54.5,52.599998474121094,54.70000076293945C52.70000076293945,54.70000076293945,52.70000076293945,54.70000076293945,52.79999923706055,54.70000076293945C58,54.70000076293945,63.30000305175781,42.20000076293945,63.599998474121094,37.5C64,33.400001525878906,60.900001525878906,30.599998474121094,58.29999923706055,28.400001525878906zM61.20000076293945,37.20000076293945C60.79999923706055,43,55.400001525878906,51.900001525878906,53,52.099998474121094C51.20000076293945,51.79999923706055,49.29999923706055,51.900001525878906,47.5,52.20000076293945C46.900001525878906,49.5,49.79999923706055,36.70000076293945,51.5,31.700000762939453C51.900001525878906,30.5,52.900001525878906,27.599998474121094,53.5,27.400001525878906C53.5,27.400001525878906,53.79999923706055,27.5,54.29999923706055,28C55,28.799999237060547,55.79999923706055,29.5,56.70000076293945,30.200000762939453C59,32.29999923706055,61.400001525878906,34.400001525878906,61.20000076293945,37.20000076293945zM95,70.9000015258789C94.0999984741211,70.9000015258789,93.19999694824219,71,92.0999984741211,71.19999694824219C90.4000015258789,71.4000015258789,88.19999694824219,71.80000305175781,84.80000305175781,71.80000305175781C81.80000305175781,71.80000305175781,79.69999694824219,71.4000015258789,78.0999984741211,71.19999694824219C76.5,70.9000015258789,75.5,70.80000305175781,74.5999984741211,71.19999694824219C73.5,71.80000305175781,70.4000015258789,75.19999694824219,69.9000015258789,77.30000305175781C69.69999694824219,78,69.80000305175781,78.5999984741211,70.0999984741211,79.0999984741211C70.0999984741211,79.19999694824219,70.19999694824219,79.19999694824219,70.19999694824219,79.30000305175781C72.30000305175781,81.5,81,81.80000305175781,84.9000015258789,81.80000305175781C85.5999984741211,81.80000305175781,86.0999984741211,81.80000305175781,86.5,81.80000305175781C89.80000305175781,81.69999694824219,97.69999694824219,81.4000015258789,99.4000015258789,79.5C100.19999694824219,78.69999694824219,100.19999694824219,77.30000305175781,99.4000015258789,75.5C98.69999694824219,73.5999984741211,96.9000015258789,71,95,70.9000015258789zM97.69999694824219,77.9000015258789C97.4000015258789,78.19999694824219,96.4000015258789,78.5,94.69999694824219,78.80000305175781C94.4000015258789,77.5999984741211,94,76.4000015258789,93.5,75.30000305175781C93.4000015258789,75,93.0999984741211,74.9000015258789,92.80000305175781,75C92.5,75.0999984741211,92.4000015258789,75.4000015258789,92.5,75.69999694824219C93,76.69999694824219,93.30000305175781,77.80000305175781,93.5999984741211,78.9000015258789C92.19999694824219,79.0999984741211,90.5,79.19999694824219,88.5,79.30000305175781C88.4000015258789,78.5999984741211,88.4000015258789,77.5,88.30000305175781,76.5L88.30000305175781,76.0999984741211C88.30000305175781,75.80000305175781,88,75.5999984741211,87.69999694824219,75.5999984741211C87.4000015258789,75.5999984741211,87.19999694824219,75.9000015258789,87.19999694824219,76.19999694824219L87.19999694824219,76.5999984741211C87.30000305175781,77.69999694824219,87.30000305175781,78.69999694824219,87.4000015258789,79.4000015258789C86.4000015258789,79.4000015258789,85.4000015258789,79.5,84.4000015258789,79.5C83.19999694824219,79.5,82.0999984741211,79.5,81.0999984741211,79.4000015258789C81.0999984741211,78.9000015258789,81.30000305175781,78.5,81.5,78C81.69999694824219,77.5,82,76.9000015258789,82.19999694824219,76.0999984741211C82.30000305175781,75.80000305175781,82.0999984741211,75.5,81.80000305175781,75.5C81.5,75.4000015258789,81.19999694824219,75.5999984741211,81.19999694824219,75.9000015258789C81,76.5999984741211,80.80000305175781,77.0999984741211,80.5999984741211,77.5999984741211C80.4000015258789,78.19999694824219,80.0999984741211,78.69999694824219,80.0999984741211,79.4000015258789C78.19999694824219,79.30000305175781,76.5999984741211,79.0999984741211,75.4000015258789,78.9000015258789C76,77.80000305175781,76.69999694824219,76.69999694824219,77.5,75.5999984741211C77.69999694824219,75.4000015258789,77.5999984741211,75,77.4000015258789,74.80000305175781C77.19999694824219,74.5999984741211,76.80000305175781,74.69999694824219,76.5999984741211,74.9000015258789C75.80000305175781,76.0999984741211,75,77.30000305175781,74.30000305175781,78.5999984741211C73.19999694824219,78.4000015258789,72.4000015258789,78.0999984741211,72,77.80000305175781C72.19999694824219,76.69999694824219,74.80000305175781,73.4000015258789,75.69999694824219,72.9000015258789C75.9000015258789,72.80000305175781,76.9000015258789,73,77.80000305175781,73.0999984741211C79.30000305175781,73.4000015258789,81.69999694824219,73.80000305175781,84.80000305175781,73.80000305175781C88.4000015258789,73.80000305175781,90.69999694824219,73.5,92.5,73.19999694824219C93.5999984741211,73,94.4000015258789,72.9000015258789,95,73C95.30000305175781,73,96.19999694824219,73.69999694824219,97,75.19999694824219C97.69999694824219,76.69999694824219,97.80000305175781,77.69999694824219,97.69999694824219,77.9000015258789zM117.5,30.900001525878906C116.30000305175781,27.400001525878906,115.4000015258789,25.299999237060547,113.5999984741211,24.900001525878906C112.0999984741211,24.599998474121094,110.9000015258789,25.900001525878906,110.5,26.400001525878906C109.9000015258789,27,109.19999694824219,27.700000762939453,108.30000305175781,28.400001525878906C105.80000305175781,30.599998474121094,102.5999984741211,33.400001525878906,102.9000015258789,37.400001525878906C103.30000305175781,42.099998474121094,108.5,54.599998474121094,113.69999694824219,54.599998474121094C113.80000305175781,54.599998474121094,113.80000305175781,54.599998474121094,113.9000015258789,54.599998474121094C115.5999984741211,54.29999923706055,117.30000305175781,54.400001525878906,119,54.79999923706055C119.0999984741211,54.79999923706055,119.30000305175781,54.79999923706055,119.4000015258789,54.79999923706055C119.9000015258789,54.79999923706055,120.4000015258789,54.599998474121094,120.80000305175781,54.20000076293945C123.69999694824219,51,117.5,31.099998474121094,117.5,30.900001525878906zM119.0999984741211,52.20000076293945C118.0999984741211,52,117.0999984741211,51.900001525878906,116.0999984741211,51.900001525878906C115.30000305175781,51.900001525878906,114.5,52,113.69999694824219,52.099998474121094C111.30000305175781,51.900001525878906,105.9000015258789,43,105.5,37.29999923706055C105.30000305175781,34.5,107.69999694824219,32.400001525878906,110,30.400001525878906C110.9000015258789,29.599998474121094,111.69999694824219,28.900001525878906,112.4000015258789,28.099998474121094C112.9000015258789,27.599998474121094,113.0999984741211,27.5,113.0999984741211,27.5C113.69999694824219,27.799999237060547,114.69999694824219,30.599998474121094,115.0999984741211,31.799999237060547C116.9000015258789,36.70000076293945,119.80000305175781,49.400001525878906,119.0999984741211,52.20000076293945z"/>
<path id="Glasses" fill="#FFFFFF" d="M79.0999984741211,53.29999923706055L79.0999984741211,59.900001525878906C79.0999984741211,61.599998474121094,77.69999694824219,63,75.9000015258789,63L60.29999923706055,63C58.599998474121094,63,57.099998474121094,61.599998474121094,57.099998474121094,59.900001525878906L57.099998474121094,53.29999923706055C57.099998474121094,51.599998474121094,58.5,50.20000076293945,60.29999923706055,50.20000076293945L75.9000015258789,50.20000076293945C77.5999984741211,50.20000076293945,79.0999984741211,51.599998474121094,79.0999984741211,53.29999923706055zM107,50.29999923706055L91.4000015258789,50.29999923706055L91.4000015258789,50.29999923706055C89.69999694824219,50.29999923706055,88.19999694824219,51.70000076293945,88.19999694824219,53.400001525878906L88.19999694824219,60L88.19999694824219,60C88.19999694824219,61.69999694824219,89.5999984741211,63.099998474121094,91.4000015258789,63.099998474121094L107,63.099998474121094L107,63.099998474121094C108.69999694824219,63.099998474121094,110.0999984741211,61.69999694824219,110.19999694824219,60L110.19999694824219,53.400001525878906L110.19999694824219,53.400001525878906C110.19999694824219,51.599998474121094,108.80000305175781,50.20000076293945,107,50.29999923706055z"/>
<path id="GlassesBorder" d="M107.0999984741211,49.20000076293945C107,49.20000076293945,107,49.20000076293945,107.0999984741211,49.20000076293945L91.4000015258789,49.20000076293945L91.4000015258789,49.20000076293945C89.19999694824219,49.20000076293945,87.5,50.900001525878906,87.19999694824219,53C86.19999694824219,52.20000076293945,85,51.79999923706055,83.69999694824219,51.79999923706055L83.69999694824219,51.79999923706055C82.4000015258789,51.79999923706055,81.0999984741211,52.29999923706055,80.19999694824219,53.099998474121094C80,50.900001525878906,78.19999694824219,49.20000076293945,76,49.20000076293945L76,49.20000076293945L60.29999923706055,49.20000076293945C58,49.20000076293945,56.099998474121094,51.099998474121094,56,53.400001525878906L56,60C56,62.30000305175781,57.900001525878906,64.19999694824219,60.20000076293945,64.19999694824219L60.20000076293945,64.19999694824219L75.80000305175781,64.19999694824219L75.80000305175781,64.19999694824219C78.0999984741211,64.19999694824219,80,62.30000305175781,80,60L80,60L80,57.599998474121094L80,57.5C80,55.599998474121094,81.5999984741211,54,83.5,54L83.5,54C85.4000015258789,54,86.9000015258789,55.5,87,57.30000305175781L87,60.099998474121094C87,61.19999694824219,87.5,62.30000305175781,88.30000305175781,63.099998474121094C89.0999984741211,63.900001525878906,90.0999984741211,64.30000305175781,91.19999694824219,64.30000305175781L91.19999694824219,64.30000305175781L107,64.30000305175781L107,64.30000305175781C108.0999984741211,64.30000305175781,109.19999694824219,63.900001525878906,110,63.099998474121094C110.80000305175781,62.30000305175781,111.19999694824219,61.19999694824219,111.30000305175781,60.099998474121094L111.30000305175781,60.099998474121094L111.30000305175781,53.5C111.30000305175781,51,109.4000015258789,49.20000076293945,107.0999984741211,49.20000076293945zM78,59.900001525878906C78,61,77.0999984741211,62,75.9000015258789,61.900001525878906L60.29999923706055,61.900001525878906L60.29999923706055,61.900001525878906C59.20000076293945,61.900001525878906,58.20000076293945,61,58.20000076293945,59.900001525878906L58.20000076293945,53.400001525878906C58.20000076293945,52.29999923706055,59.099998474121094,51.400001525878906,60.29999923706055,51.400001525878906L60.29999923706055,51.400001525878906L75.9000015258789,51.400001525878906L75.9000015258789,51.400001525878906C77,51.400001525878906,78,52.29999923706055,78,53.400001525878906L78,59.900001525878906zM109.0999984741211,59.900001525878906C109.0999984741211,60.400001525878906,108.9000015258789,61,108.5,61.30000305175781C108.0999984741211,61.69999694824219,107.5999984741211,61.900001525878906,107,61.900001525878906L91.4000015258789,61.900001525878906C90.9000015258789,61.900001525878906,90.30000305175781,61.69999694824219,89.9000015258789,61.30000305175781C89.5,60.900001525878906,89.30000305175781,60.400001525878906,89.30000305175781,59.900001525878906L89.30000305175781,57.400001525878906L89.30000305175781,57.30000305175781C89.30000305175781,57.19999694824219,89.30000305175781,57,89.30000305175781,56.900001525878906L89.30000305175781,53.29999923706055C89.30000305175781,52.20000076293945,90.19999694824219,51.29999923706055,91.4000015258789,51.29999923706055L91.4000015258789,51.29999923706055L107,51.29999923706055C107.5999984741211,51.29999923706055,108.0999984741211,51.5,108.5,51.900001525878906C108.9000015258789,52.29999923706055,109.0999984741211,52.79999923706055,109.0999984741211,53.29999923706055L109.0999984741211,59.900001525878906z"/>
<path id="Eyes" d="M74,56.599998474121094C74,58.5,72.5,60.099998474121094,70.5,60.19999694824219C68.5999984741211,60.19999694824219,67,58.69999694824219,66.9000015258789,56.69999694824219C66.9000015258789,54.79999923706055,68.4000015258789,53.20000076293945,70.4000015258789,53.099998474121094C70.4000015258789,53.099998474121094,70.4000015258789,53.099998474121094,70.5,53.099998474121094C72.4000015258789,53.099998474121094,73.9000015258789,54.70000076293945,74,56.599998474121094L74,56.599998474121094zM101.4000015258789,56.599998474121094C101.4000015258789,58.5,99.9000015258789,60.099998474121094,97.9000015258789,60.19999694824219C96,60.19999694824219,94.4000015258789,58.69999694824219,94.30000305175781,56.69999694824219C94.30000305175781,54.79999923706055,95.80000305175781,53.20000076293945,97.80000305175781,53.099998474121094L97.80000305175781,53.099998474121094C99.80000305175781,53.099998474121094,101.4000015258789,54.599998474121094,101.4000015258789,56.599998474121094L101.4000015258789,56.599998474121094z"/>
</g>
</svg>