<svg xmlns="http://www.w3.org/2000/svg" xmlns:xlink="http://www.w3.org/1999/xlink" viewBox= "0 0 142 384" width="142px" height="384px">
<g xmlns="http://www.w3.org/2000/svg" id="GrandmotherV2.svg">
<path id="Dress" fill="#FC92FF" d="M49.400001525878906,123.9000015258789L34.29999923706055,129.6999969482422C34.29999923706055,129.6999969482422,39.79999923706055,139.60000610351562,39.099998474121094,155.5C38.400001525878906,171.39999389648438,41.400001525878906,181.60000610351562,27.100000381469727,198.8000030517578S11.199999809265137,238,13.399999618530273,256.6000061035156C15.600000381469727,275.20001220703125,36.599998474121094,317.70001220703125,38.400001525878906,321.79998779296875C56.20000076293945,327.79998779296875,99.4000015258789,325,101.69999694824219,320.70001220703125C104,316.3999938964844,126.9000015258789,276.29998779296875,128.3000030517578,253.10000610351562C129.6999969482422,229.89999389648438,126,216.10000610351562,114.9000015258789,199.1999969482422C103.80000305175781,182.3000030517578,107.69999694824219,166.39999389648438,108.5,155.1999969482422C109.19999694824219,147.10000610351562,110.30000305175781,139.10000610351562,112.0999984741211,131.1999969482422L96.69999694824219,123.5L91.69999694824219,143.89999389648438L56.29999923706055,143.5L49.400001525878906,123.9000015258789z"/>
<path id="Spots" fill="#FFFFFF" d="M55,276.29998779296875C55.099998474121094,281.20001220703125,51.099998474121094,285.29998779296875,46.20000076293945,285.3999938964844C41.29999923706055,285.5,37.20000076293945,281.5,37.099998474121094,276.6000061035156C37,271.70001220703125,41,267.6000061035156,45.900001525878906,267.5L46,267.5C50.900001525878906,267.5,54.900001525878906,271.3999938964844,55,276.29998779296875zM114.30000305175781,227.6999969482422L114.30000305175781,227.6999969482422C114.30000305175781,222.60000610351562,110.0999984741211,218.60000610351562,105.0999984741211,218.60000610351562C105,218.60000610351562,105,218.60000610351562,104.9000015258789,218.60000610351562C99.80000305175781,218.6999969482422,95.69999694824219,222.89999389648438,95.80000305175781,228C95.9000015258789,233.10000610351562,100.0999984741211,237.1999969482422,105.19999694824219,237.10000610351562C110.30000305175781,237,114.30000305175781,232.8000030517578,114.30000305175781,227.6999969482422zM64.5,201.3000030517578C64.5,196.60000610351562,60.599998474121094,192.8000030517578,55.900001525878906,192.8000030517578C51.099998474121094,192.8000030517578,47.29999923706055,196.60000610351562,47.29999923706055,201.3000030517578C47.29999923706055,206,51.20000076293945,209.8000030517578,55.900001525878906,209.8000030517578C60.70000076293945,209.8000030517578,64.5,206,64.5,201.3000030517578zM103.80000305175781,175.89999389648438C104,175.89999389648438,104.19999694824219,175.89999389648438,104.4000015258789,175.89999389648438C105.4000015258789,175.89999389648438,106.4000015258789,175.6999969482422,107.4000015258789,175.3000030517578C107.30000305175781,170.5,107.5,165.8000030517578,108.0999984741211,161.10000610351562C107,160.5,105.69999694824219,160.1999969482422,104.4000015258789,160.1999969482422C100.0999984741211,160,96.4000015258789,163.39999389648438,96.30000305175781,167.8000030517578C96.0999984741211,172.10000610351562,99.5,175.6999969482422,103.80000305175781,175.89999389648438zM70.30000305175781,153.3000030517578C74.4000015258789,153.39999389648438,77.9000015258789,150.10000610351562,77.9000015258789,146C77.9000015258789,145.3000030517578,77.80000305175781,144.5,77.5999984741211,143.8000030517578L63,143.60000610351562C62.79999923706055,144.3000030517578,62.70000076293945,145,62.70000076293945,145.8000030517578C62.70000076293945,149.89999389648438,66.0999984741211,153.3000030517578,70.30000305175781,153.3000030517578zM115.19999694824219,271.8999938964844C109.80000305175781,271.70001220703125,105.30000305175781,275.8999938964844,105.19999694824219,281.29998779296875C105.0999984741211,286.70001220703125,109.19999694824219,291.20001220703125,114.5999984741211,291.29998779296875C114.80000305175781,291.29998779296875,115,291.29998779296875,115.19999694824219,291.29998779296875C115.5999984741211,291.29998779296875,116.0999984741211,291.29998779296875,116.5,291.20001220703125C118.80000305175781,286.1000061035156,121,280.70001220703125,122.9000015258789,275.3999938964844C121,273.20001220703125,118.19999694824219,271.8999938964844,115.19999694824219,271.8999938964844zM16.100000381469727,219.3000030517578C14.100000381469727,225.6999969482422,13,232.3000030517578,12.699999809265137,238.89999389648438C13.699999809265137,239.1999969482422,14.699999809265137,239.3000030517578,15.800000190734863,239.3000030517578C21.299999237060547,239.39999389648438,25.899999618530273,235,26,229.5C26,223.89999389648438,21.600000381469727,219.39999389648438,16.100000381469727,219.3000030517578zM68.0999984741211,312.20001220703125C63.099998474121094,312.3999938964844,59,316.3999938964844,58.79999923706055,321.5C58.79999923706055,322.70001220703125,59,323.8999938964844,59.5,325C65.4000015258789,325.29998779296875,71.5,325.29998779296875,77.19999694824219,325C77.69999694824219,323.8999938964844,77.9000015258789,322.70001220703125,77.9000015258789,321.3999938964844C77.80000305175781,316.20001220703125,73.30000305175781,312.1000061035156,68.0999984741211,312.20001220703125z"/>
<path id="Body" fill="#FADBBD" d="M70.9000015258789,325.29998779296875C71.19999694824219,334.29998779296875,71.5999984741211,347.6000061035156,71.30000305175781,350.3999938964844C70.9000015258789,354.6000061035156,55.599998474121094,373.6000061035156,39.099998474121094,367.29998779296875S52,343,52,343L45.599998474121094,323.6000061035156C53,324.8999938964844,62.20000076293945,325.3999938964844,70.9000015258789,325.29998779296875zM91.80000305175781,343L98.5999984741211,322.5C93.5999984741211,324,83.69999694824219,325,73,325.29998779296875C72.69999694824219,334.29998779296875,72.30000305175781,347.70001220703125,72.5999984741211,350.3999938964844C73,354.6000061035156,88.30000305175781,373.6000061035156,104.80000305175781,367.29998779296875C121.0999984741211,361,91.80000305175781,343,91.80000305175781,343zM45.29999923706055,91.9000015258789C48.5,99.4000015258789,53.79999923706055,104.9000015258789,59.400001525878906,108.4000015258789C59.400001525878906,112.19999694824219,59.70000076293945,118.0999984741211,56.79999923706055,120C54.70000076293945,121.30000305175781,51.5,122.9000015258789,49.5,123.9000015258789L56.400001525878906,143.5L91.80000305175781,143.8000030517578L96.80000305175781,123.5C94.30000305175781,122.30000305175781,90,120.69999694824219,89.30000305175781,118.5C88.5,116.0999984741211,88.5999984741211,109,88.5999984741211,107.80000305175781C94.0999984741211,104,99.30000305175781,98.4000015258789,102.5999984741211,91.4000015258789C103.9000015258789,93.0999984741211,106.69999694824219,92.30000305175781,108.30000305175781,83.9000015258789C109.4000015258789,78.0999984741211,107.80000305175781,76.4000015258789,106.0999984741211,76.5C106.0999984741211,76.19999694824219,106.0999984741211,76,106.0999984741211,75.69999694824219C106.0999984741211,72.69999694824219,105.80000305175781,63.20000076293945,105.0999984741211,60.400001525878906C101.69999694824219,43.900001525878906,89.0999984741211,36.400001525878906,74.0999984741211,36.400001525878906C59.5,36.400001525878906,47.20000076293945,43.20000076293945,43.400001525878906,59C42.599998474121094,62.20000076293945,42.20000076293945,72.19999694824219,42.20000076293945,75.80000305175781C42.20000076293945,76.0999984741211,42.20000076293945,76.4000015258789,42.20000076293945,76.80000305175781C40.20000076293945,76.19999694824219,38,77.4000015258789,39.20000076293945,84C40.599998474121094,91.9000015258789,43.70000076293945,93.0999984741211,45.29999923706055,91.9000015258789zM129.3000030517578,161.10000610351562C128.89999389648438,138.3000030517578,114.9000015258789,132.60000610351562,111.4000015258789,130.60000610351562C111.4000015258789,130.60000610351562,108.5,150.89999389648438,107.30000305175781,166C106.0999984741211,181.1999969482422,108.69999694824219,191.1999969482422,108.69999694824219,191.1999969482422C105.5,195,101.80000305175781,198.39999389648438,97.9000015258789,201.39999389648438C91.19999694824219,206.5,80.4000015258789,216.3000030517578,80.4000015258789,216.3000030517578C79.5,217,77.5,217.60000610351562,75.0999984741211,218.10000610351562C69.30000305175781,215.5,61.599998474121094,212.89999389648438,60.20000076293945,211C58.70000076293945,208.89999389648438,42.79999923706055,187.6999969482422,40.900001525878906,184.10000610351562C39,180.60000610351562,40.900001525878906,171.6999969482422,40.599998474121094,158.1999969482422C40.29999923706055,144.60000610351562,35.400001525878906,129.1999969482422,35.400001525878906,129.1999969482422L25.700000762939453,134C19.600000381469727,137.3000030517578,16.799999237060547,139.5,16,154.5C15.199999809265137,169.5,14.100000381469727,189.3000030517578,24.299999237060547,199.39999389648438C33.29999923706055,208.3000030517578,52.70000076293945,219.39999389648438,58.29999923706055,222.60000610351562C55.900001525878906,225.10000610351562,53.900001525878906,228.8000030517578,55.900001525878906,232C57.599998474121094,234.8000030517578,63.5,234.5,69,233.5C70.0999984741211,234.39999389648438,71.19999694824219,235.1999969482422,72.0999984741211,235.5C76.5999984741211,237.39999389648438,86.69999694824219,235.89999389648438,88.5,233C89.5,231.1999969482422,88,228.39999389648438,85.5999984741211,225.6999969482422C87.4000015258789,225,90.9000015258789,223.5,95.19999694824219,221.6999969482422C101.4000015258789,219,122.0999984741211,206.89999389648438,125.5999984741211,202.60000610351562C129.10000610351562,198.3000030517578,129.6999969482422,183.8000030517578,129.3000030517578,161.10000610351562z"/>
<path id="DressBorder" d="M104.5,158.5C105.0895004272461,158.5,105.714599609375,158.5854949951172,106.33760070800781,158.7198028564453C106.22579956054688,159.83470153808594,106.11930084228516,160.93899536132812,106.01899719238281,162.03070068359375C105.5093994140625,161.88760375976562,104.99210357666016,161.8000030517578,104.4000015258789,161.8000030517578C104.4000015258789,161.8000030517578,104.30000305175781,161.8000030517578,104.19999694824219,161.8000030517578C100.80000305175781,161.8000030517578,98,164.39999389648438,97.9000015258789,167.8000030517578C97.80000305175781,171.1999969482422,100.5,174.10000610351562,103.9000015258789,174.1999969482422C104,174.1999969482422,104.0999984741211,174.1999969482422,104.30000305175781,174.1999969482422C104.66580200195312,174.1999969482422,105.0177001953125,174.18609619140625,105.34429931640625,174.14700317382812C105.34500122070312,175.26109313964844,105.3656005859375,176.32620239257812,105.40119934082031,177.34930419921875C105.06410217285156,177.3813018798828,104.72830200195312,177.39999389648438,104.4000015258789,177.39999389648438C104.30000305175781,177.39999389648438,104.19999694824219,177.39999389648438,104.0999984741211,177.39999389648438C104,177.39999389648438,103.9000015258789,177.39999389648438,103.80000305175781,177.39999389648438C98.5999984741211,177.1999969482422,94.5,172.8000030517578,94.69999694824219,167.60000610351562S99.30000305175781,158.3000030517578,104.5,158.5zM94.0999984741211,228C94,222,98.80000305175781,217,104.80000305175781,216.89999389648438L105,216.89999389648438C111,216.89999389648438,115.80000305175781,221.6999969482422,115.9000015258789,227.6999969482422C116,233.60000610351562,111.19999694824219,238.60000610351562,105.19999694824219,238.6999969482422C105.0999984741211,238.6999969482422,105.0999984741211,238.6999969482422,105,238.6999969482422C99.0999984741211,238.6999969482422,94.19999694824219,233.89999389648438,94.0999984741211,228zM97.4000015258789,228C97.4000015258789,232.1999969482422,100.9000015258789,235.60000610351562,105.0999984741211,235.5C109.30000305175781,235.39999389648438,112.69999694824219,231.89999389648438,112.5999984741211,227.6999969482422C112.5999984741211,223.5,109.19999694824219,220.1999969482422,105.0999984741211,220.3000030517578C105,220.3000030517578,105,220.3000030517578,105,220.3000030517578L104.9000015258789,220.3000030517578C100.69999694824219,220.3000030517578,97.4000015258789,223.8000030517578,97.4000015258789,228zM56.599998474121094,276.29998779296875C56.599998474121094,279.1000061035156,55.599998474121094,281.79998779296875,53.599998474121094,283.79998779296875C51.70000076293945,285.79998779296875,49,287,46.20000076293945,287C46.099998474121094,287,46.099998474121094,287,46,287C43.29999923706055,287,40.70000076293945,285.8999938964844,38.70000076293945,284C36.70000076293945,282.1000061035156,35.5,279.3999938964844,35.5,276.6000061035156C35.400001525878906,270.79998779296875,40.099998474121094,266,45.900001525878906,265.8999938964844L46.099998474121094,265.8999938964844C51.900001525878906,265.8999938964844,56.599998474121094,270.5,56.599998474121094,276.29998779296875zM53.29999923706055,276.29998779296875C53.29999923706055,272.29998779296875,50.099998474121094,269.1000061035156,46.099998474121094,269.1000061035156L45.900001525878906,269.1000061035156C41.900001525878906,269.1000061035156,38.599998474121094,272.5,38.70000076293945,276.5C38.70000076293945,278.3999938964844,39.5,280.20001220703125,40.900001525878906,281.6000061035156C42.29999923706055,283,44.20000076293945,283.70001220703125,46.099998474121094,283.70001220703125C48,283.70001220703125,49.79999923706055,282.8999938964844,51.20000076293945,281.5C52.599998474121094,280.1000061035156,53.29999923706055,278.29998779296875,53.29999923706055,276.29998779296875zM121.69950103759766,206.98159790039062C128.69949340820312,220.58160400390625,131.1999969482422,234.39999389648438,130,253.3000030517578C129.10000610351562,267.70001220703125,120.0999984741211,290.8999938964844,103.9000015258789,320.29998779296875C103.5999984741211,320.8999938964844,103.4000015258789,321.29998779296875,103.19999694824219,321.6000061035156C101.5999984741211,324.70001220703125,88.9000015258789,326.6000061035156,74.69999694824219,326.8999938964844C72.69999694824219,327,70.80000305175781,327,68.80000305175781,327C65.5999984741211,327,62.5,327,59.5,326.79998779296875C59.29999923706055,326.79998779296875,59.20000076293945,326.79998779296875,59,326.70001220703125C50.599998474121094,326.20001220703125,43,325.20001220703125,38,323.5C37.5,323.29998779296875,37.20000076293945,323,37,322.6000061035156C36.79999923706055,322.20001220703125,36.5,321.5,36,320.5C21.299999237060547,289.70001220703125,13.100000381469727,268.29998779296875,11.800000190734863,256.8999938964844C11,250.6999969482422,10.800000190734863,244.6999969482422,11.100000381469727,239.10000610351562C11.100000381469727,239,11.100000381469727,239,11.100000381469727,238.89999389648438C11.399999618530273,232.10000610351562,12.600000381469727,225.39999389648438,14.600000381469727,218.89999389648438C14.600000381469727,218.8000030517578,14.699999809265137,218.8000030517578,14.699999809265137,218.6999969482422C16.799999237060547,212.1999969482422,20.588699340820312,205.08340454101562,24.388700485229492,199.7834014892578C25.088699340820312,200.4833984375,25.888700485229492,201.2834014892578,26.788700103759766,201.9833984375C23.588699340820312,206.38340759277344,20.200000762939453,212.6999969482422,18.299999237060547,218C20.600000381469727,218.5,22.700000762939453,219.60000610351562,24.299999237060547,221.3000030517578C26.5,223.60000610351562,27.600000381469727,226.5,27.600000381469727,229.60000610351562C27.5,236,22.200000762939453,241.10000610351562,15.800000190734863,241C15.800000190734863,241,15.699999809265137,241,15.600000381469727,241C15.199999809265137,241,14.800000190734863,240.89999389648438,14.399999618530273,240.89999389648438C14.199999809265137,245.8000030517578,14.5,251,15.100000381469727,256.5C16,264.1000061035156,20.799999237060547,281.1000061035156,39,319C39.29999923706055,319.6000061035156,39.5,320.1000061035156,39.70000076293945,320.5C44.400001525878906,322,50.70000076293945,322.8999938964844,57.400001525878906,323.29998779296875C57.29999923706055,322.70001220703125,57.20000076293945,322.1000061035156,57.20000076293945,321.5C57.400001525878906,315.5,62.099998474121094,310.79998779296875,68,310.6000061035156C74.19999694824219,310.3999938964844,79.4000015258789,315.20001220703125,79.5999984741211,321.3999938964844C79.5999984741211,322,79.5,322.70001220703125,79.4000015258789,323.29998779296875C90.19999694824219,322.70001220703125,99,321.29998779296875,100.4000015258789,319.79998779296875C100.5,319.6000061035156,100.80000305175781,319.1000061035156,101.0999984741211,318.5C106.4000015258789,308.79998779296875,110.69999694824219,300.29998779296875,114.0999984741211,292.8999938964844C111.19999694824219,292.79998779296875,108.5999984741211,291.5,106.5999984741211,289.3999938964844C104.5,287.20001220703125,103.4000015258789,284.29998779296875,103.5,281.29998779296875C103.5999984741211,278.29998779296875,104.9000015258789,275.5,107.0999984741211,273.3999938964844C109.30000305175781,271.29998779296875,112.19999694824219,270.20001220703125,115.19999694824219,270.29998779296875C117.80000305175781,270.29998779296875,120.30000305175781,271.1000061035156,122.30000305175781,272.70001220703125C125.4000015258789,263.70001220703125,126.5,257.3999938964844,126.80000305175781,253C127.9000015258789,234.89999389648438,125.69950103759766,221.88160705566406,118.99949645996094,208.88160705566406C119.99949645996094,208.1815948486328,120.89949798583984,207.5814971923828,121.69950103759766,206.98159790039062zM14.399999618530273,237.5C14.800000190734863,237.60000610351562,15.300000190734863,237.60000610351562,15.699999809265137,237.60000610351562C15.800000190734863,237.60000610351562,15.800000190734863,237.60000610351562,15.800000190734863,237.60000610351562C20.399999618530273,237.8000030517578,24.200000762939453,234,24.299999237060547,229.39999389648438C24.299999237060547,227.10000610351562,23.5,225,21.899999618530273,223.39999389648438C20.700000762939453,222.10000610351562,19.100000381469727,221.3000030517578,17.299999237060547,221C15.800000190734863,226.1999969482422,14.800000190734863,231.6999969482422,14.399999618530273,237.5zM76.19999694824219,321.5C76.0999984741211,317.20001220703125,72.4000015258789,313.70001220703125,68,313.8999938964844C63.79999923706055,314.1000061035156,60.400001525878906,317.3999938964844,60.29999923706055,321.6000061035156C60.29999923706055,322.20001220703125,60.400001525878906,322.8999938964844,60.599998474121094,323.5C65.5,323.70001220703125,70.80000305175781,323.70001220703125,76,323.5C76.19999694824219,322.79998779296875,76.30000305175781,322.20001220703125,76.19999694824219,321.5zM121,275.79998779296875C119.4000015258789,274.20001220703125,117.4000015258789,273.3999938964844,115.19999694824219,273.3999938964844C115.0999984741211,273.3999938964844,115.0999984741211,273.3999938964844,115.0999984741211,273.3999938964844C115,273.3999938964844,114.9000015258789,273.3999938964844,114.80000305175781,273.3999938964844C112.80000305175781,273.3999938964844,110.80000305175781,274.20001220703125,109.30000305175781,275.6000061035156C107.69999694824219,277.1000061035156,106.80000305175781,279.1000061035156,106.69999694824219,281.29998779296875C106.5999984741211,283.5,107.4000015258789,285.5,108.9000015258789,287.1000061035156C110.4000015258789,288.70001220703125,112.4000015258789,289.6000061035156,114.5999984741211,289.70001220703125C114.80000305175781,289.70001220703125,114.9000015258789,289.70001220703125,115.0999984741211,289.70001220703125C115.19999694824219,289.70001220703125,115.30000305175781,289.70001220703125,115.4000015258789,289.70001220703125C117.5999984741211,284.8999938964844,119.5,280.20001220703125,121,275.79998779296875zM57.900001525878906,207.89999389648438C58.79999923706055,209.10000610351562,59.5,210,59.900001525878906,210.60000610351562C63.599998474121094,209.10000610351562,66.19999694824219,205.5,66.19999694824219,201.3000030517578C66.19999694824219,195.6999969482422,61.599998474121094,191.1999969482422,56,191.1999969482422C52.900001525878906,191.1999969482422,50.099998474121094,192.60000610351562,48.20000076293945,194.8000030517578C48.900001525878906,195.6999969482422,49.5,196.60000610351562,50.20000076293945,197.5C51.400001525878906,195.6999969482422,53.599998474121094,194.5,56,194.5C59.900001525878906,194.5,63,197.5,63,201.3000030517578C63,204.5,60.900001525878906,207.10000610351562,57.900001525878906,207.89999389648438zM34.672401428222656,127.69850158691406L48.79999923706055,122.5C49.20000076293945,122.30000305175781,49.70000076293945,122.30000305175781,50.099998474121094,122.5C50.5,122.5999984741211,50.900001525878906,123,51,123.4000015258789L57.5,141.89999389648438L64.80000305175781,142L77.80000305175781,142.3000030517578C77.9000015258789,142.3000030517578,77.9000015258789,142.3000030517578,78,142.3000030517578L90.5999984741211,142.39999389648438L95.30000305175781,123.19999694824219C95.4000015258789,122.69999694824219,95.80000305175781,122.30000305175781,96.19999694824219,122.0999984741211C96.5999984741211,121.9000015258789,97.19999694824219,121.9000015258789,97.5999984741211,122.0999984741211L111.30000305175781,129L109.5999984741211,131.6999969482422L97.9000015258789,125.80000305175781L93.4000015258789,144.1999969482422C93.19999694824219,144.89999389648438,92.5999984741211,145.39999389648438,91.80000305175781,145.39999389648438L79.5999984741211,145.3000030517578C79.5999984741211,145.5,79.5999984741211,145.6999969482422,79.5999984741211,145.89999389648438C79.5999984741211,148.3000030517578,78.5999984741211,150.60000610351562,76.80000305175781,152.3000030517578C75.0999984741211,153.89999389648438,72.9000015258789,154.8000030517578,70.5,154.8000030517578C70.4000015258789,154.8000030517578,70.4000015258789,154.8000030517578,70.30000305175781,154.8000030517578C65.30000305175781,154.8000030517578,61.20000076293945,150.6999969482422,61.099998474121094,145.6999969482422C61.099998474121094,145.5,61.099998474121094,145.3000030517578,61.099998474121094,145.10000610351562L56.29999923706055,145.10000610351562C55.599998474121094,145.10000610351562,55,144.60000610351562,54.79999923706055,144L48.400001525878906,126L37.29999923706055,130.3000030517578C37,129.5,34.872398376464844,127.69850158691406,34.672401428222656,127.69850158691406zM64.19999694824219,145.60000610351562C64.30000305175781,148.89999389648438,66.9000015258789,151.5,70.19999694824219,151.5C70.30000305175781,151.5,70.30000305175781,151.5,70.4000015258789,151.5C72,151.5,73.4000015258789,151,74.5,149.89999389648438C75.5999984741211,148.8000030517578,76.30000305175781,147.39999389648438,76.30000305175781,145.8000030517578C76.30000305175781,145.6999969482422,76.30000305175781,145.5,76.30000305175781,145.3000030517578L64.5999984741211,145.1999969482422L64.30000305175781,145.1999969482422C64.30000305175781,145.39999389648438,64.30000305175781,145.60000610351562,64.19999694824219,145.60000610351562z"/>
<path id="BodyBorder" d="M44.5,93.9000015258789C44.599998474121094,93.9000015258789,44.70000076293945,93.9000015258789,44.79999923706055,93.9000015258789C47.900001525878906,100.5,52.599998474121094,105.5999984741211,57.70000076293945,109.0999984741211C57.70000076293945,112.5,57.5,117.5999984741211,55.79999923706055,118.5999984741211C53.46189880371094,120.0614013671875,49.74420166015625,121.94529724121094,47.86759948730469,122.85649871826172L48.79999923706055,122.5C49.20000076293945,122.30000305175781,49.70000076293945,122.30000305175781,50.099998474121094,122.5C50.5,122.5999984741211,50.900001525878906,123,51,123.4000015258789L51.385398864746094,124.4968032836914C53.28820037841797,123.52130126953125,55.63589859008789,122.27369689941406,57.400001525878906,121.19999694824219C60,119.5999984741211,60.599998474121094,114.69999694824219,60.79999923706055,110.9000015258789C65.4000015258789,113.4000015258789,70.0999984741211,114.69999694824219,74.19999694824219,114.69999694824219C78,114.69999694824219,82.4000015258789,113.4000015258789,86.69999694824219,110.9000015258789C86.80000305175781,113.5999984741211,87,117.30000305175781,87.5,118.9000015258789C88.30000305175781,121.4000015258789,91.9000015258789,123,94.69999694824219,124.30000305175781C94.79630279541016,124.3385009765625,94.89800262451172,124.38300323486328,94.99949645996094,124.42749786376953L95.30000305175781,123.19999694824219C95.4000015258789,122.69999694824219,95.80000305175781,122.30000305175781,96.19999694824219,122.0999984741211C96.5999984741211,121.9000015258789,97.19999694824219,121.9000015258789,97.5999984741211,122.0999984741211L98.29149627685547,122.44830322265625C97.69920349121094,122.09349822998047,96.90760040283203,121.75389862060547,96,121.30000305175781C94.19999694824219,120.5,90.9000015258789,119,90.5999984741211,117.80000305175781C90.19999694824219,116.4000015258789,90,112,90,108.80000305175781C95.19999694824219,105.0999984741211,100.0999984741211,99.9000015258789,103.4000015258789,93.5C103.5,93.5,103.69999694824219,93.5999984741211,103.80000305175781,93.5999984741211C103.9000015258789,93.5999984741211,104,93.5999984741211,104,93.5999984741211C106,93.5999984741211,108.5,91.9000015258789,110,84.0999984741211C111.19999694824219,77.80000305175781,109.4000015258789,75.69999694824219,107.80000305175781,75.0999984741211C107.80000305175781,71.9000015258789,107.5,62.900001525878906,106.80000305175781,60C103.5999984741211,44.20000076293945,91.4000015258789,34.70000076293945,74.19999694824219,34.70000076293945C57.29999923706055,34.70000076293945,45.599998474121094,43.400001525878906,41.900001525878906,58.5C41.099998474121094,61.70000076293945,40.70000076293945,70.9000015258789,40.70000076293945,74.9000015258789C40.099998474121094,75,39.5,75.30000305175781,39.099998474121094,75.69999694824219C37.400001525878906,77.0999984741211,37,79.9000015258789,37.79999923706055,84.0999984741211C39.5,92.80000305175781,42.900001525878906,93.9000015258789,44.5,93.9000015258789zM41.29999923706055,78.4000015258789C41.5,78.19999694824219,41.900001525878906,78.4000015258789,42.099998474121094,78.4000015258789C42.900001525878906,78.69999694824219,43.5,79.4000015258789,43.599998474121094,79.69999694824219C43.79999923706055,80.5999984741211,44.599998474121094,81.19999694824219,45.5,81C46.400001525878906,80.80000305175781,47,80,46.79999923706055,79.0999984741211C46.599998474121094,77.69999694824219,45.400001525878906,76.4000015258789,44.099998474121094,75.69999694824219C44.099998474121094,72.0999984741211,44.5,62.400001525878906,45.29999923706055,59.400001525878906C47.20000076293945,51.400001525878906,53.599998474121094,38.099998474121094,74.4000015258789,38.099998474121094C90.19999694824219,38.099998474121094,100.9000015258789,46.400001525878906,103.9000015258789,60.79999923706055C104.4000015258789,63.20000076293945,104.80000305175781,71.69999694824219,104.80000305175781,75.30000305175781C103.0999984741211,76,101.69999694824219,77.5999984741211,101.4000015258789,79.0999984741211C101.19999694824219,80,101.80000305175781,80.80000305175781,102.69999694824219,81C103.5999984741211,81.19999694824219,104.4000015258789,80.5999984741211,104.5999984741211,79.69999694824219C104.69999694824219,79.0999984741211,106.0999984741211,78,106.69999694824219,78.19999694824219C107.0999984741211,78.30000305175781,107.80000305175781,79.69999694824219,107,83.69999694824219C105.9000015258789,89.30000305175781,104.5,90.4000015258789,104.19999694824219,90.5999984741211C104.0999984741211,90.5,103.9000015258789,90.0999984741211,103.9000015258789,89.5C103.9000015258789,88.5999984741211,103.0999984741211,87.9000015258789,102.19999694824219,88C101.30000305175781,88,100.5999984741211,88.80000305175781,100.69999694824219,89.69999694824219C100.69999694824219,90.4000015258789,100.9000015258789,91,101.0999984741211,91.5C95.0999984741211,103.69999694824219,83.0999984741211,111.69999694824219,74.5,111.69999694824219C66.5,111.69999694824219,53.79999923706055,105.19999694824219,47.70000076293945,92.19999694824219C48.099998474121094,91.5,48.400001525878906,90.69999694824219,48.400001525878906,89.9000015258789C48.400001525878906,89,47.70000076293945,88.19999694824219,46.79999923706055,88.19999694824219C45.900001525878906,88.19999694824219,45.099998474121094,88.9000015258789,45.099998474121094,89.80000305175781C45.099998474121094,90.4000015258789,44.79999923706055,90.80000305175781,44.599998474121094,90.80000305175781C44.099998474121094,90.80000305175781,42.400001525878906,89.69999694824219,41.20000076293945,83.80000305175781C40.400001525878906,80.19999694824219,40.900001525878906,78.69999694824219,41.29999923706055,78.4000015258789zM111.30000305175781,362.29998779296875C111,365.1000061035156,109,367.29998779296875,105.30000305175781,368.70001220703125C102.9000015258789,369.6000061035156,100.4000015258789,370.1000061035156,97.9000015258789,370.1000061035156C93.4000015258789,370.1000061035156,88.80000305175781,368.70001220703125,84.19999694824219,365.79998779296875C78.36229705810547,362.160888671875,73.90989685058594,356.9735107421875,71.96420288085938,353.3245849609375C70.03130340576172,356.9598083496094,65.54620361328125,362.2408142089844,59.599998474121094,365.8999938964844C55.099998474121094,368.70001220703125,50.5,370.20001220703125,46,370.20001220703125C43.5,370.20001220703125,41,369.70001220703125,38.599998474121094,368.79998779296875C34.900001525878906,367.3999938964844,32.79999923706055,365.20001220703125,32.599998474121094,362.3999938964844C31.899999618530273,354.70001220703125,45.79999923706055,345.1000061035156,50.20000076293945,342.29998779296875L43.900001525878906,323.29998779296875C45.099998474121094,323.5,46.29999923706055,323.79998779296875,47.5,323.8999938964844L53.599998474121094,342.5C53.79999923706055,343.20001220703125,53.5,344,52.900001525878906,344.3999938964844C46,348.6000061035156,35.29999923706055,357.1000061035156,35.79999923706055,362.1000061035156C35.900001525878906,363.6000061035156,37.29999923706055,364.79998779296875,39.79999923706055,365.79998779296875C46.900001525878906,368.5,53.599998474121094,365.8999938964844,57.900001525878906,363.20001220703125C65.30000305175781,358.6000061035156,69.5999984741211,351.79998779296875,69.80000305175781,350.29998779296875C70,347.79998779296875,69.69999694824219,335.5,69.4000015258789,325.3999938964844C70.00250244140625,325.3398132324219,70.64510345458984,325.2880859375,71.29830169677734,325.24969482421875C71.29879760742188,325.2333068847656,71.29940032958984,325.21630859375,71.29989624023438,325.20001220703125C72.39990234375,325.20001220703125,73.4999008178711,325.20001220703125,74.59989929199219,325.1000061035156C74.29989624023438,335.29998779296875,73.9999008178711,347.6000061035156,74.19989776611328,350.1000061035156C74.29989624023438,351.6000061035156,78.59989929199219,358.29998779296875,85.9999008178711,363C90.29989624023438,365.70001220703125,96.9999008178711,368.3999938964844,104.19989776611328,365.6000061035156C106.69989776611328,364.6000061035156,107.9999008178711,363.3999938964844,108.19989776611328,361.8999938964844C108.69989776611328,356.8999938964844,97.9999008178711,348.3999938964844,91.09989929199219,344.20001220703125C90.4999008178711,343.79998779296875,90.19989776611328,343,90.39990234375,342.29998779296875L96.79989624023438,322.79998779296875C98.39990234375,322.3999938964844,99.69989776611328,322,100.59989929199219,321.6000061035156L93.79989624023438,342.1000061035156C98.0999984741211,345.1000061035156,112,354.6000061035156,111.30000305175781,362.29998779296875zM130.89999389648438,161C130.5,139,117.80000305175781,132.10000610351562,113.0999984741211,129.60000610351562C112.80000305175781,129.39999389648438,112.5,129.3000030517578,112.19999694824219,129.10000610351562C111.69999694824219,128.8000030517578,111.19999694824219,128.8000030517578,110.69999694824219,129C110.19999694824219,129.1999969482422,109.9000015258789,129.6999969482422,109.80000305175781,130.1999969482422C109.80000305175781,130.39999389648438,106.9000015258789,150.6999969482422,105.69999694824219,165.6999969482422C104.5999984741211,178.60000610351562,106.30000305175781,187.89999389648438,107,190.60000610351562C104,194.10000610351562,100.5999984741211,197.1999969482422,97,200C90.4000015258789,205.10000610351562,79.5,214.89999389648438,79.5,214.89999389648438C78.9000015258789,215.39999389648438,77.30000305175781,215.8000030517578,75.4000015258789,216.1999969482422C73.9000015258789,215.5,72.30000305175781,214.89999389648438,70.69999694824219,214.1999969482422C67.19999694824219,212.8000030517578,62.400001525878906,210.8000030517578,61.70000076293945,209.8000030517578L61.400001525878906,209.39999389648438C50.5,194.8000030517578,43.599998474121094,185.1999969482422,42.5,183.1999969482422C41.599998474121094,181.5,41.79999923706055,177.39999389648438,42.099998474121094,172.3000030517578C42.29999923706055,168.39999389648438,42.599998474121094,163.60000610351562,42.400001525878906,158C42.099998474121094,144.3000030517578,37.29999923706055,129.1999969482422,37.099998474121094,128.5C37,128,36.599998474121094,127.69999694824219,36.20000076293945,127.5C35.79999923706055,127.30000305175781,35.29999923706055,127.30000305175781,34.79999923706055,127.5L25.100000381469727,132.3000030517578C18.200000762939453,136,15.399999618530273,139,14.5,154.10000610351562C13.699999809265137,169.10000610351562,12.5,189.60000610351562,23.299999237060547,200.1999969482422C31.700000762939453,208.5,49,218.6999969482422,56,222.6999969482422C55.400001525878906,223.5,54.900001525878906,224.3000030517578,54.5,225.1999969482422C53.29999923706055,227.89999389648438,53.400001525878906,230.39999389648438,54.70000076293945,232.5C56,234.6999969482422,59.099998474121094,235.39999389648438,62.5,235.39999389648438C64.5,235.39999389648438,66.5999984741211,235.1999969482422,68.69999694824219,234.8000030517578C69.69999694824219,235.60000610351562,70.69999694824219,236.1999969482422,71.5999984741211,236.60000610351562C73.19999694824219,237.3000030517578,75.30000305175781,237.60000610351562,77.5999984741211,237.60000610351562C82.69999694824219,237.60000610351562,88.4000015258789,236.10000610351562,90,233.39999389648438C91.30000305175781,231.3000030517578,90.19999694824219,228.60000610351562,88.4000015258789,226C90.30000305175781,225.1999969482422,93,224.10000610351562,96,222.8000030517578C101.9000015258789,220.3000030517578,123.0999984741211,208,127,203.1999969482422C130.3000030517578,199.39999389648438,131.39999389648438,187.89999389648438,130.89999389648438,161zM57.20000076293945,231.1999969482422C56.5,230,56.400001525878906,228.5,57.20000076293945,226.89999389648438C57.599998474121094,226.10000610351562,58,225.39999389648438,58.599998474121094,224.6999969482422C59.400001525878906,225.8000030517578,62.20000076293945,229.3000030517578,65.30000305175781,232.39999389648438C61.5,232.89999389648438,58.099998474121094,232.6999969482422,57.20000076293945,231.1999969482422zM87,232.1999969482422C86.9000015258789,232.39999389648438,86.69999694824219,232.5,86.5999984741211,232.6999969482422C85.30000305175781,230.3000030517578,81.5,226.3000030517578,79.4000015258789,224.89999389648438C78.9000015258789,224.60000610351562,78.30000305175781,224.6999969482422,78,225.1999969482422C77.69999694824219,225.6999969482422,77.80000305175781,226.3000030517578,78.30000305175781,226.60000610351562C80.5999984741211,228.10000610351562,84,232.10000610351562,84.9000015258789,233.60000610351562C84.30000305175781,233.8000030517578,83.5,234,82.80000305175781,234.1999969482422C81.80000305175781,233.10000610351562,79.80000305175781,231,75.19999694824219,226.8000030517578C74.80000305175781,226.39999389648438,74.19999694824219,226.39999389648438,73.80000305175781,226.89999389648438C73.4000015258789,227.3000030517578,73.4000015258789,227.89999389648438,73.9000015258789,228.3000030517578C76.69999694824219,230.89999389648438,79.0999984741211,233.1999969482422,80.5,234.6999969482422C79.9000015258789,234.8000030517578,79.4000015258789,234.8000030517578,78.80000305175781,234.89999389648438C78.69999694824219,234.6999969482422,78.4000015258789,234.60000610351562,78.19999694824219,234.5C76.30000305175781,234.1999969482422,73.30000305175781,230.8000030517578,71.5,228.8000030517578C71.0999984741211,228.39999389648438,70.80000305175781,228,70.5,227.6999969482422C70.0999984741211,227.3000030517578,69.5,227.3000030517578,69.0999984741211,227.60000610351562C68.69999694824219,228,68.69999694824219,228.60000610351562,69,229C69.30000305175781,229.3000030517578,69.5999984741211,229.6999969482422,70,230.10000610351562C71.30000305175781,231.60000610351562,72.9000015258789,233.3000030517578,74.5,234.60000610351562C73.9000015258789,234.5,73.30000305175781,234.3000030517578,72.80000305175781,234.10000610351562C69.4000015258789,232.6999969482422,63.29999923706055,225.3000030517578,61.20000076293945,222.60000610351562C61.099998474121094,222.5,61,222.3000030517578,60.79999923706055,222.1999969482422C60.5,222,59.900001525878906,221.6999969482422,58.599998474121094,220.89999389648438C52.5,217.39999389648438,34.099998474121094,206.6999969482422,25.600000381469727,198.3000030517578C15.899999618530273,188.6999969482422,17,169,17.799999237060547,154.6999969482422C18.600000381469727,139.89999389648438,21.299999237060547,138.5,26.600000381469727,135.60000610351562L34.5,131.6999969482422C35.79999923706055,136.10000610351562,38.900001525878906,147.89999389648438,39.099998474121094,158.39999389648438C39.20000076293945,163.89999389648438,39,168.60000610351562,38.79999923706055,172.5C38.5,178.60000610351562,38.29999923706055,182.60000610351562,39.599998474121094,185.10000610351562C41.29999923706055,188.10000610351562,52.29999923706055,203.10000610351562,58.70000076293945,211.6999969482422L59,212.10000610351562C60.20000076293945,213.8000030517578,63.79999923706055,215.3000030517578,69.4000015258789,217.60000610351562C73.30000305175781,219.1999969482422,77.4000015258789,220.8000030517578,79.30000305175781,222.3000030517578C84.5,226,87.80000305175781,230.8000030517578,87,232.1999969482422zM124.30000305175781,201.60000610351562C121,205.6999969482422,100.5999984741211,217.60000610351562,94.5,220.1999969482422C91,221.6999969482422,87.9000015258789,223,86,223.8000030517578C84.4000015258789,222.10000610351562,82.5999984741211,220.60000610351562,81.0999984741211,219.5C80.69999694824219,219.1999969482422,80.0999984741211,218.8000030517578,79.5,218.5C80.30000305175781,218.1999969482422,80.9000015258789,217.89999389648438,81.4000015258789,217.5C81.5,217.39999389648438,92.30000305175781,207.6999969482422,98.80000305175781,202.6999969482422C102.80000305175781,199.60000610351562,106.5999984741211,196.10000610351562,109.9000015258789,192.1999969482422C110.19999694824219,191.8000030517578,110.4000015258789,191.1999969482422,110.19999694824219,190.6999969482422C110.19999694824219,190.60000610351562,107.5999984741211,180.6999969482422,108.80000305175781,166C109.80000305175781,154.10000610351562,111.80000305175781,138.8000030517578,112.5999984741211,133C117.5,135.6999969482422,127.30000305175781,142.39999389648438,127.60009765625,161C128,178.6999969482422,127.80000305175781,197.3000030517578,124.30000305175781,201.60000610351562z"/>
<path id="Shoes" fill="#A04C9C" d="M71.4000015258789,343.6000061035156C71.5,346.79998779296875,71.5,349.29998779296875,71.4000015258789,350.29998779296875C71,354.5,55.599998474121094,373.6000061035156,39.20000076293945,367.20001220703125C29.899999618530273,363.6000061035156,35.20000076293945,356.3999938964844,41.5,350.70001220703125C40.099998474121094,353.8999938964844,40,356.70001220703125,41.5,358.3999938964844C44.70000076293945,362.20001220703125,54.5,359.6000061035156,63.29999923706055,352.3999938964844C66.4000015258789,350,69.0999984741211,347,71.4000015258789,343.6000061035156zM102.30000305175781,350.79998779296875C103.69999694824219,354,103.80000305175781,356.79998779296875,102.30000305175781,358.5C99.0999984741211,362.29998779296875,89.30000305175781,359.70001220703125,80.5,352.5C77.30000305175781,350,74.5999984741211,347,72.4000015258789,343.6000061035156C72.30000305175781,346.79998779296875,72.30000305175781,349.29998779296875,72.4000015258789,350.29998779296875C72.80000305175781,354.5,88.0999984741211,373.6000061035156,104.5999984741211,367.20001220703125C113.9000015258789,363.70001220703125,108.69999694824219,356.5,102.30000305175781,350.79998779296875z"/>
<path id="ShoesBorder" d="M97.80000305175781,370.20001220703125C93.30000305175781,370.20001220703125,88.69999694824219,368.79998779296875,84.19999694824219,365.8999938964844C76.4000015258789,361,71.0999984741211,353.5,70.80000305175781,350.5C70.69999694824219,349.3999938964844,70.69999694824219,346.8999938964844,70.80000305175781,343.6000061035156C70.80000305175781,342.8999938964844,71.30000305175781,342.29998779296875,72,342.1000061035156C72.69999694824219,341.8999938964844,73.4000015258789,342.20001220703125,73.80000305175781,342.79998779296875C76,346,78.5999984741211,348.8999938964844,81.5999984741211,351.29998779296875L81.5999984741211,351.29998779296875C90.19999694824219,358.29998779296875,98.80000305175781,360.20001220703125,101.0999984741211,357.5C102.0999984741211,356.29998779296875,102,354.1000061035156,100.80000305175781,351.5C100.5,350.79998779296875,100.69999694824219,350,101.30000305175781,349.5C101.9000015258789,349.1000061035156,102.80000305175781,349.1000061035156,103.30000305175781,349.6000061035156C109.0999984741211,354.79998779296875,111.80000305175781,359.29998779296875,111.0999984741211,362.8999938964844C110.5999984741211,365.5,108.5999984741211,367.5,105.0999984741211,368.79998779296875C102.80000305175781,369.70001220703125,100.30000305175781,370.20001220703125,97.80000305175781,370.20001220703125zM74,348.3999938964844C74,349.29998779296875,74,349.8999938964844,74.0999984741211,350.20001220703125C74.19999694824219,351.70001220703125,78.5,358.5,85.9000015258789,363.1000061035156C90.19999694824219,365.79998779296875,96.9000015258789,368.5,104.0999984741211,365.70001220703125C106.5,364.79998779296875,107.80000305175781,363.6000061035156,108,362.29998779296875C108.30000305175781,360.70001220703125,107.30000305175781,358.3999938964844,105,355.79998779296875C104.9000015258789,357.29998779296875,104.4000015258789,358.5,103.5999984741211,359.6000061035156C99.69999694824219,364.29998779296875,89.30000305175781,361.79998779296875,79.5999984741211,353.79998779296875C77.5999984741211,352.20001220703125,75.69999694824219,350.3999938964844,74,348.3999938964844zM46,370.20001220703125C43.5,370.20001220703125,41,369.70001220703125,38.599998474121094,368.79998779296875C35.099998474121094,367.5,33.099998474121094,365.5,32.70000076293945,362.8999938964844C32,359.29998779296875,34.70000076293945,354.79998779296875,40.5,349.6000061035156C41.099998474121094,349.1000061035156,41.900001525878906,349.1000061035156,42.5,349.5C43.099998474121094,349.8999938964844,43.29999923706055,350.79998779296875,43,351.5C41.79999923706055,354.20001220703125,41.70000076293945,356.3999938964844,42.70000076293945,357.5C45,360.20001220703125,53.599998474121094,358.29998779296875,62.20000076293945,351.29998779296875L62.20000076293945,351.29998779296875C65.19999694824219,348.8999938964844,67.9000015258789,346,70,342.79998779296875C70.4000015258789,342.20001220703125,71.0999984741211,341.8999938964844,71.80000305175781,342.1000061035156C72.5,342.29998779296875,73,342.8999938964844,73,343.6000061035156C73.0999984741211,346.8999938964844,73.0999984741211,349.3999938964844,73,350.5C72.69999694824219,353.5,67.4000015258789,361,59.70000076293945,365.8999938964844C55.099998474121094,368.79998779296875,50.5,370.20001220703125,46,370.20001220703125zM38.79999923706055,355.79998779296875C36.599998474121094,358.3999938964844,35.5,360.70001220703125,35.79999923706055,362.29998779296875C36.099998474121094,363.70001220703125,37.400001525878906,364.79998779296875,39.70000076293945,365.70001220703125C46.900001525878906,368.5,53.5,365.79998779296875,57.900001525878906,363.1000061035156C65.30000305175781,358.3999938964844,69.5999984741211,351.70001220703125,69.69999694824219,350.20001220703125C69.69999694824219,349.8999938964844,69.80000305175781,349.29998779296875,69.80000305175781,348.3999938964844C68.0999984741211,350.3999938964844,66.30000305175781,352.20001220703125,64.19999694824219,353.79998779296875C54.400001525878906,361.79998779296875,44.099998474121094,364.29998779296875,40.20000076293945,359.6000061035156C39.29999923706055,358.6000061035156,38.900001525878906,357.29998779296875,38.79999923706055,355.79998779296875z"/>
<path id="Hair" fill="#F7F8F9" d="M108.9000015258789,53.099998474121094C108.9000015258789,53.099998474121094,116.5,48.20000076293945,111.30000305175781,39.20000076293945S96.69999694824219,33,96.69999694824219,33C96.69999694824219,33,99.5999984741211,29,95.5,25.899999618530273C93.19999694824219,24.100000381469727,90,24,87.5999984741211,25.600000381469727C87.5999984741211,25.600000381469727,90,16.700000762939453,76.5999984741211,13.399999618530273S62,23.700000762939453,62,23.700000762939453C62,23.700000762939453,55.5,16.899999618530273,47.20000076293945,22C38.900001525878906,27.100000381469727,44.29999923706055,35.70000076293945,44.29999923706055,35.70000076293945C44.29999923706055,35.70000076293945,37.599998474121094,28.600000381469727,31,41.400001525878906C24.399999618530273,54.20000076293945,37.79999923706055,59.599998474121094,37.79999923706055,59.599998474121094C37.79999923706055,59.599998474121094,30.100000381469727,60.099998474121094,30.399999618530273,66.9000015258789C30.600000381469727,70.5,33.20000076293945,73.5999984741211,36.70000076293945,74.5C36,75.5999984741211,35.599998474121094,76.9000015258789,35.599998474121094,78.30000305175781C35.599998474121094,80.0999984741211,36.29999923706055,81.30000305175781,37.5,82C37.20000076293945,79,37.70000076293945,76.9000015258789,39.099998474121094,75.69999694824219C39.5,75.30000305175781,40.099998474121094,75,40.70000076293945,74.9000015258789C41.599998474121094,74.80000305175781,43.099998474121094,75,44.099998474121094,75.69999694824219C44.099998474121094,75.69999694824219,44.099998474121094,75.69999694824219,44.20000076293945,75.69999694824219C44.099998474121094,74.4000015258789,43.79999923706055,73.4000015258789,43.29999923706055,73.0999984741211C44.599998474121094,70.69999694824219,42,66.9000015258789,42,66.9000015258789C46.20000076293945,66.5999984741211,50.20000076293945,64.80000305175781,53.099998474121094,61.79999923706055C56.20000076293945,58.900001525878906,57.5,54.400001525878906,56.400001525878906,50.29999923706055C58.70000076293945,52.5,61.79999923706055,53.599998474121094,65,53.29999923706055C70.30000305175781,52.79999923706055,72.5999984741211,47.70000076293945,72.5999984741211,47.70000076293945C74.4000015258789,52.099998474121094,77.9000015258789,55.70000076293945,82.19999694824219,57.70000076293945C89.4000015258789,60.900001525878906,94.5,55.20000076293945,94.5,55.20000076293945C94.5,55.20000076293945,94.19999694824219,54.20000076293945,96.19999694824219,57.099998474121094C98.19999694824219,60,102.19999694824219,59.099998474121094,102.19999694824219,59.099998474121094C102.19999694824219,59.099998474121094,100,61.599998474121094,102.4000015258789,67.4000015258789C102.9000015258789,68.5999984741211,103.5999984741211,69.80000305175781,104.5,70.69999694824219C103.30000305175781,71.80000305175781,102.5999984741211,73.30000305175781,102.5999984741211,75C102.5999984741211,75.5999984741211,102.5999984741211,76.19999694824219,102.80000305175781,76.69999694824219C103.4000015258789,76.0999984741211,104.0999984741211,75.5999984741211,104.80000305175781,75.30000305175781C106,74.80000305175781,106.9000015258789,74.80000305175781,107.80000305175781,75.0999984741211C109,75.5,110.30000305175781,76.80000305175781,110.4000015258789,80C112,79.19999694824219,113.0999984741211,77.5999984741211,113.19999694824219,75.5999984741211C113.19999694824219,75.4000015258789,113.19999694824219,75.19999694824219,113.19999694824219,74.9000015258789C113.19999694824219,73.5999984741211,112.80000305175781,72.4000015258789,112,71.4000015258789C113.80000305175781,70.19999694824219,116,67.80000305175781,116.69999694824219,63.400001525878906C118.0999984741211,55.099998474121094,108.9000015258789,53.099998474121094,108.9000015258789,53.099998474121094z"/>
<path id="HairBorder" d="M114.0999984741211,71.80000305175781C114.5,72.80000305175781,114.80000305175781,73.80000305175781,114.80000305175781,74.9000015258789C114.80000305175781,75.19999694824219,114.80000305175781,75.4000015258789,114.80000305175781,75.69999694824219C114.69999694824219,78.5,112.80000305175781,80.80000305175781,110.30000305175781,81.69999694824219C110.4000015258789,80.30000305175781,110.30000305175781,79.0999984741211,110.0999984741211,78.19999694824219C110.80000305175781,77.5999984741211,111.30000305175781,76.69999694824219,111.30000305175781,75.69999694824219C111.30000305175781,75.5,111.30000305175781,75.4000015258789,111.30000305175781,75.30000305175781L111.30000305175781,75.19999694824219C111.30000305175781,74.30000305175781,111,73.4000015258789,110.4000015258789,72.69999694824219C110.0999984741211,72.30000305175781,110,71.9000015258789,110.0999984741211,71.4000015258789C110.19999694824219,71,110.4000015258789,70.5999984741211,110.80000305175781,70.30000305175781C113,68.9000015258789,114.30000305175781,66.5,114.80000305175781,63.400001525878906C115.9000015258789,56.70000076293945,108.5,55,108.19999694824219,55C107.5999984741211,54.900001525878906,107.0999984741211,54.29999923706055,106.9000015258789,53.70000076293945C106.80000305175781,53.099998474121094,107.0999984741211,52.400001525878906,107.5999984741211,52C113.80000305175781,47.900001525878906,109.69999694824219,40.599998474121094,109.5,40.29999923706055C105,32.5,97.0999984741211,34.70000076293945,96.80000305175781,34.79999923706055C96.0999984741211,35,95.4000015258789,34.70000076293945,95,34.20000076293945C94.5999984741211,33.70000076293945,94.5999984741211,32.900001525878906,95,32.29999923706055C95.4000015258789,31.700000762939453,96.69999694824219,29.399999618530273,94.19999694824219,27.5C92.4000015258789,26.100000381469727,90,26,88.19999694824219,27.200000762939453C87.5999984741211,27.600000381469727,86.9000015258789,27.5,86.4000015258789,27.200000762939453C85.9000015258789,26.799999237060547,85.5999984741211,26.100000381469727,85.80000305175781,25.5C85.80000305175781,25.399999618530273,86.4000015258789,23.100000381469727,84.9000015258789,20.600000381469727C83.4000015258789,18.100000381469727,80.4000015258789,16.399999618530273,76,15.300000190734863C72.5,14.5,69.5999984741211,14.800000190734863,67.5,16.299999237060547C63.900001525878906,18.899999618530273,63.400001525878906,24.100000381469727,63.400001525878906,24.100000381469727C63.29999923706055,24.700000762939453,62.900001525878906,25.299999237060547,62.29999923706055,25.5C61.70000076293945,25.700000762939453,61,25.600000381469727,60.599998474121094,25.100000381469727C60.5,25,55,19.5,48,23.799999237060547C41.400001525878906,27.899999618530273,45.20000076293945,34.5,45.599998474121094,35.29999923706055C46,36,45.900001525878906,36.900001525878906,45.20000076293945,37.400001525878906C44.5,37.900001525878906,43.599998474121094,37.79999923706055,43,37.20000076293945C43.099998474121094,36.79999923706055,41.70000076293945,35.400001525878906,39.79999923706055,35.400001525878906C39.599998474121094,35.400001525878906,39.400001525878906,35.400001525878906,39.20000076293945,35.400001525878906C36.900001525878906,35.70000076293945,34.599998474121094,38.099998474121094,32.400001525878906,42.20000076293945C30.700000762939453,45.5,30.299999237060547,48.599998474121094,31.299999237060547,51.29999923706055C33,56,38.400001525878906,58.20000076293945,38.400001525878906,58.20000076293945C39.099998474121094,58.5,39.5,59.20000076293945,39.400001525878906,60C39.29999923706055,60.79999923706055,38.70000076293945,61.29999923706055,37.900001525878906,61.400001525878906C37.29999923706055,61.400001525878906,31.799999237060547,62,32,67C32.20000076293945,69.9000015258789,34.20000076293945,72.4000015258789,37.099998474121094,73.0999984741211C37.599998474121094,73.19999694824219,38,73.5999984741211,38.20000076293945,74.0999984741211C38.400001525878906,74.5999984741211,38.29999923706055,75.0999984741211,38.099998474121094,75.5999984741211C37.599998474121094,76.5,37.29999923706055,77.4000015258789,37.29999923706055,78.5C37.29999923706055,78.9000015258789,37.400001525878906,79.19999694824219,37.5,79.5C37.400001525878906,80.69999694824219,37.5,82.0999984741211,37.79999923706055,83.80000305175781C37.20000076293945,83.5999984741211,36.599998474121094,83.19999694824219,36.099998474121094,82.80000305175781C35.20000076293945,82.0999984741211,34.20000076293945,80.69999694824219,34.20000076293945,78.30000305175781C34.20000076293945,77.30000305175781,34.29999923706055,76.4000015258789,34.70000076293945,75.5C31.399999618530273,74,29.200000762939453,70.80000305175781,29,67.0999984741211C28.799999237060547,62.79999923706055,31.200000762939453,60.400001525878906,33.79999923706055,59.20000076293945C31.799999237060547,57.79999923706055,29.600000381469727,55.599998474121094,28.399999618530273,52.5C27.100000381469727,48.900001525878906,27.5,45,29.700000762939453,40.79999923706055C32.400001525878906,35.599998474121094,35.5,32.79999923706055,38.900001525878906,32.29999923706055C39.79999923706055,32.20000076293945,40.70000076293945,32.20000076293945,41.400001525878906,32.400001525878906C41.29999923706055,32,41.20000076293945,31.5,41.20000076293945,31C40.900001525878906,28,41.5,23.799999237060547,46.5,20.700000762939453C52.29999923706055,17.100000381469727,57.70000076293945,18.700000762939453,61,20.899999618530273C61.70000076293945,18.700000762939453,63,15.5,65.9000015258789,13.5C68.80000305175781,11.399999618530273,72.5999984741211,10.899999618530273,77,11.899999618530273C82.30000305175781,13.199999809265137,86,15.5,88,18.700000762939453C88.9000015258789,20.299999237060547,89.30000305175781,21.799999237060547,89.4000015258789,23.100000381469727C91.80000305175781,22.5,94.5,23,96.5,24.600000381469727C99,26.5,99.5999984741211,28.899999618530273,99.19999694824219,31C103.30000305175781,30.799999237060547,109.0999984741211,32.20000076293945,112.69999694824219,38.5C116.30000305175781,44.79999923706055,114.4000015258789,49.70000076293945,112,52.5C115.5,54.099998474121094,119.4000015258789,57.599998474121094,118.4000015258789,63.70000076293945C117.69999694824219,67.80000305175781,115.9000015258789,70.30000305175781,114.0999984741211,71.80000305175781zM103.9000015258789,67.0999984741211C101.9000015258789,62.5,103.4000015258789,60.5,103.4000015258789,60.5C103.9000015258789,60,104,59.20000076293945,103.5999984741211,58.599998474121094C103.30000305175781,58,102.5999984741211,57.70000076293945,101.9000015258789,57.79999923706055C101.9000015258789,57.79999923706055,99,58.29999923706055,97.5999984741211,56.400001525878906C96.19999694824219,54.5,95.19999694824219,53.20000076293945,93.80000305175781,53.900001525878906C93.4000015258789,54.099998474121094,93.0999984741211,54.400001525878906,93,54.70000076293945C91.9000015258789,55.70000076293945,88,58.79999923706055,82.80000305175781,56.5C78.80000305175781,54.70000076293945,75.69999694824219,51.5,74,47.400001525878906C73.69999694824219,46.79999923706055,73.0999984741211,46.400001525878906,72.5,46.400001525878906C71.80000305175781,46.400001525878906,71.30000305175781,46.79999923706055,71,47.400001525878906C70.9000015258789,47.599998474121094,69.0999984741211,51.599998474121094,64.80000305175781,52C62.099998474121094,52.20000076293945,59.400001525878906,51.29999923706055,57.5,49.400001525878906C56.900001525878906,48.900001525878906,56.099998474121094,48.79999923706055,55.5,49.20000076293945C54.900001525878906,49.599998474121094,54.599998474121094,50.29999923706055,54.79999923706055,51C55.79999923706055,54.5,54.70000076293945,58.29999923706055,52,60.900001525878906C49.29999923706055,63.599998474121094,45.70000076293945,65.19999694824219,41.900001525878906,65.5C41.400001525878906,65.5,40.900001525878906,65.9000015258789,40.599998474121094,66.4000015258789C40.29999923706055,66.9000015258789,40.400001525878906,67.5,40.70000076293945,68C41.400001525878906,69,42.5,71.4000015258789,41.900001525878906,72.5C41.599998474121094,73.0999984741211,41.70000076293945,74,42.29999923706055,74.5C42.400001525878906,74.5999984741211,42.400001525878906,74.80000305175781,42.5,75C43.099998474121094,75.0999984741211,43.599998474121094,75.30000305175781,44.099998474121094,75.69999694824219C44.70000076293945,76,45.29999923706055,76.5,45.79999923706055,77.0999984741211C45.900001525878906,75.5999984741211,45.70000076293945,74.0999984741211,45.20000076293945,73C45.599998474121094,71.4000015258789,45.20000076293945,69.5999984741211,44.599998474121094,68.30000305175781C48.20000076293945,67.5,51.599998474121094,65.69999694824219,54.29999923706055,63.099998474121094C56.900001525878906,60.599998474121094,58.400001525878906,57.29999923706055,58.5,53.79999923706055C60.5,54.79999923706055,62.900001525878906,55.20000076293945,65.19999694824219,55C68.69999694824219,54.70000076293945,71,52.79999923706055,72.4000015258789,51.099998474121094C74.5,54.70000076293945,77.5999984741211,57.5,81.5,59.29999923706055C87,61.70000076293945,91.9000015258789,59.599998474121094,94.5,57.5C94.5999984741211,57.70000076293945,94.69999694824219,57.900001525878906,94.9000015258789,58.099998474121094C96.30000305175781,60,98.19999694824219,60.599998474121094,99.80000305175781,60.79999923706055C99.5,62.400001525878906,99.5999984741211,64.80000305175781,100.9000015258789,68C101.30000305175781,69,101.80000305175781,69.9000015258789,102.4000015258789,70.69999694824219C101.5,71.9000015258789,101,73.4000015258789,101,75C100.9000015258789,76.19999694824219,101.19999694824219,77.30000305175781,101.69999694824219,78.30000305175781C102.19999694824219,77.30000305175781,103,76.30000305175781,104.0999984741211,75.5999984741211C104.0999984741211,75.5,104.0999984741211,75.4000015258789,104.0999984741211,75.30000305175781L104.0999984741211,75.19999694824219C104.0999984741211,74.0999984741211,104.5999984741211,73,105.5,72.19999694824219C105.9000015258789,71.9000015258789,106.0999984741211,71.5,106.0999984741211,71.0999984741211C106.19999694824219,70.69999694824219,106,70.19999694824219,105.69999694824219,69.9000015258789C104.9000015258789,69.0999984741211,104.30000305175781,68.19999694824219,103.9000015258789,67.0999984741211z"/>
<path id="Glasses" fill="#FFFFFF" d="M70,76.5C69.5,82.4000015258789,64.19999694824219,86.80000305175781,58.29999923706055,86.19999694824219C58,86.19999694824219,57.599998474121094,86.0999984741211,57.29999923706055,86.0999984741211C48.900001525878906,84.5999984741211,50.29999923706055,72,51.79999923706055,70.30000305175781C53.599998474121094,68.30000305175781,67.0999984741211,69.0999984741211,68.80000305175781,70.19999694824219C70.5,71.19999694824219,70,72.80000305175781,70,76.5zM78.4000015258789,76.5C78.4000015258789,80.19999694824219,82.69999694824219,87.5999984741211,91.19999694824219,86.0999984741211C99.69999694824219,84.5999984741211,98.19999694824219,72,96.69999694824219,70.30000305175781C94.9000015258789,68.30000305175781,81.4000015258789,69.0999984741211,79.69999694824219,70.19999694824219C77.9000015258789,71.19999694824219,78.4000015258789,72.80000305175781,78.4000015258789,76.5z"/>
<path id="GlassesBorder" d="M103.5,72.80000305175781L103.19999694824219,70.80000305175781L98.30000305175781,71.5999984741211C98.0999984741211,70.69999694824219,97.69999694824219,69.9000015258789,97.4000015258789,69.5C95.0999984741211,67,81.19999694824219,67.9000015258789,79.0999984741211,69.19999694824219C77.69999694824219,70.0999984741211,77.4000015258789,71.30000305175781,77.4000015258789,72.80000305175781L71.0999984741211,72.80000305175781C71.0999984741211,71.30000305175781,70.80000305175781,70.0999984741211,69.4000015258789,69.19999694824219C67.30000305175781,67.9000015258789,53.400001525878906,67,51.099998474121094,69.5C50.70000076293945,69.9000015258789,50.400001525878906,70.69999694824219,50.20000076293945,71.69999694824219L44,71L43.79999923706055,73L49.79999923706055,73.69999694824219C49.599998474121094,76,49.70000076293945,78.69999694824219,50.5,81.0999984741211C51.70000076293945,84.4000015258789,53.900001525878906,86.5,57.099998474121094,87C57.5,87.0999984741211,57.900001525878906,87.0999984741211,58.20000076293945,87.19999694824219C58.599998474121094,87.19999694824219,58.900001525878906,87.30000305175781,59.29999923706055,87.30000305175781C62,87.30000305175781,64.69999694824219,86.4000015258789,66.80000305175781,84.5999984741211C69.19999694824219,82.5999984741211,70.69999694824219,79.80000305175781,71,76.5999984741211L71,76.5C71,75.9000015258789,71,75.4000015258789,71,74.9000015258789L77.4000015258789,74.9000015258789C77.4000015258789,75.4000015258789,77.4000015258789,75.9000015258789,77.4000015258789,76.5C77.4000015258789,78.69999694824219,78.69999694824219,82.19999694824219,81.69999694824219,84.5999984741211C83.19999694824219,85.9000015258789,85.5999984741211,87.19999694824219,89,87.19999694824219C89.69999694824219,87.19999694824219,90.5,87.0999984741211,91.4000015258789,87C94.5999984741211,86.4000015258789,96.9000015258789,84.30000305175781,98.0999984741211,80.9000015258789C98.9000015258789,78.5,99,75.80000305175781,98.80000305175781,73.5L103.5,72.80000305175781zM69,74.4000015258789C69,75,69,75.69999694824219,69,76.5C68.69999694824219,79.0999984741211,67.5,81.4000015258789,65.5,83.0999984741211C63.5,84.80000305175781,61,85.5,58.400001525878906,85.30000305175781C58.099998474121094,85.30000305175781,57.79999923706055,85.19999694824219,57.400001525878906,85.19999694824219C55,84.80000305175781,53.29999923706055,83.19999694824219,52.29999923706055,80.5999984741211C50.900001525878906,76.5999984741211,51.79999923706055,71.69999694824219,52.5,71C53.099998474121094,70.4000015258789,56,70.0999984741211,59.20000076293945,70.0999984741211C63.099998474121094,70.0999984741211,67.30000305175781,70.5,68.19999694824219,71.0999984741211C69.0999984741211,71.5,69.0999984741211,72,69,74.4000015258789zM96.0999984741211,80.30000305175781C95.19999694824219,83,93.4000015258789,84.5999984741211,91,85C87.19999694824219,85.69999694824219,84.5,84.30000305175781,83,83C80.69999694824219,81,79.4000015258789,78.19999694824219,79.4000015258789,76.4000015258789C79.4000015258789,75.5999984741211,79.4000015258789,74.9000015258789,79.4000015258789,74.30000305175781C79.30000305175781,71.9000015258789,79.4000015258789,71.4000015258789,80.19999694824219,70.9000015258789C80.69999694824219,70.5999984741211,84,70,88.19999694824219,69.9000015258789C88.5999984741211,69.9000015258789,89,69.9000015258789,89.4000015258789,69.9000015258789C93.5999984741211,69.9000015258789,95.5999984741211,70.4000015258789,95.9000015258789,70.80000305175781C96.5,71.5,97.4000015258789,76.30000305175781,96.0999984741211,80.30000305175781z"/>
<path id="MouthNose" d="M73,90.4000015258789C72.4000015258789,90.4000015258789,72,90,72,89.4000015258789C72,88.80000305175781,72.4000015258789,88.4000015258789,73,88.4000015258789C74.30000305175781,88.4000015258789,75.4000015258789,87.9000015258789,75.80000305175781,87.19999694824219C76,86.80000305175781,76,86.30000305175781,75.69999694824219,85.9000015258789C75.19999694824219,85.0999984741211,73.9000015258789,84.80000305175781,72.30000305175781,84.9000015258789C71.69999694824219,85,71.30000305175781,84.5999984741211,71.19999694824219,84C71.0999984741211,83.5,71.5,83,72.0999984741211,82.9000015258789C74.5,82.69999694824219,76.5,83.30000305175781,77.4000015258789,84.69999694824219C78.0999984741211,85.69999694824219,78.0999984741211,87,77.5999984741211,88.0999984741211C76.80000305175781,89.5999984741211,75.0999984741211,90.4000015258789,73,90.4000015258789zM79.30000305175781,97.5999984741211C79.80000305175781,97.5,80.19999694824219,97,80.19999694824219,96.5C80.0999984741211,96,79.5999984741211,95.5999984741211,79.0999984741211,95.5999984741211C74.4000015258789,96.19999694824219,69.5999984741211,95.69999694824219,65.30000305175781,93.9000015258789C64.80000305175781,93.69999694824219,64.19999694824219,93.9000015258789,64,94.5C63.79999923706055,95,64,95.5999984741211,64.5999984741211,95.80000305175781C68,97.19999694824219,71.69999694824219,97.9000015258789,75.4000015258789,97.9000015258789C76.69999694824219,97.9000015258789,78,97.80000305175781,79.30000305175781,97.5999984741211z"/>
<path id="pearl" fill="#FFFFFF" d="M77.5,135.89999389648438C77.5,137.8000030517578,76,139.39999389648438,74.0999984741211,139.39999389648438C72.19999694824219,139.39999389648438,70.5999984741211,137.89999389648438,70.5999984741211,136C70.5999984741211,134.10000610351562,72.0999984741211,132.5,74,132.5C74,132.5,74,132.5,74.0999984741211,132.5C76,132.5,77.5,134,77.5,135.89999389648438L77.5,135.89999389648438z"/>
<path id="Neckless" d="M91.30000305175781,118.80000305175781C90.4000015258789,118.69999694824219,89.5999984741211,119.30000305175781,89.5,120.19999694824219C89.0999984741211,123.0999984741211,79.30000305175781,130,74.80000305175781,130.89999389648438C74.5999984741211,130.89999389648438,74.30000305175781,130.8000030517578,74.0999984741211,130.8000030517578C73.80000305175781,130.8000030517578,73.5999984741211,130.8000030517578,73.30000305175781,130.89999389648438C69.19999694824219,130.10000610351562,58.79999923706055,121.30000305175781,58.400001525878906,118.9000015258789C58.29999923706055,118,57.5,117.4000015258789,56.599998474121094,117.5C55.70000076293945,117.5999984741211,55.099998474121094,118.4000015258789,55.20000076293945,119.30000305175781C55.599998474121094,122.69999694824219,64.0999984741211,130.10000610351562,70,133C69.4000015258789,133.89999389648438,69.0999984741211,134.89999389648438,69.0999984741211,135.89999389648438C69.0999984741211,138.6999969482422,71.4000015258789,140.89999389648438,74.19999694824219,140.89999389648438L74.30000305175781,140.89999389648438C75.69999694824219,140.89999389648438,76.9000015258789,140.3000030517578,77.9000015258789,139.39999389648438C78.80000305175781,138.39999389648438,79.30000305175781,137.1999969482422,79.30000305175781,135.8000030517578C79.30000305175781,134.8000030517578,79,133.8000030517578,78.4000015258789,133C84.30000305175781,130.5,92.0999984741211,124.5,92.69999694824219,120.5999984741211C92.80000305175781,119.80000305175781,92.19999694824219,119,91.30000305175781,118.80000305175781zM75.4000015258789,134.60000610351562C75.69999694824219,134.89999389648438,75.9000015258789,135.39999389648438,75.9000015258789,135.89999389648438L75.9000015258789,135.89999389648438C75.9000015258789,136.89999389648438,75.0999984741211,137.6999969482422,74.0999984741211,137.6999969482422C73.0999984741211,137.8000030517578,72.30000305175781,136.89999389648438,72.30000305175781,135.89999389648438C72.30000305175781,135.39999389648438,72.5,135,72.80000305175781,134.60000610351562C73,134.39999389648438,73.19999694824219,134.3000030517578,73.4000015258789,134.1999969482422L73.5,134.1999969482422C73.5999984741211,134.1999969482422,73.5999984741211,134.1999969482422,73.69999694824219,134.1999969482422C74,134.1999969482422,74.30000305175781,134.1999969482422,74.5999984741211,134.10000610351562C74.9000015258789,134.3000030517578,75.19999694824219,134.39999389648438,75.4000015258789,134.60000610351562z"/>
<path id="Eyes" d="M63.900001525878906,76.30000305175781C63.900001525878906,78.0999984741211,62.5,79.5,60.79999923706055,79.5C59,79.5,57.599998474121094,78.0999984741211,57.599998474121094,76.4000015258789C57.599998474121094,74.5999984741211,59,73.19999694824219,60.70000076293945,73.19999694824219C60.70000076293945,73.19999694824219,60.70000076293945,73.19999694824219,60.79999923706055,73.19999694824219C62.400001525878906,73.0999984741211,63.900001525878906,74.5,63.900001525878906,76.30000305175781L63.900001525878906,76.30000305175781zM90.30000305175781,76.30000305175781C90.30000305175781,78.0999984741211,88.9000015258789,79.5,87.19999694824219,79.5C85.4000015258789,79.5,84,78.0999984741211,84,76.4000015258789C84,74.5999984741211,85.4000015258789,73.19999694824219,87.0999984741211,73.19999694824219C87.0999984741211,73.19999694824219,87.0999984741211,73.19999694824219,87.19999694824219,73.19999694824219C88.80000305175781,73.0999984741211,90.30000305175781,74.5,90.30000305175781,76.30000305175781L90.30000305175781,76.30000305175781z"/>
</g>
</svg>