<svg xmlns="http://www.w3.org/2000/svg" xmlns:xlink="http://www.w3.org/1999/xlink" viewBox= "0 0 244 390" width="244px" height="390px">
<g xmlns="http://www.w3.org/2000/svg" id="InuitV2.svg">
<path id="Jacket" fill="#7A340C" d="M212.25399780273438,137.32699584960938C211.8070068359375,139.1179962158203,184.9429931640625,186.1300048828125,173.75,188.8159942626953C162.5570068359375,191.5019989013672,153.1540069580078,174.04100036621094,152.70700073242188,176.2790069580078C152.25900268554688,178.51699829101562,153.6020050048828,217.02200317382812,152.70700073242188,231.79800415039062C151.81199645996094,246.57400512695312,156.27099609375,291.59600830078125,154.47999572753906,296.5220031738281C152.68899536132812,301.447998046875,107.93399810791016,293.1369934082031,101.21700286865234,292.2430114746094C94.5009994506836,291.3479919433594,91.36699676513672,294.4809875488281,61.81700134277344,297.1679992675781C32.266998291015625,299.8550109863281,34.05799865722656,294.03399658203125,33.16299819946289,279.2590026855469C33.04800033569336,277.364990234375,33.119998931884766,275.1679992675781,33.32699966430664,272.7799987792969C37.46799850463867,271.14300537109375,40.89899826049805,266.8699951171875,42.090999603271484,261.0159912109375C43.67499923706055,253.23699951171875,43.67499923706055,252.51600646972656,43.67499923706055,252.51600646972656C43.67499923706055,252.51600646972656,45.69200134277344,255.97300720214844,48.13999938964844,254.38900756835938C50.5880012512207,252.80499267578125,53.18199920654297,249.0590057373047,51.8849983215332,243.44200134277344C50.5880012512207,237.8249969482422,48.428001403808594,227.02000427246094,43.097999572753906,224.71499633789062C39.46799850463867,223.14700317382812,30.73900032043457,225.11399841308594,25.070999145507812,233.73300170898438C21.97800064086914,233.92100524902344,19.513999938964844,233.822998046875,18.833999633789062,233.14100646972656C16.59600067138672,230.9029998779297,17.490999221801758,216.1269989013672,17.937999725341797,169.1179962158203C18.375,123.23899841308594,41.4109992980957,119.14800262451172,54.5880012512207,113.1520004272461C55.308998107910156,114.66799926757812,56.19499969482422,116.0479965209961,57.387001037597656,117.06999969482422C58.33399963378906,117.88200378417969,59.481998443603516,118.67900085449219,60.69900131225586,119.52400207519531C62.784000396728516,120.97200012207031,65.14800262451172,122.61499786376953,66.31099700927734,124.30500030517578C66.93499755859375,125.21199798583984,67.3280029296875,126.1449966430664,67.74400329589844,127.13200378417969C68.55699920654297,129.06300354003906,69.4800033569336,131.25100708007812,72.24099731445312,133.18299865722656C75.01000213623047,135.12100219726562,83.2229995727539,139.76800537109375,87.11900329589844,139.76800537109375C87.8479995727539,139.76800537109375,88.46700286865234,139.61000061035156,88.95700073242188,139.29800415039062C90.22200012207031,138.49200439453125,96.12000274658203,132.68299865722656,98.01399993896484,128.6959991455078C99.15599822998047,129.8179931640625,100.9540023803711,131.447998046875,103.73699951171875,133.93499755859375C104.34100341796875,134.47500610351562,104.85900115966797,134.93699645996094,105.21600341796875,135.26199340820312C106.57499694824219,136.4980010986328,108.94300079345703,137.20599365234375,111.71199798583984,137.20599365234375C114.26799774169922,137.20599365234375,116.75399780273438,136.58999633789062,118.71299743652344,135.4709930419922C121.2760009765625,134.00599670410156,122.55799865722656,131.3520050048828,123.68900299072266,129.00999450683594C124.48400115966797,127.36399841308594,125.23600006103516,125.80899810791016,126.24600219726562,125.0510025024414C127.24400329589844,124.3030014038086,128.86599731445312,123.51699829101562,130.58399963378906,122.68599700927734C133.6199951171875,121.21600341796875,137.06100463867188,119.55000305175781,138.88900756835938,117.20099639892578C140.56300354003906,115.04900360107422,141.0850067138672,112.22200012207031,141.5469970703125,109.72599792480469C141.69200134277344,108.94400024414062,141.83799743652344,108.19000244140625,142.00599670410156,107.48300170898438C158.39500427246094,116.18800354003906,173.56399536132812,142,173.56399536132812,142C173.56399536132812,142,180.91299438476562,129.71600341796875,184.04600524902344,126.58200073242188C187.1820068359375,123.447998046875,212.70199584960938,135.53599548339844,212.25399780273438,137.32699584960938zM51.88600158691406,243.43899536132812C50.59000015258789,237.822998046875,48.42900085449219,227.0189971923828,43.0989990234375,224.71299743652344C38.064998626708984,222.53599548339844,23.22100067138672,227.16099548339844,20.34000015258789,246.89599609375C17.458999633789062,266.6310119628906,23.156999588012695,273.2099914550781,29.062999725341797,273.5C34.96900177001953,273.7900085449219,40.50600051879883,268.79400634765625,42.090999603271484,261.0159912109375C43.67599868774414,253.23699951171875,43.67499923706055,252.51600646972656,43.67499923706055,252.51600646972656C43.67499923706055,252.51600646972656,45.69200134277344,255.97300720214844,48.13999938964844,254.38900756835938C50.5880012512207,252.80499267578125,53.18299865722656,249.0590057373047,51.88600158691406,243.43899536132812zM191.89999389648438,117.68199920654297C191.89999389648438,117.68199920654297,189.80599975585938,114.63700103759766,185.80999755859375,108.73600006103516C181.81199645996094,102.83499908447266,180.66900634765625,96.1729965209961,185.04800415039062,92.55599975585938C189.427001953125,88.93900299072266,196.8489990234375,96.36299896240234,196.8489990234375,96.36299896240234C196.8489990234375,96.36299896240234,197.99200439453125,90.65299987792969,200.0850067138672,84.37100219726562C202.1790008544922,78.08899688720703,205.98500061035156,68.19100189208984,219.88099670410156,70.4749984741211C233.77699279785156,72.75900268554688,230.32699584960938,88.8489990234375,228.8280029296875,95.22000122070312C227.32899475097656,101.59100341796875,218.35800170898438,118.8239974975586,215.69400024414062,124.7239990234375L191.89999389648438,117.68199920654297zM92.80400085449219,294.4519958496094C93.0250015258789,295.55499267578125,90.15799713134766,325.10101318359375,90.15799713134766,327.0880126953125C90.15799713134766,329.07501220703125,50.0260009765625,330.83599853515625,48.92300033569336,329.0719909667969C47.81999969482422,327.3070068359375,46.277000427246094,310.989990234375,45.6150016784668,304.375C45.61600112915039,304.375,92.58300018310547,293.3500061035156,92.80400085449219,294.4519958496094zM140.875,300.62701416015625C141.53599548339844,301.95001220703125,137.5659942626953,327.3080139160156,136.906005859375,328.6310119628906C136.2449951171875,329.9540100097656,100.52200317382812,326.64801025390625,98.97899627685547,325.9849853515625C97.43599700927734,325.3219909667969,98.31700134277344,297.5400085449219,98.31700134277344,295.114013671875C98.31700134277344,295.114013671875,140.21299743652344,299.30499267578125,140.875,300.62701416015625z"/>
<path id="Boots" fill="#936431" d="M43.189998626708984,317.1650085449219C48.000999450683594,315.5610046386719,78.2509994506836,313.8559875488281,83.76300048828125,314.0769958496094C89.2750015258789,314.2980041503906,93.46600341796875,314.7380065917969,93.46600341796875,316.50299072265625C93.46600341796875,318.26800537109375,92.80500030517578,363.02899169921875,91.26100158691406,365.89801025390625C89.71700286865234,368.7650146484375,83.10199737548828,375.3789978027344,73.62000274658203,376.0419921875C64.13800048828125,376.7049865722656,40.10300064086914,376.92401123046875,38.558998107910156,372.5140075683594S35.69300079345703,355.7550048828125,39,353.7699890136719C42.30699920654297,351.7860107421875,51.78900146484375,347.5950012207031,52.0099983215332,346.27301025390625C52.23099899291992,344.95001220703125,52.0099983215332,336.12799072265625,50.6870002746582,335.24798583984375C49.36399841308594,334.36700439453125,43.85100173950195,335.24798583984375,43.40999984741211,332.1610107421875C42.96900177001953,329.072998046875,41.867000579833984,317.6059875488281,43.189998626708984,317.1650085449219zM92.58300018310547,364.3529968261719C92.36199951171875,367.8800048828125,112.97599792480469,375.23699951171875,116.06300354003906,377C119.1500015258789,378.76300048828125,147.85699462890625,377.72100830078125,150.06300354003906,377.5C152.2689971923828,377.27899169921875,150.5780029296875,361.4859924316406,150.5780029296875,359.9429931640625C150.5780029296875,358.3999938964844,138.6699981689453,352.0050048828125,136.6840057373047,350.46099853515625C134.6999969482422,348.9169921875,136.46400451660156,341.6409912109375,136.6840057373047,339.87701416015625C136.90499877929688,338.1130065917969,138.5709991455078,338.9700012207031,140.11399841308594,338.0880126953125C141.65699768066406,337.20599365234375,144.4810028076172,322.07501220703125,144.70199584960938,320.31298828125C144.9219970703125,318.54901123046875,129.45199584960938,318.3269958496094,121.9540023803711,317.44500732421875C114.45600128173828,316.56298828125,98.19599914550781,313.8299865722656,95.00900268554688,314.7409973144531C93.46600341796875,315.1809997558594,92.80400085449219,360.82501220703125,92.58300018310547,364.3529968261719z"/>
<path fill="#FFFFFF" d="M131.98899841308594,81.71499633789062C131.8280029296875,90.92900085449219,130.2989959716797,97.68199920654297,126.81500244140625,104.81099700927734C120.33899688720703,118.0770034790039,107.03700256347656,128.35400390625,95.76000213623047,128.15699768066406C84.48400115966797,127.96199798583984,71.74700164794922,116.55000305175781,65.57099914550781,103.99700164794922C61.7239990234375,96.18099975585938,61.0260009765625,89.00499725341797,61.17399978637695,80.48200225830078C61.74100112915039,47.95199966430664,77.77999877929688,37.555999755859375,97.33399963378906,37.89699935913086C116.88899993896484,38.236000061035156,132.53199768066406,50.5629997253418,131.98899841308594,81.71499633789062"/>
<path id="Fur" fill="#FFFBE3" d="M28.511999130249023,217.00599670410156C30.003000259399414,216.07400512695312,31.679000854492188,215.98300170898438,33.45000076293945,215.98300170898438C35.22100067138672,215.98300170898438,37.45600128173828,214.30499267578125,39.040000915527344,214.21200561523438C40.624000549316406,214.11900329589844,43.41899871826172,215.70199584960938,45.09600067138672,217.1009979248047C46.77299880981445,218.4980010986328,47.518001556396484,226.69700622558594,46.68000030517578,228.09300231933594C45.84199905395508,229.49000549316406,42.487998962402344,226.8820037841797,40.53099822998047,225.76499938964844C38.57400131225586,224.64599609375,34.847999572753906,226.9759979248047,29.90999984741211,229.30599975585938C24.972000122070312,231.63299560546875,21.33300018310547,244,19.562999725341797,244C17.792999267578125,244,15.840999603271484,241.04200744628906,15.654999732971191,239.73599243164062C15.468999862670898,238.43099975585938,13.885000228881836,236.7570037841797,13.140000343322754,235.17300415039062C12.395000457763672,233.58900451660156,14.536999702453613,231.25999450683594,14.90999984741211,230.51600646972656C15.282999992370605,229.77000427246094,15.444999694824219,225.91200256347656,17.61199951171875,224.9250030517578C19.660999298095703,223.9929962158203,27.020999908447266,217.93800354003906,28.511999130249023,217.00599670410156zM205.03500366210938,118.44300079345703C201.13600158691406,115.71399688720703,197.61099243164062,115.39700317382812,195.32699584960938,115.96800231933594C193.04200744628906,116.53900146484375,189.80599975585938,114.82599639892578,186.3800048828125,114.82599639892578C182.95399475097656,114.82599639892578,178.38600158691406,119.58499908447266,179.14700317382812,121.2979965209961C179.90899658203125,123.01100158691406,181.81300354003906,127.1989974975586,181.4320068359375,128.34100341796875C181.0500030517578,129.48300170898438,185.8090057373047,132.33900451660156,191.7100067138672,133.67100524902344C197.61099243164062,135.0030059814453,201.60699462890625,133.4810028076172,204.2729949951172,135.57400512695312C206.93699645996094,137.66700744628906,214.93099975585938,139.3820037841797,216.4550018310547,137.85800170898438C217.97900390625,136.33399963378906,221.0229949951172,130.62399291992188,220.26199340820312,127.5790023803711C219.50100708007812,124.53399658203125,215.88400268554688,122.05899810791016,212.26800537109375,121.48799896240234C208.64999389648438,120.91699981689453,206.93800354003906,119.7750015258789,205.03500366210938,118.44300079345703zM158.1840057373047,301.6109924316406C156.7209930419922,304.1210021972656,141.41799926757812,305.1629943847656,131.1719970703125,303.9079895019531C120.9260025024414,302.6520080566406,108.7969970703125,302.65399169921875,98.13200378417969,300.77099609375C87.46700286865234,298.88800048828125,71.78399658203125,304.7449951171875,56.51900100708008,306.625C41.25400161743164,308.5050048828125,36.13199996948242,307.82501220703125,32.82099914550781,303.6310119628906C29.510000228881836,299.43701171875,29.951000213623047,293.47601318359375,33.04199981689453,291.9309997558594C36.132999420166016,290.385986328125,35.23099899291992,292.6659851074219,42.23099899291992,293.6659851074219C49.23099899291992,294.6659851074219,60.99700164794922,294.9679870605469,77.16799926757812,292.1510009765625C88.60299682617188,290.1600036621094,90.63400268554688,284.8659973144531,90.63400268554688,278.0220031738281C90.63400268554688,271.1780090332031,94.89800262451172,216.33200073242188,94.56400299072266,187.33200073242188C94.2300033569336,158.33200073242188,91.89700317382812,154.66600036621094,90.89700317382812,147.33200073242188C90.47799682617188,144.25999450683594,89.18199920654297,141.07000732421875,87.84100341796875,138.0330047607422L88.08699798583984,137.9239959716797C86.06199645996094,139.21299743652344,76.85800170898438,134.42599487304688,73.17500305175781,131.8489990234375C69.49199676513672,129.27200317382812,69.677001953125,126.3270034790039,67.65299987792969,123.38099670410156C65.62899780273438,120.43499755859375,61.0260009765625,118.04199981689453,58.448001861572266,115.83300018310547C55.869998931884766,113.6240005493164,54.76599884033203,109.02200317382812,53.6609992980957,105.70800018310547S43.167999267578125,92.08599853515625,42.98400115966797,88.95700073242188C42.79999923706055,85.8280029296875,44.0880012512207,71.83599853515625,42.98400115966797,69.07499694824219C41.880001068115234,66.31400299072266,40.590999603271484,57.84600067138672,41.51100158691406,54.347999572753906C42.430999755859375,50.849998474121094,48.323001861572266,44.40700149536133,51.63600158691406,41.46099853515625C54.94900131225586,38.51499938964844,56.606998443603516,30.23200035095215,60.840999603271484,26.365999221801758C65.07499694824219,22.5,72.43900299072266,21.76300048828125,75.01599884033203,20.475000381469727C77.59300231933594,19.187000274658203,83.11599731445312,12.928000450134277,87.53500366210938,12.006999969482422C91.9540023803711,11.086000442504883,104.10299682617188,16.240999221801758,107.41699981689453,17.34600067138672C110.73100280761719,18.451000213623047,121.04000091552734,17.898000717163086,123.61699676513672,19.371000289916992C126.19300079345703,20.8439998626709,128.77099609375,24.709999084472656,129.87600708007812,26.91900062561035C130.9810028076172,29.128000259399414,141.10499572753906,35.202999114990234,143.31399536132812,40.90999984741211C145.5229949951172,46.617000579833984,145.33799743652344,54.9010009765625,145.88999938964844,58.39899826049805C146.4429931640625,61.89699935913086,150.30799865722656,70.36499786376953,150.30799865722656,74.0459976196289C150.30799865722656,77.72699737548828,147.5469970703125,82.697998046875,146.0749969482422,85.09100341796875C144.6009979248047,87.48400115966797,146.99600219726562,92.08699798583984,146.4429931640625,95.21600341796875C145.89199829101562,98.34500122070312,143.31399536132812,101.10700225830078,141.4720001220703,104.23699951171875C139.63099670410156,107.36699676513672,140.18299865722656,112.88899993896484,137.60699462890625,116.2030029296875C135.0290069580078,119.51599884033203,128.2169952392578,121.54100036621094,125.27300262451172,123.7509994506836C122.3280029296875,125.96099853515625,121.77400207519531,131.8509979248047,117.91000366210938,134.05999755859375C115.65699768066406,135.34800720214844,112.77899932861328,135.75900268554688,110.36799621582031,135.51400756835938C109.73200225830078,137.19900512695312,109.09100341796875,138.7729949951172,108.56400299072266,140.00100708007812C106.56400299072266,144.66799926757812,107.56400299072266,157.66799926757812,107.23100280761719,169.00100708007812C106.89800262451172,180.33399963378906,105.89800262451172,201.66799926757812,105.89800262451172,225.00100708007812C105.89800262451172,248.33399963378906,104.58799743652344,269.19500732421875,105.42500305175781,279.4429931640625C106.26200103759766,289.6889953613281,111.27999877929688,289.4779968261719,119.85399627685547,293.0350036621094C128.42799377441406,296.59100341796875,151.0760040283203,291.3659973144531,156.30299377441406,291.3659973144531S159.6479949951172,299.10400390625,158.1840057373047,301.6109924316406zM113.49099731445312,119.33200073242188C114.77999877929688,117.49099731445312,118.46199798583984,112.15299987792969,121.03900146484375,110.31199645996094C123.61599731445312,108.47100067138672,124.35099792480469,105.34100341796875,124.16799926757812,102.02799987792969C123.98500061035156,98.71499633789062,127.66600036621094,95.9530029296875,129.13900756835938,92.822998046875C130.61199951171875,89.69300079345703,127.23699951171875,84.23500061035156,127.23699951171875,82.20999908447266C127.23699951171875,80.18499755859375,130.08700561523438,75.93599700927734,130.27000427246094,72.43900299072266C130.4550018310547,68.94200134277344,128.28399658203125,64.26499938964844,125.89099884033203,61.31999969482422C123.49700164794922,58.375,124.7229995727539,52.875999450683594,123.8010025024414,51.77199935913086C122.87999725341797,50.667999267578125,116.43800354003906,49.5629997253418,113.86000061035156,48.09000015258789C111.28199768066406,46.617000579833984,105.39199829101562,42.19900131225586,102.63099670410156,41.83100128173828C99.87000274658203,41.4630012512207,96.00399780273438,43.119998931884766,92.13800048828125,43.487998962402344C88.27200317382812,43.85599899291992,82.56500244140625,43.85599899291992,80.35600280761719,44.040000915527344C78.14700317382812,44.2239990234375,77.59500122070312,47.72200012207031,73.72899627685547,49.930999755859375C69.86299896240234,52.13999938964844,69.13400268554688,56.5989990234375,66.92400360107422,58.624000549316406C64.71399688720703,60.64899826049805,65.72899627685547,66.49199676513672,65.91300201416016,69.06999969482422C66.09700012207031,71.64800262451172,63.98500061035156,77.48699951171875,62.880001068115234,81.53700256347656C61.775001525878906,85.58699798583984,67.59700012207031,91.61100006103516,67.59700012207031,94.00399780273438C67.59700012207031,96.39700317382812,65.07599639892578,101.66000366210938,65.81199645996094,103.31700134277344C66.5479965209961,104.9739990234375,72.8010025024414,111.30999755859375,75.01000213623047,111.86199951171875C77.21900177001953,112.41400146484375,80.90699768066406,119.88500213623047,82.19599914550781,120.98899841308594C83.48500061035156,122.09300231933594,92.56400299072266,124.47100067138672,96.57499694824219,126.01300048828125C96.66799926757812,126.04900360107422,96.74500274658203,126.0989990234375,96.80500030517578,126.16000366210938L97.9219970703125,126.01300048828125C98.65799713134766,126.01399993896484,112.2020034790039,121.1729965209961,113.49099731445312,119.33200073242188z"/>
<path id="FurBorder" fill="#000000" d="M19.562999725341797,245.625C16.634000778198242,245.625,14.293000221252441,241.69500732421875,14.045999526977539,239.9669952392578C13.987000465393066,239.55499267578125,13.413000106811523,238.6959991455078,12.95300006866455,238.00799560546875C12.494999885559082,237.32200622558594,12.020999908447266,236.61300659179688,11.668999671936035,235.86399841308594C10.687999725341797,233.77699279785156,12.272000312805176,231.50399780273438,13.12399959564209,230.281005859375C13.267999649047852,230.0749969482422,13.392999649047852,229.90499877929688,13.458999633789062,229.781005859375C13.482999801635742,229.6929931640625,13.527999877929688,229.43899536132812,13.593000411987305,229.13499450683594C13.956000328063965,227.41000366210938,14.562999725341797,224.5260009765625,16.937999725341797,223.4459991455078C18.06399917602539,222.9340057373047,21.670000076293945,220.1510009765625,24.05699920654297,218.3090057373047C25.90399932861328,216.88499450683594,27.065000534057617,215.9949951171875,27.649999618530273,215.6269989013672C29.527000427246094,214.45399475097656,31.54400062561035,214.3560028076172,33.44900131225586,214.3560028076172C34.047000885009766,214.3560028076172,35,213.9340057373047,35.84199905395508,213.56300354003906C36.858001708984375,213.11500549316406,37.90800094604492,212.6490020751953,38.944000244140625,212.58799743652344C41.32899856567383,212.43600463867188,44.73500061035156,214.6820068359375,46.1349983215332,215.85000610351562C48.540000915527344,217.85400390625,49.275001525878906,226.9219970703125,48.071998596191406,228.927001953125C47.61800003051758,229.6840057373047,46.823001861572266,230.11700439453125,45.891998291015625,230.11700439453125C44.40800094604492,230.11700439453125,42.6619987487793,229.01199340820312,40.9739990234375,227.9409942626953C40.52299880981445,227.65699768066406,40.09700012207031,227.38400268554688,39.7239990234375,227.17100524902344C39.61600112915039,227.10899353027344,39.44499969482422,227.0970001220703,39.32099914550781,227.0970001220703C38.07500076293945,227.0970001220703,35.755001068115234,228.24400329589844,33.29800033569336,229.45899963378906C32.44599914550781,229.88099670410156,31.547000885009766,230.3249969482422,30.60300064086914,230.77099609375C28.18000030517578,231.9149932861328,25.702999114990234,236.83799743652344,24.06399917602539,240.0970001220703C22.214000701904297,243.77699279785156,21.28499984741211,245.625,19.562999725341797,245.625zM39.17599868774414,215.83200073242188C38.68600082397461,215.85899353027344,37.874000549316406,216.218994140625,37.15700149536133,216.53500366210938C36.020999908447266,217.03700256347656,34.73400115966797,217.60499572753906,33.45000076293945,217.60499572753906C31.957000732421875,217.60499572753906,30.523000717163086,217.66600036621094,29.374000549316406,218.3820037841797C28.895000457763672,218.68299865722656,27.510000228881836,219.75,26.042999267578125,220.88099670410156C22.479000091552734,223.63099670410156,19.645000457763672,225.78399658203125,18.284000396728516,226.40199279785156C17.4060001373291,226.80099487304688,16.979000091552734,228.8300018310547,16.77400016784668,229.802001953125C16.643999099731445,230.4199981689453,16.549999237060547,230.86500549316406,16.36400032043457,231.24000549316406C16.229000091552734,231.50999450683594,16.035999298095703,231.78700256347656,15.791000366210938,232.13600158691406C14.708000183105469,233.6909942626953,14.553000450134277,234.27099609375,14.61299991607666,234.48599243164062C14.859999656677246,235.0070037841797,15.263999938964844,235.61500549316406,15.656000137329102,236.1999969482422C16.365999221801758,237.26300048828125,17.10099983215332,238.36099243164062,17.263999938964844,239.5070037841797C17.365999221801758,240.21800231933594,18.466999053955078,241.77200317382812,19.208999633789062,242.23800659179688C19.715999603271484,241.50900268554688,20.53499984741211,239.88299560546875,21.160999298095703,238.63800048828125C23.2189998626709,234.5449981689453,25.7810001373291,229.45199584960938,29.216999053955078,227.83099365234375C30.141000747680664,227.39500427246094,31.023000717163086,226.95899963378906,31.857999801635742,226.54600524902344C34.90700149536133,225.03700256347656,37.316001892089844,223.8470001220703,39.321998596191406,223.8470001220703C40.07500076293945,223.8470001220703,40.75400161743164,224.01699829101562,41.3380012512207,224.3489990234375C41.749000549316406,224.58399963378906,42.21900177001953,224.88099670410156,42.71500015258789,225.19700622558594C43.382999420166016,225.6199951171875,44.62099838256836,226.4040069580078,45.395999908447266,226.7239990234375C45.61899948120117,224.71600341796875,44.92900085449219,219.26100158691406,44.03799819946289,218.3280029296875C42.446998596191406,217.0070037841797,40.16699981689453,215.83200073242188,39.17599868774414,215.83200073242188zM214.08200073242188,140.0659942626953C214.08099365234375,140.0659942626953,214.08099365234375,140.0659942626953,214.08200073242188,140.0659942626953C210.90199279785156,140.0659942626953,205.6820068359375,138.7469940185547,203.27000427246094,136.8520050048828C202.1999969482422,136.01100158691406,200.5959930419922,135.98399353027344,198.375,135.94700622558594C196.46800231933594,135.91600036621094,194.093994140625,135.87600708007812,191.35400390625,135.2570037841797C186.16200256347656,134.0850067138672,181.22500610351562,131.6219940185547,180.11199951171875,129.65199279785156C179.7169952392578,128.95199584960938,179.74600219726562,128.34800720214844,179.85800170898438,127.93599700927734C179.86000061035156,127.44999694824219,179.48500061035156,126.0479965209961,177.76400756835938,122.18499755859375L177.66299438476562,121.95899963378906C177.34800720214844,121.2490005493164,177.21200561523438,120.03299713134766,178.35499572753906,118.27300262451172C179.7239990234375,116.16699981689453,183.11900329589844,113.20099639892578,186.37899780273438,113.20099639892578C188.14599609375,113.20099639892578,189.81700134277344,113.59600067138672,191.29100036621094,113.94400024414062C192.7480010986328,114.28900146484375,194.14700317382812,114.58999633789062,194.93299865722656,114.39099884033203C195.69500732421875,114.20099639892578,196.51300048828125,114.10399627685547,197.36599731445312,114.10399627685547C199.32899475097656,114.10399627685547,202.4149932861328,114.6259994506836,205.96600341796875,117.11100006103516C207.68600463867188,118.31500244140625,209.17100524902344,119.35399627685547,212.52200317382812,119.88300323486328C216.39700317382812,120.49500274658203,220.8419952392578,123.19999694824219,221.83900451660156,127.18499755859375C222.7830047607422,130.96099853515625,219.36099243164062,137.25,217.6060028076172,139.0070037841797C216.89500427246094,139.7209930419922,215.74000549316406,140.0659942626953,214.08200073242188,140.0659942626953zM183.0959930419922,128.22999572753906C183.9080047607422,129.0330047607422,187.1959991455078,130.98599243164062,192.06900024414062,132.08599853515625C194.48500061035156,132.63099670410156,196.58099365234375,132.66600036621094,198.42999267578125,132.69700622558594C201.06900024414062,132.74099731445312,203.34800720214844,132.7790069580078,205.2779998779297,134.2969970703125C206.86700439453125,135.54400634765625,211.3090057373047,136.8159942626953,214.08200073242188,136.8159942626953L214.08200073242188,136.8159942626953C215.072998046875,136.8159942626953,215.3800048828125,136.64999389648438,215.38299560546875,136.6479949951172C216.697998046875,135.31900024414062,219.24000549316406,130.18600463867188,218.68699645996094,127.9739990234375C218.12899780273438,125.73999786376953,215.19900512695312,123.59600067138672,212.01699829101562,123.09400177001953C208.21800231933594,122.49299621582031,206.34100341796875,121.33899688720703,204.10499572753906,119.77400207519531C201.2469940185547,117.77400207519531,198.86300659179688,117.3550033569336,197.3679962158203,117.3550033569336C196.781005859375,117.3550033569336,196.2259979248047,117.41899871826172,195.7220001220703,117.54499816894531C195.2790069580078,117.65599822998047,194.80999755859375,117.70999908447266,194.29299926757812,117.70999908447266C193.0970001220703,117.70999908447266,191.8560028076172,117.41699981689453,190.54600524902344,117.10700225830078C189.18099975585938,116.78399658203125,187.77099609375,116.45099639892578,186.38099670410156,116.45099639892578C184.06399536132812,116.45099639892578,180.93499755859375,119.68099975585938,180.7010040283203,120.79100036621094L180.7310028076172,120.86100006103516C182.51800537109375,124.86799621582031,183.1909942626953,126.9260025024414,183.0959930419922,128.22999572753906zM111.71399688720703,137.20599365234375C114.2699966430664,137.20599365234375,116.75599670410156,136.58999633789062,118.71499633789062,135.4709930419922C121.27799987792969,134.00599670410156,122.56099700927734,131.3520050048828,123.69200134277344,129.00999450683594C124.48699951171875,127.36399841308594,125.23699951171875,125.80899810791016,126.24800109863281,125.0510025024414C127.24600219726562,124.3030014038086,128.8679962158203,123.51699829101562,130.58599853515625,122.68599700927734C133.6219940185547,121.21600341796875,137.06199645996094,119.55000305175781,138.88999938964844,117.20099639892578C140.56399536132812,115.04900360107422,141.08700561523438,112.22200012207031,141.5489959716797,109.72599792480469C141.88400268554688,107.91600036621094,142.1999969482422,106.20600128173828,142.87399291992188,105.06099700927734C143.4029998779297,104.16200256347656,144.0189971923828,103.26300048828125,144.61199951171875,102.39399719238281C146.0800018310547,100.24700164794922,147.59800720214844,98.0270004272461,148.04400634765625,95.4990005493164C148.33700561523438,93.83699798583984,147.98500061035156,92.0270004272461,147.64599609375,90.2760009765625C147.3260040283203,88.625,146.96099853515625,86.75299835205078,147.45899963378906,85.94300079345703C149.1300048828125,83.22799682617188,151.93499755859375,78.07099914550781,151.93499755859375,74.0459976196289C151.93499755859375,71.63099670410156,150.61500549316406,67.83100128173828,149.3350067138672,64.15499877929688C148.4969940185547,61.74300003051758,147.7050018310547,59.465999603271484,147.49600219726562,58.14500045776367C147.3470001220703,57.191001892089844,147.24899291992188,55.78900146484375,147.13800048828125,54.16600036621094C146.86099243164062,50.124000549316406,146.47999572753906,44.5880012512207,144.8300018310547,40.32400131225586C143.2760009765625,36.310001373291016,138.64300537109375,32.50199890136719,134.9219970703125,29.44099998474121C133.4459991455078,28.229000091552734,131.61199951171875,26.719999313354492,131.3300018310547,26.19300079345703C130.29200744628906,24.118000030517578,127.51499938964844,19.726999282836914,124.4229965209961,17.961000442504883C122.80000305175781,17.034000396728516,119.77100372314453,16.80900001525879,114.9749984741211,16.548999786376953C112.1500015258789,16.395999908447266,109.2300033569336,16.238000869750977,107.93099975585938,15.805000305175781C107.32099914550781,15.60099983215332,106.40399932861328,15.256999969482422,105.28800201416016,14.838000297546387C100.73600006103516,13.130000114440918,93.11799621582031,10.27299976348877,88.75700378417969,10.27299976348877C88.1760025024414,10.27299976348877,87.66799926757812,10.319999694824219,87.2040023803711,10.416999816894531C83.9729995727539,11.09000015258789,80.4990005493164,14.029999732971191,77.70800018310547,16.392000198364258C76.33799743652344,17.551000595092773,75.04399871826172,18.645999908447266,74.29100036621094,19.023000717163086C73.61699676513672,19.360000610351562,72.31700134277344,19.71299934387207,70.94100189208984,20.086999893188477C67.55899810791016,21.006000518798828,62.92599868774414,22.263999938964844,59.74700164794922,25.16699981689453C57.26900100708008,27.429000854492188,55.63399887084961,30.95800018310547,54.19200134277344,34.06999969482422C52.99800109863281,36.64799880981445,51.86899948120117,39.08300018310547,50.558998107910156,40.24800109863281C47.57099914550781,42.90399932861328,41.04499816894531,49.744998931884766,39.94200134277344,53.93600082397461C38.90800094604492,57.86600112915039,40.31999969482422,66.78700256347656,41.47700119018555,69.68000030517578C42.07400131225586,71.1729965209961,41.736000061035156,78.43299865722656,41.53499984741211,82.77200317382812C41.402000427246094,85.63800048828125,41.29600143432617,87.9020004272461,41.36399841308594,89.05400085449219C41.486000061035156,91.13099670410156,43.77399826049805,94.34200286865234,47.52799987792969,99.38200378417969C49.4900016784668,102.01699829101562,51.7140007019043,105.00299835205078,52.12200164794922,106.2249984741211C52.28900146484375,106.72699737548828,52.457000732421875,107.26000213623047,52.630001068115234,107.80899810791016C53.67499923706055,111.13200378417969,54.86000061035156,114.89700317382812,57.393001556396484,117.06900024414062C58.34000015258789,117.88099670410156,59.487998962402344,118.6780014038086,60.70500183105469,119.52300262451172C62.790000915527344,120.97100067138672,65.15399932861328,122.61399841308594,66.31700134277344,124.30400085449219C66.94100189208984,125.21099853515625,67.33399963378906,126.14399719238281,67.75,127.13099670410156C68.56300354003906,129.06199645996094,69.48600006103516,131.25,72.24700164794922,133.1820068359375C74.94499969482422,135.0709991455078,82.81199645996094,139.531005859375,86.81700134277344,139.75799560546875L86.81700134277344,139.74600219726562C87.9469985961914,142.3730010986328,88.94499969482422,145.0229949951172,89.29000091552734,147.5540008544922C89.52300262451172,149.26300048828125,89.8290023803711,150.78799438476562,90.1520004272461,152.4040069580078C91.22100067138672,157.7480010986328,92.68599700927734,165.0659942626953,92.94200134277344,187.35299682617188C93.1719970703125,207.35699462890625,91.16799926757812,240.36399841308594,89.97000122070312,260.0840148925781C89.41300201416016,269.2460021972656,89.01200103759766,275.8659973144531,89.01200103759766,278.02301025390625C89.01200103759766,284.62200927734375,87.02899932861328,288.7869873046875,76.89199829101562,290.5509948730469C68.50299835205078,292.01300048828125,60.60599899291992,292.75201416015625,53.42100143432617,292.75201416015625C49.37799835205078,292.75201416015625,45.69200134277344,292.5190124511719,42.4640007019043,292.0580139160156C39.42100143432617,291.62298583984375,38.06399917602539,290.9590148925781,37.073001861572266,290.47601318359375C36.34600067138672,290.1210021972656,35.65999984741211,289.7860107421875,34.74800109863281,289.7860107421875C34.027000427246094,289.7860107421875,33.27799987792969,290,32.31800079345703,290.4779968261719C30.73200035095215,291.27099609375,29.60099983215332,292.8609924316406,29.134000778198242,294.9540100097656C28.42300033569336,298.1419982910156,29.347999572753906,301.85101318359375,31.548999786376953,304.6409912109375C34.16600036621094,307.9540100097656,37.65700149536133,309.2449951171875,44.00299835205078,309.2449951171875C47.1150016784668,309.2449951171875,51.15700149536133,308.9259948730469,56.72200012207031,308.239013671875C62.42399978637695,307.5369873046875,68.13099670410156,306.2980041503906,73.6510009765625,305.0989990234375C80.927001953125,303.5190124511719,87.79900360107422,302.0270080566406,93.53700256347656,302.0270080566406C95.11100006103516,302.0270080566406,96.56300354003906,302.1419982910156,97.85399627685547,302.37200927734375C104.2239990234375,303.4960021972656,111.08399963378906,303.95599365234375,117.71800231933594,304.3999938964844C122.39600372314453,304.7130126953125,126.81400299072266,305.0090026855469,130.97999572753906,305.52099609375C133.88800048828125,305.875,137.2989959716797,306.06500244140625,140.8419952392578,306.06500244140625C144.7429962158203,306.06500244140625,157.625,305.802001953125,159.5919952392578,302.4309997558594C160.81399536132812,300.3370056152344,162.35499572753906,295.1440124511719,160.57400512695312,292.0450134277344C159.72000122070312,290.5580139160156,158.2050018310547,289.739013671875,156.30499267578125,289.739013671875C154.697998046875,289.739013671875,151.77999877929688,290.1650085449219,148.08599853515625,290.7049865722656C142.47500610351562,291.52398681640625,134.78799438476562,292.6470031738281,128.5919952392578,292.6470031738281C124.99299621582031,292.6470031738281,122.26300048828125,292.2720031738281,120.47799682617188,291.5320129394531C118.98200225830078,290.9119873046875,117.5770034790039,290.3970031738281,116.33699798583984,289.9440002441406C110.3759994506836,287.7640075683594,107.65399932861328,286.7699890136719,107.04499816894531,279.3089904785156C106.56800079345703,273.4630126953125,106.80699920654297,263.79400634765625,107.08399963378906,252.60000610351562C107.29000091552734,244.2779998779297,107.52300262451172,234.8459930419922,107.52300262451172,224.9969940185547C107.52300262451172,206.9340057373047,108.11599731445312,190.2779998779297,108.5479965209961,178.11599731445312C108.6709976196289,174.64700317382812,108.77999877929688,171.593994140625,108.8550033569336,169.0449981689453C108.95899963378906,165.5030059814453,108.93399810791016,161.822998046875,108.91000366210938,158.26600646972656C108.85900115966797,150.69700622558594,108.81099700927734,143.54600524902344,110.05699920654297,140.63699340820312C110.5739974975586,139.42999267578125,111.0479965209961,138.2830047607422,111.47899627685547,137.19500732421875L111.71399688720703,137.20599365234375zM108.1520004272461,136.7469940185547C107.81500244140625,137.5919952392578,107.4540023803711,138.46499633789062,107.06999969482422,139.36099243164062C105.55599975585938,142.89300537109375,105.60399627685547,150.0290069580078,105.66000366210938,158.29100036621094C105.68399810791016,161.82000732421875,105.70800018310547,165.47000122070312,105.60600280761719,168.9530029296875C105.53099822998047,171.49600219726562,105.4229965209961,174.54400634765625,105.30000305175781,178.0050048828125C104.86599731445312,190.19200134277344,104.27300262451172,206.88099670410156,104.27300262451172,225.00100708007812C104.27300262451172,234.81100463867188,104.04000091552734,244.2209930419922,103.83499908447266,252.52200317382812C103.54399871826172,264.2760009765625,103.31400299072266,273.5589904785156,103.80599975585938,279.57598876953125C104.58399963378906,289.1099853515625,109.0459976196289,290.74200439453125,115.22100067138672,293C116.48999786376953,293.4639892578125,117.802001953125,293.9419860839844,119.23300170898438,294.5369873046875C121.44499969482422,295.4549865722656,124.50700378417969,295.89898681640625,128.5919952392578,295.89898681640625C135.0240020751953,295.89898681640625,142.843994140625,294.7560119628906,148.55499267578125,293.9219970703125C151.9770050048828,293.4219970703125,154.9340057373047,292.989990234375,156.30499267578125,292.989990234375C157.24200439453125,292.989990234375,157.56300354003906,293.33099365234375,157.75399780273438,293.66400146484375C158.656005859375,295.2340087890625,157.78700256347656,299.07000732421875,156.8350067138672,300.718994140625C155.9770050048828,301.5979919433594,149.93899536132812,302.81500244140625,140.83999633789062,302.81500244140625C137.42599487304688,302.81500244140625,134.15199279785156,302.635009765625,131.3719940185547,302.29400634765625C127.11799621582031,301.77301025390625,122.65599822998047,301.4750061035156,117.93299865722656,301.1570129394531C111.38500213623047,300.718994140625,104.61399841308594,300.26300048828125,98.41699981689453,299.1700134277344C96.91899871826172,298.906005859375,95.3219985961914,298.7770080566406,93.53500366210938,298.7770080566406C87.4489974975586,298.7770080566406,80.41000366210938,300.3039855957031,72.95899963378906,301.9230041503906C67.51100158691406,303.1059875488281,61.87699890136719,304.3280029296875,56.321998596191406,305.0140075683594C50.891998291015625,305.6839904785156,46.97700119018555,305.9939880371094,44.000999450683594,305.9939880371094C37.970001220703125,305.9939880371094,35.74100112915039,304.7049865722656,34.097999572753906,302.625C32.51300048828125,300.61700439453125,31.80900001525879,297.8840026855469,32.30500030517578,295.6610107421875C32.55500030517578,294.5409851074219,33.07500076293945,293.73199462890625,33.77000045776367,293.385009765625C34.380001068115234,293.0799865722656,34.64400100708008,293.0350036621094,34.74700164794922,293.0350036621094C34.90700149536133,293.0350036621094,35.215999603271484,293.18499755859375,35.64400100708008,293.3940124511719C36.762001037597656,293.9410095214844,38.452999114990234,294.7669982910156,42.00299835205078,295.2749938964844C45.382999420166016,295.7569885253906,49.2239990234375,296.00299072265625,53.41999816894531,296.00299072265625C60.79199981689453,296.00299072265625,68.8759994506836,295.2460021972656,77.4489974975586,293.75299072265625C90.46700286865234,291.4859924316406,92.26200103759766,284.85400390625,92.26200103759766,278.02398681640625C92.26200103759766,275.9639892578125,92.68199920654297,269.04400634765625,93.21499633789062,260.2820129394531C94.41500091552734,240.51600646972656,96.42400360107422,207.43800354003906,96.19300079345703,187.3159942626953C95.93299865722656,164.72500610351562,94.43399810791016,157.23500061035156,93.33999633789062,151.76600646972656C93.01300048828125,150.13400268554688,92.73100280761719,148.7239990234375,92.51200103759766,147.11500549316406C92.12200164794922,144.26100158691406,91.03099822998047,141.33299255371094,89.8550033569336,138.58399963378906L89.85600280761719,138.5850067138672C91.96399688720703,136.7310028076172,96.41999816894531,132.06399536132812,98.02100372314453,128.6959991455078C99.16300201416016,129.8179931640625,100.96099853515625,131.447998046875,103.74400329589844,133.93499755859375C104.3479995727539,134.47500610351562,104.86599731445312,134.93699645996094,105.2229995727539,135.26199340820312C105.94999694824219,135.9219970703125,106.96499633789062,136.4320068359375,108.17500305175781,136.76400756835938L108.1520004272461,136.7469940185547zM97.77899932861328,124.39199829101562L96.92900085449219,124.41100311279297C95.31500244140625,123.80599975585938,93.01300048828125,123.08799743652344,90.78399658203125,122.39299774169922C88.05799865722656,121.54199981689453,83.93900299072266,120.25800323486328,83.25700378417969,119.75900268554688C82.9489974975586,119.47699737548828,82.06800079345703,118.08599853515625,81.42400360107422,117.07099914550781C79.02300262451172,113.28099822998047,77.30599975585938,110.76100158691406,75.40399932861328,110.28600311279297C73.77899932861328,109.87999725341797,67.89399719238281,103.98200225830078,67.31500244140625,102.70600128173828C67.1709976196289,102.11100006103516,67.81800079345703,99.95500183105469,68.20500183105469,98.66600036621094C68.72699737548828,96.92400360107422,69.22200012207031,95.27799987792969,69.22200012207031,94.00399780273438C69.22200012207031,92.6259994506836,68.28600311279297,91.05400085449219,67.10099792480469,89.06300354003906C65.77300262451172,86.83100128173828,63.95399856567383,83.77400207519531,64.4469985961914,81.96499633789062C64.73300170898438,80.91400146484375,65.08899688720703,79.74199676513672,65.4530029296875,78.53900146484375C66.5530014038086,74.90899658203125,67.68900299072266,71.15499877929688,67.53299713134766,68.95500183105469C67.50399780273438,68.55500030517578,67.45600128173828,68.0780029296875,67.40299987792969,67.55000305175781C67.18900299072266,65.4219970703125,66.74299621582031,60.99399948120117,68.02100372314453,59.823001861572266C69.08399963378906,58.847999572753906,69.79199981689453,57.55500030517578,70.54100036621094,56.1870002746582C71.54399871826172,54.354000091552734,72.58100128173828,52.45800018310547,74.53399658203125,51.34299850463867C76.7770004272461,50.06100082397461,78.05500030517578,48.388999938964844,78.98899841308594,47.16899871826172C79.59500122070312,46.375999450683594,80.11799621582031,45.691001892089844,80.48999786376953,45.6609992980957C81.34400177001953,45.59000015258789,82.79100036621094,45.54600143432617,84.46700286865234,45.494998931884766C86.90599822998047,45.42100143432617,89.94300079345703,45.33000183105469,92.29100036621094,45.10599899291992C94.03399658203125,44.939998626708984,95.70600128173828,44.54499816894531,97.322998046875,44.16400146484375C98.98100280761719,43.77299880981445,100.5469970703125,43.40299987792969,101.77999877929688,43.40299987792969C101.9990005493164,43.40299987792969,102.21199798583984,43.415000915527344,102.41600036621094,43.44200134277344C104.04000091552734,43.65800094604492,107.73200225830078,46.077999114990234,110.17500305175781,47.67900085449219C111.30999755859375,48.42300033569336,112.29100036621094,49.066001892089844,113.05400085449219,49.50199890136719C114.46199798583984,50.305999755859375,116.6510009765625,50.94499969482422,118.76799774169922,51.5629997253418C120.01699829101562,51.928001403808594,121.8479995727539,52.46200180053711,122.48899841308594,52.80699920654297C122.56400299072266,53.20000076293945,122.59300231933594,54.02000045776367,122.61499786376953,54.641998291015625C122.6969985961914,56.948001861572266,122.80799865722656,60.10599899291992,124.62899780273438,62.34600067138672C126.697998046875,64.89299774169922,128.81100463867188,69.26599884033203,128.6490020751953,72.3550033569336C128.56100463867188,73.9990005493164,127.71199798583984,76.00800323486328,126.96199798583984,77.78099822998047C126.23799896240234,79.49400329589844,125.61100006103516,80.9739990234375,125.61100006103516,82.21199798583984C125.61100006103516,83.20099639892578,126.04199981689453,84.38099670410156,126.58599853515625,85.875C127.3270034790039,87.91200256347656,128.34300231933594,90.7020034790039,127.66899871826172,92.13300323486328C127.20099639892578,93.1259994506836,126.44000244140625,94.12699890136719,125.62999725341797,95.18499755859375C124.11399841308594,97.1719970703125,122.39600372314453,99.42400360107422,122.5459976196289,102.12000274658203C122.72899627685547,105.38800048828125,121.90299987792969,107.69999694824219,120.09500122070312,108.99199676513672C117.69300079345703,110.70700073242188,114.67400360107422,114.80699920654297,112.31099700927734,118.18599700927734L112.19400024414062,118.35900115966797C110.9280014038086,119.7229995727539,99.64600372314453,123.97899627685547,97.77899932861328,124.39199829101562zM144.84300231933594,94.93399810791016C144.52000427246094,96.77100372314453,143.25999450683594,98.61100006103516,141.92799377441406,100.55899810791016C141.30299377441406,101.4729995727539,140.65699768066406,102.41799926757812,140.0709991455078,103.41300201416016C139.10800170898438,105.052001953125,138.72300720214844,107.12699890136719,138.3520050048828,109.13400268554688C137.93800354003906,111.36799621582031,137.51100158691406,113.6780014038086,136.3249969482422,115.20500183105469C134.96299743652344,116.95500183105469,131.88600158691406,118.44499969482422,129.17100524902344,119.76000213623047C127.30799865722656,120.66200256347656,125.5469970703125,121.51499938964844,124.2979965209961,122.45099639892578C122.65499877929688,123.68299865722656,121.69400024414062,125.6729965209961,120.76499938964844,127.59700012207031C119.7490005493164,129.69900512695312,118.79000091552734,131.68499755859375,117.10299682617188,132.6490020751953C115.64800262451172,133.47999572753906,113.68499755859375,133.95700073242188,111.71399688720703,133.95700073242188C109.5719985961914,133.95700073242188,108.00599670410156,133.40499877929688,107.40399932861328,132.85800170898438C107.04100036621094,132.5279998779297,106.51699829101562,132.0590057373047,105.90399932861328,131.51100158691406C104.67500305175781,130.41200256347656,102.33200073242188,128.3179931640625,100.7770004272461,126.83999633789062C105.2979965209961,125.3290023803711,113.5739974975586,122.0459976196289,114.82099914550781,120.26399993896484L114.9729995727539,120.0459976196289C116.27300262451172,118.18599700927734,119.72699737548828,113.24500274658203,121.98200225830078,111.63400268554688C124.71700286865234,109.68099975585938,126.03299713134766,106.3280029296875,125.79000091552734,101.93699645996094C125.70700073242188,100.44000244140625,126.92400360107422,98.84400177001953,128.21299743652344,97.15399932861328C129.08799743652344,96.00700378417969,129.9929962158203,94.82099914550781,130.60899353027344,93.51399993896484C131.85899353027344,90.85800170898438,130.6280059814453,87.47699737548828,129.63800048828125,84.76000213623047C129.29200744628906,83.80799865722656,128.86099243164062,82.625,128.86099243164062,82.20899963378906C128.86099243164062,81.62999725341797,129.4429931640625,80.25599670410156,129.9550018310547,79.04299926757812C130.8090057373047,77.02400207519531,131.77499389648438,74.73600006103516,131.89300537109375,72.52200317382812C132.11000061035156,68.39700317382812,129.58599853515625,63.29100036621094,127.1510009765625,60.292999267578125C126.01799774169922,58.89799880981445,125.93000030517578,56.472999572753906,125.86199951171875,54.52299880981445C125.80000305175781,52.81399917602539,125.75700378417969,51.57899856567383,125.04900360107422,50.729000091552734C124.29000091552734,49.81800079345703,122.68499755859375,49.31800079345703,119.677001953125,48.439998626708984C117.83100128173828,47.9010009765625,115.73899841308594,47.29100036621094,114.66500091552734,46.676998138427734C113.98799896240234,46.290000915527344,113.0459976196289,45.67300033569336,111.95500183105469,44.95800018310547C108.12799835205078,42.45000076293945,105.0270004272461,40.50899887084961,102.84400177001953,40.21799850463867C102.50900268554688,40.17399978637695,102.1510009765625,40.1510009765625,101.77899932861328,40.1510009765625C100.16799926757812,40.1510009765625,98.4229965209961,40.5629997253418,96.57599639892578,40.999000549316406C95.06500244140625,41.35499954223633,93.50399780273438,41.7239990234375,91.98300170898438,41.86899948120117C89.73799896240234,42.08300018310547,86.76100158691406,42.172000885009766,84.36900329589844,42.24399948120117C82.64700317382812,42.29600143432617,81.16000366210938,42.340999603271484,80.22100067138672,42.41899871826172C78.41200256347656,42.569000244140625,77.39299774169922,43.90299987792969,76.40699768066406,45.19200134277344C75.55699920654297,46.303001403808594,74.59500122070312,47.5620002746582,72.9219970703125,48.518001556396484C70.1709976196289,50.09000015258789,68.7959976196289,52.604000091552734,67.69000244140625,54.624000549316406C67.0739974975586,55.749000549316406,66.49199676513672,56.8129997253418,65.82499694824219,57.42399978637695C63.34700012207031,59.69499969482422,63.84299850463867,64.61599731445312,64.16999816894531,67.87200164794922C64.21900177001953,68.36499786376953,64.26499938964844,68.80999755859375,64.29100036621094,69.18399810791016C64.40599822998047,70.78500366210938,63.262001037597656,74.55999755859375,62.34299850463867,77.59400177001953C61.96900177001953,78.8280029296875,61.60499954223633,80.03199768066406,61.31100082397461,81.10700225830078C60.45500183105469,84.24800109863281,62.590999603271484,87.83799743652344,64.30799865722656,90.7229995727539C64.96199798583984,91.8219985961914,65.95099639892578,93.48400115966797,65.97200012207031,94.00199890136719C65.97200012207031,94.79900360107422,65.50499725341797,96.35600280761719,65.09300231933594,97.7300033569336C64.3270034790039,100.28099822998047,63.66600036621094,102.48500061035156,64.3280029296875,103.9749984741211C65.2030029296875,105.94300079345703,71.80999755859375,112.73500061035156,74.58799743652344,113.4280014038086C75.5009994506836,113.79199981689453,77.64800262451172,117.18000030517578,78.67900085449219,118.80799865722656C79.83599853515625,120.63300323486328,80.5199966430664,121.69100189208984,81.13800048828125,122.22100067138672C82.0780029296875,123.0270004272461,84.50399780273438,123.83699798583984,89.81700134277344,125.49299621582031C91.72799682617188,126.08899688720703,93.69300079345703,126.70099639892578,95.1760025024414,127.22799682617188C94.13700103759766,129.53500366210938,89.00599670410156,135.33900451660156,87.28500366210938,136.5050048828125C87.25299835205078,136.50999450683594,87.19999694824219,136.51400756835938,87.12100219726562,136.51400756835938C84.66699981689453,136.51400756835938,77.49099731445312,132.88499450683594,74.10600280761719,130.51699829101562C72.11299896240234,129.12100219726562,71.50700378417969,127.68499755859375,70.74099731445312,125.86599731445312C70.27999877929688,124.77200317382812,69.8030014038086,123.64099884033203,68.99099731445312,122.45999908447266C67.49199676513672,120.27999877929688,64.87000274658203,118.45899963378906,62.55500030517578,116.85099792480469C61.409000396728516,116.05500030517578,60.32600021362305,115.3030014038086,59.505001068115234,114.5989990234375C57.678001403808594,113.03299713134766,56.641998291015625,109.73799896240234,55.72700119018555,106.83100128173828C55.54800033569336,106.26399993896484,55.375,105.71299743652344,55.20199966430664,105.19400024414062C54.630001068115234,103.47699737548828,52.54499816894531,100.6780014038086,50.13199996948242,97.43800354003906C48.09199905395508,94.69999694824219,44.68000030517578,90.11699676513672,44.60599899291992,88.86100006103516C44.54800033569336,87.87999725341797,44.6609992980957,85.47100067138672,44.77899932861328,82.9209976196289C45.11399841308594,75.71700286865234,45.290000915527344,70.46399688720703,44.492000579833984,68.47100067138672C43.43299865722656,65.82499694824219,42.29600143432617,57.74599838256836,43.082000732421875,54.76100158691406C43.832000732421875,51.91299819946289,49.198001861572266,45.801998138427734,52.71500015258789,42.67499923706055C54.53099822998047,41.06100082397461,55.79800033569336,38.327999114990234,57.13800048828125,35.435001373291016C58.51599884033203,32.46200180053711,59.941001892089844,29.386999130249023,61.93600082397461,27.56599998474121C64.53500366210938,25.19300079345703,68.55799865722656,24.100000381469727,71.79000091552734,23.222000122070312C73.39399719238281,22.785999298095703,74.77799987792969,22.40999984741211,75.74099731445312,21.929000854492188C76.84400177001953,21.378000259399414,78.21600341796875,20.216999053955078,79.80400085449219,18.871999740600586C82.31500244140625,16.746999740600586,85.44000244140625,14.102999687194824,87.86399841308594,13.597999572753906C88.10399627685547,13.54800033569336,88.40399932861328,13.52299976348877,88.75399780273438,13.52299976348877C92.5250015258789,13.52299976348877,100.08300018310547,16.357999801635742,104.14399719238281,17.881000518798828C105.30699920654297,18.31800079345703,106.26399993896484,18.676000595092773,106.9010009765625,18.88800048828125C108.61399841308594,19.458999633789062,111.61699676513672,19.621999740600586,114.7969970703125,19.79400062561035C117.72599792480469,19.952999114990234,121.73699951171875,20.170000076293945,122.80999755859375,20.783000946044922C125.03299713134766,22.054000854492188,127.43299865722656,25.66699981689453,128.42100524902344,27.645999908447266C128.95599365234375,28.71500015258789,130.30999755859375,29.85700035095215,132.85699462890625,31.95199966430664C136.10499572753906,34.62200164794922,140.552001953125,38.27899932861328,141.79800415039062,41.49700164794922C143.27099609375,45.301998138427734,143.6320037841797,50.55400085449219,143.89599609375,54.388999938964844C144.01199340820312,56.0890007019043,144.11300659179688,57.55699920654297,144.28700256347656,58.65299987792969C144.54100036621094,60.2599983215332,145.37899780273438,62.67100143432617,146.26600646972656,65.2239990234375C147.4010009765625,68.48500061035156,148.68600463867188,72.18199920654297,148.68600463867188,74.0469970703125C148.68600463867188,76.4020004272461,147.22900390625,80.11799621582031,144.69200134277344,84.23999786376953C143.52999877929688,86.12899780273438,144.00100708007812,88.552001953125,144.45700073242188,90.89600372314453C144.73800659179688,92.3550033569336,145.03199768066406,93.86499786376953,144.84300231933594,94.93399810791016z"/>
<path id="JacketBorder" fill="#000000" d="M19.034000396728516,222.09800720214844C18.1200008392334,222.75,17.357999801635742,223.2550048828125,16.93899917602539,223.4459991455078C16.503000259399414,223.64500427246094,16.145000457763672,223.91900634765625,15.819000244140625,224.21800231933594C15.67300033569336,218.656005859375,15.791000366210938,210.13499450683594,15.97599983215332,196.9320068359375C16.08300018310547,189.23599243164062,16.211999893188477,180.04100036621094,16.31599998474121,169.1009979248047C16.718000411987305,126.91999816894531,36.492000579833984,118.8489990234375,49.57699966430664,113.50700378417969C51.12099838256836,112.87699890136719,52.5880012512207,112.27400207519531,53.939998626708984,111.65799713134766C54.34299850463867,112.68299865722656,54.8120002746582,113.66699981689453,55.35900115966797,114.5739974975586C53.92599868774414,115.2300033569336,52.4119987487793,115.86100006103516,50.80500030517578,116.51699829101562C37.78200149536133,121.83300018310547,19.94700050354004,129.11300659179688,19.56599998474121,169.13299560546875C19.461999893188477,180.07899475097656,19.33300018310547,189.2779998779297,19.22599983215332,196.97900390625C19.072999954223633,207.8280029296875,18.957000732421875,216.22900390625,19.034000396728516,222.09800720214844zM180.11099243164062,129.6510009765625C180.0189971923828,129.48800659179688,179.9550018310547,129.33099365234375,179.9040069580078,129.1790008544922C177.6540069580078,132.32699584960938,175.0989990234375,136.38099670410156,173.55999755859375,138.8820037841797C169.35899353027344,132.21400451660156,156.5,113.177001953125,142.48399353027344,105.9000015258789C142.1269989013672,106.81400299072266,141.88800048828125,107.93099975585938,141.66400146484375,109.11900329589844C157.21800231933594,117.65599822998047,171.98399353027344,142.5189971923828,172.16299438476562,142.822998046875C172.45399475097656,143.31700134277344,172.98399353027344,143.6230010986328,173.5590057373047,143.625C173.56100463867188,143.625,173.56300354003906,143.625,173.56500244140625,143.625C174.13499450683594,143.625,174.66600036621094,143.3249969482422,174.9600067138672,142.83399963378906C176.35499572753906,140.5019989013672,179.54600524902344,135.3419952392578,182.16900634765625,131.58999633789062C181.1820068359375,130.9320068359375,180.45899963378906,130.26800537109375,180.11099243164062,129.6510009765625zM50.400001525878906,163.93899536132812C49.630001068115234,163.4759979248047,48.632999420166016,163.7270050048828,48.17100143432617,164.4969940185547C46.051998138427734,168.02699279785156,42.071998596191406,201.5659942626953,40.902000427246094,212.8780059814453C41.9630012512207,213.20700073242188,43.055999755859375,213.76800537109375,44.01300048828125,214.35400390625C45.124000549316406,202.8249969482422,49.35499954223633,168.9929962158203,50.95800018310547,166.16900634765625C51.41899871826172,165.3990020751953,51.16899871826172,164.4010009765625,50.400001525878906,163.93899536132812zM153.64599609375,174.61399841308594C149.072998046875,166.35000610351562,141,154.2239990234375,140.91600036621094,154.09800720214844C140.41799926757812,153.3509979248047,139.4080047607422,153.14700317382812,138.66299438476562,153.6479949951172C137.91600036621094,154.14500427246094,137.71400451660156,155.1540069580078,138.21200561523438,155.9010009765625C138.2969970703125,156.0290069580078,146.58900451660156,168.48300170898438,151.04200744628906,176.61900329589844C151.03399658203125,176.7480010986328,151.02699279785156,176.89100646972656,151.02099609375,177.052001953125C150.94500732421875,179.00100708007812,151.0019989013672,183.39999389648438,151.14199829101562,192.27499389648438C151.34500122070312,205.17100524902344,151.6219940185547,222.83200073242188,151.0850067138672,231.6999969482422C150.6510009765625,238.85699462890625,151.44000244140625,252.7209930419922,152.20399475097656,266.1260070800781C152.69200134277344,274.6910095214844,153.2220001220703,284.0140075683594,153.28599548339844,289.9859924316406C154.53199768066406,289.83599853515625,155.56100463867188,289.74200439453125,156.3040008544922,289.74200439453125C156.37899780273438,289.74200439453125,156.4510040283203,289.75201416015625,156.52699279785156,289.7550048828125C156.4759979248047,284.3500061035156,156.04200744628906,276.32000732421875,155.4510040283203,265.9419860839844C154.6929931640625,252.6300048828125,153.90899658203125,238.86599731445312,154.33099365234375,231.8990020751953C154.875,222.90699768066406,154.59800720214844,205.1719970703125,154.3939971923828,192.2259979248047C154.3179931640625,187.37600708007812,154.2449951171875,182.69900512695312,154.23800659179688,179.72500610351562C157.67100524902344,183.69900512695312,163.88099670410156,190.7259979248047,171.3730010986328,190.7259979248047C172.3000030517578,190.7259979248047,173.22799682617188,190.61599731445312,174.1320037841797,190.3990020751953C184.91400146484375,187.81100463867188,207.54200744628906,149.95899963378906,212.75599670410156,140.0030059814453C211.71499633789062,139.9080047607422,210.5590057373047,139.71099853515625,209.3990020751953,139.43299865722656C203.79299926757812,149.74200439453125,182.26199340820312,185.10499572753906,173.375,187.23899841308594C172.72000122070312,187.39599609375,172.0469970703125,187.4759979248047,171.375,187.4759979248047C165.2239990234375,187.4759979248047,159.5489959716797,180.90199279785156,156.5,177.3699951171875C155.1280059814453,175.781005859375,154.3990020751953,174.93699645996094,153.66000366210938,174.61500549316406M229.37399291992188,74.40399932861328C227.3780059814453,71.41200256347656,224.2729949951172,69.55000305175781,220.14599609375,68.87200164794922C218.7050018310547,68.63500213623047,217.30799865722656,68.51499938964844,215.99899291992188,68.51499938964844C203.65899658203125,68.51499938964844,200.2050018310547,78.87699890136719,198.5449981689453,83.85700225830078C197.30499267578125,87.57499694824219,196.39999389648438,91.06400299072266,195.85699462890625,93.3489990234375C193.88600158691406,91.8219985961914,190.85499572753906,89.93699645996094,187.8939971923828,89.93699645996094C186.4149932861328,89.93699645996094,185.11099243164062,90.39600372314453,184.01499938964844,91.302001953125C179.3489990234375,95.15599822998047,179.52699279785156,102.35600280761719,184.46499633789062,109.64600372314453C185.37600708007812,110.99099731445312,186.18299865722656,112.18099975585938,186.89599609375,113.22699737548828C188.47000122070312,113.29299926757812,189.96400451660156,113.62999725341797,191.29299926757812,113.94400024414062C191.30099487304688,113.94599914550781,191.30999755859375,113.947998046875,191.31700134277344,113.94999694824219C190.31100463867188,112.4739990234375,188.92599487304688,110.44000244140625,187.15499877929688,107.8239974975586C184.1699981689453,103.41600036621094,182.0959930419922,97.10099792480469,186.08299255371094,93.80799865722656C186.58900451660156,93.38999938964844,187.18099975585938,93.18699645996094,187.8939971923828,93.18699645996094C190.73800659179688,93.18699645996094,194.4949951171875,96.30899810791016,195.7030029296875,97.51200103759766C196.1269989013672,97.93499755859375,196.74899291992188,98.09100341796875,197.322998046875,97.91600036621094C197.89599609375,97.74199676513672,198.32699584960938,97.26799774169922,198.44500732421875,96.68099975585938C198.45599365234375,96.625,199.59300231933594,90.98899841308594,201.62899780273438,84.88400268554688C203.7449951171875,78.53600311279297,206.77499389648438,71.76399993896484,216,71.76399993896484C217.13400268554688,71.76399993896484,218.35400390625,71.86900329589844,219.6199951171875,72.0780029296875C222.8679962158203,72.61199951171875,225.1739959716797,73.96199798583984,226.67100524902344,76.20600128173828C230.34100341796875,81.70600128173828,228.093994140625,91.25299835205078,227.24899291992188,94.84700012207031C226.18699645996094,99.35299682617188,220.9149932861328,110.18199920654297,217.4250030517578,117.34700012207031C216.81100463867188,118.60800170898438,216.2429962158203,119.7750015258789,215.7310028076172,120.83999633789062C216.72500610351562,121.27400207519531,217.68600463867188,121.8239974975586,218.54400634765625,122.48699951171875C219.0800018310547,121.3740005493164,219.6909942626953,120.11799621582031,220.34800720214844,118.76899719238281C224.11399841308594,111.03800201416016,229.27000427246094,100.44999694824219,230.41299438476562,95.58999633789062C231.3459930419922,91.6240005493164,233.82699584960938,81.0790023803711,229.37399291992188,74.40399932861328zM34.880001068115234,273.8699951171875C39.14799880981445,271.7640075683594,42.49300003051758,267.18499755859375,43.683998107910156,261.3389892578125C44,259.7860107421875,44.42900085449219,257.6510009765625,44.76599884033203,255.85800170898438C45.362998962402344,256.1960144042969,46.05500030517578,256.4280090332031,46.827999114990234,256.4280090332031L46.827999114990234,256.4280090332031C47.59199905395508,256.4280090332031,48.33100128173828,256.20001220703125,49.025001525878906,255.7519989013672C51.983001708984375,253.83799743652344,54.92300033569336,249.36900329589844,53.47100067138672,243.0749969482422L53.236000061035156,242.04800415039062C52.250999450683594,237.718994140625,50.92399978637695,231.92599487304688,48.446998596191406,227.79400634765625C48.35499954223633,228.27200317382812,48.233001708984375,228.66400146484375,48.07400131225586,228.92799377441406C47.64099884033203,229.6510009765625,46.893001556396484,230.06700134277344,46.01599884033203,230.10400390625C48.0369987487793,233.8730010986328,49.28099822998047,239.31500244140625,50.06700134277344,242.77000427246094L50.30400085449219,243.8070068359375C51.37699890136719,248.45599365234375,49.435001373291016,251.6179962158203,47.2599983215332,253.0240020751953C47.02299880981445,253.177001953125,46.87900161743164,253.17799377441406,46.83000183105469,253.17799377441406L46.82899856567383,253.17799377441406C46.26599884033203,253.17799377441406,45.45000076293945,252.31500244140625,45.08100128173828,251.697998046875C44.71099853515625,251.06300354003906,43.9630012512207,250.70700073242188,43.255001068115234,250.8990020751953C42.54600143432617,251.08999633789062,42.055999755859375,251.6840057373047,42.055999755859375,252.4199981689453C42.051998138427734,252.46499633789062,41.94599914550781,253.5970001220703,40.500999450683594,260.6919860839844C39.12300109863281,267.4580078125,34.4109992980957,272.1390075683594,29.145000457763672,271.8789978027344C27.288999557495117,271.7879943847656,25.702999114990234,270.9590148925781,24.430999755859375,269.4129943847656C22.209999084472656,266.7139892578125,19.976999282836914,260.6579895019531,21.951000213623047,247.13400268554688C22.218000411987305,245.30799865722656,22.597000122070312,243.6219940185547,23.06399917602539,242.05999755859375C21.820999145507812,244.4219970703125,20.944000244140625,245.6269989013672,19.565000534057617,245.6269989013672C19.344999313354492,245.6269989013672,19.1299991607666,245.5989990234375,18.917999267578125,245.55799865722656C18.854999542236328,245.9239959716797,18.790000915527344,246.28799438476562,18.735000610351562,246.6649932861328C17.011999130249023,258.4670104980469,18.083999633789062,266.81500244140625,21.92099952697754,271.47698974609375C23.77400016784668,273.72900390625,26.215999603271484,274.9909973144531,28.986000061035156,275.1239929199219C29.173999786376953,275.13299560546875,29.363000869750977,275.1390075683594,29.549999237060547,275.1390075683594C30.22800064086914,275.1390075683594,30.89699935913086,275.0790100097656,31.554000854492188,274.9649963378906L31.551000595092773,274.95001220703125C31.47100067138672,276.5329895019531,31.461000442504883,278.0169982910156,31.54199981689453,279.3550109863281C31.60099983215332,280.3179931640625,31.64699935913086,281.2449951171875,31.691999435424805,282.1300048828125C31.85099983215332,285.2569885253906,31.993999481201172,288.02301025390625,32.540000915527344,290.3760070800781C33.38999938964844,289.97601318359375,34.08300018310547,289.7850036621094,34.744998931884766,289.7850036621094C35.12300109863281,289.7850036621094,35.45800018310547,289.8500061035156,35.777000427246094,289.9440002441406C35.23899841308594,287.8970031738281,35.10599899291992,285.2720031738281,34.9379997253418,281.9649963378906C34.893001556396484,281.0679931640625,34.845001220703125,280.1310119628906,34.7859992980957,279.156005859375C34.691001892089844,277.59100341796875,34.73400115966797,275.7950134277344,34.874000549316406,273.85400390625L34.880001068115234,273.8699951171875zM44.46900177001953,309.239013671875C44.6879997253418,311.3940124511719,44.88999938964844,313.3219909667969,45.082000732421875,315.0840148925781C45.99700164794922,314.927001953125,47.0880012512207,314.7720031738281,48.29899978637695,314.62298583984375C48.08599853515625,312.6719970703125,47.888999938964844,310.77099609375,47.72100067138672,309.114990234375C46.540000915527344,309.18798828125,45.45399856567383,309.22900390625,44.46900177001953,309.239013671875zM93.92400360107422,302.0350036621094C93.79299926757812,302.03399658203125,93.66600036621094,302.0270080566406,93.53199768066406,302.0270080566406C92.60399627685547,302.0270080566406,91.63700103759766,302.0790100097656,90.65399932861328,302.1499938964844C90.37200164794922,305.49798583984375,90.02200317382812,309.43701171875,89.71399688720703,312.9079895019531C90.96099853515625,313.09100341796875,92.04900360107422,313.3399963378906,92.90599822998047,313.7070007324219C93.36000061035156,308.59100341796875,93.69000244140625,304.8179931640625,93.92400360107422,302.0350036621094zM99.7979965209961,302.68798828125C99.1449966430664,302.5870056152344,98.49299621582031,302.4849853515625,97.8489990234375,302.37298583984375C97.43599700927734,302.29998779296875,97,302.24200439453125,96.55599975585938,302.1919860839844C96.47899627685547,306.47900390625,96.44400024414062,310.0090026855469,96.44300079345703,312.9429931640625C96.63700103759766,312.9360046386719,96.83399963378906,312.92999267578125,97.052001953125,312.92999267578125C97.81700134277344,312.92999267578125,98.71099853515625,312.968994140625,99.6989974975586,313.0369873046875C99.697998046875,310.239990234375,99.72799682617188,306.8340148925781,99.7979965209961,302.68798828125zM140.83700561523438,306.06500244140625C140.18800354003906,306.06500244140625,139.5469970703125,306.0509948730469,138.9080047607422,306.0400085449219C138.53399658203125,309.1470031738281,137.95799255371094,313.22198486328125,137.3769989013672,317.02099609375C138.6179962158203,317.1289978027344,139.69500732421875,317.239990234375,140.61500549316406,317.3529968261719C140.80599975585938,316.11700439453125,140.94500732421875,315.19000244140625,140.9929962158203,314.8680114746094C141.57000732421875,310.9840087890625,141.94900512695312,308.14599609375,142.18899536132812,306.05499267578125C141.66799926757812,306.06201171875,141.21099853515625,306.06500244140625,140.83700561523438,306.06500244140625z"/>
<path id="BootsBorder" fill="#000000" d="M37.941001892089844,352.5329895019531C38.01499938964844,352.4800109863281,38.08599853515625,352.4230041503906,38.16400146484375,352.3760070800781C39.32500076293945,351.67999267578125,41.1609992980957,350.7489929199219,43.10499954223633,349.7650146484375C45.513999938964844,348.5450134277344,49.45000076293945,346.5509948730469,50.44300079345703,345.68798828125C50.58700180053711,343.85198974609375,50.270999908447266,338.010986328125,49.64899826049805,336.5589904785156C49.33100128173828,336.489990234375,48.64500045776367,336.4129943847656,48.165000915527344,336.3599853515625C45.96200180053711,336.1159973144531,42.275001525878906,335.70599365234375,41.801998138427734,332.3890075683594C41.57600021362305,330.80499267578125,41.18199920654297,327.0769958496094,41.01599884033203,323.7510070800781C40.69900131225586,317.4159851074219,41.29899978637695,316.0830078125,42.67599868774414,315.6239929199219C47.720001220703125,313.9410095214844,75.5469970703125,312.4330139160156,82.53500366210938,312.4330139160156C83.05000305175781,312.4330139160156,83.48400115966797,312.4410095214844,83.8280029296875,312.4540100097656C88.0459976196289,312.62298583984375,91.5979995727539,312.8869934082031,93.52899932861328,314.0060119628906C93.8280029296875,313.3890075683594,94.16699981689453,313.2909851074219,94.56300354003906,313.1780090332031C95.1500015258789,313.010009765625,95.94100189208984,312.9320068359375,97.052001953125,312.9320068359375C101.03299713134766,312.9320068359375,108.46900177001953,313.9679870605469,115.02999877929688,314.8810119628906C117.70600128173828,315.2539978027344,120.23500061035156,315.60699462890625,122.1449966430664,315.8299865722656C124.46800231933594,316.10198974609375,127.54000091552734,316.3089904785156,130.79100036621094,316.52899169921875C141.47500610351562,317.2489929199219,144.75,317.6629943847656,145.86900329589844,319.0169982910156C146.22300720214844,319.447998046875,146.3820037841797,319.9779968261719,146.31399536132812,320.5119934082031C146.29299926757812,320.6839904785156,143.62600708007812,337.9519958496094,140.9199981689453,339.49798583984375C140.052001953125,339.9930114746094,139.20599365234375,340.10699462890625,138.58799743652344,340.1910095214844C138.49200439453125,340.2040100097656,138.3780059814453,340.2179870605469,138.2760009765625,340.2349853515625C138.22300720214844,340.58599853515625,138.1510009765625,340.9989929199219,138.06300354003906,341.4840087890625C137.06300354003906,347.0719909667969,137.31300354003906,348.7590026855469,137.6999969482422,349.1929931640625C138.2469940185547,349.61700439453125,139.98800659179688,350.6600036621094,141.83200073242188,351.76300048828125C150.45700073242188,356.9320068359375,152.20199584960938,358.3070068359375,152.20199584960938,359.9419860839844C152.20199584960938,360.1679992675781,152.26600646972656,361.0409851074219,152.33700561523438,361.9639892578125C153.32699584960938,375.1619873046875,152.8730010986328,378.8489990234375,150.2259979248047,379.114013671875C148.90199279785156,379.2460021972656,139.3509979248047,379.6300048828125,130.50599670410156,379.6300048828125C117.39399719238281,379.6300048828125,115.89600372314453,378.7749938964844,115.25700378417969,378.4079895019531C114.5260009765625,377.989990234375,112.43599700927734,377.11199951171875,110.01599884033203,376.09600830078125C100.60399627685547,372.14300537109375,94.90299987792969,369.4670104980469,92.4229965209961,367.1080017089844L92.42400360107422,367.1090087890625C90.35299682617188,370.4330139160156,83.42400360107422,376.9830017089844,73.73200225830078,377.65899658203125C70.38700103759766,377.8909912109375,66.072998046875,378.0260009765625,61.89899826049805,378.0260009765625C38.76900100708008,378.0260009765625,37.50199890136719,374.4079895019531,37.025001525878906,373.0469970703125C35.893001556396484,369.8160095214844,33.6150016784668,356.5459899902344,37.55699920654297,352.84600830078125M95.1780014038086,331.4630126953125C97.02799987792969,331.9670104980469,100.63600158691406,332.875,105.89600372314453,333.8699951171875C114.09700012207031,335.4219970703125,131.3800048828125,337.14898681640625,136.906005859375,337.14898681640625L136.906005859375,337.25201416015625C137.36900329589844,337.0799865722656,137.8260040283203,337.0150146484375,138.1540069580078,336.97100830078125C138.5229949951172,336.9219970703125,138.8489990234375,336.87701416015625,139.13099670410156,336.76300048828125C140.21600341796875,334.9620056152344,142.33999633789062,324.6990051269531,142.9499969482422,321.03399658203125C140.83999633789062,320.4649963378906,134.7550048828125,320.05499267578125,130.572998046875,319.77301025390625C127.27899932861328,319.54998779296875,124.16899871826172,319.3399963378906,121.76499938964844,319.0580139160156C119.81999969482422,318.8290100097656,117.2750015258789,318.4739990234375,114.58100128173828,318.0989990234375C108.44400024414062,317.2449951171875,100.80799865722656,316.1809997558594,97.0510025024414,316.1809997558594C96.6969985961914,316.1809997558594,96.41600036621094,316.1919860839844,96.19300079345703,316.2040100097656C95.79900360107422,318.3489990234375,95.45899963378906,324.4530029296875,95.18000030517578,331.4639892578125L95.1780014038086,331.4630126953125zM46.74300003051758,351.5530090332031C49.99300003051758,351.4330139160156,53.680999755859375,351.48199462890625,57.61600112915039,351.70599365234375L58.573001861572266,351.760009765625C66.64900207519531,352.2130126953125,73.62300109863281,352.6059875488281,73.91999816894531,357.64300537109375C74.05599975585938,359.9549865722656,74.46199798583984,363.3110046386719,74.7300033569336,365.5329895019531C74.9540023803711,367.3840026855469,75.0260009765625,368.00799560546875,75.0260009765625,368.3240051269531L71.7760009765625,368.3240051269531C71.76799774169922,368.11199951171875,71.63400268554688,366.9989929199219,71.50399780273438,365.9230041503906C71.21399688720703,363.5270080566406,70.81800079345703,360.24700927734375,70.6760025024414,357.83599853515625C70.55000305175781,355.69000244140625,64.08999633789062,355.32598876953125,58.39099884033203,355.0069885253906L57.430999755859375,354.9519958496094C50.13399887084961,354.5350036621094,43.57400131225586,354.75299072265625,39.481998443603516,355.5299987792969L39.481998443603516,355.5329895019531C37.987998962402344,357.74700927734375,38.47800064086914,367.3599853515625,40.09400177001953,371.9750061035156C40.50400161743164,372.7460021972656,45.231998443603516,374.7799987792969,61.900001525878906,374.7799987792969C65.94200134277344,374.7799987792969,70.28199768066406,374.6440124511719,73.50700378417969,374.4209899902344C82.48100280761719,373.7950134277344,88.61199951171875,367.3909912109375,89.83000183105469,365.12799072265625C90.552001953125,363.2950134277344,91.1259994506836,348.42999267578125,91.4739990234375,335.5C88.29299926757812,335.8659973144531,80.90699768066406,336.6520080566406,76.0459976196289,336.6520080566406C73.93499755859375,336.6520080566406,70.80999755859375,336.7309875488281,67.50199890136719,336.81500244140625C63.56399917602539,336.9159851074219,59.30400085449219,337.02398681640625,55.845001220703125,337.02398681640625C54.8489990234375,337.02398681640625,53.91999816894531,337.0140075683594,53.08300018310547,336.9939880371094L53.08399963378906,336.9930114746094C53.9010009765625,340.7820129394531,53.625999450683594,346.4679870605469,53.61399841308594,346.5409851074219C53.393001556396484,347.86199951171875,51.94900131225586,348.8739929199219,46.744998931884766,351.5580139160156M51.0989990234375,333.6499938964844C54.3120002746582,333.8970031738281,61.26599884033203,333.7200012207031,67.41899871826172,333.56500244140625C70.7490005493164,333.4800109863281,73.89399719238281,333.3999938964844,76.04499816894531,333.3999938964844C80.927001953125,333.3999938964844,88.75,332.5429992675781,91.55799865722656,332.2139892578125C91.73300170898438,325.0790100097656,91.83300018310547,318.99700927734375,91.83999633789062,316.760986328125C91.25,316.3819885253906,89.30799865722656,315.92401123046875,83.697998046875,315.6990051269531C83.38899993896484,315.6860046386719,82.99800109863281,315.6789855957031,82.53500366210938,315.6789855957031C74.46099853515625,315.6789855957031,49.88800048828125,317.1990051269531,44.297000885009766,318.5379943847656C43.946998596191406,320.6390075683594,44.45500183105469,327.9739990234375,45.02000045776367,331.9259948730469C45.12799835205078,332.6860046386719,46.7400016784668,332.927001953125,48.52399826049805,333.125C49.518001556396484,333.2349853515625,50.393001556396484,333.343994140625,51.099998474121094,333.6449890136719M95.05500030517578,334.7969970703125C94.76399993896484,342.89801025390625,94.5530014038086,351.53900146484375,94.43299865722656,356.4169921875C94.33300018310547,360.5249938964844,94.26499938964844,363.31298828125,94.21299743652344,364.3059997558594C95.30899810791016,366.39898681640625,106.88600158691406,371.260009765625,111.2750015258789,373.1029968261719C113.9990005493164,374.2489929199219,115.96700286865234,375.07501220703125,116.86900329589844,375.5889892578125C117.12699890136719,375.7170104980469,119.04000091552734,376.38299560546875,130.50599670410156,376.38299560546875C138.23800659179688,376.38299560546875,146.75999450683594,376.0780029296875,149.2899932861328,375.927001953125C149.72799682617188,374.37701416015625,149.66299438476562,369.77301025390625,149.0959930419922,362.2099914550781C149.052001953125,361.6199951171875,149.02000427246094,361.177001953125,148.9949951171875,360.82598876953125C142.10699462890625,359.9110107421875,126.47599792480469,358.5010070800781,123.10900115966797,358.697998046875C120.31099700927734,358.8630065917969,119.74700164794922,359.197998046875,119.56400299072266,362.67401123046875C119.3489990234375,366.7760009765625,119.34600067138672,370.27301025390625,119.34600067138672,370.3070068359375L116.09600067138672,370.3070068359375C116.09600067138672,370.2720031738281,116.0979995727539,366.69000244140625,116.31900024414062,362.5039978027344C116.5780029296875,357.57000732421875,118.30500030517578,355.72601318359375,122.91799926757812,355.4540100097656C126.01599884033203,355.2659912109375,136.6020050048828,356.16900634765625,144.16400146484375,356.9849853515625C142.73399353027344,356.0929870605469,141.26600646972656,355.2139892578125,140.16299438476562,354.552001953125C138.06399536132812,353.2950134277344,136.40899658203125,352.3030090332031,135.68699645996094,351.7409973144531C133.4510040283203,350.00201416015625,134.02099609375,345.625,134.86599731445312,340.9110107421875C134.90199279785156,340.7030029296875,134.93499755859375,340.52398681640625,134.96499633789062,340.3489990234375C127.95700073242188,340.0610046386719,112.83399963378906,338.489013671875,105.29199981689453,337.0610046386719C100.5270004272461,336.1600036621094,97.11199951171875,335.3340148925781,95.05999755859375,334.7950134277344"/>
</g>
</svg>