<svg xmlns="http://www.w3.org/2000/svg" xmlns:xlink="http://www.w3.org/1999/xlink" viewBox= "0 0 71 210" width="71px" height="210px">
<g xmlns="http://www.w3.org/2000/svg" id="Mailbox.svg">
<path id="sBorder" fill="#BC9A46" d="M31.5,76.5999984741211L40.79999923706055,76.5999984741211L40.79999923706055,200L31.5,200L31.5,76.5999984741211z"/>
<path id="nDraw" fill="#40B6F2" d="M35.599998474121094,11C21.799999237060547,11,10.699999809265137,22.100000381469727,10.699999809265137,35.900001525878906L10.699999809265137,78.5L60.5,78.5L60.5,35.900001525878906C60.5,22.100000381469727,49.400001525878906,11,35.599998474121094,11"/>
<path id="woodBorder" fill="#9B782C" d="M31.5,76.5999984741211L40.79999923706055,76.5999984741211L40.79999923706055,103.69999694824219L31.5,103.69999694824219L31.5,76.5999984741211z"/>
<path id="mDraw" fill="#B3EAFF" d="M30.100000381469727,13.699999809265137C19.399999618530273,13.699999809265137,10.699999809265137,22.399999618530273,10.699999809265137,33.099998474121094L10.699999809265137,78.5L49.5,78.5L49.5,33.099998474121094C49.599998474121094,22.399999618530273,40.900001525878906,13.699999809265137,30.100000381469727,13.699999809265137"/>
<path d="M60.5,10.899999618530273L51.5,10.899999618530273L48.5,10.899999618530273L45.5,10.899999618530273L45.5,36L51.5,36L51.5,20.700000762939453L60.5,20.700000762939453L60.5,10.899999618530273z" points="60.5,10.9 51.5,10.9 48.5,10.9 45.5,10.9 45.5,36 51.5,36 51.5,20.7 60.5,20.7     " fill="#C93543" id="flagBorder"/>
<path id="SlitBorder" fill="#155F7C" d="M17.399999618530273,35.099998474121094L41.900001525878906,35.099998474121094L41.900001525878906,38.099998474121094L17.399999618530273,38.099998474121094L17.399999618530273,35.099998474121094z"/>
</g>
</svg>