<svg xmlns="http://www.w3.org/2000/svg" xmlns:xlink="http://www.w3.org/1999/xlink" viewBox= "0 0 204 204" width="204px" height="204px">
<g xmlns="http://www.w3.org/2000/svg" id="Moon.svg">
<path id="dot6Draw" fill="#EAEAEA" d="M10.5,102.5C10.5,51.900001525878906,51.5,10.899999618530273,102.0999984741211,10.899999618530273C152.6999969482422,10.899999618530273,193.6999969482422,51.900001525878906,193.6999969482422,102.5C193.6999969482422,153.10000610351562,152.6999969482422,194.10000610351562,102.0999984741211,194.10000610351562S10.5,153.10000610351562,10.5,102.5"/>
<path id="dot5" fill="#EFEFEF" d="M33.70000076293945,99.30000305175781C33.70000076293945,80.4000015258789,49,65,68,65C87,65,102.30000305175781,80.4000015258789,102.30000305175781,99.30000305175781S87,133.6999969482422,68,133.6999969482422S33.70000076293945,118.30000305175781,33.70000076293945,99.30000305175781"/>
<path id="Light" opacity="0.5" fill="#EAEAEA" enable-background="new    " d="M178.1999969482422,51.70000076293945C184,64.19999694824219,187.1999969482422,78,187.1999969482422,92.5999984741211C187.1999969482422,145.1999969482422,145.39999389648438,188.39999389648438,91.9000015258789,193.60000610351562C95.19999694824219,194,98.5999984741211,194.1999969482422,102.0999984741211,194.1999969482422C152.6999969482422,194.1999969482422,193.6999969482422,153.1999969482422,193.6999969482422,102.5999984741211C193.60000610351562,83.69999694824219,187.89999389648438,66.19999694824219,178.1999969482422,51.70000076293945z"/>
<path id="LightCraters" fill="#F4F4F4" d="M164.39999389648438,147.5C164.39999389648438,153.6999969482422,159.39999389648438,158.6999969482422,153.1999969482422,158.6999969482422C147,158.6999969482422,142,153.6999969482422,142,147.5C142,141.3000030517578,147,136.3000030517578,153.1999969482422,136.3000030517578C159.39999389648438,136.39999389648438,164.39999389648438,141.39999389648438,164.39999389648438,147.5zM82.5,155.39999389648438C76.0999984741211,155.39999389648438,70.9000015258789,160.60000610351562,70.9000015258789,167C70.9000015258789,173.39999389648438,76.0999984741211,178.60000610351562,82.5,178.60000610351562C88.9000015258789,178.60000610351562,94.0999984741211,173.39999389648438,94.0999984741211,167S88.9000015258789,155.39999389648438,82.5,155.39999389648438zM104.9000015258789,120.4000015258789C95.69999694824219,120.4000015258789,88.19999694824219,127.9000015258789,88.19999694824219,137.10000610351562C88.19999694824219,146.3000030517578,95.69999694824219,153.8000030517578,104.9000015258789,153.8000030517578C114.0999984741211,153.8000030517578,121.5999984741211,146.3000030517578,121.5999984741211,137.10000610351562S114.0999984741211,120.4000015258789,104.9000015258789,120.4000015258789z"/>
<path id="DarkCraters" fill="#D8D8D8" d="M165,89.9000015258789C165,96,160,101,153.89999389648438,101C147.8000030517578,101,142.8000030517578,96,142.8000030517578,89.9000015258789C142.8000030517578,83.80000305175781,147.8000030517578,78.80000305175781,153.89999389648438,78.80000305175781S165,83.80000305175781,165,89.9000015258789zM124.80000305175781,16.899999618530273C111.80000305175781,16.899999618530273,101.19999694824219,27.799999237060547,101.19999694824219,41.20000076293945C101.19999694824219,54.599998474121094,111.69999694824219,65.5,124.80000305175781,65.5C137.89999389648438,65.5,148.39999389648438,54.599998474121094,148.39999389648438,41.20000076293945C148.3000030517578,27.799999237060547,137.8000030517578,16.899999618530273,124.80000305175781,16.899999618530273zM97.80000305175781,77.4000015258789C92.69999694824219,77.4000015258789,88.5,81.5,88.5,86.69999694824219C88.5,91.80000305175781,92.5999984741211,96,97.80000305175781,96C102.9000015258789,96,107.0999984741211,91.9000015258789,107.0999984741211,86.69999694824219C107,81.5999984741211,102.9000015258789,77.4000015258789,97.80000305175781,77.4000015258789zM89.19999694824219,34.70000076293945C78,34.70000076293945,69,43.70000076293945,69,54.79999923706055S78,75,89.19999694824219,75C100.4000015258789,75,109.4000015258789,66,109.4000015258789,54.79999923706055S100.30000305175781,34.70000076293945,89.19999694824219,34.70000076293945z"/>
<path id="dot4" fill="#F4F4F4" d="M130.5,177.6999969482422C130.5,175.3000030517578,133,173.3000030517578,136.1999969482422,173.3000030517578C139.3000030517578,173.3000030517578,141.89999389648438,175.3000030517578,141.89999389648438,177.6999969482422C141.89999389648438,180.10000610351562,139.39999389648438,182.10000610351562,136.1999969482422,182.10000610351562C133,182.10000610351562,130.5,180.10000610351562,130.5,177.6999969482422"/>
<path id="dot3" fill="#EAEAEA" d="M97.69999694824219,122.5999984741211C97.69999694824219,120,99.80000305175781,118,102.5,118C105.19999694824219,118,107.30000305175781,120.0999984741211,107.30000305175781,122.5999984741211C107.30000305175781,125.0999984741211,105.19999694824219,127.19999694824219,102.5,127.19999694824219S97.69999694824219,125.0999984741211,97.69999694824219,122.5999984741211"/>
<path id="dot2" fill="#B2B2B2" d="M49.20000076293945,39.20000076293945C49.20000076293945,32.900001525878906,53.099998474121094,27.899999618530273,57.900001525878906,27.899999618530273C62.70000076293945,27.899999618530273,66.5999984741211,33,66.5999984741211,39.20000076293945C66.5999984741211,45.400001525878906,62.70000076293945,50.5,57.900001525878906,50.5S49.20000076293945,45.5,49.20000076293945,39.20000076293945"/>
<path id="dot1" fill="#D8D8D8" d="M29.700000762939453,87.9000015258789C29.700000762939453,85,31.5,82.69999694824219,33.79999923706055,82.69999694824219C36.099998474121094,82.69999694824219,37.900001525878906,85.0999984741211,37.900001525878906,87.9000015258789C37.900001525878906,90.69999694824219,36.099998474121094,93.0999984741211,33.79999923706055,93.0999984741211S29.700000762939453,90.80000305175781,29.700000762939453,87.9000015258789"/>
<path id="Shade10Border" opacity="0.5" fill="#A3A3A3" enable-background="new    " d="M156.5,79.0999984741211C159.6999969482422,81.0999984741211,161.89999389648438,84.5999984741211,161.89999389648438,88.5999984741211C161.89999389648438,94.69999694824219,156.89999389648438,99.69999694824219,150.8000030517578,99.69999694824219C149.89999389648438,99.69999694824219,149,99.5999984741211,148.10000610351562,99.4000015258789C149.8000030517578,100.4000015258789,151.8000030517578,101,153.89999389648438,101C160,101,165,96,165,89.9000015258789C165,84.69999694824219,161.39999389648438,80.30000305175781,156.5,79.0999984741211z"/>
<path id="Shade9Border" opacity="0.5" fill="#A3A3A3" enable-background="new    " d="M133.6999969482422,18.600000381469727C142.10000610351562,22.399999618530273,148,30.899999618530273,148,40.79999923706055C148,54.29999923706055,137.10000610351562,65.19999694824219,123.69999694824219,65.19999694824219C122.5,65.19999694824219,121.19999694824219,65.0999984741211,120,64.9000015258789C122.19999694824219,65.5999984741211,124.5999984741211,65.9000015258789,127,65.9000015258789C140.3000030517578,65.9000015258789,151.10000610351562,55.099998474121094,151.10000610351562,41.70000076293945C151.1999969482422,30.799999237060547,143.8000030517578,21.5,133.6999969482422,18.600000381469727z"/>
<path id="Shade8Border" opacity="0.5" fill="#A3A3A3" enable-background="new    " d="M163.39999389648438,143C163.6999969482422,144,163.89999389648438,145.10000610351562,163.89999389648438,146.1999969482422C163.89999389648438,152.39999389648438,158.89999389648438,157.39999389648438,152.6999969482422,157.39999389648438C148.1999969482422,157.39999389648438,144.3000030517578,154.6999969482422,142.5,150.8000030517578C143.89999389648438,155.39999389648438,148.10000610351562,158.6999969482422,153.1999969482422,158.6999969482422C159.39999389648438,158.6999969482422,164.39999389648438,153.6999969482422,164.39999389648438,147.5C164.39999389648438,145.89999389648438,164,144.39999389648438,163.39999389648438,143z"/>
<path id="Shade7Border" opacity="0.5" fill="#A3A3A3" enable-background="new    " d="M141.60000610351562,176.6999969482422C141.5,177.1999969482422,141.39999389648438,177.60000610351562,141.1999969482422,178.10000610351562C140,181,137.1999969482422,182.5,134.89999389648438,181.60000610351562C133.3000030517578,180.89999389648438,132.39999389648438,179.10000610351562,132.5,177.10000610351562C132,179.5,132.89999389648438,181.89999389648438,134.6999969482422,182.6999969482422C136.89999389648438,183.6999969482422,139.6999969482422,182.10000610351562,141,179.1999969482422C141.39999389648438,178.3000030517578,141.60000610351562,177.5,141.60000610351562,176.6999969482422z"/>
<path id="Shade6Border" opacity="0.4" fill="#A3A3A3" enable-background="new    " d="M92.5999984741211,161.39999389648438C93.30000305175781,162.89999389648438,93.5999984741211,164.5,93.5999984741211,166.1999969482422C93.5999984741211,172.60000610351562,88.4000015258789,177.8000030517578,82,177.8000030517578C77.5999984741211,177.8000030517578,73.80000305175781,175.39999389648438,71.9000015258789,171.8000030517578C73.69999694824219,175.8000030517578,77.69999694824219,178.60000610351562,82.4000015258789,178.60000610351562C88.80000305175781,178.60000610351562,94,173.39999389648438,94,167C94.0999984741211,164.89999389648438,93.5,163,92.5999984741211,161.39999389648438z"/>
<path id="Shade5Border" opacity="0.4" fill="#A3A3A3" enable-background="new    " d="M116.4000015258789,125C119.19999694824219,128,121,132,121,136.5C121,145.6999969482422,113.5,153.1999969482422,104.30000305175781,153.1999969482422C99.80000305175781,153.1999969482422,95.80000305175781,151.39999389648438,92.80000305175781,148.60000610351562C95.80000305175781,151.8000030517578,100.0999984741211,153.8000030517578,104.9000015258789,153.8000030517578C114.0999984741211,153.8000030517578,121.5999984741211,146.3000030517578,121.5999984741211,137.10000610351562C121.5999984741211,132.39999389648438,119.5999984741211,128.10000610351562,116.4000015258789,125z"/>
<path id="Shade4Border" opacity="0.5" fill="#A3A3A3" enable-background="new    " d="M102.4000015258789,118C101.30000305175781,118,100.30000305175781,118.4000015258789,99.5,118.9000015258789C100.19999694824219,118.5,101,118.30000305175781,101.9000015258789,118.30000305175781C104.5,118.30000305175781,106.69999694824219,120.4000015258789,106.69999694824219,122.9000015258789C106.69999694824219,124.4000015258789,106,125.69999694824219,104.80000305175781,126.5999984741211C106.19999694824219,125.80000305175781,107.19999694824219,124.30000305175781,107.19999694824219,122.5999984741211C107.19999694824219,120,105,118,102.4000015258789,118z"/>
<path id="Shade3Border" opacity="0.3" fill="#A3A3A3" enable-background="new    " d="M104.5,80.30000305175781C105.5,81.80000305175781,106.0999984741211,83.5,106.0999984741211,85.4000015258789C106.0999984741211,90.5,102,94.69999694824219,96.80000305175781,94.69999694824219C94.0999984741211,94.69999694824219,91.80000305175781,93.5999984741211,90.0999984741211,91.80000305175781C91.80000305175781,94.30000305175781,94.5999984741211,95.9000015258789,97.80000305175781,95.9000015258789C102.9000015258789,95.9000015258789,107.0999984741211,91.80000305175781,107.0999984741211,86.5999984741211C107,84.19999694824219,106.0999984741211,82,104.5,80.30000305175781z"/>
<path id="Shade1Border" opacity="0.4" fill="#A3A3A3" enable-background="new    " d="M35.5,83.0999984741211C36.5,84.0999984741211,37.099998474121094,85.5999984741211,37.099998474121094,87.19999694824219C37.099998474121094,90.0999984741211,35.29999923706055,92.4000015258789,33,92.4000015258789C32.400001525878906,92.4000015258789,31.799999237060547,92.19999694824219,31.299999237060547,91.9000015258789C32,92.5999984741211,32.900001525878906,93,33.79999923706055,93C36.099998474121094,93,37.900001525878906,90.5999984741211,37.900001525878906,87.80000305175781C37.900001525878906,85.80000305175781,36.900001525878906,84,35.5,83.0999984741211z"/>
<path id="Shade11Border" fill="#E2E2E2" d="M90.5,36.29999923706055C94.5,36.29999923706055,98.19999694824219,37.5,101.30000305175781,39.599998474121094C101.30000305175781,39.29999923706055,101.30000305175781,39.099998474121094,101.4000015258789,38.79999923706055C98,36.20000076293945,93.80000305175781,34.70000076293945,89.19999694824219,34.70000076293945C78,34.70000076293945,69,43.70000076293945,69,54.79999923706055C69,64.5999984741211,76.0999984741211,72.80000305175781,85.4000015258789,74.5999984741211C77.0999984741211,72.4000015258789,71,64.80000305175781,71,55.79999923706055C71,45.099998474121094,79.69999694824219,36.29999923706055,90.5,36.29999923706055z"/>
<path id="ShadeBorder" opacity="0.5" fill="#BABABA" enable-background="new    " d="M105.5999984741211,55.29999923706055C104.69999694824219,65.19999694824219,96.30000305175781,73,86.19999694824219,73C82.5,73,79.0999984741211,72,76.0999984741211,70.19999694824219C79.5999984741211,73.19999694824219,84.19999694824219,75,89.19999694824219,75C98.9000015258789,75,106.9000015258789,68.19999694824219,108.9000015258789,59.099998474121094C107.5999984741211,58,106.5,56.70000076293945,105.5999984741211,55.29999923706055z"/>
<path id="Shadow1" opacity="0.25" fill="#A3A3A3" enable-background="new    " d="M32.5,127.9000015258789C32.5,70.80000305175781,74.4000015258789,24.5,126.0999984741211,24.5C137.89999389648438,24.5,149.1999969482422,26.899999618530273,159.60000610351562,31.399999618530273C143.89999389648438,18.600000381469727,123.80000305175781,11,102,11C51.400001525878906,11,10.399999618530273,52,10.399999618530273,102.5999984741211C10.399999618530273,129.60000610351562,22.100000381469727,153.89999389648438,40.70000076293945,170.6999969482422C35.5,157.5,32.5,143.10000610351562,32.5,127.9000015258789z"/>
<path id="Shadow2" opacity="0.4" fill="#A3A3A3" enable-background="new    " d="M17.799999237060547,113.19999694824219C17.799999237060547,61.400001525878906,59.900001525878906,19.399999618530273,111.80000305175781,19.399999618530273C131.39999389648438,19.399999618530273,149.60000610351562,25.399999618530273,164.6999969482422,35.70000076293945C148.3000030517578,20.299999237060547,126.30000305175781,10.899999618530273,102.0999984741211,10.899999618530273C51.5,10.899999618530273,10.5,51.900001525878906,10.5,102.5C10.5,123.30000305175781,17.399999618530273,142.39999389648438,29.100000381469727,157.8000030517578C21.899999618530273,144.5,17.799999237060547,129.39999389648438,17.799999237060547,113.19999694824219z"/>
</g>
</svg>