<svg xmlns="http://www.w3.org/2000/svg" xmlns:xlink="http://www.w3.org/1999/xlink" viewBox= "0 0 216 397" width="216px" height="397px">
<g xmlns="http://www.w3.org/2000/svg" id="MotherV2.svg">
<path id="Body" fill="#FADBBD" d="M25.200000762939453,343.20001220703125C22.600000381469727,345.70001220703125,19.700000762939453,348,16.600000381469727,349.8999938964844C13.399999618530273,352,10.100000381469727,356.5,16.600000381469727,362.79998779296875C23.100000381469727,369.1000061035156,34.400001525878906,382.20001220703125,35.599998474121094,383.29998779296875C36.79999923706055,384.3999938964844,41.70000076293945,384.20001220703125,46.20000076293945,384C50.70000076293945,383.79998779296875,54.79999923706055,382,55.79999923706055,379C56.79999923706055,376,52,376,50.20000076293945,376.20001220703125C48.400001525878906,376.3999938964844,43.20000076293945,369.79998779296875,43,368.5C42.79999923706055,367.20001220703125,41.900001525878906,359.29998779296875,42.400001525878906,357.70001220703125S25.200000762939453,343.20001220703125,25.200000762939453,343.20001220703125zM150.6999969482422,367.5C151.39999389648438,369,150.5,376.70001220703125,150.89999389648438,380.20001220703125C151.3000030517578,383.70001220703125,151.6999969482422,384.79998779296875,160.6999969482422,384.8999938964844C169.6999969482422,385,185.5,384.5,191.10000610351562,383.3999938964844C196.6999969482422,382.29998779296875,203.39999389648438,379.79998779296875,203,376.20001220703125C202.60000610351562,372.6000061035156,198.39999389648438,371.70001220703125,193.1999969482422,371.8999938964844C188,372.1000061035156,174.89999389648438,369.1000061035156,173.10000610351562,368.6000061035156C171.3000030517578,368.1000061035156,166.5,362.79998779296875,166.5,362.5S150.6999969482422,367.5,150.6999969482422,367.5zM111.9000015258789,89.0999984741211C112,91.5999984741211,112.4000015258789,94.0999984741211,113.30000305175781,95.5999984741211C114.69999694824219,97.69999694824219,116.5,99.5999984741211,118.5,101.0999984741211L119.4000015258789,115.80000305175781L89.80000305175781,97.19999694824219C89.80000305175781,97.19999694824219,91.5999984741211,90.5999984741211,90.4000015258789,85.5C90.19999694824219,84.4000015258789,89.9000015258789,83.4000015258789,89.5999984741211,82.30000305175781C84.4000015258789,78.30000305175781,79.69999694824219,72.80000305175781,76.5,66.69999694824219C73.9000015258789,66,72,63,72,59.5C72,58.20000076293945,72.30000305175781,57,72.69999694824219,55.900001525878906C72.30000305175781,54,72.0999984741211,52,72.0999984741211,50.099998474121094C72.0999984741211,30.100000381469727,84.5999984741211,16.100000381469727,103.4000015258789,16.100000381469727C122.19999694824219,16.100000381469727,132.39999389648438,30.100000381469727,132.39999389648438,50.099998474121094C132.39999389648438,68.30000305175781,125.30000305175781,86.0999984741211,111.9000015258789,89.0999984741211zM173.3000030517578,193.10000610351562C174.5,193.1999969482422,175.39999389648438,193.8000030517578,176.60000610351562,196.1999969482422C177.8000030517578,198.60000610351562,180.1999969482422,202.6999969482422,178.5,202.89999389648438C176.8000030517578,203.10000610351562,173.89999389648438,198.6999969482422,173.1999969482422,198.39999389648438C172.5,198.10000610351562,166.39999389648438,198.8000030517578,164.60000610351562,194.1999969482422M125.4000015258789,132.3000030517578C126.0999984741211,136.39999389648438,128.8000030517578,150.89999389648438,132.5,155.5C136.1999969482422,160.10000610351562,158.1999969482422,186.10000610351562,163.6999969482422,187.5C169.1999969482422,188.89999389648438,176.8000030517578,188.39999389648438,178,190C179.1999969482422,191.60000610351562,184.60000610351562,201.39999389648438,183.89999389648438,204.3000030517578C183.1999969482422,207.1999969482422,174.3000030517578,215,172.5,212.1999969482422C170.6999969482422,209.39999389648438,174.3000030517578,207.5,173.10000610351562,206.5C171.89999389648438,205.5,164.8000030517578,206.10000610351562,161.39999389648438,202.6999969482422C158,199.3000030517578,160.6999969482422,199.3000030517578,156.8000030517578,196.1999969482422C152.89999389648438,193.10000610351562,145.60000610351562,192.10000610351562,138.5,186.6999969482422C131.39999389648438,181.3000030517578,120.4000015258789,171.6999969482422,120.4000015258789,171.6999969482422L125.4000015258789,132.3000030517578zM72.0999984741211,240.8000030517578C61.599998474121094,241.1999969482422,56.900001525878906,231.39999389648438,56.29999923706055,229.39999389648438C55.70000076293945,227.39999389648438,56.29999923706055,212.39999389648438,57.79999923706055,208.6999969482422C58.79999923706055,206.5,57.900001525878906,204.39999389648438,57.5,202.89999389648438C57.099998474121094,201.39999389648438,55,174.1999969482422,56.70000076293945,165.3000030517578C58.400001525878906,156.39999389648438,64,142.60000610351562,64,140.5C64,140.5,83.5999984741211,145.39999389648438,82.9000015258789,150.8000030517578C82.5999984741211,153.39999389648438,78.19999694824219,160.39999389648438,75,172.1999969482422C71.30000305175781,185.60000610351562,69.5,200.39999389648438,69.69999694824219,202.89999389648438C70.19999694824219,207.8000030517578,72.69999694824219,209.5,74.19999694824219,212.3000030517578C75,213.8000030517578,82.4000015258789,223.39999389648438,78.30000305175781,229.1999969482422C73.80000305175781,229.6999969482422,74.9000015258789,222.5,74.80000305175781,223.1999969482422C74.69999694824219,225.89999389648438,73.5,228.6999969482422,73.5999984741211,230.5C73.5,230.60000610351562,82.5999984741211,240.39999389648438,72.0999984741211,240.8000030517578z"/>
<path id="BodyBorder" d="M50.20000076293945,374.5C48.900001525878906,374,45.20000076293945,369.3999938964844,44.70000076293945,368.20001220703125C43.70000076293945,359.8999938964844,44.099998474121094,358.3999938964844,44.099998474121094,358.29998779296875C44.599998474121094,357.1000061035156,45.099998474121094,355.6000061035156,26.200000762939453,341.8999938964844C25.600000381469727,341.5,24.700000762939453,341.5,24.100000381469727,342.1000061035156C21.5,344.5,18.700000762939453,346.70001220703125,15.699999809265137,348.6000061035156C13.100000381469727,350.3999938964844,11.5,352.79998779296875,11.300000190734863,355.29998779296875C11,358.20001220703125,12.5,361.20001220703125,15.5,364.1000061035156C19.899999618530273,368.29998779296875,26.700000762939453,375.8999938964844,30.700000762939453,380.3999938964844C33,383,34.099998474121094,384.20001220703125,34.5,384.6000061035156C35.599998474121094,385.5,37.5,385.8999938964844,40.70000076293945,385.8999938964844C42.29999923706055,385.8999938964844,44.099998474121094,385.79998779296875,46.29999923706055,385.70001220703125C50.79999923706055,385.3999938964844,56,383.6000061035156,57.400001525878906,379.5C57.900001525878906,377.79998779296875,57.29999923706055,376.70001220703125,56.900001525878906,376.20001220703125C55.400001525878906,374.29998779296875,51.79999923706055,374.29998779296875,50.20000076293945,374.5zM54.20000076293945,378.5C53.400001525878906,380.6000061035156,50.20000076293945,382.1000061035156,46,382.3999938964844C44,382.5,37.79999923706055,382.8999938964844,36.70000076293945,382.20001220703125C36.400001525878906,381.8999938964844,34.900001525878906,380.20001220703125,33.099998474121094,378.20001220703125C28.700000762939453,373.29998779296875,22.200000762939453,366,17.700000762939453,361.70001220703125C15.399999618530273,359.5,14.300000190734863,357.3999938964844,14.5,355.6000061035156C14.600000381469727,353.5,16.399999618530273,352.1000061035156,17.399999618530273,351.3999938964844C20.200000762939453,349.6000061035156,22.899999618530273,347.6000061035156,25.299999237060547,345.3999938964844C32.099998474121094,350.29998779296875,39.400001525878906,356.1000061035156,40.79999923706055,357.8999938964844C40.599998474121094,358.8999938964844,40.5,361.5,41.400001525878906,368.6000061035156L41.400001525878906,368.70001220703125C41.599998474121094,370.5,47.29999923706055,378.1000061035156,50.400001525878906,377.79998779296875C52.400001525878906,377.6000061035156,54.099998474121094,377.8999938964844,54.29999923706055,378.20001220703125C54.29999923706055,378.20001220703125,54.29999923706055,378.29998779296875,54.20000076293945,378.5zM204.8000030517578,375.8999938964844C204.3000030517578,371.79998779296875,200.5,369.8999938964844,193.3000030517578,370.1000061035156C188.39999389648438,370.29998779296875,175.5,367.3999938964844,173.8000030517578,366.8999938964844C172.6999969482422,366.5,168.89999389648438,362.6000061035156,168.10000610351562,361.6000061035156C168,361.29998779296875,167.8000030517578,361.20001220703125,167.60000610351562,361C166.6999969482422,360.3999938964844,166.60000610351562,360.3999938964844,150.1999969482422,365.8999938964844C149.8000030517578,366.1000061035156,149.39999389648438,366.3999938964844,149.1999969482422,366.79998779296875C149,367.20001220703125,149,367.70001220703125,149.1999969482422,368.1000061035156C149.5,368.70001220703125,149.39999389648438,371.3999938964844,149.3000030517578,373.29998779296875C149.1999969482422,375.8999938964844,149.10000610351562,378.6000061035156,149.39999389648438,380.3999938964844C150.10000610351562,385.3999938964844,152,386.3999938964844,160.8000030517578,386.5C161.39999389648438,386.5,162.10000610351562,386.5,162.89999389648438,386.5C172,386.5,186.10000610351562,386,191.60000610351562,384.8999938964844C195.8000030517578,384.1000061035156,205.5,381.5,204.8000030517578,375.8999938964844zM191,381.6000061035156C185.60000610351562,382.70001220703125,169.8000030517578,383.20001220703125,160.89999389648438,383.1000061035156C153.1999969482422,383.1000061035156,153.10000610351562,382.6000061035156,152.6999969482422,379.8999938964844C152.39999389648438,378.3999938964844,152.5,375.70001220703125,152.60000610351562,373.3999938964844C152.60000610351562,371.29998779296875,152.6999969482422,369.70001220703125,152.60000610351562,368.6000061035156C157.3000030517578,367,163.60000610351562,364.8999938964844,166.1999969482422,364.20001220703125C168,366.5,171.8000030517578,369.70001220703125,172.89999389648438,370C174.6999969482422,370.6000061035156,188,373.6000061035156,193.5,373.3999938964844C198.60000610351562,373.29998779296875,201.39999389648438,374.20001220703125,201.60000610351562,376.29998779296875C201.8000030517578,377.79998779296875,197.89999389648438,380.29998779296875,191,381.6000061035156zM155.6999969482422,197.5C157.39999389648438,198.89999389648438,157.5,199.3000030517578,157.6999969482422,200C158,201.10000610351562,158.39999389648438,202.10000610351562,160.1999969482422,203.89999389648438C162.89999389648438,206.5,167.10000610351562,207.10000610351562,169.89999389648438,207.5C170.39999389648438,207.60000610351562,170.89999389648438,207.60000610351562,171.3000030517578,207.6999969482422C170.6999969482422,208.8000030517578,169.6999969482422,210.8000030517578,171.1999969482422,213.10000610351562C171.6999969482422,214,172.6999969482422,214.5,173.8000030517578,214.5C174,214.5,174.3000030517578,214.5,174.39999389648438,214.5C178.1999969482422,213.89999389648438,184.6999969482422,207.8000030517578,185.5,204.8000030517578C186.5,201,180.1999969482422,190.3000030517578,179.3000030517578,189.10000610351562C178.1999969482422,187.6999969482422,175.89999389648438,187.5,171.60000610351562,187.10000610351562C169.10000610351562,186.8000030517578,166.3000030517578,186.60000610351562,164,186C159.60000610351562,184.89999389648438,139.60000610351562,162,133.6999969482422,154.60000610351562C132.39999389648438,152.89999389648438,129.6999969482422,147.8000030517578,126.9000015258789,132.10000610351562C126.80000305175781,131.3000030517578,126.0999984741211,130.6999969482422,125.30000305175781,130.6999969482422C124.5,130.6999969482422,123.80000305175781,131.3000030517578,123.69999694824219,132.10000610351562L118.80000305175781,171.5C118.69999694824219,172,118.9000015258789,172.5,119.30000305175781,172.89999389648438C119.4000015258789,173,130.3000030517578,182.60000610351562,137.39999389648438,188C141.60000610351562,191.1999969482422,145.89999389648438,192.89999389648438,149.3000030517578,194.3000030517578C151.89999389648438,195.3000030517578,154.1999969482422,196.3000030517578,155.6999969482422,197.5zM122.30000305175781,171.10000610351562L125.80000305175781,142.39999389648438C127.19999694824219,148.3000030517578,129.10000610351562,153.89999389648438,131.1999969482422,156.60000610351562C131.39999389648438,156.89999389648438,156.39999389648438,187.39999389648438,163.1999969482422,189.1999969482422C165.8000030517578,189.89999389648438,168.6999969482422,190.1999969482422,171.3000030517578,190.39999389648438C173.3000030517578,190.60000610351562,176,190.8000030517578,176.6999969482422,191.1999969482422C179.6999969482422,195.1999969482422,182.5,203.10000610351562,182.3000030517578,204C181.8000030517578,206.10000610351562,175.6999969482422,211.3000030517578,173.89999389648438,211.3000030517578C173.5,210.6999969482422,173.6999969482422,210.1999969482422,174.3000030517578,209.1999969482422C174.6999969482422,208.5,175.8000030517578,206.6999969482422,174.1999969482422,205.39999389648438C173.39999389648438,204.6999969482422,172.1999969482422,204.60000610351562,170.39999389648438,204.3000030517578C167.89999389648438,203.89999389648438,164.39999389648438,203.39999389648438,162.60000610351562,201.60000610351562C161.3000030517578,200.3000030517578,161.10000610351562,199.8000030517578,160.89999389648438,199.10000610351562C160.60000610351562,197.89999389648438,160.10000610351562,196.8000030517578,157.89999389648438,195C156,193.39999389648438,153.60000610351562,192.5,150.6999969482422,191.3000030517578C147.3000030517578,189.89999389648438,143.39999389648438,188.39999389648438,139.60000610351562,185.5C133.60000610351562,180.8000030517578,124.80000305175781,173.10000610351562,122.30000305175781,171.10000610351562zM163.8000030517578,194.39999389648438C163.60000610351562,193.89999389648438,163.89999389648438,193.3000030517578,164.39999389648438,193.10000610351562C164.89999389648438,192.89999389648438,165.5,193.1999969482422,165.6999969482422,193.6999969482422C166.89999389648438,196.89999389648438,170.6999969482422,197.10000610351562,172.5,197.1999969482422C173.10000610351562,197.3000030517578,173.39999389648438,197.3000030517578,173.6999969482422,197.39999389648438C174.10000610351562,197.60000610351562,174.60000610351562,198.10000610351562,175.5,199.10000610351562C176,199.6999969482422,177.3000030517578,201.1999969482422,178.10000610351562,201.6999969482422C177.8000030517578,200.6999969482422,176.8000030517578,198.6999969482422,176.3000030517578,197.6999969482422C176.10000610351562,197.3000030517578,176,196.89999389648438,175.8000030517578,196.60000610351562C174.60000610351562,194.1999969482422,173.89999389648438,194.10000610351562,173.3000030517578,194C172.6999969482422,193.89999389648438,172.3000030517578,193.39999389648438,172.39999389648438,192.89999389648438C172.5,192.3000030517578,172.89999389648438,191.89999389648438,173.5,192C175.1999969482422,192.1999969482422,176.3000030517578,193.1999969482422,177.5,195.6999969482422C177.60000610351562,196,177.8000030517578,196.3000030517578,178,196.6999969482422C179.60000610351562,199.8000030517578,180.5,201.8000030517578,179.8000030517578,203C179.60000610351562,203.5,179.1999969482422,203.8000030517578,178.60000610351562,203.8000030517578C177.3000030517578,203.8000030517578,175.8000030517578,202.3000030517578,174.10000610351562,200.39999389648438C173.6999969482422,199.89999389648438,173.1999969482422,199.39999389648438,173,199.1999969482422C172.89999389648438,199.1999969482422,172.6999969482422,199.1999969482422,172.39999389648438,199.1999969482422C170.3000030517578,199.10000610351562,165.5,198.8000030517578,163.8000030517578,194.39999389648438zM120.30000305175781,117.30000305175781C120.80000305175781,117,121.0999984741211,116.4000015258789,121.0999984741211,115.80000305175781L120.19999694824219,101.0999984741211C120.19999694824219,100.5999984741211,119.9000015258789,100.19999694824219,119.5999984741211,99.9000015258789C117.69999694824219,98.5,116.0999984741211,96.69999694824219,114.80000305175781,94.80000305175781C114.19999694824219,93.9000015258789,113.80000305175781,92.19999694824219,113.69999694824219,90.5C127.0999984741211,86.30000305175781,134.10000610351562,68.0999984741211,134.10000610351562,50.099998474121094C134.10000610351562,28.100000381469727,122.4000015258789,14.5,103.5,14.5C84.0999984741211,14.399999618530273,70.5,29.100000381469727,70.5,50.099998474121094C70.5,52,70.69999694824219,53.900001525878906,71,55.79999923706055C70.5999984741211,56.900001525878906,70.30000305175781,58.20000076293945,70.30000305175781,59.599998474121094C70.30000305175781,63.599998474121094,72.4000015258789,67,75.30000305175781,68.19999694824219C77.30000305175781,71.80000305175781,79.80000305175781,75.30000305175781,82.80000305175781,78.5C84.5,80.30000305175781,86.30000305175781,81.9000015258789,88.0999984741211,83.4000015258789C88.30000305175781,84.19999694824219,88.5999984741211,85.0999984741211,88.80000305175781,86C89.80000305175781,90.5999984741211,88.19999694824219,96.80000305175781,88.19999694824219,96.9000015258789C88,97.5999984741211,88.30000305175781,98.30000305175781,88.9000015258789,98.69999694824219L118.5999984741211,117.19999694824219C118.9000015258789,117.4000015258789,119.19999694824219,117.5,119.5,117.5C119.80000305175781,117.5999984741211,120.0999984741211,117.5,120.30000305175781,117.30000305175781zM78.9000015258789,67.9000015258789C79.0999984741211,67.5999984741211,79.19999694824219,67.30000305175781,79.19999694824219,66.9000015258789C79.19999694824219,66,78.5,65.30000305175781,77.5999984741211,65.30000305175781C75.4000015258789,65.30000305175781,73.5999984741211,62.70000076293945,73.5999984741211,59.5C73.5999984741211,56.400001525878906,75.4000015258789,53.79999923706055,77.5,53.70000076293945C78.5999984741211,53.79999923706055,79.4000015258789,54.599998474121094,79.5999984741211,55.70000076293945C79.80000305175781,56.599998474121094,80.5999984741211,57.20000076293945,81.5,57C82.4000015258789,56.79999923706055,83,56,82.80000305175781,55.099998474121094C82.4000015258789,52.599998474121094,80.30000305175781,50.70000076293945,77.69999694824219,50.5L77.5999984741211,50.5C76.19999694824219,50.5,74.9000015258789,51,73.80000305175781,51.79999923706055C73.80000305175781,51.20000076293945,73.69999694824219,50.599998474121094,73.69999694824219,50C73.69999694824219,30.600000381469727,85.5999984741211,17.600000381469727,103.4000015258789,17.600000381469727C120.30000305175781,17.600000381469727,130.8000030517578,30,130.8000030517578,50C130.8000030517578,68.9000015258789,122.9000015258789,87.9000015258789,107.80000305175781,87.9000015258789C97.69999694824219,87.9000015258789,85.5999984741211,79.4000015258789,78.9000015258789,67.9000015258789zM91.69999694824219,96.4000015258789C92.0999984741211,94.30000305175781,92.9000015258789,90,92.30000305175781,86.0999984741211C97.5,89.30000305175781,102.9000015258789,91.0999984741211,107.9000015258789,91.0999984741211C108.80000305175781,91.0999984741211,109.5999984741211,91,110.4000015258789,90.9000015258789C110.5999984741211,93.0999984741211,111.0999984741211,95.0999984741211,112,96.4000015258789C113.30000305175781,98.5,115,100.30000305175781,116.9000015258789,101.9000015258789L117.5999984741211,112.69999694824219L91.69999694824219,96.4000015258789zM64.30000305175781,139C63.79999923706055,138.89999389648438,63.29999923706055,139,62.900001525878906,139.3000030517578C62.5,139.60000610351562,62.29999923706055,140.10000610351562,62.20000076293945,140.60000610351562C62.20000076293945,141.39999389648438,61,144.89999389648438,59.900001525878906,148C58.099998474121094,153.3000030517578,55.900001525878906,159.89999389648438,54.900001525878906,165.10000610351562C53.099998474121094,174.3000030517578,55.20000076293945,201.39999389648438,55.70000076293945,203.39999389648438C55.79999923706055,203.6999969482422,55.79999923706055,203.89999389648438,55.900001525878906,204.1999969482422C56.29999923706055,205.5,56.70000076293945,206.8000030517578,56,208.10000610351562C54.5,211.89999389648438,53.599998474121094,227.39999389648438,54.5,229.89999389648438C55.70000076293945,233.39999389648438,61,242.39999389648438,71.30000305175781,242.39999389648438C71.5,242.39999389648438,71.69999694824219,242.39999389648438,71.9000015258789,242.39999389648438L71.9000015258789,242.39999389648438C77.80000305175781,242.1999969482422,78.5999984741211,239.10000610351562,78.5,237.3000030517578C78.4000015258789,235.1999969482422,76.80000305175781,232.10000610351562,75.19999694824219,230.3000030517578C76,230.8000030517578,77,231,78.0999984741211,230.89999389648438C78.5999984741211,230.89999389648438,79,230.60000610351562,79.30000305175781,230.1999969482422C83.5999984741211,224.1999969482422,77.9000015258789,215.60000610351562,75.80000305175781,212.3000030517578C75.5999984741211,211.89999389648438,75.4000015258789,211.6999969482422,75.30000305175781,211.5C74.80000305175781,210.60000610351562,74.19999694824219,209.8000030517578,73.5999984741211,209C72.4000015258789,207.3000030517578,71.19999694824219,205.6999969482422,70.9000015258789,202.8000030517578C70.69999694824219,200.39999389648438,72.5,185.89999389648438,76.0999984741211,172.6999969482422C78,165.6999969482422,80.4000015258789,160.3000030517578,82,156.6999969482422C83.19999694824219,154.10000610351562,83.9000015258789,152.39999389648438,84.0999984741211,151.10000610351562C85.19999694824219,144.6999969482422,69.19999694824219,140.1999969482422,64.30000305175781,139zM79.4000015258789,155.39999389648438C77.80000305175781,159.10000610351562,75.30000305175781,164.60000610351562,73.30000305175781,171.89999389648438C69.69999694824219,184.89999389648438,67.69999694824219,200.1999969482422,68,203.1999969482422C68.4000015258789,207.10000610351562,69.9000015258789,209.1999969482422,71.30000305175781,211.10000610351562C71.80000305175781,211.8000030517578,72.30000305175781,212.5,72.69999694824219,213.1999969482422C72.80000305175781,213.39999389648438,73,213.6999969482422,73.30000305175781,214.1999969482422C74.80000305175781,216.5,79.30000305175781,223.39999389648438,77.30000305175781,227.60000610351562C77.19999694824219,227.5,77.0999984741211,227.5,77,227.39999389648438C76.4000015258789,226.8000030517578,76.30000305175781,225.39999389648438,76.30000305175781,224.39999389648438C76.30000305175781,224.10000610351562,76.4000015258789,223.8000030517578,76.4000015258789,223.39999389648438C76.4000015258789,222.6999969482422,76,222,75.4000015258789,221.6999969482422C74.80000305175781,221.39999389648438,74,221.60000610351562,73.5,222.10000610351562C73.30000305175781,222.3000030517578,73.0999984741211,222.6999969482422,73.0999984741211,223.1999969482422L73.0999984741211,223.1999969482422C73.0999984741211,223.1999969482422,73.0999984741211,223.1999969482422,73.0999984741211,223.3000030517578C73.0999984741211,223.5,73,223.8000030517578,73,224.10000610351562C72.9000015258789,225.10000610351562,72.69999694824219,226,72.4000015258789,227C72.0999984741211,228.3000030517578,71.80000305175781,229.60000610351562,71.80000305175781,230.6999969482422C71.80000305175781,231.10000610351562,72,231.5,72.30000305175781,231.8000030517578C73.9000015258789,233.60000610351562,76,236.8000030517578,75.4000015258789,238.10000610351562C75.19999694824219,238.60000610351562,74.30000305175781,239,73.0999984741211,239.10000610351562C71.69999694824219,238.10000610351562,68.19999694824219,232.6999969482422,66.30000305175781,229.10000610351562C66,228.60000610351562,65.4000015258789,228.39999389648438,64.9000015258789,228.6999969482422C64.4000015258789,229,64.19999694824219,229.60000610351562,64.5,230C64.9000015258789,230.8000030517578,67.69999694824219,236.10000610351562,70.30000305175781,239.10000610351562C69.9000015258789,239.10000610351562,69.4000015258789,239,69,238.89999389648438C67,237.60000610351562,63.29999923706055,232.5,62.79999923706055,230.3000030517578C62.70000076293945,229.8000030517578,62.20000076293945,229.39999389648438,61.599998474121094,229.5C61.099998474121094,229.60000610351562,60.70000076293945,230.10000610351562,60.79999923706055,230.6999969482422C61.099998474121094,232.1999969482422,62.70000076293945,234.89999389648438,64.5,237.10000610351562C59.70000076293945,234.1999969482422,57.70000076293945,228.89999389648438,57.70000076293945,228.8000030517578C57.20000076293945,227.10000610351562,57.79999923706055,212.6999969482422,59.099998474121094,209.3000030517578C60.20000076293945,206.89999389648438,59.5,204.60000610351562,59.099998474121094,203.10000610351562C59,202.89999389648438,59,202.60000610351562,58.900001525878906,202.39999389648438C58.599998474121094,200.89999389648438,56.5,174.10000610351562,58.099998474121094,165.5C59.099998474121094,160.5,61.20000076293945,154.10000610351562,63,148.8000030517578C64,145.8000030517578,64.69999694824219,143.8000030517578,65.0999984741211,142.3000030517578C74,144.6999969482422,81.30000305175781,148.39999389648438,81.0999984741211,150.39999389648438C81.0999984741211,151.5,80.30000305175781,153.3000030517578,79.4000015258789,155.39999389648438z"/>
<path id="Shoes" fill="#9E632D" d="M50.29999923706055,376.20001220703125C49.70000076293945,376.29998779296875,48.79999923706055,375.6000061035156,47.70000076293945,374.6000061035156C45.70000076293945,374.79998779296875,43.70000076293945,374.79998779296875,41.79999923706055,374.5C36.70000076293945,373.6000061035156,28.799999237060547,365,27.200000762939453,358.5C26,353.5,22.799999237060547,349.6000061035156,19.5,348C18.5,348.70001220703125,17.600000381469727,349.3999938964844,16.600000381469727,350C13.399999618530273,352.1000061035156,10.100000381469727,356.6000061035156,16.600000381469727,362.8999938964844C23.100000381469727,369.20001220703125,34.400001525878906,382.29998779296875,35.70000076293945,383.3999938964844C37,384.5,41.79999923706055,384.29998779296875,46.29999923706055,384.1000061035156C50.79999923706055,383.8999938964844,54.900001525878906,382.1000061035156,55.900001525878906,379.1000061035156S52.099998474121094,376,50.29999923706055,376.20001220703125zM194.39999389648438,371.79998779296875C191.89999389648438,374.5,184,378.1000061035156,176.8000030517578,379C168.6999969482422,380.1000061035156,161.1999969482422,376.1000061035156,159.10000610351562,374.5C157.1999969482422,373,155.10000610351562,372.3999938964844,150.89999389648438,373.8999938964844C150.8000030517578,375.8999938964844,150.8000030517578,378,151,380C151.5,383.5,151.8000030517578,384.6000061035156,160.8000030517578,384.70001220703125C169.8000030517578,384.79998779296875,185.60000610351562,384.29998779296875,191.1999969482422,383.20001220703125C196.8000030517578,382.1000061035156,203.5,379.6000061035156,203.10000610351562,376C202.6999969482422,372.79998779296875,199.10000610351562,371.79998779296875,194.39999389648438,371.79998779296875z"/>
<path id="ShoesBorder" d="M40.70000076293945,385.8999938964844C37.5,385.8999938964844,35.599998474121094,385.5,34.5,384.6000061035156C34.099998474121094,384.20001220703125,33,382.8999938964844,30.700000762939453,380.3999938964844C26.600000381469727,375.8999938964844,19.899999618530273,368.29998779296875,15.5,364.1000061035156C12.5,361.20001220703125,11,358.20001220703125,11.300000190734863,355.29998779296875C11.5,352.79998779296875,13.100000381469727,350.3999938964844,15.699999809265137,348.6000061035156C16.299999237060547,348.20001220703125,16.899999618530273,347.79998779296875,17.399999618530273,347.3999938964844C17.799999237060547,347.1000061035156,18.200000762939453,346.8999938964844,18.600000381469727,346.6000061035156C19.100000381469727,346.29998779296875,19.700000762939453,346.20001220703125,20.299999237060547,346.5C24.299999237060547,348.3999938964844,27.5,352.8999938964844,28.799999237060547,358.1000061035156C30.399999618530273,364.29998779296875,38,372.1000061035156,42.099998474121094,372.8999938964844C43.900001525878906,373.20001220703125,45.70000076293945,373.20001220703125,47.5,373C48,372.8999938964844,48.5,373.1000061035156,48.79999923706055,373.3999938964844C49.599998474121094,374.20001220703125,50.099998474121094,374.3999938964844,50.20000076293945,374.5C51.599998474121094,374.3999938964844,55.29999923706055,374.20001220703125,56.900001525878906,376.20001220703125C57.29999923706055,376.70001220703125,57.900001525878906,377.8999938964844,57.400001525878906,379.5C56,383.6000061035156,50.79999923706055,385.3999938964844,46.29999923706055,385.70001220703125C44.099998474121094,385.79998779296875,42.29999923706055,385.8999938964844,40.70000076293945,385.8999938964844zM19.600000381469727,349.8999938964844C19.5,350,19.399999618530273,350,19.299999237060547,350.1000061035156C18.700000762939453,350.5,18.100000381469727,350.8999938964844,17.5,351.29998779296875C16.5,352,14.699999809265137,353.5,14.5,355.5C14.300000190734863,357.29998779296875,15.399999618530273,359.3999938964844,17.700000762939453,361.6000061035156C22.200000762939453,365.8999938964844,28.700000762939453,373.20001220703125,33.099998474121094,378.1000061035156C34.900001525878906,380.1000061035156,36.400001525878906,381.79998779296875,36.79999923706055,382.1000061035156C37.900001525878906,382.79998779296875,44.099998474121094,382.3999938964844,46.099998474121094,382.29998779296875C50.29999923706055,382,53.5,380.5,54.29999923706055,378.3999938964844C54.400001525878906,378.20001220703125,54.400001525878906,378.1000061035156,54.400001525878906,378.1000061035156C54.20000076293945,377.79998779296875,52.5,377.5,50.5,377.70001220703125L50.5,377.70001220703125C49.599998474121094,377.79998779296875,48.5,377.29998779296875,47.20000076293945,376.20001220703125C45.29999923706055,376.3999938964844,43.400001525878906,376.29998779296875,41.599998474121094,376C35.79999923706055,374.8999938964844,27.399999618530273,365.8999938964844,25.600000381469727,358.79998779296875C24.600000381469727,355,22.299999237060547,351.6000061035156,19.600000381469727,349.8999938964844zM50.29999923706055,376.20001220703125L50.29999923706055,376.20001220703125L50.29999923706055,376.20001220703125zM162.89999389648438,386.5C162.10000610351562,386.5,161.39999389648438,386.5,160.8000030517578,386.5C152,386.3999938964844,150.10000610351562,385.3999938964844,149.39999389648438,380.3999938964844C149.1999969482422,378.20001220703125,149.1999969482422,376,149.3000030517578,373.8999938964844C149.3000030517578,373.20001220703125,149.8000030517578,372.70001220703125,150.39999389648438,372.3999938964844C154.60000610351562,370.8999938964844,157.39999389648438,371.1000061035156,160.1999969482422,373.20001220703125C162.60000610351562,375,169.6999969482422,378.29998779296875,176.6999969482422,377.3999938964844C183.5,376.5,191.10000610351562,373.1000061035156,193.3000030517578,370.70001220703125C193.60000610351562,370.3999938964844,194.10000610351562,370.20001220703125,194.5,370.20001220703125C200.89999389648438,370.20001220703125,204.39999389648438,372.20001220703125,204.8000030517578,376C205.5,381.6000061035156,195.8000030517578,384.20001220703125,191.60000610351562,385C186.10000610351562,386,172,386.5,162.89999389648438,386.5zM152.5,375.20001220703125C152.39999389648438,376.79998779296875,152.5,378.3999938964844,152.60000610351562,380C153,382.6000061035156,153.10000610351562,383.1000061035156,160.8000030517578,383.20001220703125C169.6999969482422,383.29998779296875,185.5,382.79998779296875,190.89999389648438,381.70001220703125C197.8000030517578,380.3999938964844,201.6999969482422,377.8999938964844,201.5,376.3999938964844C201.3000030517578,374.6000061035156,199.10000610351562,373.6000061035156,195.10000610351562,373.5C191.6999969482422,376.6000061035156,183.6999969482422,379.79998779296875,177,380.70001220703125C168.3000030517578,381.8999938964844,160.39999389648438,377.6000061035156,158.10000610351562,375.8999938964844C156.89999389648438,375,155.60000610351562,374.29998779296875,152.5,375.20001220703125z"/>
<path id="Pants" fill="#B5DEE8" d="M175.10000610351562,364.6000061035156C175.10000610351562,363.29998779296875,169,356.20001220703125,168.3000030517578,354.20001220703125C168.1999969482422,354,168.1999969482422,353.8999938964844,168.1999969482422,353.79998779296875L168.1999969482422,353.79998779296875C168.60000610351562,352.79998779296875,170.5,352.6000061035156,170.3000030517578,349.8999938964844C170.3000030517578,349.70001220703125,170.3000030517578,349.3999938964844,170.1999969482422,349.20001220703125C169.60000610351562,345.70001220703125,164.60000610351562,343.29998779296875,164.3000030517578,335.1000061035156C164.1999969482422,332.8999938964844,164.10000610351562,329.6000061035156,164,325.79998779296875C163.60000610351562,315.29998779296875,162.6999969482422,300.8999938964844,159.10000610351562,294.8999938964844C154.1999969482422,286.70001220703125,140.39999389648438,251.6999969482422,134.89999389648438,242.39999389648438C133.89999389648438,240.6999969482422,132.6999969482422,238.8000030517578,131.60000610351562,237C132.89999389648438,234.3000030517578,133.6999969482422,232,133.89999389648438,230.39999389648438C135.1999969482422,217.8000030517578,135.5,209.3000030517578,135.5,209.3000030517578C135.5,209.3000030517578,129.6999969482422,197.89999389648438,109.5,199.1999969482422L109.30000305175781,198.89999389648438L108.0999984741211,196.6999969482422C94.0999984741211,186.39999389648438,84.0999984741211,191.8000030517578,78.4000015258789,196.39999389648438C76.80000305175781,197.6999969482422,74.80000305175781,202.5,73.69999694824219,208.89999389648438L73.69999694824219,208.89999389648438L73.69999694824219,208.89999389648438C73.80000305175781,209,73.80000305175781,209,73.9000015258789,209.10000610351562C74.5,209.89999389648438,75,210.6999969482422,75.5,211.60000610351562C75.5999984741211,211.6999969482422,75.80000305175781,212,76,212.39999389648438C77.80000305175781,215.10000610351562,82.0999984741211,221.6999969482422,80.80000305175781,227.3000030517578L80.80000305175781,227.39999389648438C80.5999984741211,228.39999389648438,80.0999984741211,229.39999389648438,79.5,230.3000030517578C79.19999694824219,230.6999969482422,78.80000305175781,230.89999389648438,78.30000305175781,231C77.19999694824219,231.10000610351562,76.19999694824219,230.89999389648438,75.4000015258789,230.39999389648438L75.5,230.5L75.5,230.5C75.69999694824219,230.6999969482422,75.9000015258789,230.89999389648438,76,231.1999969482422C77.4000015258789,233,78.69999694824219,235.6999969482422,78.69999694824219,237.5C78.69999694824219,238.10000610351562,78.5999984741211,238.6999969482422,78.4000015258789,239.39999389648438C78.5999984741211,239.8000030517578,78.9000015258789,240.10000610351562,79.0999984741211,240.5C79.0999984741211,245.89999389648438,66.69999694824219,275.6000061035156,62.099998474121094,283.3999938964844C57.5,291.29998779296875,46.70000076293945,312.3999938964844,41.400001525878906,318.8999938964844C36.20000076293945,325.3999938964844,27.399999618530273,339.3999938964844,24.100000381469727,340C20.799999237060547,340.6000061035156,18.200000762939453,341.5,17.5,342.6000061035156C16.899999618530273,343.79998779296875,16.200000762939453,348.79998779296875,19.100000381469727,350.79998779296875C22,352.79998779296875,43,363.70001220703125,45.599998474121094,364.6000061035156C48.20000076293945,365.5,49.5,364.8999938964844,50.79999923706055,361.3999938964844C52.099998474121094,357.8999938964844,61.599998474121094,335.29998779296875,65.19999694824219,328.79998779296875C68.80000305175781,322.29998779296875,81.5999984741211,304.3999938964844,87.80000305175781,296.79998779296875C90.4000015258789,293.70001220703125,98.30000305175781,284,106.9000015258789,272.8999938964844C110.30000305175781,276.20001220703125,113,278.70001220703125,114.5,279.8999938964844C117.4000015258789,282.29998779296875,118.9000015258789,284.20001220703125,119.69999694824219,286C120.30000305175781,287.3999938964844,120.5,288.79998779296875,120.69999694824219,290.3999938964844C121,294,121.69999694824219,299.20001220703125,125.5999984741211,301.8999938964844C129.5,304.5,133.10000610351562,306.6000061035156,134.10000610351562,313C135.10000610351562,319.3999938964844,142.1999969482422,346.5,142.89999389648438,351.79998779296875C143.5,357.1000061035156,142.89999389648438,379.3999938964844,145.1999969482422,380.8999938964844C145.5,381.1000061035156,145.89999389648438,381.1000061035156,146.1999969482422,381.1000061035156C146.1999969482422,381.1000061035156,146.1999969482422,381.1000061035156,146.3000030517578,381.1000061035156C146.39999389648438,381.1000061035156,146.60000610351562,381,146.6999969482422,381C149.3000030517578,380.1000061035156,153.5,374.8999938964844,160,371.6000061035156C161.3000030517578,370.8999938964844,162.60000610351562,370.29998779296875,163.89999389648438,369.79998779296875C165.10000610351562,369.29998779296875,166.3000030517578,368.79998779296875,167.39999389648438,368.3999938964844C171.89999389648438,366.5,175.10000610351562,365.70001220703125,175.10000610351562,364.6000061035156C175.10000610351562,364.70001220703125,175.10000610351562,364.70001220703125,175.10000610351562,364.6000061035156C175.10000610351562,364.70001220703125,175.10000610351562,364.70001220703125,175.10000610351562,364.6000061035156z"/>
<path id="PantsBorder" d="M76.4000015258789,230.6999969482422C76.5999984741211,231.1999969482422,76.69999694824219,231.8000030517578,76.9000015258789,232.3000030517578C76.5,231.60000610351562,76,230.89999389648438,75.5,230.3000030517578C75.80000305175781,230.5,76.0999984741211,230.60000610351562,76.4000015258789,230.6999969482422zM176.6999969482422,364.70001220703125C176.6999969482422,365.3999938964844,176.39999389648438,366,175.8000030517578,366.5C175.6999969482422,366.6000061035156,175.5,366.70001220703125,175.39999389648438,366.79998779296875C175.3000030517578,366.8999938964844,175.3000030517578,366.8999938964844,175.1999969482422,367C174.1999969482422,367.6000061035156,172.6999969482422,368.1000061035156,170.6999969482422,368.79998779296875C168.10000610351562,369.79998779296875,164.39999389648438,371.1000061035156,160.6999969482422,373C157.1999969482422,374.79998779296875,154.39999389648438,377.20001220703125,152.10000610351562,379.1000061035156C149.60000610351562,381.20001220703125,147.6999969482422,382.79998779296875,145.89999389648438,382.79998779296875C145.5,382.79998779296875,145.10000610351562,382.70001220703125,144.6999969482422,382.5C144.6999969482422,382.5,144.6999969482422,382.5,144.60000610351562,382.5C144.5,382.3999938964844,144.39999389648438,382.3999938964844,144.3000030517578,382.29998779296875C142.3000030517578,381.1000061035156,141.89999389648438,376.20001220703125,141.60000610351562,361.29998779296875C141.5,357.3999938964844,141.39999389648438,353.79998779296875,141.1999969482422,352.1000061035156C140.89999389648438,349.5,138.8000030517578,340.8999938964844,136.8000030517578,332.6000061035156C134.8000030517578,324.29998779296875,132.89999389648438,316.6000061035156,132.39999389648438,313.3999938964844C131.60000610351562,308.1000061035156,128.8000030517578,306.20001220703125,125.19999694824219,303.79998779296875L124.5999984741211,303.3999938964844C119.9000015258789,300.20001220703125,119.30000305175781,293.79998779296875,119,290.70001220703125C118.69999694824219,287.5,118.0999984741211,285.29998779296875,113.30000305175781,281.20001220703125C111.9000015258789,280,109.69999694824219,278,107.0999984741211,275.5C102.0999984741211,282,96.4000015258789,289.1000061035156,90,297.1000061035156L89.0999984741211,298.20001220703125C83.0999984741211,305.6000061035156,70.30000305175781,323.6000061035156,66.69999694824219,330C63.20000076293945,336.20001220703125,53.79999923706055,358.5,52.400001525878906,362.29998779296875C51.400001525878906,364.70001220703125,50.20000076293945,366.8999938964844,47.400001525878906,366.8999938964844C46.70000076293945,366.8999938964844,45.900001525878906,366.79998779296875,45,366.5C42.099998474121094,365.5,21,354.5,18.100000381469727,352.5C14.399999618530273,349.8999938964844,15,343.8999938964844,16,342.1000061035156C16.5,341.1000061035156,17.899999618530273,339.6000061035156,23.700000762939453,338.6000061035156C25.399999618530273,338.1000061035156,30.899999618530273,330.3999938964844,34.20000076293945,325.79998779296875C36.29999923706055,322.79998779296875,38.29999923706055,320.1000061035156,40,318C43.70000076293945,313.5,50.400001525878906,301.1000061035156,55.29999923706055,292.1000061035156C57.400001525878906,288.29998779296875,59.20000076293945,285,60.5,282.70001220703125C65.5999984741211,274,77.5,244.60000610351562,77.30000305175781,240.5C77.30000305175781,238.89999389648438,77.30000305175781,236.8000030517578,77.5999984741211,234.39999389648438C77.9000015258789,235,78.30000305175781,235.6999969482422,78.5999984741211,236.3000030517578L78.5999984741211,236.3000030517578C78.9000015258789,236.89999389648438,79.19999694824219,237.39999389648438,79.5,238C88.9000015258789,253.6999969482422,109.5,273.6000061035156,115.5,278.70001220703125C121.30000305175781,283.6000061035156,122,286.70001220703125,122.30000305175781,290.3999938964844C122.69999694824219,294.5,123.4000015258789,298.6000061035156,126.5,300.6000061035156L127.0999984741211,301C130.8000030517578,303.5,134.6999969482422,306.1000061035156,135.6999969482422,312.8999938964844C136.1999969482422,315.8999938964844,138.10000610351562,324,140,331.79998779296875C142.10000610351562,340.6000061035156,144.10000610351562,348.8999938964844,144.5,351.70001220703125C144.6999969482422,353.5,144.8000030517578,357.1000061035156,144.89999389648438,361.20001220703125C145,366.79998779296875,145.1999969482422,377,146.10000610351562,379.3999938964844C146.8000030517578,379.1000061035156,148.3000030517578,377.8999938964844,149.5,376.8999938964844C149.60000610351562,376.79998779296875,149.6999969482422,376.70001220703125,149.89999389648438,376.6000061035156C150,376.5,150.1999969482422,376.3999938964844,150.3000030517578,376.29998779296875C152.6999969482422,374.29998779296875,155.5,372,159.1999969482422,370.1000061035156C163.10000610351562,368,166.89999389648438,366.70001220703125,169.6999969482422,365.70001220703125C170.89999389648438,365.29998779296875,172.3000030517578,364.79998779296875,173.10000610351562,364.3999938964844C172.5,363.3999938964844,171.1999969482422,361.6000061035156,170.3000030517578,360.3999938964844C167,355.8999938964844,166.1999969482422,354.70001220703125,166.60000610351562,353.3999938964844C166.6999969482422,353.20001220703125,166.8000030517578,353.1000061035156,166.8000030517578,352.8999938964844C167,352.3999938964844,167.39999389648438,352.1000061035156,167.6999969482422,351.8999938964844C167.8000030517578,351.79998779296875,167.8000030517578,351.79998779296875,167.89999389648438,351.70001220703125C168,351.6000061035156,168.10000610351562,351.6000061035156,168.10000610351562,351.5C168.60000610351562,351.1000061035156,168.8000030517578,350.70001220703125,168.60000610351562,349.5C168.60000610351562,349.29998779296875,168.5,349,168.39999389648438,348.79998779296875C168.39999389648438,348.79998779296875,168.39999389648438,348.79998779296875,168.39999389648438,348.70001220703125C168.10000610351562,348,167.60000610351562,347.29998779296875,166.89999389648438,346.3999938964844C166.5,345.79998779296875,166.10000610351562,345.20001220703125,165.60000610351562,344.5L165.60000610351562,344.5C165.60000610351562,344.5,165.60000610351562,344.5,165.60000610351562,344.3999938964844C164.8000030517578,343.20001220703125,164,341.70001220703125,163.5,339.79998779296875C163.10000610351562,338.5,162.8000030517578,336.8999938964844,162.8000030517578,335.1000061035156C162.8000030517578,334.1000061035156,162.6999969482422,332.79998779296875,162.6999969482422,331.29998779296875C162.39999389648438,321.8999938964844,161.89999389648438,302.5,157.8000030517578,295.6000061035156C155.39999389648438,291.5,150.89999389648438,281.29998779296875,146.1999969482422,270.5C145.39999389648438,268.70001220703125,144.6999969482422,266.8999938964844,143.89999389648438,265.20001220703125C139.8000030517578,255.89999389648438,135.89999389648438,247.10000610351562,133.5,243.10000610351562C128,233.89999389648438,119.9000015258789,222.1999969482422,119.80000305175781,222.10000610351562C119.69999694824219,221.89999389648438,119.5999984741211,221.6999969482422,119.5999984741211,221.5C119.4000015258789,220.89999389648438,119.69999694824219,220.1999969482422,120.30000305175781,219.8000030517578C121,219.3000030517578,122.0999984741211,219.5,122.5999984741211,220.1999969482422C122.69999694824219,220.3000030517578,126.9000015258789,226.39999389648438,131.39999389648438,233.39999389648438C132,231.89999389648438,132.1999969482422,231,132.3000030517578,230.1999969482422C133.39999389648438,219.39999389648438,133.8000030517578,211.60000610351562,133.89999389648438,209.60000610351562C132.8000030517578,207.8000030517578,127.4000015258789,200.60000610351562,112.80000305175781,200.60000610351562C111.5,200.60000610351562,110.0999984741211,200.6999969482422,108.69999694824219,200.8000030517578L107,198C100.80000305175781,193.39999389648438,94.9000015258789,191.6999969482422,89.30000305175781,192.6999969482422L89.19999694824219,192.6999969482422C88.69999694824219,192.8000030517578,88.19999694824219,192.89999389648438,87.80000305175781,193C85,193.8000030517578,82.30000305175781,195.3000030517578,79.5999984741211,197.5C78.30000305175781,198.60000610351562,76.19999694824219,203.8000030517578,75.19999694824219,210.6999969482422L75.0999984741211,210.60000610351562C75.0999984741211,210.6999969482422,75.0999984741211,210.6999969482422,75.0999984741211,210.8000030517578C74.69999694824219,210.1999969482422,74.30000305175781,209.60000610351562,73.9000015258789,209.10000610351562C73.4000015258789,208.3000030517578,72.80000305175781,207.60000610351562,72.4000015258789,206.8000030517578C73.5999984741211,200.89999389648438,75.69999694824219,196.39999389648438,77.4000015258789,195C83,190.39999389648438,88.80000305175781,188.5,94.9000015258789,189.10000610351562C99.5999984741211,189.60000610351562,104.4000015258789,191.60000610351562,109.30000305175781,195.1999969482422C110,195.6999969482422,110.0999984741211,196.60000610351562,109.80000305175781,197.3000030517578C130.5,196.10000610351562,136.6999969482422,207.8000030517578,137,208.3000030517578C137.1999969482422,208.5,137.1999969482422,208.8000030517578,137.1999969482422,209.10000610351562C137.1999969482422,209.10000610351562,136.89999389648438,217.8000030517578,135.60000610351562,230.3000030517578C135.39999389648438,232,134.6999969482422,234.10000610351562,133.5,236.60000610351562C134.5,238.1999969482422,135.5,239.8000030517578,136.39999389648438,241.39999389648438C137.3000030517578,242.89999389648438,138.39999389648438,245,139.60000610351562,247.5C140.3000030517578,248.89999389648438,141,250.39999389648438,141.6999969482422,251.89999389648438C144,257,146.6999969482422,263.1000061035156,149.3000030517578,269.1000061035156C153.8000030517578,279.3999938964844,158.39999389648438,290,160.6999969482422,293.8999938964844C165.1999969482422,301.5,165.8000030517578,320.79998779296875,166.10000610351562,331.20001220703125C166.10000610351562,332.6000061035156,166.1999969482422,333.8999938964844,166.1999969482422,334.8999938964844C166.39999389648438,339.6000061035156,168.1999969482422,342.1000061035156,169.8000030517578,344.29998779296875C170.8000030517578,345.70001220703125,171.8000030517578,347.1000061035156,172.10000610351562,348.70001220703125C172.6999969482422,352,171.1999969482422,353.29998779296875,170.3000030517578,354C170.6999969482422,354.70001220703125,171.5,355.79998779296875,172.1999969482422,356.79998779296875C172.60000610351562,357.29998779296875,172.89999389648438,357.79998779296875,173.1999969482422,358.20001220703125C174.1999969482422,359.6000061035156,175,360.6000061035156,175.5,361.3999938964844C176.3000030517578,363.1000061035156,176.6999969482422,364,176.6999969482422,364.70001220703125zM104.80000305175781,273C97.19999694824219,265.5,86.9000015258789,254.5,79.9000015258789,244.39999389648438C77,255,66.9000015258789,278.1000061035156,63.400001525878906,284.1000061035156C62.099998474121094,286.29998779296875,60.29999923706055,289.6000061035156,58.20000076293945,293.3999938964844C53,303.1000061035156,46.400001525878906,315.1000061035156,42.599998474121094,319.79998779296875C40.900001525878906,321.79998779296875,39,324.5,36.900001525878906,327.3999938964844C30.299999237060547,336.6000061035156,26.899999618530273,341,24.299999237060547,341.5C19.600000381469727,342.29998779296875,18.899999618530273,343.29998779296875,18.899999618530273,343.29998779296875C18.5,344.1000061035156,18.100000381469727,348,20.100000381469727,349.3999938964844C23.200000762939453,351.6000061035156,43.900001525878906,362.20001220703125,46.20000076293945,363C47.79999923706055,363.6000061035156,48.29999923706055,363.70001220703125,49.400001525878906,360.79998779296875C50.599998474121094,357.6000061035156,60.099998474121094,334.70001220703125,63.900001525878906,328C67.5999984741211,321.3999938964844,80.5,303.3999938964844,86.69999694824219,295.79998779296875L87.5999984741211,294.70001220703125C94.30000305175781,286.6000061035156,100,279.5,104.80000305175781,273z"/>
<path id="Shirt" fill="#FFE9F8" d="M83.0999984741211,159.1999969482422C81.5999984741211,159,63,141.39999389648438,63,140.39999389648438C63,139.39999389648438,67.5,126.4000015258789,70,118.80000305175781C72.5,111.19999694824219,85,98.9000015258789,88,97.5999984741211C88,97.5999984741211,116,111.4000015258789,120.19999694824219,116.4000015258789C123.19999694824219,115.80000305175781,118.30000305175781,101.80000305175781,118.9000015258789,98.80000305175781C119.5,95.80000305175781,121.9000015258789,97.30000305175781,125.0999984741211,100.5C128.3000030517578,103.69999694824219,131.6999969482422,117.19999694824219,131.6999969482422,120.4000015258789C131.6999969482422,123.5999984741211,137.3000030517578,126.0999984741211,140.6999969482422,132.10000610351562C144.10000610351562,138,136.1999969482422,154.8000030517578,133.89999389648438,166C131.60000610351562,177.1999969482422,136.1999969482422,186.5,137.3000030517578,197.3000030517578C138.39999389648438,208.10000610351562,135.60000610351562,214,134.6999969482422,213.39999389648438C133.8000030517578,212.8000030517578,132.39999389648438,202.8000030517578,131.10000610351562,204.10000610351562C129.8000030517578,205.39999389648438,123.80000305175781,217.39999389648438,123.80000305175781,217.39999389648438C117.80000305175781,212.5,111.30000305175781,208.3000030517578,104.4000015258789,204.89999389648438C93.0999984741211,199.39999389648438,83.0999984741211,197.6999969482422,79,195.39999389648438C74.9000015258789,193.10000610351562,79.5999984741211,188.39999389648438,80.69999694824219,186.6999969482422C81.80000305175781,185,79,183.10000610351562,79.5999984741211,181C80.19999694824219,178.89999389648438,84.9000015258789,173.60000610351562,84.30000305175781,170.60000610351562L83.0999984741211,159.1999969482422z"/>
<path id="ShirtBorder" d="M137,186.10000610351562C135.5,179.5,134.10000610351562,173.3000030517578,135.60000610351562,166.3000030517578C136.3000030517578,162.6999969482422,137.6999969482422,158.5,139,154.3000030517578C142,144.8000030517578,144.89999389648438,135.89999389648438,142.1999969482422,131.1999969482422C140.5,128.1999969482422,138.1999969482422,126,136.39999389648438,124.30000305175781C134.8000030517578,122.69999694824219,133.39999389648438,121.4000015258789,133.39999389648438,120.4000015258789C133.39999389648438,117.19999694824219,130,103.0999984741211,126.30000305175781,99.30000305175781C123.69999694824219,96.69999694824219,121.5,95,119.5,95.5999984741211C118.69999694824219,95.80000305175781,117.69999694824219,96.5,117.30000305175781,98.4000015258789C117,99.80000305175781,117.5,102.30000305175781,118.30000305175781,106.0999984741211C118.69999694824219,108.0999984741211,119.4000015258789,111.5,119.5,113.5C112.19999694824219,107.69999694824219,91.30000305175781,97.4000015258789,88.69999694824219,96.0999984741211C88.30000305175781,95.9000015258789,87.80000305175781,95.9000015258789,87.30000305175781,96.0999984741211C83.80000305175781,97.5999984741211,71.0999984741211,110.19999694824219,68.4000015258789,118.30000305175781C67.69999694824219,120.30000305175781,66.9000015258789,122.69999694824219,66.0999984741211,125.19999694824219C62.20000076293945,136.89999389648438,61.29999923706055,139.60000610351562,61.29999923706055,140.39999389648438C61.29999923706055,141.1999969482422,61.29999923706055,141.89999389648438,71.30000305175781,151.3000030517578C77.4000015258789,157.10000610351562,80.19999694824219,159.3000030517578,81.5,160.1999969482422L82.69999694824219,170.8000030517578C82.69999694824219,170.89999389648438,82.69999694824219,170.89999389648438,82.69999694824219,171C83,172.3000030517578,81.0999984741211,175.1999969482422,80,177C79.0999984741211,178.39999389648438,78.4000015258789,179.60000610351562,78.0999984741211,180.5C77.5999984741211,182.1999969482422,78.30000305175781,183.60000610351562,78.9000015258789,184.6999969482422C79.0999984741211,185.10000610351562,79.4000015258789,185.6999969482422,79.4000015258789,185.89999389648438C79.19999694824219,186.10000610351562,79,186.5,78.69999694824219,186.8000030517578C77.4000015258789,188.60000610351562,75.4000015258789,191.1999969482422,75.9000015258789,193.8000030517578C76.0999984741211,194.6999969482422,76.5999984741211,195.89999389648438,78.30000305175781,196.89999389648438C80.19999694824219,198,83,198.89999389648438,86.5999984741211,200C91.4000015258789,201.5,97.4000015258789,203.39999389648438,103.80000305175781,206.5C110.5999984741211,209.8000030517578,117,214,122.9000015258789,218.8000030517578C123.19999694824219,219,123.5999984741211,219.1999969482422,123.9000015258789,219.1999969482422C124,219.1999969482422,124.0999984741211,219.1999969482422,124.19999694824219,219.1999969482422C124.69999694824219,219.10000610351562,125.0999984741211,218.8000030517578,125.30000305175781,218.3000030517578C127.4000015258789,214.1999969482422,129.6999969482422,209.6999969482422,131.10000610351562,207.3000030517578C131.39999389648438,208.3000030517578,131.6999969482422,209.39999389648438,131.89999389648438,210.10000610351562C132.6999969482422,213.3000030517578,133,214.3000030517578,133.8000030517578,214.89999389648438C134.39999389648438,215.3000030517578,135.1999969482422,215.39999389648438,135.89999389648438,215C138.10000610351562,213.6999969482422,139.89999389648438,206.60000610351562,139,197.3000030517578C138.60000610351562,193.3000030517578,137.8000030517578,189.8000030517578,137,186.10000610351562zM135.1999969482422,209.39999389648438C135.1999969482422,209.3000030517578,135.1999969482422,209.1999969482422,135.10000610351562,209.1999969482422C133.89999389648438,204.5,133.39999389648438,202.89999389648438,131.89999389648438,202.5C131.1999969482422,202.3000030517578,130.5,202.5,130,203C128.89999389648438,204.10000610351562,125.30000305175781,211,123.30000305175781,214.89999389648438C117.69999694824219,210.5,111.5999984741211,206.60000610351562,105.19999694824219,203.5C98.5999984741211,200.3000030517578,92.5,198.39999389648438,87.5999984741211,196.8000030517578C84.19999694824219,195.6999969482422,81.5,194.89999389648438,79.9000015258789,194C79.19999694824219,193.60000610351562,79.19999694824219,193.3000030517578,79.0999984741211,193.10000610351562C78.9000015258789,191.89999389648438,80.5,189.89999389648438,81.30000305175781,188.6999969482422C81.5999984741211,188.1999969482422,81.9000015258789,187.89999389648438,82.0999984741211,187.5C83.0999984741211,185.8000030517578,82.30000305175781,184.1999969482422,81.80000305175781,183.10000610351562C81.5,182.39999389648438,81.0999984741211,181.8000030517578,81.30000305175781,181.39999389648438C81.5,180.89999389648438,82.19999694824219,179.6999969482422,82.80000305175781,178.6999969482422C84.5,176,86.5,172.89999389648438,86,170.3000030517578L84.69999694824219,159C84.5999984741211,158.3000030517578,84.19999694824219,157.8000030517578,83.5999984741211,157.60000610351562C83.5,157.60000610351562,83.5,157.5,83.4000015258789,157.5C84.80000305175781,154.5,88.4000015258789,147.10000610351562,89.9000015258789,143.10000610351562C90,143,90.0999984741211,142.89999389648438,90.19999694824219,142.8000030517578L94.9000015258789,137.6999969482422C95.5,137.10000610351562,95.4000015258789,136.10000610351562,94.80000305175781,135.60000610351562C94.19999694824219,135,93.19999694824219,135.10000610351562,92.69999694824219,135.6999969482422L90.19999694824219,138.39999389648438L89.69999694824219,134C89.5999984741211,133.1999969482422,88.9000015258789,132.60000610351562,88,132.6999969482422C87.19999694824219,132.8000030517578,86.5999984741211,133.5,86.69999694824219,134.39999389648438L87.5,141.10000610351562C87.4000015258789,141.1999969482422,87.30000305175781,141.39999389648438,87.30000305175781,141.5C86.0999984741211,144.89999389648438,82.69999694824219,152.10000610351562,81,155.5C76.19999694824219,151.3000030517578,66.69999694824219,142.39999389648438,64.80000305175781,140C65.30000305175781,138,67.5999984741211,131.1999969482422,69.30000305175781,126.0999984741211C70.0999984741211,123.5999984741211,70.9000015258789,121.19999694824219,71.5999984741211,119.19999694824219C73.80000305175781,112.4000015258789,84.5999984741211,101.5999984741211,88.0999984741211,99.30000305175781C96.30000305175781,103.4000015258789,115.80000305175781,113.5,119,117.30000305175781C119.4000015258789,117.80000305175781,120,118,120.5999984741211,117.9000015258789C124,117.19999694824219,122.9000015258789,111.69999694824219,121.5999984741211,105.4000015258789C121.0999984741211,103.0999984741211,120.4000015258789,99.9000015258789,120.5999984741211,99.0999984741211C120.5999984741211,99,120.5999984741211,98.9000015258789,120.69999694824219,98.9000015258789C121.0999984741211,99.0999984741211,122.0999984741211,99.69999694824219,124.0999984741211,101.5999984741211C126.5,103.9000015258789,129.3000030517578,114,130,118.5999984741211L128.1999969482422,116.5999984741211C127.80000305175781,116.19999694824219,127.0999984741211,116.0999984741211,126.5999984741211,116.5C126.0999984741211,116.9000015258789,126.0999984741211,117.5999984741211,126.5,118.0999984741211L130.8000030517578,122.69999694824219C131.5,124,132.8000030517578,125.19999694824219,134.10000610351562,126.5C135.8000030517578,128.1999969482422,137.8000030517578,130.10000610351562,139.3000030517578,132.6999969482422C141.3000030517578,136.10000610351562,138.39999389648438,145.10000610351562,135.8000030517578,153.10000610351562C134.5,157.3000030517578,133.10000610351562,161.6999969482422,132.3000030517578,165.39999389648438C130.6999969482422,173.10000610351562,132.1999969482422,180,133.8000030517578,186.60000610351562C134.60000610351562,190,135.39999389648438,193.60000610351562,135.6999969482422,197.1999969482422C136.3000030517578,202.89999389648438,135.8000030517578,206.89999389648438,135.1999969482422,209.39999389648438z"/>
<path id="Nose" d="M113,69.5999984741211C112.9000015258789,69.5999984741211,112.80000305175781,69.5999984741211,112.80000305175781,69.5999984741211C112.4000015258789,69.5999984741211,112.0999984741211,69.19999694824219,112.0999984741211,68.80000305175781C112.0999984741211,68.4000015258789,112.5,68.0999984741211,112.9000015258789,68.0999984741211C113,68.0999984741211,115.0999984741211,68.19999694824219,115.69999694824219,66.5999984741211C115.9000015258789,66,115.80000305175781,65.69999694824219,115.69999694824219,65.5999984741211C115.4000015258789,65.0999984741211,114.4000015258789,64.69999694824219,112.9000015258789,64.5999984741211C112.5,64.5999984741211,112.19999694824219,64.19999694824219,112.19999694824219,63.79999923706055C112.19999694824219,63.400001525878906,112.5999984741211,63.099998474121094,113,63.099998474121094C115,63.29999923706055,116.30000305175781,63.79999923706055,116.9000015258789,64.80000305175781C117.19999694824219,65.30000305175781,117.4000015258789,66,117,67.0999984741211C116.19999694824219,69.4000015258789,113.69999694824219,69.5999984741211,113,69.5999984741211z"/>
<path id="Mouth" fill="#FFFFFF" d="M104.0999984741211,74.80000305175781L119.4000015258789,75C119.4000015258789,75,118,78.80000305175781,112,78.80000305175781S104.0999984741211,74.80000305175781,104.0999984741211,74.80000305175781z"/>
<path id="MouthBorder" d="M112,79.5999984741211C105.5999984741211,79.5999984741211,103.5999984741211,75.30000305175781,103.5,75.0999984741211C103.4000015258789,74.9000015258789,103.4000015258789,74.5999984741211,103.5999984741211,74.4000015258789C103.69999694824219,74.19999694824219,104,74.0999984741211,104.19999694824219,74.0999984741211L119.5,74.30000305175781C119.69999694824219,74.30000305175781,120,74.4000015258789,120.0999984741211,74.5999984741211C120.19999694824219,74.80000305175781,120.30000305175781,75.0999984741211,120.19999694824219,75.30000305175781C120.0999984741211,75.4000015258789,118.4000015258789,79.5999984741211,112,79.5999984741211zM105.5999984741211,75.5999984741211C106.5,76.69999694824219,108.5,78.0999984741211,112,78.0999984741211C115.5,78.0999984741211,117.30000305175781,76.69999694824219,118.0999984741211,75.69999694824219L105.5999984741211,75.5999984741211z"/>
<path id="EyeWhites" fill="#FFFFFF" d="M108.30000305175781,57.900001525878906C107.19999694824219,60.099998474121094,103.0999984741211,60.5,101.5999984741211,60.5C99.0999984741211,60.5,96.0999984741211,59.099998474121094,95.80000305175781,57.400001525878906C95.5,55.70000076293945,98.19999694824219,54.29999923706055,101.5999984741211,54.29999923706055S109,56.400001525878906,108.30000305175781,57.900001525878906zM118.19999694824219,57.900001525878906C119.0999984741211,60.099998474121094,122.5,60.70000076293945,123.80000305175781,60.5C125.80000305175781,60.20000076293945,128.39999389648438,59.099998474121094,128.6999969482422,57.400001525878906C129,55.70000076293945,126.69999694824219,54.29999923706055,123.80000305175781,54.29999923706055S117.5,56.400001525878906,118.19999694824219,57.900001525878906z"/>
<path id="Eyes" d="M104.5,57.20000076293945C104.5,58.900001525878906,103.19999694824219,60.20000076293945,101.5999984741211,60.29999923706055C99.9000015258789,60.29999923706055,98.5999984741211,59,98.5,57.400001525878906C98.5,55.70000076293945,99.80000305175781,54.400001525878906,101.4000015258789,54.29999923706055L101.5,54.29999923706055C103.0999984741211,54.20000076293945,104.4000015258789,55.5,104.5,57.20000076293945zM120.0999984741211,57C119.9000015258789,58.5,120.9000015258789,59.79999923706055,122.4000015258789,60C122.4000015258789,60,122.4000015258789,60,122.5,60C124,59.900001525878906,125.19999694824219,58.70000076293945,125.19999694824219,57.099998474121094C125.4000015258789,55.599998474121094,124.4000015258789,54.29999923706055,123,54.099998474121094C123,54.099998474121094,123,54.099998474121094,122.9000015258789,54.099998474121094C121.30000305175781,54.29999923706055,120.0999984741211,55.5,120.0999984741211,57z"/>
<path id="EyeBrows" d="M90.4000015258789,49.70000076293945C90,49.5,92.9000015258789,46.79999923706055,95.19999694824219,46.099998474121094C97.5,45.400001525878906,106.30000305175781,45.70000076293945,107,46.79999923706055C107.69999694824219,47.900001525878906,107.19999694824219,48.5,106.19999694824219,48.599998474121094C105.19999694824219,48.70000076293945,96.80000305175781,47.5,94.9000015258789,48.099998474121094S90.80000305175781,49.900001525878906,90.4000015258789,49.70000076293945zM132.3000030517578,49.400001525878906C132.6999969482422,49.20000076293945,130.1999969482422,46.599998474121094,128.3000030517578,46C126.4000015258789,45.400001525878906,119,46,118.5,47.099998474121094C118,48.20000076293945,118.30000305175781,48.900001525878906,119.19999694824219,48.900001525878906C120.0999984741211,48.900001525878906,127.0999984741211,47.400001525878906,128.60000610351562,48C130.10000610351562,48.599998474121094,131.89999389648438,49.599998474121094,132.3000030517578,49.400001525878906z"/>
<path id="EyeLids" d="M108.5999984741211,57.099998474121094C107.5,55,105.4000015258789,53.70000076293945,103,53.5C101.5999984741211,53.29999923706055,100.30000305175781,53.400001525878906,98.9000015258789,53.79999923706055C97.0999984741211,54.29999923706055,95.5,55.20000076293945,94.0999984741211,56.400001525878906C94.5,56.79999923706055,94.9000015258789,57.20000076293945,95.30000305175781,57.599998474121094C95.5,57.900001525878906,95.80000305175781,58,96.0999984741211,57.79999923706055C96.30000305175781,57.70000076293945,96.4000015258789,57.5,96.4000015258789,57.400001525878906C96.5,56.70000076293945,96.9000015258789,56.099998474121094,97.5,55.70000076293945L98,55.400001525878906L98.5,55.20000076293945C99.9000015258789,54.70000076293945,101.4000015258789,54.5,102.9000015258789,54.70000076293945C104.80000305175781,54.900001525878906,106.5999984741211,56,107.5999984741211,57.599998474121094C107.69999694824219,57.79999923706055,107.9000015258789,57.900001525878906,108.19999694824219,57.900001525878906C108.30000305175781,57.900001525878906,108.30000305175781,57.900001525878906,108.4000015258789,57.900001525878906C108.5999984741211,57.79999923706055,108.69999694824219,57.400001525878906,108.5999984741211,57.099998474121094zM117.69999694824219,57.099998474121094C118.5999984741211,55.20000076293945,120.4000015258789,53.900001525878906,122.5,53.599998474121094C123.5999984741211,53.400001525878906,124.80000305175781,53.599998474121094,125.9000015258789,53.900001525878906C127.4000015258789,54.400001525878906,128.8000030517578,55.400001525878906,129.8000030517578,56.599998474121094C129.5,57,129.10000610351562,57.400001525878906,128.6999969482422,57.79999923706055C128.60000610351562,57.900001525878906,128.5,58,128.39999389648438,58.099998474121094C128.10000610351562,58.099998474121094,127.9000015258789,57.900001525878906,127.9000015258789,57.599998474121094C127.9000015258789,57.599998474121094,127.9000015258789,57.599998474121094,127.9000015258789,57.5C127.9000015258789,56.900001525878906,127.5999984741211,56.20000076293945,127.0999984741211,55.79999923706055L126.69999694824219,55.5C126.5999984741211,55.400001525878906,126.4000015258789,55.29999923706055,126.30000305175781,55.29999923706055C125.19999694824219,54.70000076293945,123.9000015258789,54.5,122.69999694824219,54.70000076293945C121,54.900001525878906,119.4000015258789,56,118.5999984741211,57.5C118.5,57.70000076293945,118.30000305175781,57.79999923706055,118.0999984741211,57.79999923706055C118,57.79999923706055,118,57.79999923706055,117.9000015258789,57.70000076293945C117.5999984741211,57.599998474121094,117.5999984741211,57.29999923706055,117.69999694824219,57.099998474121094z"/>
<path id="Hair" fill="#FFCE43" d="M75.30000305175781,68.0999984741211C76.80000305175781,70.80000305175781,78.5,73.5,80.5999984741211,76C79.69999694824219,82.0999984741211,80.19999694824219,91.69999694824219,69.19999694824219,99.0999984741211C56.20000076293945,107.9000015258789,47.400001525878906,101,47.400001525878906,101C60.20000076293945,101,64.19999694824219,86.5,59.70000076293945,70.4000015258789C56.29999923706055,58.20000076293945,63.5,50,70.5,48.400001525878906C70.5,49,70.5,49.5,70.5,50.099998474121094C70.5,52,70.69999694824219,53.900001525878906,71,55.79999923706055C70.5999984741211,56.900001525878906,70.30000305175781,58.20000076293945,70.30000305175781,59.5C70.4000015258789,63.5,72.5,66.9000015258789,75.30000305175781,68.0999984741211zM100.80000305175781,13.100000381469727C70.80000305175781,15,69.30000305175781,40.400001525878906,71.0999984741211,55.5C72.30000305175781,52.5,74.69999694824219,50.5,77.5999984741211,50.5L77.69999694824219,50.5C79.5999984741211,50.599998474121094,81.19999694824219,51.70000076293945,82.0999984741211,53.29999923706055C82.69999694824219,53.099998474121094,83.4000015258789,52.900001525878906,84.0999984741211,52.70000076293945C95,50.400001525878906,113.80000305175781,41.79999923706055,118.5999984741211,31.200000762939453C128.5,47.5,131.5,48.29999923706055,134.5,48.099998474121094C134.5,41,130.5,11.199999809265137,100.80000305175781,13.100000381469727z"/>
<path id="HairBorder" d="M124.5,19.200000762939453C118.4000015258789,13.399999618530273,110.4000015258789,10.899999618530273,100.69999694824219,11.399999618530273C89.0999984741211,12.100000381469727,80.5,16.399999618530273,75.0999984741211,24.100000381469727C71.0999984741211,29.899999618530273,69,37.79999923706055,69,47.099998474121094C67.30000305175781,47.599998474121094,65.5999984741211,48.5,64.0999984741211,49.70000076293945C61.79999923706055,51.5,54.79999923706055,58.20000076293945,58.29999923706055,70.69999694824219C61.099998474121094,80.69999694824219,60.400001525878906,90,56.599998474121094,95C54.5,97.80000305175781,51.5,99.19999694824219,47.70000076293945,99.19999694824219C47.70000076293945,99.19999694824219,47.70000076293945,99.19999694824219,47.599998474121094,99.19999694824219C46.900001525878906,99.19999694824219,46.29999923706055,99.5999984741211,46.099998474121094,100.30000305175781C45.900001525878906,101,46.099998474121094,101.69999694824219,46.599998474121094,102.0999984741211C46.79999923706055,102.30000305175781,50.400001525878906,105,56.29999923706055,105C60.099998474121094,105,64.80000305175781,103.9000015258789,70.19999694824219,100.19999694824219C80.4000015258789,93.4000015258789,81.30000305175781,84.80000305175781,82,78.5C82,78.19999694824219,82.0999984741211,77.9000015258789,82.0999984741211,77.5999984741211C81.0999984741211,76.5,80.19999694824219,75.4000015258789,79.30000305175781,74.19999694824219C79.0999984741211,75.4000015258789,78.9000015258789,76.69999694824219,78.69999694824219,78.0999984741211C78.0999984741211,84.0999984741211,77.30000305175781,91.5,68.30000305175781,97.5999984741211C61.79999923706055,102,56.5,102.19999694824219,53.099998474121094,101.5C55.5,100.5999984741211,57.5,99.0999984741211,59.099998474121094,97C63.599998474121094,91.0999984741211,64.5,80.9000015258789,61.400001525878906,69.80000305175781C59.400001525878906,62.70000076293945,61.20000076293945,56.099998474121094,66.0999984741211,52.20000076293945C67,51.5,68.0999984741211,50.900001525878906,69.0999984741211,50.5C69.0999984741211,50.900001525878906,69.0999984741211,51.29999923706055,69.19999694824219,51.79999923706055C69.80000305175781,60.29999923706055,71.69999694824219,66.69999694824219,71.80000305175781,67C72,67.69999694824219,72.5999984741211,68.19999694824219,73.4000015258789,68.19999694824219C73.5,68.19999694824219,73.5999984741211,68.19999694824219,73.5999984741211,68.19999694824219C74,68.0999984741211,74.30000305175781,68,74.5,67.69999694824219C72.0999984741211,66.19999694824219,70.4000015258789,63.20000076293945,70.4000015258789,59.599998474121094C70.4000015258789,57.099998474121094,71.19999694824219,54.79999923706055,72.5999984741211,53.20000076293945C71.80000305175781,44.79999923706055,72.30000305175781,34.099998474121094,77.9000015258789,26.100000381469727C82.5,19.200000762939453,90.30000305175781,15.399999618530273,100.9000015258789,14.699999809265137C101.69999694824219,14.600000381469727,102.5999984741211,14.600000381469727,103.4000015258789,14.600000381469727C111.0999984741211,14.600000381469727,117.4000015258789,16.899999618530273,122.30000305175781,21.5C129.89999389648438,28.600000381469727,132.39999389648438,40,132.8000030517578,46.29999923706055C130.8000030517578,45.70000076293945,127.5999984741211,42.79999923706055,120,30.299999237060547C119.69999694824219,29.799999237060547,119.0999984741211,29.5,118.5,29.5C117.9000015258789,29.5,117.4000015258789,29.899999618530273,117.0999984741211,30.399999618530273C115.0999984741211,34.79999923706055,110,39.400001525878906,102.80000305175781,43.5C96.80000305175781,46.900001525878906,89.5,49.79999923706055,83.80000305175781,51C82.80000305175781,51.20000076293945,81.9000015258789,51.5,81.0999984741211,51.79999923706055C81.9000015258789,52.5,82.5,53.5,82.80000305175781,54.599998474121094C83.30000305175781,54.400001525878906,83.9000015258789,54.20000076293945,84.5,54.099998474121094C95,51.900001525878906,112.0999984741211,44.20000076293945,118.69999694824219,34.20000076293945C127.80000305175781,48.79999923706055,131.10000610351562,49.79999923706055,134.60000610351562,49.5C135.39999389648438,49.400001525878906,136.10000610351562,48.70000076293945,136.10000610351562,47.900001525878906C136.10000610351562,47.29999923706055,136,29.899999618530273,124.5,19.200000762939453z"/>
</g>
</svg>