<svg xmlns="http://www.w3.org/2000/svg" xmlns:xlink="http://www.w3.org/1999/xlink" viewBox= "0 0 512 128" width="512px" height="128px">
<g xmlns="http://www.w3.org/2000/svg" id="Pasture.svg">
<path id="grass4Border" fill="#FFEF92" d="M47.099998474121094,114.5C41,86.5,41.29999923706055,57.099998474121094,33.29999923706055,29.799999237060547L33.70000076293945,29.600000381469727C43.599998474121094,55.599998474121094,51.70000076293945,88.19999694824219,47.599998474121094,114.4000015258789L47.099998474121094,114.5L47.099998474121094,114.5L47.099998474121094,114.5L47.099998474121094,114.5zM108.0999984741211,113.9000015258789C107.30000305175781,100.4000015258789,102.4000015258789,87.69999694824219,97.5999984741211,75.30000305175781C92.9000015258789,63.19999694824219,87.9000015258789,50.099998474121094,80.9000015258789,38.900001525878906L80.5,39.20000076293945C92,63.099998474121094,96.69999694824219,90,107.5999984741211,114.0999984741211L108.0999984741211,113.9000015258789L108.0999984741211,113.9000015258789L108.0999984741211,113.9000015258789L108.0999984741211,113.9000015258789zM120.4000015258789,114C127.30000305175781,84.80000305175781,127.69999694824219,52.5,127.5999984741211,22.600000381469727L127.19999694824219,22.600000381469727C124.5999984741211,52.79999923706055,117.4000015258789,83.5999984741211,120,114C120.0999984741211,114,120.19999694824219,114,120.4000015258789,114L120.4000015258789,114L120.4000015258789,114zM230.60000610351562,115.5999984741211C236.8000030517578,87.80000305175781,232.39999389648438,58.79999923706055,235.6999969482422,30.799999237060547L235.3000030517578,30.700000762939453C231.3000030517578,57.70000076293945,226.6999969482422,88.69999694824219,230.1999969482422,115.5999984741211C230.3000030517578,115.5999984741211,230.5,115.5999984741211,230.60000610351562,115.5999984741211L230.60000610351562,115.5999984741211L230.60000610351562,115.5999984741211zM290.6000061035156,114C297.5,84.9000015258789,297.8999938964844,52.400001525878906,297.79998779296875,22.600000381469727L297.3999938964844,22.600000381469727C294.79998779296875,52.79999923706055,287.5,83.5999984741211,290.20001220703125,114C290.29998779296875,114,290.5,114,290.6000061035156,114L290.6000061035156,114L290.6000061035156,114zM384.70001220703125,106.30000305175781C384.6000061035156,81.30000305175781,381.29998779296875,56.5,381.8999938964844,31.400001525878906L381.5,31.400001525878906C378.29998779296875,58,376.3999938964844,88.0999984741211,384.1000061035156,114.0999984741211L384.5,114C384.6000061035156,111.4000015258789,384.70001220703125,108.80000305175781,384.70001220703125,106.30000305175781C384.70001220703125,104.69999694824219,384.70001220703125,107.80000305175781,384.70001220703125,106.30000305175781C384.70001220703125,104.69999694824219,384.70001220703125,107.80000305175781,384.70001220703125,106.30000305175781C384.70001220703125,104.69999694824219,384.70001220703125,107.80000305175781,384.70001220703125,106.30000305175781zM455.20001220703125,114C459.20001220703125,81.69999694824219,460,48.29999923706055,467.5,16.5L467.1000061035156,16.399999618530273C457.6000061035156,45.599998474121094,449.3999938964844,83.5,454.79998779296875,114C454.8999938964844,114,455.1000061035156,114,455.20001220703125,114L455.20001220703125,114L455.20001220703125,114zM421.3999938964844,116.0999984741211C428.29998779296875,86.9000015258789,428.70001220703125,54.599998474121094,428.6000061035156,24.700000762939453L428.20001220703125,24.700000762939453C425.6000061035156,55,418.3999938964844,85.5999984741211,421,116.0999984741211C421.1000061035156,116,421.20001220703125,116.0999984741211,421.3999938964844,116.0999984741211L421.3999938964844,116.0999984741211L421.3999938964844,116.0999984741211z"/>
<path id="grass5Border" fill="#DDB300" d="M89.0999984741211,22.600000381469727C89.0999984741211,32.5,88.5999984741211,42.400001525878906,88,52.29999923706055C87.30000305175781,50.79999923706055,86.5999984741211,49.29999923706055,85.9000015258789,47.79999923706055C86.9000015258789,39.400001525878906,87.9000015258789,31,88.69999694824219,22.600000381469727L89.0999984741211,22.600000381469727L89.0999984741211,22.600000381469727L89.0999984741211,22.600000381469727L89.0999984741211,22.600000381469727L89.0999984741211,22.600000381469727L89.0999984741211,22.600000381469727zM85.5,50.79999923706055C83.19999694824219,71.80000305175781,79.5999984741211,92.9000015258789,81.4000015258789,114L81.80000305175781,114C86.19999694824219,95.30000305175781,86.5999984741211,76.0999984741211,87.69999694824219,57C87,54.900001525878906,86.30000305175781,52.79999923706055,85.5,50.79999923706055C85.5,51,86.19999694824219,52.5,85.5,50.79999923706055C85.5,51,86.19999694824219,52.5,85.5,50.79999923706055C85.5,51,86.19999694824219,52.5,85.5,50.79999923706055zM144,78.4000015258789C144,78.30000305175781,144,78.30000305175781,144,78.19999694824219L144,78.19999694824219L144,78.4000015258789L144,78.4000015258789L144,78.4000015258789L144,78.4000015258789zM151.39999389648438,39.900001525878906L151.39999389648438,39.900001525878906C151.3000030517578,40.099998474121094,151.1999969482422,40.29999923706055,151.1999969482422,40.5L151.39999389648438,39.900001525878906L151.39999389648438,39.900001525878906L151.39999389648438,39.900001525878906L151.39999389648438,39.900001525878906zM111.80000305175781,26C98.4000015258789,52.29999923706055,94.5,86.5,95.80000305175781,115.5999984741211L96.19999694824219,115.5999984741211C104.5,86,100.69999694824219,54,112.5999984741211,25.200000762939453L112.19999694824219,25C112.30000305175781,25.100000381469727,112.0999984741211,25.399999618530273,111.80000305175781,26C111.5,26.600000381469727,112.0999984741211,25.399999618530273,111.80000305175781,26C111.5,26.600000381469727,112.0999984741211,25.399999618530273,111.80000305175781,26C111.5,26.600000381469727,112.0999984741211,25.399999618530273,111.80000305175781,26zM64,78.80000305175781C62.599998474121094,61.79999923706055,61.79999923706055,44.70000076293945,60.29999923706055,27.700000762939453L59.900001525878906,27.700000762939453C59.599998474121094,56,57.20000076293945,86.0999984741211,63,114L63.400001525878906,114C65,102.4000015258789,65,90.5,64,78.80000305175781C63.79999923706055,76.19999694824219,64.30000305175781,81.5,64,78.80000305175781C63.79999923706055,76.19999694824219,64.30000305175781,81.5,64,78.80000305175781C63.79999923706055,76.19999694824219,64.30000305175781,81.5,64,78.80000305175781zM38.70000076293945,107.0999984741211C37.5,88.80000305175781,31.799999237060547,71.69999694824219,25.700000762939453,54.5C25.899999618530273,46.599998474121094,26,38.599998474121094,27,30.799999237060547L26.600000381469727,30.700000762939453C25.200000762939453,36.900001525878906,24.5,43.20000076293945,23.799999237060547,49.400001525878906C19.700000762939453,38.599998474121094,15.399999618530273,27.799999237060547,10.600000381469727,17.299999237060547L10.199999809265137,17.5C14.899999618530273,30.299999237060547,19.200000762939453,43.20000076293945,23.100000381469727,56.29999923706055C21.200000762939453,75.9000015258789,18.899999618530273,95.9000015258789,21.399999618530273,115.5999984741211L21.799999237060547,115.5999984741211C25.5,98.69999694824219,25,81.30000305175781,25.399999618530273,64.0999984741211C30.399999618530273,81.5999984741211,35,99.5999984741211,37.79999923706055,117.5999984741211L38.20000076293945,117.5999984741211C38.79999923706055,114.19999694824219,38.79999923706055,110.69999694824219,38.70000076293945,107.0999984741211C38.70000076293945,106.9000015258789,38.79999923706055,107.4000015258789,38.70000076293945,107.0999984741211C38.70000076293945,106.9000015258789,38.79999923706055,107.4000015258789,38.70000076293945,107.0999984741211C38.70000076293945,106.9000015258789,38.79999923706055,107.4000015258789,38.70000076293945,107.0999984741211zM41.79999923706055,79.9000015258789C40.400001525878906,91.0999984741211,40,102.80000305175781,42,114L42.400001525878906,114C43.099998474121094,108.80000305175781,43.5,103.5999984741211,44.20000076293945,98.4000015258789C43.599998474121094,94.9000015258789,43.20000076293945,91.5999984741211,42.900001525878906,89.0999984741211C42.70000076293945,87.80000305175781,42.099998474121094,82.5,41.79999923706055,79.9000015258789zM54,17.399999618530273C49,33.900001525878906,46.29999923706055,44.099998474121094,43.599998474121094,61C44.5,65.4000015258789,45.400001525878906,69.69999694824219,46.20000076293945,74.0999984741211C48.099998474121094,52.599998474121094,49.79999923706055,37.5,54.70000076293945,16.5L54.29999923706055,16.399999618530273C54.29999923706055,16.399999618530273,54.20000076293945,16.700000762939453,54,17.399999618530273C53.79999923706055,17.799999237060547,54.20000076293945,16.700000762939453,54,17.399999618530273C53.79999923706055,17.799999237060547,54.20000076293945,16.700000762939453,54,17.399999618530273C53.79999923706055,17.799999237060547,54.20000076293945,16.700000762939453,54,17.399999618530273zM283.20001220703125,106.30000305175781C283.1000061035156,81.30000305175781,279.8999938964844,56.5,280.3999938964844,31.400001525878906L280,31.400001525878906C276.79998779296875,58,274.8999938964844,88.0999984741211,282.6000061035156,114.0999984741211L283,114C283.1000061035156,111.4000015258789,283.20001220703125,108.80000305175781,283.20001220703125,106.30000305175781C283.1000061035156,104.69999694824219,283.20001220703125,107.80000305175781,283.20001220703125,106.30000305175781C283.1000061035156,104.69999694824219,283.20001220703125,107.80000305175781,283.20001220703125,106.30000305175781C283.1000061035156,104.69999694824219,283.20001220703125,107.80000305175781,283.20001220703125,106.30000305175781zM247.5,107.0999984741211C246.3000030517578,88.80000305175781,240.60000610351562,71.69999694824219,234.5,54.5C234.39999389648438,57.70000076293945,234.3000030517578,60.900001525878906,234.3000030517578,64.0999984741211C239.3000030517578,81.5999984741211,243.89999389648438,99.5999984741211,246.6999969482422,117.5999984741211L247.10000610351562,117.5999984741211C247.5,114.19999694824219,247.5,110.69999694824219,247.5,107.0999984741211C247.39999389648438,106.9000015258789,247.5,107.4000015258789,247.5,107.0999984741211C247.39999389648438,106.9000015258789,247.5,107.4000015258789,247.5,107.0999984741211C247.39999389648438,106.9000015258789,247.5,107.4000015258789,247.5,107.0999984741211zM228.8000030517578,39.70000076293945C225.8000030517578,32.20000076293945,222.6999969482422,24.700000762939453,219.3000030517578,17.399999618530273L218.89999389648438,17.600000381469727C223.60000610351562,30.400001525878906,227.89999389648438,43.29999923706055,231.8000030517578,56.400001525878906C232,54.099998474121094,232.1999969482422,51.79999923706055,232.5,49.599998474121094C231.3000030517578,46.20000076293945,230.10000610351562,43,228.8000030517578,39.70000076293945C227.8000030517578,37.099998474121094,229.8000030517578,42.29999923706055,228.8000030517578,39.70000076293945C227.8000030517578,37.099998474121094,229.8000030517578,42.29999923706055,228.8000030517578,39.70000076293945C227.8000030517578,37.099998474121094,229.8000030517578,42.29999923706055,228.8000030517578,39.70000076293945zM162.89999389648438,19.100000381469727C163.10000610351562,19,163.1999969482422,18.799999237060547,163.39999389648438,18.700000762939453L163.10000610351562,18.299999237060547C162.8000030517578,18.5,162.5,18.799999237060547,162.1999969482422,19.100000381469727C161.60000610351562,19.600000381469727,160.89999389648438,20.5,160.10000610351562,21.600000381469727C159.3000030517578,22.799999237060547,158.39999389648438,24.200000762939453,157.5,26C155.1999969482422,30.5,153.1999969482422,35.20000076293945,151.39999389648438,39.900001525878906L151.39999389648438,39.900001525878906L151.1999969482422,40.5C151.3000030517578,40.29999923706055,151.39999389648438,40.099998474121094,151.39999389648438,39.900001525878906C151.39999389648438,37,151.60000610351562,34.20000076293945,151.60000610351562,31.299999237060547L151.1999969482422,31.299999237060547C150.6999969482422,35.599998474121094,150.1999969482422,39.79999923706055,149.89999389648438,44.099998474121094C147.39999389648438,51.20000076293945,145.1999969482422,58.400001525878906,143.10000610351562,65.5999984741211C142.3000030517578,53,141.39999389648438,40.400001525878906,140.39999389648438,27.700000762939453L140,27.700000762939453C139.8000030517578,44,140.10000610351562,60.400001525878906,140,76.69999694824219C136.60000610351562,89.19999694824219,134,102.5999984741211,134.39999389648438,115.5999984741211L134.8000030517578,115.69999694824219C136.8000030517578,108.5,138.6999969482422,101.30000305175781,140.5,94.0999984741211C141,100.80000305175781,141.8000030517578,107.5,143.10000610351562,114L143.5,114C145.10000610351562,102.19999694824219,144.89999389648438,90.19999694824219,144,78.30000305175781C144,78.4000015258789,144,78.4000015258789,144,78.5L144,78.30000305175781L144,78.30000305175781C145.60000610351562,70.5999984741211,147.3000030517578,62.900001525878906,149.3000030517578,55.29999923706055C148.60000610351562,74.9000015258789,148.1999969482422,95.0999984741211,153.8000030517578,114L154.1999969482422,113.9000015258789C155.6999969482422,91.5999984741211,151.5,69.4000015258789,151.5,47.099998474121094C153.5,40.099998474121094,155.60000610351562,33,158.5,26.399999618530273C159.3000030517578,24.600000381469727,160,23.100000381469727,160.6999969482422,22C161.39999389648438,20.799999237060547,162,19.899999618530273,162.5,19.399999618530273C162.6999969482422,19.299999237060547,162.8000030517578,19.200000762939453,162.89999389648438,19.100000381469727C163,19,162.8000030517578,19.200000762939453,162.89999389648438,19.100000381469727C163,19,162.8000030517578,19.200000762939453,162.89999389648438,19.100000381469727C163,19,162.8000030517578,19.200000762939453,162.89999389648438,19.100000381469727zM212.5,75.5999984741211C211.5,56.5,211.89999389648438,36,207.10000610351562,17.399999618530273L206.6999969482422,17.5C212.1999969482422,49.70000076293945,206.39999389648438,83.19999694824219,209.89999389648438,115.5999984741211L210.3000030517578,115.5999984741211C212.8000030517578,102.5,213.1999969482422,88.9000015258789,212.5,75.5999984741211C212.3000030517578,72.5999984741211,212.60000610351562,78.5999984741211,212.5,75.5999984741211C212.3000030517578,72.5999984741211,212.60000610351562,78.5999984741211,212.5,75.5999984741211C212.3000030517578,72.5999984741211,212.60000610351562,78.5999984741211,212.5,75.5999984741211zM262.70001220703125,17.399999618530273C253.8000030517578,46.599998474121094,245.39999389648438,83.5,250.6999969482422,114L251.10000610351562,114C255.10000610351562,81.69999694824219,255.89999389648438,48.29999923706055,263.3999938964844,16.5L263,16.399999618530273C263,16.399999618530273,262.8999938964844,16.700000762939453,262.70001220703125,17.399999618530273C262.6000061035156,17.799999237060547,262.8999938964844,16.700000762939453,262.70001220703125,17.399999618530273C262.6000061035156,17.799999237060547,262.8999938964844,16.700000762939453,262.70001220703125,17.399999618530273C262.6000061035156,17.799999237060547,262.8999938964844,16.700000762939453,262.70001220703125,17.399999618530273zM177,103C176.8000030517578,79.69999694824219,173.6999969482422,56.70000076293945,174.1999969482422,33.400001525878906L173.8000030517578,33.400001525878906C170.60000610351562,60.099998474121094,168.6999969482422,90.0999984741211,176.39999389648438,116.0999984741211L176.8000030517578,116.0999984741211C177.10000610351562,111.69999694824219,177,107.30000305175781,177,103C177,101.0999984741211,177,104.9000015258789,177,103S177,104.9000015258789,177,103S177,104.9000015258789,177,103zM207.1999969482422,100.9000015258789C207,77.5999984741211,203.89999389648438,54.599998474121094,204.39999389648438,31.299999237060547L204,31.299999237060547C200.8000030517578,58,198.89999389648438,88,206.60000610351562,114L207,113.9000015258789C207.3000030517578,109.5999984741211,207.1999969482422,105.30000305175781,207.1999969482422,100.9000015258789C207.1999969482422,99,207.1999969482422,102.9000015258789,207.1999969482422,100.9000015258789C207.1999969482422,99,207.1999969482422,102.9000015258789,207.1999969482422,100.9000015258789C207.1999969482422,99,207.1999969482422,102.9000015258789,207.1999969482422,100.9000015258789zM191.1999969482422,24.600000381469727C188.60000610351562,54.79999923706055,181.39999389648438,85.5999984741211,184,116L184.39999389648438,116C191.3000030517578,86.9000015258789,191.6999969482422,54.400001525878906,191.60000610351562,24.600000381469727L191.1999969482422,24.600000381469727L191.1999969482422,24.600000381469727L191.1999969482422,24.600000381469727L191.1999969482422,24.600000381469727L191.1999969482422,24.600000381469727zM163.8000030517578,105.19999694824219C164.1999969482422,108.80000305175781,164.8000030517578,112.5,165.5,116.0999984741211L165.89999389648438,116.0999984741211C167.5,104.30000305175781,167.39999389648438,92.0999984741211,166.39999389648438,80.30000305175781C167.39999389648438,61.099998474121094,169,41.900001525878906,168.89999389648438,22.700000762939453L168.5,22.700000762939453C167.5,33.900001525878906,166,45.099998474121094,164.8000030517578,56.29999923706055C164.1999969482422,47.5,163.60000610351562,38.599998474121094,162.8000030517578,29.799999237060547L162.39999389648438,29.799999237060547C162.1999969482422,45.70000076293945,162.39999389648438,61.5,162.39999389648438,77.4000015258789C160.89999389648438,89.5,160.3000030517578,101.9000015258789,161.39999389648438,114.0999984741211L161.8000030517578,114.0999984741211C162.5,111,163.10000610351562,107.80000305175781,163.6999969482422,104.69999694824219L163.8000030517578,105.19999694824219C164,106.19999694824219,163.8000030517578,105.19999694824219,163.8000030517578,105.19999694824219C164,106.19999694824219,163.8000030517578,105.19999694824219,163.8000030517578,105.19999694824219C164,106.19999694824219,163.8000030517578,105.19999694824219,163.8000030517578,105.19999694824219zM474.70001220703125,114C481.6000061035156,84.9000015258789,482,52.5,481.8999938964844,22.600000381469727L481.5,22.600000381469727C478.8999938964844,52.900001525878906,471.70001220703125,83.5,474.29998779296875,114C474.3999938964844,114,474.6000061035156,114,474.70001220703125,114L474.70001220703125,114L474.70001220703125,114zM378.79998779296875,116C382.6000061035156,87.80000305175781,378.1000061035156,57.900001525878906,375.70001220703125,29.700000762939453L375.29998779296875,29.700000762939453C375,58,372.6000061035156,88.0999984741211,378.3999938964844,116C378.5,116.0999984741211,378.70001220703125,116.0999984741211,378.79998779296875,116L378.79998779296875,116L378.79998779296875,116zM467,114C468.79998779296875,86.5,463.79998779296875,58.900001525878906,464.3999938964844,31.400001525878906L464,31.400001525878906C460.79998779296875,58.099998474121094,458.8999938964844,88.0999984741211,466.6000061035156,114.0999984741211L467,114L467,114L467,114L467,114zM413.70001220703125,100.80000305175781C409.6000061035156,84,402.29998779296875,67.4000015258789,395,51.79999923706055C394.3999938964844,43.79999923706055,393.8999938964844,35.79999923706055,393.20001220703125,27.700000762939453L392.79998779296875,27.700000762939453C392.70001220703125,34.099998474121094,392.70001220703125,40.5,392.70001220703125,46.900001525878906C391.70001220703125,44.79999923706055,390.5,42.79999923706055,389.1000061035156,40.900001525878906L388.70001220703125,41.20000076293945C390.29998779296875,44,391.5,47,392.70001220703125,50.099998474121094C392.70001220703125,50.099998474121094,392.70001220703125,50,392.6000061035156,50C392.6000061035156,71.30000305175781,391.3999938964844,93.0999984741211,395.79998779296875,114.0999984741211L396.20001220703125,114.0999984741211C398.70001220703125,95.30000305175781,396.70001220703125,76.30000305175781,395.29998779296875,57.599998474121094C401.70001220703125,75.9000015258789,406.3999938964844,94.69999694824219,414,112.4000015258789C414,113,414.1000061035156,113.5,414.1000061035156,114.0999984741211L414.5,114.0999984741211C414.5,114.0999984741211,414.5,114,414.6000061035156,113.9000015258789C414.8999938964844,114.69999694824219,415.29998779296875,115.5,415.6000061035156,116.19999694824219L416,116.0999984741211C415.8999938964844,114.0999984741211,415.70001220703125,112.0999984741211,415.29998779296875,110.0999984741211C420.8999938964844,81.9000015258789,421.70001220703125,51.400001525878906,421.6000061035156,22.700000762939453L421.20001220703125,22.700000762939453C419,48.900001525878906,413.70001220703125,75,413.5,101.19999694824219L413.70001220703125,100.80000305175781C413.5,99.80000305175781,413.70001220703125,100.80000305175781,413.70001220703125,100.80000305175781C413.5,99.80000305175781,413.70001220703125,100.80000305175781,413.70001220703125,100.80000305175781C413.5,99.80000305175781,413.70001220703125,100.80000305175781,413.70001220703125,100.80000305175781zM360.1000061035156,37.5C359.8999938964844,34.20000076293945,359.6000061035156,31,359.29998779296875,27.700000762939453L358.8999938964844,27.700000762939453C358.79998779296875,34.79999923706055,358.79998779296875,41.900001525878906,358.79998779296875,49C356.20001220703125,71.19999694824219,352.29998779296875,93.5999984741211,354.29998779296875,116L354.70001220703125,116C356.8999938964844,106.9000015258789,358.20001220703125,97.4000015258789,359,88.0999984741211C359.3999938964844,96.69999694824219,360.20001220703125,105.5,362,114L362.3999938964844,114C365.29998779296875,92.9000015258789,362.5,71.30000305175781,361,50.20000076293945L361,50.20000076293945C361.3999938964844,41.70000076293945,361.8999938964844,33.20000076293945,361.8999938964844,24.700000762939453L361.5,24.700000762939453C361.1000061035156,29,360.6000061035156,33.400001525878906,360.20001220703125,37.70000076293945L360.1000061035156,37.5C359.8999938964844,35.099998474121094,360.1000061035156,37.5,360.1000061035156,37.5C359.8999938964844,35.099998474121094,360.1000061035156,37.5,360.1000061035156,37.5C359.8999938964844,35.099998474121094,360.1000061035156,37.5,360.1000061035156,37.5zM331,40.599998474121094C332.6000061035156,66.19999694824219,332.70001220703125,92.30000305175781,336.79998779296875,117.69999694824219L337.20001220703125,117.69999694824219C340.29998779296875,91.19999694824219,336.1000061035156,64.4000015258789,333,38.20000076293945C333.20001220703125,38,333.29998779296875,37.900001525878906,333.5,37.70000076293945L333.20001220703125,37.29999923706055C333.20001220703125,37.29999923706055,333.1000061035156,37.400001525878906,332.8999938964844,37.599998474121094L332.8999938964844,37.599998474121094C331.8999938964844,28.799999237060547,330.70001220703125,20.100000381469727,329.5,11.399999618530273L329.1000061035156,11.399999618530273C329.70001220703125,20.799999237060547,330.29998779296875,30.099998474121094,330.8999938964844,39.5C320.20001220703125,51.599998474121094,314.8999938964844,69.30000305175781,309.70001220703125,84.19999694824219C304,69.19999694824219,298.8999938964844,52,289.6000061035156,38.900001525878906L289.20001220703125,39.20000076293945C298.20001220703125,55.099998474121094,301.79998779296875,74.4000015258789,307.5,91.69999694824219C305.6000061035156,99.5,304.1000061035156,107.69999694824219,304.5,115.69999694824219L304.8999938964844,115.80000305175781C306.6000061035156,110.19999694824219,308.29998779296875,104.5999984741211,310,99C311.8999938964844,104.0999984741211,314,109.19999694824219,316.29998779296875,114.19999694824219L316.70001220703125,114.0999984741211C316.20001220703125,106.5,314.3999938964844,98.9000015258789,312.20001220703125,91.5999984741211L312.20001220703125,91.5999984741211C317,74.5,320.8999938964844,55.400001525878906,331,40.599998474121094C331.1000061035156,42,331,40.599998474121094,331,40.599998474121094C331.1000061035156,42,331,40.599998474121094,331,40.599998474121094C331.1000061035156,42,331,40.599998474121094,331,40.599998474121094zM343.3999938964844,98.69999694824219C344.29998779296875,104,345.20001220703125,109.19999694824219,346.1000061035156,114.5L346.5,114.5C348.20001220703125,103.5999984741211,347.29998779296875,91.9000015258789,345.20001220703125,81.0999984741211C347.1000061035156,59.599998474121094,348.79998779296875,37.5,353.70001220703125,16.5L353.29998779296875,16.399999618530273C347.8999938964844,33,345.29998779296875,50.79999923706055,342.6000061035156,68.0999984741211C340,55.29999923706055,337.5,41.900001525878906,332.70001220703125,29.799999237060547L332.29998779296875,30C337,46.099998474121094,339,63.599998474121094,340.79998779296875,80.19999694824219C340.79998779296875,80.0999984741211,340.79998779296875,80.0999984741211,340.79998779296875,80C339.5,91.19999694824219,339,102.9000015258789,341,114.0999984741211L341.3999938964844,114.0999984741211C342,108.9000015258789,342.6000061035156,103.5999984741211,343.29998779296875,98.4000015258789L343.3999938964844,98.69999694824219C343.5,99.5999984741211,343.3999938964844,98.69999694824219,343.3999938964844,98.69999694824219C343.5,99.5999984741211,343.3999938964844,98.69999694824219,343.3999938964844,98.69999694824219C343.5,99.5999984741211,343.3999938964844,98.69999694824219,343.3999938964844,98.69999694824219z"/>
<path id="grass6Border" fill="#FFD939" d="M323.70001220703125,50.5C323.29998779296875,51.29999923706055,322.8999938964844,52.099998474121094,322.3999938964844,52.900001525878906C323.1000061035156,45.5,323.8999938964844,38,325.5,30.799999237060547L325.8999938964844,30.900001525878906C325.20001220703125,36.70000076293945,324.8999938964844,42.599998474121094,324.79998779296875,48.400001525878906C324.5,49,324.1000061035156,49.70000076293945,323.70001220703125,50.5C323.29998779296875,51.20000076293945,324.1000061035156,49.70000076293945,323.70001220703125,50.5C323.29998779296875,51.20000076293945,324.1000061035156,49.70000076293945,323.70001220703125,50.5C323.29998779296875,51.20000076293945,324.1000061035156,49.70000076293945,323.70001220703125,50.5zM322.79998779296875,57.5C322.5,58.400001525878906,322.1000061035156,59.29999923706055,321.79998779296875,60.20000076293945C320.1000061035156,78.5999984741211,318.1000061035156,97.19999694824219,320.5,115.5999984741211L320.8999938964844,115.5999984741211C325.5,95.0999984741211,324.1000061035156,73.5,324.79998779296875,52.599998474121094C324.1000061035156,54.29999923706055,323.3999938964844,55.900001525878906,322.79998779296875,57.5C322.5,58.400001525878906,323.20001220703125,56.400001525878906,322.79998779296875,57.5C322.5,58.400001525878906,323.20001220703125,56.400001525878906,322.79998779296875,57.5C322.5,58.400001525878906,323.20001220703125,56.400001525878906,322.79998779296875,57.5zM210.1999969482422,116.0999984741211C199.1999969482422,92.0999984741211,196.10000610351562,64.0999984741211,183.10000610351562,41.20000076293945L183.5,40.900001525878906C191.10000610351562,51.599998474121094,195.5,65.19999694824219,200.1999969482422,77.30000305175781C205.10000610351562,89.69999694824219,209.89999389648438,102.5,210.6999969482422,115.9000015258789L210.1999969482422,116.0999984741211L210.1999969482422,116.0999984741211L210.1999969482422,116.0999984741211L210.1999969482422,116.0999984741211zM256.29998779296875,114.5C260.5,88.30000305175781,252.1999969482422,54.099998474121094,242.39999389648438,29.700000762939453L242,29.899999618530273C250,57.20000076293945,250.6999969482422,86.5999984741211,255.8000030517578,114.5999984741211C256,114.5,256.1000061035156,114.5,256.29998779296875,114.5L256.29998779296875,114.5L256.29998779296875,114.5zM272.20001220703125,114C276,85.80000305175781,271.5,55.900001525878906,269.1000061035156,27.700000762939453L268.70001220703125,27.700000762939453C268.3999938964844,56,266,86.0999984741211,271.79998779296875,114C271.8999938964844,114,272,114,272.20001220703125,114L272.20001220703125,114L272.20001220703125,114zM74.19999694824219,114C76,86.5,71,58.900001525878906,71.5999984741211,31.299999237060547L71.19999694824219,31.299999237060547C68,58,66.0999984741211,88,73.80000305175781,114L74.19999694824219,114L74.19999694824219,114L74.19999694824219,114L74.19999694824219,114zM500.8999938964844,113.9000015258789C497.8999938964844,81.4000015258789,492.8999938964844,45.29999923706055,480.8999938964844,14.799999237060547C480.3999938964844,13.399999618530273,479.8999938964844,12.399999618530273,479.5,11.699999809265137C479.29998779296875,11.300000190734863,479.1000061035156,11,478.79998779296875,10.699999809265137L478.3999938964844,11C478.6000061035156,11.300000190734863,478.79998779296875,11.699999809265137,478.8999938964844,12C479.20001220703125,12.699999809265137,479.6000061035156,13.699999809265137,480,15.100000381469727C489.79998779296875,47.29999923706055,488,82.5,500.29998779296875,114.0999984741211L500.8999938964844,113.9000015258789L500.8999938964844,113.9000015258789L500.8999938964844,113.9000015258789L500.8999938964844,113.9000015258789zM322.79998779296875,57.5C322.5,58.400001525878906,322.1000061035156,59.29999923706055,321.79998779296875,60.20000076293945C320.1000061035156,78.5999984741211,318.1000061035156,97.19999694824219,320.5,115.5999984741211L320.8999938964844,115.5999984741211C325.5,95.0999984741211,324.1000061035156,73.5,324.79998779296875,52.599998474121094C324.1000061035156,54.29999923706055,323.3999938964844,55.900001525878906,322.79998779296875,57.5C322.5,58.400001525878906,323.20001220703125,56.400001525878906,322.79998779296875,57.5C322.5,58.400001525878906,323.20001220703125,56.400001525878906,322.79998779296875,57.5C322.5,58.400001525878906,323.20001220703125,56.400001525878906,322.79998779296875,57.5zM324.8999938964844,48.400001525878906C325.1000061035156,42.599998474121094,325.29998779296875,36.70000076293945,326,30.900001525878906L325.6000061035156,30.799999237060547C324,38,323.20001220703125,45.5,322.5,52.900001525878906C323.20001220703125,51.400001525878906,324,49.900001525878906,324.8999938964844,48.400001525878906C324.8999938964844,46.900001525878906,324.5,49,324.8999938964844,48.400001525878906C324.8999938964844,46.900001525878906,324.5,49,324.8999938964844,48.400001525878906C324.8999938964844,46.900001525878906,324.5,49,324.8999938964844,48.400001525878906zM379.8999938964844,91.5999984741211C379.70001220703125,88.80000305175781,379.5,86,379.3999938964844,83.19999694824219C376.20001220703125,65.5,373.20001220703125,46.5,366.5,29.700000762939453L366.1000061035156,29.899999618530273C374.1000061035156,57.20000076293945,374.79998779296875,86.5999984741211,379.8999938964844,114.5999984741211L380.29998779296875,114.5999984741211C381,110.19999694824219,381.20001220703125,105.80000305175781,381.1000061035156,101.4000015258789C380.6000061035156,98.0999984741211,380.20001220703125,94.9000015258789,379.8999938964844,91.5999984741211C379.79998779296875,90.5,380,92.80000305175781,379.8999938964844,91.5999984741211C379.79998779296875,90.5,380,92.80000305175781,379.8999938964844,91.5999984741211C379.79998779296875,90.5,380,92.80000305175781,379.8999938964844,91.5999984741211zM112.9000015258789,106.30000305175781C112.80000305175781,81.30000305175781,109.5,56.5,110.0999984741211,31.400001525878906L109.69999694824219,31.400001525878906C106.5,58.099998474121094,104.5999984741211,88.0999984741211,112.30000305175781,114.0999984741211L112.69999694824219,114C112.80000305175781,111.4000015258789,112.9000015258789,108.80000305175781,112.9000015258789,106.30000305175781C112.9000015258789,104.69999694824219,112.9000015258789,107.80000305175781,112.9000015258789,106.30000305175781C112.9000015258789,104.69999694824219,112.9000015258789,107.80000305175781,112.9000015258789,106.30000305175781C112.9000015258789,104.69999694824219,112.9000015258789,107.80000305175781,112.9000015258789,106.30000305175781zM460.3999938964844,114.5C464.5,88.4000015258789,456.20001220703125,53.900001525878906,446.5,29.700000762939453L446.1000061035156,29.899999618530273C454.1000061035156,57.20000076293945,454.8999938964844,86.5999984741211,459.8999938964844,114.5999984741211C460.1000061035156,114.5,460.20001220703125,114.5,460.3999938964844,114.5L460.3999938964844,114.5L460.3999938964844,114.5zM413.70001220703125,116C415.5,88.5,410.5,60.900001525878906,411.1000061035156,33.400001525878906L410.70001220703125,33.400001525878906C407.5,60.099998474121094,405.6000061035156,90.0999984741211,413.29998779296875,116.0999984741211L413.70001220703125,116L413.70001220703125,116L413.70001220703125,116L413.70001220703125,116z"/>
</g>
</svg>