<svg xmlns="http://www.w3.org/2000/svg" xmlns:xlink="http://www.w3.org/1999/xlink" viewBox= "0 0 589 337" width="589px" height="337px">
<g xmlns="http://www.w3.org/2000/svg" id="RowboatV2.svg">
<path id="FullBoat" fill="#FFD16C" d="M294.70001220703125,324.20001220703125L294.70001220703125,324.20001220703125C186.89999389648438,324.20001220703125,47.79999923706055,295.70001220703125,46.400001525878906,295.5L45.5,295.29998779296875L29.700000762939453,246.60000610351562C20.399999618530273,244.60000610351562,15,243.3000030517578,15,243.3000030517578L14,243L12.699999809265137,222.89999389648438L13.399999618530273,222.39999389648438L117.69999694824219,146.5L118.30000305175781,146.60000610351562C120.9000015258789,146.89999389648438,381.8999938964844,174.10000610351562,515.5999755859375,174.10000610351562C540.2000122070312,174.10000610351562,559.2999877929688,173.1999969482422,572.2999877929688,171.39999389648438L574,171.1999969482422L574,172.89999389648438C574,178.10000610351562,574.4000244140625,180.39999389648438,574.7999877929688,182.8000030517578C575.0999755859375,184.5,575.4000244140625,186.3000030517578,575.5,189.10000610351562L575.5,189.89999389648438L574.9000244140625,190.39999389648438C570.9000244140625,193.89999389648438,566.7000122070312,197.1999969482422,562.5999755859375,200.5C561.7999877929688,228.6999969482422,541.4000244140625,254.6999969482422,503.3999938964844,275.79998779296875C466,296.6000061035156,412.20001220703125,312.3999938964844,347.70001220703125,321.3999938964844C332.5,323.20001220703125,314.6000061035156,324.20001220703125,294.70001220703125,324.20001220703125z"/>
<path id="Boat0" fill="#FFC55F" d="M127.0999984741211,154.1999969482422L35.29999923706055,220.3000030517578L106.5,234.89999389648438L127.30000305175781,215.1999969482422L127.0999984741211,154.1999969482422z"/>
<path id="Boat1" fill="#FFD788" d="M574,189.10000610351562C573.5999755859375,182.3000030517578,572.5,181.8000030517578,572.5,172.8000030517578C487,184.8000030517578,178.6999969482422,154.3000030517578,125.9000015258789,148.89999389648438L125.9000015258789,216.6999969482422C125.9000015258789,216.6999969482422,359.29998779296875,240.1999969482422,435.70001220703125,233.8000030517578C507.3999938964844,227.3000030517578,561.2000122070312,200.5,561.2000122070312,199.6999969482422C565.5,196.1999969482422,569.7000122070312,192.8000030517578,574,189.10000610351562z"/>
<path id="Seat" fill="#FF911A" d="M179.89999389648438,246.60000610351562L233.3000030517578,201.5L328.1000061035156,207.89999389648438L283,255.8000030517578L179.89999389648438,246.60000610351562z"/>
<path id="Bands" opacity="0.5" enable-background="new    " d="M35,259.5C37,259.8999938964844,239.5,301,347.5,287.5C440.20001220703125,274.6000061035156,507.1000061035156,250.8000030517578,539.0999755859375,220.3000030517578L546.7999877929688,215C517.4000244140625,249,447.3999938964844,275.6000061035156,347.70001220703125,289.5C332.3999938964844,291.3999938964844,315.20001220703125,292.20001220703125,297.1000061035156,292.20001220703125C191.39999389648438,292.20001220703125,49.599998474121094,264.5,35.70000076293945,261.70001220703125L35,259.5zM40.400001525878906,274.8999938964844C53.400001525878906,277.5,190.6999969482422,304,295.5,304C314.20001220703125,304,331.8999938964844,303.20001220703125,347.70001220703125,301.20001220703125C413,292.1000061035156,467,276.70001220703125,503.79998779296875,256.8999938964844C530.2000122070312,242.60000610351562,547.7999877929688,226.39999389648438,556.2000122070312,208.3000030517578L552.5999755859375,211C543.7999877929688,227.1999969482422,527.0999755859375,242,502.79998779296875,255.10000610351562C466.20001220703125,274.8999938964844,412.3999938964844,290.1000061035156,347.3999938964844,299.20001220703125C239.39999389648438,312.70001220703125,41.400001525878906,273.29998779296875,39.400001525878906,272.8999938964844L40.400001525878906,274.8999938964844zM43.599998474121094,285.70001220703125C56.29999923706055,288.20001220703125,191.10000610351562,314.5,295.20001220703125,314.5C314,314.5,331.79998779296875,313.6000061035156,347.79998779296875,311.70001220703125C412.6000061035156,302.70001220703125,466.5,286.79998779296875,503.8999938964844,265.79998779296875C534.7000122070312,248.5,553.7999877929688,228,560,205.6999969482422L557.4000244140625,207.5C550.7000122070312,228.3000030517578,532.2000122070312,247.60000610351562,503,264C465.79998779296875,284.8999938964844,412.1000061035156,300.70001220703125,347.6000061035156,309.70001220703125C239.60000610351562,323.20001220703125,45.20000076293945,284.1000061035156,43.29999923706055,283.70001220703125L43.599998474121094,285.70001220703125z"/>
<path id="InnerBoat" fill="#FFAA45" d="M307.8999938964844,231.39999389648438C358.79998779296875,234.39999389648438,407.79998779296875,236.10000610351562,435.70001220703125,233.8000030517578C447.70001220703125,232.6999969482422,459.20001220703125,231.10000610351562,470.1000061035156,229C440,239.10000610351562,411.29998779296875,244.3000030517578,385.1000061035156,249.3000030517578C355.20001220703125,254.39999389648438,320.8999938964844,255.8000030517578,285.70001220703125,255L283.5,257.29998779296875L176.5,247.6999969482422L177.89999389648438,246.5C151.39999389648438,243.1999969482422,126.5,239.39999389648438,105.0999984741211,235.8000030517578L125.9000015258789,216.60000610351562C125.9000015258789,216.60000610351562,159.1999969482422,220,204.8000030517578,223.8000030517578L232.89999389648438,200.10000610351562L331.1000061035156,206.8000030517578L307.8999938964844,231.39999389648438L307.8999938964844,231.39999389648438zM183.39999389648438,245.5L282.5,254.39999389648438L325.1000061035156,209.1999969482422L233.8000030517578,203L183.39999389648438,245.5z"/>
<path id="SeatBorder" d="M204.8000030517578,223.8000030517578L232.89999389648438,200.10000610351562L331.1000061035156,206.8000030517578L307.8999938964844,231.39999389648438L307.8999938964844,231.39999389648438L285.70001220703125,254.89999389648438L283.5,257.20001220703125L176.5,247.60000610351562L177.89999389648438,246.39999389648438L204.8000030517578,223.8000030517578zM183.39999389648438,245.5L282.5,254.39999389648438L325.1000061035156,209.1999969482422L233.8000030517578,203L183.39999389648438,245.5z"/>
<path id="FullBoatBorder" d="M32.400001525878906,249.6999969482422L28.200000762939453,248.8000030517578L43.20000076293945,295.1000061035156L43.900001525878906,297.1000061035156L46,297.5C47.400001525878906,297.79998779296875,186.8000030517578,326.29998779296875,294.70001220703125,326.29998779296875C314.70001220703125,326.29998779296875,332.6000061035156,325.29998779296875,348.1000061035156,323.3999938964844L348.1000061035156,323.3999938964844L348.1000061035156,323.3999938964844C412.79998779296875,314.3999938964844,466.8999938964844,298.5,504.5,277.5C542.7000122070312,256.20001220703125,563.5,230.1999969482422,564.7000122070312,201.60000610351562L560.7999877929688,204.6999969482422C555,259.5,473.5,302.1000061035156,347.6000061035156,319.70001220703125C331.5,321.70001220703125,313.5,322.6000061035156,294.70001220703125,322.6000061035156C185.89999389648438,322.6000061035156,46.70000076293945,293.8999938964844,46.70000076293945,293.8999938964844L32.400001525878906,249.6999969482422zM465.3999938964844,229.8000030517578C455.8999938964844,231.39999389648438,446,232.8000030517578,435.70001220703125,233.6999969482422C426.5,234.5,415,234.8000030517578,402,234.8000030517578C375.3999938964844,234.8000030517578,342.1000061035156,233.39999389648438,307.8999938964844,231.3000030517578L310.6000061035156,228.39999389648438C343.8999938964844,230.39999389648438,376.20001220703125,231.6999969482422,402,231.6999969482422C415.5,231.6999969482422,426.79998779296875,231.3000030517578,435.5,230.60000610351562C450.1000061035156,229.3000030517578,464,227.10000610351562,476.79998779296875,224.5L465.3999938964844,229.8000030517578zM128.89999389648438,154.39999389648438L128.89999389648438,213.89999389648438C137.89999389648438,214.8000030517578,168.6999969482422,217.8000030517578,208,221.10000610351562L204.6999969482422,223.89999389648438C165.6999969482422,220.60000610351562,135.6999969482422,217.6999969482422,127.80000305175781,216.89999389648438L127.9000015258789,216.8000030517578L105,237.89999389648438L103,235.6999969482422L126.0999984741211,214.5L126,214.60000610351562L126,154.3000030517578L128.89999389648438,154.39999389648438z"/>
<path id="Boat" fill="#EA4021" d="M575,189C574.7999877929688,186.1999969482422,574.5,184.5,574.2999877929688,182.8000030517578C573.9000244140625,180.39999389648438,573.5,178.10000610351562,573.5,172.8000030517578L573.5,171.6999969482422L572.4000244140625,171.89999389648438C559.4000244140625,173.6999969482422,540.2999877929688,174.6999969482422,515.5999755859375,174.6999969482422C381.79998779296875,174.6999969482422,120.9000015258789,147.5,118.30000305175781,147.1999969482422L117.9000015258789,147.1999969482422L13.699999809265137,222.8000030517578L13.300000190734863,223.10000610351562L14.600000381469727,242.5L15.300000190734863,242.6999969482422C16.899999618530273,243.10000610351562,175.1999969482422,280.70001220703125,304.1000061035156,280.70001220703125C332.79998779296875,280.70001220703125,358.20001220703125,278.79998779296875,379.79998779296875,275.20001220703125C430.8999938964844,265.5,501,252.3000030517578,574.7999877929688,189.89999389648438L575.2000122070312,189.60000610351562L575,189zM557.5,182C531.9000244140625,201.10000610351562,504.3999938964844,215.6999969482422,473.5,226.5C443.6000061035156,236.89999389648438,414.6000061035156,242.39999389648438,389,247.3000030517578L384.8999938964844,248.10000610351562C361.8999938964844,252,334.8999938964844,254,304.3999938964844,254C192.8000030517578,254,62.599998474121094,227.10000610351562,37.70000076293945,221.6999969482422L34.400001525878906,221L126.30000305175781,154.10000610351562L126.9000015258789,154.1999969482422C151.6999969482422,157,372.5,182,499.3999938964844,182C523,182,542.2999877929688,181.10000610351562,556.5,179.39999389648438L562.0999755859375,178.6999969482422L557.5,182z"/>
<path id="Pants" fill="#38B295" d="M348.29998779296875,239.5C352.70001220703125,231.39999389648438,354.5,211.8000030517578,349.5,200.5C344.5,189.3000030517578,324.6000061035156,190.5,314,188.6999969482422C314,188.6999969482422,215.1999969482422,212.39999389648438,215.89999389648438,225.5C216.5,238.60000610351562,255.8000030517578,238,262.29998779296875,238C268.79998779296875,238,282.1000061035156,236.89999389648438,289,242.60000610351562C293.20001220703125,246.10000610351562,295.1000061035156,248.10000610351562,294.6000061035156,251.6999969482422C309.20001220703125,251.89999389648438,323.70001220703125,251.6999969482422,337.6000061035156,251C342.8999938964844,246.60000610351562,345.79998779296875,244.1999969482422,348.29998779296875,239.5z"/>
<path id="PantsBorder" d="M351,199.89999389648438C346.70001220703125,190.3000030517578,333.20001220703125,189.10000610351562,322.3999938964844,188.10000610351562C319.3999938964844,187.8000030517578,316.6000061035156,187.60000610351562,314.29998779296875,187.1999969482422L314,187.10000610351562L313.70001220703125,187.1999969482422C313.5,187.3000030517578,288.70001220703125,193.1999969482422,264.29998779296875,200.6999969482422C213.89999389648438,216.1999969482422,214.1999969482422,223,214.3000030517578,225.60000610351562C214.6999969482422,234.89999389648438,230.10000610351562,239.60000610351562,260,239.60000610351562L262.3999938964844,239.60000610351562C263.20001220703125,239.60000610351562,264.20001220703125,239.60000610351562,265.20001220703125,239.60000610351562C266.3999938964844,239.60000610351562,267.70001220703125,239.60000610351562,269.1000061035156,239.60000610351562C275,239.60000610351562,283.3999938964844,240,288.1000061035156,243.89999389648438C292.5,247.5,293.5,249,293.20001220703125,251.60000610351562L293,253.39999389648438L294.79998779296875,253.39999389648438C298.6000061035156,253.5,302.5,253.5,306.20001220703125,253.5L306.20001220703125,253.5C317.20001220703125,253.5,327.8999938964844,253.1999969482422,337.8999938964844,252.6999969482422L338.5,252.60000610351562L338.8999938964844,252.3000030517578C344.1000061035156,247.89999389648438,347.29998779296875,245.3000030517578,349.8999938964844,240.39999389648438C354.5,231.39999389648438,356.1000061035156,211.39999389648438,351,199.89999389648438zM335.70001220703125,249.39999389648438C336.29998779296875,245.89999389648438,337.6000061035156,237.5,338.1000061035156,225.5C338.70001220703125,209,324.70001220703125,207.10000610351562,315.5,205.89999389648438L314.5,205.8000030517578C313.8999938964844,205.6999969482422,313.5,206.10000610351562,313.3999938964844,206.6999969482422C313.29998779296875,207.3000030517578,313.70001220703125,207.8000030517578,314.29998779296875,207.8000030517578L315.29998779296875,207.89999389648438C324.8999938964844,209.1999969482422,336.70001220703125,210.6999969482422,336.20001220703125,225.39999389648438C335.70001220703125,237.89999389648438,334.3999938964844,246.3000030517578,333.79998779296875,249.39999389648438L333.79998779296875,249.39999389648438C324.8999938964844,249.8000030517578,315.70001220703125,250,306.1000061035156,250C302.8999938964844,250,299.70001220703125,250,296.3999938964844,249.89999389648438C296.20001220703125,247.39999389648438,295,245.5,293,243.6999969482422L296.8999938964844,243.8000030517578L296.8999938964844,243.8000030517578C297.3999938964844,243.8000030517578,297.8999938964844,243.39999389648438,297.8999938964844,242.8000030517578C297.8999938964844,242.1999969482422,297.5,241.8000030517578,296.8999938964844,241.8000030517578L291.5,241.60000610351562L292.3999938964844,234.1999969482422C292.5,233.6999969482422,292.1000061035156,233.1999969482422,291.5,233.10000610351562C290.8999938964844,233,290.5,233.39999389648438,290.3999938964844,234L289.6000061035156,240.8000030517578C283.1000061035156,235.8000030517578,272.20001220703125,236.10000610351562,265.1000061035156,236.1999969482422C264.1000061035156,236.1999969482422,263.20001220703125,236.1999969482422,262.3999938964844,236.1999969482422L260,236.1999969482422C233.39999389648438,236.1999969482422,217.89999389648438,232.1999969482422,217.60000610351562,225.3000030517578C217.5,223.6999969482422,220.6999969482422,217.3000030517578,265.29998779296875,203.60000610351562C288.1000061035156,196.60000610351562,311.20001220703125,191,314.20001220703125,190.1999969482422C316.6000061035156,190.60000610351562,319.29998779296875,190.8000030517578,322.20001220703125,191.10000610351562C332.20001220703125,192,344.70001220703125,193.1999969482422,348.20001220703125,201C353.20001220703125,212.1999969482422,350.8999938964844,231.1999969482422,347,238.5C344.70001220703125,242.6999969482422,342,245,337.1000061035156,249.10000610351562C336.5,249.39999389648438,336.1000061035156,249.39999389648438,335.70001220703125,249.39999389648438L335.70001220703125,249.39999389648438L335.70001220703125,249.39999389648438L335.70001220703125,249.39999389648438z"/>
<path id="BoatBorder" d="M117.0999984741211,143.89999389648438L115.9000015258789,144.8000030517578L11.899999618530273,220.39999389648438L10.100000381469727,221.6999969482422L10.199999809265137,223.89999389648438L11.399999618530273,242.10000610351562L11.600000381469727,245L14.5,245.6999969482422C14.899999618530273,245.8000030517578,54.79999923706055,255.3000030517578,110.19999694824219,264.70001220703125C161.3000030517578,273.3999938964844,236.39999389648438,283.70001220703125,304,283.70001220703125C332.79998779296875,283.70001220703125,358.5,281.79998779296875,380.20001220703125,278.1000061035156L380.20001220703125,278.1000061035156L380.20001220703125,278.1000061035156C410.5,272.3999938964844,440.29998779296875,266.20001220703125,472.29998779296875,254.10000610351562C510,239.8000030517578,544.0999755859375,219.5,576.5,192.10000610351562L578,190.8000030517578L577.9000244140625,188.8000030517578C577.7000122070312,185.89999389648438,577.4000244140625,184,577.0999755859375,182.3000030517578C576.7000122070312,179.89999389648438,576.4000244140625,177.8000030517578,576.4000244140625,172.8000030517578L576.4000244140625,168.1999969482422L571.7999877929688,168.8000030517578C558.9000244140625,170.60000610351562,539.9000244140625,171.5,515.4000244140625,171.5C381.79998779296875,171.5,121,144.3000030517578,118.4000015258789,144L117.0999984741211,143.89999389648438L117.0999984741211,143.89999389648438zM126.69999694824219,155.60000610351562C144.3000030517578,157.60000610351562,371.3999938964844,183.39999389648438,499.29998779296875,183.39999389648438C523.0999755859375,183.39999389648438,542.2999877929688,182.5,556.5999755859375,180.8000030517578C531.0999755859375,199.8000030517578,503.70001220703125,214.39999389648438,473,225.10000610351562C443.20001220703125,235.5,414.29998779296875,241,388.70001220703125,245.8000030517578L384.6000061035156,246.60000610351562C361.70001220703125,250.5,334.70001220703125,252.5,304.29998779296875,252.5C193.8000030517578,252.5,66.5999984741211,226.5,37.900001525878906,220.3000030517578L126.69999694824219,155.60000610351562M14.5,225.1999969482422C20.5,226.60000610351562,76.5,239.3000030517578,146.60000610351562,249.3000030517578C191.8000030517578,255.8000030517578,249.10000610351562,261.8999938964844,302.79998779296875,261.8999938964844C330.1000061035156,261.8999938964844,356.5,260.29998779296875,379.79998779296875,256.29998779296875L382.8999938964844,255.6999969482422C439.6000061035156,245,503.8999938964844,232.8000030517578,572.5999755859375,174.6999969482422C572.7000122070312,181.8000030517578,573.7000122070312,182.8000030517578,574.0999755859375,189.10000610351562C502.5,249.6999969482422,435.79998779296875,263.6000061035156,379.6000061035156,274.20001220703125C356.70001220703125,278.1000061035156,331,279.70001220703125,304.1000061035156,279.70001220703125C173.8000030517578,279.70001220703125,15.5,241.8000030517578,15.5,241.8000030517578L14.5,225.1999969482422L14.5,225.1999969482422zM539.5999755859375,195.89999389648438C483.1000061035156,233.8000030517578,430.1000061035156,243.8000030517578,382.29998779296875,252.8000030517578L379.29998779296875,253.39999389648438C252.6999969482422,275,35.29999923706055,226.8000030517578,16,222.5L15.899999618530273,222.5L118.19999694824219,148.10000610351562C118.19999694824219,148.10000610351562,380.29998779296875,175.60000610351562,515.5999755859375,175.60000610351562C537.5,175.60000610351562,556.0999755859375,174.89999389648438,569.7999877929688,173.1999969482422C568.4000244140625,174.39999389648438,567,175.60000610351562,565.5999755859375,176.6999969482422L565.5999755859375,176.6999969482422C550,179.60000610351562,526.9000244140625,180.6999969482422,499.3999938964844,180.6999969482422C365.5,180.6999969482422,126,152.8000030517578,126,152.8000030517578L126,152.8000030517578L31.399999618530273,221.60000610351562C31.399999618530273,221.60000610351562,177.8000030517578,255.1999969482422,304.3999938964844,255.1999969482422C333,255.1999969482422,360.5,253.5,385.1000061035156,249.3000030517578C430.1000061035156,240.8000030517578,482.5,231.60000610351562,536.7999877929688,197.6999969482422L539.5999755859375,195.89999389648438z"/>
<path id="Face" fill="#FFFFFF" d="M217.10000610351562,90.5999984741211C219.39999389648438,95.19999694824219,221.39999389648438,98.5,224.60000610351562,102.0999984741211C224.60000610351562,102.0999984741211,226.5478973388672,103.79229736328125,227.0478973388672,103.99230194091797C227.5478973388672,104.19229888916016,235.70010375976562,107.6906967163086,237.4001007080078,108.39070129394531C239.10009765625,109.0906982421875,249.6479034423828,114.09230041503906,249.6479034423828,114.09230041503906L252.39999389648438,114.19999694824219C265,111.5999984741211,275.70001220703125,98.0999984741211,281.29998779296875,84.9000015258789L284,76.80000305175781C285,72.80000305175781,285.5,68.69999694824219,285.5,64.5999984741211C285.5,41.400001525878906,268.70001220703125,22.600000381469727,248,22.600000381469727C227.3000030517578,22.600000381469727,210.5,41.400001525878906,210.5,64.5999984741211C210.5,69.19999694824219,211.1999969482422,73.9000015258789,212.39999389648438,78.5999984741211L212.39999389648438,78.5999984741211C210.60000610351562,77.5,208.1999969482422,76.5999984741211,206.8000030517578,78.69999694824219C204.39999389648438,82.19999694824219,205.60000610351562,88.80000305175781,209.89999389648438,90.5C212.39999389648438,91.30000305175781,215.10000610351562,91,217.10000610351562,90.5999984741211L217.10000610351562,90.5999984741211z"/>
<path id="Jacket" fill="#FF681D" d="M311.3999938964844,121.4000015258789C300.2152099609375,94.81330108642578,286.9320983886719,92.93830108642578,277.3240051269531,92.8102035522461C271.3149108886719,103.08899688720703,262.4653015136719,112.12300109863281,252.39999389648438,114.19999694824219L252.12060546875,114.01180267333984C251.91319274902344,114.50669860839844,251.69979858398438,114.98709869384766,251.49989318847656,115.5C243.79989624023438,111.30000305175781,236.6999053955078,108.19999694824219,232.0998992919922,106.30000305175781C209.39990234375,95.4000015258789,198.39990234375,117.80000305175781,202.79989624023438,127.0999984741211C207.0998992919922,136.5,203.99989318847656,201,206.1999053955078,212.1999969482422C208.39990234375,223.39999389648438,216.49989318847656,231.60000610351562,238.5998992919922,232.8000030517578C260.69989013671875,234,277.89990234375,224.3000030517578,289.69989013671875,204.39999389648438C290.4999084472656,203,291.2998962402344,201.60000610351562,291.9999084472656,200.1999969482422L292.2998962402344,200.1999053955078C310.9999084472656,203.6999053955078,318.09991455078125,188.0998992919922,320.2998962402344,177.79989624023438S323.6000061035156,150.39999389648438,311.3999938964844,121.4000015258789z"/>
<path id="JacketBorder" d="M323.1000061035156,161.10000610351562C323,157,322.6000061035156,152.8000030517578,321.5,148.39999389648438C321.20001220703125,147.39999389648438,321.1000061035156,146.39999389648438,320.79998779296875,145.3000030517578C318.8999938964844,137.8000030517578,316.3999938964844,129.60000610351562,312.79998779296875,121C301.498291015625,94.02179718017578,287.54071044921875,91.6332015991211,278.1152038574219,91.42150115966797C277.55859375,92.4259033203125,276.9753112792969,93.4207992553711,276.3656005859375,94.40149688720703C285.4436950683594,94.43370056152344,298.50299072265625,95.35870361328125,309.70001220703125,122C318.8999938964844,143.89999389648438,321.79998779296875,162,318.5,177.5C317.1000061035156,184,312.29998779296875,199.10000610351562,297.1000061035156,199.10000610351562C296.20001220703125,199.10000610351562,295.20001220703125,199,294.20001220703125,198.89999389648438C298.79998779296875,189,300.29998779296875,179.1999969482422,298.6000061035156,169.10000610351562L298.70001220703125,169.10000610351562L301.1000061035156,168.10000610351562C301.79998779296875,168.6999969482422,302.70001220703125,169,303.70001220703125,169C305.8999938964844,169,307.70001220703125,167.1999969482422,307.70001220703125,165C307.70001220703125,162.8000030517578,305.8999938964844,161,303.70001220703125,161C301.5,161,299.70001220703125,162.8000030517578,299.70001220703125,165C299.70001220703125,165.1999969482422,299.70001220703125,165.39999389648438,299.70001220703125,165.60000610351562L298.1000061035156,166.3000030517578L298,166.3000030517578C296.79998779296875,161,294.70001220703125,155.60000610351562,291.79998779296875,150.10000610351562L294.5,149.5C295.20001220703125,150.6999969482422,296.5,151.39999389648438,297.8999938964844,151.39999389648438C300.1000061035156,151.39999389648438,301.8999938964844,149.60000610351562,301.8999938964844,147.39999389648438C301.8999938964844,145.1999969482422,300.1000061035156,143.39999389648438,297.8999938964844,143.39999389648438C295.8999938964844,143.39999389648438,294.29998779296875,144.8000030517578,294,146.6999969482422L290.70001220703125,147.6999969482422C290.20001220703125,146.89999389648438,289.70001220703125,146,289.20001220703125,145.1999969482422C281.1000061035156,132.10000610351562,265.6000061035156,121.5,253.5,114.80000305175781C253.64039611816406,114.46029663085938,253.78970336914062,114.1511001586914,253.93299865722656,113.82119750976562C253.42489624023438,113.96299743652344,252.9145965576172,114.09380340576172,252.39999389648438,114.19999694824219L250.70460510253906,113.05799865722656C250.67010498046875,113.13980102539062,250.6343994140625,113.21769714355469,250.60000610351562,113.30000305175781C242.89999389648438,109.19999694824219,236.3000030517578,106.30000305175781,232.6999969482422,104.9000015258789C228.39999389648438,102.80000305175781,224.3000030517578,101.80000305175781,220.39999389648438,101.80000305175781C213.5,101.80000305175781,207.39999389648438,105.19999694824219,203.60000610351562,111.19999694824219C200.10000610351562,116.69999694824219,199.1999969482422,123.30000305175781,201.3000030517578,127.80000305175781C203.6999969482422,132.89999389648438,203.6999969482422,158.1999969482422,203.6999969482422,178.5C203.6999969482422,194.1999969482422,203.6999969482422,207.6999969482422,204.60000610351562,212.5C207.3000030517578,226.3000030517578,218.10000610351562,233.1999969482422,238.5,234.39999389648438C239.8000030517578,234.5,241.10000610351562,234.5,242.3000030517578,234.5C263.1000061035156,234.5,279.5,224.6999969482422,291,205.1999969482422C291.6000061035156,204.1999969482422,292.20001220703125,203.10000610351562,292.79998779296875,202.10000610351562C294.29998779296875,202.3000030517578,295.79998779296875,202.39999389648438,297.20001220703125,202.5C315.20001220703125,202.5,320.6000061035156,184,321.79998779296875,178.3000030517578C322.79998779296875,173.6999969482422,323.20001220703125,168.8000030517578,323.20001220703125,163.8000030517578C323.20001220703125,162.89999389648438,323.20001220703125,162,323.1000061035156,161.10000610351562zM303.79998779296875,164C304.5,163.89999389648438,305,164.5,305,165.1999969482422C305,165.89999389648438,304.5,166.39999389648438,303.79998779296875,166.39999389648438C303.1000061035156,166.39999389648438,302.6000061035156,165.89999389648438,302.6000061035156,165.1999969482422C302.6000061035156,164.5,303.1000061035156,164,303.79998779296875,164zM298.20001220703125,146.3000030517578C298.8999938964844,146.3000030517578,299.3999938964844,146.89999389648438,299.3999938964844,147.5C299.3999938964844,148.1999969482422,298.8999938964844,148.6999969482422,298.20001220703125,148.6999969482422C297.5,148.6999969482422,297,148.1999969482422,297,147.5S297.5,146.3000030517578,298.20001220703125,146.3000030517578zM288.29998779296875,203.5C276.70001220703125,223,260,232.3000030517578,238.6999969482422,231.10000610351562C214.39999389648438,229.6999969482422,209.39999389648438,220.10000610351562,207.8000030517578,211.8000030517578C206.89999389648438,207.3000030517578,206.89999389648438,193.3000030517578,206.89999389648438,178.39999389648438C206.89999389648438,155.60000610351562,206.89999389648438,132.10000610351562,204.1999969482422,126.30000305175781C202.60000610351562,122.9000015258789,203.5,117.30000305175781,206.3000030517578,112.80000305175781C208.1999969482422,109.9000015258789,212.5,104.9000015258789,220.39999389648438,104.9000015258789C223.8000030517578,104.9000015258789,227.5,105.80000305175781,231.39999389648438,107.69999694824219C241.10000610351562,111.5999984741211,273.70001220703125,126.0999984741211,286.3999938964844,146.8000030517578C286.70001220703125,147.3000030517578,287,147.8000030517578,287.29998779296875,148.3000030517578L284.70001220703125,148.89999389648438C284,148,282.79998779296875,147.39999389648438,281.6000061035156,147.39999389648438C279.3999938964844,147.39999389648438,277.6000061035156,149.1999969482422,277.6000061035156,151.39999389648438C277.6000061035156,153.60000610351562,279.3999938964844,155.39999389648438,281.6000061035156,155.39999389648438C283.70001220703125,155.39999389648438,285.5,153.6999969482422,285.6000061035156,151.60000610351562L288.79998779296875,150.89999389648438C292,156.6999969482422,294.1000061035156,162.1999969482422,295.29998779296875,167.6999969482422L291.70001220703125,169.1999969482422C291,168.39999389648438,289.8999938964844,167.89999389648438,288.79998779296875,167.89999389648438C286.6000061035156,167.89999389648438,284.79998779296875,169.6999969482422,284.79998779296875,171.89999389648438C284.79998779296875,174.10000610351562,286.6000061035156,175.89999389648438,288.79998779296875,175.89999389648438C291,175.89999389648438,292.79998779296875,174.10000610351562,292.79998779296875,171.89999389648438L292.79998779296875,171.8000030517578L295.79998779296875,170.5C297.5,181.60000610351562,295,192.3000030517578,288.29998779296875,203.5zM282.79998779296875,151.5C282.79998779296875,152.1999969482422,282.29998779296875,152.6999969482422,281.6000061035156,152.6999969482422C280.8999938964844,152.6999969482422,280.3999938964844,152.1999969482422,280.3999938964844,151.5C280.3999938964844,150.8000030517578,280.8999938964844,150.3000030517578,281.6000061035156,150.3000030517578C282.20001220703125,150.3000030517578,282.79998779296875,150.8000030517578,282.79998779296875,151.5zM290,171.89999389648438C290,172.60000610351562,289.5,173.10000610351562,288.79998779296875,173.10000610351562C288.1000061035156,173.10000610351562,287.6000061035156,172.60000610351562,287.6000061035156,171.89999389648438C287.6000061035156,171.1999969482422,288.1000061035156,170.6999969482422,288.79998779296875,170.6999969482422C289.3999938964844,170.6999969482422,290,171.1999969482422,290,171.89999389648438z"/>
<path id="Body" fill="#6B3D1F" d="M321.20001220703125,146.8000030517578C323.29998779296875,147.1999969482422,325.6000061035156,147.39999389648438,327.70001220703125,146.89999389648438C333,145.6999969482422,345.3999938964844,139.10000610351562,347.79998779296875,139.8000030517578C351.8999938964844,141.1999969482422,358.8999938964844,152.8000030517578,358.8999938964844,152.8000030517578C358.8999938964844,152.8000030517578,355.5,160.3000030517578,353.3999938964844,160.89999389648438C350.20001220703125,161.6999969482422,346.8999938964844,158.5,346.8999938964844,158.5C346.8999938964844,158.5,347.8999938964844,164.8000030517578,341.3999938964844,164.39999389648438C334.8999938964844,164,333.8999938964844,160.3000030517578,325.8999938964844,161.5C324.79998779296875,161.6999969482422,323.8999938964844,161.8000030517578,323.1000061035156,161.89999389648438L323,160.3000030517578L322.8999938964844,158.1999969482422L322.79998779296875,156.60000610351562L322.6000061035156,154.3000030517578L322.3999938964844,152.8000030517578L322.20001220703125,151.1999969482422L322,150.10000610351562L321.20001220703125,146.8000030517578zM231.89999389648438,187.5C231.89999389648438,187.5,238,192.60000610351562,249.1999969482422,196.5C260.3999938964844,200.39999389648438,276.70001220703125,203,282.3999938964844,203C288.1000061035156,203,294.6000061035156,201.1999969482422,301,203C307.29998779296875,204.8000030517578,304.6000061035156,208.8000030517578,302.5,210.1999969482422C304.29998779296875,213.3000030517578,312,211.60000610351562,313.1000061035156,211.39999389648438C317.79998779296875,210.39999389648438,325.20001220703125,200.39999389648438,325.5,197.8000030517578C325.70001220703125,195.1999969482422,323,187.3000030517578,316.79998779296875,185.8000030517578C310.6000061035156,184.3000030517578,295.8999938964844,187.5,294.70001220703125,187.3000030517578C293.5,187.10000610351562,287.79998779296875,186.3000030517578,273.70001220703125,180.8000030517578C259.6000061035156,175.3000030517578,249.39999389648438,169.8000030517578,249.39999389648438,169.8000030517578L231.89999389648438,187.5z"/>
<path id="BodyBorder" d="M219.5,91.5999984741211C221.6999969482422,95.69999694824219,224.4958038330078,99.89080047607422,227.4958038330078,103.0907974243164C225.69580078125,102.5907974243164,223.9958038330078,102.29080200195312,222.19580078125,102.0907974243164C219.8957977294922,99.19080352783203,217.8000030517578,95.80000305175781,216.10000610351562,92.4000015258789L216.10000610351562,92.4000015258789C215.3000030517578,92.5,214.39999389648438,92.5999984741211,213.39999389648438,92.5999984741211C212.10000610351562,92.5999984741211,210.6999969482422,92.4000015258789,209.39999389648438,91.9000015258789C207.1999969482422,91,205.5,89.0999984741211,204.60000610351562,86.4000015258789C203.60000610351562,83.30000305175781,204,80,205.5,77.69999694824219C206.3000030517578,76.5999984741211,207.3000030517578,75.9000015258789,208.60000610351562,75.80000305175781C209.10000610351562,75.69999694824219,209.60000610351562,75.80000305175781,210.10000610351562,75.9000015258789L210.10000610351562,75.9000015258789C209.3000030517578,72.0999984741211,208.89999389648438,68.30000305175781,208.89999389648438,64.5999984741211C208.89999389648438,40.5,226.39999389648438,20.899999618530273,248,20.899999618530273C269.5,20.899999618530273,287.1000061035156,40.5,287.1000061035156,64.5999984741211C287.1000061035156,68.80000305175781,286.6000061035156,73,285.5,77.19999694824219L285.5,77.30000305175781L282.79998779296875,85.4000015258789L282.79998779296875,85.5C277.6000061035156,97.69999694824219,265.3999938964844,111.69999694824219,252.5,115.30000305175781C251,114.4000015258789,249.5,113.5999984741211,248,112.80000305175781C260.6000061035156,111.5999984741211,274,97.80000305175781,279.79998779296875,84.19999694824219L282.5,76.19999694824219C283.5,72.30000305175781,284,68.30000305175781,284,64.4000015258789C284,42.099998474121094,267.8999938964844,24,248.1999969482422,24C228.5,24,212.39999389648438,42.099998474121094,212.39999389648438,64.4000015258789C212.39999389648438,68.5999984741211,213,73,214.10000610351562,77.4000015258789L214.10000610351562,77.4000015258789C215.10000610351562,78.0999984741211,215.6999969482422,78.69999694824219,215.89999389648438,78.80000305175781C216.5,79.4000015258789,216.60000610351562,80.4000015258789,216,81.0999984741211C215.39999389648438,81.69999694824219,214.39999389648438,81.80000305175781,213.6999969482422,81.19999694824219C212.60000610351562,80.0999984741211,210.5,78.69999694824219,209.3000030517578,78.9000015258789C209.10000610351562,78.9000015258789,208.8000030517578,79,208.5,79.4000015258789C207.5,80.9000015258789,207.3000030517578,83.30000305175781,208,85.30000305175781C208.3000030517578,86.30000305175781,209.10000610351562,88,210.8000030517578,88.69999694824219C213.8000030517578,89.9000015258789,218.10000610351562,88.5999984741211,219.5,88C220.3000030517578,87.5999984741211,221.3000030517578,88,221.60000610351562,88.9000015258789C222,89.69999694824219,221.60000610351562,90.69999694824219,220.6999969482422,91C220.60000610351562,91.19999694824219,220.1999969482422,91.4000015258789,219.5,91.5999984741211L219.5,91.5999984741211zM360.3999938964844,152C359.20001220703125,150,352.8999938964844,139.89999389648438,348.3999938964844,138.3000030517578C348.1000061035156,138.1999969482422,347.79998779296875,138.1999969482422,347.3999938964844,138.1999969482422C345.3999938964844,138.1999969482422,342,139.60000610351562,336.6000061035156,141.89999389648438C333.1000061035156,143.39999389648438,329.6000061035156,144.89999389648438,327.3999938964844,145.39999389648438C326.70001220703125,145.60000610351562,325.8999938964844,145.60000610351562,325,145.60000610351562C323.6000061035156,145.60000610351562,322.1000061035156,145.39999389648438,320.79998779296875,145.10000610351562C321.1000061035156,146.3000030517578,321.29998779296875,147.39999389648438,321.5,148.60000610351562C322.6000061035156,148.8000030517578,323.79998779296875,148.89999389648438,325,148.89999389648438C326.1000061035156,148.89999389648438,327.1000061035156,148.8000030517578,328.1000061035156,148.60000610351562C330.5,148,334.20001220703125,146.5,337.79998779296875,144.89999389648438C341.3999938964844,143.39999389648438,345.8999938964844,141.5,347.3999938964844,141.5C349.8999938964844,142.39999389648438,354.5,148.6999969482422,357.1000061035156,153C355.6000061035156,156.1999969482422,353.70001220703125,159.10000610351562,352.8999938964844,159.5C352.70001220703125,159.5,352.5,159.60000610351562,352.3999938964844,159.60000610351562C350.6000061035156,159.60000610351562,348.6000061035156,158.10000610351562,348,157.5L345.29998779296875,158.89999389648438C345.3999938964844,159.5,345.3999938964844,161.10000610351562,344.6000061035156,162C344,162.6999969482422,343,163,341.5,162.89999389648438C339.1000061035156,162.6999969482422,337.5,162.10000610351562,335.79998779296875,161.39999389648438C333.8999938964844,160.60000610351562,331.8999938964844,159.8000030517578,328.8999938964844,159.8000030517578C327.8999938964844,159.8000030517578,326.79998779296875,159.89999389648438,325.70001220703125,160.10000610351562L323.1000061035156,160.5C323.20001220703125,161.60000610351562,323.20001220703125,162.6999969482422,323.20001220703125,163.8000030517578L326.20001220703125,163.3000030517578C327.20001220703125,163.10000610351562,328.1000061035156,163.10000610351562,329,163.10000610351562C331.3999938964844,163.10000610351562,332.8999938964844,163.6999969482422,334.70001220703125,164.5C336.3999938964844,165.1999969482422,338.3999938964844,166.10000610351562,341.3999938964844,166.1999969482422C341.6000061035156,166.1999969482422,341.8999938964844,166.1999969482422,342.1000061035156,166.1999969482422L342.1000061035156,166.1999969482422C344.79998779296875,166.1999969482422,346.3999938964844,165.10000610351562,347.20001220703125,164.10000610351562C347.8999938964844,163.3000030517578,348.20001220703125,162.5,348.5,161.60000610351562C349.6000061035156,162.1999969482422,351.1000061035156,162.8000030517578,352.6000061035156,162.8000030517578C353.1000061035156,162.8000030517578,353.6000061035156,162.6999969482422,354,162.60000610351562L354.1000061035156,162.60000610351562C356.6000061035156,161.8000030517578,359.5,156,360.6000061035156,153.60000610351562L360.3999938964844,152zM322.6000061035156,200.3000030517578C322,196.89999389648438,319.6000061035156,193.60000610351562,319.5,193.39999389648438C319.20001220703125,193,318.5,192.89999389648438,318.1000061035156,193.1999969482422C317.70001220703125,193.5,317.6000061035156,194.1999969482422,317.8999938964844,194.60000610351562C319,196.10000610351562,321.6000061035156,200.5,320.5,203.3000030517578L320.5,203.3000030517578C320.1000061035156,203.89999389648438,319.6000061035156,204.39999389648438,319.1000061035156,205L319.1000061035156,205C318.3999938964844,201.60000610351562,316,198.3000030517578,315.6000061035156,197.8000030517578C315.29998779296875,197.39999389648438,314.6000061035156,197.3000030517578,314.20001220703125,197.60000610351562C313.79998779296875,197.89999389648438,313.70001220703125,198.5,314,199C315,200.39999389648438,317.29998779296875,204.1999969482422,317.29998779296875,206.89999389648438L317.29998779296875,206.89999389648438C316.5,207.6999969482422,315.70001220703125,208.3000030517578,315,208.89999389648438L315,208.89999389648438C314.70001220703125,205.60000610351562,311.5,202.10000610351562,311.3999938964844,201.89999389648438C311,201.5,310.3999938964844,201.5,310,201.8000030517578C309.6000061035156,202.10000610351562,309.6000061035156,202.8000030517578,309.8999938964844,203.1999969482422C310.70001220703125,204.10000610351562,312.8999938964844,207,313,209.1999969482422C313,209.39999389648438,313.1000061035156,209.60000610351562,313.20001220703125,209.6999969482422L313.20001220703125,209.6999969482422C313.1000061035156,209.6999969482422,313,209.8000030517578,312.8999938964844,209.8000030517578C312.79998779296875,209.8000030517578,312.6000061035156,209.8000030517578,312.3999938964844,209.89999389648438C311.3999938964844,210.10000610351562,309.5,210.39999389648438,307.5,210.39999389648438C306.5,210.39999389648438,305.6000061035156,210.3000030517578,305,210.10000610351562C306,208.89999389648438,306.70001220703125,207.39999389648438,306.5,205.8000030517578C306.29998779296875,204.39999389648438,305.20001220703125,202.5,301.3999938964844,201.39999389648438C299.3999938964844,200.8000030517578,297.1000061035156,200.5,294.6000061035156,200.5C292.29998779296875,200.5,290.1000061035156,200.6999969482422,288,200.89999389648438C286,201.10000610351562,284.20001220703125,201.3000030517578,282.3999938964844,201.3000030517578C276.70001220703125,201.3000030517578,260.5,198.60000610351562,249.6999969482422,194.89999389648438C244.39999389648438,193.10000610351562,240.3000030517578,191,237.39999389648438,189.3000030517578L235.3000030517578,191.8000030517578C238.3000030517578,193.60000610351562,242.8000030517578,195.89999389648438,248.60000610351562,198C260.1000061035156,202,276.5,204.60000610351562,282.3999938964844,204.60000610351562C284.29998779296875,204.60000610351562,286.29998779296875,204.39999389648438,288.29998779296875,204.1999969482422C290.3999938964844,204,292.5,203.8000030517578,294.6000061035156,203.8000030517578C296.79998779296875,203.8000030517578,298.79998779296875,204,300.5,204.60000610351562C302.1000061035156,205.10000610351562,303.20001220703125,205.6999969482422,303.29998779296875,206.39999389648438C303.3999938964844,207.1999969482422,302.5,208.3000030517578,301.6000061035156,208.89999389648438L300.29998779296875,209.8000030517578L301.1000061035156,211.10000610351562C302.1000061035156,212.8000030517578,304.29998779296875,213.6999969482422,307.5,213.6999969482422C309.70001220703125,213.6999969482422,311.8999938964844,213.3000030517578,312.8999938964844,213.10000610351562C313.1000061035156,213.10000610351562,313.20001220703125,213,313.29998779296875,213L313.3999938964844,213C318.8999938964844,211.8000030517578,326.79998779296875,201.1999969482422,327,197.89999389648438C327.29998779296875,194.60000610351562,324.20001220703125,185.89999389648438,317,184.1999969482422C315.79998779296875,183.89999389648438,314.20001220703125,183.8000030517578,312.29998779296875,183.8000030517578C307.70001220703125,183.8000030517578,301.8999938964844,184.60000610351562,298.1000061035156,185.1999969482422C296.6000061035156,185.39999389648438,295.1000061035156,185.60000610351562,294.70001220703125,185.60000610351562L294.6000061035156,185.60000610351562C288.70001220703125,184.60000610351562,280.20001220703125,181.60000610351562,274.1000061035156,179.1999969482422C265,175.60000610351562,257.5,172.10000610351562,253.39999389648438,170L251.3000030517578,172.60000610351562C255.3000030517578,174.60000610351562,263.20001220703125,178.5,273,182.3000030517578C282.1000061035156,185.89999389648438,289.29998779296875,188.10000610351562,294.20001220703125,188.89999389648438L294.29998779296875,188.89999389648438C294.79998779296875,189,295.79998779296875,188.89999389648438,298.70001220703125,188.39999389648438C302.3999938964844,187.89999389648438,308,187,312.3999938964844,187C314,187,315.3999938964844,187.10000610351562,316.29998779296875,187.3000030517578C321.5,188.5,323.8999938964844,195.5,323.79998779296875,197.5C323.8999938964844,198.10000610351562,323.3999938964844,199.10000610351562,322.6000061035156,200.3000030517578"/>
<path id="Oars" fill="#FDBB2B" d="M343.6000061035156,148C346.29998779296875,147.6999969482422,356.8999938964844,146.89999389648438,356.8999938964844,146.89999389648438L356.8999938964844,146.89999389648438C359.6000061035156,146.89999389648438,361.8999938964844,149,362.1000061035156,151.8000030517578C362.29998779296875,154.5,360.29998779296875,156.89999389648438,357.6000061035156,157.3000030517578L357.6000061035156,157.3000030517578L345.6000061035156,158.39999389648438C345.5,158.3000030517578,339.1000061035156,153.10000610351562,343.6000061035156,148zM298.29998779296875,203.6999969482422C295.6000061035156,203.6999969482422,292.8999938964844,203.5,290.6000061035156,204C288.1000061035156,204.5,286.20001220703125,204.39999389648438,286.20001220703125,204.39999389648438L50.400001525878906,322.3999938964844C55.79999923706055,323.70001220703125,62.20000076293945,324.5,69.0999984741211,324.70001220703125L302.79998779296875,207.6999969482422C302.79998779296875,207.6999969482422,304.3999938964844,205.8000030517578,301.8999938964844,205C300.70001220703125,204.60000610351562,298.29998779296875,203.6999969482422,298.29998779296875,203.6999969482422zM340.8999938964844,182.8000030517578C339.70001220703125,180.3000030517578,336.79998779296875,179.3000030517578,334.29998779296875,180.3000030517578L334.29998779296875,180.3000030517578L321.70001220703125,186.60000610351562C324.8999938964844,189,326.5,193.10000610351562,327,195.60000610351562L339,189.60000610351562L339,189.60000610351562C341.20001220703125,188.3000030517578,342.1000061035156,185.3000030517578,340.8999938964844,182.8000030517578z"/>
<path id="OarsBorder" d="M327.20001220703125,197.39999389648438L339.70001220703125,191.1999969482422L341.1000061035156,190.5L341,190.3000030517578C343.20001220703125,188.3000030517578,343.79998779296875,185,342.5,182.1999969482422C341.29998779296875,179.89999389648438,339,178.39999389648438,336.3999938964844,178.39999389648438C336,178.39999389648438,335.6000061035156,178.39999389648438,335.20001220703125,178.5L320.3999938964844,185.60000610351562L323.1000061035156,187.89999389648438L334.79998779296875,182L335,181.89999389648438C335.3999938964844,181.6999969482422,335.8999938964844,181.60000610351562,336.3999938964844,181.60000610351562C337.79998779296875,181.60000610351562,339,182.39999389648438,339.6000061035156,183.60000610351562C340.3999938964844,185.3000030517578,339.79998779296875,187.3000030517578,338.20001220703125,188.3000030517578L338,188.39999389648438L326.6000061035156,194.10000610351562L327.20001220703125,197.39999389648438zM303,205.8000030517578C303.20001220703125,206,303.29998779296875,206.1999969482422,303.29998779296875,206.3000030517578C303.3999938964844,207.10000610351562,302.5,208.1999969482422,301.6000061035156,208.8000030517578L300.29998779296875,209.6999969482422L300.79998779296875,210.5L69.4000015258789,326.3999938964844L69,326.3999938964844C62.20000076293945,326.20001220703125,55.599998474121094,325.3999938964844,50,324L45.70000076293945,323L282.20001220703125,204.60000610351562C282.29998779296875,204.60000610351562,282.3999938964844,204.60000610351562,282.5,204.60000610351562C284.3999938964844,204.60000610351562,286.3999938964844,204.39999389648438,288.3999938964844,204.1999969482422C289,204.10000610351562,289.5,204.10000610351562,290.1000061035156,204C290.29998779296875,204,290.3999938964844,204,290.6000061035156,204L290.6000061035156,204L55.29999923706055,321.79998779296875C59.5,322.5,64,323,68.69999694824219,323.1000061035156L303,205.8000030517578L303,205.8000030517578zM345,160L344.5,159.60000610351562C344.29998779296875,159.5,340.70001220703125,156.60000610351562,340.3999938964844,152.60000610351562C340.20001220703125,150.60000610351562,340.8999938964844,148.6999969482422,342.29998779296875,147L342.70001220703125,146.5L343.29998779296875,146.39999389648438C346,146.10000610351562,356.20001220703125,145.3000030517578,356.70001220703125,145.3000030517578L358.29998779296875,145.5C361.20001220703125,146.10000610351562,363.3999938964844,148.6999969482422,363.70001220703125,151.6999969482422C363.8999938964844,154.8000030517578,362,157.5,359.20001220703125,158.60000610351562L357.70001220703125,159L345,160zM344.3999938964844,149.5C343.79998779296875,150.39999389648438,343.5,151.3000030517578,343.6000061035156,152.1999969482422C343.79998779296875,154.10000610351562,345.29998779296875,155.8000030517578,346.1000061035156,156.60000610351562L357.29998779296875,155.60000610351562C359.20001220703125,155.3000030517578,360.5,153.6999969482422,360.3999938964844,151.8000030517578C360.29998779296875,149.89999389648438,358.70001220703125,148.5,356.8999938964844,148.5L356.70001220703125,148.5C355.1000061035156,148.60000610351562,347.5,149.1999969482422,344.3999938964844,149.5z"/>
<path id="Hair" fill="#231F20" d="M233.60000610351562,63.20000076293945L239.10000610351562,62.900001525878906L234,65.0999984741211C232.89999389648438,65.5999984741211,231.89999389648438,66,230.89999389648438,66.5C229.60000610351562,67,228.6999969482422,68.9000015258789,227.5,71.0999984741211C226.1999969482422,73.5999984741211,224.6999969482422,76.80000305175781,222.3000030517578,78.5999984741211L220.8000030517578,79.69999694824219L220.6999969482422,77.80000305175781C220.60000610351562,76.5999984741211,220.5,75.19999694824219,220,74.69999694824219C219.60000610351562,74.30000305175781,219.10000610351562,74.4000015258789,218.6999969482422,74.80000305175781C214.60000610351562,79.5,214.1999969482422,86.5999984741211,214.3000030517578,92.4000015258789L214.39999389648438,96.0999984741211L212.5,93.19999694824219C208.89999389648438,87.80000305175781,207.39999389648438,79.5999984741211,207.6999969482422,68.0999984741211L207.6999969482422,67.80000305175781L207.89999389648438,67.5C209.89999389648438,64.5999984741211,226.5,63.599998474121094,233.60000610351562,63.20000076293945zM288,88C287,85.9000015258789,286.29998779296875,83,285.8999938964844,79.30000305175781L285.5,77.2927017211914L285.5,77.30000305175781L282.79998779296875,85.4000015258789L282.79998779296875,85.5C282.4635009765625,86.28959655761719,282.0963134765625,87.08699798583984,281.7027893066406,87.88839721679688C283.19049072265625,88.75499725341797,285.2510070800781,89.30789947509766,287,89.4000015258789L288.70001220703125,89.5L288,88z"/>
<path id="HairBorder" d="M243.3000030517578,61.099998474121094C237.89999389648438,61.20000076293945,210.8000030517578,61.70000076293945,206.60000610351562,66.19999694824219C205.89999389648438,66.9000015258789,205.8000030517578,67.69999694824219,205.8000030517578,68.19999694824219C205.10000610351562,88.5,210.6999969482422,94.5999984741211,213.39999389648438,97.5999984741211C213.60000610351562,97.80000305175781,213.8000030517578,97.9000015258789,213.89999389648438,98.0999984741211C214.1999969482422,98.4000015258789,214.60000610351562,98.5999984741211,215,98.5999984741211C215.10000610351562,98.5999984741211,215.3000030517578,98.5999984741211,215.5,98.5C216.10000610351562,98.30000305175781,216.5,97.69999694824219,216.5,97.0999984741211C216.39999389648438,96.5999984741211,216.39999389648438,96,216.39999389648438,95.30000305175781C216.1999969482422,90.80000305175781,215.89999389648438,83.5999984741211,218.6999969482422,78.5999984741211C218.6999969482422,79.19999694824219,218.6999969482422,79.9000015258789,218.6999969482422,80.5C218.6999969482422,80.9000015258789,218.89999389648438,81.4000015258789,219.3000030517578,81.69999694824219C219.6999969482422,82,220.1999969482422,82,220.6999969482422,81.9000015258789C225.3000030517578,80.4000015258789,227.6999969482422,75.69999694824219,229.39999389648438,72.19999694824219C230.10000610351562,70.80000305175781,231.1999969482422,68.69999694824219,231.6999969482422,68.5C231.6999969482422,68.4000015258789,231.8000030517578,68.4000015258789,231.8000030517578,68.4000015258789C237.89999389648438,65.4000015258789,243.60000610351562,63.90010070800781,243.6999969482422,63.90010070800781C244.39999389648438,63.80009841918945,244.89999389648438,63.100101470947266,244.8000030517578,62.30009841918945C244.6999969482422,61.5,244,61,243.3000030517578,61.099998474121094zM230.5,65.80000305175781C228.89999389648438,66.5,227.89999389648438,68.4000015258789,226.6999969482422,70.9000015258789C225.5,73.4000015258789,224,76.30000305175781,221.8000030517578,78C221.60000610351562,75.0999984741211,221.10000610351562,74.5,220.8000030517578,74.19999694824219C220.39999389648438,73.80000305175781,220,73.5999984741211,219.5,73.5999984741211C219.10000610351562,73.5999984741211,218.5,73.69999694824219,218,74.30000305175781C213.60000610351562,79.30000305175781,213.1999969482422,86.9000015258789,213.3000030517578,92.5999984741211C210.89999389648438,89,208.3000030517578,82.30000305175781,208.6999969482422,68.0999984741211C210,66.30000305175781,221.3000030517578,64.9000015258789,233.60000610351562,64.30000305175781C232.60000610351562,64.69999694824219,231.60000610351562,65.19999694824219,230.5,65.80000305175781zM291,90.4000015258789C290.79998779296875,90.9000015258789,290.3999938964844,91.19999694824219,289.79998779296875,91.30000305175781C289.1000061035156,91.4000015258789,288.3999938964844,91.5,287.79998779296875,91.5C285.2167053222656,91.5,282.4027099609375,90.7844009399414,280.6864013671875,89.85089874267578C281.1875915527344,88.927001953125,281.6531066894531,88.00569915771484,282.0828857421875,87.09089660644531C283.3681945800781,87.71929931640625,285.4359130859375,88.23359680175781,287.10009765625,88.4000015258789C286.1470947265625,86.23410034179688,285.28570556640625,82.32279968261719,284.87701416015625,79.16950225830078L285.5,77.30000305175781L285.5,77.19999694824219C286.6000061035156,73,287.1000061035156,68.80000305175781,287.1000061035156,64.5999984741211C287.1000061035156,64.45890045166016,287.09161376953125,64.32019805908203,287.09039306640625,64.17949676513672C287.4400939941406,64.37660217285156,287.7528991699219,64.58809661865234,287.70001220703125,64.80000305175781C287.0491027832031,73.09929656982422,284.7842102050781,80.90080261230469,290.8999938964844,89C291.20001220703125,89.30000305175781,291.20001220703125,89.9000015258789,291,90.4000015258789z"/>
<path id="Sleeve" fill="#1370EA" d="M256,164.60000610351562C256,164.60000610351562,244.8000030517578,154,228.89999389648438,137.89999389648438C213,121.80000305175781,196.6999969482422,133,204.1999969482422,159.10000610351562C211.6999969482422,185.1999969482422,230.3000030517578,195.39999389648438,230.3000030517578,195.39999389648438L256,164.60000610351562z"/>
<path id="SleeveBorder" d="M230.6999969482422,197.5L229.5,196.89999389648438C228.6999969482422,196.5,210.3000030517578,186.10000610351562,202.60000610351562,159.60000610351562C199.5,148.89999389648438,200.10000610351562,139.5,204.3000030517578,133.89999389648438C206.6999969482422,130.6999969482422,210.3000030517578,128.89999389648438,214.3000030517578,128.89999389648438C219.39999389648438,128.89999389648438,224.8000030517578,131.6999969482422,230,136.89999389648438C245.6999969482422,152.8000030517578,257,163.5,257.1000061035156,163.60000610351562L258.20001220703125,164.60000610351562L230.6999969482422,197.5zM214.3000030517578,132.10000610351562C211.3000030517578,132.10000610351562,208.6999969482422,133.39999389648438,206.89999389648438,135.8000030517578C203.3000030517578,140.60000610351562,202.89999389648438,148.89999389648438,205.6999969482422,158.6999969482422C211.89999389648438,180.1999969482422,225.8000030517578,190.6999969482422,229.89999389648438,193.3000030517578L253.6999969482422,164.8000030517578C250.5,161.6999969482422,240.60000610351562,152.1999969482422,227.60000610351562,139.10000610351562C223.1999969482422,134.60000610351562,218.5,132.10000610351562,214.3000030517578,132.10000610351562z"/>
<path id="Hat" fill="#59C159" d="M250.8000030517578,14.300000190734863C250.8000030517578,13,249.60000610351562,12,248.1999969482422,12C246.6999969482422,12,245.60000610351562,13,245.60000610351562,14.300000190734863L245.60000610351562,15.399999618530273L243.6999969482422,15.399999618530273C225,15.399999618530273,207,27.200000762939453,207,46.900001525878906L207.10000610351562,68.5999984741211C240,47.400001525878906,275,52.29999923706055,288.79998779296875,63.599998474121094C288.79998779296875,62,288.79998779296875,46.900001525878906,288.79998779296875,46.900001525878906C288.79998779296875,27.200000762939453,269.70001220703125,15.399999618530273,251.10000610351562,15.399999618530273L250.8000030517578,15.399999618530273L250.8000030517578,14.300000190734863z"/>
<path id="Cap" fill="#E1FFE1" d="M211.5,65.9000015258789C211.5,65.9000015258789,225.5,49.900001525878906,255.3000030517578,49.900001525878906C285.1000061035156,49.900001525878906,299.3999938964844,66.19999694824219,299.3999938964844,66.19999694824219C299.3999938964844,66.19999694824219,266.1000061035156,61.79999923706055,254.39999389648438,61.79999923706055C242.8000030517578,61.70000076293945,211.5,65.9000015258789,211.5,65.9000015258789z"/>
<path id="HatBorder" d="M243.89999389648438,13.800000190734863C244.1999969482422,11.899999618530273,246,10.399999618530273,248.10000610351562,10.399999618530273C250.3000030517578,10.399999618530273,252.10000610351562,11.899999618530273,252.3000030517578,13.800000190734863C271.20001220703125,14.399999618530273,290.20001220703125,26.600000381469727,290.20001220703125,46.900001525878906L290.20001220703125,57.20000076293945L290.20001220703125,57.20000076293945C296.79998779296875,61.099998474121094,300.20001220703125,64.80000305175781,300.5,65.0999984741211C300.8999938964844,65.5999984741211,301,66.30000305175781,300.70001220703125,66.9000015258789C300.3999938964844,67.4000015258789,299.8999938964844,67.69999694824219,299.29998779296875,67.69999694824219C299.20001220703125,67.69999694824219,299.20001220703125,67.69999694824219,299.1000061035156,67.69999694824219C298.79998779296875,67.69999694824219,265.79998779296875,63.29999923706055,254.39999389648438,63.29999923706055C243.60000610351562,63.29999923706055,215.5,66.9000015258789,212,67.4000015258789C210.60000610351562,68.19999694824219,209.1999969482422,69,207.8000030517578,70L205.3000030517578,71.5999984741211L205.1999969482422,46.900001525878906C205.1999969482422,25.399999618530273,224.89999389648438,13.800000190734863,243.5,13.800000190734863L243.89999389648438,13.800000190734863L243.89999389648438,13.800000190734863zM216.39999389648438,63.599998474121094C225.8000030517578,62.400001525878906,245.60000610351562,60.099998474121094,254.5,60.099998474121094C263.5,60.099998474121094,284.79998779296875,62.599998474121094,294.6000061035156,63.900001525878906C288.70001220703125,59.29999923706055,275.70001220703125,51.400001525878906,255.3000030517578,51.400001525878906C235.10000610351562,51.400001525878906,222.1999969482422,59.099998474121094,216.39999389648438,63.599998474121094zM217,59.099998474121094C216.6999969482422,53.900001525878906,216.1999969482422,35.20000076293945,221.6999969482422,28.299999237060547C225.8000030517578,23.200000762939453,234.60000610351562,19.299999237060547,240.60000610351562,17.100000381469727C224.5,18.200000762939453,208.5,28.600000381469727,208.5,46.79999923706055L208.5,65.5999984741211C209.1999969482422,65.19999694824219,209.8000030517578,64.80000305175781,210.5,64.5C211.3000030517578,63.70000076293945,213.5,61.599998474121094,217,59.099998474121094L217,59.099998474121094zM247.89999389648438,48.599998474121094C247.8000030517578,44,247.6999969482422,30.399999618530273,247.39999389648438,27.799999237060547C247.1999969482422,25.100000381469727,247.1999969482422,19.399999618530273,247.1999969482422,17.100000381469727L247.1999969482422,17.100000381469727C247,17.200000762939453,229.1999969482422,22.299999237060547,223.3000030517578,29.600000381469727C218.60000610351562,35.5,218.6999969482422,51.70000076293945,219,57.900001525878906C225.1999969482422,54,234.6999969482422,49.79999923706055,247.89999389648438,48.599998474121094zM249.1999969482422,17.399999618530273C249.1999969482422,19.899999618530273,249.1999969482422,25.200000762939453,249.39999389648438,27.600000381469727C249.60000610351562,30.299999237060547,249.8000030517578,43.70000076293945,249.89999389648438,48.5L249.89999389648438,48.5C251.60000610351562,48.400001525878906,253.39999389648438,48.29999923706055,255.3000030517578,48.29999923706055C263.3999938964844,48.29999923706055,270.3999938964844,49.5,276.29998779296875,51.20000076293945L276.29998779296875,51.099998474121094C276.5,46.599998474121094,276.5,35.400001525878906,271.8999938964844,29.600000381469727C267,23.399999618530273,253.39999389648438,18.700000762939453,249.1999969482422,17.399999618530273zM273.5,28.299999237060547C278.79998779296875,34.900001525878906,278.6000061035156,47.20000076293945,278.29998779296875,51.599998474121094L278.29998779296875,51.70000076293945C281.6000061035156,52.79999923706055,284.5,54,287.1000061035156,55.29999923706055L287.1000061035156,46.79999923706055C287.1000061035156,29.399999618530273,271.20001220703125,18.5,254.6999969482422,17.100000381469727C260.70001220703125,19.399999618530273,269.5,23.299999237060547,273.5,28.299999237060547zM248.1999969482422,13.600000381469727C248,13.600000381469727,247.6999969482422,13.699999809265137,247.60000610351562,13.800000190734863L247.60000610351562,13.800000190734863L248.89999389648438,13.800000190734863L248.89999389648438,13.800000190734863C248.60000610351562,13.699999809265137,248.39999389648438,13.600000381469727,248.1999969482422,13.600000381469727z"/>
</g>
</svg>