<svg xmlns="http://www.w3.org/2000/svg" xmlns:xlink="http://www.w3.org/1999/xlink" viewBox= "0 0 510 235" width="510px" height="235px">
<g xmlns="http://www.w3.org/2000/svg" id="ScubadiverV2.svg">
<path id="Face" fill="#FFFFFF" d="M407.3999938964844,74C400.6000061035156,80.19999694824219,396.5,85.80000305175781,393.5,93.19999694824219C387.79998779296875,106.80000305175781,388.8999938964844,123.5999984741211,396.6000061035156,131.89999389648438C404.20001220703125,140.1999969482422,421.20001220703125,142.1999969482422,434.70001220703125,138.5C443.1000061035156,136.1999969482422,448.8999938964844,132,455.20001220703125,126.19999694824219C479.20001220703125,104.19999694824219,476.3999938964844,85.30000305175781,463.20001220703125,70.9000015258789S430.3999938964844,53,407.3999938964844,74z"/>
<path id="Flippers" fill="#2BFC49" d="M98.5,169C98.5,169,89.69999694824219,167.8000030517578,82.69999694824219,169.39999389648438C75.80000305175781,170.89999389648438,63.099998474121094,197.10000610351562,51.900001525878906,208.60000610351562C40.79999923706055,220.10000610351562,21.100000381469727,222.8000030517578,21.100000381469727,222.8000030517578C21.100000381469727,222.8000030517578,23.399999618530273,215.5,22.600000381469727,205.89999389648438C21.799999237060547,196.3000030517578,11.600000381469727,190.5,11.600000381469727,190.5S47,177,57.5,170.10000610351562C68,163.1999969482422,76.5,142.39999389648438,83.4000015258789,141.5C90.30000305175781,140.60000610351562,96.0999984741211,152.10000610351562,101.30000305175781,153.1999969482422L98.5,169zM184.89999389648438,121.4000015258789C181.1999969482422,116.80000305175781,180.6999969482422,108.5,175.3000030517578,105.4000015258789C169.89999389648438,102.30000305175781,164.89999389648438,107.0999984741211,152,114.5999984741211C139.10000610351562,122.0999984741211,128.8000030517578,128.1999969482422,115,127.0999984741211C101.19999694824219,125.9000015258789,94.9000015258789,123.30000305175781,94.9000015258789,123.30000305175781L82.80000305175781,133.10000610351562C82.80000305175781,133.10000610351562,110.19999694824219,135.60000610351562,124,135.60000610351562C137.8000030517578,135.60000610351562,159.6999969482422,129.60000610351562,164.3000030517578,130.60000610351562C168.89999389648438,131.60000610351562,174.89999389648438,134.8000030517578,174.89999389648438,134.8000030517578L184.89999389648438,121.4000015258789z"/>
<path id="FlippersBorder" d="M24.600000381469727,210.1999969482422C24.600000381469727,214.6999969482422,24,218.5,23.5,220.8000030517578C29,219.6999969482422,42.5,216.1999969482422,50.900001525878906,207.5C55.70000076293945,202.60000610351562,60.70000076293945,194.89999389648438,65.5999984741211,187.60000610351562C73.30000305175781,176,78.19999694824219,168.8000030517578,82.5,167.89999389648438C85,167.3000030517578,88,167.10000610351562,91.4000015258789,167.10000610351562C92.5999984741211,167.10000610351562,93.69999694824219,167.10000610351562,94.5999984741211,167.1999969482422C94.5999984741211,167.8000030517578,94.69999694824219,168.39999389648438,94.80000305175781,168.8000030517578C95,169.6999969482422,95.4000015258789,170.1999969482422,95.80000305175781,170.60000610351562C94.5999984741211,170.5,93.0999984741211,170.39999389648438,91.4000015258789,170.39999389648438C88.19999694824219,170.39999389648438,85.5,170.6999969482422,83.19999694824219,171.1999969482422C79.9000015258789,171.89999389648438,73.80000305175781,181.3000030517578,68.30000305175781,189.5C63.29999923706055,197,58.20000076293945,204.8000030517578,53.29999923706055,209.89999389648438C41.900001525878906,221.6999969482422,22.399999618530273,224.5,21.600000381469727,224.60000610351562C21.5,224.60000610351562,21.5,224.60000610351562,21.399999618530273,224.60000610351562C20.899999618530273,224.60000610351562,20.5,224.39999389648438,20.200000762939453,224C19.799999237060547,223.60000610351562,19.700000762939453,223,19.899999618530273,222.5C19.899999618530273,222.39999389648438,22.100000381469727,215.39999389648438,21.399999618530273,206.1999969482422C20.700000762939453,197.60000610351562,11.399999618530273,192.1999969482422,11.300000190734863,192.10000610351562C10.800000190734863,191.8000030517578,10.399999618530273,191.1999969482422,10.5,190.60000610351562C10.5,190,11,189.39999389648438,11.5,189.1999969482422C11.899999618530273,189.10000610351562,46.79999923706055,175.6999969482422,57.099998474121094,169C62,165.8000030517578,66.5999984741211,159.10000610351562,70.69999694824219,153.3000030517578C75.4000015258789,146.60000610351562,79.4000015258789,140.6999969482422,83.69999694824219,140.1999969482422C84,140.1999969482422,84.4000015258789,140.10000610351562,84.69999694824219,140.10000610351562C89.0999984741211,140.10000610351562,92.80000305175781,143.8000030517578,96.0999984741211,147.1999969482422C97.5999984741211,148.8000030517578,99.19999694824219,150.39999389648438,100.5999984741211,151.3000030517578C100.4000015258789,151.39999389648438,100.0999984741211,151.5,99.9000015258789,151.6999969482422C99.19999694824219,152.10000610351562,98.5,152.6999969482422,98,153.39999389648438C96.5999984741211,152.3000030517578,95.19999694824219,151,93.80000305175781,149.5C90.5999984741211,146.3000030517578,87.4000015258789,143,84.0999984741211,143.5C81.30000305175781,143.89999389648438,77.19999694824219,149.6999969482422,73.30000305175781,155.3000030517578C69,161.39999389648438,64.19999694824219,168.3000030517578,58.79999923706055,171.89999389648438C49.900001525878906,177.8000030517578,24.200000762939453,187.89999389648438,15.399999618530273,191.3000030517578C17,192.5,19,194.3000030517578,20.700000762939453,196.60000610351562L20.700000762939453,196.60000610351562C23.200000762939453,196.39999389648438,37.29999923706055,194.8000030517578,51.900001525878906,181.6999969482422C52.29999923706055,181.3000030517578,52.900001525878906,181.39999389648438,53.29999923706055,181.8000030517578C53.70000076293945,182.1999969482422,53.599998474121094,182.8000030517578,53.20000076293945,183.1999969482422C39.5,195.5,26.399999618530273,198,21.899999618530273,198.5L21.899999618530273,198.5C23.200000762939453,200.6999969482422,24.200000762939453,203.1999969482422,24.399999618530273,206.10000610351562C24.5,206.89999389648438,24.5,207.6999969482422,24.5,208.39999389648438L24.5,208.39999389648438C28.399999618530273,207.39999389648438,41.20000076293945,203.39999389648438,48.599998474121094,191.1999969482422C48.900001525878906,190.6999969482422,49.5,190.60000610351562,50,190.89999389648438C50.5,191.1999969482422,50.599998474121094,191.8000030517578,50.29999923706055,192.3000030517578C42.20000076293945,205.5,28.200000762939453,209.39999389648438,24.600000381469727,210.1999969482422zM117.9000015258789,133.89999389648438L117.69999694824219,133.89999389648438C120,134,122.19999694824219,134,124.0999984741211,134C131.39999389648438,134,141.3000030517578,132.1999969482422,149.3000030517578,130.8000030517578C155.1999969482422,129.8000030517578,160.3000030517578,128.89999389648438,163.10000610351562,128.89999389648438C163.8000030517578,128.89999389648438,164.3000030517578,128.89999389648438,164.6999969482422,129C167.1999969482422,129.5,170.10000610351562,130.6999969482422,172.1999969482422,131.6999969482422C171.89999389648438,133.39999389648438,172.10000610351562,134.60000610351562,172.60000610351562,135.5C170.60000610351562,134.5,167,132.89999389648438,164,132.1999969482422C163.8000030517578,132.1999969482422,163.60000610351562,132.10000610351562,163,132.10000610351562C160.39999389648438,132.10000610351562,155.5,133,149.8000030517578,134C141.6999969482422,135.39999389648438,131.6999969482422,137.1999969482422,124.0999984741211,137.1999969482422C110.30000305175781,137.1999969482422,83,134.6999969482422,82.69999694824219,134.6999969482422C82,134.60000610351562,81.5,134.1999969482422,81.30000305175781,133.60000610351562C81.0999984741211,133,81.30000305175781,132.3000030517578,81.80000305175781,131.89999389648438L94,122C94.5,121.5999984741211,95.0999984741211,121.5,95.69999694824219,121.80000305175781C95.80000305175781,121.80000305175781,101.9000015258789,124.4000015258789,115.30000305175781,125.5C116.4000015258789,125.5999984741211,117.4000015258789,125.5999984741211,118.5,125.5999984741211L118.5,125.5999984741211C130.10000610351562,125.5999984741211,139.1999969482422,120.30000305175781,150.8000030517578,113.5L151.39999389648438,113.0999984741211C154.10000610351562,111.5,156.5,110.0999984741211,158.60000610351562,108.80000305175781C164.5,105.0999984741211,168.39999389648438,102.69999694824219,172.10000610351562,102.69999694824219C173.60000610351562,102.69999694824219,175,103.0999984741211,176.3000030517578,103.9000015258789C180,106,181.6999969482422,110.0999984741211,183.1999969482422,114C183.8000030517578,115.5999984741211,184.5,117.0999984741211,185.1999969482422,118.4000015258789C184.89999389648438,118.30000305175781,184.60000610351562,118.19999694824219,184.1999969482422,118.19999694824219C183.5,118.19999694824219,182.6999969482422,118.5,181.8000030517578,119C181.1999969482422,117.80000305175781,180.6999969482422,116.4000015258789,180.10000610351562,115.19999694824219C178.6999969482422,111.69999694824219,177.3000030517578,108.30000305175781,174.60000610351562,106.69999694824219C173.6999969482422,106.19999694824219,172.89999389648438,106,172,106C169.1999969482422,106,165.60000610351562,108.19999694824219,160.1999969482422,111.5999984741211C158.10000610351562,112.9000015258789,155.6999969482422,114.4000015258789,153,116L152.39999389648438,116.4000015258789C147.60000610351562,119.19999694824219,143,121.9000015258789,138.39999389648438,124L138.39999389648438,124C138.39999389648438,124,130.6999969482422,129,127.0999984741211,130.1999969482422C123.19999694824219,132.10000610351562,117.9000015258789,133.89999389648438,117.9000015258789,133.89999389648438zM101.80000305175781,132.89999389648438L101.80000305175781,132.89999389648438C109.5999984741211,133.10000610351562,116.5999984741211,131.1999969482422,122.80000305175781,128.6999969482422C121.4000015258789,128.89999389648438,119.9000015258789,128.89999389648438,118.5,128.89999389648438L118.5,128.89999389648438C117.4000015258789,128.89999389648438,116.19999694824219,128.89999389648438,115,128.8000030517578C103.9000015258789,127.9000015258789,97.5999984741211,126,95.4000015258789,125.19999694824219L87.0999984741211,131.89999389648438C90.5,132.1999969482422,95.80000305175781,132.60000610351562,101.5,133"/>
<path id="ScubaDiver" fill="#444444" d="M426.29998779296875,140C429.29998779296875,146.6999969482422,430.8999938964844,153.39999389648438,430.8999938964844,158.10000610351562C430.8999938964844,165,434.1000061035156,192.3000030517578,434.1000061035156,192.3000030517578C434.1000061035156,192.3000030517578,437.70001220703125,187.3000030517578,446.20001220703125,178.60000610351562C454.6000061035156,169.89999389648438,459.6000061035156,164,461.20001220703125,165.1999969482422C462.79998779296875,166.39999389648438,474,172.6999969482422,472.1000061035156,175.1999969482422C470.20001220703125,177.6999969482422,454.6000061035156,202,442.3999938964844,208.89999389648438C430.29998779296875,215.8000030517578,423.1000061035156,217.60000610351562,421.5,215.39999389648438C419.8999938964844,213.1999969482422,414.3999938964844,205.6999969482422,409.70001220703125,191C405,176.39999389648438,402.70001220703125,161.5,399.29998779296875,162.6999969482422C383.3999938964844,166.60000610351562,376.79998779296875,179.3000030517578,338.70001220703125,174.3000030517578C334.29998779296875,174.3000030517578,329.8999938964844,175.3000030517578,325.70001220703125,175.3000030517578C318.79998779296875,175.3000030517578,313.20001220703125,175.39999389648438,306.8999938964844,175.5C285.29998779296875,175.89999389648438,267,175.89999389648438,259.6000061035156,178.5C248.6999969482422,182.1999969482422,231.8000030517578,188.1999969482422,206.3000030517578,193.5C180.6999969482422,198.8000030517578,173.39999389648438,200.6999969482422,165,195.6999969482422C156.60000610351562,190.6999969482422,148.5,181.10000610351562,133.3000030517578,176.6999969482422C118,172.3000030517578,99,169.1999969482422,97.0999984741211,169.1999969482422C95.19999694824219,169.1999969482422,95.9000015258789,155.1999969482422,100.5,152.6999969482422C105.19999694824219,150.1999969482422,102.4000015258789,152.6999969482422,116.4000015258789,150.5C130.39999389648438,148.3000030517578,133.5,150.8000030517578,146.1999969482422,156.39999389648438C159,162,168.60000610351562,167.89999389648438,181.10000610351562,163.60000610351562C182,163.3000030517578,182.89999389648438,162.89999389648438,183.8000030517578,162.5L183.89999389648438,162.60000610351562C181.6999969482422,160.10000610351562,177.3000030517578,139.5,174.1999969482422,134.89999389648438C171.10000610351562,130.1999969482422,182.60000610351562,118.4000015258789,184.5,119.9000015258789C186.3000030517578,121.4000015258789,197.89999389648438,140.1999969482422,207.8000030517578,147.8000030517578L207.8000030517578,147.8000030517578C215.39999389648438,142.3000030517578,222.89999389648438,136.10000610351562,229,130.60000610351562C240.3000030517578,120.30000305175781,250.89999389648438,113.5999984741211,272.20001220703125,114.0999984741211C282.6000061035156,104.4000015258789,294.8999938964844,93.69999694824219,298.29998779296875,91.9000015258789C302.70001220703125,89.69999694824219,322.29998779296875,93.5,342.6000061035156,94.4000015258789C362.8999938964844,95.30000305175781,362.5,93.19999694824219,374.1000061035156,91.5999984741211C382.3999938964844,90.5,387.5,93.69999694824219,391.8999938964844,97.4000015258789C392.29998779296875,95.9000015258789,392.8999938964844,94.5,393.3999938964844,93.0999984741211C396.3999938964844,85.80000305175781,400.5,80.19999694824219,407.29998779296875,73.9000015258789C430.29998779296875,52.900001525878906,449.8999938964844,56.400001525878906,463.1000061035156,70.9000015258789C476.29998779296875,85.30000305175781,479.1000061035156,104.19999694824219,455.1000061035156,126.19999694824219C448.79998779296875,132,443,136.1999969482422,434.6000061035156,138.5C432,139.3000030517578,429.20001220703125,139.8000030517578,426.29998779296875,140L426.29998779296875,140zM397.3999938964844,94C396.5,96.0999984741211,395.8999938964844,98.19999694824219,395.29998779296875,100.4000015258789C392.79998779296875,111,394.3999938964844,122.4000015258789,400.1000061035156,128.60000610351562C405.1000061035156,134.10000610351562,414.70001220703125,136.5,424.29998779296875,136C427.6000061035156,135.8000030517578,431,135.3000030517578,434.1000061035156,134.5C441.6000061035156,132.5,447.1000061035156,129,452.3999938964844,123.5999984741211C465.70001220703125,110,474.6000061035156,101.5,455.20001220703125,79.19999694824219C435.79998779296875,56.900001525878906,421.3999938964844,65.19999694824219,409.79998779296875,77C404.1000061035156,82.80000305175781,400.1000061035156,87.5,397.3999938964844,94z"/>
<path id="Breather" fill="#FF6D00" d="M233.10000610351562,170.3000030517578C233.10000610351562,164.5,237.8000030517578,159.6999969482422,243.6999969482422,159.6999969482422C249.60000610351562,159.6999969482422,254.3000030517578,164.39999389648438,254.3000030517578,170.3000030517578C254.3000030517578,176.1999969482422,249.60000610351562,180.89999389648438,243.6999969482422,180.89999389648438S233.10000610351562,176.10000610351562,233.10000610351562,170.3000030517578"/>
<path id="BreatherTake" fill="#444444" d="M240.1999969482422,170.3000030517578C240.1999969482422,168.39999389648438,241.6999969482422,166.89999389648438,243.60000610351562,166.89999389648438C245.5,166.89999389648438,247,168.39999389648438,247,170.3000030517578C247,172.1999969482422,245.5,173.6999969482422,243.60000610351562,173.6999969482422S240.1999969482422,172.1999969482422,240.1999969482422,170.3000030517578"/>
<path id="Tank" fill="#FFC31A" d="M309.70001220703125,71.80000305175781C309.70001220703125,71.69999694824219,309.6000061035156,71.5,309.6000061035156,71.4000015258789L347.3999938964844,62.400001525878906C360,60.20000076293945,372,68.5999984741211,374.29998779296875,81.19999694824219C374.79998779296875,84.19999694824219,374.79998779296875,88.19999694824219,374.20001220703125,91C374.1000061035156,91,374.1000061035156,91,374,91C370.5,91.5,368.1000061035156,92,365.8999938964844,92.5C360.79998779296875,93.5999984741211,356.8999938964844,94.5,342.79998779296875,93.80000305175781C334.79998779296875,93.4000015258789,326.8999938964844,92.5999984741211,320,91.9000015258789C317.70001220703125,91.69999694824219,314.5,91.4000015258789,312.6000061035156,91.30000305175781C311.6000061035156,85.5999984741211,310.70001220703125,78.5999984741211,310,72.9000015258789C309.79998779296875,72.5999984741211,309.70001220703125,72.19999694824219,309.70001220703125,71.80000305175781zM271.6000061035156,113.5999984741211C278.3999938964844,107.19999694824219,286.5,100,292,95.5999984741211L293,94.5999984741211C291.8999938964844,88.5999984741211,291.20001220703125,82.5999984741211,291.3999938964844,78C291.3999938964844,77.5,291.3999938964844,77,291.5,76.5C291.5,76.4000015258789,291.5,75.4000015258789,291.5,75.30000305175781L243.10000610351562,87.9000015258789C239.89999389648438,88.5,237.8000030517578,91.5,238.39999389648438,94.5999984741211L242.89999389648438,119.5C250.1999969482422,115.69999694824219,258.5,113.5999984741211,269.79998779296875,113.5999984741211C270.5,113.5999984741211,271.1000061035156,113.5999984741211,271.6000061035156,113.5999984741211z"/>
<path id="TankBorder" d="M255.89999389648438,86.4000015258789C254.60000610351562,93.80000305175781,255.39999389648438,104.30000305175781,257.79998779296875,113.5C258.79998779296875,113.30000305175781,259.8999938964844,113.19999694824219,261,113C258.6000061035156,103.5,257.70001220703125,92.5,259.3999938964844,85.5L301.5,75.30000305175781L307.70001220703125,73.80000305175781L347.79998779296875,64C349,63.79999923706055,350.29998779296875,63.70000076293945,351.5,63.70000076293945C362,63.70000076293945,370.8999938964844,71.19999694824219,372.70001220703125,81.5C373.20001220703125,84.5,373.1000061035156,87.5,372.3999938964844,90.30000305175781C372.8999938964844,90.19999694824219,373.3999938964844,90.19999694824219,373.8999938964844,90.0999984741211C374.5,90,375.20001220703125,90,375.79998779296875,89.9000015258789C376.3999938964844,87,376.3999938964844,84,375.8999938964844,80.9000015258789C373.79998779296875,69,363.5,60.400001525878906,351.5,60.400001525878906C350.1000061035156,60.400001525878906,348.6000061035156,60.5,347.1000061035156,60.79999923706055L347,60.79999923706055L242.8000030517578,86.30000305175781C240.89999389648438,86.69999694824219,239.1999969482422,87.69999694824219,238.10000610351562,89.30000305175781C237,90.9000015258789,236.5,92.9000015258789,236.89999389648438,94.9000015258789L241.5,119.30000305175781C242.5,118.69999694824219,243.5,118.19999694824219,244.5,117.69999694824219L240.10000610351562,94.30000305175781C239.89999389648438,93.19999694824219,240.1999969482422,92.0999984741211,240.8000030517578,91.19999694824219C241.39999389648438,90.30000305175781,242.39999389648438,89.69999694824219,243.5,89.5L243.60000610351562,89.5L255.89999389648438,86.4000015258789z"/>
<path id="Hands" fill="#444444" d="M262.79998779296875,145.39999389648438C262.79998779296875,145.39999389648438,259.29998779296875,146.89999389648438,259.6000061035156,150.8000030517578C259.8999938964844,154.6999969482422,250.89999389648438,162.10000610351562,246.8000030517578,166.89999389648438C242.6999969482422,171.6999969482422,238.10000610351562,169.60000610351562,236.6999969482422,169.5C235.3000030517578,169.39999389648438,232.3000030517578,174.8000030517578,230.10000610351562,174.89999389648438C222.3000030517578,172.5,222.10000610351562,155.89999389648438,222.3000030517578,154.10000610351562C222.39999389648438,152.3000030517578,224.89999389648438,149.89999389648438,229.39999389648438,146.10000610351562C233.89999389648438,142.3000030517578,241.60000610351562,139.8000030517578,249.39999389648438,137L262.79998779296875,145.39999389648438zM471.79998779296875,173.1999969482422C475.1000061035156,169.10000610351562,474.20001220703125,170.10000610351562,477,168.39999389648438C479.79998779296875,166.6999969482422,490.29998779296875,154.60000610351562,492.70001220703125,150.8000030517578C496,147,497.70001220703125,140.10000610351562,494.3999938964844,139.6999969482422C494.3999938964844,139.6999969482422,499.1000061035156,132.60000610351562,493.5,131.60000610351562C493.5,131.60000610351562,494.8999938964844,122.5999984741211,487.5,126.19999694824219C487.5,126.19999694824219,484.8999938964844,118.30000305175781,479.6000061035156,125.30000305175781C474.20001220703125,132.39999389648438,468.3999938964844,143.3000030517578,468.3999938964844,143.3000030517578C468.3999938964844,143.3000030517578,468.20001220703125,133.5,465.1000061035156,134.8000030517578C463.5,135.6999969482422,461.1000061035156,137.6999969482422,461.1000061035156,144C461.1000061035156,150.1999969482422,459.3999938964844,154.6999969482422,459.70001220703125,157.8000030517578C460.1000061035156,160.89999389648438,461.29998779296875,162.60000610351562,461.1000061035156,166.10000610351562L471.79998779296875,173.1999969482422z"/>
<path id="HandsBorder" d="M473.79998779296875,174.89999389648438C473.79998779296875,174.60000610351562,473.79998779296875,174.3000030517578,473.79998779296875,174.10000610351562C473.79998779296875,173.89999389648438,473.70001220703125,173.6999969482422,473.70001220703125,173.60000610351562L473.70001220703125,173.60000610351562L473.70001220703125,173.60000610351562C473.8999938964844,173.39999389648438,474,173.1999969482422,474.20001220703125,173C475.6000061035156,171.1999969482422,475.79998779296875,171.10000610351562,476.6000061035156,170.60000610351562C476.8999938964844,170.39999389648438,477.29998779296875,170.1999969482422,477.8999938964844,169.8000030517578C481,167.89999389648438,491.5,155.6999969482422,494.1000061035156,151.8000030517578C496.70001220703125,148.6999969482422,498.70001220703125,143.39999389648438,497.6000061035156,140.39999389648438C497.3999938964844,139.89999389648438,497.1000061035156,139.5,496.79998779296875,139.1999969482422C497.6000061035156,137.5,498.6000061035156,134.89999389648438,497.70001220703125,132.8000030517578C497.3999938964844,132.10000610351562,496.70001220703125,131.1999969482422,495.5,130.60000610351562C495.5,129.10000610351562,495.3999938964844,126.9000015258789,494.1000061035156,125.4000015258789C492.8999938964844,124,490.8999938964844,123.5999984741211,488.6000061035156,124.30000305175781C487.79998779296875,122.9000015258789,486.29998779296875,121,484,121C482.1000061035156,121,480.3999938964844,122.19999694824219,478.5,124.5999984741211C475.29998779296875,128.89999389648438,471.8999938964844,134.39999389648438,469.70001220703125,138.3000030517578C469.20001220703125,135.6999969482422,468.1000061035156,133.39999389648438,465.8999938964844,133.39999389648438C465.5,133.39999389648438,465.1000061035156,133.5,464.70001220703125,133.6999969482422C464.70001220703125,133.6999969482422,464.6000061035156,133.6999969482422,464.6000061035156,133.8000030517578C461.3999938964844,135.60000610351562,459.79998779296875,139.10000610351562,459.79998779296875,144.39999389648438C459.79998779296875,147.5,459.3999938964844,150.1999969482422,458.8999938964844,152.5C458.5,154.6999969482422,458.20001220703125,156.6999969482422,458.3999938964844,158.39999389648438C458.5,159.8000030517578,458.79998779296875,160.89999389648438,459.1000061035156,161.89999389648438C459.29998779296875,162.60000610351562,459.5,163.3000030517578,459.6000061035156,164.10000610351562L459.6000061035156,164.10000610351562L459.6000061035156,164.10000610351562L459.6000061035156,164.10000610351562C459.20001220703125,164.1999969482422,458.8999938964844,164.5,458.3999938964844,164.6999969482422L473.79998779296875,174.89999389648438zM471.3999938964844,171.10000610351562L462.70001220703125,165.3000030517578L462.70001220703125,165.3000030517578C462.70001220703125,163.5,462.29998779296875,162.10000610351562,461.8999938964844,160.6999969482422C461.6000061035156,159.6999969482422,461.3999938964844,158.8000030517578,461.29998779296875,157.6999969482422C461.20001220703125,156.39999389648438,461.5,154.6999969482422,461.79998779296875,152.6999969482422C462.20001220703125,150.3000030517578,462.70001220703125,147.39999389648438,462.70001220703125,144C462.70001220703125,140.1999969482422,463.6000061035156,137.6999969482422,465.5,136.5C466.1000061035156,137.39999389648438,466.6000061035156,140.5,466.70001220703125,143.39999389648438C466.70001220703125,143.89999389648438,466.8999938964844,144.39999389648438,467.29998779296875,144.60000610351562L467.29998779296875,144.60000610351562L467.29998779296875,145.89999389648438C467.29998779296875,146.3000030517578,467.6000061035156,146.6999969482422,468,146.89999389648438C469.29998779296875,147.3000030517578,470.3999938964844,148.60000610351562,470.8999938964844,150.5C471.3999938964844,152.5,471.20001220703125,155.5,469.1000061035156,157.6999969482422C468.70001220703125,158.10000610351562,468.70001220703125,158.6999969482422,469.1000061035156,159.10000610351562C469.29998779296875,159.3000030517578,469.5,159.39999389648438,469.79998779296875,159.39999389648438C470.1000061035156,159.39999389648438,470.29998779296875,159.3000030517578,470.5,159.10000610351562C472.79998779296875,156.6999969482422,473.6000061035156,153.3000030517578,472.79998779296875,150C472.20001220703125,147.8000030517578,470.8999938964844,146.10000610351562,469.20001220703125,145.3000030517578L469.20001220703125,144.6999969482422L469.20001220703125,144.6999969482422C469.3999938964844,144.60000610351562,469.5,144.39999389648438,469.6000061035156,144.1999969482422C469.70001220703125,144.10000610351562,475.5,133.3000030517578,480.70001220703125,126.4000015258789C482.29998779296875,124.30000305175781,483.20001220703125,124.0999984741211,483.6000061035156,124.0999984741211C484.6000061035156,124.0999984741211,485.5,125.80000305175781,485.79998779296875,126.69999694824219C483.79998779296875,129.3000030517578,478.3999938964844,136.39999389648438,476.29998779296875,139.89999389648438C476,140.39999389648438,476.20001220703125,141,476.70001220703125,141.3000030517578C476.8999938964844,141.39999389648438,477,141.39999389648438,477.20001220703125,141.39999389648438C477.5,141.39999389648438,477.8999938964844,141.1999969482422,478.1000061035156,140.89999389648438C480.20001220703125,137.5,485.5,130.5,487.5,127.80000305175781L487.5,127.80000305175781C487.70001220703125,127.80000305175781,488,127.69999694824219,488.20001220703125,127.5999984741211C489.3999938964844,127,490.1000061035156,126.9000015258789,490.5,126.9000015258789C490.70001220703125,126.9000015258789,490.20001220703125,126.9000015258789,491,127C491.79998779296875,127.0999984741211,492,129.1999969482422,492,129.1999969482422L492,131.10000610351562L491.1000061035156,132.10000610351562C488.8999938964844,135,482.8999938964844,142.6999969482422,480.3999938964844,146.5C480.1000061035156,147,480.20001220703125,147.60000610351562,480.70001220703125,147.89999389648438C480.8999938964844,148,481.1000061035156,148.10000610351562,481.29998779296875,148.10000610351562C481.6000061035156,148.10000610351562,481.8999938964844,147.89999389648438,482.1000061035156,147.6999969482422C484.1000061035156,144.6999969482422,488.3999938964844,139,491.20001220703125,135.5C491.20001220703125,135.5,492.8999938964844,133.39999389648438,493.1000061035156,133.10000610351562C493.29998779296875,132.89999389648438,494.1000061035156,133.3000030517578,494.70001220703125,134C495,134.39999389648438,494.79998779296875,135.10000610351562,494.20001220703125,136.6999969482422C493.20001220703125,139.5,493,139.3000030517578,493,139.3000030517578L491.20001220703125,141.6999969482422C488.70001220703125,144.89999389648438,484.8999938964844,149.8000030517578,483.1000061035156,152.10000610351562C482.79998779296875,152.5,482.8999938964844,153.1999969482422,483.29998779296875,153.5C483.5,153.60000610351562,483.70001220703125,153.6999969482422,483.8999938964844,153.6999969482422C484.20001220703125,153.6999969482422,484.5,153.60000610351562,484.70001220703125,153.3000030517578C486.1000061035156,151.39999389648438,488.8999938964844,147.89999389648438,491.20001220703125,144.89999389648438L494.20001220703125,141.1999969482422C494.20001220703125,141.1999969482422,495.1000061035156,141.39999389648438,494.70001220703125,143.8000030517578C494.29998779296875,146.1999969482422,491.29998779296875,150.1999969482422,491.29998779296875,150.1999969482422C488.5,154.3000030517578,478.79998779296875,165.39999389648438,476.3999938964844,166.89999389648438C475.8999938964844,167.1999969482422,475.5,167.39999389648438,475.20001220703125,167.60000610351562C473.5,168.60000610351562,473.20001220703125,168.8000030517578,471.3999938964844,171.10000610351562L471.3999938964844,171.10000610351562L471.3999938964844,171.10000610351562L471.3999938964844,171.10000610351562zM247.39999389648438,136.10000610351562L245.6999969482422,136.60000610351562C238.39999389648438,139.1999969482422,232.60000610351562,141.3000030517578,228.3000030517578,144.89999389648438C223.39999389648438,149,220.8000030517578,151.5,220.60000610351562,154C220.60000610351562,154.1999969482422,220,173.5,229.60000610351562,176.5C229.8000030517578,176.5,229.89999389648438,176.60000610351562,230.10000610351562,176.60000610351562L230.1999969482422,176.60000610351562C232.10000610351562,176.5,233.6999969482422,174.60000610351562,235.3000030517578,172.89999389648438C235.8000030517578,172.39999389648438,236.5,171.60000610351562,236.89999389648438,171.3000030517578C237,171.3000030517578,237.10000610351562,171.3000030517578,237.1999969482422,171.39999389648438C238,171.60000610351562,239.1999969482422,171.89999389648438,240.60000610351562,171.89999389648438L240.60000610351562,171.89999389648438C243.5,171.89999389648438,246.10000610351562,170.60000610351562,248.1999969482422,168.1999969482422C249.3000030517578,166.8000030517578,250.89999389648438,165.3000030517578,252.60000610351562,163.60000610351562C258.1000061035156,158.10000610351562,261.70001220703125,154.1999969482422,261.3999938964844,150.89999389648438C261.3999938964844,150.39999389648438,261.3999938964844,149.89999389648438,261.5,149.5L261.5,149.5C262,149.1999969482422,264.29998779296875,147.6999969482422,264.8999938964844,147.3000030517578L247.39999389648438,136.10000610351562zM259.79998779296875,145.60000610351562C258.70001220703125,146.6999969482422,257.79998779296875,148.5,257.8999938964844,151C258.1000061035156,153,253.1999969482422,157.89999389648438,250,161.10000610351562C248.3000030517578,162.8000030517578,246.6999969482422,164.5,245.39999389648438,165.89999389648438C243.89999389648438,167.60000610351562,242.3000030517578,168.5,240.3000030517578,168.5C239.60000610351562,168.5,238.89999389648438,168.39999389648438,238.3000030517578,168.3000030517578C240.3000030517578,166,244.8000030517578,160.8000030517578,248.10000610351562,158C248.5,157.60000610351562,248.60000610351562,157,248.1999969482422,156.60000610351562C247.8000030517578,156.1999969482422,247.1999969482422,156.10000610351562,246.8000030517578,156.5C242.6999969482422,160,236.89999389648438,166.89999389648438,236,168.10000610351562L236,168.10000610351562C234.89999389648438,168.39999389648438,234,169.39999389648438,232.8000030517578,170.8000030517578C232.10000610351562,171.5,230.8000030517578,173,230.10000610351562,173.39999389648438C229.10000610351562,173,228.1999969482422,172.1999969482422,227.5,171.1999969482422L227.5,171.1999969482422C228.6999969482422,169.60000610351562,233.1999969482422,163.60000610351562,236.5,161.3000030517578C236.89999389648438,161,237,160.39999389648438,236.6999969482422,159.89999389648438C236.39999389648438,159.5,235.6999969482422,159.3000030517578,235.3000030517578,159.6999969482422C232.1999969482422,162,228.10000610351562,167.10000610351562,226.39999389648438,169.39999389648438L226.39999389648438,169.39999389648438C225.89999389648438,168.3000030517578,225.39999389648438,167,225.10000610351562,165.6999969482422L225.10000610351562,165.6999969482422C225.89999389648438,164.5,228.6999969482422,160.5,231,158.60000610351562C231.39999389648438,158.1999969482422,231.5,157.60000610351562,231.10000610351562,157.1999969482422C230.6999969482422,156.8000030517578,230.10000610351562,156.6999969482422,229.6999969482422,157.10000610351562C227.8000030517578,158.6999969482422,225.8000030517578,161.3000030517578,224.5,163.10000610351562L224.5,163.10000610351562C224.1999969482422,161.6999969482422,224.10000610351562,160.3000030517578,224,159.10000610351562L224,159.10000610351562C224,159.10000610351562,225.39999389648438,156.60000610351562,227.60000610351562,155.1999969482422C228.10000610351562,154.89999389648438,228.1999969482422,154.3000030517578,227.89999389648438,153.8000030517578C227.60000610351562,153.3000030517578,227,153.1999969482422,226.5,153.5C225.39999389648438,154.1999969482422,224.5,155.10000610351562,223.8000030517578,155.89999389648438C223.8000030517578,155.3000030517578,223.8000030517578,154.8000030517578,223.8000030517578,154.5C223.89999389648438,152.89999389648438,228.39999389648438,149.1999969482422,230.3000030517578,147.60000610351562C234.1999969482422,144.3000030517578,240.89999389648438,141.89999389648438,247.89999389648438,139.39999389648438L249,139L259.79998779296875,145.60000610351562z"/>
<path id="ScubaDiverBorder" d="M331,176.10000610351562C333.5,176.10000610351562,336.1000061035156,176.10000610351562,338.6000061035156,176.10000610351562C344.3999938964844,176.89999389648438,349.8999938964844,177.1999969482422,354.70001220703125,177.1999969482422C371.1000061035156,177.1999969482422,379.79998779296875,173,387.5,169.1999969482422C391.3999938964844,167.3000030517578,395.20001220703125,165.5,399.6000061035156,164.39999389648438C400.8999938964844,165.5,402.79998779296875,172.60000610351562,404.29998779296875,178.3000030517578C405.3999938964844,182.39999389648438,406.6000061035156,187,408.1000061035156,191.60000610351562C412.70001220703125,206.10000610351562,418.20001220703125,213.6999969482422,420,216.1999969482422L420.1000061035156,216.39999389648438C420.79998779296875,217.39999389648438,422.1000061035156,217.89999389648438,423.79998779296875,217.89999389648438C428.6000061035156,217.89999389648438,437,213.8000030517578,443.1000061035156,210.3000030517578C454,204.10000610351562,467.5,184.5,472,178C472.6000061035156,177.10000610351562,473.1000061035156,176.39999389648438,473.29998779296875,176.10000610351562C473.79998779296875,175.5,473.8999938964844,174.6999969482422,473.79998779296875,174C473.79998779296875,173.8000030517578,473.70001220703125,173.60000610351562,473.70001220703125,173.5L473.70001220703125,173.5L471.5,171L462.79998779296875,165.1999969482422L459.3999938964844,163.60000610351562L459.3999938964844,163.60000610351562C457.5,164.39999389648438,454.79998779296875,167.10000610351562,449.3999938964844,172.8000030517578C448.1000061035156,174.1999969482422,446.6000061035156,175.6999969482422,445.1000061035156,177.3000030517578C440.5,182.10000610351562,437.29998779296875,185.6999969482422,435.3999938964844,188C434.5,180.1999969482422,432.6000061035156,163,432.6000061035156,157.8000030517578C432.6000061035156,153.10000610351562,431.1000061035156,147.10000610351562,428.70001220703125,141.10000610351562L428.70001220703125,141.10000610351562C430.8999938964844,140.8000030517578,433.1000061035156,140.39999389648438,435.20001220703125,139.8000030517578C443.8999938964844,137.39999389648438,450,133,456.3999938964844,127.19999694824219C467.8999938964844,116.69999694824219,474.1000061035156,106,474.8999938964844,95.5999984741211C475.5,86.5,472,77.80000305175781,464.5,69.5999984741211C457.1000061035156,61.5,448.29998779296875,57.29999923706055,438.8999938964844,57.29999923706055C428.3999938964844,57.29999923706055,417.5,62.400001525878906,406.5,72.5C399.5,78.9000015258789,395.3999938964844,84.5999984741211,392.20001220703125,92.19999694824219C391.8999938964844,92.9000015258789,391.6000061035156,93.69999694824219,391.29998779296875,94.5C387.1000061035156,91.30000305175781,381.8999938964844,88.80000305175781,374.1000061035156,89.80000305175781C370.6000061035156,90.30000305175781,368.20001220703125,90.80000305175781,366,91.30000305175781C361,92.4000015258789,357,93.30000305175781,342.8999938964844,92.5999984741211C334.8999938964844,92.19999694824219,327,91.4000015258789,320.1000061035156,90.69999694824219C317.79998779296875,90.5,315.6000061035156,90.19999694824219,313.70001220703125,90.0999984741211L310.29998779296875,89.80000305175781C303.79998779296875,89.30000305175781,299.8999938964844,89.30000305175781,297.79998779296875,90.30000305175781C297.1000061035156,90.5999984741211,296.20001220703125,91.19999694824219,295.1000061035156,92.0999984741211L295.1000061035156,92.0999984741211L295.1000061035156,92.0999984741211L292.20001220703125,94.30000305175781L292.20001220703125,94.30000305175781C286.6000061035156,98.69999694824219,278.6000061035156,105.9000015258789,271.79998779296875,112.30000305175781C271.20001220703125,112.30000305175781,270.70001220703125,112.30000305175781,270.1000061035156,112.30000305175781C250.5,112.30000305175781,239.8000030517578,118.5,228.10000610351562,129.1999969482422C222.3000030517578,134.5,215.1999969482422,140.3000030517578,208.10000610351562,145.60000610351562L208.10000610351562,145.60000610351562C201.39999389648438,140.10000610351562,193.89999389648438,129.60000610351562,189.6999969482422,123.69999694824219C187.5,120.5999984741211,186.39999389648438,119.0999984741211,185.8000030517578,118.5999984741211C185.39999389648438,118.30000305175781,184.89999389648438,118.0999984741211,184.3000030517578,118.0999984741211C181.5,118.0999984741211,176.1999969482422,123.5,173.8000030517578,127.9000015258789C171.60000610351562,131.89999389648438,172.1999969482422,134.39999389648438,173.10000610351562,135.6999969482422C174.60000610351562,137.89999389648438,176.60000610351562,144.8000030517578,178.3000030517578,150.8000030517578C179.8000030517578,155.89999389648438,180.8000030517578,159.39999389648438,181.6999969482422,161.60000610351562L181.6999969482422,161.60000610351562C181.39999389648438,161.6999969482422,181,161.8000030517578,180.6999969482422,162C178,163,175.3000030517578,163.39999389648438,172.60000610351562,163.39999389648438C165.8000030517578,163.39999389648438,159.3000030517578,160.5,151.89999389648438,157.10000610351562C150.3000030517578,156.39999389648438,148.6999969482422,155.60000610351562,147,154.89999389648438C145.5,154.1999969482422,144.1999969482422,153.60000610351562,142.89999389648438,153.10000610351562C136,150,131.8000030517578,148.10000610351562,125.0999984741211,148.10000610351562C122.5999984741211,148.10000610351562,119.80000305175781,148.39999389648438,116.30000305175781,148.89999389648438C109.0999984741211,150,106.69999694824219,149.89999389648438,105.19999694824219,149.89999389648438C104.9000015258789,149.89999389648438,104.69999694824219,149.89999389648438,104.4000015258789,149.89999389648438C102.9000015258789,149.89999389648438,102,150.1999969482422,99.9000015258789,151.3000030517578C94.9000015258789,153.89999389648438,94.0999984741211,165.3000030517578,94.9000015258789,168.60000610351562C95.4000015258789,170.60000610351562,96.5999984741211,170.89999389648438,97.19999694824219,170.89999389648438C98.80000305175781,170.89999389648438,117.69999694824219,174,132.89999389648438,178.3000030517578C143.10000610351562,181.1999969482422,150,186.60000610351562,156.10000610351562,191.3000030517578C158.89999389648438,193.5,161.60000610351562,195.5,164.3000030517578,197.1999969482422C168,199.39999389648438,171.5,200.3000030517578,176.10000610351562,200.3000030517578C182.10000610351562,200.3000030517578,190.10000610351562,198.6999969482422,203.1999969482422,195.89999389648438L206.8000030517578,195.1999969482422C231.39999389648438,190.10000610351562,248,184.39999389648438,259,180.60000610351562L260.3999938964844,180.10000610351562C267.5,177.6999969482422,284.3999938964844,176.6999969482422,304.1000061035156,176.1999969482422L331,176.10000610351562zM301.5,173.10000610351562C280.5,173.60000610351562,266,174.6999969482422,259.1000061035156,177.10000610351562L257.70001220703125,177.60000610351562C246.8000030517578,181.3000030517578,230.3000030517578,187,205.89999389648438,192.10000610351562L202.3000030517578,192.8000030517578C189.3000030517578,195.5,181.5,197.10000610351562,175.8000030517578,197.10000610351562C171.8000030517578,197.10000610351562,168.89999389648438,196.3000030517578,165.6999969482422,194.39999389648438C163.1999969482422,192.89999389648438,160.60000610351562,190.89999389648438,157.89999389648438,188.8000030517578C151.60000610351562,183.89999389648438,144.39999389648438,178.3000030517578,133.60000610351562,175.3000030517578C119.5999984741211,171.3000030517578,102.0999984741211,168.3000030517578,97.80000305175781,167.8000030517578C97.19999694824219,165.3000030517578,98.19999694824219,155.89999389648438,101.19999694824219,154.3000030517578C103,153.3000030517578,103.4000015258789,153.3000030517578,104.19999694824219,153.3000030517578C104.4000015258789,153.3000030517578,104.5999984741211,153.3000030517578,104.9000015258789,153.3000030517578C105.30000305175781,153.3000030517578,105.69999694824219,153.3000030517578,106.0999984741211,153.3000030517578C107.80000305175781,153.3000030517578,110.69999694824219,153.1999969482422,116.5999984741211,152.3000030517578C120,151.8000030517578,122.5999984741211,151.5,124.9000015258789,151.5C130.89999389648438,151.5,134.60000610351562,153.1999969482422,141.39999389648438,156.1999969482422C142.6999969482422,156.8000030517578,144,157.39999389648438,145.5,158C147.1999969482422,158.6999969482422,148.8000030517578,159.5,150.3000030517578,160.1999969482422C158.10000610351562,163.8000030517578,164.8000030517578,166.8000030517578,172.39999389648438,166.8000030517578C175.5,166.8000030517578,178.5,166.3000030517578,181.60000610351562,165.1999969482422C194.1999969482422,160.8000030517578,215.5,145.10000610351562,230.10000610351562,131.8000030517578C241.1999969482422,121.69999694824219,250.6999969482422,116.0999984741211,268.1000061035156,115.80000305175781C267.79998779296875,116,267.6000061035156,116.30000305175781,267.29998779296875,116.5L267.20001220703125,116.5999984741211C266.6000061035156,117.19999694824219,265.8999938964844,117.80000305175781,265.3999938964844,118.4000015258789L265.29998779296875,118.5C264.70001220703125,119.0999984741211,264.1000061035156,119.5999984741211,263.6000061035156,120.0999984741211C260.79998779296875,122.80000305175781,258.3999938964844,125.0999984741211,256.20001220703125,127.19999694824219C251.60000610351562,131.60000610351562,248.89999389648438,134.1999969482422,247.5,135.89999389648438L245.5,136.60000610351562L263.5,147.8000030517578C263.8999938964844,147.5,264.3999938964844,147.1999969482422,264.79998779296875,146.89999389648438C269.70001220703125,143.5,275.8999938964844,139,282.20001220703125,134C287.29998779296875,130,291.5,126.5999984741211,294.79998779296875,123.80000305175781L299.8999938964844,119.5999984741211L303.29998779296875,117L303.29998779296875,117L311.8999938964844,118.0999984741211L316.29998779296875,117.9000015258789C317.70001220703125,117.80000305175781,319.1000061035156,117.5999984741211,320.3999938964844,117.4000015258789L320.3999938964844,117.4000015258789C330.79998779296875,118.30000305175781,344.1000061035156,119.4000015258789,353,119.9000015258789C353.8999938964844,120,354.70001220703125,119.30000305175781,354.70001220703125,118.4000015258789C354.79998779296875,117.5,354.1000061035156,116.69999694824219,353.20001220703125,116.69999694824219C352.6000061035156,116.69999694824219,352,116.5999984741211,351.3999938964844,116.5999984741211C351.20001220703125,116.5999984741211,351,116.5999984741211,350.79998779296875,116.5999984741211C350.3999938964844,116.5999984741211,349.8999938964844,116.5,349.5,116.5C349.29998779296875,116.5,349.1000061035156,116.5,348.8999938964844,116.5C348.5,116.5,348,116.4000015258789,347.6000061035156,116.4000015258789C347.3999938964844,116.4000015258789,347.1000061035156,116.4000015258789,346.8999938964844,116.30000305175781C346.3999938964844,116.30000305175781,346,116.19999694824219,345.5,116.19999694824219C345.29998779296875,116.19999694824219,345.1000061035156,116.19999694824219,344.79998779296875,116.19999694824219C344.29998779296875,116.19999694824219,343.79998779296875,116.0999984741211,343.29998779296875,116.0999984741211C343.1000061035156,116.0999984741211,342.79998779296875,116.0999984741211,342.6000061035156,116C342.1000061035156,116,341.6000061035156,115.9000015258789,341,115.9000015258789C340.79998779296875,115.9000015258789,340.6000061035156,115.9000015258789,340.3999938964844,115.9000015258789C339.79998779296875,115.9000015258789,339.29998779296875,115.80000305175781,338.70001220703125,115.80000305175781C338.5,115.80000305175781,338.29998779296875,115.80000305175781,338.20001220703125,115.80000305175781C337.6000061035156,115.80000305175781,337,115.69999694824219,336.3999938964844,115.69999694824219C336.29998779296875,115.69999694824219,336.1000061035156,115.69999694824219,335.8999938964844,115.69999694824219C335.29998779296875,115.5999984741211,334.6000061035156,115.5999984741211,334,115.5C333.8999938964844,115.5,333.79998779296875,115.5,333.70001220703125,115.5C333,115.4000015258789,332.29998779296875,115.4000015258789,331.70001220703125,115.30000305175781C331.6000061035156,115.30000305175781,331.5,115.30000305175781,331.5,115.30000305175781C330.79998779296875,115.19999694824219,330.1000061035156,115.19999694824219,329.3999938964844,115.0999984741211C329.29998779296875,115.0999984741211,329.29998779296875,115.0999984741211,329.20001220703125,115.0999984741211C327.79998779296875,115,326.3999938964844,114.9000015258789,325.1000061035156,114.80000305175781C324.8999938964844,114.80000305175781,324.79998779296875,114.80000305175781,324.6000061035156,114.80000305175781C324.20001220703125,114.80000305175781,323.8999938964844,114.69999694824219,323.6000061035156,114.69999694824219C321.79998779296875,114.5999984741211,320.1000061035156,114.4000015258789,318.5,114.30000305175781C310.1000061035156,113.5999984741211,305.70001220703125,113.19999694824219,304.79998779296875,113.19999694824219C302.8999938964844,113.19999694824219,300.3999938964844,115.19999694824219,292.70001220703125,121.5C289.29998779296875,124.30000305175781,285.20001220703125,127.69999694824219,280.1000061035156,131.60000610351562C273.29998779296875,137,267.5,141.10000610351562,263.3999938964844,144L263.3999938964844,144L251.3000030517578,136.5C253,134.8000030517578,255.5,132.3000030517578,258.29998779296875,129.60000610351562C260.3999938964844,127.5999984741211,262.8999938964844,125.19999694824219,265.70001220703125,122.5C277.6000061035156,110.9000015258789,295.1000061035156,95.4000015258789,298.8999938964844,93.5C301.1000061035156,92.4000015258789,310,93.30000305175781,319.29998779296875,94.30000305175781C326.29998779296875,95,334.20001220703125,95.80000305175781,342.29998779296875,96.19999694824219C356.79998779296875,96.9000015258789,360.8999938964844,96,366.20001220703125,94.80000305175781C368.3999938964844,94.30000305175781,370.70001220703125,93.80000305175781,374.1000061035156,93.4000015258789C381.29998779296875,92.4000015258789,385.79998779296875,94.9000015258789,389.8999938964844,98.0999984741211C389.8999938964844,98.19999694824219,389.8999938964844,98.19999694824219,389.8999938964844,98.30000305175781L389.8999938964844,98.30000305175781C387.8999938964844,105.5999984741211,387.70001220703125,113.30000305175781,389,120L389,120.0999984741211C389.1000061035156,120.80000305175781,389.29998779296875,121.5,389.5,122.19999694824219C389.5,122.30000305175781,389.6000061035156,122.4000015258789,389.6000061035156,122.5C389.79998779296875,123.0999984741211,390,123.69999694824219,390.20001220703125,124.30000305175781C390.20001220703125,124.4000015258789,390.29998779296875,124.5999984741211,390.3999938964844,124.69999694824219C390.6000061035156,125.19999694824219,390.79998779296875,125.80000305175781,391,126.30000305175781C391.1000061035156,126.5,391.20001220703125,126.69999694824219,391.29998779296875,126.9000015258789C391.5,127.30000305175781,391.70001220703125,127.80000305175781,391.8999938964844,128.1999969482422C392,128.39999389648438,392.20001220703125,128.60000610351562,392.29998779296875,128.89999389648438C392.5,129.3000030517578,392.70001220703125,129.60000610351562,392.8999938964844,130C393.1000061035156,130.3000030517578,393.29998779296875,130.60000610351562,393.5,130.89999389648438C393.70001220703125,131.1999969482422,393.8999938964844,131.39999389648438,394,131.6999969482422C394.3999938964844,132.1999969482422,394.79998779296875,132.6999969482422,395.20001220703125,133.1999969482422C400.3999938964844,138.89999389648438,409.79998779296875,142.10000610351562,421,142.10000610351562C421.6000061035156,142.10000610351562,422.20001220703125,142.10000610351562,422.8999938964844,142.10000610351562C423,142.10000610351562,423.1000061035156,142.10000610351562,423.1000061035156,142.10000610351562C423.6000061035156,142.10000610351562,424.20001220703125,142,424.70001220703125,142L424.79998779296875,142C424.8999938964844,142,425,142,425.1000061035156,142L425.1000061035156,142C427.79998779296875,148.39999389648438,429.1000061035156,154.39999389648438,429.1000061035156,158.39999389648438C429.1000061035156,165.3000030517578,432.20001220703125,191.6999969482422,432.29998779296875,192.8000030517578C432.3999938964844,193.5,432.8999938964844,194,433.5,194.1999969482422C434.1000061035156,194.39999389648438,434.79998779296875,194.10000610351562,435.20001220703125,193.60000610351562C435.20001220703125,193.60000610351562,438.8999938964844,188.60000610351562,447.1000061035156,180.10000610351562C448.70001220703125,178.5,450.1000061035156,176.89999389648438,451.5,175.5C454.70001220703125,172.10000610351562,458,168.60000610351562,459.70001220703125,167.39999389648438L459.70001220703125,167.39999389648438C459.79998779296875,167.5,459.8999938964844,167.6999969482422,460.1000061035156,167.8000030517578L470.29998779296875,174.60000610351562L470.29998779296875,174.60000610351562C470.29998779296875,174.6999969482422,470.3999938964844,174.8000030517578,470.3999938964844,174.8000030517578C470.1000061035156,175.1999969482422,469.70001220703125,175.8000030517578,469.20001220703125,176.60000610351562C464.8999938964844,182.89999389648438,451.70001220703125,202.10000610351562,441.3999938964844,207.89999389648438C429.8999938964844,214.39999389648438,425.20001220703125,215.10000610351562,423.70001220703125,215.10000610351562C423,215.10000610351562,422.70001220703125,215,422.70001220703125,214.89999389648438L422.6000061035156,214.6999969482422C420.8999938964844,212.3000030517578,415.70001220703125,205,411.20001220703125,191C409.79998779296875,186.5,408.5,181.89999389648438,407.5,177.89999389648438C404.5,166.60000610351562,403,161.5,399.70001220703125,161.5C399.3999938964844,161.5,399.1000061035156,161.5,398.79998779296875,161.60000610351562C394.1000061035156,162.8000030517578,390.20001220703125,164.60000610351562,386.1000061035156,166.60000610351562C378.29998779296875,170.39999389648438,370.29998779296875,174.3000030517578,354.70001220703125,174.3000030517578C349.8999938964844,174.3000030517578,344.6000061035156,173.89999389648438,338.8999938964844,173.1999969482422C338.79998779296875,173.1999969482422,338.79998779296875,173.1999969482422,338.70001220703125,173.1999969482422C334.5,173.1999969482422,330.3999938964844,173.1999969482422,326.5,173.1999969482422L301.5,173.10000610351562zM205.1999969482422,147.8000030517578C197.8000030517578,153.10000610351562,190.5,157.6999969482422,184.5,160.5L184.5,160.5C183.60000610351562,158.3000030517578,182.1999969482422,153.6999969482422,181.1999969482422,150.10000610351562C179.3000030517578,143.5,177.3000030517578,136.8000030517578,175.60000610351562,134.10000610351562C175.1999969482422,133.39999389648438,175.3000030517578,132.1999969482422,176,130.60000610351562C177.8000030517578,126.5,182.1999969482422,122.30000305175781,183.8000030517578,121.5999984741211C184.39999389648438,122.4000015258789,185.60000610351562,124.0999984741211,186.8000030517578,125.80000305175781C191.3000030517578,132.10000610351562,198.39999389648438,142,205.1999969482422,147.8000030517578L205.1999969482422,147.8000030517578zM471.5,95.69999694824219C470.79998779296875,105.19999694824219,465,115.0999984741211,454.1000061035156,125.0999984741211C448,130.60000610351562,442.29998779296875,134.8000030517578,434.20001220703125,137C430.1000061035156,138.10000610351562,425.6000061035156,138.6999969482422,421.1000061035156,138.6999969482422C411,138.6999969482422,402.20001220703125,135.8000030517578,397.70001220703125,130.8000030517578C390.6000061035156,123,389.3999938964844,107.0999984741211,394.8999938964844,93.80000305175781C397.8999938964844,86.5999984741211,401.79998779296875,81.30000305175781,408.3999938964844,75.19999694824219C418.79998779296875,65.69999694824219,429,60.79999923706055,438.70001220703125,60.79999923706055C447.20001220703125,60.79999923706055,455.20001220703125,64.69999694824219,461.8999938964844,72.0999984741211C468.8999938964844,79.5999984741211,472.1000061035156,87.5,471.5,95.69999694824219z"/>
<path id="Strap" fill="#444444" d="M298.1000061035156,122.5999984741211C298.20001220703125,122.0999984741211,298.29998779296875,121.5999984741211,298.3999938964844,121.0999984741211L300,119.80000305175781L303.3999938964844,117.19999694824219L312,118.30000305175781L314.29998779296875,118.19999694824219L314.29998779296875,118.19999694824219C314.29998779296875,118.5999984741211,314.29998779296875,119.0999984741211,314.29998779296875,119.5L314.29998779296875,119.5999984741211C314.29998779296875,120.0999984741211,314.29998779296875,120.5,314.20001220703125,121L314.20001220703125,121.0999984741211L314.20001220703125,121.0999984741211C313.20001220703125,136.3000030517578,308.29998779296875,157,318.29998779296875,168.8000030517578C322.70001220703125,174,329,175.5,329,175.5L306.29998779296875,176.1999969482422C306.29998779296875,176.1999969482422,294.29998779296875,163.5,295.6000061035156,142.1999969482422C296.29998779296875,132.5,297.20001220703125,126.4000015258789,298.1000061035156,122.5999984741211L298.1000061035156,122.5999984741211zM295.79998779296875,93C296.79998779296875,92.30000305175781,297.6000061035156,91.80000305175781,298.1000061035156,91.5C300.20001220703125,90.5,305.1000061035156,90.69999694824219,310,91.0999984741211L311.29998779296875,91.0999984741211L311.1000061035156,89.80000305175781C310.8999938964844,88.5999984741211,310.70001220703125,87.30000305175781,310.5,86.0999984741211L310.3999938964844,85.69999694824219C310.20001220703125,84.4000015258789,310,83.0999984741211,309.79998779296875,81.80000305175781C309.6000061035156,80.5999984741211,309.3999938964844,79.4000015258789,309.29998779296875,78.19999694824219L309.20001220703125,77.4000015258789C309,76.19999694824219,308.8999938964844,75,308.70001220703125,73.80000305175781L308.6000061035156,72.69999694824219L293.6000061035156,76.4000015258789L293.6000061035156,76.4000015258789L292.8999938964844,76.5999984741211L292.79998779296875,77.30000305175781C292.79998779296875,77.80000305175781,292.79998779296875,78.30000305175781,292.70001220703125,78.80000305175781L292.70001220703125,79.19999694824219C292.70001220703125,79.5999984741211,292.70001220703125,80,292.70001220703125,80.5L292.70001220703125,80.9000015258789C292.70001220703125,81.4000015258789,292.70001220703125,82,292.79998779296875,82.5999984741211L292.79998779296875,82.9000015258789C292.79998779296875,83.4000015258789,292.8999938964844,83.9000015258789,292.8999938964844,84.4000015258789L292.8999938964844,84.80000305175781C293,85.4000015258789,293,86,293.1000061035156,86.5999984741211C293.20001220703125,87.19999694824219,293.20001220703125,87.9000015258789,293.29998779296875,88.5L293.29998779296875,88.9000015258789C293.3999938964844,89.4000015258789,293.5,90,293.5,90.5999984741211L293.5,90.9000015258789C293.6000061035156,91.5999984741211,293.70001220703125,92.19999694824219,293.79998779296875,92.9000015258789L294.5,93.69999694824219L295.79998779296875,93z"/>
<path id="StrapBorder" d="M293.79998779296875,77.19999694824219L301.5,75.30000305175781L307.70001220703125,73.80000305175781C307.8999938964844,75,308,76.19999694824219,308.20001220703125,77.4000015258789C308.20001220703125,77.69999694824219,308.29998779296875,78,308.29998779296875,78.19999694824219C308.5,79.4000015258789,308.6000061035156,80.5999984741211,308.79998779296875,81.80000305175781L308.79998779296875,81.80000305175781C309,83.0999984741211,309.20001220703125,84.4000015258789,309.3999938964844,85.69999694824219C309.3999938964844,85.80000305175781,309.3999938964844,86,309.5,86.0999984741211C309.70001220703125,87.4000015258789,310.1000061035156,90,310.1000061035156,90L313.5,90.30000305175781C312.5,84.5999984741211,311.6000061035156,78.5,310.8999938964844,72.80000305175781C310.79998779296875,72.4000015258789,310.79998779296875,72,310.70001220703125,71.5999984741211C310.6000061035156,71.0999984741211,310.29998779296875,70.5999984741211,309.8999938964844,70.4000015258789L309.6000061035156,70.19999694824219C309.20001220703125,70,308.79998779296875,69.9000015258789,308.3999938964844,70L291.8999938964844,74C291.29998779296875,74.19999694824219,290.79998779296875,74.69999694824219,290.70001220703125,75.30000305175781L290.70001220703125,75.4000015258789C290.70001220703125,75.5999984741211,290.6000061035156,75.9000015258789,290.6000061035156,76.0999984741211C290.6000061035156,76.5999984741211,290.5,77.0999984741211,290.5,77.5999984741211C290.29998779296875,82.19999694824219,292.1000061035156,94.30000305175781,292.1000061035156,94.30000305175781L295,92C294.8999938964844,91.30000305175781,294.79998779296875,90.5999984741211,294.70001220703125,89.9000015258789C294.70001220703125,89.80000305175781,294.70001220703125,89.69999694824219,294.70001220703125,89.5999984741211C294.6000061035156,89,294.5,88.5,294.5,88C294.5,87.9000015258789,294.5,87.80000305175781,294.5,87.5999984741211C294.3999938964844,87,294.29998779296875,86.30000305175781,294.29998779296875,85.69999694824219L294.29998779296875,85.69999694824219C294.20001220703125,85.0999984741211,294.20001220703125,84.5,294.1000061035156,84C294.1000061035156,83.9000015258789,294.1000061035156,83.69999694824219,294.1000061035156,83.5999984741211C294.1000061035156,83.0999984741211,294,82.5999984741211,294,82.0999984741211C294,82,294,81.9000015258789,294,81.80000305175781C294,81.19999694824219,293.8999938964844,80.69999694824219,293.8999938964844,80.19999694824219C293.8999938964844,80.0999984741211,293.8999938964844,80,293.8999938964844,79.9000015258789C293.8999938964844,79.5,293.8999938964844,79.0999984741211,293.8999938964844,78.69999694824219C293.8999938964844,78.5999984741211,293.8999938964844,78.4000015258789,293.8999938964844,78.30000305175781C293.79998779296875,78.0999984741211,293.79998779296875,77.5999984741211,293.79998779296875,77.19999694824219L301.5,75.30000305175781M326.1000061035156,172.8000030517578L326.1000061035156,172.8000030517578C324.1000061035156,171.89999389648438,321.6000061035156,170.3000030517578,319.6000061035156,167.89999389648438C312,158.89999389648438,313.5,144,315,130.8000030517578C315.5,126.30000305175781,315.8999938964844,121.9000015258789,316,118L312.79998779296875,118.0999984741211C312.70001220703125,121.80000305175781,312.20001220703125,126.0999984741211,311.79998779296875,130.39999389648438C310.29998779296875,144.1999969482422,308.70001220703125,159.89999389648438,317.20001220703125,170C318.70001220703125,171.8000030517578,320.3999938964844,173.1999969482422,322,174.1999969482422L307.1000061035156,174.60000610351562C305,172,296.20001220703125,160.3000030517578,297.29998779296875,142.3000030517578C298,131,298.8999938964844,124,299.6000061035156,120L295.79998779296875,123C295.20001220703125,127.30000305175781,294.6000061035156,133.39999389648438,294,142C293.1000061035156,156.6999969482422,298.20001220703125,167.39999389648438,301.79998779296875,172.89999389648438L304.1000061035156,176.10000610351562L304.1000061035156,176.10000610351562C304.6000061035156,176.8000030517578,305,177.10000610351562,305.1000061035156,177.1999969482422C305.3999938964844,177.5,305.79998779296875,177.6999969482422,306.29998779296875,177.6999969482422L306.29998779296875,177.6999969482422L329,177C329.70001220703125,177,330.3999938964844,176.5,330.5,175.8000030517578L330.5,175.8000030517578L326.1000061035156,172.8000030517578z"/>
<path id="Straps" fill="#D4FBFF" d="M406.70001220703125,139.8000030517578C403.8999938964844,140.89999389648438,401,142.5,398.3999938964844,144.60000610351562C391.20001220703125,136.8000030517578,381.5,123.19999694824219,381.5,120L381.5,120L381.5,119.9000015258789L381.5,120C384.20001220703125,118,386.5,115.80000305175781,388.5,113.5C388.20001220703125,107.5,389,101,391.1000061035156,95C389.29998779296875,96.5,379.6000061035156,115.9000015258789,366.3999938964844,119.5C353,123.0999984741211,339.1000061035156,121.19999694824219,334.29998779296875,117C330.3999938964844,114.5,323.3999938964844,116.69999694824219,323.3999938964844,116.69999694824219C323.3999938964844,116.69999694824219,339.70001220703125,135.89999389648438,369.70001220703125,126.19999694824219C370.70001220703125,125.9000015258789,371.70001220703125,125.5,372.6000061035156,125.0999984741211L372.6000061035156,125.0999984741211L372.6000061035156,125.0999984741211L372.6000061035156,125.0999984741211C374.79998779296875,128.3000030517578,387.20001220703125,146.60000610351562,392.20001220703125,151.1999969482422L392.20001220703125,151.1999969482422C385.70001220703125,160.3000030517578,384.5,170.5,384.5,170.5L394.79998779296875,166.60000610351562C394.79998779296875,166.60000610351562,395.3999938964844,158.8000030517578,404,151.3000030517578C412.6000061035156,143.8000030517578,419.6000061035156,144.3000030517578,428.29998779296875,142.10000610351562L428.1000061035156,141.5C425.79998779296875,141.8000030517578,423.5,141.89999389648438,421.20001220703125,141.89999389648438C415.79998779296875,141.89999389648438,410.8999938964844,141.1999969482422,406.70001220703125,139.8000030517578z"/>
<path id="Breather" fill="#231F20" d="M245.5,170.3000030517578C245.5,171.3000030517578,244.6999969482422,172.10000610351562,243.6999969482422,172.10000610351562C243.1999969482422,172.10000610351562,242.8000030517578,171.89999389648438,242.39999389648438,171.60000610351562C241.8000030517578,171.6999969482422,241.10000610351562,171.8000030517578,240.39999389648438,171.8000030517578L240.39999389648438,171.8000030517578C239.8000030517578,171.8000030517578,239.3000030517578,171.6999969482422,238.8000030517578,171.6999969482422C239.39999389648438,173.8000030517578,241.3000030517578,175.39999389648438,243.60000610351562,175.39999389648438C246.39999389648438,175.39999389648438,248.60000610351562,173.10000610351562,248.60000610351562,170.39999389648438C248.60000610351562,169.60000610351562,248.39999389648438,168.8000030517578,248,168.10000610351562L247.89999389648438,168.1999969482422C247.1999969482422,169,246.39999389648438,169.6999969482422,245.5,170.3000030517578z"/>
<path id="FaceBorder" fill="#232323" d="M456.3999938964844,78.0999984741211C447.8999938964844,68.30000305175781,439.70001220703125,63.599998474121094,431.5,63.599998474121094C421.79998779296875,63.599998474121094,413.79998779296875,70.5999984741211,408.70001220703125,75.80000305175781C402.70001220703125,81.9000015258789,398.79998779296875,86.69999694824219,396,93.4000015258789C390.6000061035156,106.30000305175781,391.8999938964844,121.9000015258789,399,129.6999969482422C403.70001220703125,134.8000030517578,412.1000061035156,137.6999969482422,422.1000061035156,137.6999969482422C426.3999938964844,137.6999969482422,430.70001220703125,137.10000610351562,434.6000061035156,136.10000610351562C442,134.10000610351562,447.8999938964844,130.60000610351562,453.70001220703125,124.69999694824219L454.1000061035156,124.30000305175781C467.20001220703125,110.9000015258789,476.70001220703125,101.30000305175781,456.3999938964844,78.0999984741211zM451.70001220703125,122L451.29998779296875,122.4000015258789C445.8999938964844,127.9000015258789,440.70001220703125,131,433.70001220703125,132.89999389648438C430.1000061035156,133.89999389648438,426,134.39999389648438,422.1000061035156,134.39999389648438C413.1000061035156,134.39999389648438,405.3999938964844,131.8000030517578,401.3999938964844,127.4000015258789C395.1000061035156,120.5,394.1000061035156,106.4000015258789,399,94.5999984741211C401.6000061035156,88.4000015258789,405.3999938964844,83.80000305175781,411,78C418.6000061035156,70.19999694824219,425,66.80000305175781,431.5,66.80000305175781C438.79998779296875,66.80000305175781,446.1000061035156,71.19999694824219,454,80.19999694824219C472.20001220703125,101.0999984741211,464.8999938964844,108.5,451.70001220703125,122z"/>
<path id="StrapsBorder" d="M398.5,142.39999389648438C400.3999938964844,141,402.3999938964844,139.89999389648438,404.3999938964844,139C405.8999938964844,139.60000610351562,407.6000061035156,140.10000610351562,409.29998779296875,140.60000610351562C405.8999938964844,141.6999969482422,402.5,143.39999389648438,399.3999938964844,145.89999389648438C391,152.8000030517578,387.70001220703125,163.10000610351562,386.6000061035156,168L393.29998779296875,165.5C393.79998779296875,163,395.70001220703125,156.39999389648438,402.8999938964844,150.10000610351562C409.6000061035156,144.3000030517578,415.29998779296875,143.10000610351562,421.29998779296875,141.89999389648438C424.1000061035156,141.89999389648438,426.8999938964844,141.6999969482422,429.70001220703125,141.1999969482422L429.79998779296875,141.60000610351562C429.8999938964844,142,429.8999938964844,142.5,429.70001220703125,142.8000030517578C429.5,143.1999969482422,429.1000061035156,143.39999389648438,428.70001220703125,143.60000610351562C426.6000061035156,144.1999969482422,424.5,144.5,422.6000061035156,144.89999389648438C416.6000061035156,146,411.29998779296875,147,405.1000061035156,152.39999389648438C397.1000061035156,159.39999389648438,396.5,166.60000610351562,396.5,166.60000610351562C396.5,167.1999969482422,396,167.8000030517578,395.5,168L385.20001220703125,171.89999389648438C385,172,384.79998779296875,172,384.6000061035156,172C384.20001220703125,172,383.8999938964844,171.89999389648438,383.6000061035156,171.60000610351562C383.20001220703125,171.1999969482422,382.8999938964844,170.6999969482422,383,170.10000610351562C383.1000061035156,169.60000610351562,384.29998779296875,160.10000610351562,390.29998779296875,151.1999969482422L390.29998779296875,151.1999969482422C385.20001220703125,145.8000030517578,376.29998779296875,133,372.1000061035156,126.9000015258789L372.1000061035156,126.9000015258789C371.5,127.0999984741211,370.8999938964844,127.30000305175781,370.29998779296875,127.5C364.5,129.39999389648438,358.79998779296875,130.3000030517578,353.29998779296875,130.3000030517578L353.29998779296875,130.3000030517578C333.29998779296875,130.3000030517578,322.70001220703125,118,322.29998779296875,117.5C321.8999938964844,117.0999984741211,321.79998779296875,116.5,322,116C322.1000061035156,115.5,322.6000061035156,115.0999984741211,323.1000061035156,114.9000015258789C323.20001220703125,114.9000015258789,326.20001220703125,113.9000015258789,329.5,113.9000015258789C331.8999938964844,113.9000015258789,333.79998779296875,114.4000015258789,335.29998779296875,115.30000305175781C335.3999938964844,115.30000305175781,335.3999938964844,115.4000015258789,335.5,115.4000015258789C338.29998779296875,117.80000305175781,344.79998779296875,119.4000015258789,352.1000061035156,119.4000015258789C356.79998779296875,119.4000015258789,361.6000061035156,118.80000305175781,366.1000061035156,117.5999984741211C375.8999938964844,115,383.79998779296875,102.80000305175781,387.70001220703125,97C389.29998779296875,94.5,389.8999938964844,93.69999694824219,390.5,93.30000305175781C390.8999938964844,93,391.3999938964844,92.9000015258789,392,92.9000015258789L392.1000061035156,92.9000015258789C391.20001220703125,95,390.6000061035156,97.30000305175781,390.1000061035156,99.5C385.8999938964844,105.9000015258789,377.70001220703125,117.9000015258789,367.1000061035156,120.80000305175781C362.3999938964844,122.0999984741211,357.20001220703125,122.80000305175781,352.29998779296875,122.80000305175781C344.20001220703125,122.80000305175781,337.1000061035156,121,333.70001220703125,118.0999984741211C332.70001220703125,117.5,331.3999938964844,117.19999694824219,329.70001220703125,117.19999694824219C328.79998779296875,117.19999694824219,327.8999938964844,117.30000305175781,327,117.4000015258789C330.79998779296875,120.69999694824219,339.8999938964844,127.0999984741211,353.5,127.0999984741211L353.5,127.0999984741211C358.6000061035156,127.0999984741211,364,126.19999694824219,369.5,124.4000015258789C378.1000061035156,121.5999984741211,384.3999938964844,116.0999984741211,388.70001220703125,110.80000305175781C388.70001220703125,112.4000015258789,388.79998779296875,114,388.8999938964844,115.5C387.29998779296875,117.19999694824219,385.5,118.9000015258789,383.5,120.4000015258789L383.5,120.4000015258789C384.3999938964844,124.0999984741211,391.79998779296875,134.89999389648438,398.5,142.39999389648438L398.5,142.39999389648438zM396.1000061035156,144.5C390.8999938964844,138.60000610351562,383,128.3000030517578,380.6000061035156,122.69999694824219L380.6000061035156,122.69999694824219C378.8999938964844,123.80000305175781,377,124.9000015258789,375,125.9000015258789L375,125.9000015258789C381.3999938964844,135.3000030517578,388.3999938964844,144.8000030517578,392,148.89999389648438L392,148.89999389648438C393.20001220703125,147.3000030517578,394.5,145.8000030517578,396.1000061035156,144.5L396.1000061035156,144.5z"/>
<path id="Tube" fill="#FF6D00" d="M383.29998779296875,68.30000305175781C383.29998779296875,56.79999923706055,357.3999938964844,40.099998474121094,341.5,69.5S305.20001220703125,172.8000030517578,271,171.1999969482422C261.5,170.5,254.3000030517578,169.10000610351562,254.3000030517578,169.10000610351562L253.39999389648438,174.89999389648438C253.39999389648438,174.89999389648438,291.79998779296875,189.1999969482422,309.70001220703125,152.1999969482422C327.6000061035156,115.19999694824219,336.29998779296875,96.0999984741211,346.29998779296875,74.69999694824219C356.29998779296875,53.29999923706055,372.5,58,378.1000061035156,68.30000305175781L383.29998779296875,68.30000305175781L383.29998779296875,68.30000305175781z"/>
<path id="TubeBorder" d="M363.8999938964844,51.400001525878906C357.29998779296875,51.400001525878906,347.8999938964844,54.400001525878906,340.1000061035156,68.69999694824219C336.29998779296875,75.80000305175781,332.1000061035156,85.5,327.79998779296875,95.80000305175781C313.8999938964844,128.60000610351562,296.5,169.5,272.1000061035156,169.5L272.1000061035156,169.5C271.79998779296875,169.5,271.3999938964844,169.5,271.1000061035156,169.5C263.79998779296875,168.89999389648438,257.79998779296875,168,255.60000610351562,167.60000610351562L255.60000610351562,167.60000610351562C255.1999969482422,165.6999969482422,254.3000030517578,164,253.1999969482422,162.60000610351562C253,162.8000030517578,252.6999969482422,163.10000610351562,252.5,163.39999389648438C252,163.89999389648438,251.39999389648438,164.5,250.89999389648438,165C252,166.5,252.60000610351562,168.3000030517578,252.60000610351562,170.3000030517578C252.60000610351562,175.1999969482422,248.60000610351562,179.1999969482422,243.6999969482422,179.1999969482422C239.6999969482422,179.1999969482422,236.3000030517578,176.60000610351562,235.1999969482422,173C234.39999389648438,173.89999389648438,233.60000610351562,174.8000030517578,232.6999969482422,175.5C234.6999969482422,179.60000610351562,238.8000030517578,182.5,243.6999969482422,182.5C248,182.5,251.8000030517578,180.1999969482422,254,176.89999389648438L254,176.89999389648438C256.3999938964844,177.6999969482422,262.70001220703125,179.39999389648438,270.5,179.39999389648438C283.29998779296875,179.39999389648438,300.70001220703125,174.8000030517578,311.20001220703125,153.10000610351562C327.3999938964844,119.5999984741211,336,101.0999984741211,345,81.5999984741211L347.79998779296875,75.5C352,66.4000015258789,357.8999938964844,61.29999923706055,364.29998779296875,61.29999923706055C369.20001220703125,61.29999923706055,374.1000061035156,64.4000015258789,376.70001220703125,69.19999694824219C377,69.69999694824219,377.5,70.0999984741211,378.1000061035156,70.0999984741211L383.29998779296875,70.0999984741211C384.20001220703125,70.0999984741211,384.8999938964844,69.4000015258789,384.8999938964844,68.5C384.8999938964844,60.70000076293945,375.20001220703125,51.400001525878906,363.8999938964844,51.400001525878906zM379,66.69999694824219C375.79998779296875,61.400001525878906,370.1000061035156,57.900001525878906,364.20001220703125,57.900001525878906C359.70001220703125,57.900001525878906,351.20001220703125,60,344.70001220703125,74L341.8999938964844,80.0999984741211C332.8999938964844,99.5999984741211,324.29998779296875,118.0999984741211,308.1000061035156,151.60000610351562C298.29998779296875,171.8000030517578,282.1000061035156,176.10000610351562,270.29998779296875,176.10000610351562C263.29998779296875,176.10000610351562,257.6000061035156,174.60000610351562,255.10000610351562,173.89999389648438L255.5,171.10000610351562C258.20001220703125,171.5,263.8999938964844,172.39999389648438,270.70001220703125,172.89999389648438C271.1000061035156,172.89999389648438,271.5,172.89999389648438,271.8999938964844,172.89999389648438L271.8999938964844,172.89999389648438C298.3999938964844,172.89999389648438,316.29998779296875,130.89999389648438,330.6000061035156,97.19999694824219C334.8999938964844,87,339,77.30000305175781,342.79998779296875,70.30000305175781C349.79998779296875,57.400001525878906,358,54.70000076293945,363.70001220703125,54.70000076293945C372.29998779296875,54.70000076293945,380,61,381.29998779296875,66.69999694824219L379,66.69999694824219L379,66.69999694824219z"/>
<path id="Valve" fill="#E5E5E5" d="M372.3999938964844,81C373.5,85.4000015258789,376.8999938964844,88.5999984741211,381,88.5999984741211C385.8999938964844,88.5999984741211,389.8999938964844,83.9000015258789,389.8999938964844,78C389.8999938964844,72.0999984741211,385.8999938964844,67.4000015258789,381,67.4000015258789C376.6000061035156,67.4000015258789,373,71.0999984741211,372.20001220703125,76L372.20001220703125,76L366.70001220703125,76L366.5,76C365.70001220703125,73.80000305175781,363.8999938964844,72.30000305175781,361.8999938964844,72.30000305175781C359.1000061035156,72.30000305175781,356.79998779296875,75.19999694824219,356.79998779296875,78.80000305175781C356.79998779296875,82.4000015258789,359.1000061035156,85.30000305175781,361.8999938964844,85.30000305175781C364.1000061035156,85.30000305175781,366,83.5,366.70001220703125,81L366.70001220703125,81L372.3999938964844,81L372.3999938964844,81z"/>
<path id="Bubbles" fill="#D4FBFF" d="M416.29998779296875,30.5C418.6000061035156,30.5,420.5,32.400001525878906,420.5,34.79999923706055C420.5,37.20000076293945,418.6000061035156,39,416.29998779296875,39C414,39,412.1000061035156,37.099998474121094,412.1000061035156,34.79999923706055S413.8999938964844,30.5,416.29998779296875,30.5zM394,17.200000762939453C394,20.700000762939453,396.79998779296875,23.399999618530273,400.20001220703125,23.399999618530273C403.6000061035156,23.399999618530273,406.3999938964844,20.600000381469727,406.3999938964844,17.200000762939453C406.3999938964844,13.800000190734863,403.6000061035156,11,400.20001220703125,11S394,13.800000190734863,394,17.200000762939453zM405,47.5C405,48.900001525878906,406.1000061035156,50,407.5,50C408.8999938964844,50,410,48.900001525878906,410,47.5C410,46.099998474121094,408.8999938964844,45,407.5,45S405,46.099998474121094,405,47.5z"/>
<path id="BubbleBorder" d="M416.29998779296875,40C413.3999938964844,40,411.1000061035156,37.599998474121094,411.1000061035156,34.79999923706055C411.1000061035156,32,413.5,29.5,416.29998779296875,29.5C419.1000061035156,29.5,421.5,31.899999618530273,421.5,34.79999923706055C421.5,37.70000076293945,419.20001220703125,40,416.29998779296875,40zM416.29998779296875,31.5C414.5,31.5,413.1000061035156,33,413.1000061035156,34.79999923706055C413.1000061035156,36.599998474121094,414.6000061035156,38,416.29998779296875,38C418,38,419.5,36.5,419.5,34.79999923706055S418.1000061035156,31.5,416.29998779296875,31.5zM400.29998779296875,24.5C396.29998779296875,24.5,393.1000061035156,21.200000762939453,393.1000061035156,17.299999237060547C393.1000061035156,13.399999618530273,396.3999938964844,10.100000381469727,400.29998779296875,10.100000381469727C404.20001220703125,10.100000381469727,407.5,13.399999618530273,407.5,17.299999237060547S404.29998779296875,24.5,400.29998779296875,24.5zM400.29998779296875,12C397.3999938964844,12,395.1000061035156,14.399999618530273,395.1000061035156,17.200000762939453C395.1000061035156,20,397.5,22.399999618530273,400.29998779296875,22.399999618530273C403.1000061035156,22.399999618530273,405.5,20,405.5,17.200000762939453S403.20001220703125,12,400.29998779296875,12zM407.5,51C405.6000061035156,51,404,49.400001525878906,404,47.5C404,45.599998474121094,405.6000061035156,44,407.5,44C409.3999938964844,44,411,45.599998474121094,411,47.5S409.5,51,407.5,51zM407.5,46C406.70001220703125,46,406,46.70000076293945,406,47.5C406,48.29999923706055,406.70001220703125,49,407.5,49C408.29998779296875,49,409,48.29999923706055,409,47.5S408.3999938964844,46,407.5,46z"/>
<path id="ValveBorder" d="M367.8999938964844,82.5999984741211L371.20001220703125,82.5999984741211L371.20001220703125,82.5999984741211C372.79998779296875,87.0999984741211,376.6000061035156,90.19999694824219,381,90.19999694824219C386.79998779296875,90.19999694824219,391.6000061035156,84.69999694824219,391.6000061035156,78C391.6000061035156,71.30000305175781,386.8999938964844,65.80000305175781,381,65.80000305175781C376.29998779296875,65.80000305175781,372.20001220703125,69.4000015258789,370.8999938964844,74.4000015258789L370.8999938964844,74.4000015258789L367.6000061035156,74.4000015258789L367.6000061035156,74.4000015258789C366.3999938964844,72.19999694824219,364.29998779296875,70.80000305175781,362,70.80000305175781C358.29998779296875,70.80000305175781,355.20001220703125,74.4000015258789,355.20001220703125,78.9000015258789C355.20001220703125,83.4000015258789,358.20001220703125,87,362,87C364.5,86.9000015258789,366.79998779296875,85.0999984741211,367.8999938964844,82.5999984741211L367.8999938964844,82.5999984741211zM381,87C377,87,373.70001220703125,83,373.70001220703125,78C373.70001220703125,73,377,69,381,69C385,69,388.29998779296875,73,388.29998779296875,78C388.29998779296875,82.9000015258789,385,87,381,87zM361.8999938964844,83.5999984741211C360,83.5999984741211,358.3999938964844,81.4000015258789,358.3999938964844,78.80000305175781C358.3999938964844,76.19999694824219,360,74,361.8999938964844,74C363.79998779296875,74,365.3999938964844,76.19999694824219,365.3999938964844,78.80000305175781S363.79998779296875,83.5999984741211,361.8999938964844,83.5999984741211zM368.70001220703125,78.80000305175781C368.70001220703125,78.4000015258789,368.70001220703125,78,368.6000061035156,77.5999984741211L370.3999938964844,77.5999984741211C370.3999938964844,77.69999694824219,370.3999938964844,77.80000305175781,370.3999938964844,78C370.3999938964844,78.5,370.3999938964844,78.9000015258789,370.5,79.4000015258789L368.70001220703125,79.4000015258789C368.70001220703125,79.19999694824219,368.70001220703125,79,368.70001220703125,78.80000305175781zM381.20001220703125,74.30000305175781C382.79998779296875,74.30000305175781,384.20001220703125,75.9000015258789,384.20001220703125,78C384.20001220703125,80.0999984741211,382.8999938964844,81.69999694824219,381.20001220703125,81.69999694824219C379.6000061035156,81.69999694824219,378.20001220703125,80.0999984741211,378.20001220703125,78S379.6000061035156,74.30000305175781,381.20001220703125,74.30000305175781z"/>
</g>
</svg>