<svg xmlns="http://www.w3.org/2000/svg" xmlns:xlink="http://www.w3.org/1999/xlink" viewBox= "0 0 143 407" width="143px" height="407px">
<g xmlns="http://www.w3.org/2000/svg" id="TeenBoy1V2.svg">
<path id="Pants" fill="#D1D1D1" d="M38.400001525878906,212.8000030517578C32.900001525878906,216.3000030517578,32.900001525878906,250.89999389648438,34.400001525878906,274.20001220703125C35.900001525878906,297.5,33.400001525878906,325.5,37.20000076293945,325.5C41,325.5,46.20000076293945,322.6000061035156,53,323.1000061035156C59.79999923706055,323.6000061035156,64.5,325.29998779296875,65.4000015258789,324.1000061035156C66.30000305175781,322.8999938964844,68.0999984741211,291.70001220703125,68.4000015258789,283.70001220703125C68.5999984741211,275.70001220703125,74.30000305175781,260.5,75.0999984741211,259.79998779296875C75.80000305175781,259.1000061035156,77,277.1000061035156,78.19999694824219,284.8999938964844C79.4000015258789,292.70001220703125,77.69999694824219,323.29998779296875,79.19999694824219,323.6000061035156C80.69999694824219,323.79998779296875,88.69999694824219,321.70001220703125,97.0999984741211,322.1000061035156C105.5999984741211,322.6000061035156,109,324,109.69999694824219,321.8999938964844C110.4000015258789,319.70001220703125,112.9000015258789,296.70001220703125,112.9000015258789,285.79998779296875C112.9000015258789,274.8999938964844,115,225.8000030517578,106.5,215.39999389648438C103.5999984741211,214.3000030517578,43.79999923706055,209.3000030517578,38.400001525878906,212.8000030517578z"/>
<path id="PantsBorder" d="M37.20000076293945,327.1000061035156C36.5,327.1000061035156,35.900001525878906,326.79998779296875,35.400001525878906,326.29998779296875C33.29999923706055,324.20001220703125,33.20000076293945,316.70001220703125,33.20000076293945,301.29998779296875C33.20000076293945,292.79998779296875,33.20000076293945,283.20001220703125,32.70000076293945,274.29998779296875C32.29999923706055,268.3999938964844,29.299999237060547,216.5,37.5,211.39999389648438C38.599998474121094,210.6999969482422,41.099998474121094,209.89999389648438,51,209.89999389648438C70.30000305175781,209.89999389648438,104.4000015258789,212.8000030517578,107,213.6999969482422C107.30000305175781,213.8000030517578,107.5999984741211,214,107.80000305175781,214.1999969482422C114.5999984741211,222.6999969482422,115,252.10000610351562,114.5999984741211,279.79998779296875C114.5999984741211,282.20001220703125,114.5,284.20001220703125,114.5,285.6000061035156C114.5,296.6000061035156,112.0999984741211,319.79998779296875,111.30000305175781,322.29998779296875C110.5,324.6000061035156,108.19999694824219,324.6000061035156,107.4000015258789,324.6000061035156L107.4000015258789,324.6000061035156C106.4000015258789,324.6000061035156,105.19999694824219,324.5,103.5999984741211,324.29998779296875C101.9000015258789,324.1000061035156,99.69999694824219,323.79998779296875,97,323.70001220703125C96.19999694824219,323.70001220703125,95.4000015258789,323.6000061035156,94.5999984741211,323.6000061035156C90,323.6000061035156,85.80000305175781,324.29998779296875,82.9000015258789,324.70001220703125C80.9000015258789,325,79.5999984741211,325.20001220703125,78.9000015258789,325.1000061035156C77.19999694824219,324.79998779296875,77,323.1000061035156,76.9000015258789,318.20001220703125C76.80000305175781,315,76.9000015258789,310.70001220703125,76.9000015258789,306.20001220703125C77,298,77.0999984741211,288.70001220703125,76.5,285.1000061035156C76,281.70001220703125,75.5,276.6000061035156,75,271.70001220703125C74.80000305175781,269.70001220703125,74.5999984741211,267.3999938964844,74.4000015258789,265.5C72.5999984741211,270.6000061035156,70.0999984741211,278.70001220703125,70,283.79998779296875C70,284.20001220703125,68.4000015258789,323,66.69999694824219,325.20001220703125C65.9000015258789,326.20001220703125,64.5,326.20001220703125,64,326.20001220703125C62.900001525878906,326.20001220703125,61.599998474121094,326,59.79999923706055,325.70001220703125C57.900001525878906,325.3999938964844,55.5,325,52.79999923706055,324.79998779296875C49,324.5,45.70000076293945,325.3999938964844,42.900001525878906,326.20001220703125C40.900001525878906,326.6000061035156,39,327.1000061035156,37.20000076293945,327.1000061035156zM51,213.1999969482422C41.20000076293945,213.1999969482422,39.400001525878906,214,39.20000076293945,214.1999969482422C35.5,216.60000610351562,34,243.5,35.900001525878906,274.20001220703125C36.5,283.20001220703125,36.400001525878906,292.8999938964844,36.400001525878906,301.3999938964844C36.400001525878906,310.8999938964844,36.29999923706055,321.70001220703125,37.5,323.8999938964844C38.79999923706055,323.79998779296875,40.29999923706055,323.3999938964844,42,323C45.099998474121094,322.20001220703125,48.70000076293945,321.20001220703125,53,321.5C55.79999923706055,321.70001220703125,58.29999923706055,322.1000061035156,60.29999923706055,322.3999938964844C61.900001525878906,322.70001220703125,63.29999923706055,322.8999938964844,64,322.8999938964844C64.9000015258789,318.3999938964844,66.4000015258789,292,66.69999694824219,283.70001220703125C66.9000015258789,275.79998779296875,72.5,260,73.80000305175781,258.70001220703125C74.0999984741211,258.3999938964844,74.5999984741211,258.20001220703125,75,258.20001220703125C76.69999694824219,258.20001220703125,76.9000015258789,259.79998779296875,77.30000305175781,263.20001220703125C77.5999984741211,265.3999938964844,77.9000015258789,268.29998779296875,78.19999694824219,271.5C78.69999694824219,276.20001220703125,79.19999694824219,281.5,79.69999694824219,284.70001220703125C80.30000305175781,288.6000061035156,80.19999694824219,297.6000061035156,80.0999984741211,306.29998779296875C80,312.20001220703125,80,319.29998779296875,80.19999694824219,321.8999938964844C80.80000305175781,321.79998779296875,81.5,321.70001220703125,82.19999694824219,321.6000061035156C85.0999984741211,321.1000061035156,89.5999984741211,320.3999938964844,94.4000015258789,320.3999938964844C95.30000305175781,320.3999938964844,96.19999694824219,320.3999938964844,97,320.5C99.80000305175781,320.70001220703125,102,320.8999938964844,103.69999694824219,321.1000061035156C105.19999694824219,321.29998779296875,106.30000305175781,321.3999938964844,107.0999984741211,321.3999938964844L107.0999984741211,321.3999938964844C107.5999984741211,321.3999938964844,107.80000305175781,321.3999938964844,107.9000015258789,321.29998779296875C108.5999984741211,319,111,296.5,111,285.70001220703125C111,284.29998779296875,111,282.29998779296875,111.0999984741211,279.8999938964844C111.30000305175781,265.1000061035156,112,226.3000030517578,105.4000015258789,216.8000030517578C101.0999984741211,216,69.4000015258789,213.1999969482422,51,213.1999969482422zM75,240.60000610351562C75.19999694824219,240.60000610351562,75.5,240.60000610351562,75.9000015258789,240.60000610351562C80.80000305175781,240.39999389648438,82.30000305175781,240.1999969482422,82.5,238.89999389648438C83.0999984741211,235,82.69999694824219,225.10000610351562,82.5,219.8000030517578L82.4000015258789,218.3000030517578C82.4000015258789,217.6999969482422,81.9000015258789,217.3000030517578,81.4000015258789,217.3000030517578C80.80000305175781,217.3000030517578,80.4000015258789,217.8000030517578,80.4000015258789,218.3000030517578L80.5,219.8000030517578C80.69999694824219,224.89999389648438,81,234.1999969482422,80.5999984741211,238.1999969482422C79.5999984741211,238.5,76.80000305175781,238.60000610351562,75.80000305175781,238.60000610351562C74.69999694824219,238.60000610351562,74.5999984741211,238.60000610351562,74.30000305175781,238.6999969482422C73.80000305175781,238.89999389648438,73.5999984741211,239.5,73.80000305175781,240C74,240.39999389648438,74.30000305175781,240.60000610351562,74.69999694824219,240.60000610351562C74.80000305175781,240.60000610351562,74.9000015258789,240.60000610351562,75,240.60000610351562z"/>
<path id="Body" fill="#FADBBD" d="M57,89.5999984741211C51.900001525878906,86.0999984741211,47.20000076293945,80.5999984741211,44.29999923706055,74.0999984741211L46.20000076293945,73C45.79999923706055,73.5,45.20000076293945,73.80000305175781,44.70000076293945,74C42.29999923706055,74.69999694824219,39.599998474121094,72.30000305175781,38.599998474121094,68.69999694824219C37.599998474121094,65.0999984741211,38.79999923706055,61.70000076293945,41.20000076293945,61C42.099998474121094,60.79999923706055,43.099998474121094,60.900001525878906,44,61.5L41,60.900001525878906C41,60.29999923706055,41,59.70000076293945,41,59.20000076293945C41,56.599998474121094,41.29999923706055,46,41.79999923706055,43.79999923706055C44.70000076293945,31,55.5,25.5,68.30000305175781,25.5S91.9000015258789,31,94.80000305175781,43.70000076293945C95.30000305175781,45.900001525878906,95.5999984741211,56.5,95.5999984741211,59.20000076293945C95.5999984741211,59.79999923706055,95.5999984741211,60.400001525878906,95.5999984741211,60.900001525878906L92.80000305175781,61.400001525878906C93.69999694824219,60.900001525878906,94.69999694824219,60.70000076293945,95.5999984741211,60.900001525878906C98,61.599998474121094,99.0999984741211,65,98.19999694824219,68.5999984741211C97.19999694824219,72.19999694824219,94.5,74.5999984741211,92.0999984741211,73.9000015258789C91.5,73.69999694824219,91,73.4000015258789,90.5,72.9000015258789L92.4000015258789,73.9000015258789C89.4000015258789,80.5999984741211,84.69999694824219,86.30000305175781,79.4000015258789,89.69999694824219L79.4000015258789,89.69999694824219C79.5999984741211,91.69999694824219,80.0999984741211,94.4000015258789,81.30000305175781,97.80000305175781C83.80000305175781,104.69999694824219,90.4000015258789,107.30000305175781,92.80000305175781,107.30000305175781C95.0999984741211,107.30000305175781,89.30000305175781,117.5999984741211,68.30000305175781,117.5999984741211C47.29999923706055,117.5999984741211,41.900001525878906,102.69999694824219,45.70000076293945,102.5999984741211C49.5,102.5,52.29999923706055,101.5,55.400001525878906,97.4000015258789C57.29999923706055,94.80000305175781,57.400001525878906,92.19999694824219,57,89.5999984741211L57,89.5999984741211L57,89.5999984741211zM60.900001525878906,326.3999938964844C60.29999923706055,326.8999938964844,61.29999923706055,325,61,330.79998779296875C60.900001525878906,341.29998779296875,57,360.6000061035156,55.900001525878906,370.29998779296875C55,372,46.70000076293945,370.29998779296875,46.70000076293945,370.29998779296875C46.70000076293945,370.29998779296875,43.70000076293945,341.3999938964844,42.900001525878906,332.6000061035156C42.099998474121094,323.79998779296875,41.79999923706055,328.6000061035156,42.20000076293945,326.6000061035156C51.599998474121094,322,61.5,325.8999938964844,60.900001525878906,326.3999938964844zM83.80000305175781,325.5C83.9000015258789,328.6000061035156,83.19999694824219,324,85,340.6000061035156C86.80000305175781,357.20001220703125,87.4000015258789,369,87.4000015258789,370.3999938964844C87.4000015258789,371.79998779296875,99.5,369.8999938964844,99.80000305175781,364.29998779296875C100,358.70001220703125,101,346.20001220703125,102,337.3999938964844C103,328.6000061035156,102.4000015258789,324.3999938964844,102.9000015258789,324.29998779296875C103.5,324.1000061035156,83.69999694824219,322.3999938964844,83.80000305175781,325.5zM119.5,189C119.5,189,119,190.8000030517578,116.4000015258789,201.5C113.69999694824219,212.3000030517578,111.19999694824219,219.8000030517578,109.5999984741211,223.6999969482422C108,227.5,109.5,232.39999389648438,108.9000015258789,234.5C108.30000305175781,236.60000610351562,97.5999984741211,223.3000030517578,97.9000015258789,220.60000610351562C98,220,99.30000305175781,220.8000030517578,100.80000305175781,217.1999969482422C102.30000305175781,213.60000610351562,104.69999694824219,199.39999389648438,104.69999694824219,190.10000610351562L119.5,189zM25.799999237060547,199.8000030517578C28.700000762939453,204.3000030517578,34.5,216,35.79999923706055,221.89999389648438C37.099998474121094,227.8000030517578,39,237.60000610351562,40.20000076293945,236.8000030517578C41.400001525878906,236.10000610351562,53.79999923706055,224.6999969482422,54.5,225C55.20000076293945,225.3000030517578,62.599998474121094,228.5,63.70000076293945,225.6999969482422C64.80000305175781,222.89999389648438,60.900001525878906,223.3000030517578,58.79999923706055,221.60000610351562C56.70000076293945,219.89999389648438,49.599998474121094,218.89999389648438,47.79999923706055,215.89999389648438C46,212.89999389648438,38.5,191.8000030517578,38.5,191.8000030517578L25.799999237060547,199.8000030517578z"/>
<path id="Shoes1" fill="#00ADA8" d="M55.400001525878906,366.79998779296875C57.79999923706055,367,56.5,362.3999938964844,58.400001525878906,362.70001220703125C60.29999923706055,363,61.900001525878906,369,62.5,372.8999938964844C63.099998474121094,376.79998779296875,53.20000076293945,385.5,44.900001525878906,390.8999938964844C36.599998474121094,396.3999938964844,26.200000762939453,395,22,391.79998779296875C17.799999237060547,388.6000061035156,19.799999237060547,380.1000061035156,25.200000762939453,378.70001220703125C30.600000381469727,377.29998779296875,35,371.5,38.099998474121094,368.20001220703125C41.20000076293945,364.8999938964844,41.70000076293945,361.8999938964844,45.900001525878906,361.8999938964844C50.79999923706055,361.8999938964844,53.099998474121094,366.6000061035156,55.400001525878906,366.79998779296875zM84.9000015258789,364.3999938964844C84.9000015258789,364.3999938964844,81.5,366.20001220703125,81.5999984741211,369.6000061035156C81.69999694824219,373,77.80000305175781,379.1000061035156,83.30000305175781,381.3999938964844C88.80000305175781,383.70001220703125,96.19999694824219,384.3999938964844,102.4000015258789,385.79998779296875C108.5999984741211,387.20001220703125,119.80000305175781,389.5,125.0999984741211,388C130.39999389648438,386.5,131.3000030517578,380.6000061035156,129.5,376.6000061035156C125.9000015258789,368.3999938964844,117.5,371.70001220703125,113.19999694824219,368.79998779296875C108.9000015258789,366,104.19999694824219,359.1000061035156,100.69999694824219,360.29998779296875C97.19999694824219,361.3999938964844,101.5999984741211,367.20001220703125,92.80000305175781,368.3999938964844C82.5,369.79998779296875,84.9000015258789,364.3999938964844,84.9000015258789,364.3999938964844z"/>
<path id="Shoes2" fill="#4D4C4D" d="M39.70000076293945,381.29998779296875C42.099998474121094,384.5,44,388.1000061035156,45.29999923706055,390.6000061035156C45.20000076293945,390.70001220703125,45,390.79998779296875,44.900001525878906,390.8999938964844C36.599998474121094,396.3999938964844,26.200000762939453,395,22,391.79998779296875C17.799999237060547,388.6000061035156,19.799999237060547,380.1000061035156,25.200000762939453,378.70001220703125C26.399999618530273,378.3999938964844,27.5,377.8999938964844,28.600000381469727,377.20001220703125C32.900001525878906,377,37.29999923706055,378,39.70000076293945,381.29998779296875zM129.60000610351562,376.5C126.9000015258789,370.29998779296875,121.4000015258789,370.6000061035156,117,370C116.19999694824219,374,111.5999984741211,381.6000061035156,106.5999984741211,386.70001220703125C112.80000305175781,388,120.80000305175781,389.20001220703125,125.0999984741211,388C130.5,386.5,131.39999389648438,380.6000061035156,129.60000610351562,376.5z"/>
<path id="Shoes3" fill="#FFFFFF" d="M62.5,372.8999938964844C63.099998474121094,376.79998779296875,53.20000076293945,385.5,44.900001525878906,390.8999938964844C36.599998474121094,396.3999938964844,26.200000762939453,395,22,391.79998779296875C19.799999237060547,390.1000061035156,19.299999237060547,386.8999938964844,20.100000381469727,384.1000061035156C22.100000381469727,387.20001220703125,25.899999618530273,389.79998779296875,32.5,389.70001220703125C41.29999923706055,389.6000061035156,56.400001525878906,378.29998779296875,62,370.1000061035156C62.20000076293945,371.1000061035156,62.400001525878906,372,62.5,372.8999938964844zM115.19999694824219,382.5C106.5999984741211,381.79998779296875,89.19999694824219,378.29998779296875,80.5,375.20001220703125C80,377.70001220703125,80.19999694824219,380.20001220703125,83.19999694824219,381.3999938964844C88.69999694824219,383.70001220703125,96.0999984741211,384.3999938964844,102.30000305175781,385.79998779296875C108.5,387.20001220703125,119.69999694824219,389.5,125,388C129.39999389648438,386.79998779296875,130.8000030517578,382.6000061035156,130.10000610351562,378.8999938964844C127.4000015258789,381.79998779296875,123.5,383.1000061035156,115.19999694824219,382.5z"/>
<path id="ShoesBorder" d="M131.10000610351562,375.8999938964844C128.39999389648438,369.70001220703125,123.30000305175781,369.1000061035156,119.19999694824219,368.70001220703125C117.30000305175781,368.5,115.4000015258789,368.29998779296875,114.19999694824219,367.5C112.9000015258789,366.6000061035156,111.4000015258789,365.20001220703125,110,363.79998779296875C107.0999984741211,361.1000061035156,104.5,358.5,101.5999984741211,358.5C101.0999984741211,358.5,100.69999694824219,358.6000061035156,100.30000305175781,358.70001220703125C98,359.3999938964844,97.69999694824219,361.5,97.4000015258789,362.79998779296875C97.0999984741211,364.70001220703125,96.9000015258789,366.1000061035156,92.5999984741211,366.70001220703125C91.5,366.8999938964844,90.5,366.8999938964844,89.5999984741211,366.8999938964844C87.0999984741211,366.8999938964844,86.4000015258789,366.20001220703125,86.30000305175781,366C86,365.6000061035156,86.30000305175781,364.8999938964844,86.30000305175781,364.8999938964844L86.30000305175781,364.8999938964844C86.5999984741211,364.29998779296875,86.4000015258789,363.5,85.9000015258789,363C85.4000015258789,362.5,84.5999984741211,362.3999938964844,84,362.79998779296875C83.80000305175781,362.8999938964844,79.69999694824219,365.20001220703125,79.80000305175781,369.5C79.80000305175781,370.20001220703125,79.5999984741211,371.29998779296875,79.30000305175781,372.5C78.5,375.70001220703125,77.30000305175781,380.6000061035156,82.5,382.70001220703125C86.4000015258789,384.29998779296875,91.0999984741211,385.1000061035156,95.5999984741211,386C97.80000305175781,386.3999938964844,99.9000015258789,386.79998779296875,101.9000015258789,387.20001220703125C109.9000015258789,389,116,389.8999938964844,120.5,389.8999938964844C122.5,389.8999938964844,124.0999984741211,389.70001220703125,125.4000015258789,389.3999938964844C127.9000015258789,388.70001220703125,129.8000030517578,387.1000061035156,130.89999389648438,384.79998779296875C132.39999389648438,382.29998779296875,132.39999389648438,378.79998779296875,131.10000610351562,375.8999938964844zM109.5999984741211,367.79998779296875C110.0999984741211,368.20001220703125,110.5999984741211,368.70001220703125,111.0999984741211,369.1000061035156L109.30000305175781,369.6000061035156L109.5999984741211,367.79998779296875zM106.30000305175781,364.70001220703125L106.30000305175781,364.70001220703125L106.30000305175781,364.70001220703125C106.4000015258789,364.70001220703125,106.30000305175781,364.70001220703125,106.30000305175781,364.70001220703125L105.9000015258789,364.70001220703125L105.9000015258789,364.29998779296875C106.0999984741211,364.5,106.19999694824219,364.6000061035156,106.30000305175781,364.70001220703125zM112.5,381.20001220703125C115,377.6000061035156,117,373.8999938964844,117.80000305175781,371.1000061035156C118.19999694824219,371.1000061035156,118.5,371.20001220703125,118.9000015258789,371.20001220703125C122.69999694824219,371.6000061035156,126.5999984741211,372.1000061035156,128.6999969482422,376.8999938964844C128.89999389648438,377.3999938964844,129.10000610351562,377.8999938964844,129.1999969482422,378.3999938964844L129.1999969482422,378.3999938964844C126.30000305175781,381.1000061035156,122.4000015258789,381.8999938964844,115.30000305175781,381.3999938964844C114.9000015258789,381.3999938964844,114.4000015258789,381.29998779296875,113.9000015258789,381.29998779296875C113.69999694824219,381.29998779296875,113.5,381.29998779296875,113.30000305175781,381.20001220703125C113,381.20001220703125,112.69999694824219,381.20001220703125,112.5,381.20001220703125zM115.5999984741211,371.3999938964844C114.69999694824219,374,112.69999694824219,377.5,110.19999694824219,380.8999938964844C101.69999694824219,379.70001220703125,89.69999694824219,377.20001220703125,82.30000305175781,374.70001220703125L82.30000305175781,374.70001220703125C82.4000015258789,374.29998779296875,82.5,373.8999938964844,82.5999984741211,373.5C82.9000015258789,372.1000061035156,83.30000305175781,370.79998779296875,83.19999694824219,369.6000061035156C83.19999694824219,369,83.4000015258789,368.3999938964844,83.5999984741211,367.8999938964844L83.5999984741211,367.8999938964844C85,370,88.0999984741211,370.70001220703125,93.0999984741211,370C99.69999694824219,369.1000061035156,100.30000305175781,365.5,100.5999984741211,363.3999938964844C100.80000305175781,362,100.9000015258789,362,101.19999694824219,361.8999938964844C101.80000305175781,361.70001220703125,102.69999694824219,362.1000061035156,103.5999984741211,362.70001220703125L103.69999694824219,362.70001220703125L103.80000305175781,365L102.4000015258789,365.1000061035156C101.80000305175781,365.1000061035156,101.4000015258789,365.6000061035156,101.5,366.20001220703125C101.5,366.79998779296875,102,367.1000061035156,102.5999984741211,367.1000061035156L103.9000015258789,367L103.9000015258789,368.79998779296875C103.9000015258789,369.29998779296875,104.4000015258789,369.79998779296875,104.9000015258789,369.79998779296875L104.9000015258789,369.79998779296875C105.5,369.79998779296875,105.9000015258789,369.29998779296875,105.9000015258789,368.79998779296875L105.9000015258789,366.8999938964844L107.69999694824219,366.79998779296875L106.9000015258789,371C106.80000305175781,371.29998779296875,107,371.70001220703125,107.19999694824219,371.8999938964844C107.4000015258789,372.1000061035156,107.5999984741211,372.20001220703125,107.9000015258789,372.20001220703125C108,372.20001220703125,108.0999984741211,372.20001220703125,108.19999694824219,372.20001220703125L113.19999694824219,370.70001220703125L113.19999694824219,370.70001220703125C114,370.8999938964844,114.80000305175781,371.20001220703125,115.5999984741211,371.3999938964844L115.5999984741211,371.3999938964844zM129.5,380.8999938964844C129.39999389648438,383.5,128,386.1000061035156,125,387C121.30000305175781,388,113.69999694824219,387.29998779296875,102.80000305175781,384.79998779296875C100.69999694824219,384.29998779296875,98.5,383.8999938964844,96.4000015258789,383.6000061035156C92,382.79998779296875,87.4000015258789,382,83.80000305175781,380.5C82,379.79998779296875,81.30000305175781,378.6000061035156,81.5,376.5C90.80000305175781,379.70001220703125,107.19999694824219,382.8999938964844,115.30000305175781,383.5C116.69999694824219,383.6000061035156,118,383.70001220703125,119.0999984741211,383.70001220703125C123.5999984741211,383.6000061035156,126.9000015258789,382.79998779296875,129.5,380.8999938964844zM64.0999984741211,372.6000061035156C63.400001525878906,368.5,61.900001525878906,361.6000061035156,58.70000076293945,361.1000061035156C58.5,361.1000061035156,58.400001525878906,361.1000061035156,58.29999923706055,361.1000061035156C56.20000076293945,361.1000061035156,55.79999923706055,363.20001220703125,55.599998474121094,364.20001220703125C55.5,364.5,55.5,364.79998779296875,55.400001525878906,365.1000061035156C54.900001525878906,364.8999938964844,54.20000076293945,364.29998779296875,53.599998474121094,363.79998779296875C51.900001525878906,362.29998779296875,49.5,360.29998779296875,46,360.29998779296875C42.20000076293945,360.29998779296875,40.70000076293945,362.29998779296875,39.099998474121094,364.5C38.5,365.29998779296875,37.900001525878906,366.20001220703125,37,367.1000061035156C36.5,367.70001220703125,35.900001525878906,368.29998779296875,35.29999923706055,369C32.400001525878906,372.20001220703125,28.899999618530273,376.1000061035156,24.899999618530273,377.20001220703125C21.700000762939453,378.1000061035156,19.200000762939453,381,18.5,384.70001220703125C17.799999237060547,388.1000061035156,18.899999618530273,391.3999938964844,21.200000762939453,393.20001220703125C23.799999237060547,395.20001220703125,28,396.29998779296875,32.5,396.29998779296875C35.900001525878906,396.29998779296875,41.099998474121094,395.6000061035156,46.099998474121094,392.29998779296875C46.599998474121094,391.79998779296875,65.19999694824219,379.3999938964844,64.0999984741211,372.6000061035156zM44.400001525878906,390.1000061035156C40,393,35.400001525878906,393.70001220703125,32.29999923706055,393.70001220703125L32.29999923706055,393.70001220703125C28.399999618530273,393.70001220703125,24.700000762939453,392.70001220703125,22.600000381469727,391.1000061035156C21.299999237060547,390.1000061035156,20.700000762939453,388.5,20.700000762939453,386.6000061035156C22.799999237060547,388.79998779296875,26.299999237060547,390.79998779296875,32.099998474121094,390.79998779296875L32.5,390.79998779296875C40.79999923706055,390.70001220703125,54.70000076293945,381,61.400001525878906,372.6000061035156C61.400001525878906,372.70001220703125,61.400001525878906,372.8999938964844,61.5,373C61.900001525878906,375.79998779296875,54.099998474121094,383.70001220703125,44.400001525878906,390.1000061035156zM21.200000762939453,384C22,381.79998779296875,23.5,380.20001220703125,25.399999618530273,379.70001220703125C26.5,379.3999938964844,27.600000381469727,378.8999938964844,28.799999237060547,378.20001220703125C29,378.20001220703125,29.200000762939453,378.20001220703125,29.5,378.20001220703125C32.5,378.20001220703125,36.70000076293945,378.79998779296875,39,381.8999938964844C40,383.20001220703125,40.900001525878906,384.6000061035156,41.70000076293945,385.8999938964844L41.70000076293945,385.8999938964844C41.29999923706055,386.1000061035156,40.900001525878906,386.29998779296875,40.5,386.5L40.5,386.5C40,386.70001220703125,39.599998474121094,386.8999938964844,39.20000076293945,387.1000061035156C39.20000076293945,387.1000061035156,39.099998474121094,387.1000061035156,39.099998474121094,387.20001220703125C38.599998474121094,387.3999938964844,38.20000076293945,387.6000061035156,37.79999923706055,387.70001220703125C37.79999923706055,387.70001220703125,37.79999923706055,387.70001220703125,37.70000076293945,387.70001220703125C37.29999923706055,387.79998779296875,36.900001525878906,388,36.5,388.1000061035156C36.400001525878906,388.1000061035156,36.29999923706055,388.1000061035156,36.29999923706055,388.20001220703125C35.900001525878906,388.29998779296875,35.5,388.3999938964844,35.099998474121094,388.5C35.099998474121094,388.5,35.099998474121094,388.5,35,388.5C34.599998474121094,388.6000061035156,34.29999923706055,388.6000061035156,34,388.70001220703125C33.900001525878906,388.70001220703125,33.79999923706055,388.70001220703125,33.70000076293945,388.70001220703125C33.29999923706055,388.70001220703125,33,388.79998779296875,32.70000076293945,388.79998779296875L32.400001525878906,388.79998779296875C27.100000381469727,388.79998779296875,23.399999618530273,387.1000061035156,21.200000762939453,384L21.200000762939453,384zM37.900001525878906,370.70001220703125L39.79999923706055,373.29998779296875L36.099998474121094,372.70001220703125L37.900001525878906,370.70001220703125zM43.099998474121094,364.6000061035156C43.79999923706055,363.8999938964844,44.599998474121094,363.5,45.900001525878906,363.5C48.20000076293945,363.5,49.79999923706055,364.8999938964844,51.400001525878906,366.20001220703125C52.70000076293945,367.29998779296875,53.79999923706055,368.29998779296875,55.29999923706055,368.3999938964844C57.70000076293945,368.6000061035156,58.400001525878906,366.5,58.599998474121094,365.20001220703125C59.099998474121094,366.29998779296875,59.79999923706055,368.20001220703125,60.400001525878906,370.70001220703125C60.400001525878906,370.70001220703125,59.099998474121094,373.1000061035156,52.29999923706055,378.8999938964844C47.79999923706055,382.79998779296875,43.29999923706055,385,43.29999923706055,385L43.29999923706055,385C42.5,383.6000061035156,41.5,382.1000061035156,40.5,380.79998779296875C38.70000076293945,378.3999938964844,35.900001525878906,376.8999938964844,32.29999923706055,376.3999938964844L32.29999923706055,376.3999938964844C33,375.79998779296875,33.70000076293945,375.1000061035156,34.400001525878906,374.5L41.79999923706055,375.79998779296875C41.900001525878906,375.79998779296875,41.900001525878906,375.79998779296875,42,375.79998779296875C42.29999923706055,375.79998779296875,42.70000076293945,375.6000061035156,42.79999923706055,375.29998779296875C43,375,43,374.5,42.79999923706055,374.20001220703125L39.79999923706055,369.8999938964844L45.79999923706055,370.70001220703125C46.20000076293945,370.70001220703125,46.599998474121094,370.6000061035156,46.79999923706055,370.20001220703125C47,369.79998779296875,47,369.3999938964844,46.70000076293945,369.1000061035156L45.400001525878906,367.5L45.400001525878906,367.5L48.20000076293945,367.20001220703125C48.70000076293945,367.1000061035156,49.20000076293945,366.70001220703125,49.099998474121094,366.1000061035156C49,365.6000061035156,48.599998474121094,365.20001220703125,48,365.20001220703125L43.900001525878906,365.6000061035156L43.900001525878906,365.6000061035156L43.099998474121094,364.6000061035156L43.099998474121094,364.6000061035156zM43,367.6000061035156L43.599998474121094,368.29998779296875L40.5,367.8999938964844L40.599998474121094,367.79998779296875L43,367.6000061035156L43,367.6000061035156z"/>
<path id="Shirt" fill="#FF4824" d="M115.4000015258789,123.69999694824219C116.9000015258789,133.1999969482422,116.9000015258789,145.89999389648438,117.19999694824219,148.10000610351562C117.5999984741211,150.3000030517578,119.19999694824219,150.60000610351562,119.4000015258789,152.3000030517578C119.5999984741211,153.89999389648438,116.80000305175781,155.10000610351562,117.5,156.1999969482422C118.19999694824219,157.3000030517578,119.30000305175781,160.1999969482422,119.30000305175781,160.1999969482422C119.30000305175781,160.1999969482422,118.5999984741211,161.3000030517578,118.9000015258789,163.8000030517578C119.30000305175781,166.39999389648438,123.5999984741211,188.39999389648438,122.19999694824219,189.5C122.19999694824219,189.5,111.30000305175781,188.5,104.69999694824219,189.1999969482422C102.80000305175781,205.3000030517578,101,217.5,100.4000015258789,218.10000610351562C98.9000015258789,219.60000610351562,82.0999984741211,217.8000030517578,67.5,216C52.900001525878906,214.1999969482422,46.29999923706055,220.6999969482422,47,213.8000030517578C47.29999923706055,211,39.400001525878906,199.8000030517578,39,192L36.20000076293945,194.10000610351562C32,197.1999969482422,26,200.60000610351562,23.899999618530273,200C21.399999618530273,199.3000030517578,22.100000381469727,199.60000610351562,20.799999237060547,196.3000030517578C18.299999237060547,189.8000030517578,20.399999618530273,191.8000030517578,17.399999618530273,190.39999389648438C14.399999618530273,189,16.299999237060547,186.60000610351562,15.699999809265137,184.89999389648438C15.199999809265137,183.3000030517578,12.699999809265137,184,12,181.8000030517578C11.300000190734863,179.60000610351562,13.800000190734863,177.89999389648438,13.800000190734863,177.89999389648438C13.800000190734863,177.89999389648438,14,175,14.199999809265137,173.6999969482422C14.399999618530273,172.39999389648438,15.600000381469727,155.6999969482422,16.700000762939453,149C17.100000381469727,146.60000610351562,17.5,143.3000030517578,17.899999618530273,139.5C18.700000762939453,132.60000610351562,19.700000762939453,124.30000305175781,21.299999237060547,118.30000305175781C23.700000762939453,109.19999694824219,34.20000076293945,105.30000305175781,38.599998474121094,104.19999694824219C43,103.0999984741211,47.20000076293945,101.9000015258789,50.099998474121094,100.5C50.099998474121094,100.5,55.20000076293945,111.4000015258789,69,111.4000015258789C82.9000015258789,111.4000015258789,86.5999984741211,102,86.5999984741211,102C86.5999984741211,102,96,105.80000305175781,101.4000015258789,106.80000305175781C106.9000015258789,107.69999694824219,113.9000015258789,114.19999694824219,115.4000015258789,123.69999694824219z"/>
<path id="BodyBorder" d="M55.29999923706055,365.1000061035156C55.20000076293945,365.1000061035156,55.099998474121094,365,54.900001525878906,364.8999938964844C55.20000076293945,362.70001220703125,55.599998474121094,360.20001220703125,56,357.70001220703125C57.5,348.29998779296875,59.20000076293945,337.70001220703125,59.29999923706055,330.79998779296875C59.29999923706055,328.8999938964844,59.29999923706055,327.20001220703125,59.29999923706055,325.6000061035156C59.5,325.6000061035156,59.599998474121094,325.70001220703125,59.79999923706055,325.70001220703125C60.900001525878906,325.8999938964844,61.79999923706055,326,62.599998474121094,326.1000061035156C62.599998474121094,327.6000061035156,62.599998474121094,329.1000061035156,62.599998474121094,330.8999938964844C62.5,338,60.79999923706055,348.79998779296875,59.29999923706055,358.29998779296875C59.099998474121094,359.29998779296875,59,360.29998779296875,58.79999923706055,361.29998779296875L58.70000076293945,361.29998779296875C58.5,361.29998779296875,58.400001525878906,361.29998779296875,58.29999923706055,361.29998779296875C56.20000076293945,361.29998779296875,55.79999923706055,363.3999938964844,55.599998474121094,364.3999938964844C55.5,364.3999938964844,55.400001525878906,364.79998779296875,55.29999923706055,365.1000061035156zM47.20000076293945,360.3999938964844C46.20000076293945,351.20001220703125,44.900001525878906,337.8999938964844,44.400001525878906,332.5C44.20000076293945,330.5,44,328.20001220703125,43.70000076293945,325.8999938964844C43.400001525878906,326,43.099998474121094,326,42.900001525878906,326.1000061035156C42.099998474121094,326.29998779296875,41.29999923706055,326.5,40.5,326.70001220703125C40.70000076293945,328.79998779296875,40.900001525878906,330.8999938964844,41.099998474121094,332.70001220703125C41.599998474121094,338.1000061035156,42.900001525878906,351.29998779296875,43.900001525878906,360.5C44.5,360.3999938964844,45.099998474121094,360.29998779296875,45.79999923706055,360.29998779296875C46.400001525878906,360.29998779296875,46.79999923706055,360.29998779296875,47.20000076293945,360.3999938964844zM86.4000015258789,365L86.4000015258789,365C86.4000015258789,365,86.0999984741211,365.70001220703125,86.4000015258789,366.1000061035156C86.5,366.29998779296875,87,366.79998779296875,88.80000305175781,366.8999938964844C88.5,362,87.80000305175781,352.5,86.5,340.3999938964844C85.80000305175781,334,85.4000015258789,328.79998779296875,85.19999694824219,324.3999938964844C84.30000305175781,324.5,83.5,324.70001220703125,82.80000305175781,324.79998779296875C82.5,324.79998779296875,82.19999694824219,324.8999938964844,82,324.8999938964844C82.19999694824219,329.20001220703125,82.5999984741211,334.3999938964844,83.30000305175781,340.70001220703125C84.30000305175781,349.79998779296875,84.9000015258789,357.5,85.30000305175781,362.79998779296875C85.5999984741211,362.8999938964844,85.80000305175781,363,86,363.20001220703125C86.5,363.6000061035156,86.69999694824219,364.3999938964844,86.4000015258789,365zM100.4000015258789,358.70001220703125C100.80000305175781,358.6000061035156,101.30000305175781,358.5,101.69999694824219,358.5C101.69999694824219,358.5,101.69999694824219,358.5,101.80000305175781,358.5C102.19999694824219,352.20001220703125,102.9000015258789,343.8999938964844,103.5999984741211,337.6000061035156C104,334.20001220703125,104.30000305175781,329.29998779296875,104.5999984741211,324.5C104.30000305175781,324.5,103.9000015258789,324.3999938964844,103.5999984741211,324.3999938964844C102.9000015258789,324.29998779296875,102.19999694824219,324.20001220703125,101.4000015258789,324.20001220703125C101.0999984741211,329.1000061035156,100.80000305175781,334,100.4000015258789,337.29998779296875C99.5999984741211,344.29998779296875,98.80000305175781,353.79998779296875,98.4000015258789,360.29998779296875C98.80000305175781,359.5,99.4000015258789,359,100.4000015258789,358.70001220703125zM68.19999694824219,91.80000305175781C60.400001525878906,91.80000305175781,51.5,84.69999694824219,46.400001525878906,74.80000305175781C46.70000076293945,74.5999984741211,47,74.30000305175781,47.29999923706055,74C47.79999923706055,73.4000015258789,47.900001525878906,72.5,47.400001525878906,71.9000015258789C46.900001525878906,71.30000305175781,46,71.0999984741211,45.29999923706055,71.5L43.900001525878906,72.30000305175781C42.599998474121094,72.4000015258789,40.79999923706055,70.80000305175781,40,68.0999984741211C39.29999923706055,65.4000015258789,40,63.099998474121094,41.099998474121094,62.5L43.5,62.900001525878906C44.29999923706055,63,45,62.599998474121094,45.29999923706055,61.900001525878906C45.599998474121094,61.20000076293945,45.29999923706055,60.29999923706055,44.599998474121094,59.900001525878906C43.900001525878906,59.5,43.20000076293945,59.20000076293945,42.5,59.099998474121094C42.5,59.099998474121094,42.5,59.099998474121094,42.5,59C42.5,56,42.79999923706055,45.79999923706055,43.20000076293945,43.900001525878906C46.5,29.100000381469727,60.20000076293945,26.899999618530273,68.0999984741211,26.899999618530273S89.5999984741211,29.100000381469727,93,43.79999923706055C93.4000015258789,45.70000076293945,93.69999694824219,55.79999923706055,93.69999694824219,58.900001525878906C93.69999694824219,58.900001525878906,93.69999694824219,58.900001525878906,93.69999694824219,59C93,59.099998474121094,92.30000305175781,59.400001525878906,91.69999694824219,59.70000076293945C91,60.099998474121094,90.69999694824219,60.900001525878906,91,61.70000076293945C91.30000305175781,62.400001525878906,92,62.900001525878906,92.80000305175781,62.70000076293945L95.0999984741211,62.29999923706055C96.30000305175781,62.900001525878906,97,65.19999694824219,96.19999694824219,67.9000015258789C95.5,70.5,93.69999694824219,72.0999984741211,92.5,72.0999984741211L90.9000015258789,71.19999694824219C90.19999694824219,70.80000305175781,89.30000305175781,71,88.80000305175781,71.5999984741211C88.30000305175781,72.19999694824219,88.30000305175781,73.0999984741211,88.9000015258789,73.69999694824219C89.19999694824219,74,89.5,74.30000305175781,89.80000305175781,74.5C85.0999984741211,84.80000305175781,76.0999984741211,91.80000305175781,68.19999694824219,91.80000305175781M80.9000015258789,90.5999984741211C85.80000305175781,87.0999984741211,90.19999694824219,81.9000015258789,93.19999694824219,75.5999984741211C96,75.30000305175781,98.5,72.69999694824219,99.5,69C100.5999984741211,65.0999984741211,99.5,61.400001525878906,97,59.79999923706055C97,59.599998474121094,97,59.29999923706055,97,59.099998474121094C97,57.29999923706055,96.80000305175781,45.79999923706055,96.19999694824219,43.29999923706055C93.4000015258789,30.899999618530273,83.0999984741211,23.799999237060547,68.0999984741211,23.799999237060547S42.79999923706055,30.899999618530273,40,43.29999923706055C39.400001525878906,45.900001525878906,39.20000076293945,57.29999923706055,39.20000076293945,59.099998474121094C39.20000076293945,59.29999923706055,39.20000076293945,59.599998474121094,39.20000076293945,59.79999923706055C36.79999923706055,61.29999923706055,35.70000076293945,65,36.79999923706055,68.9000015258789C37.79999923706055,72.5,40.29999923706055,75.19999694824219,43.099998474121094,75.5C46.099998474121094,81.69999694824219,50.5,86.9000015258789,55.400001525878906,90.4000015258789L55.400001525878906,90.4000015258789C55.599998474121094,92.5,55.400001525878906,94.5,53.79999923706055,96.5999984741211C52.900001525878906,97.80000305175781,52.099998474121094,98.69999694824219,51.20000076293945,99.30000305175781C51.29999923706055,99.4000015258789,51.400001525878906,99.5999984741211,51.5,99.69999694824219S52,100.80000305175781,53,102C54.20000076293945,101.19999694824219,55.29999923706055,100,56.400001525878906,98.5C58,96.4000015258789,58.599998474121094,94.30000305175781,58.70000076293945,92.4000015258789L58.70000076293945,92.4000015258789C61.79999923706055,94.0999984741211,65.0999984741211,95,68.0999984741211,95C71.30000305175781,95,74.5999984741211,94.0999984741211,77.80000305175781,92.4000015258789L77.80000305175781,92.4000015258789C78.0999984741211,94.0999984741211,78.5999984741211,96.0999984741211,79.4000015258789,98.4000015258789C80.19999694824219,100.69999694824219,81.5,102.69999694824219,83,104.19999694824219C84.19999694824219,102.9000015258789,84.69999694824219,101.80000305175781,84.9000015258789,101.4000015258789C83.9000015258789,100.30000305175781,83.0999984741211,98.9000015258789,82.5,97.30000305175781C81.5999984741211,94.5999984741211,81.19999694824219,92.4000015258789,80.9000015258789,90.5999984741211L80.9000015258789,90.5999984741211zM117.5,190.5C116.9000015258789,193.10000610351562,116,196.60000610351562,114.80000305175781,201.1999969482422C112.5,210.3000030517578,110,218.5,108.0999984741211,223.10000610351562C106.9000015258789,225.8000030517578,107.0999984741211,228.8000030517578,107.30000305175781,231.1999969482422C107.30000305175781,231.39999389648438,107.30000305175781,231.60000610351562,107.30000305175781,231.8000030517578C104.69999694824219,229.1999969482422,100.5999984741211,223.60000610351562,99.5999984741211,221.39999389648438C100.4000015258789,220.89999389648438,101.30000305175781,219.89999389648438,102.19999694824219,217.8000030517578C103.69999694824219,214.1999969482422,105.80000305175781,200.6999969482422,106.19999694824219,191.1999969482422C105.0999984741211,191.5,104,191.8000030517578,102.9000015258789,192.3000030517578C102.4000015258789,201.60000610351562,100.4000015258789,213.8000030517578,99.19999694824219,216.60000610351562C98.4000015258789,218.5,97.9000015258789,218.6999969482422,97.5999984741211,218.8000030517578C97.30000305175781,218.89999389648438,96.4000015258789,219.1999969482422,96.19999694824219,220.1999969482422C96.19999694824219,220.3000030517578,96.19999694824219,220.39999389648438,96.19999694824219,220.39999389648438C95.9000015258789,223.39999389648438,102.30000305175781,231.10000610351562,104.0999984741211,233C106.9000015258789,236,107.9000015258789,236.3000030517578,108.5999984741211,236.3000030517578C109.5,236.3000030517578,110.19999694824219,235.8000030517578,110.4000015258789,234.89999389648438C110.69999694824219,233.8000030517578,110.5999984741211,232.5,110.5,230.89999389648438C110.4000015258789,228.6999969482422,110.19999694824219,226.3000030517578,111.0999984741211,224.3000030517578C113.0999984741211,219.5,115.69999694824219,211.1999969482422,118,201.89999389648438C119.19999694824219,197.10000610351562,120.0999984741211,193.39999389648438,120.80000305175781,190.8000030517578C119.9000015258789,190.6999969482422,118.80000305175781,190.60000610351562,117.5,190.5zM65.30000305175781,223.6999969482422C64.69999694824219,222.39999389648438,63.29999923706055,221.89999389648438,62.099998474121094,221.5C61.29999923706055,221.1999969482422,60.5,220.89999389648438,60,220.5C58.900001525878906,219.60000610351562,57.20000076293945,219,55.20000076293945,218.3000030517578C52.900001525878906,217.5,50.099998474121094,216.5,49.29999923706055,215.1999969482422C48.20000076293945,213.39999389648438,43.900001525878906,201.89999389648438,40.599998474121094,192.6999969482422C39.900001525878906,193.3000030517578,39,194.10000610351562,37.900001525878906,194.89999389648438C40.599998474121094,202.1999969482422,45.099998474121094,214.6999969482422,46.5,216.89999389648438C47.900001525878906,219.1999969482422,51.20000076293945,220.3000030517578,54.099998474121094,221.39999389648438C55.599998474121094,221.89999389648438,57.29999923706055,222.5,57.900001525878906,223C58.900001525878906,223.8000030517578,60.099998474121094,224.3000030517578,61.099998474121094,224.60000610351562C61.5,224.8000030517578,62.20000076293945,225,62.400001525878906,225.1999969482422L62.400001525878906,225.3000030517578C62.400001525878906,225.3000030517578,61,226,55.5,223.6999969482422L55.29999923706055,223.60000610351562C55.099998474121094,223.5,54.900001525878906,223.5,54.70000076293945,223.5C53.70000076293945,223.5,53,223.89999389648438,43.900001525878906,231.89999389648438C42.79999923706055,232.89999389648438,41.599998474121094,233.89999389648438,40.70000076293945,234.6999969482422C39.900001525878906,232.39999389648438,38.79999923706055,227.3000030517578,38.099998474121094,224.39999389648438C37.900001525878906,223.5,37.70000076293945,222.60000610351562,37.5,221.8000030517578C36.29999923706055,216.39999389648438,31.399999618530273,206.3000030517578,28.299999237060547,200.89999389648438C27.100000381469727,201.39999389648438,26,201.6999969482422,25.100000381469727,201.8000030517578C28.100000381469727,207,33.20000076293945,217.39999389648438,34.400001525878906,222.5C34.599998474121094,223.3000030517578,34.79999923706055,224.1999969482422,35,225.10000610351562C37.599998474121094,236.8000030517578,38.29999923706055,238.6999969482422,40.29999923706055,238.6999969482422L40.29999923706055,238.6999969482422C40.599998474121094,238.6999969482422,41,238.60000610351562,41.29999923706055,238.39999389648438C41.79999923706055,238.10000610351562,43,237.10000610351562,46.099998474121094,234.39999389648438C48.70000076293945,232.10000610351562,53.29999923706055,228.10000610351562,54.900001525878906,227C57.70000076293945,228.10000610351562,60,228.6999969482422,61.70000076293945,228.6999969482422C64.30000305175781,228.6999969482422,65.19999694824219,227.3000030517578,65.5,226.5C65.69999694824219,225.3000030517578,65.69999694824219,224.39999389648438,65.30000305175781,223.6999969482422z"/>
<path id="ShirtBorder" d="M66.9000015258789,173.1999969482422C66.80000305175781,173.1999969482422,66.69999694824219,173.1999969482422,66.69999694824219,173.1999969482422C66.5999984741211,173.1999969482422,58.29999923706055,171,51.900001525878906,168.89999389648438C51.400001525878906,168.6999969482422,51.099998474121094,168.1999969482422,51.29999923706055,167.60000610351562C51.5,167.10000610351562,52,166.8000030517578,52.599998474121094,167C58.900001525878906,169.10000610351562,67.0999984741211,171.1999969482422,67.19999694824219,171.1999969482422C67.69999694824219,171.3000030517578,68.0999984741211,171.89999389648438,67.9000015258789,172.39999389648438C67.69999694824219,172.89999389648438,67.30000305175781,173.1999969482422,66.9000015258789,173.1999969482422zM72.19999694824219,183.60000610351562C72.4000015258789,183.10000610351562,72.19999694824219,182.5,71.69999694824219,182.3000030517578C71.30000305175781,182.10000610351562,62.29999923706055,178,56.29999923706055,176.3000030517578C55.79999923706055,176.10000610351562,55.20000076293945,176.5,55.099998474121094,177C54.900001525878906,177.5,55.29999923706055,178.10000610351562,55.79999923706055,178.1999969482422C61.70000076293945,179.89999389648438,70.9000015258789,184.10000610351562,70.9000015258789,184.10000610351562C71,184.1999969482422,71.19999694824219,184.1999969482422,71.30000305175781,184.1999969482422C71.69999694824219,184.1999969482422,72,184,72.19999694824219,183.60000610351562zM60.400001525878906,213.89999389648438C56.900001525878906,213.89999389648438,53.5,214.10000610351562,50.400001525878906,214.3000030517578C49.900001525878906,214.3000030517578,49.29999923706055,214.39999389648438,48.79999923706055,214.39999389648438C48.900001525878906,214.6999969482422,49.099998474121094,215,49.20000076293945,215.10000610351562C49.70000076293945,216,51.29999923706055,216.6999969482422,53,217.39999389648438C55.400001525878906,217.3000030517578,57.900001525878906,217.10000610351562,60.400001525878906,217.10000610351562C63,217.10000610351562,65.19999694824219,217.1999969482422,67.30000305175781,217.5C76.19999694824219,218.60000610351562,88,219.89999389648438,96.0999984741211,220.39999389648438C96.0999984741211,220.3000030517578,96.0999984741211,220.3000030517578,96.0999984741211,220.1999969482422C96.4000015258789,219.1999969482422,97.19999694824219,218.89999389648438,97.5,218.8000030517578C97.69999694824219,218.6999969482422,98.0999984741211,218.60000610351562,98.80000305175781,217.3000030517578C90.9000015258789,217,77.5999984741211,215.60000610351562,67.69999694824219,214.3000030517578C65.5,214,63.099998474121094,213.89999389648438,60.400001525878906,213.89999389648438zM113.80000305175781,123.9000015258789C114.80000305175781,130.10000610351562,115.0999984741211,137.8000030517578,115.30000305175781,142.89999389648438C115.4000015258789,146,115.5,147.60000610351562,115.5999984741211,148.39999389648438C115.9000015258789,150,116.69999694824219,150.89999389648438,117.19999694824219,151.60000610351562C117.5999984741211,152.10000610351562,117.80000305175781,152.3000030517578,117.80000305175781,152.39999389648438C117.69999694824219,152.60000610351562,117.30000305175781,153,117.0999984741211,153.3000030517578C116.5,154,115.0999984741211,155.39999389648438,116.19999694824219,157C116.5999984741211,157.60000610351562,117.19999694824219,159,117.5999984741211,160.10000610351562C117.30000305175781,160.89999389648438,117.0999984741211,162.1999969482422,117.4000015258789,164C117.5,164.5,117.69999694824219,165.8000030517578,118,167.5C118.80000305175781,171.6999969482422,120.9000015258789,183.60000610351562,121,187.60000610351562C117.5999984741211,187.10000610351562,109.5,186.3000030517578,102.5,188.89999389648438L102.5,188.89999389648438C102.69999694824219,183.3000030517578,103.19999694824219,170.10000610351562,103.19999694824219,159.89999389648438C103.19999694824219,159.8000030517578,103.19999694824219,159.8000030517578,103.19999694824219,159.6999969482422C102.0999984741211,151.3000030517578,101,141.8000030517578,101.19999694824219,140.60000610351562C101.4000015258789,139.6999969482422,100.80000305175781,138.89999389648438,99.9000015258789,138.6999969482422C99,138.5,98.19999694824219,139.10000610351562,98,140C97.5999984741211,141.89999389648438,99.19999694824219,154.60000610351562,100,160.10000610351562C100,170.1999969482422,99.5,183.3000030517578,99.30000305175781,188.89999389648438L99.19999694824219,190.89999389648438C99.19999694824219,191.10000610351562,99.19999694824219,191.3000030517578,99.19999694824219,191.5L99.19999694824219,191.5L99.19999694824219,191.5C99.19999694824219,192.3000030517578,99.5,193.1999969482422,100.69999694824219,193.3000030517578L100.80000305175781,193.3000030517578C101.19999694824219,193.3000030517578,101.5999984741211,193.10000610351562,101.9000015258789,192.89999389648438C110.19999694824219,188.8000030517578,121.9000015258789,191.1999969482422,122,191.3000030517578C122.5,191.39999389648438,122.9000015258789,191.3000030517578,123.30000305175781,191C124.5999984741211,190,125.0999984741211,188.5,121.19999694824219,167.10000610351562C120.9000015258789,165.5,120.69999694824219,164.1999969482422,120.5999984741211,163.8000030517578C120.4000015258789,162.10000610351562,120.69999694824219,161.3000030517578,120.69999694824219,161.3000030517578L120.69999694824219,161.3000030517578C121,160.89999389648438,121.0999984741211,160.3000030517578,120.9000015258789,159.8000030517578C120.80000305175781,159.5,120,157.39999389648438,119.19999694824219,156C119.30000305175781,155.89999389648438,119.4000015258789,155.8000030517578,119.4000015258789,155.6999969482422C120.0999984741211,154.89999389648438,121.19999694824219,153.8000030517578,120.9000015258789,152.1999969482422C120.69999694824219,151,120.0999984741211,150.1999969482422,119.5999984741211,149.60000610351562C119.19999694824219,149.10000610351562,118.80000305175781,148.6999969482422,118.69999694824219,148C118.5999984741211,147.39999389648438,118.5,145.3000030517578,118.4000015258789,142.89999389648438C118.19999694824219,137.6999969482422,117.9000015258789,130,116.9000015258789,123.5999984741211C115.4000015258789,113.5,107.9000015258789,106.4000015258789,101.69999694824219,105.30000305175781C96.5,104.4000015258789,87.30000305175781,100.69999694824219,87.19999694824219,100.5999984741211C86.80000305175781,100.4000015258789,86.30000305175781,100.4000015258789,86,100.5999984741211C85.5999984741211,100.80000305175781,85.30000305175781,101.0999984741211,85.0999984741211,101.5C85.0999984741211,101.5999984741211,81.69999694824219,109.9000015258789,69.0999984741211,109.9000015258789C56.5,109.9000015258789,51.79999923706055,100.30000305175781,51.599998474121094,99.9000015258789C51.400001525878906,99.5,51.099998474121094,99.19999694824219,50.70000076293945,99.0999984741211C50.29999923706055,99,49.79999923706055,99,49.400001525878906,99.19999694824219C46.599998474121094,100.5999984741211,42.400001525878906,101.80000305175781,38.20000076293945,102.80000305175781C35.599998474121094,103.4000015258789,22.600000381469727,107.19999694824219,19.799999237060547,118.0999984741211C18.299999237060547,123.9000015258789,17.299999237060547,131.5,16.399999618530273,139.5L16.299999237060547,140.3000030517578C15.899999618530273,143.8000030517578,15.5,146.6999969482422,15.199999809265137,148.89999389648438C14.399999618530273,153.89999389648438,13.5,164.1999969482422,13.100000381469727,169.8000030517578C12.899999618530273,171.6999969482422,12.800000190734863,173.39999389648438,12.800000190734863,173.6999969482422C12.699999809265137,174.60000610351562,12.5,176.3000030517578,12.5,177.3000030517578C11.300000190734863,178.39999389648438,10,180.3000030517578,10.699999809265137,182.5C11.300000190734863,184.39999389648438,12.800000190734863,185,13.699999809265137,185.3000030517578C13.899999618530273,185.39999389648438,14.300000190734863,185.5,14.399999618530273,185.60000610351562C14.5,185.8000030517578,14.399999618530273,186.3000030517578,14.399999618530273,186.6999969482422C14.199999809265137,188,14,190.5,16.899999618530273,192C17.399999618530273,192.1999969482422,17.700000762939453,192.39999389648438,18,192.5C18.200000762939453,193.1999969482422,18.5,194.5,19.5,197C19.700000762939453,197.60000610351562,19.899999618530273,198.10000610351562,20.100000381469727,198.5C20.799999237060547,200.6999969482422,21.299999237060547,201,23.5,201.60000610351562L23.700000762939453,201.6999969482422C24,201.8000030517578,24.299999237060547,201.8000030517578,24.600000381469727,201.8000030517578C29.299999237060547,201.8000030517578,40,194.10000610351562,41.900001525878906,191.60000610351562C42.79999923706055,190.39999389648438,42.599998474121094,189.60000610351562,42.29999923706055,189C41.79999923706055,188.10000610351562,38,179,35.599998474121094,173.1999969482422L39.099998474121094,140.8000030517578C39.20000076293945,139.89999389648438,38.599998474121094,139.10000610351562,37.70000076293945,139C36.79999923706055,138.89999389648438,36,139.5,35.900001525878906,140.39999389648438L32.400001525878906,173.1999969482422C32.400001525878906,173.5,32.400001525878906,173.6999969482422,32.5,174C33.400001525878906,176.3000030517578,37.70000076293945,186.6999969482422,39.099998474121094,189.8000030517578C37,192.3000030517578,26.600000381469727,198.89999389648438,24.5,198.5L24.299999237060547,198.39999389648438C23.899999618530273,198.3000030517578,23.5,198.1999969482422,23.399999618530273,198.10000610351562C23.299999237060547,197.89999389648438,23.200000762939453,197.6999969482422,23.100000381469727,197.39999389648438C23,197,22.799999237060547,196.39999389648438,22.5,195.6999969482422C21.600000381469727,193.3000030517578,21.299999237060547,192.10000610351562,21.200000762939453,191.5C20.899999618530273,190.3000030517578,20.600000381469727,189.8000030517578,19.399999618530273,189.39999389648438C19.200000762939453,189.3000030517578,18.799999237060547,189.1999969482422,18.399999618530273,188.89999389648438C17.5,188.39999389648438,17.5,188.1999969482422,17.600000381469727,186.89999389648438C17.700000762939453,186.10000610351562,17.799999237060547,185.3000030517578,17.5,184.39999389648438C17,182.89999389648438,15.699999809265137,182.39999389648438,14.899999618530273,182.10000610351562C14.100000381469727,181.8000030517578,13.899999618530273,181.6999969482422,13.800000190734863,181.3000030517578C13.5,180.39999389648438,15,179.3000030517578,15,179.3000030517578C15.399999618530273,179,15.699999809265137,178.60000610351562,15.699999809265137,178.10000610351562C15.699999809265137,178.10000610351562,15.899999618530273,175.1999969482422,16.100000381469727,174C16.200000762939453,173.60000610351562,16.299999237060547,172.39999389648438,16.5,169.89999389648438C17,164.39999389648438,17.799999237060547,154.10000610351562,18.600000381469727,149.3000030517578C19,147.10000610351562,19.299999237060547,144,19.700000762939453,140.60000610351562L19.799999237060547,139.8000030517578L19.899999618530273,139.3000030517578C20.799999237060547,131.60000610351562,21.700000762939453,124.30000305175781,23.100000381469727,118.9000015258789C25.5,109.80000305175781,36.900001525878906,106.5,39.20000076293945,105.9000015258789C42.900001525878906,105,46.70000076293945,104,49.599998474121094,102.69999694824219C51.599998474121094,105.9000015258789,57.400001525878906,113.0999984741211,69.19999694824219,113.0999984741211C80.80000305175781,113.0999984741211,85.80000305175781,107,87.5,104.0999984741211C90.30000305175781,105.19999694824219,96.9000015258789,107.69999694824219,101.30000305175781,108.4000015258789C106.19999694824219,109.19999694824219,112.4000015258789,115.4000015258789,113.80000305175781,123.9000015258789z"/>
<path id="Hair" fill="#AA6543" d="M93.4000015258789,40.29999923706055C93.4000015258789,40.29999923706055,93.5,40.29999923706055,93.4000015258789,40.29999923706055L100.9000015258789,48C100.9000015258789,48,98.69999694824219,35.599998474121094,92.69999694824219,28.399999618530273C86.80000305175781,21.200000762939453,84.0999984741211,12.5,84.0999984741211,12.5C84.19999694824219,14.300000190734863,82.9000015258789,18.5,75.5,18C68.0999984741211,17.5,55.79999923706055,14.5,47.79999923706055,20.600000381469727C39.79999923706055,26.700000762939453,38.70000076293945,33.29999923706055,38.79999923706055,35.099998474121094C38.900001525878906,37,36.599998474121094,39.5,38.29999923706055,47.70000076293945C39,51.099998474121094,39.79999923706055,55.400001525878906,40.5,59.20000076293945L40.599998474121094,59.20000076293945C41.099998474121094,59.099998474121094,41.599998474121094,59,42.099998474121094,59.099998474121094C42.70000076293945,55.599998474121094,44.099998474121094,51.70000076293945,47.099998474121094,48.400001525878906C54.70000076293945,40,56.099998474121094,34.20000076293945,56.099998474121094,34.20000076293945C56.099998474121094,34.20000076293945,57.099998474121094,38.099998474121094,64.30000305175781,40.900001525878906C71.4000015258789,43.599998474121094,74.19999694824219,44.599998474121094,74.19999694824219,44.599998474121094L72.5,40.099998474121094C72.5,40.099998474121094,77.5,41.5,82.19999694824219,44.20000076293945C90.5,48.5,95.80000305175781,57.79999923706055,96.5999984741211,57.29999923706055C97.80000305175781,45.400001525878906,94,40.900001525878906,93.4000015258789,40.29999923706055L93.4000015258789,40.29999923706055z"/>
<path id="HairBorder" d="M102.5,47.70000076293945C102.4000015258789,47.20000076293945,100.0999984741211,34.79999923706055,94,27.399999618530273C88.4000015258789,20.5,85.69999694824219,12.100000381469727,85.69999694824219,12C85.5,11.199999809265137,84.69999694824219,10.699999809265137,83.9000015258789,10.899999618530273C83.0999984741211,11,82.5,11.800000190734863,82.5999984741211,12.600000381469727C82.5999984741211,12.699999809265137,82.5999984741211,13.899999618530273,81.69999694824219,14.899999618530273C80.5999984741211,16.100000381469727,78.5,16.600000381469727,75.69999694824219,16.5C74.4000015258789,16.399999618530273,72.80000305175781,16.200000762939453,71.19999694824219,16.100000381469727C68.30000305175781,15.800000190734863,64.9000015258789,15.399999618530273,61.599998474121094,15.399999618530273C55.400001525878906,15.399999618530273,50.599998474121094,16.700000762939453,47,19.5C36.900001525878906,27,37.20000076293945,35,37.20000076293945,35.29999923706055C37.20000076293945,35.599998474121094,37.099998474121094,36.099998474121094,36.900001525878906,36.599998474121094C36.400001525878906,38.599998474121094,35.5,41.79999923706055,36.70000076293945,48.099998474121094C37.400001525878906,51.599998474121094,38.20000076293945,56.20000076293945,38.900001525878906,60.099998474121094C39.400001525878906,59.70000076293945,39.900001525878906,59.400001525878906,40.599998474121094,59.29999923706055C41.599998474121094,59,42.70000076293945,59.099998474121094,43.70000076293945,59.5C44.29999923706055,56.20000076293945,45.599998474121094,52.599998474121094,48.29999923706055,49.599998474121094C52.79999923706055,44.599998474121094,55.20000076293945,40.5,56.400001525878906,37.900001525878906C57.70000076293945,39.400001525878906,60,41.099998474121094,63.599998474121094,42.5C70.69999694824219,45.20000076293945,73.4000015258789,46.099998474121094,73.5,46.20000076293945C73.69999694824219,46.29999923706055,73.9000015258789,46.29999923706055,74,46.29999923706055L74,46.29999923706055C74.9000015258789,46.29999923706055,75.5999984741211,45.599998474121094,75.5999984741211,44.70000076293945C75.5999984741211,44.400001525878906,75.5,44.099998474121094,75.4000015258789,43.900001525878906L75,42.79999923706055C76.69999694824219,43.5,79,44.400001525878906,81.19999694824219,45.70000076293945C86.4000015258789,48.400001525878906,90.4000015258789,53.20000076293945,92.80000305175781,56.099998474121094C94.5999984741211,58.20000076293945,95.19999694824219,59,96.30000305175781,59C96.5999984741211,59,97,58.900001525878906,97.19999694824219,58.70000076293945C97.5999984741211,58.400001525878906,97.9000015258789,58,98,57.5C98.4000015258789,53.29999923706055,98.30000305175781,50,97.80000305175781,47.400001525878906L99.5,49.20000076293945C100,49.70000076293945,100.80000305175781,49.79999923706055,101.4000015258789,49.5C102.30000305175781,49.099998474121094,102.69999694824219,48.400001525878906,102.5,47.70000076293945zM41.099998474121094,31.799999237060547C42.099998474121094,29.100000381469727,44.29999923706055,25.5,48.79999923706055,22C51.79999923706055,19.700000762939453,56,18.600000381469727,61.400001525878906,18.600000381469727C64.5999984741211,18.600000381469727,67.80000305175781,19,70.69999694824219,19.299999237060547C72.4000015258789,19.5,74,19.700000762939453,75.4000015258789,19.799999237060547C75.80000305175781,19.799999237060547,76.19999694824219,19.799999237060547,76.5999984741211,19.799999237060547C79.80000305175781,19.799999237060547,82.30000305175781,18.899999618530273,83.9000015258789,17.200000762939453C84,17.100000381469727,84,17.100000381469727,84.0999984741211,17C85.5,20.299999237060547,87.9000015258789,25.100000381469727,91.5,29.5C94.5999984741211,33.29999923706055,96.5999984741211,38.599998474121094,97.9000015258789,42.599998474121094L94.69999694824219,39.400001525878906C94.5999984741211,39.29999923706055,94.5,39.20000076293945,94.5,39.20000076293945C93.9000015258789,38.599998474121094,92.80000305175781,38.599998474121094,92.19999694824219,39.29999923706055C91.5999984741211,39.900001525878906,91.5999984741211,40.900001525878906,92.19999694824219,41.599998474121094L92.30000305175781,41.70000076293945C92.5999984741211,42.099998474121094,95.4000015258789,45.29999923706055,95.19999694824219,53.79999923706055C92.5999984741211,50.70000076293945,88.4000015258789,45.900001525878906,83,43C78.19999694824219,40.20000076293945,73.19999694824219,38.79999923706055,73,38.70000076293945C72.4000015258789,38.5,71.80000305175781,38.70000076293945,71.4000015258789,39.20000076293945C71,39.70000076293945,70.9000015258789,40.29999923706055,71.0999984741211,40.900001525878906L71.5999984741211,42.099998474121094C70.0999984741211,41.5,67.9000015258789,40.70000076293945,65.0999984741211,39.599998474121094C59,37.29999923706055,57.900001525878906,34,57.900001525878906,34C57.70000076293945,33.29999923706055,57.099998474121094,32.79999923706055,56.29999923706055,32.79999923706055L56.29999923706055,32.79999923706055C55.599998474121094,32.79999923706055,54.900001525878906,33.29999923706055,54.70000076293945,34C54.70000076293945,34.099998474121094,53.20000076293945,39.5,46.099998474121094,47.5C43.900001525878906,50,42.5,52.70000076293945,41.599998474121094,55.400001525878906C41.099998474121094,52.70000076293945,40.599998474121094,49.900001525878906,40.099998474121094,47.599998474121094C39,42.099998474121094,39.70000076293945,39.400001525878906,40.20000076293945,37.599998474121094C40.400001525878906,36.900001525878906,40.5,36.400001525878906,40.599998474121094,35.79999923706055L40.599998474121094,35.79999923706055C42.70000076293945,33.20000076293945,46.400001525878906,30.200000762939453,48,29C48.5,28.600000381469727,48.599998474121094,27.899999618530273,48.20000076293945,27.5C47.79999923706055,27,47.099998474121094,26.899999618530273,46.70000076293945,27.299999237060547C45.099998474121094,28.299999237060547,43,29.899999618530273,41.099998474121094,31.799999237060547L41.099998474121094,31.799999237060547z"/>
<path id="MouthNose" d="M69.4000015258789,74.69999694824219C68.9000015258789,74.69999694824219,68.4000015258789,74.5999984741211,68,74.5C67.5999984741211,74.4000015258789,67.4000015258789,73.9000015258789,67.5999984741211,73.5C67.69999694824219,73.0999984741211,68.19999694824219,72.9000015258789,68.5999984741211,73.0999984741211C69.19999694824219,73.30000305175781,70.4000015258789,73.30000305175781,71.4000015258789,72.69999694824219C72,72.19999694824219,72.4000015258789,71.5999984741211,72.4000015258789,70.69999694824219C72.4000015258789,70.19999694824219,72.30000305175781,69.9000015258789,72,69.5999984741211C71.0999984741211,68.80000305175781,69,69,68.4000015258789,69.0999984741211C68,69.19999694824219,67.5999984741211,68.9000015258789,67.5,68.5C67.4000015258789,68.0999984741211,67.69999694824219,67.69999694824219,68.0999984741211,67.5999984741211C68.4000015258789,67.5,71.30000305175781,67.0999984741211,72.9000015258789,68.4000015258789C73.5,68.9000015258789,73.9000015258789,69.69999694824219,73.9000015258789,70.5999984741211C73.9000015258789,72.4000015258789,73,73.4000015258789,72.30000305175781,73.9000015258789C71.30000305175781,74.5,70.30000305175781,74.69999694824219,69.4000015258789,74.69999694824219zM69.30000305175781,81.80000305175781C66.80000305175781,81.80000305175781,63.70000076293945,81.30000305175781,61.099998474121094,79.4000015258789C60.79999923706055,79.19999694824219,60.70000076293945,78.69999694824219,61,78.30000305175781C61.29999923706055,78,61.70000076293945,77.9000015258789,62.099998474121094,78.19999694824219C66.5,81.5,73.0999984741211,79.9000015258789,73.19999694824219,79.9000015258789C73.5999984741211,79.80000305175781,74,80,74.0999984741211,80.4000015258789C74.19999694824219,80.80000305175781,74,81.19999694824219,73.5999984741211,81.30000305175781S71.5,81.80000305175781,69.30000305175781,81.80000305175781z"/>
<path id="EyeWhites" fill="#FFFFFF" d="M62.20000076293945,62.5C62,64.30000305175781,60.099998474121094,65.4000015258789,56.70000076293945,65.4000015258789C53.29999923706055,65.4000015258789,49.900001525878906,64.19999694824219,49.900001525878906,61.70000076293945C49.900001525878906,59.70000076293945,52.599998474121094,58,56,58S62.400001525878906,60.5,62.20000076293945,62.5zM74.80000305175781,62.5C75,64.30000305175781,76.9000015258789,65.4000015258789,80.30000305175781,65.4000015258789C83.69999694824219,65.4000015258789,87.0999984741211,64.19999694824219,87.0999984741211,61.70000076293945C87.0999984741211,59.70000076293945,84.30000305175781,58,81,58S74.5999984741211,60.5,74.80000305175781,62.5z"/>
<path id="Eyes" d="M53.5,61.400001525878906C53.5,63.29999923706055,55,64.80000305175781,56.900001525878906,64.80000305175781C58.79999923706055,64.80000305175781,60.29999923706055,63.29999923706055,60.29999923706055,61.400001525878906S58.79999923706055,58,56.900001525878906,58C55.099998474121094,58,53.5,59.5,53.5,61.400001525878906L53.5,61.400001525878906zM83.0999984741211,61.400001525878906C83.0999984741211,63.29999923706055,81.5999984741211,64.80000305175781,79.69999694824219,64.80000305175781C77.80000305175781,64.80000305175781,76.30000305175781,63.29999923706055,76.30000305175781,61.400001525878906C76.30000305175781,59.5,77.80000305175781,58,79.69999694824219,58S83.0999984741211,59.5,83.0999984741211,61.400001525878906L83.0999984741211,61.400001525878906z"/>
<path id="Eyelids" d="M62.20000076293945,63.29999923706055C61.79999923706055,63.29999923706055,61.400001525878906,63,61.400001525878906,62.5C61.400001525878906,60.29999923706055,59,58.599998474121094,56.099998474121094,58.599998474121094C53.5,58.599998474121094,50.79999923706055,59.70000076293945,50.79999923706055,62C50.79999923706055,62.400001525878906,50.5,62.79999923706055,50,62.79999923706055C49.5,62.79999923706055,49.20000076293945,62.5,49.20000076293945,62C49.20000076293945,59.099998474121094,52,57.099998474121094,56,57.099998474121094C59.79999923706055,57.099998474121094,62.79999923706055,59.5,62.79999923706055,62.5C62.900001525878906,62.900001525878906,62.599998474121094,63.29999923706055,62.20000076293945,63.29999923706055zM74.5,63.29999923706055C74.0999984741211,63.29999923706055,73.69999694824219,63,73.69999694824219,62.5C73.69999694824219,59.5,76.80000305175781,57.099998474121094,80.5,57.099998474121094C84.5,57.099998474121094,87.30000305175781,59.099998474121094,87.30000305175781,62C87.30000305175781,62.400001525878906,87,62.79999923706055,86.5,62.79999923706055C86,62.79999923706055,85.69999694824219,62.5,85.69999694824219,62C85.69999694824219,59.70000076293945,82.9000015258789,58.599998474121094,80.4000015258789,58.599998474121094C77.5,58.599998474121094,75.0999984741211,60.400001525878906,75.0999984741211,62.5C75.30000305175781,62.900001525878906,74.9000015258789,63.29999923706055,74.5,63.29999923706055z"/>
<path id="EyeBrows" d="M87.30000305175781,57.900001525878906C87.19999694824219,57.900001525878906,87.19999694824219,57.900001525878906,87.30000305175781,57.900001525878906C86.69999694824219,57.900001525878906,86.30000305175781,57.400001525878906,86.30000305175781,56.900001525878906C86.4000015258789,54.599998474121094,83.80000305175781,52.599998474121094,80.5,52.5C77.5,52.400001525878906,76.4000015258789,53.20000076293945,75.80000305175781,53.79999923706055C75.4000015258789,54.20000076293945,74.80000305175781,54.20000076293945,74.4000015258789,53.79999923706055C74,53.400001525878906,74,52.79999923706055,74.4000015258789,52.400001525878906C75.80000305175781,50.900001525878906,77.69999694824219,50.29999923706055,80.5999984741211,50.5C85.0999984741211,50.70000076293945,88.5,53.599998474121094,88.30000305175781,57C88.19999694824219,57.5,87.80000305175781,57.900001525878906,87.30000305175781,57.900001525878906zM49.099998474121094,58.099998474121094C48.599998474121094,58.099998474121094,48.099998474121094,57.70000076293945,48.099998474121094,57.20000076293945C48,55.900001525878906,48.400001525878906,54.599998474121094,49.400001525878906,53.400001525878906C50.79999923706055,51.70000076293945,53.099998474121094,50.70000076293945,55.599998474121094,50.5C58.400001525878906,50.29999923706055,60.29999923706055,50.79999923706055,61.79999923706055,52.20000076293945C62.20000076293945,52.599998474121094,62.20000076293945,53.20000076293945,61.79999923706055,53.599998474121094C61.400001525878906,54,60.79999923706055,54,60.400001525878906,53.599998474121094C59.70000076293945,52.900001525878906,58.5,52.20000076293945,55.70000076293945,52.400001525878906C53.70000076293945,52.599998474121094,51.900001525878906,53.400001525878906,50.900001525878906,54.599998474121094C50.5,55.099998474121094,50,55.900001525878906,50.099998474121094,56.900001525878906C50.20000076293945,57.599998474121094,49.79999923706055,58.099998474121094,49.099998474121094,58.099998474121094C49.20000076293945,58.099998474121094,49.20000076293945,58.099998474121094,49.099998474121094,58.099998474121094z"/>
</g>
</svg>