<svg xmlns="http://www.w3.org/2000/svg" xmlns:xlink="http://www.w3.org/1999/xlink" viewBox= "0 0 205 410" width="205px" height="410px">
<g xmlns="http://www.w3.org/2000/svg" id="Teen2V2.svg">
<path id="Body" fill="#E0B585" d="M67.9000015258789,195.6999969482422C69.69999694824219,198.3000030517578,67,199.39999389648438,66.4000015258789,200.10000610351562C66.9000015258789,200.6999969482422,67.5999984741211,202.1999969482422,64.69999694824219,203.5C63.5,203.60000610351562,61,202.6999969482422,55.599998474121094,199.5C50.20000076293945,196.3000030517578,48.099998474121094,188.89999389648438,44.20000076293945,185.89999389648438C44.20000076293945,185.89999389648438,46.70000076293945,175.8000030517578,49.599998474121094,178C52.5,180.10000610351562,68.30000305175781,183.60000610351562,70.5999984741211,186.60000610351562C71.30000305175781,187.60000610351562,71.30000305175781,190.6999969482422,69.5,190.89999389648438C70.69999694824219,191.89999389648438,69.0999984741211,196.10000610351562,67.9000015258789,195.6999969482422zM69.5,312.5C69.19999694824219,320.3999938964844,69.80000305175781,329.79998779296875,72,342.29998779296875C74.19999694824219,354.70001220703125,73.5,356.6000061035156,72.5999984741211,358.8999938964844C71.69999694824219,361.20001220703125,70.0999984741211,365.70001220703125,70.5,367.6000061035156C70.80000305175781,369.5,86.19999694824219,374.3999938964844,86.5,370.6000061035156C86.80000305175781,366.79998779296875,86.80000305175781,355.8999938964844,89,343.1000061035156C91.19999694824219,330.29998779296875,92.0999984741211,309.20001220703125,90.19999694824219,304.6000061035156C88.30000305175781,300,69.5,312.5,69.5,312.5zM110.0999984741211,307.6000061035156C110.69999694824219,311.79998779296875,108.9000015258789,320,110.69999694824219,329.1000061035156C112.5,338.20001220703125,116.9000015258789,348,117.19999694824219,356.6000061035156C117.5,365.29998779296875,115.4000015258789,374.70001220703125,117.80000305175781,374.70001220703125C120.19999694824219,374.70001220703125,131.89999389648438,372.3999938964844,131.89999389648438,364.8999938964844C131.89999389648438,357.3999938964844,131,337,131.89999389648438,327.20001220703125C132.8000030517578,317.3999938964844,131,315.8999938964844,130.39999389648438,309.5C129.6999969482422,303.1000061035156,110.0999984741211,307.6000061035156,110.0999984741211,307.6000061035156zM191.8000030517578,223.5C191.10000610351562,222.1999969482422,183.89999389648438,214,184.10000610351562,213.60000610351562C184.3000030517578,213.1999969482422,190,214.3000030517578,190,210.60000610351562C190,206.8000030517578,180.60000610351562,205.3000030517578,177.60000610351562,205.60000610351562C174.60000610351562,205.89999389648438,167.6999969482422,206.89999389648438,164.3000030517578,202.39999389648438L156.5,207.39999389648438C159.5,210.8000030517578,162.6999969482422,214.39999389648438,163.5,216.6999969482422C164.3000030517578,219,172.6999969482422,229.3000030517578,174.89999389648438,229.89999389648438C177.10000610351562,230.5,184.89999389648438,233.60000610351562,188,231C191.1999969482422,228.39999389648438,192.60000610351562,224.89999389648438,191.8000030517578,223.5zM89.19999694824219,88.0999984741211C89.80000305175781,95,88.80000305175781,105.5999984741211,79.5,106.19999694824219C68.4000015258789,106.80000305175781,84.69999694824219,128.89999389648438,100.0999984741211,128.60000610351562C115.5,128.3000030517578,128.6999969482422,107.19999694824219,123.69999694824219,106.69999694824219C119,106.0999984741211,112,102.0999984741211,112,87.69999694824219L112,87.69999694824219C111.30000305175781,88,104.5,91.69999694824219,100.4000015258789,91.69999694824219C96.5999984741211,91.69999694824219,92.80000305175781,90.4000015258789,89.19999694824219,88L89.19999694824219,88.0999984741211z"/>
<path id="Head" fill="#FFFFFF" d="M128.10000610351562,56.599998474121094C128.10000610351562,75,113.19999694824219,91.80000305175781,100.19999694824219,91.80000305175781C87.30000305175781,91.80000305175781,72.19999694824219,75,72.19999694824219,56.599998474121094C72.19999694824219,53.900001525878906,72.5,43.099998474121094,73,40.79999923706055C76,27.700000762939453,87,22.100000381469727,100.19999694824219,22.100000381469727C113.4000015258789,22.100000381469727,124.4000015258789,27.700000762939453,127.30000305175781,40.70000076293945C127.80000305175781,43.099998474121094,128.10000610351562,53.900001525878906,128.10000610351562,56.599998474121094z"/>
<path id="BodyBorder" d="M68.30000305175781,200.60000610351562C69.19999694824219,199.89999389648438,70.5,198.39999389648438,70,196.39999389648438C70.30000305175781,196.10000610351562,70.5999984741211,195.60000610351562,70.9000015258789,195.10000610351562C71.4000015258789,194,71.69999694824219,192.8000030517578,71.5,191.6999969482422C71.80000305175781,191.39999389648438,72,191,72.19999694824219,190.60000610351562C72.80000305175781,189,72.69999694824219,186.89999389648438,71.80000305175781,185.8000030517578C70.30000305175781,183.8000030517578,65.5999984741211,182.1999969482422,58.599998474121094,179.89999389648438C55.29999923706055,178.8000030517578,51.5,177.60000610351562,50.5,176.8000030517578C49.70000076293945,176.1999969482422,48.70000076293945,176,47.70000076293945,176.39999389648438C44.900001525878906,177.39999389648438,43.099998474121094,183.1999969482422,42.5,185.6999969482422C42.29999923706055,186.3000030517578,42.599998474121094,187,43.099998474121094,187.39999389648438C44.599998474121094,188.5,45.900001525878906,190.60000610351562,47.20000076293945,192.6999969482422C49.099998474121094,195.6999969482422,51.29999923706055,199.10000610351562,54.599998474121094,201.10000610351562C60.29999923706055,204.5,62.70000076293945,205.3000030517578,64.30000305175781,205.3000030517578C64.4000015258789,205.3000030517578,64.5999984741211,205.3000030517578,64.69999694824219,205.3000030517578C64.9000015258789,205.3000030517578,65.0999984741211,205.1999969482422,65.19999694824219,205.10000610351562C66.9000015258789,204.3000030517578,67.9000015258789,203.3000030517578,68.0999984741211,202.10000610351562C68.4000015258789,201.60000610351562,68.4000015258789,201.10000610351562,68.30000305175781,200.60000610351562zM68.30000305175781,192.1999969482422C68.30000305175781,192.6999969482422,68,193.6999969482422,67.69999694824219,194.10000610351562C67.30000305175781,194.1999969482422,66.9000015258789,194.39999389648438,66.5999984741211,194.6999969482422C66.19999694824219,195.3000030517578,66.19999694824219,196,66.5999984741211,196.60000610351562C67.0999984741211,197.3000030517578,67.0999984741211,197.39999389648438,66,198.3000030517578C65.69999694824219,198.5,65.4000015258789,198.6999969482422,65.19999694824219,199C64.69999694824219,199.60000610351562,64.5999984741211,200.5,65.0999984741211,201.10000610351562C65.19999694824219,201.1999969482422,65.19999694824219,201.3000030517578,65.19999694824219,201.1999969482422C65.19999694824219,201.1999969482422,65,201.5,64.30000305175781,201.89999389648438C63.5,201.8000030517578,61.5,201.1999969482422,56.400001525878906,198.10000610351562C53.70000076293945,196.5,51.79999923706055,193.60000610351562,50,190.8000030517578C48.70000076293945,188.8000030517578,47.5,186.8000030517578,45.900001525878906,185.39999389648438C46.70000076293945,182.60000610351562,47.900001525878906,180,48.599998474121094,179.39999389648438C50,180.39999389648438,53,181.39999389648438,57.5,182.8000030517578C61.70000076293945,184.1999969482422,68.0999984741211,186.1999969482422,69.0999984741211,187.5C69.30000305175781,187.89999389648438,69.19999694824219,189.10000610351562,69.0999984741211,189.3000030517578C68.4000015258789,189.39999389648438,67.9000015258789,189.89999389648438,67.69999694824219,190.60000610351562C67.69999694824219,191.3000030517578,67.9000015258789,191.8000030517578,68.30000305175781,192.1999969482422zM193.3000030517578,222.8000030517578C192.89999389648438,222.10000610351562,191.8000030517578,220.6999969482422,189.39999389648438,217.6999969482422C188.6999969482422,216.89999389648438,187.89999389648438,215.89999389648438,187.1999969482422,215C189.1999969482422,214.6999969482422,191.6999969482422,213.8000030517578,191.6999969482422,210.60000610351562C191.6999969482422,209.8000030517578,191.39999389648438,208.60000610351562,190.1999969482422,207.39999389648438C187.3000030517578,204.6999969482422,180.3000030517578,203.6999969482422,177.60000610351562,204L176.89999389648438,204.10000610351562C173.89999389648438,204.39999389648438,168.39999389648438,204.89999389648438,165.6999969482422,201.5C165.1999969482422,200.8000030517578,164.1999969482422,200.6999969482422,163.5,201.10000610351562L155.6999969482422,206.10000610351562C155.3000030517578,206.39999389648438,155,206.8000030517578,155,207.1999969482422C154.89999389648438,207.6999969482422,155.10000610351562,208.10000610351562,155.39999389648438,208.5L156.10000610351562,209.3000030517578C158.60000610351562,212.1999969482422,161.5,215.5,162.10000610351562,217.3000030517578C162.89999389648438,219.6999969482422,171.60000610351562,230.6999969482422,174.60000610351562,231.60000610351562C174.89999389648438,231.6999969482422,175.3000030517578,231.8000030517578,175.8000030517578,232C178,232.6999969482422,181.39999389648438,233.8000030517578,184.5,233.8000030517578C186.3000030517578,233.8000030517578,187.89999389648438,233.39999389648438,189.10000610351562,232.39999389648438C192.60000610351562,229.39999389648438,194.5,225,193.3000030517578,222.8000030517578zM187,229.6999969482422C186.6999969482422,230,186.1999969482422,230.10000610351562,185.6999969482422,230.1999969482422C184.89999389648438,229.39999389648438,183.1999969482422,227.3000030517578,182.10000610351562,225.8000030517578C180.89999389648438,224.1999969482422,179.6999969482422,222.6999969482422,178.89999389648438,221.8000030517578C178.5,221.39999389648438,177.89999389648438,221.39999389648438,177.5,221.8000030517578C177.10000610351562,222.1999969482422,177.10000610351562,222.8000030517578,177.5,223.1999969482422C178.1999969482422,224,179.39999389648438,225.5,180.5,227C181.5,228.39999389648438,182.3000030517578,229.39999389648438,183,230.1999969482422C182.10000610351562,230.10000610351562,181.10000610351562,229.89999389648438,180.1999969482422,229.6999969482422C179.6999969482422,229.1999969482422,177.8000030517578,226.6999969482422,176.60000610351562,225C175.8000030517578,223.89999389648438,175,222.89999389648438,174.5,222.1999969482422C174.1999969482422,221.8000030517578,173.5,221.6999969482422,173.10000610351562,222C172.6999969482422,222.3000030517578,172.60000610351562,223,172.89999389648438,223.39999389648438C173.39999389648438,224.10000610351562,174.1999969482422,225.10000610351562,175,226.1999969482422C175.6999969482422,227.1999969482422,176.39999389648438,228,176.89999389648438,228.6999969482422L176.8000030517578,228.6999969482422C176.3000030517578,228.5,175.8000030517578,228.39999389648438,175.5,228.3000030517578C174,227.6999969482422,165.89999389648438,218.5,165.1999969482422,216.1999969482422C164.5,213.89999389648438,161.89999389648438,210.89999389648438,159.10000610351562,207.8000030517578L164.1999969482422,204.60000610351562C168.10000610351562,208.3000030517578,174.1999969482422,207.6999969482422,177.3000030517578,207.39999389648438L178,207.3000030517578C180.3000030517578,207.10000610351562,186.10000610351562,208,188.10000610351562,209.89999389648438C188.39999389648438,210.1999969482422,188.60000610351562,210.5,188.60000610351562,210.6999969482422C188.60000610351562,211.39999389648438,188.3000030517578,212,185.1999969482422,212C184.60000610351562,212,184,212,183.5,212.3000030517578L180.10000610351562,211.6999969482422C179.6999969482422,211.60000610351562,179.3000030517578,211.8000030517578,179.10000610351562,212.1999969482422C178.5,212.6999969482422,174.8000030517578,213.39999389648438,173,212.6999969482422C172.60000610351562,212.60000610351562,172.5,212.39999389648438,172.5,212.39999389648438C172.39999389648438,211.89999389648438,171.89999389648438,211.5,171.39999389648438,211.5C170.89999389648438,211.60000610351562,170.5,212.10000610351562,170.5,212.60000610351562C170.60000610351562,213.39999389648438,171.1999969482422,214.39999389648438,173.3000030517578,214.8000030517578C173.8000030517578,214.89999389648438,174.39999389648438,214.89999389648438,175,214.89999389648438C176.89999389648438,214.89999389648438,179.10000610351562,214.5,180.3000030517578,213.6999969482422L182.6999969482422,214.10000610351562C183,214.89999389648438,184.10000610351562,216.3000030517578,187,219.8000030517578C188.39999389648438,221.5,190.3000030517578,223.8000030517578,190.5,224.3000030517578C190.60000610351562,224.6999969482422,190.39999389648438,225.60000610351562,189.6999969482422,226.8000030517578C187.3000030517578,224.39999389648438,185,221.8000030517578,182.89999389648438,219.1999969482422C182.60000610351562,218.8000030517578,181.89999389648438,218.6999969482422,181.5,219C181.10000610351562,219.3000030517578,181,220,181.3000030517578,220.39999389648438C183.5,223.1999969482422,186,225.89999389648438,188.5,228.39999389648438C188,228.8000030517578,187.60000610351562,229.3000030517578,187,229.6999969482422zM89.5999984741211,302.20001220703125C84.9000015258789,300.70001220703125,72.30000305175781,308.70001220703125,68.5999984741211,311.20001220703125C68.19999694824219,311.5,67.9000015258789,312,67.9000015258789,312.5C67.5999984741211,321.20001220703125,68.4000015258789,331.1000061035156,70.4000015258789,342.6000061035156C72.5,354.8999938964844,71.9000015258789,356.5,71.0999984741211,358.29998779296875C70.5999984741211,359.3999938964844,68.4000015258789,365.1000061035156,68.9000015258789,367.8999938964844C69.4000015258789,371,79.80000305175781,373.70001220703125,83.69999694824219,373.70001220703125C83.80000305175781,373.70001220703125,83.9000015258789,373.70001220703125,84,373.70001220703125C87.5,373.6000061035156,88,371.70001220703125,88.0999984741211,370.79998779296875C88.19999694824219,369.79998779296875,88.19999694824219,368.3999938964844,88.30000305175781,366.70001220703125C88.5,361.6000061035156,88.9000015258789,353,90.5,343.3999938964844C92.5,331.6000061035156,93.80000305175781,309.29998779296875,91.5999984741211,304.1000061035156C91.30000305175781,303.1000061035156,90.5999984741211,302.5,89.5999984741211,302.20001220703125zM87.30000305175781,342.79998779296875C85.69999694824219,352.5,85.30000305175781,361.29998779296875,85,366.5C84.9000015258789,368.1000061035156,84.9000015258789,369.3999938964844,84.80000305175781,370.29998779296875C83.0999984741211,371,74.0999984741211,369,72,367.1000061035156C72,365.79998779296875,72.9000015258789,362.6000061035156,74.0999984741211,359.6000061035156C75.19999694824219,356.8999938964844,75.69999694824219,354.70001220703125,73.5999984741211,342.1000061035156C71.69999694824219,331.1000061035156,70.9000015258789,321.70001220703125,71.0999984741211,313.5C79,308.3999938964844,87,304.6000061035156,88.5999984741211,305.29998779296875C90.19999694824219,309.3999938964844,89.5,329.6000061035156,87.30000305175781,342.79998779296875zM132.8000030517578,314.3999938964844C132.5,312.8999938964844,132.10000610351562,311.3999938964844,131.89999389648438,309.29998779296875C131.8000030517578,308,131.10000610351562,306.8999938964844,130,306.1000061035156C125.0999984741211,302.6000061035156,111.19999694824219,305.70001220703125,109.69999694824219,306C108.9000015258789,306.20001220703125,108.30000305175781,307,108.5,307.79998779296875C108.69999694824219,309.20001220703125,108.5999984741211,311.29998779296875,108.5,313.70001220703125C108.30000305175781,318.1000061035156,108,323.5,109.19999694824219,329.3999938964844C109.9000015258789,332.8999938964844,111,336.5,112,340.1000061035156C113.69999694824219,345.70001220703125,115.4000015258789,351.5,115.5999984741211,356.70001220703125C115.69999694824219,359.8999938964844,115.5,363.20001220703125,115.30000305175781,366.1000061035156C114.9000015258789,371.5,114.80000305175781,374.20001220703125,116.0999984741211,375.6000061035156C116.5999984741211,376.1000061035156,117.19999694824219,376.3999938964844,117.9000015258789,376.3999938964844C121.4000015258789,376.3999938964844,133.6999969482422,373.70001220703125,133.6999969482422,365C133.6999969482422,362.8999938964844,133.60000610351562,359.70001220703125,133.5,356.1000061035156C133.3000030517578,346.8999938964844,133,334.3999938964844,133.6999969482422,327.3999938964844C134.10000610351562,320.6000061035156,133.5,317.6000061035156,132.8000030517578,314.3999938964844zM130.3000030517578,327.1000061035156C129.60000610351562,334.20001220703125,129.89999389648438,346.8999938964844,130.10000610351562,356.1000061035156C130.1999969482422,359.70001220703125,130.3000030517578,362.79998779296875,130.3000030517578,364.8999938964844C130.3000030517578,370.5,121.30000305175781,372.79998779296875,118.30000305175781,373C118.0999984741211,371.79998779296875,118.30000305175781,368.79998779296875,118.4000015258789,366.20001220703125C118.5999984741211,363.20001220703125,118.80000305175781,359.79998779296875,118.69999694824219,356.5C118.5,350.8999938964844,116.69999694824219,344.8999938964844,115,339.1000061035156C114,335.6000061035156,112.9000015258789,332.1000061035156,112.19999694824219,328.70001220703125C111.0999984741211,323.20001220703125,111.4000015258789,318,111.5999984741211,313.79998779296875C111.69999694824219,311.8999938964844,111.80000305175781,310.20001220703125,111.69999694824219,308.79998779296875C117.19999694824219,307.70001220703125,125.5,306.79998779296875,128,308.6000061035156C128.5,308.8999938964844,128.5,309.20001220703125,128.60000610351562,309.5C128.8000030517578,311.70001220703125,129.1999969482422,313.3999938964844,129.5,315C130.3000030517578,318.20001220703125,130.89999389648438,320.79998779296875,130.3000030517578,327.1000061035156zM126.4000015258789,108.30000305175781C126.5,106.0999984741211,125.0999984741211,105.19999694824219,123.9000015258789,105C115.4000015258789,104,113.80000305175781,94.0999984741211,113.5999984741211,88.4000015258789C116,86.69999694824219,118.30000305175781,84.5,120.4000015258789,82C126.4000015258789,74.69999694824219,129.8000030517578,65.4000015258789,129.8000030517578,56.5C129.8000030517578,54.400001525878906,129.60000610351562,42.900001525878906,128.89999389648438,40.29999923706055C126,27.700000762939453,115.5999984741211,20.399999618530273,100.19999694824219,20.399999618530273C84.80000305175781,20.399999618530273,74.4000015258789,27.700000762939453,71.5,40.400001525878906C71,43,70.80000305175781,54.70000076293945,70.80000305175781,56.5C70.80000305175781,70.19999694824219,78.5,82.5,87.69999694824219,88.80000305175781C88,92.9000015258789,87.5999984741211,98.19999694824219,85.0999984741211,101.5C83.69999694824219,103.30000305175781,81.9000015258789,104.19999694824219,79.4000015258789,104.4000015258789C76,104.5999984741211,74.0999984741211,106.5,74.19999694824219,109.5999984741211C74.5,117.0999984741211,87.4000015258789,130.10000610351562,99.69999694824219,130.10000610351562C99.80000305175781,130.10000610351562,99.9000015258789,130.10000610351562,100,130.10000610351562C113.9000015258789,129.8000030517578,126.0999984741211,114.0999984741211,126.4000015258789,108.30000305175781zM74,56.5C74,53.400001525878906,74.30000305175781,43,74.69999694824219,41.099998474121094C76.19999694824219,34.599998474121094,81.5,23.700000762939453,100.30000305175781,23.700000762939453C119.0999984741211,23.700000762939453,124.4000015258789,34.599998474121094,125.80000305175781,41.099998474121094C126.30000305175781,43.099998474121094,126.5999984741211,53.400001525878906,126.5999984741211,56.599998474121094C126.5999984741211,74.69999694824219,112.19999694824219,90.19999694824219,100.4000015258789,90.19999694824219C86.4000015258789,90.0999984741211,74,71.30000305175781,74,56.5zM100.0999984741211,126.80000305175781C89.19999694824219,127,77.80000305175781,115,77.5,109.4000015258789C77.5,108.5999984741211,77.5999984741211,107.69999694824219,79.5999984741211,107.5999984741211C83,107.4000015258789,85.69999694824219,106,87.69999694824219,103.5C90.30000305175781,100.0999984741211,91.0999984741211,95.19999694824219,91,90.80000305175781L91,90.80000305175781C94.0999984741211,92.4000015258789,97.30000305175781,93.30000305175781,100.4000015258789,93.30000305175781C103.69999694824219,93.30000305175781,107.19999694824219,92.30000305175781,110.5,90.4000015258789C111.5,104.9000015258789,119.9000015258789,107.5999984741211,123.19999694824219,108.0999984741211C123.0999984741211,109,122.19999694824219,111.5,119.80000305175781,114.69999694824219C115.4000015258789,120.5,108,126.69999694824219,100.0999984741211,126.80000305175781z"/>
<path id="Pants" fill="#6EFFE3" d="M68,213C66.80000305175781,222.8000030517578,64.30000305175781,250,66.80000305175781,267.70001220703125C69.30000305175781,285.3999938964844,69.5999984741211,294.1000061035156,69.30000305175781,299.3999938964844C69,304.70001220703125,69.9000015258789,312.6000061035156,69.30000305175781,315.20001220703125C68.69999694824219,317.79998779296875,88.5999984741211,309.8999938964844,90.80000305175781,305.79998779296875C92.0999984741211,303.5,92.4000015258789,300.79998779296875,91.69999694824219,298.29998779296875C91.69999694824219,298.29998779296875,94.19999694824219,281.3999938964844,95.4000015258789,267.79998779296875C96.69999694824219,254.1999969482422,98.5999984741211,238.39999389648438,99.5,238C100,237.8000030517578,100.5999984741211,237.8000030517578,101,238.1999969482422C101,238.1999969482422,102.0999984741211,264.3999938964844,105.19999694824219,278.3999938964844C108.30000305175781,292.3999938964844,108,309.70001220703125,108.30000305175781,311.6000061035156C108.5999984741211,313.5,132.60000610351562,317.6000061035156,132.60000610351562,315.70001220703125C132.60000610351562,313.79998779296875,129.8000030517578,301.70001220703125,130.39999389648438,291.20001220703125C131,280.70001220703125,138.39999389648438,249,137.1999969482422,232.6999969482422C136,216.5,135.6999969482422,202.1999969482422,134.10000610351562,202.5S68,213,68,213z"/>
<path id="PantsBorder" d="M139.8000030517578,318.5C137.1999969482422,316.20001220703125,135.1999969482422,315,134.10000610351562,314.3999938964844C134,313.79998779296875,133.89999389648438,313,133.6999969482422,311.8999938964844C133,307.29998779296875,131.60000610351562,298.70001220703125,132,291.1000061035156C132.1999969482422,287.5,133.1999969482422,281.29998779296875,134.39999389648438,274C136.6999969482422,260.20001220703125,139.5,243.10000610351562,138.6999969482422,232.39999389648438C138.39999389648438,227.89999389648438,138.10000610351562,223.5,137.8000030517578,219.60000610351562C136.89999389648438,205.3000030517578,136.60000610351562,202.10000610351562,135.10000610351562,201.10000610351562C134.60000610351562,200.8000030517578,134.10000610351562,200.60000610351562,133.5,200.8000030517578C131.8000030517578,201.1999969482422,85.4000015258789,208.5,67.5999984741211,211.3000030517578C66.9000015258789,211.39999389648438,66.30000305175781,212,66.19999694824219,212.6999969482422C64.69999694824219,224.3000030517578,62.599998474121094,250.8000030517578,65,267.79998779296875C67,282.5,67.80000305175781,292.5,67.4000015258789,299.20001220703125C67.30000305175781,301.70001220703125,67.4000015258789,304.6000061035156,67.5,307.5C67.5999984741211,309.70001220703125,67.69999694824219,312,67.5999984741211,313.5C67.4000015258789,313.5,67.0999984741211,313.6000061035156,66.9000015258789,313.70001220703125C66.69999694824219,313.79998779296875,62.29999923706055,316.70001220703125,60.79999923706055,320.5C60.5,321.29998779296875,60.900001525878906,322.29998779296875,61.70000076293945,322.6000061035156C62.5,322.8999938964844,63.5,322.5,63.79999923706055,321.70001220703125C64.19999694824219,320.79998779296875,64.80000305175781,319.8999938964844,65.5999984741211,319.1000061035156C65.19999694824219,321.6000061035156,64.80000305175781,324,64.5,324.70001220703125C64.19999694824219,325.5,64.69999694824219,326.5,65.5,326.79998779296875C65.69999694824219,326.8999938964844,65.9000015258789,326.8999938964844,66,326.8999938964844C66.69999694824219,326.8999938964844,67.30000305175781,326.5,67.5,325.79998779296875C68,324.5,68.69999694824219,320,69.0999984741211,317.29998779296875C71.69999694824219,317.70001220703125,78,315.20001220703125,80.69999694824219,314C84.30000305175781,312.3999938964844,90.5,309.29998779296875,91.9000015258789,306.6000061035156C93.30000305175781,304,93.80000305175781,301,93.0999984741211,298.20001220703125C93.4000015258789,295.79998779296875,95.5999984741211,280.29998779296875,96.80000305175781,267.8999938964844C97.80000305175781,257.70001220703125,98.69999694824219,249.5,99.5,244.5C100,253.1999969482422,101.19999694824219,268.79998779296875,103.4000015258789,278.70001220703125C105.69999694824219,289.29998779296875,106.0999984741211,301.8999938964844,106.30000305175781,308C106.4000015258789,310.29998779296875,106.4000015258789,311.29998779296875,106.5,311.79998779296875C106.69999694824219,312.79998779296875,106.9000015258789,314.1000061035156,117.69999694824219,316.20001220703125C122,317,127.4000015258789,317.79998779296875,130.39999389648438,317.79998779296875C130.6999969482422,317.79998779296875,130.89999389648438,317.79998779296875,131.1999969482422,317.79998779296875C132.5,323.3999938964844,133.6999969482422,326.6000061035156,134.89999389648438,327.3999938964844C135.1999969482422,327.6000061035156,135.5,327.70001220703125,135.8000030517578,327.70001220703125C136.3000030517578,327.70001220703125,136.8000030517578,327.5,137.10000610351562,327C137.60000610351562,326.29998779296875,137.5,325.29998779296875,136.8000030517578,324.79998779296875C136.3000030517578,324.20001220703125,135.5,321.70001220703125,134.8000030517578,318.8999938964844C135.60000610351562,319.3999938964844,136.5,320.1000061035156,137.39999389648438,321C138.10000610351562,321.6000061035156,139.10000610351562,321.6000061035156,139.6999969482422,320.8999938964844C140.5,320.1000061035156,140.39999389648438,319.1000061035156,139.8000030517578,318.5zM109.80000305175781,310.6000061035156C109.80000305175781,310,109.69999694824219,308.8999938964844,109.69999694824219,307.70001220703125C109.5,301.5,109.0999984741211,288.70001220703125,106.80000305175781,277.79998779296875C103.80000305175781,264.1000061035156,102.69999694824219,238.10000610351562,102.5999984741211,237.89999389648438C102.5999984741211,237.5,102.4000015258789,237,102,236.6999969482422C101.0999984741211,235.89999389648438,99.80000305175781,235.6999969482422,98.80000305175781,236.1999969482422C97.80000305175781,236.60000610351562,96.5,237.10000610351562,93.69999694824219,267.3999938964844C92.4000015258789,280.79998779296875,90,297.70001220703125,90,297.8999938964844C90,298.1000061035156,90,298.29998779296875,90,298.6000061035156C90.5999984741211,300.70001220703125,90.30000305175781,303,89.19999694824219,305C87.80000305175781,307.79998779296875,75.19999694824219,313.20001220703125,70.9000015258789,314C71,312.29998779296875,70.9000015258789,310,70.80000305175781,307.3999938964844C70.69999694824219,304.6000061035156,70.5999984741211,301.79998779296875,70.69999694824219,299.3999938964844C71.0999984741211,292.5,70.30000305175781,282.29998779296875,68.19999694824219,267.3999938964844C66,251.3000030517578,67.9000015258789,226.39999389648438,69.30000305175781,214.39999389648438C79.0999984741211,212.89999389648438,125.0999984741211,205.60000610351562,133.10000610351562,204.1999969482422C133.60000610351562,206.60000610351562,134.10000610351562,213.3000030517578,134.5,219.89999389648438C134.6999969482422,223.8000030517578,135,228.1999969482422,135.39999389648438,232.6999969482422C136.1999969482422,243.10000610351562,133.39999389648438,260,131.10000610351562,273.5C129.89999389648438,280.79998779296875,128.8000030517578,287.1000061035156,128.60000610351562,290.8999938964844C128.10000610351562,298.79998779296875,129.5,307.6000061035156,130.3000030517578,312.3999938964844C130.39999389648438,313.1000061035156,130.5,313.79998779296875,130.60000610351562,314.3999938964844C126.5999984741211,314.5,112.5999984741211,312,109.80000305175781,310.6000061035156z"/>
<path id="Shirt" fill="#FFFBCA" d="M79.69999694824219,101.4000015258789C74.5999984741211,99.5999984741211,64.9000015258789,100.19999694824219,57.5,106C48.400001525878906,113.0999984741211,11.699999809265137,152.8000030517578,12.100000381469727,158.6999969482422C12.399999618530273,164.60000610351562,29,178.3000030517578,37.900001525878906,183.60000610351562C46.79999923706055,188.89999389648438,43,188.10000610351562,43,188.10000610351562L51.900001525878906,178.1999969482422C51.900001525878906,178.1999969482422,32.70000076293945,160.89999389648438,32.70000076293945,158.60000610351562C32.70000076293945,156.3000030517578,65.5999984741211,129.6999969482422,66.80000305175781,129.6999969482422C68.0999984741211,129.6999969482422,68.0999984741211,143.8000030517578,70.9000015258789,150.6999969482422C73.69999694824219,157.60000610351562,75.30000305175781,175.39999389648438,73.69999694824219,181.89999389648438C72.0999984741211,188.39999389648438,65.80000305175781,213.1999969482422,66.5,215.1999969482422C67.19999694824219,217.1999969482422,93.80000305175781,214.89999389648438,108.69999694824219,213.60000610351562C123.5999984741211,212.3000030517578,134.6999969482422,206.39999389648438,135.39999389648438,204.6999969482422C136.10000610351562,203,127.5,191.1999969482422,126.5,176.10000610351562C125.9000015258789,167.39999389648438,126.5,158.60000610351562,128.39999389648438,150.10000610351562C128.39999389648438,150.10000610351562,134.6999969482422,186.3000030517578,138.5,190.1999969482422C142.3000030517578,194.10000610351562,158.1999969482422,212.89999389648438,159.8000030517578,213.1999969482422C161.39999389648438,213.5,170.89999389648438,202.6999969482422,170.89999389648438,202.6999969482422C170.89999389648438,202.6999969482422,152.5,180.3000030517578,150.60000610351562,174.10000610351562C148.6999969482422,167.89999389648438,149.60000610351562,121.80000305175781,140.39999389648438,113.5999984741211C131.1999969482422,105.4000015258789,120,102.0999984741211,118.0999984741211,104C116.19999694824219,105.9000015258789,104.80000305175781,121.80000305175781,99.0999984741211,121.4000015258789S81.5999984741211,102.0999984741211,79.69999694824219,101.4000015258789z"/>
<path id="ShirtBorder" d="M72.19999694824219,217.60000610351562C66,217.60000610351562,65.19999694824219,216.8000030517578,64.80000305175781,215.6999969482422C64.30000305175781,214.3000030517578,65.0999984741211,209.39999389648438,71,185.8000030517578C71.4000015258789,184,71.80000305175781,182.5,72.0999984741211,181.5C73.5999984741211,175.1999969482422,72,157.6999969482422,69.30000305175781,151.3000030517578C67.5999984741211,147.1999969482422,66.9000015258789,141.10000610351562,66.30000305175781,136.1999969482422C66.0999984741211,134.8000030517578,66,133.1999969482422,65.80000305175781,132.10000610351562C59.599998474121094,136.5,37.29999923706055,154.89999389648438,34.29999923706055,158.6999969482422C35.900001525878906,161.1999969482422,44.70000076293945,169.6999969482422,52.79999923706055,177C53.5,177.60000610351562,53.5,178.60000610351562,52.900001525878906,179.3000030517578L45.29999923706055,187.8000030517578C45.29999923706055,188.10000610351562,45.29999923706055,188.3000030517578,45.099998474121094,188.60000610351562C44.79999923706055,189.3000030517578,44,190,42.5,189.6999969482422C41.900001525878906,189.60000610351562,41.5,189.1999969482422,41.29999923706055,188.60000610351562C41.20000076293945,188.3000030517578,41.20000076293945,188,41.29999923706055,187.6999969482422C40.599998474121094,187.1999969482422,39.29999923706055,186.3000030517578,37,184.89999389648438C29.200000762939453,180.3000030517578,10.800000190734863,165.8000030517578,10.399999618530273,158.6999969482422C10,151.5,48.5,111,56.5,104.80000305175781C64.0999984741211,98.9000015258789,74.19999694824219,97.9000015258789,80.19999694824219,99.9000015258789L80.19999694824219,99.9000015258789C81.19999694824219,100.19999694824219,82.0999984741211,101.4000015258789,85.69999694824219,106C89.0999984741211,110.5,96.19999694824219,119.69999694824219,99.19999694824219,119.9000015258789C103,120.0999984741211,111.9000015258789,109.0999984741211,114.9000015258789,105.4000015258789C115.9000015258789,104.19999694824219,116.5999984741211,103.30000305175781,117,102.9000015258789C120.0999984741211,99.69999694824219,132.6999969482422,104.5,141.5,112.4000015258789C147.89999389648438,118.19999694824219,149.60000610351562,138.1999969482422,150.89999389648438,160.10000610351562C151.3000030517578,166.5,151.60000610351562,172,152.10000610351562,173.6999969482422C153.60000610351562,178.60000610351562,167,195.60000610351562,172.10000610351562,201.8000030517578C172.60000610351562,202.39999389648438,172.60000610351562,203.3000030517578,172.10000610351562,203.89999389648438C162,215.39999389648438,160.3000030517578,215.10000610351562,159.5,214.89999389648438C158.1999969482422,214.6999969482422,156.1999969482422,212.6999969482422,144.39999389648438,199.1999969482422C141.3000030517578,195.6999969482422,138.6999969482422,192.6999969482422,137.39999389648438,191.39999389648438C134.5,188.39999389648438,130.6999969482422,170.89999389648438,128.5,159.5C127.9000015258789,165,127.69999694824219,170.5,128.10000610351562,176C128.6999969482422,185.89999389648438,132.6999969482422,194.39999389648438,135.10000610351562,199.5C136.6999969482422,202.8000030517578,137.3000030517578,204.1999969482422,136.8000030517578,205.39999389648438C135.6999969482422,208.10000610351562,123.5,214,108.80000305175781,215.3000030517578C88.80000305175781,217,78.0999984741211,217.60000610351562,72.19999694824219,217.60000610351562zM68,214.89999389648438L68,214.89999389648438L68,214.89999389648438zM68,214.1999969482422C72.9000015258789,215.10000610351562,97.5999984741211,212.89999389648438,108.5,212C122,210.8000030517578,131.8000030517578,205.89999389648438,133.60000610351562,204.1999969482422C133.39999389648438,203.5,132.6999969482422,202.10000610351562,132.10000610351562,200.8000030517578C129.60000610351562,195.5,125.4000015258789,186.6999969482422,124.80000305175781,176.1999969482422C124.19999694824219,167.3000030517578,124.80000305175781,158.39999389648438,126.69999694824219,149.6999969482422C126.9000015258789,149,127.5,148.39999389648438,128.3000030517578,148.39999389648438L128.3000030517578,148.39999389648438C129.10000610351562,148.39999389648438,129.6999969482422,149,129.89999389648438,149.6999969482422C132.3000030517578,163.5,137.10000610351562,186.39999389648438,139.60000610351562,189C140.89999389648438,190.39999389648438,143.60000610351562,193.39999389648438,146.6999969482422,196.89999389648438C150.89999389648438,201.6999969482422,157.8000030517578,209.5,159.89999389648438,211.3000030517578C161.39999389648438,210.1999969482422,165.3000030517578,206.3000030517578,168.6999969482422,202.60000610351562C164.6999969482422,197.6999969482422,150.6999969482422,180.3000030517578,149,174.5C148.39999389648438,172.5,148.10000610351562,167.3000030517578,147.60000610351562,160.1999969482422C146.6999969482422,145.1999969482422,145.1999969482422,120.0999984741211,139.3000030517578,114.80000305175781C130.3000030517578,106.69999694824219,120.69999694824219,104.5,119.30000305175781,105.19999694824219C119.0999984741211,105.5,118.30000305175781,106.4000015258789,117.5,107.4000015258789C111.19999694824219,115.0999984741211,104.0999984741211,123.4000015258789,99.0999984741211,123.0999984741211C94.9000015258789,122.9000015258789,89.4000015258789,116.0999984741211,83.19999694824219,107.9000015258789C81.5999984741211,105.80000305175781,79.80000305175781,103.4000015258789,79.0999984741211,102.9000015258789C74,101.19999694824219,65.0999984741211,102.19999694824219,58.599998474121094,107.30000305175781C45.400001525878906,117.5999984741211,13.800000190734863,154.60000610351562,13.800000190734863,158.60000610351562C14.100000381469727,163.39999389648438,29.600000381469727,176.6999969482422,38.79999923706055,182.1999969482422C40.900001525878906,183.5,42.400001525878906,184.39999389648438,43.5,185.1999969482422L49.70000076293945,178.39999389648438C31.200000762939453,161.60000610351562,31.200000762939453,159.39999389648438,31.200000762939453,158.6999969482422C31.200000762939453,157.6999969482422,31.200000762939453,156.39999389648438,48.400001525878906,142.10000610351562C65.30000305175781,128.10000610351562,66.5,128.10000610351562,67,128.10000610351562C69,128.10000610351562,69.19999694824219,130.10000610351562,69.9000015258789,135.89999389648438C70.4000015258789,140.39999389648438,71.0999984741211,146.5,72.5999984741211,150.10000610351562C75.5999984741211,157.3000030517578,77.19999694824219,175.3000030517578,75.5,182.3000030517578C75.19999694824219,183.3000030517578,74.9000015258789,184.8000030517578,74.4000015258789,186.60000610351562C72.5,193.3000030517578,68.30000305175781,210.1999969482422,68,214.1999969482422zM160.3000030517578,211.6999969482422L160.3000030517578,211.6999969482422L160.3000030517578,211.6999969482422zM159.39999389648438,211.6999969482422L159.39999389648438,211.6999969482422L159.39999389648438,211.6999969482422zM133.60000610351562,204.5L133.60000610351562,204.5L133.60000610351562,204.5zM34.099998474121094,158.39999389648438L34.099998474121094,158.39999389648438zM67.19999694824219,131.1999969482422L67.19999694824219,131.1999969482422zM79.0999984741211,103L79.0999984741211,103L79.0999984741211,103L79.0999984741211,103zM78.9000015258789,102.9000015258789L78.9000015258789,102.9000015258789L78.9000015258789,102.9000015258789z"/>
<path id="Hair" fill="#3A1C0E" d="M112.69999694824219,22.700000762939453C108.80000305175781,17.5,96.4000015258789,10.600000381469727,82.5,22S58.70000076293945,48.70000076293945,62.20000076293945,62.5C65.69999694824219,76.30000305175781,65.4000015258789,82.0999984741211,64.4000015258789,87.69999694824219C63.400001525878906,93.30000305175781,65.0999984741211,98.69999694824219,72.19999694824219,109.4000015258789C79.30000305175781,120.0999984741211,78.5999984741211,131,70.80000305175781,130C74.69999694824219,132.5,81.80000305175781,131.8000030517578,83.5999984741211,124C85.4000015258789,116.19999694824219,81.80000305175781,110.9000015258789,87.19999694824219,101.19999694824219C89,96.9000015258789,91.80000305175781,92.30000305175781,80.5,81.5999984741211C71.5,73.19999694824219,75.0999984741211,54.900001525878906,81.5,51.099998474121094C87.9000015258789,47.29999923706055,102.80000305175781,41.900001525878906,107.80000305175781,31.899999618530273C109.69999694824219,44,117,45.400001525878906,122,54.70000076293945C127,64,125.19999694824219,72.5,118.4000015258789,80.69999694824219C111.5999984741211,88.9000015258789,111.9000015258789,92.19999694824219,115.0999984741211,100.69999694824219C124.30000305175781,115.5999984741211,116.5999984741211,123.0999984741211,125.5999984741211,128.1999969482422C121.80000305175781,121.30000305175781,127.30000305175781,109.5,131.89999389648438,102.4000015258789C136.5,95.30000305175781,139,79.5999984741211,136.89999389648438,72.19999694824219C134.8000030517578,64.69999694824219,135.39999389648438,54.29999923706055,135.8000030517578,48.70000076293945C136.5,39.70000076293945,124.9000015258789,19.200000762939453,112.69999694824219,22.700000762939453z"/>
<path id="HairBorder" d="M75.30000305175781,133C73.4000015258789,133,71.5,132.5,69.9000015258789,131.5C69.30000305175781,131.10000610351562,69,130.3000030517578,69.30000305175781,129.60000610351562C69.5999984741211,128.89999389648438,70.30000305175781,128.5,71,128.5C72.69999694824219,128.6999969482422,73.9000015258789,128.3000030517578,74.69999694824219,127.0999984741211C76.4000015258789,124.30000305175781,75.69999694824219,117.69999694824219,70.9000015258789,110.4000015258789C63.79999923706055,99.69999694824219,61.70000076293945,93.9000015258789,62.79999923706055,87.5C63.70000076293945,82.19999694824219,64.19999694824219,76.80000305175781,60.70000076293945,62.900001525878906C57.400001525878906,49.900001525878906,65.0999984741211,34.099998474121094,81.5,20.700000762939453C89.19999694824219,14.399999618530273,96.0999984741211,13.800000190734863,100.5999984741211,14.300000190734863C106.5,15,111,18.100000381469727,113.4000015258789,20.799999237060547C117.30000305175781,20,121.5,21.299999237060547,125.4000015258789,24.5C132.89999389648438,30.600000381469727,138,42.29999923706055,137.5,48.70000076293945C137,55.900001525878906,136.60000610351562,65,138.5,71.69999694824219C140.8000030517578,79.69999694824219,138.10000610351562,95.9000015258789,133.3000030517578,103.19999694824219C128.39999389648438,110.69999694824219,123.9000015258789,121.5,127,127.30000305175781C127.30000305175781,127.9000015258789,127.19999694824219,128.6999969482422,126.69999694824219,129.1999969482422C126.19999694824219,129.6999969482422,125.4000015258789,129.8000030517578,124.80000305175781,129.5C119.4000015258789,126.5,119.0999984741211,122.5,118.80000305175781,117.9000015258789C118.5,113.69999694824219,118.0999984741211,108.4000015258789,113.69999694824219,101.4000015258789C113.5999984741211,101.30000305175781,113.5999984741211,101.19999694824219,113.5999984741211,101.0999984741211C110.0999984741211,91.80000305175781,110.0999984741211,88.0999984741211,117.19999694824219,79.5C123.9000015258789,71.4000015258789,125,63.5,120.5999984741211,55.29999923706055C118.80000305175781,51.900001525878906,116.5999984741211,49.599998474121094,114.5,47.400001525878906C111.69999694824219,44.400001525878906,108.80000305175781,41.29999923706055,107.0999984741211,35.900001525878906C102.30000305175781,42.20000076293945,94,46.29999923706055,87.69999694824219,49.5C85.5999984741211,50.599998474121094,83.69999694824219,51.5,82.30000305175781,52.29999923706055C79.69999694824219,53.900001525878906,77.4000015258789,58.900001525878906,76.80000305175781,64.4000015258789C76.0999984741211,71,77.80000305175781,76.80000305175781,81.5,80.30000305175781C92.19999694824219,90.4000015258789,91.19999694824219,95.5999984741211,88.9000015258789,101L88.5999984741211,101.69999694824219C88.5999984741211,101.80000305175781,88.5,101.80000305175781,88.5,101.9000015258789C85.4000015258789,107.5999984741211,85.5,111.5,85.69999694824219,115.69999694824219C85.80000305175781,118.30000305175781,85.9000015258789,121.0999984741211,85.19999694824219,124.19999694824219C84.30000305175781,128,82.0999984741211,130.8000030517578,79,132C77.80000305175781,132.6999969482422,76.5999984741211,133,75.30000305175781,133zM97.9000015258789,17.5C93.0999984741211,17.5,88.19999694824219,19.399999618530273,83.5,23.299999237060547C68.19999694824219,35.900001525878906,60.79999923706055,50.400001525878906,63.79999923706055,62.099998474121094C67.5,76.5999984741211,67,82.4000015258789,66,88.0999984741211C65.19999694824219,92.80000305175781,66.0999984741211,97.4000015258789,73.5999984741211,108.5999984741211C78.69999694824219,116.19999694824219,80.19999694824219,124.30000305175781,77.5,128.8000030517578C77.30000305175781,129.10000610351562,77.0999984741211,129.39999389648438,76.9000015258789,129.60000610351562C77.19999694824219,129.5,77.5999984741211,129.39999389648438,77.9000015258789,129.3000030517578C80,128.39999389648438,81.5,126.5,82.0999984741211,123.69999694824219C82.69999694824219,121,82.5999984741211,118.5999984741211,82.5999984741211,116C82.5,111.5999984741211,82.30000305175781,107,85.80000305175781,100.5999984741211L86.0999984741211,100C87.69999694824219,96.19999694824219,89.4000015258789,92.30000305175781,79.4000015258789,82.9000015258789C75,78.69999694824219,72.9000015258789,72,73.69999694824219,64.30000305175781C74.4000015258789,57.599998474121094,77.0999984741211,51.900001525878906,80.69999694824219,49.79999923706055C82.19999694824219,48.900001525878906,84.0999984741211,47.900001525878906,86.30000305175781,46.79999923706055C93.30000305175781,43.29999923706055,102.80000305175781,38.5,106.4000015258789,31.200000762939453C106.69999694824219,30.600000381469727,107.4000015258789,30.200000762939453,108.0999984741211,30.299999237060547C108.80000305175781,30.399999618530273,109.30000305175781,31,109.5,31.700000762939453C110.5999984741211,38.70000076293945,113.5,41.70000076293945,116.9000015258789,45.29999923706055C119.19999694824219,47.70000076293945,121.5,50.099998474121094,123.5,53.900001525878906C128.5,63.20000076293945,127.30000305175781,72.5999984741211,119.80000305175781,81.69999694824219C113.5999984741211,89.19999694824219,113.69999694824219,91.9000015258789,116.69999694824219,100C121.4000015258789,107.5999984741211,121.80000305175781,113.5,122.19999694824219,117.80000305175781C122.4000015258789,119.69999694824219,122.5,121.30000305175781,122.9000015258789,122.5999984741211C122.9000015258789,114.30000305175781,128.60000610351562,104.80000305175781,130.8000030517578,101.5C135.10000610351562,94.9000015258789,137.60000610351562,79.80000305175781,135.60000610351562,72.5999984741211C133.60000610351562,65.4000015258789,133.89999389648438,56,134.5,48.5C134.89999389648438,43,130.3000030517578,32.5,123.5999984741211,27.100000381469727C120.0999984741211,24.299999237060547,116.69999694824219,23.299999237060547,113.5,24.299999237060547C112.9000015258789,24.5,112.0999984741211,24.299999237060547,111.69999694824219,23.700000762939453C109.9000015258789,21.299999237060547,105.9000015258789,18.299999237060547,100.4000015258789,17.600000381469727C99.4000015258789,17.5,98.69999694824219,17.5,97.9000015258789,17.5z"/>
<path id="Shoes" fill="#295C89" d="M66.5999984741211,367.6000061035156C65.19999694824219,372.70001220703125,51.70000076293945,381.70001220703125,50.599998474121094,385.1000061035156C49.5,388.5,50,391.29998779296875,51.900001525878906,392.70001220703125C53.79999923706055,394.1000061035156,70.5999984741211,396.1000061035156,75.30000305175781,392.29998779296875C86,383.6000061035156,90,382.79998779296875,90.9000015258789,379.1000061035156C91.80000305175781,375.3999938964844,91.30000305175781,371.5,89.80000305175781,369.6000061035156S83.9000015258789,372.70001220703125,66.5999984741211,367.6000061035156zM134.60000610351562,367.6000061035156C135.8000030517578,373.3999938964844,147.39999389648438,383.5,148.3000030517578,387.3999938964844C149.1999969482422,391.29998779296875,148.89999389648438,394.3999938964844,147.1999969482422,396C145.5,397.6000061035156,131.1999969482422,399.8999938964844,127.0999984741211,395.5C117.9000015258789,385.6000061035156,114.5,384.70001220703125,113.80000305175781,380.5C113.0999984741211,376.29998779296875,113.4000015258789,371.8999938964844,114.69999694824219,369.70001220703125S119.80000305175781,373.3999938964844,134.60000610351562,367.6000061035156z"/>
<path id="Shoes1" fill="#FFFFFF" d="M65.5999984741211,389.5C60.20000076293945,389.5,52.5,388.20001220703125,49.70000076293945,386.29998779296875C49.29999923706055,389.5,50.29999923706055,391.6000061035156,51.900001525878906,392.70001220703125C53.900001525878906,394.20001220703125,70.5999984741211,396.20001220703125,75.30000305175781,392.29998779296875C86,383.6000061035156,90,382.79998779296875,90.9000015258789,379.1000061035156C91.0999984741211,378.29998779296875,91.19999694824219,377.5,91.30000305175781,376.70001220703125C90.5,377.1000061035156,89.30000305175781,377.79998779296875,87.5,378.79998779296875C81,382.5,74.0999984741211,389.5,65.5999984741211,389.5zM135.5,392.3999938964844C140.10000610351562,392.3999938964844,146.6999969482422,390.8999938964844,149.10000610351562,388.79998779296875C149.39999389648438,392.5,148.60000610351562,394.79998779296875,147.1999969482422,396.1000061035156C145.5,397.70001220703125,131.1999969482422,400,127.0999984741211,395.6000061035156C117.9000015258789,385.70001220703125,114.5,384.79998779296875,113.80000305175781,380.6000061035156C113.5999984741211,379.70001220703125,113.5999984741211,378.79998779296875,113.5,377.8999938964844C114.19999694824219,378.3999938964844,115.19999694824219,379.1000061035156,116.69999694824219,380.29998779296875C122.30000305175781,384.5,128.1999969482422,392.3999938964844,135.5,392.3999938964844z"/>
<path id="ShoesBorder" d="M91.0999984741211,368.6000061035156C90,367.20001220703125,88.4000015258789,367.5,86.5999984741211,367.79998779296875C83.5999984741211,368.29998779296875,78.0999984741211,369.29998779296875,67.0999984741211,366C66.69999694824219,365.8999938964844,66.19999694824219,365.8999938964844,65.80000305175781,366.1000061035156C65.4000015258789,366.29998779296875,65.0999984741211,366.70001220703125,65,367.1000061035156C64.4000015258789,369.5,59.79999923706055,373.5,56.20000076293945,376.79998779296875C52.20000076293945,380.3999938964844,49.599998474121094,382.70001220703125,49.099998474121094,384.6000061035156C49.099998474121094,384.6000061035156,49.099998474121094,384.6000061035156,49.099998474121094,384.70001220703125L49,384.6000061035156L48.900001525878906,385.70001220703125C47.70000076293945,390.70001220703125,49.70000076293945,393.1000061035156,51.099998474121094,394.1000061035156C52.599998474121094,395.20001220703125,58.599998474121094,396.29998779296875,64.5,396.29998779296875C69.30000305175781,396.29998779296875,74.0999984741211,395.6000061035156,76.5,393.70001220703125C80.5999984741211,390.29998779296875,83.80000305175781,388.1000061035156,86.0999984741211,386.5C89.9000015258789,383.8999938964844,92,382.3999938964844,92.5999984741211,379.5C93.5,375.20001220703125,93,370.8999938964844,91.0999984741211,368.6000061035156zM51.70000076293945,388.3999938964844C55.400001525878906,389.70001220703125,61.29999923706055,390.6000061035156,65.5999984741211,390.6000061035156C72.0999984741211,390.6000061035156,77.80000305175781,386.70001220703125,82.69999694824219,383.29998779296875C84.5999984741211,382,86.30000305175781,380.79998779296875,88,379.79998779296875L89.0999984741211,379.20001220703125C89.19999694824219,379.20001220703125,89.19999694824219,379.1000061035156,89.19999694824219,379.1000061035156C88.80000305175781,380.5,87.5,381.5,84,383.8999938964844C81.69999694824219,385.5,78.5,387.79998779296875,74.19999694824219,391.20001220703125C70.19999694824219,394.3999938964844,54.5,392.70001220703125,52.70000076293945,391.6000061035156C51.900001525878906,390.79998779296875,51.70000076293945,389.6000061035156,51.70000076293945,388.3999938964844zM58.400001525878906,379.29998779296875C58.79999923706055,378.8999938964844,59.29999923706055,378.5,59.70000076293945,378.1000061035156C59.79999923706055,378.3999938964844,60.099998474121094,378.70001220703125,60.5,378.70001220703125C61.20000076293945,378.79998779296875,61.900001525878906,378.79998779296875,62.599998474121094,378.8999938964844C64.5999984741211,379,66.30000305175781,379.20001220703125,67.4000015258789,379.8999938964844C67.5999984741211,380,67.80000305175781,380.1000061035156,68,380.1000061035156C68.30000305175781,380.1000061035156,68.5999984741211,379.8999938964844,68.80000305175781,379.70001220703125C69.0999984741211,379.20001220703125,69,378.6000061035156,68.5,378.29998779296875C66.9000015258789,377.20001220703125,64.9000015258789,377.1000061035156,62.70000076293945,376.8999938964844C62.20000076293945,376.8999938964844,61.70000076293945,376.79998779296875,61.099998474121094,376.79998779296875C62.29999923706055,375.70001220703125,63.5,374.6000061035156,64.5,373.5C64.5999984741211,373.6000061035156,64.80000305175781,373.70001220703125,65,373.70001220703125C69.5,374.1000061035156,71.19999694824219,374.8999938964844,71.19999694824219,375C71.30000305175781,375.1000061035156,71.5,375.1000061035156,71.69999694824219,375.1000061035156C72.0999984741211,375.1000061035156,72.4000015258789,374.8999938964844,72.5999984741211,374.6000061035156C72.9000015258789,374.1000061035156,72.69999694824219,373.5,72.19999694824219,373.29998779296875C72,373.20001220703125,70.4000015258789,372.3999938964844,66.0999984741211,371.8999938964844C66.69999694824219,371.20001220703125,67.19999694824219,370.3999938964844,67.5999984741211,369.70001220703125C78.5,372.70001220703125,84.0999984741211,371.70001220703125,87.19999694824219,371.20001220703125C87.69999694824219,371.1000061035156,88.4000015258789,371,88.69999694824219,371C89.4000015258789,372,89.9000015258789,374.20001220703125,89.69999694824219,376.70001220703125C89.30000305175781,376.8999938964844,88.69999694824219,377.20001220703125,88.19999694824219,377.6000061035156L87.0999984741211,378.20001220703125C85.30000305175781,379.20001220703125,83.5,380.5,81.5999984741211,381.79998779296875C76.5999984741211,385.20001220703125,71.5,388.79998779296875,65.5999984741211,388.79998779296875C61.29999923706055,388.79998779296875,55.400001525878906,387.8999938964844,52,386.6000061035156C52.099998474121094,386.29998779296875,52.099998474121094,386.1000061035156,52.20000076293945,385.8999938964844C52.5,384.5,55.79999923706055,381.6000061035156,58.400001525878906,379.29998779296875zM150,387.3999938964844L149.89999389648438,386.70001220703125L149.8000030517578,386.79998779296875C149.1999969482422,384.79998779296875,147.10000610351562,382.29998779296875,143.8000030517578,378.3999938964844C140.60000610351562,374.70001220703125,136.6999969482422,370.1000061035156,136.10000610351562,367.29998779296875C136,366.79998779296875,135.6999969482422,366.3999938964844,135.3000030517578,366.20001220703125C134.89999389648438,366,134.39999389648438,365.8999938964844,133.89999389648438,366.1000061035156C124.5999984741211,369.79998779296875,120,368.70001220703125,117.5,368.1000061035156C116.0999984741211,367.79998779296875,114.30000305175781,367.29998779296875,113.19999694824219,369C111.69999694824219,371.5,111.19999694824219,376.20001220703125,112,380.8999938964844C112.5999984741211,384,114.30000305175781,385.70001220703125,117.5999984741211,388.70001220703125C119.5999984741211,390.5,122.30000305175781,393,125.80000305175781,396.79998779296875C127.5999984741211,398.70001220703125,130.8000030517578,399.70001220703125,135.3000030517578,399.8999938964844C135.5,399.8999938964844,135.8000030517578,399.8999938964844,136,399.8999938964844C140.60000610351562,399.8999938964844,146.60000610351562,398.8999938964844,148.10000610351562,397.3999938964844C150.39999389648438,395.20001220703125,151,391.79998779296875,150,387.3999938964844zM146.10000610351562,394.8999938964844C144.39999389648438,396.20001220703125,131.5,398,128.3000030517578,394.5C124.69999694824219,390.6000061035156,122,388.1000061035156,120,386.29998779296875C116.9000015258789,383.3999938964844,115.9000015258789,382.3999938964844,115.5,380.6000061035156C115.69999694824219,380.79998779296875,115.9000015258789,380.8999938964844,116.0999984741211,381.1000061035156C117.5999984741211,382.20001220703125,119.0999984741211,383.6000061035156,120.5999984741211,385C124.9000015258789,388.8999938964844,129.8000030517578,393.3999938964844,135.5,393.3999938964844C139.10000610351562,393.3999938964844,143.89999389648438,392.5,147.1999969482422,391.1000061035156C147.1999969482422,392.79998779296875,146.89999389648438,394.1000061035156,146.10000610351562,394.8999938964844zM115.9000015258789,371C116.19999694824219,371,116.5,371.1000061035156,116.80000305175781,371.20001220703125C119.5,371.79998779296875,124.30000305175781,373,133.5,369.70001220703125C133.89999389648438,370.6000061035156,134.39999389648438,371.5,134.89999389648438,372.3999938964844C131.1999969482422,373,129.6999969482422,373.8999938964844,129.60000610351562,374C129.10000610351562,374.29998779296875,129,374.8999938964844,129.3000030517578,375.3999938964844C129.5,375.70001220703125,129.8000030517578,375.79998779296875,130.10000610351562,375.79998779296875C130.3000030517578,375.79998779296875,130.5,375.70001220703125,130.60000610351562,375.6000061035156C130.60000610351562,375.6000061035156,132.10000610351562,374.70001220703125,135.8000030517578,374.20001220703125C135.89999389648438,374.20001220703125,136,374.1000061035156,136,374.1000061035156C136.89999389648438,375.3999938964844,138,376.70001220703125,139.10000610351562,378C138.60000610351562,378.1000061035156,138.10000610351562,378.1000061035156,137.6999969482422,378.1000061035156C135.8000030517578,378.29998779296875,133.89999389648438,378.3999938964844,132.5,379.70001220703125C132.10000610351562,380.1000061035156,132.10000610351562,380.70001220703125,132.39999389648438,381.1000061035156C132.60000610351562,381.29998779296875,132.89999389648438,381.3999938964844,133.10000610351562,381.3999938964844C133.3000030517578,381.3999938964844,133.60000610351562,381.29998779296875,133.8000030517578,381.1000061035156C134.6999969482422,380.29998779296875,136.10000610351562,380.1000061035156,137.8000030517578,380C138.39999389648438,379.8999938964844,139,379.8999938964844,139.60000610351562,379.79998779296875C139.89999389648438,379.79998779296875,140.1999969482422,379.6000061035156,140.3000030517578,379.29998779296875C140.60000610351562,379.6000061035156,140.8000030517578,379.8999938964844,141.10000610351562,380.20001220703125C143.5,383,146.10000610351562,386.1000061035156,146.5,387.5C146.60000610351562,387.8999938964844,146.6999969482422,388.29998779296875,146.6999969482422,388.70001220703125C143.8000030517578,390.1000061035156,138.8000030517578,391.1000061035156,135.1999969482422,391.1000061035156C130.1999969482422,391.1000061035156,125.9000015258789,387.1000061035156,121.69999694824219,383.20001220703125C120.0999984741211,381.70001220703125,118.5999984741211,380.29998779296875,117,379.20001220703125C116.0999984741211,378.5,115.4000015258789,378,114.80000305175781,377.6000061035156C114.9000015258789,374.8999938964844,115.30000305175781,372.29998779296875,115.9000015258789,371z"/>
</g>
</svg>