<svg xmlns="http://www.w3.org/2000/svg" xmlns:xlink="http://www.w3.org/1999/xlink" viewBox= "0 0 194 396" width="194px" height="396px">
<g xmlns="http://www.w3.org/2000/svg" id="TeenGirl1V2.svg">
<path id="Shoes" fill="#474748" d="M57.599998474121094,354.5C56.29999923706055,360,43.20000076293945,369.6000061035156,42.099998474121094,373.29998779296875C41,377,41.5,379.8999938964844,43.400001525878906,381.5C45.29999923706055,383,61.400001525878906,385.20001220703125,66,381C76.30000305175781,371.70001220703125,80.19999694824219,370.79998779296875,81,366.79998779296875C81.80000305175781,362.79998779296875,81.4000015258789,358.6000061035156,80,356.6000061035156S74.30000305175781,360,57.599998474121094,354.5zM103.5,348.70001220703125C101.80000305175781,349.29998779296875,100.69999694824219,351,100.9000015258789,352.8999938964844C101,356.20001220703125,96.9000015258789,362.20001220703125,102.69999694824219,364.3999938964844C108.5,366.6000061035156,116,367.29998779296875,122.5,368.70001220703125C129,370.1000061035156,140.5,372.29998779296875,146,370.79998779296875C151.5,369.29998779296875,152.89999389648438,363.79998779296875,150.39999389648438,360.1000061035156C145.1999969482422,352.5,137.3000030517578,355.1000061035156,132.89999389648438,352.29998779296875C128.5,349.5,124.69999694824219,344.8999938964844,121,346C118.69999694824219,347.1000061035156,121.69999694824219,350.3999938964844,112.5999984741211,351.6000061035156C103.5999984741211,353,103.5,348.70001220703125,103.5,348.70001220703125z"/>
<path id="Shoes1" fill="#FFFFFF" d="M135.60000610351562,365.3999938964844C126.69999694824219,364.79998779296875,108.5999984741211,361.29998779296875,99.69999694824219,358.29998779296875C99.19999694824219,360.79998779296875,99.30000305175781,363.20001220703125,102.5,364.3999938964844C108.19999694824219,366.6000061035156,115.80000305175781,367.29998779296875,122.30000305175781,368.70001220703125C128.8000030517578,370.1000061035156,140.3000030517578,372.29998779296875,145.8000030517578,370.79998779296875C150.39999389648438,369.6000061035156,151.8000030517578,365.5,151.10000610351562,361.8999938964844C148.1999969482422,364.79998779296875,144.10000610351562,366,135.60000610351562,365.3999938964844zM56.599998474121094,378C51.400001525878906,378,44,376.6000061035156,41.29999923706055,374.6000061035156C40.900001525878906,378.1000061035156,41.900001525878906,380.20001220703125,43.400001525878906,381.5C45.29999923706055,383,61.400001525878906,385.20001220703125,66,381C76.30000305175781,371.70001220703125,80.19999694824219,370.79998779296875,81,366.79998779296875C81.19999694824219,366,81.30000305175781,365.1000061035156,81.4000015258789,364.29998779296875C80.5999984741211,364.79998779296875,79.4000015258789,365.5,77.80000305175781,366.5C71.5,370.5,64.9000015258789,378,56.599998474121094,378z"/>
<path id="ShoesBorder" d="M151.60000610351562,359.20001220703125C147.89999389648438,353.70001220703125,142.89999389648438,353,138.8000030517578,352.3999938964844C136.6999969482422,352.1000061035156,134.89999389648438,351.79998779296875,133.60000610351562,351C132.39999389648438,350.20001220703125,131.1999969482422,349.29998779296875,130,348.3999938964844C126.9000015258789,346,123.80000305175781,343.5,120.4000015258789,344.5C120.30000305175781,344.5,120.30000305175781,344.6000061035156,120.19999694824219,344.6000061035156C118.80000305175781,345.20001220703125,118.4000015258789,346.3999938964844,118.19999694824219,347.20001220703125C117.9000015258789,348.29998779296875,117.5,349.5,112.30000305175781,350.1000061035156C108.0999984741211,350.79998779296875,106.4000015258789,350,105.69999694824219,349.5C105.19999694824219,349.1000061035156,105.0999984741211,348.70001220703125,105.0999984741211,348.6000061035156C105.0999984741211,348.1000061035156,104.80000305175781,347.70001220703125,104.4000015258789,347.3999938964844C104,347.1000061035156,103.4000015258789,347,102.9000015258789,347.20001220703125C100.5,348.1000061035156,98.9000015258789,350.5,99.19999694824219,353C99.19999694824219,353.70001220703125,99,354.79998779296875,98.69999694824219,355.8999938964844C97.9000015258789,358.8999938964844,96.5999984741211,363.8999938964844,102,366C106,367.6000061035156,110.9000015258789,368.3999938964844,115.5999984741211,369.20001220703125C117.9000015258789,369.6000061035156,120,369.8999938964844,122.0999984741211,370.3999938964844C130.39999389648438,372.20001220703125,136.6999969482422,373,141.3000030517578,373C143.39999389648438,373,145.10000610351562,372.79998779296875,146.39999389648438,372.5C149.39999389648438,371.70001220703125,151.6999969482422,369.70001220703125,152.6999969482422,367.1000061035156C153.5,364.29998779296875,153.1999969482422,361.3999938964844,151.60000610351562,359.20001220703125zM122.69999694824219,367C120.5999984741211,366.5,118.30000305175781,366.20001220703125,116.0999984741211,365.79998779296875C111.5999984741211,365,106.9000015258789,364.20001220703125,103.19999694824219,362.79998779296875C101.5999984741211,362.20001220703125,101.0999984741211,361.29998779296875,101.19999694824219,359.70001220703125C110.9000015258789,362.70001220703125,127.4000015258789,365.79998779296875,135.60000610351562,366.29998779296875C142.3000030517578,366.79998779296875,146.60000610351562,366.20001220703125,149.89999389648438,364.1000061035156C149.89999389648438,364.6000061035156,149.8000030517578,365.20001220703125,149.60000610351562,365.70001220703125C149,367.3999938964844,147.5,368.6000061035156,145.5,369.1000061035156C142.89999389648438,369.8999938964844,136.8000030517578,370,122.69999694824219,367zM102.80000305175781,351.1000061035156C103,351.3999938964844,103.19999694824219,351.6000061035156,103.5,351.79998779296875C105.4000015258789,353.3999938964844,108.5,353.79998779296875,112.69999694824219,353.20001220703125C119.30000305175781,352.29998779296875,120.5999984741211,350.20001220703125,121.30000305175781,348C121.4000015258789,347.6000061035156,121.5,347.5,121.5,347.3999938964844C123.0999984741211,347,125.0999984741211,348.5,127.30000305175781,350.20001220703125C125.69999694824219,351.6000061035156,124.30000305175781,353.20001220703125,123.19999694824219,355C122.9000015258789,355.5,123.0999984741211,356.1000061035156,123.5,356.3999938964844C123.69999694824219,356.5,123.80000305175781,356.5,124,356.5C124.30000305175781,356.5,124.69999694824219,356.29998779296875,124.9000015258789,356C125.9000015258789,354.29998779296875,127.19999694824219,352.79998779296875,128.8000030517578,351.5L128.89999389648438,351.3999938964844C129.89999389648438,352.20001220703125,130.89999389648438,352.8999938964844,131.89999389648438,353.6000061035156C132.1999969482422,353.79998779296875,132.60000610351562,354,132.89999389648438,354.1000061035156C131.3000030517578,355.3999938964844,130.60000610351562,357.6000061035156,130.60000610351562,357.70001220703125C130.39999389648438,358.20001220703125,130.6999969482422,358.79998779296875,131.3000030517578,358.8999938964844C131.39999389648438,358.8999938964844,131.5,358.8999938964844,131.60000610351562,358.8999938964844C132,358.8999938964844,132.39999389648438,358.6000061035156,132.60000610351562,358.20001220703125C132.8000030517578,357.6000061035156,133.5,355.79998779296875,134.6999969482422,355.20001220703125C134.89999389648438,355.1000061035156,135.10000610351562,354.8999938964844,135.1999969482422,354.70001220703125C136.1999969482422,354.8999938964844,137.3000030517578,355.1000061035156,138.39999389648438,355.29998779296875C142.1999969482422,355.8999938964844,146.10000610351562,356.5,149,360.79998779296875C149.1999969482422,361.1000061035156,149.39999389648438,361.5,149.5,361.79998779296875C147,363.70001220703125,143.39999389648438,364.70001220703125,135.6999969482422,364.20001220703125C127.5999984741211,363.6000061035156,110.80000305175781,360.5,101.5,357.6000061035156C101.5999984741211,357.20001220703125,101.69999694824219,356.8999938964844,101.80000305175781,356.5C102.19999694824219,355.1000061035156,102.5,353.8999938964844,102.4000015258789,352.6000061035156C102.4000015258789,352.1000061035156,102.5,351.6000061035156,102.80000305175781,351.1000061035156zM81.4000015258789,355.70001220703125C80.30000305175781,354.20001220703125,78.69999694824219,354.5,77,354.79998779296875C74.0999984741211,355.3999938964844,68.80000305175781,356.3999938964844,58.20000076293945,352.8999938964844C57.79999923706055,352.79998779296875,57.29999923706055,352.79998779296875,56.900001525878906,353C56.5,353.20001220703125,56.20000076293945,353.6000061035156,56.099998474121094,354C55.5,356.6000061035156,51.099998474121094,361,47.5,364.5C43.599998474121094,368.29998779296875,41.20000076293945,370.79998779296875,40.70000076293945,372.70001220703125L40.599998474121094,372.6000061035156L40.5,373.6000061035156C39.599998474121094,377.6000061035156,40.29999923706055,380.79998779296875,42.5,382.6000061035156C44,383.79998779296875,49.79999923706055,384.8999938964844,55.5,384.8999938964844C60.20000076293945,384.8999938964844,64.9000015258789,384.20001220703125,67.19999694824219,382.1000061035156C71.19999694824219,378.5,74.19999694824219,376.20001220703125,76.4000015258789,374.3999938964844C80,371.6000061035156,82,370,82.69999694824219,367C83.5999984741211,362.70001220703125,83.0999984741211,358.1000061035156,81.4000015258789,355.70001220703125zM44.5,380.20001220703125C43.599998474121094,379.5,43.20000076293945,378.29998779296875,43.29999923706055,376.70001220703125C46.900001525878906,378.1000061035156,52.5,379,56.70000076293945,379C63.099998474121094,379,68.5,374.79998779296875,73.30000305175781,371.1000061035156C75.0999984741211,369.70001220703125,76.69999694824219,368.3999938964844,78.4000015258789,367.3999938964844C78.80000305175781,367.20001220703125,79.0999984741211,366.8999938964844,79.5,366.70001220703125C79.0999984741211,368.29998779296875,77.9000015258789,369.29998779296875,74.5,372C72.19999694824219,373.70001220703125,69.0999984741211,376.1000061035156,65.0999984741211,379.79998779296875C63.5,381.20001220703125,59.400001525878906,382,54.20000076293945,381.79998779296875C49,381.6000061035156,45.099998474121094,380.6000061035156,44.5,380.20001220703125zM49.79999923706055,366.8999938964844C50.20000076293945,366.5,50.599998474121094,366.1000061035156,51,365.70001220703125C51.099998474121094,366,51.400001525878906,366.29998779296875,51.79999923706055,366.3999938964844C52.5,366.5,53.099998474121094,366.5,53.79999923706055,366.6000061035156C55.70000076293945,366.70001220703125,57.400001525878906,366.8999938964844,58.400001525878906,367.70001220703125C58.599998474121094,367.79998779296875,58.79999923706055,367.8999938964844,59,367.8999938964844C59.29999923706055,367.8999938964844,59.599998474121094,367.79998779296875,59.79999923706055,367.5C60.099998474121094,367.1000061035156,60.099998474121094,366.3999938964844,59.599998474121094,366.1000061035156C58.099998474121094,364.8999938964844,56,364.79998779296875,53.900001525878906,364.6000061035156C53.400001525878906,364.6000061035156,52.79999923706055,364.5,52.29999923706055,364.5C53.5,363.20001220703125,54.70000076293945,362,55.70000076293945,360.79998779296875C55.79999923706055,360.8999938964844,56,360.8999938964844,56.099998474121094,361C60.400001525878906,361.3999938964844,62,362.29998779296875,62,362.29998779296875C62.20000076293945,362.3999938964844,62.29999923706055,362.3999938964844,62.5,362.3999938964844C62.79999923706055,362.3999938964844,63.20000076293945,362.20001220703125,63.400001525878906,361.8999938964844C63.70000076293945,361.3999938964844,63.5,360.79998779296875,63,360.5C62.79999923706055,360.3999938964844,61.20000076293945,359.5,57,359C57.599998474121094,358.20001220703125,58.099998474121094,357.3999938964844,58.5,356.6000061035156C69,359.79998779296875,74.5,358.70001220703125,77.5,358.1000061035156C78,358,78.5,357.8999938964844,78.80000305175781,357.8999938964844C79.5,359.1000061035156,79.9000015258789,361.3999938964844,79.69999694824219,364.20001220703125C79,364.6000061035156,78.19999694824219,365.1000061035156,77.19999694824219,365.79998779296875C75.5,366.8999938964844,73.80000305175781,368.20001220703125,71.9000015258789,369.6000061035156C67.0999984741211,373.29998779296875,62.20000076293945,377.1000061035156,56.5,377.1000061035156C51.900001525878906,377.1000061035156,46.5,376.1000061035156,43.400001525878906,374.79998779296875C43.5,374.5,43.5,374.20001220703125,43.599998474121094,373.8999938964844C44.099998474121094,372.5,47.20000076293945,369.3999938964844,49.79999923706055,366.8999938964844z"/>
<path id="Pants" fill="#3070A0" d="M62,195.39999389648438C60.099998474121094,200.10000610351562,55.900001525878906,211.39999389648438,57.79999923706055,243.3000030517578C59.70000076293945,275.20001220703125,61.900001525878906,287.70001220703125,61.099998474121094,290.70001220703125C60.29999923706055,293.70001220703125,61.400001525878906,301.70001220703125,62.5,305.8999938964844C63.599998474121094,310.1000061035156,63.099998474121094,327.1000061035156,61.900001525878906,329.6000061035156C60.79999923706055,332.1000061035156,61,337.79998779296875,61,339.79998779296875C61,341.79998779296875,59.900001525878906,350.29998779296875,60.099998474121094,352.20001220703125C60.29999923706055,354.1000061035156,76.5,357,77.5999984741211,356.5C78.69999694824219,356,77.9000015258789,353.6000061035156,78.4000015258789,352.79998779296875C78.9000015258789,352,80.0999984741211,353.6000061035156,80.5999984741211,351.3999938964844C81.0999984741211,349.20001220703125,80.30000305175781,341.79998779296875,82.30000305175781,334.8999938964844C84.30000305175781,328,87,320.6000061035156,86.19999694824219,311.5C85.4000015258789,302.3999938964844,87,295.20001220703125,89.80000305175781,280.1000061035156C92.5999984741211,265,98.0999984741211,244.3000030517578,98.0999984741211,237.39999389648438C98.0999984741211,230.5,98.4000015258789,235.6999969482422,98.4000015258789,235.6999969482422C98.4000015258789,235.6999969482422,98.69999694824219,250.60000610351562,100.0999984741211,263.6000061035156C101.5,276.6000061035156,103.69999694824219,290.6000061035156,102,292.79998779296875C100.30000305175781,295,101.19999694824219,309.8999938964844,102.30000305175781,317.29998779296875C103.4000015258789,324.70001220703125,102.9000015258789,335.79998779296875,102.9000015258789,337.70001220703125C102.9000015258789,339.6000061035156,104.5999984741211,342.70001220703125,104.5999984741211,343.79998779296875C104.5999984741211,344.8999938964844,102.9000015258789,346.79998779296875,103.19999694824219,347.8999938964844C104.5999984741211,349.6000061035156,110.30000305175781,353.70001220703125,120.19999694824219,344.3999938964844C122.19999694824219,342.20001220703125,126.19999694824219,313.70001220703125,127.30000305175781,305.8999938964844C128.39999389648438,298.1000061035156,125.0999984741211,281.3999938964844,127.30000305175781,275.29998779296875C129.5,269.20001220703125,135.60000610351562,246.39999389648438,134.8000030517578,229C134,211.60000610351562,130.60000610351562,197.3000030517578,129.3000030517578,197C127.69999694824219,196.6999969482422,62,195.39999389648438,62,195.39999389648438z"/>
<path id="PantsBorder" d="M77,358.20001220703125C73.0999984741211,358.20001220703125,63.099998474121094,356,60.29999923706055,354.6000061035156C59.599998474121094,354.20001220703125,58.70000076293945,353.6000061035156,58.5,352.6000061035156C58.29999923706055,351.29998779296875,58.599998474121094,348.5,59,344.3999938964844C59.20000076293945,342.5,59.400001525878906,340.70001220703125,59.400001525878906,340C59.400001525878906,339.70001220703125,59.400001525878906,339.3999938964844,59.400001525878906,339.1000061035156C59.400001525878906,335.5,59.400001525878906,331.3999938964844,60.400001525878906,329.1000061035156C61.29999923706055,327.20001220703125,62,310.6000061035156,60.900001525878906,306.5C59.900001525878906,302.8999938964844,58.5,294.20001220703125,59.5,290.5C59.79999923706055,289.20001220703125,59.400001525878906,284.70001220703125,58.79999923706055,277.79998779296875C58.099998474121094,270.3999938964844,57.099998474121094,259.29998779296875,56.099998474121094,243.60000610351562C54.29999923706055,213.6999969482422,57.70000076293945,201.5,60.400001525878906,194.89999389648438C60.70000076293945,194.3000030517578,61.29999923706055,193.89999389648438,61.900001525878906,193.89999389648438C77.4000015258789,194.1999969482422,127.9000015258789,195.3000030517578,129.3000030517578,195.60000610351562C130.1999969482422,195.8000030517578,131.5,196.10000610351562,133.5,206.5C134.1999969482422,210.39999389648438,135.60000610351562,218.60000610351562,136.10000610351562,229.10000610351562C136.89999389648438,246.8000030517578,130.8000030517578,269.70001220703125,128.5,276.1000061035156C127.4000015258789,279.20001220703125,127.9000015258789,286.20001220703125,128.3000030517578,292.29998779296875C128.6999969482422,297.70001220703125,129.10000610351562,302.79998779296875,128.60000610351562,306.29998779296875C125.30000305175781,330.6000061035156,122.80000305175781,343.8999938964844,121.0999984741211,345.6000061035156L121,345.70001220703125C116.30000305175781,350.1000061035156,111.80000305175781,352.20001220703125,107.69999694824219,351.8999938964844C104.0999984741211,351.70001220703125,102.0999984741211,349.6000061035156,101.5999984741211,348.8999938964844C101.4000015258789,348.70001220703125,101.30000305175781,348.5,101.30000305175781,348.29998779296875C101,347.1000061035156,101.5999984741211,345.8999938964844,102.0999984741211,344.8999938964844C102.30000305175781,344.5,102.5999984741211,344,102.5999984741211,343.79998779296875C102.5999984741211,343.6000061035156,102.30000305175781,342.79998779296875,102.0999984741211,342.20001220703125C101.5999984741211,340.79998779296875,101,339.20001220703125,101,337.79998779296875C101,337.5,101,336.8999938964844,101,336.1000061035156C101.0999984741211,332.3999938964844,101.30000305175781,323.70001220703125,100.4000015258789,317.6000061035156C99.69999694824219,312.8999938964844,98,295.1000061035156,100.4000015258789,291.8999938964844C101.30000305175781,290.29998779296875,100.0999984741211,280.3999938964844,99.0999984741211,272.5C98.80000305175781,269.70001220703125,98.4000015258789,266.70001220703125,98.0999984741211,263.79998779296875C97.69999694824219,259.8999938964844,97.4000015258789,255.8000030517578,97.0999984741211,252C96.5,255,95.69999694824219,258.20001220703125,95,261.70001220703125C93.5999984741211,268.1000061035156,92.0999984741211,274.70001220703125,91.0999984741211,280.5C90.80000305175781,282.29998779296875,90.5,283.8999938964844,90.19999694824219,285.5C88,297.20001220703125,86.80000305175781,303.70001220703125,87.5999984741211,311.5C88.30000305175781,319.6000061035156,86.30000305175781,326.6000061035156,84.5,332.70001220703125C84.19999694824219,333.70001220703125,83.9000015258789,334.6000061035156,83.69999694824219,335.6000061035156C82.5,339.8999938964844,82.4000015258789,344.3999938964844,82.4000015258789,347.79998779296875C82.4000015258789,349.79998779296875,82.30000305175781,351.20001220703125,82.0999984741211,352.1000061035156C81.69999694824219,353.6000061035156,80.9000015258789,354.3999938964844,79.69999694824219,354.5C79.69999694824219,354.6000061035156,79.69999694824219,354.6000061035156,79.69999694824219,354.6000061035156C79.69999694824219,355.70001220703125,79.69999694824219,357.3999938964844,78.19999694824219,358.20001220703125C78.0999984741211,358.1000061035156,77.69999694824219,358.20001220703125,77,358.20001220703125zM61.79999923706055,351.6000061035156C63.900001525878906,352.8999938964844,73.69999694824219,354.79998779296875,76.69999694824219,355C76.69999694824219,354.79998779296875,76.69999694824219,354.6000061035156,76.69999694824219,354.3999938964844C76.69999694824219,353.6000061035156,76.69999694824219,352.70001220703125,77.19999694824219,351.8999938964844C77.80000305175781,351,78.5999984741211,350.8999938964844,79.19999694824219,350.8999938964844C79.30000305175781,350.29998779296875,79.4000015258789,348.8999938964844,79.4000015258789,347.3999938964844C79.5,343.8999938964844,79.5,339.1000061035156,80.9000015258789,334.3999938964844C81.19999694824219,333.3999938964844,81.5,332.5,81.69999694824219,331.5C83.5,325.3999938964844,85.4000015258789,319.1000061035156,84.69999694824219,311.6000061035156C83.9000015258789,303.29998779296875,85.19999694824219,296.70001220703125,87.4000015258789,284.70001220703125C87.69999694824219,283.1000061035156,88,281.5,88.30000305175781,279.70001220703125C89.4000015258789,273.79998779296875,90.80000305175781,267.20001220703125,92.30000305175781,260.79998779296875C94.5,250.8000030517578,96.5999984741211,241.3000030517578,96.5999984741211,237.3000030517578C96.5999984741211,233,96.5999984741211,232.1999969482422,98.30000305175781,232.10000610351562C99.9000015258789,232.10000610351562,100,233.5,100.0999984741211,235.5C100.0999984741211,235.6999969482422,100.4000015258789,250.5,101.80000305175781,263.29998779296875C102.0999984741211,266.20001220703125,102.5,269.1000061035156,102.80000305175781,271.8999938964844C104.4000015258789,285.70001220703125,105,291.6000061035156,103.4000015258789,293.6000061035156C102.4000015258789,295.29998779296875,102.69999694824219,308.20001220703125,104,316.8999938964844C104.9000015258789,323.29998779296875,104.69999694824219,332.20001220703125,104.5999984741211,335.8999938964844C104.5999984741211,336.6000061035156,104.5999984741211,337.20001220703125,104.5999984741211,337.5C104.5999984741211,338.29998779296875,105.0999984741211,339.70001220703125,105.5,340.79998779296875C105.9000015258789,341.8999938964844,106.19999694824219,342.79998779296875,106.19999694824219,343.6000061035156C106.19999694824219,344.5,105.80000305175781,345.29998779296875,105.4000015258789,346.1000061035156C105.30000305175781,346.3999938964844,105,346.79998779296875,104.9000015258789,347.1000061035156C105.5,347.6000061035156,106.5999984741211,348.29998779296875,108.30000305175781,348.3999938964844C111.4000015258789,348.6000061035156,115.0999984741211,346.79998779296875,119.0999984741211,343.1000061035156C120.19999694824219,341.29998779296875,122.9000015258789,326.20001220703125,125.69999694824219,305.5C126.0999984741211,302.29998779296875,125.80000305175781,297.1000061035156,125.4000015258789,292.1000061035156C124.9000015258789,285,124.4000015258789,278.29998779296875,125.80000305175781,274.5C128,268.6000061035156,134,245.8000030517578,133.1999969482422,228.8000030517578C132.39999389648438,212.8000030517578,129.6999969482422,200.6999969482422,128.5,198.3000030517578C123.80000305175781,198.10000610351562,88,197.3000030517578,63.29999923706055,196.6999969482422C60.79999923706055,203.1999969482422,57.900001525878906,215.1999969482422,59.599998474121094,242.89999389648438C60.5,258.5,61.599998474121094,269.6000061035156,62.20000076293945,277C63,285.29998779296875,63.29999923706055,289.1000061035156,62.79999923706055,290.8999938964844C62.099998474121094,293.3999938964844,63,300.79998779296875,64.19999694824219,305.20001220703125C65.4000015258789,309.6000061035156,64.9000015258789,327,63.599998474121094,330C62.79999923706055,331.79998779296875,62.79999923706055,336.3999938964844,62.900001525878906,338.6000061035156C62.900001525878906,339,62.900001525878906,339.29998779296875,62.900001525878906,339.6000061035156C62.900001525878906,340.5,62.70000076293945,342.29998779296875,62.5,344.29998779296875C62.099998474121094,346.8999938964844,61.70000076293945,350.29998779296875,61.79999923706055,351.6000061035156zM77.30000305175781,355L77.30000305175781,355L77.30000305175781,355zM79.9000015258789,353.6000061035156L79.9000015258789,353.6000061035156L79.9000015258789,353.6000061035156zM61.79999923706055,352L61.79999923706055,352L61.79999923706055,352zM98.4000015258789,223.39999389648438C97.9000015258789,223.39999389648438,97.5,223,97.4000015258789,222.5C97.30000305175781,222,97.69999694824219,221.39999389648438,98.19999694824219,221.39999389648438C100.5999984741211,221,103.5,220.39999389648438,104.19999694824219,220C105,218.6999969482422,106.0999984741211,209,106,204.6999969482422C106,204.10000610351562,106.4000015258789,203.6999969482422,107,203.6999969482422C107.5999984741211,203.6999969482422,108,204.10000610351562,108,204.6999969482422C108.0999984741211,207.5,107.30000305175781,220.3000030517578,105.5,221.6999969482422C104.30000305175781,222.60000610351562,99.9000015258789,223.3000030517578,98.5,223.5C98.5,223.39999389648438,98.4000015258789,223.39999389648438,98.4000015258789,223.39999389648438zM104.19999694824219,220.10000610351562L104.19999694824219,220.10000610351562L104.19999694824219,220.10000610351562zM70.0999984741211,216.1999969482422C73.0999984741211,212.89999389648438,77.19999694824219,207.5,77.30000305175781,207.39999389648438C77.5999984741211,207,77.5999984741211,206.3000030517578,77.0999984741211,206C76.69999694824219,205.6999969482422,76,205.6999969482422,75.69999694824219,206.1999969482422C75.69999694824219,206.3000030517578,71.5999984741211,211.60000610351562,68.5999984741211,214.8000030517578C68.19999694824219,215.1999969482422,68.30000305175781,215.8000030517578,68.69999694824219,216.1999969482422C68.9000015258789,216.39999389648438,69.0999984741211,216.5,69.4000015258789,216.5C69.5999984741211,216.60000610351562,69.9000015258789,216.5,70.0999984741211,216.1999969482422z"/>
<path id="Body" fill="#FADBBD" d="M36.29999923706055,116.19999694824219C34.5,118.0999984741211,24.600000381469727,143.1999969482422,20.700000762939453,151.8000030517578C16.799999237060547,160.39999389648438,12.300000190734863,168.89999389648438,12.300000190734863,170.8000030517578C12.300000190734863,172.6999969482422,22,181.5,25.899999618530273,185.89999389648438C29.799999237060547,190.3000030517578,52.5,210.39999389648438,52.5,213.10000610351562C52.5,215.8000030517578,48.70000076293945,234.10000610351562,55.400001525878906,235.5C57.5,235.8000030517578,64.9000015258789,227.6999969482422,65.5,225.5C66.0999984741211,223.3000030517578,65.80000305175781,213.60000610351562,65.80000305175781,213.60000610351562C67.30000305175781,214.5,69.19999694824219,214.10000610351562,70.19999694824219,212.6999969482422C71.69999694824219,210.60000610351562,71.4000015258789,209.89999389648438,71.4000015258789,209.89999389648438C71.4000015258789,209.89999389648438,67.5999984741211,203.39999389648438,64.30000305175781,202.89999389648438C61,202.39999389648438,59.79999923706055,203.5,56.400001525878906,198.8000030517578C53,194.10000610351562,33.099998474121094,169.89999389648438,33.400001525878906,169.10000610351562C33.70000076293945,168.3000030517578,53.20000076293945,131.8000030517578,54.099998474121094,130.1999969482422S47.70000076293945,112,36.29999923706055,116.19999694824219zM126.9000015258789,108.19999694824219C128.89999389648438,114.5,128.8000030517578,149,129.10000610351562,153.10000610351562C129.39999389648438,157.1999969482422,129.3000030517578,159.1999969482422,131.5,159.6999969482422C133.6999969482422,160.1999969482422,152.10000610351562,134.3000030517578,152.10000610351562,134.3000030517578C152.10000610351562,134.3000030517578,150.39999389648438,128.39999389648438,152.89999389648438,123.9000015258789C154.10000610351562,121.69999694824219,153.6999969482422,116.69999694824219,155.1999969482422,114.19999694824219C162.89999389648438,113.4000015258789,159.60000610351562,124,159.60000610351562,124C165.3000030517578,117.9000015258789,169.39999389648438,108.5,178.3000030517578,110.69999694824219C183.3000030517578,113.69999694824219,181.10000610351562,124.5,179.1999969482422,127.30000305175781C177.3000030517578,130.10000610351562,165.1999969482422,137.89999389648438,160.8000030517578,142C157.39999389648438,146.6999969482422,134.89999389648438,191.1999969482422,125,191.1999969482422C119,191.1999969482422,110.9000015258789,130.89999389648438,111.19999694824219,123.19999694824219S125.30000305175781,103.19999694824219,126.9000015258789,108.19999694824219zM121.4000015258789,60.599998474121094C120.5999984741211,63.70000076293945,118.30000305175781,65.80000305175781,116.19999694824219,65.5999984741211C112.80000305175781,73.5999984741211,107.0999984741211,80.30000305175781,100.80000305175781,83.9000015258789C101.19999694824219,90.5999984741211,103.9000015258789,97.80000305175781,111.19999694824219,99.30000305175781C113.9000015258789,103.80000305175781,101.5,120.0999984741211,101.5,120.0999984741211S67,105.19999694824219,72.30000305175781,100.5999984741211C76.19999694824219,97.19999694824219,78.69999694824219,89.0999984741211,78.4000015258789,82.4000015258789C73,78.5999984741211,68.19999694824219,72.5999984741211,65.19999694824219,65.5999984741211C63.099998474121094,65.9000015258789,60.79999923706055,63.70000076293945,59.900001525878906,60.599998474121094C59,57.29999923706055,60,54.20000076293945,62.20000076293945,53.5C62,52.70000076293945,62,51.79999923706055,62,50.900001525878906C62,48.099998474121094,62.29999923706055,37,62.79999923706055,34.70000076293945C65.80000305175781,21.299999237060547,77.0999984741211,15.600000381469727,90.5999984741211,15.600000381469727C104.0999984741211,15.600000381469727,115.4000015258789,21.399999618530273,118.4000015258789,34.70000076293945C118.9000015258789,37,119.19999694824219,48.20000076293945,119.19999694824219,50.900001525878906C119.19999694824219,51.79999923706055,119.19999694824219,52.70000076293945,119.0999984741211,53.599998474121094C121.19999694824219,54.29999923706055,122.19999694824219,57.400001525878906,121.4000015258789,60.599998474121094z"/>
<path id="Shirt" fill="#FC6F68" d="M67.4000015258789,97C65.0999984741211,99,64.5999984741211,100.9000015258789,57.79999923706055,102.5C51,104.0999984741211,45.70000076293945,103.9000015258789,41.70000076293945,108.69999694824219C37.70000076293945,113.5,33.400001525878906,118.5,34.70000076293945,118.9000015258789C36,119.30000305175781,44.70000076293945,122,48.900001525878906,128.39999389648438C53.099998474121094,134.8000030517578,52.29999923706055,134.60000610351562,53.29999923706055,134.1999969482422C54.29999923706055,133.8000030517578,56.599998474121094,131,56.599998474121094,131C56.599998474121094,131,65.9000015258789,146.89999389648438,65.4000015258789,164.5C64.9000015258789,182.10000610351562,59.29999923706055,192.89999389648438,59.79999923706055,193.8000030517578C60.29999923706055,194.6999969482422,86,205,104.9000015258789,203.5C123.80000305175781,202,132.8000030517578,194.89999389648438,132.8000030517578,194.89999389648438C132.8000030517578,194.89999389648438,124.19999694824219,175.6999969482422,123.80000305175781,161.10000610351562C123.4000015258789,146.5,131.39999389648438,136.10000610351562,130.1999969482422,128.10000610351562C129.39999389648438,123.19999694824219,127.30000305175781,118.69999694824219,124,114.9000015258789C124,114.9000015258789,129,110.5999984741211,129,109.69999694824219C129,108.80000305175781,125.5,97.5999984741211,114.9000015258789,97.9000015258789C111,98.30000305175781,103.69999694824219,115.5999984741211,103.69999694824219,115.5999984741211L67.4000015258789,97z"/>
<path id="BodyBorder" d="M111.82510375976562,97.80159759521484C111.72219848632812,97.75890350341797,111.6146011352539,97.722900390625,111.5,97.69999694824219C105.30000305175781,96.4000015258789,103,90.5,102.5,84.80000305175781C105.5999984741211,82.9000015258789,108.5999984741211,80.19999694824219,111.19999694824219,77C113.69999694824219,74,115.69999694824219,70.69999694824219,117.19999694824219,67.19999694824219C117.80000305175781,67.0999984741211,118.4000015258789,66.9000015258789,119,66.5999984741211C120.80000305175781,65.5999984741211,122.30000305175781,63.5,122.9000015258789,61.099998474121094C123.9000015258789,57.5,123,54.20000076293945,120.80000305175781,52.70000076293945C120.80000305175781,52.099998474121094,120.9000015258789,51.5,120.9000015258789,50.900001525878906C120.9000015258789,48.400001525878906,120.5999984741211,36.900001525878906,120.0999984741211,34.29999923706055C117.0999984741211,21.399999618530273,106.4000015258789,13.899999618530273,90.69999694824219,13.899999618530273C74.9000015258789,13.899999618530273,64.19999694824219,21.299999237060547,61.29999923706055,34.29999923706055C60.70000076293945,37,60.5,48.900001525878906,60.5,50.79999923706055C60.5,51.400001525878906,60.5,52,60.5,52.599998474121094C58.29999923706055,54.099998474121094,57.400001525878906,57.5,58.400001525878906,61.099998474121094C59.20000076293945,64.5,61.5,66.9000015258789,64,67.30000305175781C67,73.9000015258789,71.5999984741211,79.5,76.69999694824219,83.30000305175781C76.7885971069336,88.35240173339844,75.22489929199219,94.34210205078125,72.57080078125,97.86759948730469L75.46089935302734,99.33350372314453C77.9885025024414,95.68930053710938,79.54340362548828,90.3915023803711,79.89990234375,85.4000015258789C83.4999008178711,87.5,87.19989776611328,88.5999984741211,90.69989776611328,88.5999984741211C93.4999008178711,88.5999984741211,96.4999008178711,87.9000015258789,99.39990234375,86.5C100.37650299072266,93.04280090332031,103.45960235595703,98.71630096435547,109.56330108642578,100.5625991821289L111.82510375976562,97.80159759521484zM62.599998474121094,55.099998474121094C63.099998474121094,55,63.5,55.099998474121094,63.900001525878906,55.29999923706055C64.69999694824219,55.79999923706055,65.69999694824219,55.599998474121094,66.0999984741211,54.79999923706055C66.5999984741211,54,66.4000015258789,53,65.5999984741211,52.599998474121094C65,52.20000076293945,64.30000305175781,52,63.599998474121094,51.900001525878906C63.599998474121094,51.599998474121094,63.599998474121094,51.20000076293945,63.599998474121094,50.900001525878906C63.599998474121094,47.79999923706055,63.900001525878906,37.099998474121094,64.4000015258789,35.099998474121094C65.9000015258789,28.399999618530273,71.30000305175781,17.200000762939453,90.69999694824219,17.200000762939453C110,17.200000762939453,115.4000015258789,28.399999618530273,116.9000015258789,35C117.30000305175781,37.099998474121094,117.5999984741211,47.79999923706055,117.5999984741211,50.900001525878906C117.5999984741211,51.20000076293945,117.5999984741211,51.599998474121094,117.5999984741211,51.900001525878906C116.9000015258789,52,116.19999694824219,52.20000076293945,115.5999984741211,52.599998474121094C114.80000305175781,53.099998474121094,114.5999984741211,54.099998474121094,115.0999984741211,54.79999923706055C115.5999984741211,55.599998474121094,116.5999984741211,55.79999923706055,117.30000305175781,55.29999923706055C117.69999694824219,55.099998474121094,118.19999694824219,55,118.5,55.099998474121094C119.69999694824219,55.400001525878906,120.4000015258789,57.599998474121094,119.69999694824219,60.20000076293945C119.30000305175781,61.79999923706055,118.30000305175781,63.099998474121094,117.30000305175781,63.70000076293945C116.80000305175781,64,116.4000015258789,64,116.0999984741211,63.900001525878906C115.80000305175781,63.79999923706055,115.5999984741211,63.70000076293945,115.4000015258789,63.5C114.80000305175781,62.79999923706055,113.80000305175781,62.79999923706055,113.0999984741211,63.400001525878906C112.4000015258789,64,112.4000015258789,65,113,65.69999694824219C113.30000305175781,66,113.5999984741211,66.30000305175781,114,66.5C108.9000015258789,77.5,99.0999984741211,85.30000305175781,90.5999984741211,85.30000305175781C81,85.30000305175781,72.19999694824219,76.69999694824219,67.4000015258789,66.4000015258789C67.69999694824219,66.19999694824219,67.9000015258789,66,68.0999984741211,65.69999694824219C68.69999694824219,65,68.5999984741211,64,67.9000015258789,63.400001525878906C67.19999694824219,62.79999923706055,66.19999694824219,62.900001525878906,65.5999984741211,63.599998474121094C65.4000015258789,63.79999923706055,65.19999694824219,63.900001525878906,65,64C63.79999923706055,64.30000305175781,62,62.79999923706055,61.29999923706055,60.20000076293945C60.70000076293945,57.70000076293945,61.5,55.400001525878906,62.599998474121094,55.099998474121094zM180.60000610351562,128.1999969482422C179.5,129.89999389648438,176,132.5,170.39999389648438,136.60000610351562C167.1999969482422,138.89999389648438,163.89999389648438,141.3000030517578,162.10000610351562,143C161.3000030517578,144.10000610351562,159.6999969482422,147,157.60000610351562,150.6999969482422C148.6999969482422,166.3000030517578,139.60000610351562,181.6999969482422,132.3000030517578,188.6999969482422C131.89999389648438,187.6999969482422,131.5,186.60000610351562,131.10000610351562,185.39999389648438C139,177,150,157.60000610351562,154.8000030517578,149.10000610351562C157.10000610351562,145,158.8000030517578,142.10000610351562,159.60000610351562,141C159.6999969482422,140.89999389648438,159.6999969482422,140.8000030517578,159.8000030517578,140.8000030517578C161.8000030517578,139,165.1999969482422,136.5,168.5,134C172.3000030517578,131.1999969482422,177.10000610351562,127.69999694824219,178,126.4000015258789C178.6999969482422,125.40010070800781,179.5,122.90010070800781,179.8000030517578,120.0999984741211C176.6999969482422,122.9000015258789,172,127.80000305175781,172,127.9000015258789C171.89999389648438,128.10000610351562,171.6999969482422,128.10000610351562,171.5,128.10000610351562C171.3000030517578,128.10000610351562,171.10000610351562,128,171,127.9000015258789C170.6999969482422,127.5999984741211,170.6999969482422,127.0999984741211,171,126.80000305175781C171.1999969482422,126.5999984741211,176.1999969482422,121.19999694824219,179.39999389648438,118.5C179.60000610351562,118.4000015258789,179.8000030517578,118.30000305175781,180,118.30000305175781C180,117.30000305175781,179.89999389648438,116.19999694824219,179.6999969482422,115.30000305175781C176.5,118.0999984741211,173.39999389648438,121,170.39999389648438,124.0999984741211C170.3000030517578,124.30000305175781,170.10000610351562,124.30000305175781,169.89999389648438,124.30000305175781C169.6999969482422,124.30000305175781,169.5,124.19999694824219,169.39999389648438,124.0999984741211C169.10000610351562,123.80000305175781,169.10000610351562,123.30000305175781,169.39999389648438,123C172.39999389648438,119.80000305175781,175.6999969482422,116.69999694824219,179.10000610351562,113.80000305175781C179.10000610351562,113.80000305175781,179.1999969482422,113.69999694824219,179.3000030517578,113.69999694824219C179,113,178.5,112.4000015258789,178,112C177.6999969482422,111.9000015258789,177.39999389648438,111.9000015258789,177.10000610351562,111.9000015258789C177.10000610351562,112.0999984741211,177,112.19999694824219,176.89999389648438,112.30000305175781C174.60000610351562,114.5,170,119.5,169.60000610351562,120.30000305175781C169.5,120.5999984741211,169.1999969482422,120.69999694824219,168.89999389648438,120.69999694824219C168.8000030517578,120.69999694824219,168.6999969482422,120.69999694824219,168.60000610351562,120.5999984741211C168.1999969482422,120.4000015258789,168.10000610351562,120,168.1999969482422,119.5999984741211C168.6999969482422,118.5,172.8000030517578,114,175.10000610351562,111.80000305175781C171.10000610351562,112.30000305175781,168.1999969482422,116,165,120.0999984741211C163.6999969482422,121.69999694824219,162.39999389648438,123.4000015258789,161,124.9000015258789C160.5,125.5,159.6999969482422,125.5999984741211,159,125.19999694824219C158.3000030517578,124.80000305175781,158,124,158.3000030517578,123.30000305175781C158.89999389648438,121.30000305175781,159.39999389648438,117.69999694824219,158.1999969482422,116.19999694824219C158.10000610351562,116,157.6999969482422,115.5,156.5,115.5C156.10000610351562,116.5999984741211,155.89999389648438,118,155.8000030517578,119.4000015258789C155.60000610351562,121.30000305175781,155.3000030517578,123.19999694824219,154.60000610351562,124.5C152.39999389648438,128.39999389648438,153.89999389648438,133.60000610351562,153.89999389648438,133.6999969482422C154,134.1999969482422,154,134.6999969482422,153.6999969482422,135.10000610351562C134.6999969482422,161.89999389648438,132.5,161.39999389648438,131.39999389648438,161.10000610351562C128.1999969482422,160.39999389648438,128,157.6999969482422,127.80000305175781,154.1999969482422L127.69999694824219,153C127.5999984741211,152.10000610351562,127.5999984741211,150.10000610351562,127.5,147.3000030517578C128.10000610351562,145.10000610351562,128.8000030517578,143,129.5,141C129.89999389648438,139.8000030517578,130.3000030517578,138.6999969482422,130.60000610351562,137.60000610351562C130.60000610351562,139.8000030517578,130.6999969482422,142.10000610351562,130.6999969482422,144.3000030517578C130.8000030517578,148.39999389648438,130.8000030517578,151.6999969482422,130.89999389648438,152.6999969482422L131,153.89999389648438C131.1999969482422,156.60000610351562,131.3000030517578,157.39999389648438,131.6999969482422,157.6999969482422C134.10000610351562,155.89999389648438,142.89999389648438,144.5,150.60000610351562,133.6999969482422C150.1999969482422,131.8000030517578,149.39999389648438,126.9000015258789,151.6999969482422,122.80000305175781C152.10000610351562,122,152.3000030517578,120.4000015258789,152.5,118.9000015258789C152.8000030517578,116.80000305175781,153,114.69999694824219,154,113.0999984741211C154.3000030517578,112.5999984741211,154.6999969482422,112.30000305175781,155.1999969482422,112.30000305175781C158.1999969482422,112,159.8000030517578,113.0999984741211,160.60000610351562,114.0999984741211C161.60000610351562,115.30000305175781,162,116.9000015258789,162.10000610351562,118.4000015258789C162.1999969482422,118.30000305175781,162.3000030517578,118.19999694824219,162.39999389648438,118.0999984741211C166.5,112.9000015258789,171.10000610351562,106.9000015258789,178.89999389648438,108.80000305175781C179.10000610351562,108.80000305175781,179.1999969482422,108.9000015258789,179.3000030517578,109C181.10000610351562,110.0999984741211,182.1999969482422,111.9000015258789,182.8000030517578,114.4000015258789C183.8000030517578,119.5,182.1999969482422,125.9000015258789,180.60000610351562,128.1999969482422zM73.0999984741211,209.1999969482422C73.5999984741211,210.6999969482422,72,212.89999389648438,71.5,213.6999969482422C70.5,215.10000610351562,69,215.8000030517578,67.4000015258789,215.8000030517578C67.5,219,67.5,224.1999969482422,67,226C66.4000015258789,228.1999969482422,58.900001525878906,237.1999969482422,55.400001525878906,237.1999969482422C55.29999923706055,237.1999969482422,55.20000076293945,237.1999969482422,55.20000076293945,237.1999969482422L55.099998474121094,237.1999969482422C48.20000076293945,235.6999969482422,49.79999923706055,222.8000030517578,50.599998474121094,215.89999389648438C50.70000076293945,214.89999389648438,50.79999923706055,213.89999389648438,50.900001525878906,213.39999389648438C49.900001525878906,211.1999969482422,39.599998474121094,201.39999389648438,33.400001525878906,195.60000610351562C29.5,191.89999389648438,26,188.60000610351562,24.700000762939453,187.10000610351562C23.399999618530273,185.6999969482422,21.600000381469727,183.8000030517578,19.600000381469727,181.8000030517578C12.699999809265137,174.8000030517578,10.699999809265137,172.5,10.699999809265137,170.8000030517578C10.699999809265137,169.1999969482422,12.300000190734863,165.8000030517578,15.600000381469727,158.89999389648438C16.799999237060547,156.39999389648438,18,153.8000030517578,19.200000762939453,151.1999969482422C20.600000381469727,148.10000610351562,22.799999237060547,142.8000030517578,25.200000762939453,137.10000610351562C28.747699737548828,128.52630615234375,31.225299835205078,122.7738037109375,32.82789993286133,119.25879669189453C33.04069900512695,119.8313980102539,33.520599365234375,120.30690002441406,34.099998474121094,120.5000991821289L34.400001525878906,120.60009765625C34.839900970458984,120.7468032836914,35.262699127197266,120.89749908447266,35.676998138427734,121.05020141601562C33.676998138427734,125.35639953613281,30.691099166870117,132.62139892578125,28.299999237060547,138.3000946044922C25.899999618530273,144.00010681152344,23.700000762939453,149.3000946044922,22.299999237060547,152.50010681152344C21.100000381469727,155.20010375976562,19.799999237060547,157.9001007080078,18.600000381469727,160.3000946044922C16.600000381469727,164.60009765625,14.199999809265137,169.4001007080078,14,170.70010375976562C14.600000381469727,172.10009765625,19.200000762939453,176.70010375976562,22,179.50010681152344C24,181.50010681152344,25.899999618530273,183.4001007080078,27.200000762939453,184.9001007080078C28.5,186.3000946044922,31.799999237060547,189.50010681152344,35.70000076293945,193.20010375976562C50.599998474121094,207.3000946044922,54.20000076293945,211.20010375976562,54.20000076293945,213.20010375976562C54.20000076293945,213.8000946044922,54.099998474121094,214.8000946044922,53.900001525878906,216.3000946044922C53.400001525878906,220.4001007080078,51.900001525878906,232.8000946044922,55.599998474121094,234.00010681152344C55.900001525878906,233.9001007080078,56.400001525878906,233.60009765625,57,233.10009765625C55.29999923706055,231.10009765625,55.20000076293945,226.00010681152344,55.400001525878906,220.8000946044922C55.400001525878906,220.4001007080078,55.79999923706055,220.10009765625,56.20000076293945,220.10009765625C56.599998474121094,220.10009765625,56.900001525878906,220.50010681152344,56.900001525878906,220.9001007080078C56.79999923706055,223.50010681152344,56.599998474121094,230.3000946044922,58.20000076293945,232.10009765625C58.70000076293945,231.70010375976562,59.20000076293945,231.20010375976562,59.70000076293945,230.70010375976562C58.599998474121094,229.20010375976562,58.70000076293945,226.10009765625,58.79999923706055,222.8000946044922C58.79999923706055,221.50010681152344,58.900001525878906,220.20010375976562,58.79999923706055,219.10009765625C58.79999923706055,218.70010375976562,59.099998474121094,218.3000946044922,59.5,218.3000946044922C59.900001525878906,218.3000946044922,60.29999923706055,218.60009765625,60.29999923706055,219.00010681152344C60.29999923706055,220.20010375976562,60.29999923706055,221.50010681152344,60.29999923706055,222.8000946044922C60.20000076293945,225.4001007080078,60.099998474121094,228.4001007080078,60.79999923706055,229.60009765625C62.400001525878906,227.9001007080078,63.79999923706055,226.10009765625,64.0999984741211,225.20010375976562C64.5,223.8000946044922,64.4000015258789,217.50010681152344,64.30000305175781,213.8000946044922C64.30000305175781,213.20010375976562,64.5999984741211,212.70010375976562,65.0999984741211,212.4001007080078C65.5999984741211,212.10009765625,66.19999694824219,212.10009765625,66.80000305175781,212.4001007080078C67.5999984741211,212.9001007080078,68.5,212.60009765625,69.0999984741211,211.9001007080078C69.5999984741211,211.20010375976562,69.9000015258789,210.70010375976562,70,210.50010681152344C68.5,208.10009765625,65.9000015258789,205.00010681152344,64.30000305175781,204.70010375976562C63.70000076293945,204.60009765625,63.20000076293945,204.60009765625,62.599998474121094,204.50010681152344C60,204.3000946044922,58.29999923706055,204.00010681152344,55.29999923706055,199.9001007080078C54,198.10009765625,50.099998474121094,193.20010375976562,46,188.00010681152344C31.600000381469727,170.00010681152344,31.700000762939453,169.9001007080078,32.099998474121094,168.60009765625C32.39720153808594,167.7086944580078,45.05160140991211,144.06430053710938,50.53969955444336,133.99459838867188C50.558998107910156,134.02879333496094,50.5817985534668,134.0673065185547,50.599998474121094,134.10009765625C51.1885986328125,135.10910034179688,51.8557014465332,136.24229431152344,53.12070083618164,136.0478973388672C47.991600036621094,145.60220336914062,37.4900016784668,165.2196044921875,35.5,169.10000610351562C37,171.39999389648438,43.599998474121094,179.6999969482422,48.599998474121094,185.89999389648438C52.900001525878906,191.3000030517578,56.70000076293945,196,58,197.89999389648438C60.20000076293945,201,61,201,62.79999923706055,201.1999969482422C63.400001525878906,201.1999969482422,64,201.3000030517578,64.80000305175781,201.39999389648438C68.69999694824219,202,72.4000015258789,208,73.0999984741211,209.1999969482422zM160.1999969482422,133.3000030517578C160.8000030517578,132.60000610351562,162.39999389648438,128.89999389648438,162.10000610351562,127.4000015258789C162,126.9000015258789,162.3000030517578,126.30000305175781,162.89999389648438,126.19999694824219C163.39999389648438,126.0999984741211,164,126.4000015258789,164.10000610351562,127C164.60000610351562,129.3000030517578,162.60000610351562,133.60000610351562,161.6999969482422,134.60000610351562C161.60000610351562,134.89999389648438,161.3000030517578,135,161,135C160.8000030517578,135,160.5,134.89999389648438,160.3000030517578,134.6999969482422C159.89999389648438,134.3000030517578,159.89999389648438,133.6999969482422,160.1999969482422,133.3000030517578z"/>
<path id="ShirtBorder" d="M100.80000305175781,205.10000610351562C91.69999694824219,205.10000610351562,82,202.89999389648438,75,201C71.9000015258789,200.10000610351562,59.29999923706055,196.3000030517578,58.29999923706055,194.5C57.79999923706055,193.60000610351562,58.099998474121094,192.8000030517578,59,190.1999969482422C60.400001525878906,185.89999389648438,63.400001525878906,176.8000030517578,63.79999923706055,164.39999389648438C64.19999694824219,151.10000610351562,58.70000076293945,138.5,56.29999923706055,133.8000030517578C55.5,134.60000610351562,54.70000076293945,135.39999389648438,54,135.6999969482422L53.900001525878906,135.8000030517578C52.099998474121094,136.6999969482422,51.29999923706055,135.3000030517578,50.599998474121094,134.10000610351562C50.099998474121094,133.1999969482422,49.20000076293945,131.8000030517578,47.599998474121094,129.39999389648438C45.900001525878906,126.80000305175781,42.20000076293945,123.19999694824219,34.400001525878906,120.5999984741211L34.099998474121094,120.5C33.5,120.30000305175781,33,119.80000305175781,32.79999923706055,119.19999694824219C32.29999923706055,117.5,33.79999923706055,115.5,39.900001525878906,108.19999694824219L40.29999923706055,107.69999694824219C43.79999923706055,103.5999984741211,48,102.80000305175781,53,101.9000015258789C54.400001525878906,101.5999984741211,55.79999923706055,101.4000015258789,57.29999923706055,101C62.29999923706055,99.80000305175781,63.5,98.5999984741211,64.9000015258789,97.19999694824219C65.30000305175781,96.80000305175781,65.69999694824219,96.4000015258789,66.19999694824219,95.9000015258789C66.69999694824219,95.5,67.4000015258789,95.4000015258789,68,95.69999694824219L102.9000015258789,113.19999694824219C105.5,107.19999694824219,110.69999694824219,96.5,114.80000305175781,96.0999984741211L114.9000015258789,96.0999984741211C119,96,122.5999984741211,97.4000015258789,125.5999984741211,100.30000305175781C129.10000610351562,103.80000305175781,130.6999969482422,108.4000015258789,130.6999969482422,109.5C130.6999969482422,110.0999984741211,130.6999969482422,111,126.30000305175781,114.9000015258789C129.10000610351562,118.5999984741211,131,123,131.8000030517578,127.5999984741211C132.39999389648438,131.6999969482422,131,136.10000610351562,129.3000030517578,141.1999969482422C127.4000015258789,146.89999389648438,125.30000305175781,153.3000030517578,125.5,160.8000030517578C125.9000015258789,174.89999389648438,134.3000030517578,193.8000030517578,134.39999389648438,194C134.6999969482422,194.6999969482422,134.5,195.5,133.89999389648438,195.89999389648438C133.5,196.1999969482422,124.19999694824219,203.3000030517578,105.0999984741211,204.89999389648438C103.69999694824219,205.10000610351562,102.19999694824219,205.10000610351562,100.80000305175781,205.10000610351562zM61.599998474121094,192.89999389648438C66.0999984741211,195,88.19999694824219,203.1999969482422,104.80000305175781,201.8000030517578C119.4000015258789,200.60000610351562,128,195.89999389648438,130.8000030517578,194.1999969482422C128.89999389648438,189.60000610351562,122.5999984741211,173.8000030517578,122.19999694824219,161C122,152.89999389648438,124.19999694824219,146.1999969482422,126.19999694824219,140.3000030517578C127.80000305175781,135.60000610351562,129.10000610351562,131.60000610351562,128.60000610351562,128.3000030517578C127.80000305175781,123.69999694824219,125.80000305175781,119.5,122.80000305175781,115.9000015258789C122.19999694824219,115.19999694824219,122.30000305175781,114.19999694824219,123,113.5999984741211C124.69999694824219,112.0999984741211,126.69999694824219,110.19999694824219,127.30000305175781,109.4000015258789C126.69999694824219,107.5999984741211,123.5999984741211,99.4000015258789,115.19999694824219,99.4000015258789C115.0999984741211,99.4000015258789,115.0999984741211,99.4000015258789,115,99.4000015258789C113.30000305175781,99.80000305175781,108.69999694824219,107.5999984741211,105.19999694824219,116.0999984741211C105,116.5,104.69999694824219,116.80000305175781,104.30000305175781,117C103.9000015258789,117.19999694824219,103.4000015258789,117.0999984741211,103,116.9000015258789L67.69999694824219,99C67.5999984741211,99.0999984741211,67.5,99.19999694824219,67.4000015258789,99.30000305175781C65.80000305175781,100.9000015258789,64.19999694824219,102.5999984741211,58.20000076293945,104C56.599998474121094,104.4000015258789,55.099998474121094,104.5999984741211,53.70000076293945,104.9000015258789C49,105.69999694824219,45.70000076293945,106.4000015258789,43,109.5999984741211L42.599998474121094,110.0999984741211C40.599998474121094,112.5,37.70000076293945,115.9000015258789,36.599998474121094,117.69999694824219C44.599998474121094,120.5999984741211,48.5,124.5,50.400001525878906,127.4000015258789C51.900001525878906,129.6999969482422,52.79999923706055,131.1999969482422,53.400001525878906,132.10000610351562C54,131.60000610351562,54.79999923706055,130.6999969482422,55.5,129.8000030517578C55.79999923706055,129.39999389648438,56.400001525878906,129.1999969482422,56.900001525878906,129.1999969482422C57.400001525878906,129.1999969482422,57.900001525878906,129.5,58.20000076293945,130C58.599998474121094,130.6999969482422,67.69999694824219,146.5,67.19999694824219,164.3000030517578C66.80000305175781,177.10000610351562,63.79999923706055,186.5,62.29999923706055,191C61.900001525878906,191.8000030517578,61.70000076293945,192.39999389648438,61.599998474121094,192.89999389648438zM60.900001525878906,192.5L60.900001525878906,192.5z"/>
<path id="MouthNose" d="M93.5999984741211,67.4000015258789C93.0999984741211,67.4000015258789,92.5999984741211,67.30000305175781,92.30000305175781,67.19999694824219C91.9000015258789,67.0999984741211,91.69999694824219,66.5999984741211,91.9000015258789,66.19999694824219C92,65.80000305175781,92.5,65.5999984741211,92.9000015258789,65.80000305175781C93.4000015258789,66,94.5999984741211,66,95.5,65.4000015258789C96.0999984741211,65,96.4000015258789,64.30000305175781,96.4000015258789,63.5C96.4000015258789,63.099998474121094,96.30000305175781,62.70000076293945,96,62.5C95,61.79999923706055,93,62,92.4000015258789,62.099998474121094C92,62.20000076293945,91.5999984741211,61.900001525878906,91.5,61.5C91.4000015258789,61.099998474121094,91.69999694824219,60.70000076293945,92.0999984741211,60.599998474121094C92.4000015258789,60.5,95.19999694824219,60.099998474121094,96.69999694824219,61.400001525878906C97.30000305175781,61.900001525878906,97.69999694824219,62.70000076293945,97.69999694824219,63.5C97.69999694824219,65.19999694824219,96.9000015258789,66.0999984741211,96.0999984741211,66.5999984741211C95.4000015258789,67.19999694824219,94.4000015258789,67.4000015258789,93.5999984741211,67.4000015258789zM96.19999694824219,74.5999984741211C96.5999984741211,74.5,96.80000305175781,74.0999984741211,96.80000305175781,73.69999694824219C96.69999694824219,73.30000305175781,96.30000305175781,73,95.9000015258789,73.0999984741211C95.80000305175781,73.0999984741211,88.80000305175781,74.80000305175781,84.19999694824219,71.30000305175781C83.9000015258789,71.0999984741211,83.4000015258789,71.0999984741211,83.0999984741211,71.4000015258789C82.9000015258789,71.69999694824219,82.9000015258789,72.19999694824219,83.19999694824219,72.5C85.9000015258789,74.5,89.19999694824219,75,91.80000305175781,75C94.19999694824219,75.0999984741211,96,74.69999694824219,96.19999694824219,74.5999984741211z"/>
<path id="EyesWhite" fill="#FFFFFF" d="M72.9000015258789,56.5C72.9000015258789,56.5,74.5999984741211,59.599998474121094,80,59.29999923706055C85.4000015258789,59,86.30000305175781,57.099998474121094,85.19999694824219,55.29999923706055C84.4000015258789,53.900001525878906,84.0999984741211,51.70000076293945,80,51.599998474121094S72.9000015258789,52.900001525878906,72.9000015258789,56.5zM110.5,56.5C110.5,56.5,108.80000305175781,59.599998474121094,103.4000015258789,59.29999923706055C98,59,97.19999694824219,57.099998474121094,98.30000305175781,55.29999923706055C99.0999984741211,53.900001525878906,99.4000015258789,51.70000076293945,103.4000015258789,51.599998474121094S110.5999984741211,52.900001525878906,110.5,56.5z"/>
<path id="Eyes" d="M76.5,55.400001525878906C76.5,57.29999923706055,78.0999984741211,58.900001525878906,80,58.900001525878906C81.9000015258789,58.900001525878906,83.5,57.29999923706055,83.5,55.400001525878906C83.5,53.5,81.9000015258789,51.900001525878906,80,51.900001525878906S76.5,53.5,76.5,55.400001525878906L76.5,55.400001525878906zM106.9000015258789,55.400001525878906C106.9000015258789,57.29999923706055,105.30000305175781,58.900001525878906,103.4000015258789,58.900001525878906C101.5,58.900001525878906,99.9000015258789,57.29999923706055,99.9000015258789,55.400001525878906C99.9000015258789,53.5,101.5,51.900001525878906,103.4000015258789,51.900001525878906L103.4000015258789,51.900001525878906C105.30000305175781,51.900001525878906,106.9000015258789,53.5,106.9000015258789,55.400001525878906L106.9000015258789,55.400001525878906z"/>
<path id="EyeLids" d="M85.4000015258789,57.29999923706055C85,57.29999923706055,84.5999984741211,57,84.5999984741211,56.5C84.5999984741211,54.29999923706055,82.19999694824219,52.5,79.0999984741211,52.5C76.5,52.5,73.5999984741211,53.599998474121094,73.5999984741211,56C73.5999984741211,56.400001525878906,73.30000305175781,56.79999923706055,72.80000305175781,56.79999923706055S72,56.5,72,56C72,53.099998474121094,74.9000015258789,51,79,51C82.80000305175781,51,86,53.5,86,56.5C86.0999984741211,56.900001525878906,85.80000305175781,57.29999923706055,85.4000015258789,57.29999923706055zM98.80000305175781,56.5C98.80000305175781,54.29999923706055,101.19999694824219,52.5,104.30000305175781,52.5C106.9000015258789,52.5,109.80000305175781,53.599998474121094,109.80000305175781,56C109.80000305175781,56.400001525878906,110.0999984741211,56.79999923706055,110.5999984741211,56.79999923706055C111.0999984741211,56.79999923706055,111.4000015258789,56.5,111.4000015258789,56C111.4000015258789,53.099998474121094,108.5,51,104.4000015258789,51C100.5999984741211,51,97.4000015258789,53.5,97.4000015258789,56.5C97.4000015258789,56.900001525878906,97.69999694824219,57.29999923706055,98.19999694824219,57.29999923706055S98.80000305175781,56.900001525878906,98.80000305175781,56.5z"/>
<path id="EyeBrows" d="M69.5999984741211,50.400001525878906C69.4000015258789,50.400001525878906,69.19999694824219,50.29999923706055,69,50.20000076293945C68.5,49.900001525878906,68.4000015258789,49.29999923706055,68.80000305175781,48.79999923706055C70.5,46.400001525878906,73.19999694824219,44.70000076293945,76.0999984741211,44.29999923706055C79.19999694824219,43.70000076293945,82.5,44.5,84.9000015258789,46.599998474121094C85.30000305175781,46.900001525878906,85.4000015258789,47.599998474121094,85,48C84.69999694824219,48.400001525878906,84,48.5,83.5999984741211,48.099998474121094C81.5999984741211,46.400001525878906,78.9000015258789,45.79999923706055,76.4000015258789,46.20000076293945C74,46.599998474121094,71.80000305175781,47.900001525878906,70.4000015258789,49.900001525878906C70.19999694824219,50.29999923706055,69.9000015258789,50.400001525878906,69.5999984741211,50.400001525878906zM113.19999694824219,50.20000076293945C113.5999984741211,49.900001525878906,113.69999694824219,49.20000076293945,113.4000015258789,48.79999923706055C109.69999694824219,43.79999923706055,102.69999694824219,42.70000076293945,97.5999984741211,46.29999923706055C97.5,46.400001525878906,97.30000305175781,46.5,97.19999694824219,46.599998474121094C96.80000305175781,46.900001525878906,96.69999694824219,47.599998474121094,97,48C97.30000305175781,48.400001525878906,98,48.5,98.4000015258789,48.20000076293945C98.5,48.099998474121094,98.5999984741211,48,98.69999694824219,48C102.80000305175781,45,108.69999694824219,45.900001525878906,111.69999694824219,50C111.9000015258789,50.29999923706055,112.19999694824219,50.400001525878906,112.5,50.400001525878906S113,50.29999923706055,113.19999694824219,50.20000076293945z"/>
<path id="Hair" fill="#CE521B" d="M122.19999694824219,62.900001525878906C122.9000015258789,65.0999984741211,123.9000015258789,67.0999984741211,125.5,68.5999984741211C121.0999984741211,69.80000305175781,117.69999694824219,70.5,115.19999694824219,71.0999984741211C115.9000015258789,69.80000305175781,116.5999984741211,68.5999984741211,117.19999694824219,67.19999694824219C117.80000305175781,67.0999984741211,118.4000015258789,66.9000015258789,119,66.5999984741211C120.30000305175781,65.80000305175781,121.4000015258789,64.5,122.19999694824219,62.900001525878906zM112.4000015258789,17.299999237060547C107.9000015258789,13.100000381469727,96.9000015258789,12.100000381469727,92.5,16.399999618530273C87.0999984741211,11.100000381469727,72.30000305175781,12.699999809265137,63.20000076293945,22.899999618530273C47.599998474121094,40.70000076293945,65,55.79999923706055,56.400001525878906,66.5999984741211C73.30000305175781,57.5,63.20000076293945,52.099998474121094,74.5999984741211,40.20000076293945C79.80000305175781,34.70000076293945,86.5,33.70000076293945,90.69999694824219,30.5C95.9000015258789,48.400001525878906,125.9000015258789,61.20000076293945,130.8000030517578,55.70000076293945C116.0999984741211,54.900001525878906,126.4000015258789,28.200000762939453,112.4000015258789,17.299999237060547z"/>
<path id="HairBorder" d="M132.1999969482422,55C132,54.400001525878906,131.39999389648438,54,130.8000030517578,54C124.9000015258789,53.70000076293945,124,48.5,122.80000305175781,39.20000076293945C121.80000305175781,31,120.69999694824219,21.700000762939453,113.4000015258789,16C109.80000305175781,12.699999809265137,102.5,11.100000381469727,96.9000015258789,12.399999618530273C95.19999694824219,12.800000190734863,93.69999694824219,13.399999618530273,92.5,14.300000190734863C91.69999694824219,13.699999809265137,90.80000305175781,13.199999809265137,89.80000305175781,12.899999618530273C82.5,10.100000381469727,70.0999984741211,12.699999809265137,62,21.899999618530273C52.5,32.599998474121094,54.5,42.70000076293945,56.20000076293945,50.79999923706055C57.400001525878906,56.79999923706055,58.400001525878906,61.599998474121094,55.099998474121094,65.5999984741211C54.599998474121094,66.19999694824219,54.599998474121094,67.0999984741211,55.099998474121094,67.69999694824219C55.400001525878906,68.0999984741211,55.900001525878906,68.30000305175781,56.29999923706055,68.30000305175781C56.599998474121094,68.30000305175781,56.79999923706055,68.19999694824219,57.099998474121094,68.0999984741211C67.30000305175781,62.599998474121094,68.4000015258789,58.099998474121094,69.5,53.29999923706055C70.30000305175781,49.79999923706055,71.0999984741211,46.29999923706055,75.69999694824219,41.400001525878906C78.5999984741211,38.29999923706055,82.0999984741211,36.79999923706055,85.4000015258789,35.29999923706055C86.9000015258789,34.599998474121094,88.4000015258789,33.900001525878906,89.80000305175781,33.099998474121094L89.80000305175781,33.099998474121094C92.9000015258789,40.79999923706055,100,47.400001525878906,107.5,51.900001525878906C113.80000305175781,55.70000076293945,121.4000015258789,58.599998474121094,126.5999984741211,58.599998474121094C128.89999389648438,58.599998474121094,130.8000030517578,58,131.89999389648438,56.79999923706055C132.3000030517578,56.20000076293945,132.5,55.599998474121094,132.1999969482422,55zM91.9000015258789,14.800000190734863L91.80000305175781,14.899999618530273C91.80000305175781,14.899999618530273,91.9000015258789,14.899999618530273,91.9000015258789,14.800000190734863zM88.80000305175781,29.799999237060547C87.5,30.700000762939453,85.9000015258789,31.399999618530273,84,32.20000076293945C80.5999984741211,33.79999923706055,76.69999694824219,35.5,73.30000305175781,39C68.0999984741211,44.5,67.0999984741211,48.70000076293945,66.30000305175781,52.400001525878906C65.5,55.900001525878906,64.80000305175781,58.79999923706055,60.20000076293945,62.20000076293945C61,58.400001525878906,60.20000076293945,54.29999923706055,59.400001525878906,50C57.79999923706055,41.900001525878906,56.099998474121094,33.400001525878906,64.5,23.899999618530273C69.9000015258789,17.799999237060547,77.5,15,83.5999984741211,15C85.5,15,87.30000305175781,15.300000190734863,88.69999694824219,15.800000190734863C89.19999694824219,16,89.69999694824219,16.299999237060547,90.30000305175781,16.600000381469727C90,17,89.80000305175781,17.399999618530273,89.5999984741211,17.899999618530273L89.5999984741211,17.899999618530273C88,22.100000381469727,87.9000015258789,26,88.80000305175781,29.799999237060547L88.80000305175781,29.799999237060547zM109.19999694824219,49.099998474121094C98.19999694824219,42.400001525878906,88.0999984741211,31.100000381469727,92.5999984741211,19.299999237060547C93.4000015258789,17.100000381469727,95.80000305175781,16.100000381469727,97.5999984741211,15.699999809265137C102.30000305175781,14.600000381469727,108.4000015258789,15.899999618530273,111.19999694824219,18.600000381469727L111.30000305175781,18.700000762939453C117.5,23.5,118.5999984741211,32.20000076293945,119.5,39.70000076293945C120.19999694824219,45.79999923706055,121,52.099998474121094,124.80000305175781,55.20000076293945C121.0999984741211,54.70000076293945,115.4000015258789,52.79999923706055,109.19999694824219,49.099998474121094zM126.5999984741211,67.4000015258789C127,67.80000305175781,127.19999694824219,68.4000015258789,127.0999984741211,69C127,69.5999984741211,126.5,70,125.9000015258789,70.19999694824219C120.5999984741211,71.5999984741211,116.69999694824219,72.5,114.0999984741211,73C114.9000015258789,71.80000305175781,115.5999984741211,70.5,116.30000305175781,69.19999694824219C118.0999984741211,68.80000305175781,120.19999694824219,68.30000305175781,122.69999694824219,67.69999694824219C122.0999984741211,66.80000305175781,121.5999984741211,65.80000305175781,121.19999694824219,64.69999694824219C122,63.70000076293945,122.5999984741211,62.5,123,61.099998474121094C123.0999984741211,60.79999923706055,123.0999984741211,60.5,123.19999694824219,60.099998474121094C123.80000305175781,63,124.80000305175781,65.69999694824219,126.5999984741211,67.4000015258789z"/>
</g>
</svg>