<svg xmlns="http://www.w3.org/2000/svg" xmlns:xlink="http://www.w3.org/1999/xlink" viewBox= "0 0 174 398" width="174px" height="398px">
<g xmlns="http://www.w3.org/2000/svg" id="TeenBoy2V2.svg">
<path id="Shoe3" fill="#282828" d="M122.9000015258789,359.6000061035156C131.5,357.5,126.5,352.20001220703125,129.89999389648438,350.70001220703125C133.3000030517578,349.20001220703125,138.6999969482422,355.5,143.1999969482422,357.8999938964844C147.6999969482422,360.29998779296875,155.6999969482422,356.20001220703125,160.1999969482422,364C162.39999389648438,367.8999938964844,162.10000610351562,373.79998779296875,156.89999389648438,375.79998779296875C151.6999969482422,377.79998779296875,140.39999389648438,376.70001220703125,134.10000610351562,375.8999938964844C127.80000305175781,375.1000061035156,120.30000305175781,375.20001220703125,114.5999984741211,373.5C108.9000015258789,371.79998779296875,112.19999694824219,365.29998779296875,111.69999694824219,362C111.19999694824219,358.6000061035156,114.5,356.3999938964844,114.5,356.3999938964844S112.5999984741211,362.1000061035156,122.9000015258789,359.6000061035156zM60.70000076293945,353.20001220703125C56.5,353.20001220703125,56,356.20001220703125,52.900001525878906,359.5S47.400001525878906,368.6000061035156,42,370C36.599998474121094,371.3999938964844,34.599998474121094,379.8999938964844,38.79999923706055,383.1000061035156C43,386.29998779296875,53.400001525878906,387.70001220703125,61.69999694824219,382.20001220703125C70,376.70001220703125,77.9000015258789,368.1000061035156,77.30000305175781,364.20001220703125C76.69999694824219,360.29998779296875,75.0999984741211,354.29998779296875,73.19999694824219,354C71.30000305175781,353.70001220703125,72.5999984741211,358.20001220703125,70.19999694824219,358.1000061035156C67.9000015258789,357.8999938964844,65.5999984741211,353.20001220703125,60.70000076293945,353.20001220703125z"/>
<path id="Shoe2" fill="#FFFFFF" d="M156.89999389648438,375.79998779296875C152.8000030517578,377.3999938964844,144.6999969482422,377,138.39999389648438,376.3999938964844C142.8000030517578,370.79998779296875,146.60000610351562,362.79998779296875,147,358.70001220703125C151.39999389648438,358.8999938964844,156.8000030517578,358,160.1999969482422,363.8999938964844C162.39999389648438,367.8999938964844,162.10000610351562,373.79998779296875,156.89999389648438,375.79998779296875zM45.29999923706055,368.5C44.20000076293945,369.20001220703125,43.099998474121094,369.70001220703125,41.900001525878906,370C36.5,371.3999938964844,34.5,379.8999938964844,38.70000076293945,383.1000061035156C42.900001525878906,386.29998779296875,53.29999923706055,387.70001220703125,61.599998474121094,382.20001220703125C61.69999694824219,382.1000061035156,61.900001525878906,382,62,381.8999938964844C60.70000076293945,379.3999938964844,58.79999923706055,375.79998779296875,56.400001525878906,372.6000061035156C54.099998474121094,369.29998779296875,49.70000076293945,368.29998779296875,45.29999923706055,368.5z"/>
<path id="Shoe1" fill="#FFFFFF" d="M161.10000610351562,366.20001220703125C162.10000610351562,369.79998779296875,161.1999969482422,374.1000061035156,156.89999389648438,375.79998779296875C151.6999969482422,377.79998779296875,140.39999389648438,376.70001220703125,134.10000610351562,375.8999938964844C127.80000305175781,375.1000061035156,120.30000305175781,375.20001220703125,114.5999984741211,373.5C111.4000015258789,372.6000061035156,111,370.1000061035156,111.19999694824219,367.6000061035156C120.0999984741211,369.8999938964844,137.8000030517578,371.6000061035156,146.39999389648438,371.3999938964844C154.6999969482422,371.1000061035156,158.5,369.5,161.10000610351562,366.20001220703125zM76.80000305175781,361.5C71.30000305175781,369.6000061035156,60.099998474121094,380.8999938964844,51.29999923706055,381.1000061035156C44.70000076293945,381.20001220703125,38.900001525878906,378.6000061035156,36.900001525878906,375.5C36.099998474121094,378.29998779296875,36.599998474121094,381.5,38.79999923706055,383.20001220703125C43,386.3999938964844,53.400001525878906,387.79998779296875,61.69999694824219,382.29998779296875C70,376.79998779296875,77.9000015258789,368.20001220703125,77.30000305175781,364.29998779296875C77.0999984741211,363.29998779296875,77,362.3999938964844,76.80000305175781,361.5z"/>
<path id="ShoesBorder" fill="#2D2D2D" d="M78.9000015258789,363.8999938964844C78.19999694824219,359.79998779296875,76.69999694824219,352.8999938964844,73.5,352.3999938964844C73.30000305175781,352.3999938964844,73.19999694824219,352.3999938964844,73.0999984741211,352.3999938964844C71,352.3999938964844,70.5999984741211,354.5,70.4000015258789,355.5C70.30000305175781,355.79998779296875,70.30000305175781,356.1000061035156,70.19999694824219,356.3999938964844C69.69999694824219,356.20001220703125,69,355.6000061035156,68.4000015258789,355.1000061035156C66.69999694824219,353.6000061035156,64.30000305175781,351.6000061035156,60.79999923706055,351.6000061035156C57,351.6000061035156,55.5,353.6000061035156,53.900001525878906,355.79998779296875C53.29999923706055,356.6000061035156,52.70000076293945,357.5,51.79999923706055,358.3999938964844C50.79999923706055,359.3999938964844,49.900001525878906,360.70001220703125,49,362C47,364.79998779296875,44.900001525878906,367.70001220703125,41.70000076293945,368.5C38.5,369.3999938964844,36,372.29998779296875,35.29999923706055,376C34.599998474121094,379.3999938964844,35.70000076293945,382.70001220703125,38,384.5C40.599998474121094,386.5,44.79999923706055,387.6000061035156,49.29999923706055,387.6000061035156C52.70000076293945,387.6000061035156,57.900001525878906,386.8999938964844,62.900001525878906,383.6000061035156C69.69999694824219,378.8999938964844,79.80000305175781,369.3999938964844,78.9000015258789,363.8999938964844zM61.19999694824219,381.3999938964844C56.79999923706055,384.29998779296875,52.20000076293945,385,49.099998474121094,385L49.099998474121094,385C45.20000076293945,385,41.5,384,39.400001525878906,382.3999938964844C38.099998474121094,381.3999938964844,37.5,379.70001220703125,37.5,377.79998779296875C40.400001525878906,380.3999938964844,45.599998474121094,382.20001220703125,50.900001525878906,382.20001220703125L51.29999923706055,382.20001220703125C60,382.1000061035156,70.4000015258789,371.8999938964844,76.19999694824219,364.1000061035156C76.19999694824219,364.20001220703125,76.19999694824219,364.3999938964844,76.30000305175781,364.5C76.80000305175781,367.6000061035156,69.5,375.8999938964844,61.19999694824219,381.3999938964844zM48.5,367.6000061035156C49.599998474121094,366.3999938964844,50.599998474121094,365.1000061035156,51.5,363.79998779296875C52.400001525878906,362.6000061035156,53.20000076293945,361.5,54,360.6000061035156C55,359.6000061035156,55.70000076293945,358.6000061035156,56.29999923706055,357.70001220703125C57.79999923706055,355.70001220703125,58.400001525878906,354.79998779296875,60.599998474121094,354.79998779296875C62.900001525878906,354.79998779296875,64.5,356.20001220703125,66.0999984741211,357.5C67.4000015258789,358.6000061035156,68.5,359.6000061035156,70,359.70001220703125C70.0999984741211,359.70001220703125,70.19999694824219,359.70001220703125,70.19999694824219,359.70001220703125C72.4000015258789,359.70001220703125,73,357.70001220703125,73.30000305175781,356.5C73.80000305175781,357.6000061035156,74.5,359.5,75.0999984741211,362C71.69999694824219,366.79998779296875,66,372.8999938964844,60.29999923706055,376.70001220703125C59.400001525878906,375.20001220703125,58.400001525878906,373.6000061035156,57.29999923706055,372.1000061035156C55.5,369.5,52.400001525878906,368,48.5,367.6000061035156L48.5,367.6000061035156zM58.70000076293945,377.70001220703125C58.099998474121094,378,57.5,378.29998779296875,57,378.6000061035156C57,378.6000061035156,56.900001525878906,378.6000061035156,56.900001525878906,378.70001220703125C56.599998474121094,378.79998779296875,56.29999923706055,379,55.900001525878906,379.1000061035156C55.79999923706055,379.1000061035156,55.79999923706055,379.1000061035156,55.70000076293945,379.20001220703125C55,379.5,54.29999923706055,379.70001220703125,53.599998474121094,379.79998779296875C53.5,379.79998779296875,53.400001525878906,379.79998779296875,53.29999923706055,379.8999938964844C53,380,52.79999923706055,380,52.5,380C52.400001525878906,380,52.29999923706055,380,52.20000076293945,380C51.900001525878906,380,51.5,380.1000061035156,51.20000076293945,380.1000061035156L50.900001525878906,380.1000061035156C44.70000076293945,380.1000061035156,39.79999923706055,377.79998779296875,37.900001525878906,375.29998779296875L37.900001525878906,375.29998779296875C38.70000076293945,373.1000061035156,40.20000076293945,371.5,42.099998474121094,371C43.20000076293945,370.70001220703125,44.29999923706055,370.20001220703125,45.5,369.5C45.70000076293945,369.5,45.900001525878906,369.5,46.20000076293945,369.5C49.20000076293945,369.5,53.400001525878906,370.1000061035156,55.70000076293945,373.20001220703125C56.79999923706055,374.70001220703125,57.79999923706055,376.20001220703125,58.70000076293945,377.70001220703125L58.70000076293945,377.70001220703125zM161.60000610351562,363.20001220703125C158.3000030517578,357.29998779296875,153.1999969482422,357.29998779296875,149,357.20001220703125C147,357.20001220703125,145.1999969482422,357.1000061035156,143.89999389648438,356.5C142.5,355.70001220703125,140.89999389648438,354.5,139.3000030517578,353.29998779296875C136.39999389648438,351,133.60000610351562,348.8999938964844,130.89999389648438,348.8999938964844C130.3000030517578,348.8999938964844,129.6999969482422,349,129.10000610351562,349.29998779296875C126.89999389648438,350.29998779296875,126.80000305175781,352.29998779296875,126.69999694824219,353.70001220703125C126.60000610351562,355.6000061035156,126.5,357.1000061035156,122.4000015258789,358.1000061035156C119.0999984741211,358.8999938964844,116.5999984741211,358.8999938964844,116,358.1000061035156C115.80000305175781,357.79998779296875,115.80000305175781,357.20001220703125,115.9000015258789,357.1000061035156C116.0999984741211,356.3999938964844,115.9000015258789,355.70001220703125,115.30000305175781,355.29998779296875C114.69999694824219,354.8999938964844,114,354.8999938964844,113.4000015258789,355.20001220703125C113.19999694824219,355.29998779296875,109.30000305175781,358,109.9000015258789,362.29998779296875C110,363,109.80000305175781,364.1000061035156,109.69999694824219,365.29998779296875C109.19999694824219,368.6000061035156,108.5,373.5,114,375.1000061035156C118,376.29998779296875,122.80000305175781,376.70001220703125,127.39999389648438,377C129.60000610351562,377.20001220703125,131.6999969482422,377.29998779296875,133.8000030517578,377.6000061035156C139.39999389648438,378.29998779296875,144,378.6000061035156,147.89999389648438,378.6000061035156C152.1999969482422,378.6000061035156,155.3000030517578,378.20001220703125,157.5,377.29998779296875C159.89999389648438,376.29998779296875,161.6999969482422,374.6000061035156,162.5,372.20001220703125C163.5,369.3999938964844,163.1999969482422,366,161.60000610351562,363.20001220703125zM156.5,374.8999938964844C154.6999969482422,375.6000061035156,151.8000030517578,376,147.89999389648438,376C144.1999969482422,376,139.6999969482422,375.70001220703125,134.1999969482422,375C132.10000610351562,374.70001220703125,129.89999389648438,374.6000061035156,127.69999694824219,374.3999938964844C123.19999694824219,374.1000061035156,118.5999984741211,373.70001220703125,114.9000015258789,372.6000061035156C113.0999984741211,372.1000061035156,112.30000305175781,371,112.19999694824219,368.8999938964844C121,370.8999938964844,136.39999389648438,372.3999938964844,144.89999389648438,372.3999938964844C145.5,372.3999938964844,146,372.3999938964844,146.5,372.3999938964844C153.39999389648438,372.20001220703125,157.5,371.1000061035156,160.5,368.3999938964844C160.60000610351562,371,159.5,373.70001220703125,156.5,374.8999938964844zM143.60000610351562,370.3999938964844C145.6999969482422,366.6000061035156,147.39999389648438,362.6000061035156,147.89999389648438,359.79998779296875C148.3000030517578,359.79998779296875,148.60000610351562,359.79998779296875,149,359.79998779296875C152.8000030517578,359.8999938964844,156.6999969482422,359.8999938964844,159.3000030517578,364.5C159.60000610351562,365,159.8000030517578,365.5,160,366L160,366C157.89999389648438,368.5,154.60000610351562,370.20001220703125,146.5,370.3999938964844C146,370.3999938964844,145.5,370.3999938964844,144.89999389648438,370.3999938964844C144.39999389648438,370.3999938964844,144,370.3999938964844,143.60000610351562,370.3999938964844L143.60000610351562,370.3999938964844zM112.9000015258789,367C112.9000015258789,366.6000061035156,113,366.20001220703125,113.0999984741211,365.70001220703125C113.30000305175781,364.29998779296875,113.5,363,113.30000305175781,361.79998779296875C113.19999694824219,361.20001220703125,113.30000305175781,360.6000061035156,113.5,360C115,362,118.19999694824219,362.3999938964844,123.19999694824219,361.1000061035156C129.6999969482422,359.5,129.89999389648438,355.8999938964844,130,353.70001220703125C130.10000610351562,352.29998779296875,130.1999969482422,352.20001220703125,130.5,352.1000061035156C130.60000610351562,352,130.8000030517578,352,131,352C132.5,352,135.10000610351562,354,137.39999389648438,355.79998779296875C139.10000610351562,357.1000061035156,140.8000030517578,358.3999938964844,142.5,359.29998779296875C143.5,359.79998779296875,144.60000610351562,360.1000061035156,145.6999969482422,360.20001220703125L145.6999969482422,360.20001220703125C145,362.79998779296875,143.5,366.6000061035156,141.3000030517578,370.20001220703125C132.8000030517578,370,120.5,368.70001220703125,112.9000015258789,367L112.9000015258789,367z"/>
<path id="Laces" fill="#FFFFFF" d="M135.39999389648438,354.70001220703125L138.39999389648438,354.20001220703125C138.6999969482422,354.1000061035156,139,354.20001220703125,139.1999969482422,354.3999938964844C139.39999389648438,354.6000061035156,139.5,354.8999938964844,139.5,355.20001220703125L139.1999969482422,359.1000061035156L142.60000610351562,357.70001220703125C143.10000610351562,357.5,143.6999969482422,357.70001220703125,143.89999389648438,358.20001220703125C144.10000610351562,358.70001220703125,143.89999389648438,359.29998779296875,143.39999389648438,359.5L138.5,361.5C138.39999389648438,361.5,138.3000030517578,361.6000061035156,138.10000610351562,361.6000061035156C137.89999389648438,361.6000061035156,137.6999969482422,361.5,137.5,361.3999938964844C137.1999969482422,361.20001220703125,137.10000610351562,360.8999938964844,137.10000610351562,360.5L137.5,356.20001220703125L135.6999969482422,356.5L135.89999389648438,358.3999938964844C136,358.8999938964844,135.60000610351562,359.3999938964844,135,359.5L134.89999389648438,359.5C134.39999389648438,359.5,134,359.1000061035156,133.89999389648438,358.6000061035156L133.6999969482422,356.79998779296875L133.6999969482422,356.79998779296875L132.5,357C132,357.1000061035156,131.39999389648438,356.70001220703125,131.3000030517578,356.20001220703125C131.1999969482422,355.70001220703125,131.60000610351562,355.1000061035156,132.10000610351562,355L133.39999389648438,354.79998779296875L133.10000610351562,352.5C133,352,133.39999389648438,351.5,134,351.3999938964844C134.60000610351562,351.29998779296875,135.10000610351562,351.70001220703125,135.10000610351562,352.29998779296875L135.39999389648438,354.70001220703125zM55.099998474121094,359.20001220703125L58.400001525878906,359.6000061035156L57.79999923706055,358.8999938964844L57.79999923706055,358.8999938964844L55.099998474121094,359.20001220703125zM52.599998474121094,358.3999938964844C52.5,357.8999938964844,52.900001525878906,357.3999938964844,53.5,357.29998779296875L56.20000076293945,357L56.20000076293945,357L55.79999923706055,356.5C55.5,356.1000061035156,55.5,355.3999938964844,55.900001525878906,355.1000061035156C56.29999923706055,354.70001220703125,57,354.79998779296875,57.29999923706055,355.20001220703125L58.5,356.70001220703125L58.5,356.70001220703125L62.599998474121094,356.29998779296875C63.19999694824219,356.29998779296875,63.599998474121094,356.6000061035156,63.69999694824219,357.20001220703125C63.80000305175781,357.70001220703125,63.400001525878906,358.20001220703125,62.80000305175781,358.29998779296875L60,358.6000061035156L61.30000305175781,360.20001220703125C61.599998474121094,360.5,61.599998474121094,361,61.400001525878906,361.29998779296875C61.19999694824219,361.70001220703125,60.79999923706055,361.8999938964844,60.400001525878906,361.79998779296875L54.400001525878906,361L57.400001525878906,365.29998779296875C57.599998474121094,365.6000061035156,57.599998474121094,366.1000061035156,57.400001525878906,366.3999938964844C57.20000076293945,366.70001220703125,56.900001525878906,366.8999938964844,56.5,366.8999938964844L56.400001525878906,366.8999938964844L48.900001525878906,365.8999938964844C48.400001525878906,365.79998779296875,48,365.29998779296875,48,364.79998779296875C48.099998474121094,364.29998779296875,48.599998474121094,363.8999938964844,49.099998474121094,363.8999938964844L54.29999923706055,364.6000061035156L51.29999923706055,360.29998779296875C51.099998474121094,360,51.099998474121094,359.5,51.29999923706055,359.20001220703125C51.5,358.8999938964844,51.900001525878906,358.70001220703125,52.29999923706055,358.70001220703125L52.599998474121094,358.70001220703125"/>
<path id="Pants" fill="#253C6B" d="M41.79999923706055,219.6999969482422C42.099998474121094,227.6999969482422,42.099998474121094,246.10000610351562,43.70000076293945,249.3000030517578C45.29999923706055,252.5,51,264.6000061035156,50.099998474121094,269.29998779296875C49.099998474121094,274.1000061035156,48.79999923706055,315.1000061035156,49.099998474121094,318.6000061035156C49.400001525878906,322.1000061035156,51.599998474121094,334.5,51,339.29998779296875C50.400001525878906,344.1000061035156,49.099998474121094,362.20001220703125,49.099998474121094,362.20001220703125C49.099998474121094,362.20001220703125,55.79999923706055,352.29998779296875,63.400001525878906,353.6000061035156C71,354.8999938964844,79.5999984741211,366.6000061035156,81.5,367C83.4000015258789,367.29998779296875,88.80000305175781,363.79998779296875,89.80000305175781,360L90.80000305175781,356.20001220703125C90.80000305175781,356.20001220703125,81.30000305175781,349.5,81.9000015258789,347.6000061035156C82.5,345.70001220703125,83.19999694824219,314.79998779296875,81.30000305175781,303.70001220703125C79.4000015258789,292.6000061035156,77.19999694824219,284.8999938964844,77.80000305175781,280.20001220703125C78.4000015258789,275.3999938964844,79.69999694824219,263.70001220703125,79.69999694824219,258.8999938964844C79.69999694824219,254.10000610351562,79.69999694824219,247.10000610351562,80.69999694824219,247.39999389648438C81.69999694824219,247.6999969482422,85.5,255.39999389648438,86.69999694824219,259.20001220703125C88,263,92.69999694824219,292,97.5,303.3999938964844C102.30000305175781,314.8999938964844,102.69999694824219,338.1000061035156,103,343.5C103.30000305175781,348.8999938964844,108.0999984741211,351.1000061035156,108.69999694824219,353.3999938964844C109.30000305175781,355.6000061035156,106.30000305175781,367.70001220703125,107.9000015258789,369.29998779296875C109.5,370.8999938964844,116.5,362,122.9000015258789,359.1000061035156C129.3000030517578,356.20001220703125,140.10000610351562,354.6000061035156,142.3000030517578,355.6000061035156C144.5,356.6000061035156,128.3000030517578,319,127.30000305175781,310.70001220703125C126.30000305175781,302.3999938964844,128.60000610351562,286.20001220703125,127,279.20001220703125C125.39999389648438,272.20001220703125,120.30000305175781,251.8000030517578,120.30000305175781,247.6999969482422C120.30000305175781,243.60000610351562,116.5,214.60000610351562,113,212.6999969482422S41.79999923706055,219.6999969482422,41.79999923706055,219.6999969482422z"/>
<path id="PantsBorder" d="M108.4000015258789,371.1000061035156C107.80000305175781,371.1000061035156,107.19999694824219,370.8999938964844,106.80000305175781,370.3999938964844C105.4000015258789,369,105.69999694824219,366.1000061035156,106.5999984741211,359.6000061035156C106.9000015258789,357.3999938964844,107.30000305175781,354.3999938964844,107.19999694824219,353.79998779296875C107.0999984741211,353.3999938964844,106.4000015258789,352.6000061035156,105.69999694824219,352C104,350.20001220703125,101.5999984741211,347.70001220703125,101.4000015258789,343.6000061035156C101.4000015258789,342.8999938964844,101.30000305175781,342,101.30000305175781,340.79998779296875C100.9000015258789,332.70001220703125,100.0999984741211,313.79998779296875,96.0999984741211,304C92.69999694824219,296,89.5,279.79998779296875,87.30000305175781,269C86.4000015258789,264.6000061035156,85.5999984741211,260.70001220703125,85.30000305175781,259.6000061035156C84.5,257.20001220703125,82.9000015258789,253.6999969482422,81.5999984741211,251.3000030517578C81.5,253.6999969482422,81.5,256.79998779296875,81.5,258.70001220703125C81.5,263.79998779296875,80.0999984741211,276,79.5999984741211,280.20001220703125C79.19999694824219,283.20001220703125,80.0999984741211,288,81.30000305175781,293.8999938964844C81.9000015258789,296.70001220703125,82.5,299.79998779296875,83.0999984741211,303.20001220703125C84.80000305175781,313.3999938964844,84.5999984741211,343.20001220703125,83.80000305175781,347.5C84.4000015258789,348.6000061035156,88,351.79998779296875,92,354.6000061035156C92.5999984741211,355,92.80000305175781,355.70001220703125,92.5999984741211,356.29998779296875L91.5999984741211,360.1000061035156C90.5,364.5,84.80000305175781,368.3999938964844,82,368.3999938964844C81.80000305175781,368.3999938964844,81.5999984741211,368.3999938964844,81.5,368.3999938964844C80.4000015258789,368.20001220703125,79.30000305175781,367.20001220703125,76.80000305175781,364.6000061035156C73.30000305175781,361.1000061035156,68,355.79998779296875,63.400001525878906,355C63,354.8999938964844,62.69999694824219,354.8999938964844,62.30000305175781,354.8999938964844C56.20000076293945,354.8999938964844,50.79999923706055,362.79998779296875,50.70000076293945,362.8999938964844C50.29999923706055,363.5,49.5,363.79998779296875,48.79999923706055,363.5C48.099998474121094,363.29998779296875,47.70000076293945,362.6000061035156,47.70000076293945,361.8999938964844C47.79999923706055,361.20001220703125,49,343.70001220703125,49.599998474121094,338.8999938964844C50,335.6000061035156,49,328.1000061035156,48.29999923706055,323.1000061035156C48,321.1000061035156,47.79999923706055,319.6000061035156,47.70000076293945,318.6000061035156C47.400001525878906,315.3999938964844,47.70000076293945,273.8999938964844,48.70000076293945,268.79998779296875C49.29999923706055,265.6000061035156,45.900001525878906,256.70001220703125,42.5,249.8000030517578C41.20000076293945,247.1999969482422,40.900001525878906,238,40.599998474121094,226.1999969482422C40.5,223.60000610351562,40.5,221.3000030517578,40.400001525878906,219.5C40.400001525878906,218.6999969482422,41,217.89999389648438,41.79999923706055,217.8000030517578C44.099998474121094,217.5,97.30000305175781,210.5,110.5999984741211,210.5C112.80000305175781,210.5,113.5999984741211,210.6999969482422,114.0999984741211,211C119,213.6999969482422,122.19999694824219,246,122.19999694824219,247.39999389648438C122.19999694824219,250.5,125.5,264.29998779296875,127.39999389648438,272.6000061035156C128,275,128.5,277,128.8000030517578,278.5C129.6999969482422,282.5,129.39999389648438,289,129.1999969482422,295.8999938964844C129,301.20001220703125,128.8000030517578,306.6000061035156,129.1999969482422,310.20001220703125C129.6999969482422,314.29998779296875,134.39999389648438,326.79998779296875,138.1999969482422,336.8999938964844C144.5,353.70001220703125,144.8000030517578,354.8999938964844,144,356.20001220703125C143.6999969482422,356.6000061035156,143.10000610351562,356.8999938964844,142.60000610351562,356.8999938964844L142.60000610351562,356.8999938964844C142.39999389648438,356.8999938964844,142.10000610351562,356.8999938964844,141.89999389648438,356.79998779296875C141.89999389648438,356.79998779296875,141.5,356.70001220703125,140.3000030517578,356.70001220703125C136.3000030517578,356.70001220703125,128.5,358.20001220703125,123.80000305175781,360.29998779296875C120.9000015258789,361.6000061035156,117.69999694824219,364.3999938964844,115.19999694824219,366.6000061035156C111.69999694824219,369.70001220703125,110,371.1000061035156,108.4000015258789,371.1000061035156zM80.5999984741211,245.8000030517578C80.80000305175781,245.8000030517578,81,245.8000030517578,81.19999694824219,245.89999389648438C83.5999984741211,246.6999969482422,88,257.70001220703125,88.30000305175781,258.70001220703125C88.69999694824219,260,89.4000015258789,263.5,90.4000015258789,268.5C92.5999984741211,279.1000061035156,95.80000305175781,295.1000061035156,99,302.8999938964844C103.30000305175781,313.20001220703125,104.0999984741211,332.5,104.5,340.79998779296875C104.5,341.8999938964844,104.5999984741211,342.8999938964844,104.5999984741211,343.5C104.80000305175781,346.3999938964844,106.5,348.20001220703125,108,349.79998779296875C109,350.8999938964844,109.9000015258789,351.79998779296875,110.19999694824219,353C110.5,354.20001220703125,110.30000305175781,356.3999938964844,109.69999694824219,360.20001220703125C109.4000015258789,362.3999938964844,108.9000015258789,365.79998779296875,109,367.6000061035156C110,366.8999938964844,111.5,365.6000061035156,112.69999694824219,364.6000061035156C115.4000015258789,362.20001220703125,118.80000305175781,359.29998779296875,122.0999984741211,357.79998779296875C127.5,355.3999938964844,136.10000610351562,353.79998779296875,140.39999389648438,353.8999938964844C139.5,350.79998779296875,137,344.3999938964844,134.8000030517578,338.6000061035156C130.6999969482422,327.79998779296875,126.10000610351562,315.6000061035156,125.60000610351562,311.1000061035156C125.19999694824219,307.20001220703125,125.39999389648438,301.70001220703125,125.60000610351562,296.29998779296875C125.89999389648438,290,126.10000610351562,283.3999938964844,125.30000305175781,279.79998779296875C125,278.29998779296875,124.5,276.29998779296875,123.9000015258789,273.8999938964844C121.0999984741211,262,118.5999984741211,251.10000610351562,118.5999984741211,247.89999389648438C118.5999984741211,242.8000030517578,114.80000305175781,217,112.19999694824219,214.39999389648438C112,214.39999389648438,111.5,214.3000030517578,110.30000305175781,214.3000030517578C98.5,214.3000030517578,52.29999923706055,220.1999969482422,43.400001525878906,221.39999389648438C43.400001525878906,222.89999389648438,43.5,224.6999969482422,43.5,226.60000610351562C43.70000076293945,234.10000610351562,44,246.6999969482422,45,248.8000030517578C46.79999923706055,252.39999389648438,52.599998474121094,264.5,51.5,269.8999938964844C50.599998474121094,274.20001220703125,50.20000076293945,314.70001220703125,50.599998474121094,318.79998779296875C50.70000076293945,319.70001220703125,50.900001525878906,321.29998779296875,51.20000076293945,323.1000061035156C52,328.6000061035156,53,336.1000061035156,52.5,339.79998779296875C52.099998474121094,342.8999938964844,51.400001525878906,351.8999938964844,51,357.70001220703125C53.599998474121094,355.1000061035156,57.5,352.20001220703125,62,352.20001220703125C62.599998474121094,352.20001220703125,63.099998474121094,352.20001220703125,63.599998474121094,352.29998779296875C69.19999694824219,353.20001220703125,75,359,78.80000305175781,362.79998779296875C79.9000015258789,363.8999938964844,81.30000305175781,365.29998779296875,81.9000015258789,365.70001220703125C83.30000305175781,365.6000061035156,87.5,362.79998779296875,88.19999694824219,359.8999938964844L88.9000015258789,357.20001220703125C79.30000305175781,350.29998779296875,80,348.20001220703125,80.30000305175781,347.3999938964844C80.9000015258789,345,81.5,315.20001220703125,79.5999984741211,304.29998779296875C79,300.8999938964844,78.4000015258789,297.79998779296875,77.9000015258789,295.1000061035156C76.5999984741211,288.6000061035156,75.69999694824219,283.8999938964844,76.0999984741211,280.29998779296875C76.80000305175781,275.29998779296875,78,263.70001220703125,78,259.20001220703125C78,256.8999938964844,78,254,78.0999984741211,251.60000610351562C78.30000305175781,248.60000610351562,78.4000015258789,245.8000030517578,80.5999984741211,245.8000030517578z"/>
<path id="Body" fill="#955D31" d="M128.5,213.5C128.60000610351562,217.5,131.10000610351562,224.89999389648438,131.5,226.89999389648438C131.89999389648438,228.89999389648438,130.39999389648438,245.60000610351562,127.69999694824219,248.89999389648438C125,252.1999969482422,120.69999694824219,255.3000030517578,118.0999984741211,254.6999969482422C115.5,254.10000610351562,113.4000015258789,249.39999389648438,113.80000305175781,247.3000030517578C114.19999694824219,245.1999969482422,117.80000305175781,230.39999389648438,117.5999984741211,229.89999389648438C117.4000015258789,229.5,113.0999984741211,235.6999969482422,109.5999984741211,233.8000030517578C105.5,231.60000610351562,117.69999694824219,219.1999969482422,117.69999694824219,219.1999969482422L118.80000305175781,213L128.5,213.5zM32.70000076293945,243.8000030517578C32.599998474121094,242.10000610351562,33.70000076293945,239.5,33.79999923706055,237C33.79999923706055,236.3000030517578,32.900001525878906,243,36.900001525878906,242.60000610351562C40.599998474121094,237.1999969482422,34,228.3000030517578,33.29999923706055,226.89999389648438C31.900001525878906,224.3000030517578,29.700000762939453,222.6999969482422,29.299999237060547,218.1999969482422C29.099998474121094,215.8000030517578,30.700000762939453,202.10000610351562,34,189.6999969482422C36.900001525878906,178.8000030517578,40.79999923706055,172.3000030517578,41.099998474121094,169.89999389648438C41.70000076293945,164.8000030517578,24.299999237060547,160.3000030517578,24.299999237060547,160.3000030517578C24.299999237060547,162.1999969482422,19.399999618530273,175.10000610351562,17.899999618530273,183.39999389648438C16.399999618530273,191.6999969482422,18.299999237060547,216.89999389648438,18.600000381469727,218.3000030517578C18.899999618530273,219.6999969482422,19.799999237060547,221.60000610351562,18.899999618530273,223.6999969482422C17.600000381469727,227.1999969482422,17,241,17.600000381469727,242.89999389648438C18.200000762939453,244.8000030517578,22.299999237060547,253.8000030517578,31.700000762939453,253.5C40.79999923706055,253,32.70000076293945,243.8000030517578,32.70000076293945,243.8000030517578zM80.30000305175781,82.69999694824219C85.5999984741211,79.19999694824219,90.30000305175781,73.5999984741211,93.30000305175781,66.9000015258789L91.4000015258789,65.9000015258789C91.80000305175781,66.4000015258789,92.4000015258789,66.69999694824219,93,66.9000015258789C95.4000015258789,67.5999984741211,98.0999984741211,65.19999694824219,99.0999984741211,61.599998474121094C100.0999984741211,58,98.9000015258789,54.599998474121094,96.5,53.900001525878906C95.5999984741211,53.70000076293945,94.5999984741211,53.79999923706055,93.69999694824219,54.400001525878906L96.5,53.900001525878906C96.5,53.29999923706055,96.5,52.70000076293945,96.5,52.20000076293945C96.5,49.5,96.19999694824219,38.900001525878906,95.69999694824219,36.70000076293945C92.80000305175781,24,82,18.5,69.19999694824219,18.5S45.599998474121094,24,42.70000076293945,36.79999923706055C42.20000076293945,39,41.900001525878906,49.599998474121094,41.900001525878906,52.20000076293945C41.900001525878906,52.79999923706055,41.900001525878906,53.400001525878906,41.900001525878906,53.900001525878906L44.70000076293945,54.400001525878906C43.79999923706055,53.900001525878906,42.79999923706055,53.70000076293945,41.900001525878906,53.900001525878906C39.5,54.599998474121094,38.400001525878906,58,39.29999923706055,61.599998474121094C40.29999923706055,65.19999694824219,43,67.5999984741211,45.400001525878906,66.9000015258789C46,66.69999694824219,46.5,66.4000015258789,46.900001525878906,65.9000015258789L45.400001525878906,67C48.400001525878906,73.5,53,79.0999984741211,58.099998474121094,82.5L58.099998474121094,82.5C58.5,85.19999694824219,58.400001525878906,87.69999694824219,56.29999923706055,90.5999984741211C53.20000076293945,94.69999694824219,50.400001525878906,95.5999984741211,46.599998474121094,95.80000305175781C42.79999923706055,96,48.20000076293945,110.80000305175781,69.19999694824219,110.80000305175781S96,100.5,93.69999694824219,100.5C91.4000015258789,100.5,84.69999694824219,97.80000305175781,82.19999694824219,91C81,87.4000015258789,80.5,84.80000305175781,80.30000305175781,82.69999694824219L80.30000305175781,82.69999694824219z"/>
<path id="Undershirt" fill="#474747" d="M54.20000076293945,102.4000015258789C61,104.9000015258789,81.69999694824219,103.5999984741211,86.69999694824219,101.19999694824219C91.69999694824219,98.80000305175781,74.19999694824219,132.39999389648438,74.19999694824219,132.39999389648438L54.20000076293945,102.4000015258789z"/>
<path id="UndershirtBorder" fill="#232323" d="M74.19999694824219,134C73.69999694824219,134,73.0999984741211,133.6999969482422,72.80000305175781,133.3000030517578L52.79999923706055,103.30000305175781C52.400001525878906,102.69999694824219,52.400001525878906,101.9000015258789,52.900001525878906,101.4000015258789C53.29999923706055,100.80000305175781,54.099998474121094,100.5999984741211,54.70000076293945,100.9000015258789C56.900001525878906,101.69999694824219,61.099998474121094,102.19999694824219,66.30000305175781,102.19999694824219C74.4000015258789,102.19999694824219,83.19999694824219,101.0999984741211,85.9000015258789,99.80000305175781C87.0999984741211,99.19999694824219,88.19999694824219,99.5,88.80000305175781,100.5C89.30000305175781,101.30000305175781,90.80000305175781,103.80000305175781,75.5999984741211,133.3000030517578C75.4000015258789,133.6999969482422,74.9000015258789,134,74.19999694824219,134C74.30000305175781,134,74.19999694824219,134,74.19999694824219,134zM57.79999923706055,104.9000015258789L74,129.1999969482422C79.4000015258789,118.69999694824219,84.5,107.5999984741211,85.69999694824219,103.30000305175781C81.19999694824219,104.69999694824219,72.9000015258789,105.4000015258789,66.4000015258789,105.4000015258789C63.80000305175781,105.4000015258789,60.599998474121094,105.30000305175781,57.79999923706055,104.9000015258789z"/>
<path id="Jacket" fill="#9CE57A" d="M34.70000076293945,105C26.399999618530273,110.9000015258789,18.399999618530273,117.30000305175781,18.600000381469727,120.19999694824219C18.899999618530273,125.9000015258789,19.200000762939453,139.3000030517578,19.200000762939453,143.39999389648438C19.200000762939453,147.5,15.100000381469727,166.89999389648438,15.700000762939453,172.39999389648438C16.299999237060547,177.89999389648438,16.700000762939453,199.10000610351562,16,201C15.399999618530273,202.89999389648438,12.5,208.60000610351562,12.5,211.8000030517578C12.5,215,16.600000381469727,214.3000030517578,17,218.1999969482422C17.399999618530273,222.10000610351562,22.399999618530273,216.3000030517578,25,217.89999389648438C27.5,219.5,29.5,221.39999389648438,29.5,221.39999389648438L31.400001525878906,210.60000610351562C31.400001525878906,210.60000610351562,37.79999923706055,212.1999969482422,38.099998474121094,210.3000030517578C38.400001525878906,208.39999389648438,35.20000076293945,191.8000030517578,36.20000076293945,188.6999969482422C37.20000076293945,185.5,38.70000076293945,181.39999389648438,38.70000076293945,181.39999389648438C38.70000076293945,181.39999389648438,41.599998474121094,190.60000610351562,41.599998474121094,194.10000610351562C41.599998474121094,197.60000610351562,40.29999923706055,205.1999969482422,41.900001525878906,208.6999969482422C43.5,212.1999969482422,39,218.60000610351562,39,218.60000610351562C39,218.60000610351562,69.5,229.10000610351562,78.5,226.60000610351562C87.4000015258789,224.10000610351562,113.19999694824219,215.5,113.19999694824219,215.5L111.5999984741211,198.3000030517578L118.5999984741211,211L117.30000305175781,218.60000610351562C117.30000305175781,218.60000610351562,123,216.6999969482422,125.30000305175781,218.3000030517578C127.5,219.89999389648438,130.6999969482422,223.10000610351562,130.6999969482422,223.10000610351562L131,212.3000030517578C131,212.3000030517578,133.89999389648438,214.5,134.5,213.3000030517578C135.10000610351562,212.10000610351562,126.5,172.89999389648438,125.30000305175781,156C124,139.10000610351562,115.80000305175781,109.9000015258789,113.19999694824219,107.30000305175781C112.5999984741211,106.69999694824219,111,105.5,108.69999694824219,104L108.69999694824219,104C110,103.5,110.80000305175781,102.80000305175781,110.69999694824219,102.19999694824219C110.4000015258789,100.30000305175781,102.4000015258789,99,99.5999984741211,97.69999694824219C96.69999694824219,96.4000015258789,96.0999984741211,92.9000015258789,93.9000015258789,91C91.69999694824219,89.0999984741211,88.19999694824219,89.0999984741211,85.5999984741211,91.5999984741211C85.5999984741211,91.5999984741211,86.19999694824219,97,85,99.9000015258789C83.69999694824219,102.80000305175781,77.4000015258789,104.69999694824219,75.5,106.30000305175781C73.80000305175781,107.69999694824219,73.0999984741211,117,73.0999984741211,120L73.0999984741211,120C72.80000305175781,120.30000305175781,72.5,120.5,72.30000305175781,120.5999984741211L72.30000305175781,120.5999984741211C71.30000305175781,117.69999694824219,66.5999984741211,109.30000305175781,64.9000015258789,107.9000015258789C63,106.30000305175781,56,102.69999694824219,54.79999923706055,99.9000015258789C53.5,97,54.20000076293945,91.5999984741211,54.20000076293945,91.5999984741211C51.70000076293945,89.0999984741211,48.20000076293945,89.0999984741211,45.900001525878906,91C43.599998474121094,92.9000015258789,43,96.4000015258789,40.20000076293945,97.69999694824219C37,98.80000305175781,29.099998474121094,100.0999984741211,28.799999237060547,102C28.600000381469727,103.19999694824219,31.200000762939453,104.19999694824219,34.70000076293945,105z"/>
<path id="BodyBorder" d="M29.700000762939453,251.6999969482422C27.299999237060547,248.6999969482422,24.700000762939453,243.6999969482422,24.600000381469727,243.39999389648438C24.399999618530273,242.89999389648438,24.600000381469727,242.3000030517578,25,242.10000610351562C25.5,241.89999389648438,26.100000381469727,242.10000610351562,26.299999237060547,242.5C27.700000762939453,245.3000030517578,30.900001525878906,250.60000610351562,32.20000076293945,251.6999969482422L32.20000076293945,251.6999969482422C33.20000076293945,251.60000610351562,33.900001525878906,251.3000030517578,34.099998474121094,250.8000030517578C34.599998474121094,249.60000610351562,32.79999923706055,246.60000610351562,31.299999237060547,244.89999389648438C31.099998474121094,244.60000610351562,30.900001525878906,244.3000030517578,30.900001525878906,243.89999389648438C30.900001525878906,242.89999389648438,31.099998474121094,241.6999969482422,31.400001525878906,240.39999389648438C31.599998474121094,239.5,31.799999237060547,238.6999969482422,31.900001525878906,237.8000030517578C31.900001525878906,237,32,235.39999389648438,33.599998474121094,235.39999389648438C34,235.39999389648438,34.5,235.60000610351562,34.79999923706055,235.89999389648438C35.099998474121094,236.1999969482422,35.29999923706055,236.6999969482422,35.29999923706055,237.10000610351562C35.29999923706055,237.39999389648438,35.29999923706055,237.6999969482422,35.20000076293945,238C35.20000076293945,239.3000030517578,35.400001525878906,240.39999389648438,35.900001525878906,240.8000030517578L35.900001525878906,240.8000030517578C37.5,236.89999389648438,33.599998474121094,230.6999969482422,32.29999923706055,228.5C32,228.10000610351562,31.799999237060547,227.8000030517578,31.799999237060547,227.60000610351562C31.5,226.89999389648438,31,226.3000030517578,30.599998474121094,225.6999969482422C30,224.8000030517578,29.299999237060547,223.89999389648438,28.799999237060547,222.6999969482422C29.200000762939453,222.89999389648438,29.599998474121094,222.89999389648438,30,222.8000030517578C30.599998474121094,222.60000610351562,31,222.10000610351562,31.099998474121094,221.5L31.299999237060547,220.1999969482422C31.799999237060547,221.6999969482422,32.5,222.6999969482422,33.29999923706055,223.89999389648438C33.79999923706055,224.60000610351562,34.29999923706055,225.3000030517578,34.70000076293945,226.1999969482422C34.79999923706055,226.3000030517578,34.900001525878906,226.60000610351562,35.099998474121094,226.89999389648438C37,229.89999389648438,42,238,38.20000076293945,243.60000610351562C37.900001525878906,244,37.5,244.1999969482422,37,244.3000030517578C36.20000076293945,244.39999389648438,35.5,244.3000030517578,34.900001525878906,244C36.29999923706055,245.89999389648438,38.400001525878906,249.39999389648438,37.20000076293945,252.10000610351562C36.400001525878906,253.89999389648438,34.5,254.89999389648438,31.5,255C31.299999237060547,255,31.099998474121094,255,30.900001525878906,255C21.600000381469727,255,16.799999237060547,246.60000610351562,15.799999237060547,243.3000030517578C15,240.89999389648438,15.799999237060547,226.60000610351562,17.100000381469727,223C17.399999618530273,222.3000030517578,17.399999618530273,221.60000610351562,17.299999237060547,220.89999389648438C17.5,221,17.799999237060547,221,18,221C18.799999237060547,221,19.600000381469727,220.6999969482422,20.5,220.3000030517578C20.700000762939453,221.5,20.700000762939453,222.8000030517578,20.100000381469727,224.1999969482422C18.899999618530273,227.39999389648438,18.399999618530273,240.6999969482422,18.899999618530273,242.3000030517578C18.899999618530273,242.39999389648438,20.5,246.8000030517578,24.399999618530273,249.60000610351562L24.399999618530273,249.60000610351562C22.899999618530273,247.60000610351562,21.700000762939453,245.3000030517578,21.5,244C21.399999618530273,243.5,21.700000762939453,242.89999389648438,22.299999237060547,242.8000030517578C22.799999237060547,242.6999969482422,23.399999618530273,243,23.5,243.60000610351562C23.899999618530273,245.60000610351562,27.100000381469727,250.1999969482422,28.799999237060547,251.5L28.799999237060547,251.5C29.099998474121094,251.60000610351562,29.400001525878906,251.6999969482422,29.700000762939453,251.6999969482422L29.700000762939453,251.6999969482422zM124.30000305175781,250.10000610351562C125,247.8000030517578,126,244.1999969482422,127.19999694824219,238.10000610351562C127.30000305175781,237.60000610351562,127,237,126.39999389648438,236.89999389648438C125.89999389648438,236.8000030517578,125.30000305175781,237.10000610351562,125.19999694824219,237.6999969482422C122.80000305175781,249.89999389648438,121.5999984741211,251.6999969482422,121.30000305175781,252C121.0999984741211,252.10000610351562,120.9000015258789,252.3000030517578,120.9000015258789,252.60000610351562L120.9000015258789,252.60000610351562C120.0999984741211,253,119.30000305175781,253.3000030517578,118.69999694824219,253.3000030517578C118.5999984741211,253.3000030517578,118.5,253.3000030517578,118.4000015258789,253.3000030517578C118.30000305175781,253.3000030517578,118.30000305175781,253.3000030517578,118.19999694824219,253.1999969482422L118.19999694824219,253.1999969482422C119.5,252.1999969482422,120.9000015258789,248.6999969482422,123.0999984741211,238.8000030517578L123.19999694824219,238.3000030517578C123.30000305175781,237.8000030517578,123,237.1999969482422,122.4000015258789,237.10000610351562C121.9000015258789,237,121.30000305175781,237.3000030517578,121.19999694824219,237.89999389648438L121.0999984741211,238.39999389648438C118.69999694824219,248.8000030517578,117.5,251.1999969482422,116.9000015258789,251.60000610351562C116.80000305175781,251.60000610351562,116.69999694824219,251.6999969482422,116.5999984741211,251.6999969482422L116.5999984741211,251.6999969482422C115.69999694824219,250.39999389648438,115.0999984741211,248.60000610351562,115.30000305175781,247.6999969482422C115.4000015258789,247.10000610351562,115.80000305175781,245.6999969482422,116.19999694824219,243.8000030517578C119.4000015258789,230.10000610351562,119.30000305175781,230,118.9000015258789,229.3000030517578C118.5999984741211,228.6999969482422,118,228.39999389648438,117.4000015258789,228.39999389648438C116.5999984741211,228.39999389648438,116.19999694824219,228.8000030517578,115.4000015258789,229.6999969482422C114.4000015258789,230.6999969482422,112.4000015258789,232.6999969482422,110.9000015258789,232.6999969482422C110.69999694824219,232.6999969482422,110.5,232.60000610351562,110.30000305175781,232.60000610351562C109.80000305175781,231.3000030517578,113.80000305175781,225.5,118.69999694824219,220.5C118.9000015258789,220.3000030517578,119,220,119.0999984741211,219.6999969482422C118.4000015258789,219.89999389648438,117.9000015258789,220,117.5999984741211,220.10000610351562C117.0999984741211,220.3000030517578,116.5,220.1999969482422,116,219.8000030517578C115.80000305175781,219.60000610351562,115.5999984741211,219.39999389648438,115.5,219.10000610351562C112.5999984741211,222.1999969482422,106.4000015258789,229.1999969482422,107,233C107.19999694824219,234,107.69999694824219,234.89999389648438,108.5999984741211,235.39999389648438C109.30000305175781,235.8000030517578,110,236,110.80000305175781,236L110.80000305175781,236C112.30000305175781,236,113.69999694824219,235.3000030517578,114.9000015258789,234.39999389648438C114.30000305175781,237.3000030517578,113.4000015258789,240.89999389648438,112.9000015258789,243.1999969482422C112.5,245.10000610351562,112.0999984741211,246.60000610351562,112,247.1999969482422C111.4000015258789,250.10000610351562,113.9000015258789,255.6999969482422,117.5,256.5C117.80000305175781,256.6000061035156,118.19999694824219,256.6000061035156,118.5,256.6000061035156C121.9000015258789,256.6000061035156,126.19999694824219,253.1999969482422,128.6999969482422,250.10000610351562C131.8000030517578,246.3000030517578,133.39999389648438,229.1999969482422,132.8000030517578,226.6999969482422C132.6999969482422,226.10000610351562,132.39999389648438,225.3000030517578,132.10000610351562,224.10000610351562C132,223.8000030517578,131.89999389648438,223.60000610351562,131.89999389648438,223.3000030517578C131.8000030517578,223.89999389648438,131.5,224.39999389648438,130.89999389648438,224.60000610351562C130.3000030517578,224.8000030517578,129.60000610351562,224.6999969482422,129.1999969482422,224.1999969482422C129.1999969482422,224.1999969482422,129,224,128.6999969482422,223.6999969482422C128.8000030517578,224.1999969482422,129,224.60000610351562,129.10000610351562,225C129.39999389648438,226,129.60000610351562,226.89999389648438,129.6999969482422,227.39999389648438C130.10000610351562,229.5,128.39999389648438,245.3000030517578,126.19999694824219,248C125.80000305175781,248.60000610351562,125.10000610351562,249.39999389648438,124.30000305175781,250.10000610351562L124.30000305175781,250.10000610351562zM82,83.5C82.19999694824219,85.30000305175781,82.69999694824219,87.5,83.69999694824219,90.19999694824219C84.30000305175781,91.9000015258789,85.19999694824219,93.19999694824219,86.0999984741211,94.30000305175781C86,94.5999984741211,85.4000015258789,95.69999694824219,84.19999694824219,97.0999984741211C82.69999694824219,95.5999984741211,81.4000015258789,93.5999984741211,80.5999984741211,91.30000305175781C79.80000305175781,89,79.30000305175781,87,79,85.30000305175781L79,85.30000305175781C75.80000305175781,87,72.5,87.9000015258789,69.30000305175781,87.9000015258789C66.19999694824219,87.9000015258789,63,87,59.900001525878906,85.30000305175781L59.900001525878906,85.30000305175781C59.79999923706055,87.30000305175781,59.20000076293945,89.30000305175781,57.599998474121094,91.4000015258789C56.5,92.9000015258789,55.29999923706055,94,54.20000076293945,94.9000015258789C53.29999923706055,93.69999694824219,52.79999923706055,92.69999694824219,52.70000076293945,92.5999984741211C52.599998474121094,92.4000015258789,52.5,92.30000305175781,52.400001525878906,92.19999694824219C53.29999923706055,91.5,54.099998474121094,90.69999694824219,55,89.5C56.599998474121094,87.4000015258789,56.900001525878906,85.4000015258789,56.599998474121094,83.30000305175781L56.599998474121094,83.30000305175781C51.70000076293945,79.80000305175781,47.29999923706055,74.5999984741211,44.29999923706055,68.4000015258789C41.5,68.0999984741211,39,65.5,38,61.79999923706055C36.900001525878906,57.900001525878906,38,54.20000076293945,40.400001525878906,52.70000076293945C40.400001525878906,52.5,40.400001525878906,52.20000076293945,40.400001525878906,52C40.400001525878906,50.20000076293945,40.599998474121094,38.79999923706055,41.20000076293945,36.20000076293945C44,23.799999237060547,54.20000076293945,16.700000762939453,69.30000305175781,16.700000762939453C84.30000305175781,16.700000762939453,94.5,23.799999237060547,97.4000015258789,36.20000076293945C98,38.79999923706055,98.19999694824219,50.20000076293945,98.19999694824219,52C98.19999694824219,52.20000076293945,98.19999694824219,52.5,98.19999694824219,52.70000076293945C100.69999694824219,54.20000076293945,101.80000305175781,57.900001525878906,100.69999694824219,61.900001525878906C99.69999694824219,65.5,97.19999694824219,68.19999694824219,94.4000015258789,68.5C91.4000015258789,74.80000305175781,87,80.0999984741211,82,83.5L82,83.5zM69.30000305175781,84.80000305175781C77.19999694824219,84.80000305175781,86.0999984741211,77.69999694824219,91.0999984741211,67.80000305175781C90.80000305175781,67.5999984741211,90.5,67.30000305175781,90.19999694824219,67C89.69999694824219,66.4000015258789,89.5999984741211,65.5,90.0999984741211,64.9000015258789C90.5999984741211,64.30000305175781,91.5,64.0999984741211,92.19999694824219,64.5L93.80000305175781,65.4000015258789C95.0999984741211,65.4000015258789,96.80000305175781,63.79999923706055,97.5,61.20000076293945C98.19999694824219,58.5,97.5,56.20000076293945,96.4000015258789,55.599998474121094L94.0999984741211,56C93.30000305175781,56.099998474121094,92.5999984741211,55.70000076293945,92.30000305175781,55C92,54.29999923706055,92.30000305175781,53.400001525878906,93,53C93.5999984741211,52.599998474121094,94.30000305175781,52.400001525878906,95,52.29999923706055C95,52.29999923706055,95,52.29999923706055,95,52.20000076293945C95,49.099998474121094,94.69999694824219,39,94.30000305175781,37.099998474121094C90.9000015258789,22.200000762939453,77.19999694824219,20,69.30000305175781,20C61.400001525878906,20,47.70000076293945,22.200000762939453,44.400001525878906,37C44,38.900001525878906,43.70000076293945,49.099998474121094,43.70000076293945,52.099998474121094C43.70000076293945,52.099998474121094,43.70000076293945,52.099998474121094,43.70000076293945,52.20000076293945C44.400001525878906,52.29999923706055,45.099998474121094,52.599998474121094,45.79999923706055,53C46.5,53.400001525878906,46.79999923706055,54.20000076293945,46.5,55C46.20000076293945,55.70000076293945,45.5,56.20000076293945,44.70000076293945,56L42.29999923706055,55.599998474121094C41.099998474121094,56.20000076293945,40.400001525878906,58.5,41.20000076293945,61.20000076293945C41.900001525878906,63.900001525878906,43.79999923706055,65.5,45.099998474121094,65.4000015258789L46.5,64.5999984741211C47.20000076293945,64.19999694824219,48.099998474121094,64.30000305175781,48.599998474121094,65C49.099998474121094,65.5999984741211,49.099998474121094,66.5,48.5,67.0999984741211C48.20000076293945,67.4000015258789,47.900001525878906,67.69999694824219,47.599998474121094,67.9000015258789C52.599998474121094,77.69999694824219,61.5,84.80000305175781,69.30000305175781,84.80000305175781"/>
<path id="JacketBorder" d="M133.3000030517578,196.5C130.89999389648438,183.39999389648438,127.5,165.60000610351562,126.80000305175781,155.60000610351562C125.60000610351562,139.39999389648438,117.5,109.19999694824219,114.19999694824219,105.9000015258789C113.80000305175781,105.5,113,104.9000015258789,111.80000305175781,104L111.5999984741211,103.69999694824219C112.0999984741211,103.0999984741211,112.30000305175781,102.4000015258789,112.19999694824219,101.69999694824219C111.80000305175781,99.5,108.9000015258789,98.5999984741211,104.0999984741211,97.30000305175781C102.5,96.9000015258789,101,96.4000015258789,100.19999694824219,96.0999984741211C99,95.5999984741211,98.30000305175781,94.4000015258789,97.4000015258789,93C96.69999694824219,91.80000305175781,96,90.5999984741211,94.80000305175781,89.69999694824219C93.5,88.5999984741211,91.80000305175781,87.9000015258789,90,87.9000015258789C87.9000015258789,87.9000015258789,85.9000015258789,88.80000305175781,84.30000305175781,90.4000015258789C83.9000015258789,90.80000305175781,83.80000305175781,91.19999694824219,83.80000305175781,91.69999694824219C84,93.0999984741211,84.19999694824219,97.0999984741211,83.30000305175781,99.0999984741211C82.69999694824219,100.4000015258789,79.9000015258789,101.80000305175781,77.80000305175781,102.80000305175781C76.30000305175781,103.5,75.0999984741211,104.0999984741211,74.19999694824219,104.80000305175781C72.5999984741211,106.0999984741211,71.80000305175781,111.0999984741211,71.4000015258789,115.19999694824219L71.4000015258789,115.19999694824219C69.30000305175781,111.30000305175781,66.5999984741211,107.19999694824219,65.69999694824219,106.5C65.0999984741211,106,64,105.30000305175781,62.80000305175781,104.5C60.5,103.0999984741211,56.70000076293945,100.5999984741211,56,99.0999984741211C55.099998474121094,97.0999984741211,55.29999923706055,93.0999984741211,55.5,91.69999694824219C55.599998474121094,91.19999694824219,55.400001525878906,90.69999694824219,55,90.4000015258789C53.400001525878906,88.80000305175781,51.400001525878906,87.9000015258789,49.29999923706055,87.9000015258789C47.5,87.9000015258789,45.900001525878906,88.5,44.5,89.69999694824219C43.400001525878906,90.69999694824219,42.599998474121094,91.9000015258789,41.900001525878906,93C41.099998474121094,94.4000015258789,40.29999923706055,95.5999984741211,39.099998474121094,96.0999984741211C38.20000076293945,96.5,36.70000076293945,96.9000015258789,35.20000076293945,97.30000305175781C30.400001525878906,98.5999984741211,27.399999618530273,99.5999984741211,27.100000381469727,101.69999694824219C27,102.4000015258789,27.200000762939453,103.0999984741211,27.700000762939453,103.69999694824219C28.299999237060547,104.5,29.5,105.0999984741211,30.900001525878906,105.5999984741211L30.900001525878906,105.5999984741211L30.900001525878906,105.5999984741211L30.900001525878906,105.5999984741211C16.700000762939453,116,16.799999237060547,118.9000015258789,16.899999618530273,120.19999694824219C17.200000762939453,125.80000305175781,17.5,139.10000610351562,17.5,143.3000030517578C17.5,144.8000030517578,16.799999237060547,149,16.100000381469727,153.39999389648438C14.899999618530273,160.6999969482422,13.600000381469727,168.89999389648438,14,172.39999389648438C14.700000762939453,178.1999969482422,14.899999618530273,198.5,14.399999618530273,200.3000030517578C14.299999237060547,200.6999969482422,13.899999618530273,201.5,13.600000381469727,202.3000030517578C12.399999618530273,205.10000610351562,10.800000190734863,208.89999389648438,10.800000190734863,211.60000610351562C10.800000190734863,214,12.399999618530273,215.10000610351562,13.5,215.8000030517578C14.600000381469727,216.5,15.100000381469727,216.89999389648438,15.200000762939453,218.10000610351562C15.399999618530273,220.1999969482422,16.700000762939453,220.89999389648438,17.899999618530273,220.89999389648438C18.899999618530273,220.89999389648438,20,220.39999389648438,21.100000381469727,219.89999389648438C22,219.5,23.100000381469727,219,23.700000762939453,219C23.799999237060547,219,23.899999618530273,219,23.899999618530273,219C26.200000762939453,220.5,28,222.3000030517578,28.100000381469727,222.3000030517578C28.5,222.6999969482422,29.200000762939453,222.89999389648438,29.700000762939453,222.6999969482422C30.299999237060547,222.5,30.700000762939453,222,30.799999237060547,221.39999389648438L32.400001525878906,212.1999969482422C33.29999923706055,212.39999389648438,34.5,212.5,35.5,212.5C38.400001525878906,212.5,39.20000076293945,211.3000030517578,39.400001525878906,210.1999969482422C39.599998474121094,209.3000030517578,39.29999923706055,207.3000030517578,38.599998474121094,202.39999389648438C38,197.89999389648438,36.900001525878906,190.39999389648438,37.400001525878906,188.8000030517578C37.599998474121094,188,37.900001525878906,187.10000610351562,38.20000076293945,186.3000030517578C38.900001525878906,189.10000610351562,39.599998474121094,192.1999969482422,39.599998474121094,193.6999969482422C39.599998474121094,194.60000610351562,39.5,195.89999389648438,39.400001525878906,197.1999969482422C39.099998474121094,201.1999969482422,38.70000076293945,206.10000610351562,40.099998474121094,209C41,211,38.70000076293945,215.39999389648438,37.400001525878906,217.3000030517578C37.099998474121094,217.6999969482422,37,218.1999969482422,37.20000076293945,218.6999969482422C37.400001525878906,219.1999969482422,37.70000076293945,219.60000610351562,38.20000076293945,219.6999969482422C39.20000076293945,220,62.900001525878906,228.10000610351562,74.5999984741211,228.10000610351562C76.19999694824219,228.10000610351562,77.5,228,78.5999984741211,227.60000610351562C87.4000015258789,225.10000610351562,113.0999984741211,216.5,113.30000305175781,216.39999389648438C114,216.1999969482422,114.5,215.5,114.4000015258789,214.6999969482422L113.5,205.3000030517578L116.5,210.6999969482422L115.30000305175781,217.8000030517578C115.19999694824219,218.39999389648438,115.4000015258789,218.89999389648438,115.80000305175781,219.3000030517578C116.19999694824219,219.6999969482422,116.80000305175781,219.8000030517578,117.4000015258789,219.60000610351562C118.0999984741211,219.39999389648438,120.4000015258789,218.6999969482422,122.19999694824219,218.6999969482422C123.30000305175781,218.6999969482422,123.80000305175781,218.89999389648438,123.9000015258789,219C126,220.5,129.10000610351562,223.60000610351562,129.10000610351562,223.60000610351562C129.60000610351562,224.10000610351562,130.1999969482422,224.1999969482422,130.8000030517578,224C131.39999389648438,223.8000030517578,131.8000030517578,223.1999969482422,131.8000030517578,222.5L132,214.39999389648438C132.39999389648438,214.5,132.8000030517578,214.60000610351562,133.3000030517578,214.60000610351562C134.1999969482422,214.60000610351562,135,214.10000610351562,135.39999389648438,213.3000030517578C136.3000030517578,212.89999389648438,136.3000030517578,212.3000030517578,133.3000030517578,196.5zM76.30000305175781,107.4000015258789C76.80000305175781,107,78,106.4000015258789,79.19999694824219,105.80000305175781C82,104.4000015258789,85.19999694824219,102.9000015258789,86.30000305175781,100.5C87.4000015258789,97.9000015258789,87.30000305175781,94,87.0999984741211,92.19999694824219C88.80000305175781,90.9000015258789,91.0999984741211,90.9000015258789,92.5999984741211,92.0999984741211C93.30000305175781,92.69999694824219,93.9000015258789,93.69999694824219,94.5,94.5999984741211C95.5,96.19999694824219,96.5999984741211,98,98.69999694824219,99C99.80000305175781,99.5,101.4000015258789,99.9000015258789,103.0999984741211,100.4000015258789C104.5999984741211,100.80000305175781,107.0999984741211,101.5,108.4000015258789,102.0999984741211C106.80000305175781,102.9000015258789,102.69999694824219,103.9000015258789,97.69999694824219,104.0999984741211L96.69999694824219,104.19999694824219C91,104.5,86.9000015258789,104.69999694824219,83.0999984741211,108.4000015258789C82.0999984741211,109.4000015258789,80.69999694824219,110.9000015258789,79.19999694824219,112.5C77.80000305175781,114,75.9000015258789,116.0999984741211,74.4000015258789,117.5999984741211C74.69999694824219,114,75.4000015258789,108.4000015258789,76.30000305175781,107.4000015258789zM30.900001525878906,102.0999984741211C32.099998474121094,101.5,34.70000076293945,100.80000305175781,36.20000076293945,100.4000015258789C37.900001525878906,99.9000015258789,39.5,99.5,40.599998474121094,99C42.70000076293945,98.0999984741211,43.79999923706055,96.19999694824219,44.79999923706055,94.5999984741211C45.400001525878906,93.5999984741211,46,92.69999694824219,46.70000076293945,92.0999984741211C48.20000076293945,90.80000305175781,50.5,90.80000305175781,52.20000076293945,92.19999694824219C52.099998474121094,94,51.900001525878906,97.9000015258789,53,100.5C54.099998474121094,103,57.900001525878906,105.4000015258789,61,107.30000305175781C62.099998474121094,108,63.099998474121094,108.69999694824219,63.599998474121094,109.0999984741211C64.80000305175781,110.0999984741211,67.80000305175781,115.30000305175781,69.5,118.69999694824219C66.5,116.9000015258789,61.69999694824219,113.5,59.400001525878906,111.19999694824219C55.70000076293945,107.5,48.20000076293945,104.5999984741211,41.5,104.19999694824219C36.599998474121094,103.9000015258789,32.5,102.9000015258789,30.900001525878906,102.0999984741211zM40.20000076293945,180.8000030517578C40.29999923706055,180,40.5,179.1999969482422,40.599998474121094,178.3000030517578C42,170.39999389648438,43.70000076293945,160.60000610351562,41.900001525878906,155.3000030517578C41.400001525878906,153.8000030517578,40.79999923706055,152.3000030517578,40.20000076293945,150.6999969482422C38.5,146.5,36.79999923706055,142.1999969482422,37.79999923706055,139.39999389648438C39.5,134.60000610351562,38.20000076293945,128.3000030517578,38.20000076293945,128.10000610351562C38,127.30000305175781,37.20000076293945,126.80000305175781,36.400001525878906,126.9000015258789C35.599998474121094,127.0999984741211,35.099998474121094,127.9000015258789,35.20000076293945,128.6999969482422C35.20000076293945,128.8000030517578,36.400001525878906,134.39999389648438,34.900001525878906,138.39999389648438C33.5,142.3000030517578,35.5,147.10000610351562,37.400001525878906,151.89999389648438C38,153.39999389648438,38.599998474121094,154.89999389648438,39.099998474121094,156.3000030517578C40.599998474121094,160.89999389648438,38.900001525878906,170.6999969482422,37.70000076293945,177.89999389648438C37.5,178.8000030517578,37.400001525878906,179.60000610351562,37.29999923706055,180.39999389648438L37.29999923706055,180.39999389648438C37.20000076293945,180.5,37.20000076293945,180.60000610351562,37.20000076293945,180.6999969482422C37.099998474121094,180.89999389648438,35.599998474121094,184.89999389648438,34.599998474121094,188.10000610351562C34,190.1999969482422,34.599998474121094,195.6999969482422,35.70000076293945,203.10000610351562C36,205.39999389648438,36.400001525878906,208.3000030517578,36.5,209.5C36.29999923706055,209.5,36.099998474121094,209.5,35.900001525878906,209.5C34.20000076293945,209.5,31.900001525878906,208.89999389648438,31.900001525878906,208.89999389648438C31.5,208.8000030517578,31,208.89999389648438,30.599998474121094,209.10000610351562C30.200000762939453,209.3000030517578,30,209.6999969482422,29.900001525878906,210.1999969482422L28.5,218.1999969482422C27.799999237060547,217.60000610351562,26.899999618530273,217,26,216.39999389648438C25.399999618530273,216,24.799999237060547,215.89999389648438,24.100000381469727,215.89999389648438C22.700000762939453,215.89999389648438,21.299999237060547,216.60000610351562,20.100000381469727,217.10000610351562C19.700000762939453,217.3000030517578,19.200000762939453,217.5,18.799999237060547,217.6999969482422C18.5,215.1999969482422,16.799999237060547,214,15.700000762939453,213.3000030517578C14.700000762939453,212.60000610351562,14.399999618530273,212.39999389648438,14.399999618530273,211.8000030517578C14.399999618530273,209.8000030517578,16,206,16.899999618530273,203.8000030517578C17.299999237060547,202.8000030517578,17.600000381469727,202.10000610351562,17.799999237060547,201.5C18.600000381469727,199,18.100000381469727,176.6999969482422,17.600000381469727,172.1999969482422C17.200000762939453,169.1999969482422,18.600000381469727,160.8000030517578,19.700000762939453,154.10000610351562C20.5,149.10000610351562,21.100000381469727,145.1999969482422,21.100000381469727,143.39999389648438C21.100000381469727,139.1999969482422,20.799999237060547,125.80000305175781,20.5,120.0999984741211C20.5,119.80000305175781,21,117,35.400001525878906,106.69999694824219C38.5,107.30000305175781,41.5,107.4000015258789,41.70000076293945,107.4000015258789C47.5,107.69999694824219,54.29999923706055,110.30000305175781,57.400001525878906,113.4000015258789C59.79999923706055,115.80000305175781,67.80000305175781,121.69999694824219,71.19999694824219,122.9000015258789L71.19999694824219,122.9000015258789C71.5999984741211,125.69999694824219,72.19999694824219,129.39999389648438,72.9000015258789,133.1999969482422C73.80000305175781,138.6999969482422,74.80000305175781,144.3000030517578,75.0999984741211,147.8000030517578C75.69999694824219,154.3000030517578,75.4000015258789,177.5,74.80000305175781,184.1999969482422C74.19999694824219,190.5,76.4000015258789,213,77,219.6999969482422C77.19999694824219,221.8000030517578,77,223.89999389648438,76.80000305175781,225L76.80000305175781,225C76.30000305175781,225.10000610351562,75.69999694824219,225.10000610351562,75,225.10000610351562C65.69999694824219,225.10000610351562,47.599998474121094,219.39999389648438,41.599998474121094,217.5C43,215.10000610351562,44.79999923706055,210.89999389648438,43.5,207.89999389648438C42.5,205.6999969482422,42.900001525878906,201.10000610351562,43.099998474121094,197.6999969482422C43.20000076293945,196.1999969482422,43.29999923706055,195,43.29999923706055,193.89999389648438C43.29999923706055,190.3000030517578,40.70000076293945,181.6999969482422,40.400001525878906,180.6999969482422L40.20000076293945,180.8000030517578zM112.9000015258789,197.3000030517578C112.5,194.5,110.69999694824219,182,110.0999984741211,177.1999969482422C109.80000305175781,174.60000610351562,108.80000305175781,168.5,107.80000305175781,162.10000610351562C106.69999694824219,155.3000030517578,105.5,148.3000030517578,105.4000015258789,146.39999389648438C105.19999694824219,143.8000030517578,107.69999694824219,135.89999389648438,109.4000015258789,131.10000610351562C109.69999694824219,130.3000030517578,109.30000305175781,129.5,108.5,129.1999969482422C107.69999694824219,128.89999389648438,106.9000015258789,129.3000030517578,106.5999984741211,130.10000610351562C106.0999984741211,131.39999389648438,102,142.60000610351562,102.4000015258789,146.6999969482422C102.5999984741211,148.8000030517578,103.69999694824219,155.5,104.80000305175781,162.6999969482422C105.80000305175781,168.8000030517578,106.80000305175781,175.10000610351562,107.0999984741211,177.60000610351562C107.69999694824219,182.3000030517578,109.5,194.8000030517578,109.9000015258789,197.6999969482422L109.9000015258789,197.6999969482422C109.9000015258789,197.89999389648438,109.80000305175781,198.10000610351562,109.9000015258789,198.3000030517578L111.4000015258789,214.1999969482422C106.30000305175781,215.89999389648438,86.9000015258789,222.3000030517578,78.80000305175781,224.6999969482422L78.80000305175781,224.6999969482422C78.9000015258789,223.39999389648438,79.0999984741211,221.60000610351562,78.9000015258789,219.6999969482422C78.19999694824219,213,76.0999984741211,190.6999969482422,76.69999694824219,184.60000610351562C77.4000015258789,177.6999969482422,77.69999694824219,154.5,77,147.8000030517578C76.69999694824219,144.1999969482422,75.69999694824219,138.5,74.80000305175781,133C74.19999694824219,129.3000030517578,73.5999984741211,125.69999694824219,73.19999694824219,122.9000015258789L73.19999694824219,122.9000015258789C73.4000015258789,122.80000305175781,73.5999984741211,122.5999984741211,73.69999694824219,122.4000015258789C74.9000015258789,122.0999984741211,76.5,120.5999984741211,81.9000015258789,114.80000305175781C83.30000305175781,113.30000305175781,84.69999694824219,111.80000305175781,85.69999694824219,110.80000305175781C88.5999984741211,107.9000015258789,91.80000305175781,107.80000305175781,97.0999984741211,107.5L98.0999984741211,107.4000015258789C98.4000015258789,107.4000015258789,104.5,107,108.5999984741211,105.5999984741211C110.30000305175781,106.69999694824219,111.5999984741211,107.69999694824219,112.0999984741211,108.19999694824219C114.19999694824219,110.5,122.4000015258789,138.39999389648438,123.69999694824219,155.89999389648438C124.5,166,127.80000305175781,184,130.3000030517578,197.10000610351562C131.39999389648438,202.8000030517578,132.39999389648438,208.60000610351562,132.8000030517578,211.3000030517578C132.5,211.10000610351562,132.3000030517578,211,132,210.8000030517578C131.5,210.39999389648438,130.89999389648438,210.39999389648438,130.3000030517578,210.60000610351562C129.6999969482422,210.89999389648438,129.39999389648438,211.39999389648438,129.39999389648438,212L129.1999969482422,219.1999969482422C128.1999969482422,218.3000030517578,127.19999694824219,217.39999389648438,126.30000305175781,216.8000030517578C125.39999389648438,216.1999969482422,124.19999694824219,215.89999389648438,122.69999694824219,215.89999389648438C121.5999984741211,215.89999389648438,120.4000015258789,216.10000610351562,119.4000015258789,216.3000030517578L120.30000305175781,211.10000610351562C120.4000015258789,210.6999969482422,120.30000305175781,210.39999389648438,120.0999984741211,210L112.9000015258789,197.3000030517578L112.9000015258789,197.3000030517578z"/>
<path id="Hair" fill="#3A2012" d="M70.0999984741211,11.199999809265137C83.5,11.199999809265137,94.30000305175781,18.299999237060547,96.30000305175781,25.600000381469727C98.30000305175781,32.900001525878906,98.69999694824219,52.29999923706055,96.5999984741211,52.099998474121094C91,52.099998474121094,93.80000305175781,41.20000076293945,88.30000305175781,34.5C82.9000015258789,27.799999237060547,74.19999694824219,32.20000076293945,68.0999984741211,32C62,31.799999237060547,54.70000076293945,29.299999237060547,49.5,34.099998474121094S48,51.400001525878906,41.099998474121094,52.29999923706055C40.5,52.599998474121094,38.20000076293945,33.20000076293945,40.900001525878906,25.399999618530273S56.70000076293945,11.199999809265137,70.0999984741211,11.199999809265137z"/>
<path id="HairBorder" d="M41.099998474121094,53.099998474121094L40.70000076293945,53.099998474121094L40.400001525878906,52.70000076293945C39.400001525878906,51.29999923706055,37.5,32.70000076293945,40.20000076293945,25.100000381469727C43.099998474121094,16.799999237060547,56.29999923706055,10.399999618530273,70.0999984741211,10.399999618530273C84.19999694824219,10.399999618530273,95.0999984741211,18.200000762939453,97,25.399999618530273C98.80000305175781,32.099998474121094,99.5,49.900001525878906,97.5999984741211,52.29999923706055C97.30000305175781,52.70000076293945,96.9000015258789,52.79999923706055,96.69999694824219,52.79999923706055L96.5999984741211,52.79999923706055L96.5999984741211,52.79999923706055C93,52.79999923706055,92.30000305175781,49.099998474121094,91.5999984741211,45.099998474121094C91,41.70000076293945,90.19999694824219,37.900001525878906,87.80000305175781,34.900001525878906C85.9000015258789,32.5,83.4000015258789,31.399999618530273,79.9000015258789,31.399999618530273C77.9000015258789,31.399999618530273,75.9000015258789,31.700000762939453,73.9000015258789,32.099998474121094C72,32.400001525878906,70.19999694824219,32.70000076293945,68.5,32.70000076293945L68.19999694824219,32.70000076293945C66.69999694824219,32.70000076293945,65.0999984741211,32.5,63.599998474121094,32.29999923706055C61.80000305175781,32.099998474121094,60,31.899999618530273,58.20000076293945,31.899999618530273C54.70000076293945,31.899999618530273,52.20000076293945,32.70000076293945,50.099998474121094,34.70000076293945C48,36.70000076293945,47.400001525878906,40.20000076293945,46.900001525878906,43.70000076293945C46.20000076293945,48,45.599998474121094,52.5,41.400001525878906,53.099998474121094L41.29999923706055,53.099998474121094L41.099998474121094,53.099998474121094zM70.0999984741211,11.899999618530273C57.099998474121094,11.899999618530273,44.29999923706055,18.100000381469727,41.599998474121094,25.600000381469727C39.099998474121094,32.5,40.79999923706055,48.400001525878906,41.5,51.400001525878906C44.20000076293945,50.599998474121094,44.79999923706055,47.20000076293945,45.29999923706055,43.29999923706055C45.900001525878906,39.599998474121094,46.400001525878906,35.79999923706055,49,33.5C51.29999923706055,31.299999237060547,54.20000076293945,30.299999237060547,58.099998474121094,30.299999237060547C60,30.299999237060547,61.80000305175781,30.5,63.69999694824219,30.700000762939453C65.30000305175781,30.899999618530273,66.69999694824219,31,68.19999694824219,31.100000381469727L68.5,31.100000381469727C70.0999984741211,31.100000381469727,71.80000305175781,30.799999237060547,73.5999984741211,30.5C75.5999984741211,30.200000762939453,77.69999694824219,29.799999237060547,79.80000305175781,29.799999237060547C83.80000305175781,29.799999237060547,86.69999694824219,31.100000381469727,88.9000015258789,33.79999923706055C91.5,37,92.30000305175781,41.20000076293945,93,44.599998474121094C93.80000305175781,48.70000076293945,94.30000305175781,51,96.5,51.099998474121094C97.69999694824219,49.20000076293945,97.5999984741211,33,95.5999984741211,25.600000381469727C93.80000305175781,19.100000381469727,83.5999984741211,11.899999618530273,70.0999984741211,11.899999618530273z"/>
<path id="MouthNose" d="M70.4000015258789,74.69999694824219C67.9000015258789,74.69999694824219,64.80000305175781,74.19999694824219,62.19999694824219,72.30000305175781C61.900001525878906,72.0999984741211,61.80000305175781,71.5999984741211,62.099998474121094,71.19999694824219C62.30000305175781,70.9000015258789,62.80000305175781,70.80000305175781,63.19999694824219,71.0999984741211C67.5999984741211,74.4000015258789,74.19999694824219,72.80000305175781,74.30000305175781,72.80000305175781C74.69999694824219,72.69999694824219,75.0999984741211,72.9000015258789,75.19999694824219,73.4000015258789C75.30000305175781,73.80000305175781,75.0999984741211,74.19999694824219,74.5999984741211,74.30000305175781C74.4000015258789,74.30000305175781,72.69999694824219,74.69999694824219,70.4000015258789,74.69999694824219zM71.5999984741211,67.69999694824219C71.0999984741211,67.69999694824219,70.5999984741211,67.5999984741211,70.19999694824219,67.5C69.80000305175781,67.4000015258789,69.5999984741211,66.9000015258789,69.80000305175781,66.5C69.9000015258789,66.0999984741211,70.4000015258789,65.9000015258789,70.80000305175781,66.0999984741211C71.4000015258789,66.30000305175781,72.5999984741211,66.30000305175781,73.5999984741211,65.69999694824219C74.19999694824219,65.19999694824219,74.5999984741211,64.5999984741211,74.5999984741211,63.70000076293945C74.5999984741211,63.20000076293945,74.5,62.900001525878906,74.19999694824219,62.599998474121094C73.30000305175781,61.79999923706055,71.30000305175781,62,70.5999984741211,62.099998474121094C70.19999694824219,62.20000076293945,69.80000305175781,61.900001525878906,69.69999694824219,61.5C69.5999984741211,61.099998474121094,69.9000015258789,60.70000076293945,70.30000305175781,60.599998474121094C70.5999984741211,60.5,73.5,60.099998474121094,75.0999984741211,61.400001525878906C75.69999694824219,61.900001525878906,76.0999984741211,62.70000076293945,76.0999984741211,63.599998474121094C76.0999984741211,65.4000015258789,75.19999694824219,66.4000015258789,74.5,66.9000015258789C73.5,67.4000015258789,72.5,67.69999694824219,71.5999984741211,67.69999694824219z"/>
<path id="EyeBrows" d="M89.80000305175781,50.79999923706055L89.80000305175781,50.79999923706055C89.19999694824219,50.79999923706055,88.80000305175781,50.29999923706055,88.80000305175781,49.79999923706055C88.9000015258789,48.79999923706055,88.30000305175781,48,87.9000015258789,47.5C86.80000305175781,46.29999923706055,85,45.5,83,45.400001525878906C80.69999694824219,45.29999923706055,79.30000305175781,45.70000076293945,78.30000305175781,46.70000076293945C77.9000015258789,47.099998474121094,77.30000305175781,47.099998474121094,76.9000015258789,46.70000076293945C76.5,46.29999923706055,76.5,45.70000076293945,76.9000015258789,45.29999923706055C78.30000305175781,43.79999923706055,80.19999694824219,43.20000076293945,83.0999984741211,43.400001525878906C85.69999694824219,43.5,87.9000015258789,44.5,89.4000015258789,46.099998474121094C90.4000015258789,47.20000076293945,90.9000015258789,48.5,90.80000305175781,49.79999923706055C90.80000305175781,50.29999923706055,90.30000305175781,50.79999923706055,89.80000305175781,50.79999923706055zM49.099998474121094,51C48.599998474121094,51,48.099998474121094,50.599998474121094,48.099998474121094,50.099998474121094C47.79999923706055,46.79999923706055,51.20000076293945,43.70000076293945,55.599998474121094,43.400001525878906C58.400001525878906,43.20000076293945,60.29999923706055,43.70000076293945,61.80000305175781,45.099998474121094C62.19999694824219,45.5,62.19999694824219,46.099998474121094,61.80000305175781,46.5C61.400001525878906,46.900001525878906,60.79999923706055,46.900001525878906,60.400001525878906,46.5C59.70000076293945,45.79999923706055,58.5,45.099998474121094,55.70000076293945,45.29999923706055C52.400001525878906,45.599998474121094,49.79999923706055,47.70000076293945,50,49.900001525878906C50.20000076293945,50.5,49.79999923706055,50.900001525878906,49.099998474121094,51C49.20000076293945,51,49.099998474121094,51,49.099998474121094,51z"/>
<path id="EyeWhites" fill="#FFFFFF" d="M63.80000305175781,56.70000076293945C63.599998474121094,58.5,61.599998474121094,60.400001525878906,58.20000076293945,60.400001525878906C54.79999923706055,60.400001525878906,51.5,58.400001525878906,51.5,55.900001525878906C51.5,53.900001525878906,54.29999923706055,52.20000076293945,57.599998474121094,52.20000076293945C61.099998474121094,52.20000076293945,64.0999984741211,54.70000076293945,63.80000305175781,56.70000076293945zM75.9000015258789,56.70000076293945C76.0999984741211,58.5,77.9000015258789,60.400001525878906,81.30000305175781,60.400001525878906C84.69999694824219,60.400001525878906,88.19999694824219,58.400001525878906,88.19999694824219,55.900001525878906C88.19999694824219,53.900001525878906,85.5,52.20000076293945,82.0999984741211,52.20000076293945S75.69999694824219,54.70000076293945,75.9000015258789,56.70000076293945z"/>
<path id="Eyes" d="M55.099998474121094,55.70000076293945C55.099998474121094,57.599998474121094,56.599998474121094,59.099998474121094,58.5,59.099998474121094C60.400001525878906,59.099998474121094,61.900001525878906,57.599998474121094,61.900001525878906,55.70000076293945C61.900001525878906,53.79999923706055,60.400001525878906,52.29999923706055,58.5,52.29999923706055L58.5,52.29999923706055C56.70000076293945,52.29999923706055,55.099998474121094,53.79999923706055,55.099998474121094,55.70000076293945zM84.69999694824219,55.70000076293945C84.69999694824219,57.599998474121094,83.19999694824219,59.099998474121094,81.30000305175781,59.099998474121094C79.4000015258789,59.099998474121094,77.9000015258789,57.599998474121094,77.9000015258789,55.70000076293945C77.9000015258789,53.79999923706055,79.4000015258789,52.29999923706055,81.30000305175781,52.29999923706055L81.30000305175781,52.29999923706055C83.19999694824219,52.29999923706055,84.69999694824219,53.79999923706055,84.69999694824219,55.70000076293945z"/>
<path id="EyeLids" d="M63.80000305175781,57.599998474121094C63.400001525878906,57.599998474121094,63,57.29999923706055,63,56.79999923706055C63,54.599998474121094,60.599998474121094,52.900001525878906,57.70000076293945,52.900001525878906C55.099998474121094,52.900001525878906,52.400001525878906,54,52.400001525878906,56.29999923706055C52.400001525878906,56.70000076293945,52.099998474121094,57.099998474121094,51.599998474121094,57.099998474121094C51.099998474121094,57.099998474121094,50.79999923706055,56.79999923706055,50.79999923706055,56.29999923706055C50.79999923706055,53.400001525878906,53.599998474121094,51.400001525878906,57.599998474121094,51.400001525878906C61.400001525878906,51.400001525878906,64.4000015258789,53.79999923706055,64.4000015258789,56.79999923706055C64.5,57.20000076293945,64.19999694824219,57.599998474121094,63.80000305175781,57.599998474121094zM76.0999984741211,57.599998474121094C75.69999694824219,57.599998474121094,75.30000305175781,57.29999923706055,75.30000305175781,56.79999923706055C75.30000305175781,53.79999923706055,78.4000015258789,51.400001525878906,82.0999984741211,51.400001525878906C86.0999984741211,51.400001525878906,88.9000015258789,53.400001525878906,88.9000015258789,56.29999923706055C88.9000015258789,56.70000076293945,88.5999984741211,57.099998474121094,88.0999984741211,57.099998474121094C87.5999984741211,57.099998474121094,87.30000305175781,56.79999923706055,87.30000305175781,56.29999923706055C87.30000305175781,54,84.69999694824219,52.900001525878906,82.0999984741211,52.900001525878906C79.19999694824219,52.900001525878906,76.80000305175781,54.70000076293945,76.80000305175781,56.79999923706055C76.9000015258789,57.20000076293945,76.5,57.599998474121094,76.0999984741211,57.599998474121094z"/>
</g>
</svg>