<svg xmlns="http://www.w3.org/2000/svg" xmlns:xlink="http://www.w3.org/1999/xlink" viewBox= "0 0 144 407" width="144px" height="407px">
<g xmlns="http://www.w3.org/2000/svg" id="Teen3V2.svg">
<path id="pants" fill="#D1D1D1" d="M39,212.89999389648438C33.52000045776367,216.3699951171875,33.52000045776367,251.00999450683594,35,274.3399963378906C36.47999954223633,297.6700134277344,34,325.5899963378906,37.84000015258789,325.5899963378906C41.68000030517578,325.5899963378906,46.84000015258789,322.67999267578125,53.61000061035156,323.1700134277344C60.380001068115234,323.6600036621094,65.06999969482422,325.3800048828125,66.04000091552734,324.1700134277344C67.00999450683594,322.9599914550781,68.77000427246094,291.7900085449219,69.04000091552734,283.7799987792969C69.30999755859375,275.7699890136719,74.97999572753906,260.5899963378906,75.70999908447266,259.8599853515625C76.44000244140625,259.1300048828125,77.62999725341797,277.2099914550781,78.83999633789062,284.9700012207031C80.05000305175781,292.7300109863281,78.37999725341797,323.4100036621094,79.83999633789062,323.6499938964844C81.30000305175781,323.8900146484375,89.30000305175781,321.7099914550781,97.83999633789062,322.20001220703125C106.37999725341797,322.69000244140625,109.7300033569336,324.1400146484375,110.45999908447266,321.9599914550781C111.19000244140625,319.7799987792969,113.61000061035156,296.7300109863281,113.61000061035156,285.80999755859375C113.61000061035156,274.8900146484375,115.61000061035156,225.80999755859375,107.25,215.39999389648438C104.2300033569336,214.42999267578125,44.47999954223633,209.4199981689453,39,212.89999389648438z"/>
<path id="pantsBorder" d="M108.5166015625,214.3824005126953C108.31739807128906,214.1343994140625,108.04979705810547,213.94979858398438,107.74710083007812,213.8531036376953C105.81839752197266,213.23300170898438,88.8593978881836,211.72219848632812,74.1426010131836,210.85899353027344C42.14019775390625,208.98109436035156,39.12110137939453,210.89810180664062,38.12889862060547,211.52789306640625C36.21479797363281,212.74180603027344,33.578102111816406,216.6118927001953,32.7666015625,236.10499572753906C32.31489944458008,246.95269775390625,32.54350280761719,261.2846984863281,33.37840270996094,274.4429016113281C33.947200775146484,283.41461181640625,33.92720031738281,293.06988525390625,33.90959930419922,301.5893859863281C33.87840270996094,316.88531494140625,33.95750045776367,324.3326110839844,36.08049774169922,326.46051025390625C36.573699951171875,326.95458984375,37.182098388671875,327.21539306640625,37.83979797363281,327.21539306640625C39.590797424316406,327.21539306640625,41.415000915527344,326.7290954589844,43.526798248291016,326.16558837890625C46.423301696777344,325.3930969238281,49.70600128173828,324.51910400390625,53.49259948730469,324.79058837890625C56.16400146484375,324.9840087890625,58.53850173950195,325.3804016113281,60.44670104980469,325.69879150390625C63.99259948730469,326.28961181640625,66.13420104980469,326.64801025390625,67.30799865722656,325.18609619140625C69.00970458984375,323.0621032714844,70.65080261230469,284.2221984863281,70.66400146484375,283.8345031738281C70.83489990234375,278.7680969238281,73.25379943847656,270.7143859863281,75.08200073242188,265.57861328125C75.2958984375,267.53948974609375,75.51950073242188,269.7973937988281,75.720703125,271.83349609375C76.20700073242188,276.76611328125,76.71089935302734,281.86669921875,77.2343978881836,285.22021484375C77.79889678955078,288.84320068359375,77.70899963378906,298.10400390625,77.62889862060547,306.2738952636719C77.4541015625,324.2992858886719,77.658203125,324.93798828125,79.57620239257812,325.2533874511719C80.29299926757812,325.37060546875,81.31449890136719,325.2221984863281,83.55370330810547,324.87060546875C87.0166015625,324.3276062011719,92.24800109863281,323.51019287109375,97.74710083007812,323.8218078613281C100.42680358886719,323.9761047363281,102.59089660644531,324.2261047363281,104.3291015625,324.42730712890625C108.39749908447266,324.89801025390625,111.08589935302734,325.21148681640625,112.0009994506836,322.4761047363281C112.82230377197266,320.02490234375,115.23539733886719,296.88531494140625,115.23539733886719,285.8100891113281C115.23539733886719,284.4516906738281,115.2666015625,282.49859619140625,115.30470275878906,280.10211181640625C115.74710083007812,252.3345947265625,115.28710174560547,222.81210327148438,108.5166015625,214.3824005126953zM112.05470275878906,280.0504150390625C112.0166015625,282.46929931640625,111.98539733886719,284.4390869140625,111.98539733886719,285.8102111816406C111.98539733886719,296.6831970214844,109.58110046386719,319.2066955566406,108.91999816894531,321.43231201171875C108.37409973144531,321.6257019042969,106.42880249023438,321.39910888671875,104.70320129394531,321.19891357421875C102.92289733886719,320.9927978515625,100.70709991455078,320.73699951171875,97.93270111083984,320.5777893066406C92.09290313720703,320.2388916015625,86.43170166015625,321.12860107421875,83.04989624023438,321.6597900390625C82.35169982910156,321.7691955566406,81.59970092773438,321.8872985839844,81.02159881591797,321.9635009765625C80.7520980834961,319.3345947265625,80.82240295410156,312.19488525390625,80.87899780273438,306.3052978515625C80.96399688720703,297.6040954589844,81.0519027709961,288.6070861816406,80.44539642333984,284.7203063964844C79.93659973144531,281.45660400390625,79.41510009765625,276.1744079589844,78.9542007446289,271.5141906738281C77.69930267333984,258.8052062988281,77.59480285644531,258.7680969238281,76.31749725341797,258.31109619140625C75.72959899902344,258.1011047363281,75.00499725341797,258.2672119140625,74.56069946289062,258.71148681640625C73.20330047607422,260.06988525390625,67.68280029296875,275.81109619140625,67.41619873046875,283.7251892089844C67.11790466308594,292.5758056640625,65.56950378417969,318.56109619140625,64.71110534667969,322.97320556640625C63.93280029296875,322.9664001464844,62.32099914550781,322.71728515625,60.98210144042969,322.4927062988281C59.00749969482422,322.1636047363281,56.54999923706055,321.7533874511719,53.72719955444336,321.54840087890625C49.395198822021484,321.2417907714844,45.677398681640625,322.22808837890625,42.68910217285156,323.0249938964844C40.98789978027344,323.4790954589844,39.49530029296875,323.87750244140625,38.248199462890625,323.95269775390625C37.11830139160156,321.7710876464844,37.14030075073242,311.0757141113281,37.15979766845703,301.5953063964844C37.17790222167969,293.0268859863281,37.197898864746094,283.31500244140625,36.621700286865234,274.2379150390625C34.70759963989258,244.06019592285156,36.19449996948242,216.5991973876953,39.869300842285156,214.27310180664062C39.87030029296875,214.2720947265625,39.87080001831055,214.2720947265625,39.871299743652344,214.2720947265625C40.213600158691406,214.05430603027344,42.09490203857422,213.30430603027344,51.68920135498047,213.30430603027344C56.676998138427734,213.30430603027344,63.749698638916016,213.5074005126953,73.772705078125,214.09339904785156C89.40840148925781,215.00650024414062,103.41629791259766,216.35800170898438,106.30979919433594,216.8551025390625C112.91110229492188,226.3354949951172,112.29100036621094,265.25347900390625,112.05470275878906,280.0504150390625zM83.15139770507812,219.76620483398438C83.345703125,225.10899353027344,83.7051010131836,235.0552978515625,83.13970184326172,238.9145965576172C82.96199798583984,240.1743927001953,81.41510009765625,240.43609619140625,76.54109954833984,240.62359619140625C76.0958023071289,240.64120483398438,75.75589752197266,240.6519012451172,75.60260009765625,240.66749572753906C75.53230285644531,240.68310546875,75.46099853515625,240.69000244140625,75.39070129394531,240.69000244140625C75.00299835205078,240.69000244140625,74.63479614257812,240.4644012451172,74.4718017578125,240.0865020751953C74.25299835205078,239.57969665527344,74.48640441894531,238.9907989501953,74.99330139160156,238.77200317382812C75.2218017578125,238.67340087890625,75.36239624023438,238.66749572753906,76.46299743652344,238.62550354003906C77.44349670410156,238.58740234375,80.2354965209961,238.47999572753906,81.21499633789062,238.21139526367188C81.67500305175781,234.24850463867188,81.33799743652344,224.92919921875,81.15350341796875,219.83839416503906L81.10079956054688,218.35400390625C81.081298828125,217.8022003173828,81.51390075683594,217.3394012451172,82.06559753417969,217.32080078125C82.61150360107422,217.26609802246094,83.0802001953125,217.73390197753906,83.09880065917969,218.2855987548828L83.15139770507812,219.76620483398438z"/>
<path id="Body" fill="#FADBBD" d="M97.74710083007812,323.8218994140625C100.07060241699219,323.9556884765625,101.98609924316406,324.1600036621094,103.59290313720703,324.343505859375C103.30390167236328,329.19158935546875,102.95500183105469,334.1278991699219,102.5801010131836,337.4599914550781C101.59010314941406,346.260009765625,100.64009857177734,358.79998779296875,100.40010070800781,364.3999938964844C100.16010284423828,370,88.0000991821289,371.94000244140625,88.0000991821289,370.4700012207031C88.0000991821289,369,87.39009857177734,357.239990234375,85.59010314941406,340.6499938964844C84.90029907226562,334.29229736328125,84.51139831542969,329.0981140136719,84.27899932861328,324.75830078125C87.72530364990234,324.222900390625,92.60970306396484,323.5309143066406,97.74710083007812,323.8218994140625zM105.26000213623047,188.0500030517578C105.26000213623047,197.36000061035156,102.81999969482422,213.58999633789062,101.31999969482422,217.25999450683594C99.81999969482422,220.92999267578125,98.52999877929688,220.0800018310547,98.37999725341797,220.6699981689453C98.13999938964844,223.36000061035156,108.83999633789062,236.6699981689453,109.43000030517578,234.5800018310547C110.0199966430664,232.49000549316406,108.54000091552734,227.63999938964844,110.16999816894531,223.8000030517578C112.9552993774414,216.57980346679688,115.23739624023438,209.17539978027344,117,201.63999938964844C119.69000244140625,190.88999938964844,121,185.85000610351562,121,185.85000610351562S105.26000213623047,182.74000549316406,105.26000213623047,188.0500030517578zM59.529998779296875,221.72999572753906C57.470001220703125,219.9600067138672,50.279998779296875,219.00999450683594,48.529998779296875,216.0500030517578C46.779998779296875,213.08999633789062,38.22999954223633,189.17999267578125,38.22999954223633,189.17999267578125S25.119998931884766,197.75,26.149999618530273,199.3699951171875C29.040000915527344,203.91000366210938,35.150001525878906,216.110107421875,36.47999954223633,222.02000427246094C37.80999755859375,227.92999267578125,39.72999954223633,237.67999267578125,40.90999984741211,236.94000244140625C42.0900993347168,236.1999969482422,54.5,224.8300018310547,55.2400016784668,225.1199951171875C55.97999954223633,225.41000366210938,63.369998931884766,228.6699981689453,64.4000015258789,225.860107421875C65.43000030517578,223.0500030517578,61.59000015258789,223.5,59.529998779296875,221.72999572753906zM60.446800231933594,325.69879150390625C58.53860092163086,325.3804016113281,56.164100646972656,324.9840087890625,53.492698669433594,324.79058837890625C49.70610046386719,324.51910400390625,46.42340087890625,325.3930969238281,43.52690124511719,326.16558837890625C43.2692985534668,326.23431396484375,43.0281982421875,326.2959899902344,42.77870178222656,326.3616027832031C43.01530075073242,328.5564880371094,43.24250030517578,330.7073974609375,43.41999816894531,332.659912109375C44.220001220703125,341.45989990234375,47.25,370.3099060058594,47.25,370.3099060058594C47.25,370.3099060058594,55.529998779296875,371.9898986816406,56.470001220703125,370.3099060058594C57.61000061035156,360.639892578125,61.52000045776367,341.3598937988281,61.59989929199219,330.8598937988281C61.613800048828125,329.04058837890625,61.61050033569336,327.3996887207031,61.59640121459961,325.88751220703125C61.22919845581055,325.82879638671875,60.849700927734375,325.7659912109375,60.446800231933594,325.69879150390625zM86.03009796142578,104.1593017578125C84.29789733886719,102.66739654541016,82.69609832763672,100.63610076904297,81.7300033569336,97.95999908447266C80.5,94.55259704589844,79.9990005493164,91.92919921875,79.82520294189453,89.908203125C76.28489685058594,92.22059631347656,72.51190185546875,93.55000305175781,68.8800048828125,93.55000305175781C65.19229888916016,93.55000305175781,61.311798095703125,92.1178970336914,57.66999816894531,89.65029907226562C58.08940124511719,92.30960083007812,57.97760009765625,94.904296875,55.83000183105469,97.70999908447266C54.33599853515625,99.66179656982422,52.91320037841797,100.88880157470703,51.41429901123047,101.6593017578125C55.326499938964844,107.90779876708984,62.266998291015625,111.66929626464844,69.69999694824219,111.47000122070312C79.31060028076172,111.47000122070312,84.03610229492188,106.93599700927734,86.03009796142578,104.1593017578125z"/>
<path id="Head" fill="#FFFFFF" d="M96.12999725341797,59.209999084472656C96.12999725341797,77.20999908447266,81.62999725341797,93.55000305175781,68.8800048828125,93.55000305175781C56.369998931884766,93.55000305175781,41.62000274658203,77.16999816894531,41.62000274658203,59.209999084472656C41.62000274658203,56.58000183105469,41.87999725341797,45.9900016784668,42.37999725341797,43.790000915527344C45.27000045776367,31,56,25.540000915527344,68.8800048828125,25.540000915527344S92.45999908447266,31,95.36000061035156,43.7400016784668C95.87000274658203,46,96.12999725341797,56.54999923706055,96.12999725341797,59.209999084472656z"/>
<path id="shoes" fill="#00ADA8" d="M46.54999923706055,362C42.29999923706055,362,41.84000015258789,365,38.70000076293945,368.2799987792969C35.55999755859375,371.55999755859375,31.170000076293945,377.3800048828125,25.790000915527344,378.82000732421875C20.40999984741211,380.260009765625,18.40999984741211,388.7300109863281,22.610000610351562,391.94000244140625C26.810001373291016,395.1499938964844,37.22999954223633,396.5199890136719,45.54999923706055,391.0299987792969C53.869998931884766,385.5400085449219,63.75,376.9100036621094,63.119998931884766,373.0299987792969C62.4900016784668,369.1499938964844,60.93000030517578,363.1400146484375,59.040000915527344,362.8299865722656C57.150001525878906,362.5199890136719,58.41999816894531,367.05999755859375,56.040000915527344,366.9100036621094S51.40999984741211,362,46.54999923706055,362zM85.55999755859375,364.45001220703125C85.55999755859375,364.45001220703125,82.12000274658203,366.2900085449219,82.26000213623047,369.69000244140625C82.4000015258789,373.0899963378906,78.43000030517578,379.19000244140625,83.95999908447266,381.4599914550781C89.48999786376953,383.7300109863281,96.86000061035156,384.4599914550781,103.0999984741211,385.8500061035156C109.33999633789062,387.239990234375,120.4800033569336,389.510009765625,125.81999969482422,388.0299987792969C131.16000366210938,386.54998779296875,132.05999755859375,380.67999267578125,130.26998901367188,376.6099853515625C126.63999938964844,368.3900146484375,118.2699966430664,371.6700134277344,114.01000213623047,368.8399963378906C109.75,366.010009765625,105.01000213623047,359.1600036621094,101.48999786376953,360.29998779296875C97.97000122070312,361.44000244140625,102.38999938964844,367.17999267578125,93.5999984741211,368.4100036621094C83.12000274658203,369.8800048828125,85.55999755859375,364.45001220703125,85.55999755859375,364.45001220703125z"/>
<path id="shoeToes" fill="#4D4C4D" d="M20.37540054321289,386.3533020019531C20.55109977722168,383.07769775390625,22.548900604248047,379.67181396484375,25.790000915527344,378.79998779296875C26.977500915527344,378.45880126953125,28.1117000579834,377.9538879394531,29.15999984741211,377.29998779296875C33.52000045776367,377.1199951171875,37.90999984741211,378.1199951171875,40.37000274658203,381.42999267578125C41.5349006652832,383.0390930175781,42.612998962402344,384.7073974609375,43.616798400878906,386.41949462890625C39.804500579833984,388.4682922363281,36.104000091552734,389.7959899902344,33.13999938964844,389.8399963378906C26.520000457763672,389.92999267578125,22.760000228881836,387.3599853515625,20.739999771118164,384.25C20.53730010986328,384.9386901855469,20.415599822998047,385.6488037109375,20.37540054321289,386.3533020019531zM125.81999969482422,388.0299987792969C121.55000305175781,389.2200012207031,113.55999755859375,388.0199890136719,107.3499984741211,386.760009765625C112.30000305175781,381.6499938964844,116.86000061035156,374.07000732421875,117.69999694824219,370.07000732421875C122.04000091552734,370.760009765625,127.5199966430664,370.3800048828125,130.26998901367188,376.6099853515625C132.05999755859375,380.67999267578125,131.16000366210938,386.54998779296875,125.81999969482422,388.0299987792969z"/>
<path id="shoesBorder" d="M64.7240982055664,372.76910400390625C63.178199768066406,363.2466125488281,60.66450119018555,361.4497985839844,59.30270004272461,361.2261047363281C56.85300064086914,360.81988525390625,56.35300064086914,363.36669921875,56.16350173950195,364.32470703125C56.11130142211914,364.5884094238281,56.03310012817383,364.98291015625,55.94960021972656,365.2388000488281C55.489601135253906,365.05621337890625,54.73429870605469,364.40478515625,54.11119842529297,363.8677062988281C52.400299072265625,362.39410400390625,50.05699920654297,360.37451171875,46.54970169067383,360.37451171875C42.71910095214844,360.37451171875,41.21229934692383,362.41839599609375,39.61709976196289,364.5824890136719C39.00379943847656,365.41448974609375,38.37000274658203,366.2738952636719,37.52629852294922,367.15570068359375C36.96969985961914,367.7377014160156,36.37439727783203,368.39691162109375,35.74259948730469,369.09710693359375C32.89399719238281,372.25531005859375,29.349000930786133,376.18499755859375,25.369600296020508,377.2503967285156C22.19580078125,378.1000061035156,19.668899536132812,381.05218505859375,18.932600021362305,384.7698974609375C18.253398895263672,388.2015075683594,19.284198760986328,391.44281005859375,21.623001098632812,393.2308044433594C24.005800247192383,395.0520935058594,28.178199768066406,396.3724060058594,32.91349792480469,396.3724060058594C37.266998291015625,396.3724060058594,42.096099853515625,395.25518798828125,46.444698333740234,392.3861083984375C47.23630142211914,391.8638916015625,65.81930541992188,379.5162048339844,64.7240982055664,372.76910400390625zM44.65480041503906,389.67340087890625C36.9375,394.7662048339844,27.30470085144043,393.48388671875,23.596698760986328,390.64898681640625C22.51689910888672,389.82330322265625,22.07659912109375,388.5238037109375,22.000900268554688,387.23541259765625C24.213699340820312,389.2336120605469,27.680099487304688,390.9418029785156,33.15530014038086,390.84039306640625C41.24610137939453,390.7196044921875,54.670101165771484,381.5342102050781,61.51470184326172,373.3291931152344C61.80160140991211,375.61151123046875,54.69580078125,383.04779052734375,44.65480041503906,389.67340087890625zM33.12649917602539,388.84039306640625C28.262699127197266,388.91790771484375,24.635499954223633,387.49810791015625,22.30970001220703,384.6723937988281C22.95009994506836,382.51580810546875,24.421600341796875,380.868408203125,26.210498809814453,380.3891906738281C27.80389976501465,379.9627990722656,29.289600372314453,379.2157897949219,30.679100036621094,378.2867126464844C33.800201416015625,378.36309814453125,37.43709945678711,379.1603088378906,39.56010055541992,382.0172119140625C40.499000549316406,383.3132019042969,41.36980056762695,384.6628112792969,42.20359802246094,386.0357971191406C38.847198486328125,387.7351989746094,35.660499572753906,388.802490234375,33.12649917602539,388.84039306640625zM51.98970031738281,366.3297119140625C53.24700164794922,367.4136962890625,54.435001373291016,368.4371032714844,55.9375,368.53179931640625C58.343299865722656,368.6723937988281,59.00490188598633,366.56988525390625,59.274898529052734,365.3305969238281C59.81420135498047,366.4010009765625,60.47480010986328,368.28570556640625,61.02560043334961,370.7455139160156C57.26210021972656,375.7528991699219,50.462100982666016,381.4473876953125,43.969600677490234,385.0898132324219C43.089698791503906,383.63641357421875,42.167999267578125,382.2077941894531,41.17279815673828,380.83349609375C39.117401123046875,378.0682067871094,36.02289962768555,376.89019775390625,33.04100036621094,376.4736022949219C33.74700164794922,375.86419677734375,34.425498962402344,375.2237854003906,35.07600021362305,374.57110595703125L42.429100036621094,375.8450927734375C42.48619842529297,375.8548889160156,42.543399810791016,375.8597106933594,42.599998474121094,375.8597106933594C42.93840026855469,375.8597106933594,43.25870132446289,375.68780517578125,43.44419860839844,375.39581298828125C43.660499572753906,375.05499267578125,43.650699615478516,374.6164855957031,43.418800354003906,374.285400390625L40.38710021972656,369.9591979980469L46.422698974609375,370.731689453125C46.82210159301758,370.7756042480469,47.22489929199219,370.5823059082031,47.424198150634766,370.22491455078125C47.622398376464844,369.86749267578125,47.58340072631836,369.4241027832031,47.32460021972656,369.1076965332031L45.98149871826172,367.46160888671875L48.7494010925293,367.184814453125C49.29869842529297,367.1300964355469,49.69960021972656,366.639892578125,49.644901275634766,366.090087890625C49.5901985168457,365.5412902832031,49.102901458740234,365.151611328125,48.550201416015625,365.1946105957031L44.4650993347168,365.60308837890625L43.71379852294922,364.68218994140625C44.44340133666992,363.9667053222656,45.211700439453125,363.6242980957031,46.54970169067383,363.6242980957031C48.850101470947266,363.6246032714844,50.4463005065918,364.9996032714844,51.98970031738281,366.3297119140625zM38.155799865722656,371.2749938964844C38.29350280761719,371.1221923828125,38.422698974609375,370.9805908203125,38.55670166015625,370.8323059082031L40.400901794433594,373.4645080566406L36.74040222167969,372.82989501953125C37.22809982299805,372.3017883300781,37.70100021362305,371.77911376953125,38.155799865722656,371.2749938964844zM41.14310073852539,367.94580078125L43.595699310302734,367.7005920410156L44.190399169921875,368.4294128417969L41.072898864746094,368.0304870605469C41.09550094604492,368.00250244140625,41.12080001831055,367.9735107421875,41.14310073852539,367.94580078125zM131.75588989257812,375.9537048339844C129.03421020507812,369.78961181640625,123.95020294189453,369.19390869140625,119.86630249023438,368.7143859863281C117.92489624023438,368.4869079589844,116.09089660644531,368.2720031738281,114.9093017578125,367.4869079589844C113.56649780273438,366.5953063964844,112.08309936523438,365.1831970214844,110.64759826660156,363.8179931640625C107.34290313720703,360.6754150390625,104.21990203857422,357.7085876464844,100.99040222167969,358.7544860839844C98.69450378417969,359.4977111816406,98.3644027709961,361.52789306640625,98.14569854736328,362.8706970214844C97.84300231933594,364.73590087890625,97.60369873046875,366.2085876464844,93.37419891357422,366.8004150390625C88.37220001220703,367.5015869140625,87.26480102539062,366.4410095214844,87.09490203857422,366.2203063964844C86.78140258789062,365.8169860839844,87.0353012084961,365.13629150390625,87.0510025024414,365.0953063964844C87.32350158691406,364.46539306640625,87.17109680175781,363.7309875488281,86.66819763183594,363.2622985839844C86.160400390625,362.7867126464844,85.40550231933594,362.69000244140625,84.79319763183594,363.0172119140625C84.61640167236328,363.1119079589844,80.4572982788086,365.3883056640625,80.63600158691406,369.75738525390625C80.66719818115234,370.4996032714844,80.39669799804688,371.58648681640625,80.11060333251953,372.7369079589844C79.30979919433594,375.95269775390625,78.10079956054688,380.81109619140625,83.34300231933594,382.9624938964844C87.2863998413086,384.58160400390625,92.05000305175781,385.4352111816406,96.65550231933594,386.2604064941406C98.79119873046875,386.6431884765625,100.80879974365234,387.0044860839844,102.74629974365234,387.4361877441406C108.34100341796875,388.68231201171875,115.67990112304688,390.13641357421875,121.32340240478516,390.13641357421875C123.19550323486328,390.13641357421875,124.88099670410156,389.9772033691406,126.25409698486328,389.5964050292969C128.78530883789062,388.89520263671875,130.69839477539062,387.31219482421875,131.78729248046875,385.018310546875C133.05270385742188,382.3492126464844,133.0419921875,378.87750244140625,131.75588989257812,375.9537048339844zM119.48729705810547,371.9419860839844C123.25389862060547,372.3843994140625,126.8115005493164,372.8013916015625,128.78219604492188,377.2643127441406C129.03170776367188,377.8320007324219,129.20730590820312,378.434814453125,129.32260131835938,379.0469055175781C126.95700073242188,381.0083923339844,123.464599609375,382.1182861328125,115.95500183105469,381.55340576171875C115.10659790039062,381.4883117675781,114.13939666748047,381.385986328125,113.1135025024414,381.2637023925781C115.44249725341797,377.93609619140625,117.33619689941406,374.48199462890625,118.24500274658203,371.7880859375C118.65950012207031,371.8428955078125,119.07460021972656,371.8935852050781,119.48729705810547,371.9419860839844zM115.80370330810547,383.5474853515625L115.80470275878906,383.5474853515625C122.21299743652344,384.02740478515625,126.3324966430664,383.4283142089844,129.43310546875,381.43701171875C129.35379028320312,382.21978759765625,129.16229248046875,382.9678039550781,128.85060119628906,383.6246032714844C128.16900634765625,385.0600891113281,127.00389862060547,386.0162048339844,125.38580322265625,386.4635009765625C120.01959991455078,387.9537048339844,107.55079650878906,385.1773986816406,103.45320129394531,384.2643127441406C101.44930267333984,383.8169860839844,99.30380249023438,383.4331970214844,97.22859954833984,383.0611877441406C92.79010009765625,382.26629638671875,88.20030212402344,381.4440002441406,84.57720184326172,379.9566955566406C83.0259017944336,379.3196105957031,82.54859924316406,378.364013671875,82.65380096435547,376.7618103027344C92.08390045166016,379.8728942871094,107.92340087890625,382.94329833984375,115.80370330810547,383.5474853515625zM111.73200225830078,369.16650390625L109.89749908447266,369.7076110839844L110.24310302734375,367.8837890625C110.73760223388672,368.3320007324219,111.23390197753906,368.7644958496094,111.73200225830078,369.16650390625zM106.97019958496094,364.8221130371094L106.55460357666016,364.8507080078125L106.54429626464844,364.43438720703125C106.6865005493164,364.5624084472656,106.82849884033203,364.69158935546875,106.97019958496094,364.8221130371094zM83.88379669189453,369.62359619140625C83.85649871826172,368.9742126464844,84.03520202636719,368.3960876464844,84.30670166015625,367.89898681640625C84.36329650878906,367.9879150390625,84.42289733886719,368.0747985839844,84.48739624023438,368.1617126464844C85.93560028076172,370.0885009765625,88.9884033203125,370.6958923339844,93.82530212402344,370.01910400390625C100.4269027709961,369.0953063964844,101.00689697265625,365.5249938964844,101.35359954833984,363.39208984375C101.57430267333984,362.0346984863281,101.66809844970703,361.9507141113281,101.99130249023438,361.84619140625C102.61260223388672,361.6460876464844,103.50559997558594,362.0575866699219,104.50180053710938,362.7618103027344L104.55690002441406,364.98809814453125L103.20130157470703,365.0815124511719C102.64949798583984,365.1195983886719,102.2344970703125,365.59710693359375,102.27159881591797,366.14788818359375C102.31069946289062,366.7005920410156,102.79309844970703,367.1087951660156,103.33799743652344,367.0776062011719L104.60639953613281,366.9902038574219L104.65049743652344,368.7738952636719C104.66419982910156,369.31781005859375,105.1094970703125,369.74951171875,105.65049743652344,369.74951171875C105.6583023071289,369.74951171875,105.66709899902344,369.74951171875,105.67489624023438,369.74951171875C106.22760009765625,369.7358093261719,106.66419982910156,369.27679443359375,106.65049743652344,368.72509765625L106.60420227050781,366.85260009765625L108.4269027709961,366.72711181640625L107.62809753417969,370.9429016113281C107.56269836425781,371.28570556640625,107.68080139160156,371.63720703125,107.9395980834961,371.87060546875C108.1260986328125,372.03948974609375,108.36540222167969,372.12939453125,108.6104965209961,372.12939453125C108.7052001953125,372.12939453125,108.80000305175781,372.1156921386719,108.8936996459961,372.0884094238281L113.8572998046875,370.6246032714844C114.60289764404297,371.0008850097656,115.4083023071289,371.2567138671875,116.24230194091797,371.44488525390625C115.3197021484375,373.9985046386719,113.36830139160156,377.53070068359375,110.8655014038086,380.9715881347656C102.42279815673828,379.7854919433594,90.35540008544922,377.22900390625,82.97129821777344,374.7598876953125C83.056396484375,374.37310791015625,83.1541976928711,373.9624938964844,83.26380157470703,373.5220031738281C83.6083984375,372.1383056640625,83.93360137939453,370.83160400390625,83.88379669189453,369.62359619140625z"/>
<path id="soles" fill="#FFFFFF" d="M21.369098663330078,386.6412048339844C21.327098846435547,388.35308837890625,21.840801239013672,390.0893859863281,23.210899353027344,391.1206970214844C27.075199127197266,394.0621032714844,37.053199768066406,395.4176025390625,44.999000549316406,390.1754150390625C54.73970031738281,383.74859619140625,62.585899353027344,375.9606018066406,62.1328010559082,373.1705017089844C62.11130142211914,373.0122985839844,62.08689880371094,372.8501892089844,62.059600830078125,372.68218994140625C55.39939880371094,381.0426025390625,41.458499908447266,390.7164001464844,33.15530014038086,390.84039306640625C27.14109992980957,390.9518127441406,23.533199310302734,388.8833923339844,21.369098663330078,386.6412048339844zM82.03710174560547,376.5611877441406C81.87789916992188,378.66571044921875,82.57319641113281,379.82000732421875,84.33499908447266,380.53289794921875C88.02449798583984,382.04071044921875,92.64949798583984,382.8717956542969,97.12210083007812,383.6755065917969C99.18949890136719,384.0466003417969,101.32720184326172,384.4303894042969,103.31739807128906,384.87469482421875C107.45220184326172,385.7945861816406,120.0342025756836,388.5964050292969,125.55280303955078,387.06610107421875C128.6339111328125,386.2106018066406,129.97760009765625,383.63250732421875,130.09190368652344,380.9841003417969C126.91809844970703,383.33758544921875,122.6769027709961,384.06219482421875,115.80480194091797,383.547607421875L115.80380249023438,383.547607421875C107.75389862060547,382.9302978515625,91.38089752197266,379.7398986816406,82.03710174560547,376.5611877441406z"/>
<path id="shirt" fill="#FF4824" d="M119.63999938964844,163.86000061035156C119.27999877929688,161.30999755859375,120.01000213623047,160.22000122070312,120.01000213623047,160.22000122070312C119.50630187988281,158.84219360351562,118.89779663085938,157.50489807128906,118.19000244140625,156.22000122070312C117.45999908447266,155.1199951171875,120.27999877929688,153.99000549316406,120.05000305175781,152.36000061035156C119.81999969482422,150.72999572753906,118.18000030517578,150.38999938964844,117.81999969482422,148.1999969482422C117.45999908447266,146.00999450683594,117.45999908447266,133.25,116,123.7699966430664L115.99199676513672,123.7782974243164C114.51789855957031,114.27149963378906,107.56189727783203,107.77860260009766,102.0999984741211,106.81999969482422C96.62999725341797,105.86000061035156,87.26000213623047,102.05000305175781,87.26000213623047,102.05000305175781C87.26000213623047,102.05000305175781,83.55000305175781,111.47000122070312,69.69999694824219,111.47000122070312C61.835601806640625,111.68090057373047,54.517799377441406,107.46179962158203,50.7599983215332,100.55000305175781C47.055198669433594,102.16600036621094,43.199798583984375,103.41200256347656,39.25,104.2699966430664C34.87999725341797,105.38999938964844,24.350000381469727,109.2699966430664,21.979999542236328,118.38999938964844C20.450000762939453,124.30999755859375,19.450000762939453,132.60000610351562,18.630001068115234,139.5399932861328L18.659900665283203,139.5915069580078L18.630001068115234,139.58999633789062C18.200000762939453,143.33999633789062,17.809999465942383,146.6999969482422,17.43000030517578,149.05999755859375C16.329999923706055,155.8000030517578,15.139999389648438,172.52999877929688,14.960000038146973,173.8000030517578C14.779999732971191,175.07000732421875,14.579999923706055,178,14.579999923706055,178C14.579999923706055,178,12.059999465942383,179.69000244140625,12.75,181.80999755859375C13.440000534057617,183.92999267578125,15.880000114440918,183.2899932861328,16.440000534057617,184.92999267578125C17,186.57000732421875,15.239999771118164,188.94000244140625,18.119998931884766,190.39999389648438C21,191.86000061035156,19,189.77999877929688,21.489999771118164,196.27999877929688C22.75,199.57000732421875,22.06999969482422,199.27999877929688,24.600000381469727,200C27.105199813842773,200.73680114746094,35.41339874267578,195.52609252929688,39.32419967651367,192.21890258789062C41.687400817871094,198.75340270996094,47.16790008544922,213.74609375,48.529998779296875,216.0500030517578C48.569000244140625,216.11599731445312,48.6245002746582,216.17579650878906,48.66889953613281,216.23980712890625C54.42679977416992,215.9040069580078,61.55379867553711,215.2353057861328,68.16000366210938,216.05990600585938C78.54149627685547,217.35580444335938,92.61289978027344,218.83819580078125,100.38670349121094,219.05799865722656C100.68209838867188,218.62680053710938,100.99549865722656,218.05380249023438,101.31999969482422,217.25990295410156C102.7217025756836,213.83050537109375,104.943603515625,199.435302734375,105.22889709472656,189.96600341796875C113.52670288085938,187.5377960205078,122.92990112304688,189.5399932861328,122.92990112304688,189.5399932861328C124.37999725341797,188.4499969482422,120,166.41000366210938,119.63999938964844,163.86000061035156zM34.88690185546875,169.3948974609375C35.13169860839844,171.2021942138672,35.38140106201172,173.53660583496094,35.623199462890625,176.18710327148438C34.929500579833984,174.49929809570312,34.459999084472656,173.35000610351562,34.459999084472656,173.35000610351562L34.88690185546875,169.3948974609375z"/>
<path id="BodyBorder" d="M85.0197982788086,105.418701171875C85.97229766845703,104.35079956054688,86.572998046875,103.38729858398438,86.91020202636719,102.76609802246094C85.45339965820312,101.47339630126953,84.09529876708984,99.72550201416016,83.25879669189453,97.4083023071289C82.26119995117188,94.64540100097656,81.77130126953125,92.4573974609375,81.54450225830078,90.69560241699219C84.02790069580078,88.95899963378906,86.40229797363281,86.75830078125,88.54000091552734,84.16320037841797C94.39640045166016,77.05480194091797,97.75479888916016,67.9595947265625,97.75479888916016,59.21009826660156C97.75479888916016,57.1338996887207,97.53410339355469,45.99380111694336,96.94429779052734,43.37900161743164C94.12889862060547,31.0093994140625,83.89939880371094,23.91510009765625,68.87979888916016,23.91510009765625C53.833900451660156,23.91510009765625,43.597599029541016,31.028900146484375,40.7952995300293,43.4296989440918C40.2156982421875,45.97949981689453,39.99500274658203,57.3911018371582,39.99500274658203,59.209999084472656C39.99500274658203,72.39289855957031,47.35380172729492,84.28479766845703,56.152801513671875,90.54029846191406C56.4031982421875,92.65850067138672,56.15909957885742,94.606201171875,54.539398193359375,96.72219848632812C51.76839828491211,100.34230041503906,49.42169952392578,101.10549926757812,46.0619010925293,101.24659729003906C45.01919937133789,101.29010009765625,43.98540115356445,101.90149688720703,43.56919860839844,103.14649963378906C46.01490020751953,102.42559814453125,48.420101165771484,101.57050323486328,50.7598991394043,100.54989624023438C51.231201171875,101.41680145263672,51.7588005065918,102.24120330810547,52.33620071411133,103.0198974609375C53.950599670410156,102.15119934082031,55.51029968261719,100.80130004882812,57.12049865722656,98.69779968261719C58.744598388671875,96.57569885253906,59.360599517822266,94.55079650878906,59.47079849243164,92.58979797363281C62.604000091552734,94.24669647216797,65.82099914550781,95.17479705810547,68.87969970703125,95.17479705810547C72.02580261230469,95.17479705810547,75.33260345458984,94.23819732666016,78.54720306396484,92.52760314941406C78.85420227050781,94.21749877929688,79.36489868164062,96.19400024414062,80.2020034790039,98.51170349121094C81.26679992675781,101.46260070800781,83.05729675292969,103.73860168457031,85.0197982788086,105.418701171875zM43.24509811401367,59.21009826660156C43.24509811401367,56.152000427246094,43.527801513671875,46.0718994140625,43.96480178833008,44.14860153198242C47.30419921875,29.371700286865234,61.00830078125,27.165199279785156,68.87979888916016,27.165199279785156C76.73819732666016,27.165199279785156,90.4207992553711,29.365400314331055,93.77529907226562,44.0973014831543C94.21769714355469,46.06169891357422,94.50479888916016,56.156898498535156,94.50479888916016,59.21009826660156C94.50479888916016,76.82879638671875,80.41500091552734,91.92489624023438,68.87979888916016,91.92489624023438C55.31489944458008,91.92489624023438,43.24509811401367,73.63050079345703,43.24509811401367,59.21009826660156zM45.03810119628906,332.5122985839844C45.564701080322266,338.30029296875,47.07469940185547,352.9447021484375,48.03340148925781,362.16400146484375C47.565399169921875,362.06451416015625,47.075599670410156,362,46.54999923706055,362C45.8656005859375,362,45.28739929199219,362.0851135253906,44.77259826660156,362.2294006347656C43.8120002746582,352.9879150390625,42.324302673339844,338.5539855957031,41.80179977416992,332.80731201171875C41.587799072265625,330.4529113769531,41.29499816894531,327.7492980957031,41.011802673339844,325.13330078125C42.00279998779297,324.8994140625,43.06399917602539,324.6033020019531,44.19150161743164,324.3096008300781C44.20800018310547,324.46240234375,44.22489929199219,324.61810302734375,44.2411994934082,324.769287109375C44.52640151977539,327.4039001464844,44.8213005065918,330.1265869140625,45.03810119628906,332.5122985839844zM63.206199645996094,324.4808044433594C63.233001708984375,326.3700866699219,63.243499755859375,328.468505859375,63.225101470947266,330.8725891113281C63.1708984375,337.96240234375,61.44089889526367,348.7369079589844,59.91460037231445,358.2427062988281C59.65950012207031,359.8316955566406,59.410400390625,361.385498046875,59.176300048828125,362.8778076171875C59.13079833984375,362.86358642578125,59.08599853515625,362.8374938964844,59.04010009765625,362.82989501953125C57.15010070800781,362.5198974609375,58.420101165771484,367.0599060058594,56.04010009765625,366.909912109375C55.79570007324219,366.8945007324219,55.552398681640625,366.82049560546875,55.307701110839844,366.7181091308594C55.693599700927734,364.0317077636719,56.189701080322266,360.9411926269531,56.70610046386719,357.72711181640625C58.21390151977539,348.33551025390625,59.92290115356445,337.6910095214844,59.975101470947266,330.8471984863281C59.995201110839844,328.22821044921875,59.979698181152344,325.9837951660156,59.946998596191406,323.968994140625C61.2047004699707,324.176513671875,62.298301696777344,324.3660888671875,63.206199645996094,324.4808044433594zM87.2051010131836,340.4751892089844C88.67130279541016,353.9873962402344,89.35929870605469,364.4447937011719,89.55979919433594,368.639404296875C87.91780090332031,368.54449462890625,86.8915023803711,368.15948486328125,86.25830078125,367.65948486328125C86.0062026977539,363.0054016113281,85.32109832763672,353.24139404296875,83.97460174560547,340.8247985839844C83.19969940185547,333.68438720703125,82.80249786376953,328.0209045410156,82.58100128173828,323.376708984375C83.49330139160156,323.235595703125,84.58170318603516,323.0614929199219,85.81120300292969,322.88531494140625C86.0271987915039,327.54058837890625,86.42140197753906,333.247314453125,87.2051010131836,340.4751892089844zM102.06909942626953,322.54229736328125C103.30349731445312,322.66900634765625,104.3759994506836,322.7987060546875,105.30680084228516,322.9042053222656C105.0009994506836,328.235107421875,104.61609649658203,333.9017028808594,104.19529724121094,337.64129638671875C103.4207992553711,344.5235900878906,102.66120147705078,353.7860107421875,102.25849914550781,360.18328857421875C101.99710083007812,360.18798828125,101.73970031738281,360.2192077636719,101.48989868164062,360.30010986328125C98.06790161132812,361.40838623046875,102.14630126953125,366.86279296875,94.30010223388672,368.2958068847656C95.26409912109375,367.9342041015625,96.21649932861328,367.4755859375,97.02529907226562,366.893310546875C98.14929962158203,366.0837097167969,98.73819732666016,365.2214050292969,98.77729797363281,364.330810546875C99.02439880371094,358.53289794921875,99.98429870605469,345.9967956542969,100.96479797363281,337.2781066894531C101.37879943847656,333.60040283203125,101.76319885253906,327.8974914550781,102.06909942626953,322.54229736328125zM65.9198989868164,223.74180603027344C66.28810119628906,224.52499389648438,66.28950500488281,225.42640686035156,65.92579650878906,226.41949462890625C65.62359619140625,227.2436981201172,65.02299499511719,227.8726043701172,64.1884994506836,228.23980712890625C62.41899871826172,229.01809692382812,59.510799407958984,228.58059692382812,55.303199768066406,226.8990020751953C53.69919967651367,228.0229949951172,49.099098205566406,232.04449462890625,46.51070022583008,234.3072052001953C43.458499908447266,236.97520446777344,42.25920104980469,238.01229858398438,41.77389907836914,238.3159942626953C41.46769714355469,238.50840759277344,41.125999450683594,238.6060028076172,40.78070068359375,238.6060028076172C40.53409957885742,238.6060028076172,40.286102294921875,238.5561981201172,40.04779815673828,238.45660400390625C38.55950164794922,237.83160400390625,37.79050064086914,235.5699005126953,35.477500915527344,225.01519775390625C35.27439880371094,224.08749389648438,35.07859802246094,223.1949005126953,34.894500732421875,222.37649536132812C33.61720275878906,216.70069885253906,27.56879997253418,204.62449645996094,24.779300689697266,200.24220275878906C24.77880096435547,200.24220275878906,24.77880096435547,200.24169921875,24.77880096435547,200.24169921875C24.73080062866211,200.1663055419922,24.681400299072266,200.0883026123047,24.634498596191406,200.00599670410156C25.369098663330078,200.20370483398438,26.57979965209961,199.91220092773438,28.02560043334961,199.31759643554688C31.039499282836914,204.31700134277344,36.73970031738281,215.77259826660156,38.06549835205078,221.6634979248047C38.250999450683594,222.4866943359375,38.44779968261719,223.38519287109375,38.65239715576172,224.3197021484375C39.29890060424805,227.2698974609375,40.39849853515625,232.2864990234375,41.20220184326172,234.6136016845703C42.06549835205078,233.87530517578125,43.262699127197266,232.82940673828125,44.37160110473633,231.8596954345703C54.438499450683594,223.05990600585938,54.6245002746582,223.1322021484375,55.83300018310547,223.60679626464844L56.07419967651367,223.70449829101562C61.634300231933594,225.9945068359375,62.906700134277344,225.2532958984375,62.91749954223633,225.24549865722656C62.92729949951172,225.19859313964844,62.93360137939453,225.1575927734375,62.9379997253418,225.12339782714844C62.682098388671875,224.95249938964844,62.05270004272461,224.72889709472656,61.61920166015625,224.57460021972656C60.652400970458984,224.23080444335938,59.449798583984375,223.8031005859375,58.47129821777344,222.96229553222656C57.87799835205078,222.45249938964844,56.20320129394531,221.86659240722656,54.72570037841797,221.3489990234375C51.79890060424805,220.32359313964844,48.48160171508789,219.1614990234375,47.13100051879883,216.87730407714844C45.71440124511719,214.4813995361328,40.49340057373047,200.23379516601562,37.98429870605469,193.29559326171875C39.094600677490234,192.4434051513672,40.014801025390625,191.65440368652344,40.61989974975586,191.0261993408203C44.035099029541016,200.5032958984375,48.80099868774414,213.31590270996094,49.92879867553711,215.22300720214844C50.67539978027344,216.4866943359375,53.5172004699707,217.48179626464844,55.79990005493164,218.28160095214844C57.80229949951172,218.98280334472656,59.53129959106445,219.58819580078125,60.5890007019043,220.49740600585938C61.10850143432617,220.94369506835938,61.92150115966797,221.23280334472656,62.708099365234375,221.51199340820312C63.92679977416992,221.94590759277344,65.30760192871094,222.43710327148438,65.9198989868164,223.74180603027344zM121.78279876708984,189.33450317382812C121.12570190429688,191.9066925048828,120.05860137939453,196.11109924316406,118.57610321044922,202.0343017578125C116.80850219726562,209.5904998779297,114.48919677734375,217.11880493164062,111.6865005493164,224.38540649414062C110.8115005493164,226.4488983154297,110.9697036743164,228.9029998779297,111.1093978881836,231.06900024414062C111.20899963378906,232.61590576171875,111.2948989868164,233.95179748535156,110.99320220947266,235.02110290527344C110.75199890136719,235.87750244140625,110.00489807128906,236.42539978027344,109.1426010131836,236.42539978027344C109.01860046386719,236.42539978027344,108.8916015625,236.4136962890625,108.76270294189453,236.39019775390625C106.00389862060547,235.8824005126953,96.4531021118164,223.97909545898438,96.76170349121094,220.52499389648438C96.76950073242188,220.43809509277344,96.7842025756836,220.3520965576172,96.80560302734375,220.26820373535156C97.06439971923828,219.24960327148438,97.92279815673828,218.9508056640625,98.24600219726562,218.8385009765625C98.48139953613281,218.75650024414062,99.03209686279297,218.56410217285156,99.81629943847656,216.6450958251953C101.04019927978516,213.65029907226562,103.22799682617188,199.97970581054688,103.58380126953125,190.51499938964844C104.65450286865234,190.11199951171875,105.75509643554688,189.79139709472656,106.86470031738281,189.54339599609375C106.63880157470703,199.10519409179688,104.3812026977539,214.0670928955078,102.8240966796875,217.87550354003906C101.95980072021484,219.99070739746094,101.05359649658203,220.97019958496094,100.20890045166016,221.48980712890625C101.19329833984375,223.74859619140625,105.34760284423828,229.3267059326172,107.90619659423828,231.92340087890625C107.89350128173828,231.7104949951172,107.87979888916016,231.4936981201172,107.86620330810547,231.27789306640625C107.71089935302734,228.87750244140625,107.51850128173828,225.8883056640625,108.67379760742188,223.1656036376953C111.40229797363281,216.0885009765625,113.67870330810547,208.70469665527344,115.41790008544922,201.2696075439453C116.82980346679688,195.62860107421875,117.86470031738281,191.54559326171875,118.52999877929688,188.93789672851562C119.89219665527344,189.05589294433594,121.01249694824219,189.21099853515625,121.78279876708984,189.33450317382812z"/>
<path id="shirtBorder" d="M123.90619659423828,190.83900451660156C123.53019714355469,191.1201934814453,123.04879760742188,191.22720336914062,122.5916976928711,191.12950134277344C122.47160339355469,191.1051025390625,110.71379852294922,188.68080139160156,102.45989990234375,192.76429748535156C102.17179870605469,193.02699279785156,101.79969787597656,193.19110107421875,101.40129852294922,193.19110107421875C101.3749008178711,193.19110107421875,101.34860229492188,193.1905975341797,101.32219696044922,193.18910217285156C100.08200073242188,193.1217041015625,99.83679962158203,192.15980529785156,99.80069732666016,191.38250732421875L99.79679870605469,191.3820037841797C99.79779815673828,191.3737030029297,99.79879760742188,191.36489868164062,99.79969787597656,191.35609436035156C99.79090118408203,191.1446990966797,99.79679870605469,190.94740295410156,99.80169677734375,190.78729248046875L99.87200164794922,188.7570037841797C100.06629943847656,183.16319274902344,100.52239990234375,170.09100341796875,100.52529907226562,159.9582061767578C99.79090118408203,154.4571990966797,98.16690063476562,141.7530975341797,98.55950164794922,139.87710571289062C98.74310302734375,138.9987030029297,99.60540008544922,138.43370056152344,100.4832992553711,138.6197967529297C101.36119842529297,138.80340576171875,101.92469787597656,139.66470336914062,101.74109649658203,140.54310607910156C101.57610321044922,141.76620483398438,102.6365966796875,151.2198944091797,103.7605972290039,159.63490295410156C103.77040100097656,159.70620727539062,103.77519989013672,159.77850341796875,103.77519989013672,159.85020446777344C103.77519989013672,170.05430603027344,103.31520080566406,183.23980712890625,103.11990356445312,188.8697052001953C103.118896484375,188.8966064453125,103.1178970336914,188.92239379882812,103.11699676513672,188.9488067626953C110.11799621582031,186.3491973876953,118.19609832763672,187.14169311523438,121.61699676513672,187.66070556640625C121.53690338134766,183.64559936523438,119.40509796142578,171.82330322265625,118.64730072021484,167.62359619140625C118.33280181884766,165.88040161132812,118.1063003540039,164.62120056152344,118.03009796142578,164.08749389648438C117.76940155029297,162.23199462890625,117.99980163574219,160.95370483398438,118.25759887695312,160.18319702148438C117.83670043945312,159.1103973388672,117.34449768066406,158.0592041015625,116.79180145263672,157.04989624023438C115.79769897460938,155.4561004638672,117.11209869384766,154.05479431152344,117.7479019165039,153.3760986328125C117.98909759521484,153.11929321289062,118.3915023803711,152.68960571289062,118.44219970703125,152.5050048828125C118.4030990600586,152.32290649414062,118.25759887695312,152.1343994140625,117.84940338134766,151.66270446777344C117.27230072021484,150.99620056152344,116.4822006225586,150.0825958251953,116.21659851074219,148.46299743652344C116.07990264892578,147.63389587402344,116.00370025634766,145.80630493164062,115.88749694824219,143.03970336914062C115.6884994506836,138.27349853515625,115.3927001953125,131.22979736328125,114.57230377197266,125.25080108642578L114.49400329589844,125.33200073242188C114.47419738769531,124.81620025634766,114.44210052490234,124.38379669189453,114.39340209960938,124.06610107421875C113.08679962158203,115.53579711914062,106.84850311279297,109.30339813232422,101.81819915771484,108.42060089111328C97.45390319824219,107.65450286865234,90.86699676513672,105.20429992675781,88.02330017089844,104.09929656982422C86.28890228271484,106.9802017211914,81.2489013671875,113.09490203857422,69.70010375976562,113.09490203857422C61.70109939575195,113.30290222167969,54.313899993896484,109.3219985961914,50.079498291015625,102.6011962890625C46.692298889160156,103.98690032958984,43.172298431396484,105.08070373535156,39.59510040283203,105.85800170898438C37.374900817871094,106.42780303955078,25.892499923706055,109.79550170898438,23.552600860595703,118.79840087890625C22.05699920654297,124.58599853515625,21.0487003326416,132.92579650878906,20.30699920654297,139.19239807128906L20.594600677490234,139.6873016357422L20.245498657226562,139.6699981689453C20.24370002746582,139.7052001953125,20.24810028076172,139.73939514160156,20.243999481201172,139.77490234375C19.787500381469727,143.76119995117188,19.408599853515625,146.99510192871094,19.034500122070312,149.3184051513672C18.242000579833984,154.17190551757812,17.38610076904297,164.4698028564453,16.92609977722168,170.0019989013672C16.722000122070312,172.4571075439453,16.62190055847168,173.65390014648438,16.56869888305664,174.02789306640625C16.398799896240234,175.22569274902344,16.202999114990234,178.08160400390625,16.201000213623047,178.1103973388672C16.166799545288086,178.61239624023438,15.902700424194336,179.0699005126953,15.485199928283691,179.34970092773438C15.17609977722168,179.56260681152344,14.043800354003906,180.53570556640625,14.295299530029297,181.3072052001953C14.407600402832031,181.65289306640625,14.572599411010742,181.7716064453125,15.398300170898438,182.10159301757812C16.225000381469727,182.4326934814453,17.475000381469727,182.9322052001953,17.977399826049805,184.404296875C18.279600143432617,185.28909301757812,18.184900283813477,186.15139770507812,18.10140037536621,186.91209411621094C17.959300994873047,188.20750427246094,17.960800170898438,188.49710083007812,18.854801177978516,188.95069885253906C19.33769989013672,189.19529724121094,19.667301177978516,189.32859802246094,19.898300170898438,189.42190551757812C21.074600219726562,189.89849853515625,21.372900009155273,190.37840270996094,21.671199798583984,191.57859802246094C21.827899932861328,192.20849609375,22.11989974975586,193.3813018798828,23.007598876953125,195.6981964111328C23.272701263427734,196.3916015625,23.455799102783203,196.9315948486328,23.599899291992188,197.3583984375C23.690200805664062,197.62600708007812,23.789798736572266,197.92140197753906,23.857200622558594,198.0814971923828C24.049598693847656,198.1551971435547,24.434799194335938,198.26409912109375,24.80889892578125,198.37010192871094L25.044700622558594,198.43699645996094C27.095500946044922,198.8730010986328,37.44459915161133,192.32229614257812,39.58470153808594,189.7982940673828C38.161800384521484,186.6898956298828,33.88500213623047,176.24020385742188,32.955299377441406,173.96429443359375C32.85320281982422,173.7147979736328,32.81520080566406,173.4438018798828,32.84400177001953,173.1757049560547L36.384002685546875,140.37539672851562C36.480201721191406,139.48330688476562,37.28340148925781,138.83731079101562,38.17399978637695,138.93399047851562C39.06610107421875,139.0301971435547,39.71160125732422,139.83189392089844,39.61540222167969,140.7239990234375L36.52439880371094,169.36270141601562C36.76280212402344,171.13360595703125,37.001800537109375,173.3424072265625,37.2317008972168,175.8280029296875C39.53300094604492,181.4248046875,42.36180114746094,188.21389770507812,42.781402587890625,188.95449829101562C43.08660125732422,189.49009704589844,43.255001068115234,190.3759002685547,42.323402404785156,191.5531005859375C40.3760986328125,194.01449584960938,29.753599166870117,201.67320251464844,25.034299850463867,201.6741943359375C24.706199645996094,201.6741943359375,24.407299041748047,201.63710021972656,24.14120101928711,201.5590057373047L23.922901153564453,201.4969940185547C21.744701385498047,200.8798065185547,21.253999710083008,200.56979370117188,20.520599365234375,198.39889526367188C20.386798858642578,198.00340270996094,20.218399047851562,197.50289916992188,19.972299575805664,196.8607940673828C19.016700744628906,194.36619567871094,18.69300079345703,193.06829833984375,18.51919937133789,192.36959838867188C18.245800018310547,192.25729370117188,17.88050079345703,192.10060119628906,17.384899139404297,191.84910583496094C14.453300476074219,190.36329650878906,14.724699974060059,187.8876953125,14.870699882507324,186.55810546875C14.917099952697754,186.13429260253906,14.969799995422363,185.654296875,14.901900291442871,185.45460510253906C14.825699806213379,185.3730926513672,14.443900108337402,185.220703125,14.190999984741211,185.11920166015625C13.299400329589844,184.76280212402344,11.807700157165527,184.16610717773438,11.20419979095459,182.31300354003906C10.493800163269043,180.12939453125,11.795999526977539,178.23629760742188,13.01039981842041,177.16549682617188C13.083200454711914,176.19580078125,13.219900131225586,174.49560546875,13.350700378417969,173.5717010498047C13.3927001953125,173.2738037109375,13.529399871826172,171.63270568847656,13.68709945678711,169.73280334472656C14.151000022888184,164.15570068359375,15.013799667358398,153.77479553222656,15.825799942016602,148.79820251464844C16.188600540161133,146.54620361328125,16.563098907470703,143.34950256347656,17.015300750732422,139.40460205078125C17.01569938659668,139.4008026123047,17.017200469970703,139.3972930908203,17.0177001953125,139.39340209960938C17.019001007080078,139.37840270996094,17.013999938964844,139.36390686035156,17.01580047607422,139.34890747070312C17.77359962463379,132.93630981445312,18.81220054626465,124.1530990600586,20.40639877319336,117.98269653320312C23.135398864746094,107.4822006225586,35.210601806640625,103.627197265625,38.84629821777344,102.69560241699219C42.743797302246094,101.84750366210938,46.51380157470703,100.62920379638672,50.109500885009766,99.060302734375C50.8843994140625,98.72239685058594,51.7848014831543,99.03389739990234,52.18709945678711,99.77320098876953C55.67100143432617,106.18090057373047,62.3468017578125,110.043701171875,69.65629577636719,109.84500122070312C82.18800354003906,109.84449768066406,85.61090087890625,101.78839874267578,85.75050354003906,101.44560241699219C86.08940124511719,100.614501953125,87.04049682617188,100.2072982788086,87.87159729003906,100.54419708251953C87.9634017944336,100.58180236816406,97.14600372314453,104.30049896240234,102.38040161132812,105.21900177001953C108.6084976196289,106.31210327148438,115.95359802246094,113.39240264892578,117.56739807128906,123.3727035522461C117.58000183105469,123.42269897460938,117.5979995727539,123.47019958496094,117.60600280761719,123.52220153808594C118.59140014648438,129.92010498046875,118.91850280761719,137.73309326171875,119.1343002319336,142.90310668945312C119.23290252685547,145.2624969482422,119.31890106201172,147.30059814453125,119.42340087890625,147.93580627441406C119.54060363769531,148.65020751953125,119.86190032958984,149.02169799804688,120.30719757080078,149.53640747070312C120.83159637451172,150.14280700683594,121.48490142822266,150.89720153808594,121.65879821777344,152.1331024169922C121.88240051269531,153.7180938720703,120.8208999633789,154.8498992919922,120.1187973022461,155.59890747070312C120.03970336914062,155.6829071044922,119.94300079345703,155.78590393066406,119.8551025390625,155.88409423828125C120.49870300292969,157.10189819335938,121.06310272216797,158.3704071044922,121.53579711914062,159.66140747070312C121.7135009765625,160.147705078125,121.64910125732422,160.69020080566406,121.36100006103516,161.1208953857422C121.36199951171875,161.1204071044922,121.36199951171875,161.11990356445312,121.36199951171875,161.11990356445312C121.37079620361328,161.11990356445312,121.00559997558594,161.9095001220703,121.24870300292969,163.6331024169922C121.31510162353516,164.10479736328125,121.54949951171875,165.40310668945312,121.84539794921875,167.0467071533203C125.69139862060547,188.36920166015625,125.19730377197266,189.86830139160156,123.90619659423828,190.83900451660156zM55.709999084472656,176.9980926513672C55.537601470947266,177.5229949951172,55.82379913330078,178.08790588378906,56.348201751708984,178.2602996826172C61.49810028076172,179.95069885253906,66.60310363769531,181.95509338378906,71.52200317382812,184.2187957763672C71.65730285644531,184.2808074951172,71.79930114746094,184.3101043701172,71.93949890136719,184.3101043701172C72.31790161132812,184.3101043701172,72.67970275878906,184.09429931640625,72.84870147705078,183.7281036376953C73.0792007446289,183.22659301757812,72.85990142822266,182.6324005126953,72.35800170898438,182.40139770507812C67.37020111083984,180.10699462890625,62.19340133666992,178.0742950439453,56.9723014831543,176.35989379882812C56.44580078125,176.18910217285156,55.882301330566406,176.4741973876953,55.709999084472656,176.9980926513672zM67.74710083007812,171.28089904785156C67.66410064697266,171.25990295410156,59.38819885253906,169.14520263671875,53.1161994934082,167.05140686035156C52.594200134277344,166.87950134277344,52.02640151977539,167.16029357910156,51.85110092163086,167.68370056152344C51.676300048828125,168.2071075439453,51.95949935913086,168.77349853515625,52.4833984375,168.9488067626953C58.82469940185547,171.0655059814453,67.16940307617188,173.1977996826172,67.25289916992188,173.21929931640625C67.33589935302734,173.24029541015625,67.41889953613281,173.25010681152344,67.50050354003906,173.25010681152344C67.9468002319336,173.25010681152344,68.35400390625,172.9492950439453,68.46929931640625,172.4971923828125C68.60549926757812,171.96200561523438,68.28219604492188,171.4176025390625,67.74710083007812,171.28089904785156zM61.082000732421875,214.0386962890625C57.64939880371094,214.0386962890625,54.26459884643555,214.25650024414062,51.12590026855469,214.45860290527344C50.02870178222656,214.5294952392578,48.92580032348633,214.60000610351562,47.851600646972656,214.65719604492188C48.13090133666992,215.2866973876953,48.36220169067383,215.76620483398438,48.52989959716797,216.0500030517578C48.921199798583984,216.71189880371094,49.59339904785156,217.26930236816406,50.41059875488281,217.7617950439453C50.71649932861328,217.74229431152344,51.02130126953125,217.722900390625,51.33489990234375,217.70269775390625C56.54679870605469,217.3657989501953,62.454498291015625,216.98590087890625,67.95890045166016,217.67239379882812C83.50170135498047,219.61219787597656,92.79570007324219,220.39300537109375,98.40850067138672,220.60389709472656C98.63980102539062,220.15789794921875,99.8324966430664,220.73330688476562,101.22830200195312,217.46929931640625C95.01270294189453,217.34039306640625,82.56700134277344,216.2196044921875,68.36119842529297,214.4477996826172C65.95649719238281,214.1470947265625,63.5078010559082,214.0386962890625,61.082000732421875,214.0386962890625z"/>
<path id="Hair" fill="#AA6543" d="M84.79000091552734,12.619999885559082C84.87999725341797,14.40999984741211,83.56999969482422,18.619998931884766,76.1500015258789,18.15999984741211C68.72999572753906,17.700000762939453,56.45000076293945,14.690000534057617,48.47999954223633,20.790000915527344C40.51000213623047,26.889999389648438,39.37999725341797,33.45000076293945,39.47999954223633,35.33000183105469S37.30999755859375,39.73999786376953,39,47.900001525878906C40.69000244140625,56.060001373291016,42.779998779296875,69.08999633789062,42.779998779296875,69.08999633789062C42.779998779296875,69.08999633789062,40.220001220703125,57,47.779998779296875,48.560001373291016C55.34000015258789,40.12000274658203,56.779998779296875,34.38999938964844,56.779998779296875,34.38999938964844C56.779998779296875,34.38999938964844,57.779998779296875,38.33000183105469,64.94000244140625,41.04999923706055C72.0999984741211,43.77000045776367,74.79000091552734,44.709999084472656,74.79000091552734,44.709999084472656L73.0999984741211,40.209999084472656C76.46520233154297,41.222999572753906,79.70819854736328,42.604698181152344,82.7699966430664,44.33000183105469C91.0199966430664,48.650001525878906,96.37000274658203,57.88999938964844,97.19999694824219,57.400001525878906C98.51000213623047,44.58000183105469,94.0199966430664,40.400001525878906,94.0199966430664,40.400001525878906L101.52999877929688,48.099998474121094C101.52999877929688,48.099998474121094,99.33000183105469,35.70000076293945,93.41999816894531,28.479999542236328C89.6708984375,23.716899871826172,86.7531967163086,18.354900360107422,84.79000091552734,12.619999885559082z"/>
<path id="HairBorder" d="M103.12989807128906,47.81650161743164C103.03710174560547,47.29309844970703,100.78610229492188,34.91270065307617,94.69730377197266,27.475200653076172C91.05180358886719,22.84389877319336,88.23539733886719,17.66860008239746,86.32720184326172,12.093899726867676C86.06549835205078,11.327799797058105,85.27639770507812,10.871199607849121,84.4833984375,11.0246000289917C83.6875,11.177399635314941,83.12699890136719,11.892800331115723,83.16699981689453,12.701800346374512C83.17379760742188,12.835100173950195,83.20220184326172,14.032400131225586,82.16020202636719,15.062200546264648C81.01180267333984,16.19700050354004,78.96099853515625,16.705799102783203,76.2509994506836,16.537799835205078C74.89360046386719,16.453800201416016,73.33399963378906,16.277999877929688,71.68260192871094,16.09149932861328C64.42379760742188,15.27299976348877,54.48189926147461,14.15149974822998,47.4921989440918,19.49959945678711C39.52539825439453,25.596799850463867,37.70610046386719,32.57720184326172,37.857398986816406,35.41659927368164C37.87159729003906,35.68519973754883,37.732398986816406,36.18709945678711,37.5713005065918,36.7681999206543C37.027801513671875,38.72520065307617,36.11920166015625,42.0010986328125,37.40869903564453,48.22959899902344C38.77539825439453,54.8297004699707,40.42580032348633,64.7583999633789,40.98189926147461,68.15779876708984C41.0791015625,68.88529968261719,41.1708984375,69.33549499511719,41.18989944458008,69.42639923095703C41.35150146484375,70.18960571289062,42.02490234375,70.71549987792969,42.778297424316406,70.71549987792969C42.876399993896484,70.71549987792969,42.97650146484375,70.7061996459961,43.07659912109375,70.68769836425781C43.94380187988281,70.52659606933594,44.52389907836914,69.70330047607422,44.38420104980469,68.83270263671875C44.38079833984375,68.81269836425781,44.32849884033203,68.48550415039062,44.235801696777344,67.91719818115234C43.860801696777344,65.14959716796875,43.18450164794922,56.12620162963867,48.99020004272461,49.6442985534668C53.4453010559082,44.67070007324219,55.854000091552734,40.582298278808594,57.1078987121582,37.96019744873047C58.43939971923828,39.43579864501953,60.666500091552734,41.16529846191406,64.36280059814453,42.56909942626953C71.46189880371094,45.265899658203125,74.14360046386719,46.2057991027832,74.25389862060547,46.24440002441406C74.85060119628906,46.451900482177734,75.51270294189453,46.29759979248047,75.95210266113281,45.84600067138672C76.39350128173828,45.394798278808594,76.533203125,44.72930145263672,76.3115005493164,44.138999938964844L75.83100128173828,42.85919952392578C77.94920349121094,43.671199798583984,80.01460266113281,44.64289855957031,82.0156021118164,45.769798278808594C87.16699981689453,48.467098236083984,91.1884994506836,53.26390075683594,93.591796875,56.13019943237305C95.56539916992188,58.48419952392578,96.55269622802734,59.6693000793457,98.02639770507812,58.799598693847656C98.470703125,58.53739929199219,98.76470184326172,58.07889938354492,98.81639862060547,57.56520080566406C99.24320220947266,53.3932991027832,99.07129669189453,50.063201904296875,98.6240005493164,47.44850158691406L100.36720275878906,49.23509979248047C100.86519622802734,49.745399475097656,101.63670349121094,49.87229919433594,102.27249908447266,49.54610061645508C102.9072036743164,49.220298767089844,103.25489807128906,48.51860046386719,103.12989807128906,47.81650161743164zM95.23729705810547,39.3213996887207C95.17970275878906,39.260902404785156,95.1416015625,39.22419738769531,95.12689971923828,39.210601806640625C94.4823989868164,38.61000061035156,93.47260284423828,38.63349914550781,92.8573989868164,39.26429748535156C92.24019622802734,39.895599365234375,92.24019622802734,40.90299987792969,92.85639953613281,41.53479766845703L92.96379852294922,41.64520263671875C93.36810302734375,42.100799560546875,95.98139953613281,45.387901306152344,95.80560302734375,53.71310043334961C93.22160339355469,50.635501861572266,89.04389953613281,45.78150177001953,83.56729888916016,42.91480255126953C80.40619659423828,41.13310241699219,77.04190063476562,39.699501037597656,73.56829833984375,38.65409851074219C72.97650146484375,38.47589874267578,72.33390045166016,38.649200439453125,71.9124984741211,39.10040283203125C71.4906005859375,39.551597595214844,71.36119842529297,40.203399658203125,71.57849884033203,40.78160095214844L72.02670288085938,41.97540283203125C70.48320007324219,41.40509796142578,68.3479995727539,40.6067008972168,65.51689910888672,39.531097412109375C59.38560104370117,37.20199966430664,58.35580062866211,33.9901008605957,58.354801177978516,33.9901008605957C58.17219924926758,33.27179718017578,57.525699615478516,32.77130126953125,56.78450012207031,32.768402099609375C56.782501220703125,32.768402099609375,56.780601501464844,32.768402099609375,56.77859878540039,32.768402099609375C56.03929901123047,32.768402099609375,55.392398834228516,33.27130126953125,55.20539855957031,33.98670196533203C55.191200256347656,34.04090118408203,53.70439910888672,39.510597229003906,46.56919860839844,47.47639846801758C44.3651008605957,49.936798095703125,42.95790100097656,52.66339874267578,42.07849884033203,55.33530044555664C41.587799072265625,52.62189865112305,41.072200775146484,49.89390182495117,40.59120178222656,47.570701599121094C39.46080017089844,42.112701416015625,40.20790100097656,39.4193000793457,40.70249938964844,37.63759994506836C40.88479995727539,36.98030090332031,41.0452995300293,36.391700744628906,41.09199905395508,35.79229736328125C43.22269821166992,33.18199920654297,46.9193000793457,30.232500076293945,48.51599884033203,29.009199142456055C48.99599838256836,28.64150047302246,49.08679962158203,27.95400047302246,48.71910095214844,27.474000930786133C48.351898193359375,26.994998931884766,47.66490173339844,26.902700424194336,47.18389892578125,27.27090072631836C45.778900146484375,28.347400665283203,43.6697998046875,30.041200637817383,41.776100158691406,31.862899780273438C42.7406005859375,29.203500747680664,44.92190170288086,25.55970001220703,49.46760177612305,22.080900192260742C52.98619842529297,19.38800048828125,57.507198333740234,18.635601043701172,62.079898834228516,18.635601043701172C65.23910522460938,18.635601043701172,68.42369842529297,18.994998931884766,71.31819915771484,19.32110023498535C73.0115966796875,19.512001037597656,74.61119842529297,19.692699432373047,76.04959869384766,19.781999588012695C79.76640319824219,20.01340103149414,82.59349822998047,19.203399658203125,84.44409942626953,17.374300003051758C84.55349731445312,17.266399383544922,84.65599822998047,17.157499313354492,84.75370025634766,17.048599243164062C86.65989685058594,21.495899200439453,89.13939666748047,25.669700622558594,92.16190338134766,29.50950050354004C95.24690246582031,33.277099609375,97.29180145263672,38.62860107421875,98.50569915771484,42.67210006713867L95.23729705810547,39.3213996887207z"/>
</g>
</svg>