<svg xmlns="http://www.w3.org/2000/svg" xmlns:xlink="http://www.w3.org/1999/xlink" viewBox= "0 0 118 407" width="118px" height="407px">
<g xmlns="http://www.w3.org/2000/svg" id="TeenGirl3V2.svg">
<path id="Body" fill="#BF8C5C" d="M103.5,124.69999694824219C103.30000305175781,111,91.0999984741211,106.9000015258789,89.9000015258789,106.4000015258789C88.80000305175781,105.9000015258789,78,100.80000305175781,76.80000305175781,100.9000015258789C76.69999694824219,100.9000015258789,76.5999984741211,100.9000015258789,76.5,100.80000305175781C73.5,98.5999984741211,70.80000305175781,94.5,70.19999694824219,87C79.19999694824219,81,86.69999694824219,68.69999694824219,86.69999694824219,55.70000076293945C86.69999694824219,53,86.5,42.099998474121094,85.9000015258789,39.79999923706055C83,26.799999237060547,71.9000015258789,21.200000762939453,58.79999923706055,21.200000762939453C45.70000076293945,21.200000762939453,34.70000076293945,26.799999237060547,31.700000762939453,39.900001525878906C31.200000762939453,42.20000076293945,30.900001525878906,53,30.900001525878906,55.70000076293945C30.900001525878906,68.69999694824219,38.5,80.9000015258789,47.400001525878906,87C47.5,92.30000305175781,47,101.30000305175781,41.79999923706055,101.19999694824219C38,101.0999984741211,36.599998474121094,100.9000015258789,32.70000076293945,100.69999694824219C25.299999237060547,101.19999694824219,13.100000381469727,103.5,12.899999618530273,117.5999984741211C12.600000381469727,133.39999389648438,17.799999237060547,173.60000610351562,21.200000762939453,178.10000610351562C24.5,182.5,27,186.10000610351562,30.299999237060547,186.39999389648438C29.200000762939453,190.6999969482422,28.299999237060547,207.89999389648438,28.299999237060547,207.89999389648438C27.100000381469727,217.8000030517578,24.600000381469727,245.10000610351562,27.100000381469727,263C29.599998474121094,280.8999938964844,29.900001525878906,289.6000061035156,29.599998474121094,294.8999938964844L29.900001525878906,308.20001220703125C29.599998474121094,316.20001220703125,30.200000762939453,325.70001220703125,32.400001525878906,338.20001220703125C34.599998474121094,350.70001220703125,33.900001525878906,352.6000061035156,33,354.8999938964844C32.099998474121094,357.20001220703125,30.5,361.70001220703125,30.900001525878906,363.6000061035156C31.299999237060547,365.5,46.599998474121094,370.3999938964844,46.900001525878906,366.6000061035156C47.20000076293945,362.79998779296875,47.20000076293945,351.79998779296875,49.400001525878906,338.8999938964844C51.599998474121094,326,50.400001525878906,305.79998779296875,50.20000076293945,302.5C50,299.20001220703125,51.900001525878906,291.79998779296875,53.29999923706055,285.8999938964844C54.70000076293945,280,54.599998474121094,276.6000061035156,55.900001525878906,262.8999938964844C57.099998474121094,249.1999969482422,59.099998474121094,233.1999969482422,60,232.89999389648438C60.5,232.6999969482422,61.099998474121094,232.6999969482422,61.5,233.10000610351562C61.5,233.10000610351562,62.69999694824219,259.5,65.69999694824219,273.6000061035156C68.69999694824219,287.70001220703125,70.5999984741211,303.29998779296875,70.5999984741211,303.29998779296875C71.19999694824219,307.5,69.4000015258789,315.79998779296875,71.19999694824219,325C73,334.20001220703125,77.30000305175781,344,77.5999984741211,352.70001220703125C77.9000015258789,361.3999938964844,75.80000305175781,370.8999938964844,78.19999694824219,370.8999938964844C80.69999694824219,370.8999938964844,92.30000305175781,368.6000061035156,92.30000305175781,361C92.30000305175781,353.3999938964844,91.4000015258789,332.8999938964844,92.30000305175781,323C93.19999694824219,313.1000061035156,91.4000015258789,311.6000061035156,90.80000305175781,305.1000061035156L90.80000305175781,286.6000061035156L90.5999984741211,286.6000061035156C91.19999694824219,276,98.5999984741211,244.10000610351562,97.4000015258789,227.6999969482422C96.19999694824219,211.39999389648438,95,199.3000030517578,94.30000305175781,197.3000030517578C94.30000305175781,197.3000030517578,89.30000305175781,180.39999389648438,88.0999984741211,177.5C93,178.89999389648438,97,179.6999969482422,98.9000015258789,179.5C105.4000015258789,178.60000610351562,103.80000305175781,138.39999389648438,103.5,124.69999694824219zM84.5,146.89999389648438C84.80000305175781,146.6999969482422,85.19999694824219,146.39999389648438,85.5,146.1999969482422C85.4000015258789,147.1999969482422,85.19999694824219,148.1999969482422,85.0999984741211,149.10000610351562C84.80000305175781,148.89999389648438,84.5,148.8000030517578,84.19999694824219,148.60000610351562C84.30000305175781,148,84.4000015258789,147.39999389648438,84.5,146.89999389648438z"/>
<path id="BodyBorder" d="M105.19999694824219,128.5C105.19999694824219,127.0999984741211,105.0999984741211,125.80000305175781,105.0999984741211,124.69999694824219C104.9000015258789,111.4000015258789,96.5,107.5999984741211,91.9000015258789,105.5999984741211C91.4000015258789,105.4000015258789,91,105.19999694824219,90.5999984741211,105C90.0999984741211,104.69999694824219,89.5,104.80000305175781,89.0999984741211,105C87.0999984741211,103.30000305175781,84.69999694824219,102,82.19999694824219,101.30000305175781C82.0999984741211,101.30000305175781,82.0999984741211,101.30000305175781,82,101.30000305175781C74.80000305175781,100.4000015258789,72.5999984741211,93.30000305175781,71.9000015258789,87.80000305175781C74.4000015258789,86,76.69999694824219,83.80000305175781,78.80000305175781,81.30000305175781C84.80000305175781,74,88.19999694824219,64.69999694824219,88.19999694824219,55.79999923706055C88.19999694824219,55.70000076293945,88.0999984741211,42.400001525878906,87.4000015258789,39.5C84.5999984741211,26.899999618530273,74.0999984741211,19.600000381469727,58.70000076293945,19.600000381469727C43.400001525878906,19.600000381469727,32.900001525878906,26.899999618530273,30,39.599998474121094C29.400001525878906,42.20000076293945,29.200000762939453,53.400001525878906,29.200000762939453,55.70000076293945C29.200000762939453,69.19999694824219,36.70000076293945,81.4000015258789,45.70000076293945,87.80000305175781L45.70000076293945,87.80000305175781C45.70000076293945,91.4000015258789,45,95.30000305175781,43,97.9000015258789C41.599998474121094,99.69999694824219,39.79999923706055,100.5999984741211,37.29999923706055,100.69999694824219C37.099998474121094,100.69999694824219,36.900001525878906,100.69999694824219,36.599998474121094,100.80000305175781C36.599998474121094,100.69999694824219,36.599998474121094,100.5999984741211,36.599998474121094,100.5C36.599998474121094,99.5999984741211,35.79999923706055,98.9000015258789,34.900001525878906,98.9000015258789C28.5,99.19999694824219,11.399999618530273,100,11,117.5C10.699999809265137,132.39999389648438,15.600000381469727,173.6999969482422,19.600000381469727,179L20.299999237060547,180C23.5,184.1999969482422,26.200000762939453,187.8000030517578,30.200000762939453,188C30.200000762939453,188,30.200000762939453,188,30.299999237060547,188C32.79999923706055,188,38.400001525878906,184,50.599998474121094,174.8000030517578C53.29999923706055,172.8000030517578,55.900001525878906,170.8000030517578,58.29999923706055,169.10000610351562C62.900001525878906,170.89999389648438,90,181.10000610351562,98,181.10000610351562C98.30000305175781,181.10000610351562,98.5999984741211,181.10000610351562,98.80000305175781,181.10000610351562C104.5999984741211,180.3000030517578,106.19999694824219,166.60000610351562,105.19999694824219,128.5zM32.5,55.70000076293945C32.5,52.79999923706055,32.79999923706055,42.29999923706055,33.29999923706055,40.29999923706055C34.79999923706055,33.79999923706055,40.099998474121094,22.899999618530273,58.79999923706055,22.899999618530273C72.5999984741211,22.899999618530273,81.9000015258789,29.200000762939453,84.30000305175781,40.29999923706055C84.80000305175781,42.20000076293945,85,52,85,55.79999923706055C85,73.9000015258789,70.5999984741211,89.4000015258789,58.70000076293945,89.4000015258789C44.900001525878906,89.30000305175781,32.5,70.5,32.5,55.70000076293945zM33,147.8000030517578C33.599998474121094,147.8000030517578,35.599998474121094,149,38.70000076293945,152.10000610351562C40.79999923706055,154.1999969482422,42.29999923706055,156.10000610351562,43,157.10000610351562C40.400001525878906,158.60000610351562,31.900001525878906,161.5,30,161.39999389648438L29.700000762939453,161.39999389648438C29.400001525878906,161.39999389648438,29.200000762939453,161.1999969482422,29.200000762939453,160.89999389648438L29.200000762939453,160.8000030517578C31.599998474121094,159.8000030517578,36.70000076293945,158.1999969482422,37.5,158.1999969482422C38,158.3000030517578,38.5,158,38.599998474121094,157.5C38.70000076293945,157,38.400001525878906,156.39999389648438,37.900001525878906,156.3000030517578C36.599998474121094,156,29.700000762939453,158.39999389648438,27.799999237060547,159.3000030517578C27.5,159.1999969482422,27.200000762939453,159.3000030517578,26.899999618530273,159.39999389648438C26.100000381469727,159.8000030517578,24.700000762939453,160.10000610351562,24.200000762939453,159.60000610351562C24,159.39999389648438,23.899999618530273,159.1999969482422,23.799999237060547,159.10000610351562C23.799999237060547,159,23.799999237060547,158.8000030517578,23.899999618530273,158.6999969482422C24.799999237060547,158.39999389648438,26.100000381469727,158,27.399999618530273,157.5C29.799999237060547,156.6999969482422,32.70000076293945,155.60000610351562,33.400001525878906,155.5C34.400001525878906,155.39999389648438,35.5,155.39999389648438,36.599998474121094,155.5C37.20000076293945,155.60000610351562,37.599998474121094,155.10000610351562,37.70000076293945,154.60000610351562C37.70000076293945,154,37.29999923706055,153.60000610351562,36.79999923706055,153.5C35.5,153.39999389648438,34.400001525878906,153.39999389648438,33.20000076293945,153.5C32.400001525878906,153.60000610351562,30.099998474121094,154.39999389648438,26.799999237060547,155.60000610351562C25.200000762939453,156.1999969482422,23.600000381469727,156.6999969482422,22.700000762939453,157C22.700000762939453,157,22.600000381469727,157,22.600000381469727,157.10000610351562C22.399999618530273,157.10000610351562,22.299999237060547,157.10000610351562,22.100000381469727,157.10000610351562C21.100000381469727,157.1999969482422,19.899999618530273,157.10000610351562,19.600000381469727,156.89999389648438C19.5,156.5,19.600000381469727,156,20,155.6999969482422C20.100000381469727,155.60000610351562,20.200000762939453,155.5,20.200000762939453,155.5C20.299999237060547,155.5,20.399999618530273,155.5,20.5,155.5C21.200000762939453,155.3000030517578,22.600000381469727,154.89999389648438,24.200000762939453,154.39999389648438C26.700000762939453,153.60000610351562,31,152.39999389648438,31.700000762939453,152.3000030517578C32.400001525878906,152.1999969482422,33.099998474121094,152.1999969482422,33.79999923706055,152.3000030517578C34.5,152.39999389648438,35.099998474121094,151.89999389648438,35.20000076293945,151.1999969482422C35.29999923706055,150.5,34.79999923706055,149.89999389648438,34.099998474121094,149.8000030517578C33.20000076293945,149.6999969482422,32.29999923706055,149.6999969482422,31.400001525878906,149.8000030517578C30.700000762939453,149.89999389648438,28.399999618530273,150.5,23.5,152C21.899999618530273,152.5,20.5,152.89999389648438,19.799999237060547,153.10000610351562L19.799999237060547,153.10000610351562C19.600000381469727,153,19.299999237060547,152.89999389648438,19,152.89999389648438C18.600000381469727,152.89999389648438,18.299999237060547,152.5,18.299999237060547,151.89999389648438C19.700000762939453,150.10000610351562,29.200000762939453,148.10000610351562,33,147.8000030517578zM49,172.1999969482422C42.5,177.10000610351562,32.599998474121094,184.5,30.700000762939453,184.6999969482422C28.200000762939453,184.60000610351562,26.100000381469727,181.6999969482422,23.299999237060547,178L22.5,177C21.399999618530273,175.60000610351562,19.899999618530273,168.6999969482422,18.5,159.8000030517578C19.200000762939453,160.10000610351562,20,160.1999969482422,20.799999237060547,160.3000030517578C21,160.8000030517578,21.399999618530273,161.3000030517578,22,161.89999389648438C23.299999237060547,163.1999969482422,25.200000762939453,163.1999969482422,26.5,162.89999389648438C26.600000381469727,163.10000610351562,26.799999237060547,163.3000030517578,26.899999618530273,163.5C27.600000381469727,164.1999969482422,28.5,164.6999969482422,29.5,164.8000030517578L29.599998474121094,164.8000030517578L29.900001525878906,164.8000030517578C29.900001525878906,164.8000030517578,29.900001525878906,164.8000030517578,30,164.8000030517578C32.099998474121094,164.8000030517578,42.79999923706055,161.6999969482422,45.79999923706055,159.10000610351562C46.900001525878906,158.6999969482422,48.20000076293945,158.3000030517578,49.599998474121094,157.89999389648438C59.79999923706055,154.60000610351562,73.80000305175781,150.10000610351562,78.30000305175781,149.39999389648438C80.5,149.10000610351562,82.0999984741211,149.5,83.30000305175781,150C82.9000015258789,152.3000030517578,82.30000305175781,154.5,81.9000015258789,155.89999389648438L77.19999694824219,154.10000610351562C76.80000305175781,153.89999389648438,76.19999694824219,154,75.80000305175781,154.1999969482422C62.5,161.6999969482422,58.5,164.5,57.29999923706055,166L57.29999923706055,166C54.79999923706055,167.8000030517578,51.900001525878906,169.89999389648438,49,172.1999969482422zM46.5,157.60000610351562L46.5,157.5C46.5,157.60000610351562,46.5,157.60000610351562,46.5,157.60000610351562zM46.20000076293945,158.60000610351562C46.20000076293945,158.60000610351562,46.20000076293945,158.5,46.20000076293945,158.60000610351562C46.20000076293945,158.5,46.20000076293945,158.60000610351562,46.20000076293945,158.60000610351562zM56.900001525878906,167L56.900001525878906,167L56.900001525878906,167zM57.900001525878906,168.8000030517578C58,168.8000030517578,58,168.8000030517578,57.900001525878906,168.8000030517578C58,168.8000030517578,58,168.8000030517578,57.900001525878906,168.8000030517578zM102,159.3000030517578C101.19999694824219,176.89999389648438,98.80000305175781,177.8000030517578,98.69999694824219,177.8000030517578C93.5999984741211,178.39999389648438,69.19999694824219,169.60000610351562,61.400001525878906,166.6999969482422C64.30000305175781,164.6999969482422,70.69999694824219,160.8000030517578,76.69999694824219,157.39999389648438L82.4000015258789,159.5C82.80000305175781,159.6999969482422,83.30000305175781,159.60000610351562,83.69999694824219,159.39999389648438C84.0999984741211,159.1999969482422,84.4000015258789,158.8000030517578,84.5,158.39999389648438C84.5999984741211,158,87.5999984741211,147.89999389648438,87.30000305175781,141.8000030517578C87,135.89999389648438,86.5,129.3000030517578,86.5,129.3000030517578C86.4000015258789,128.39999389648438,85.69999694824219,127.69999694824219,84.80000305175781,127.80000305175781C83.9000015258789,127.9000015258789,83.19999694824219,128.60000610351562,83.30000305175781,129.5C83.30000305175781,129.60000610351562,83.80000305175781,136.10000610351562,84.0999984741211,142C84.19999694824219,144.3000030517578,83.80000305175781,147.1999969482422,83.30000305175781,150C83.5,148.89999389648438,83.69999694824219,147.8000030517578,83.80000305175781,146.6999969482422C82.19999694824219,146.10000610351562,80.19999694824219,145.8000030517578,77.80000305175781,146.1999969482422C73,146.89999389648438,59.5,151.3000030517578,48.599998474121094,154.8000030517578C47.70000076293945,155.10000610351562,46.79999923706055,155.39999389648438,45.900001525878906,155.6999969482422L45.900001525878906,155.6999969482422C45.599998474121094,155.3000030517578,45.29999923706055,154.8000030517578,44.900001525878906,154.3000030517578C44.79999923706055,154.1999969482422,37.400001525878906,144.89999389648438,33.20000076293945,144.8000030517578C32.5,141.3000030517578,32.099998474121094,137.8000030517578,32.29999923706055,135.39999389648438L32.79999923706055,128.10000610351562C32.900001525878906,127.19999694824219,32.20000076293945,126.4000015258789,31.299999237060547,126.4000015258789C30.400001525878906,126.30000305175781,29.599998474121094,127,29.599998474121094,127.9000015258789L29.099998474121094,135.1999969482422C29,137.60000610351562,29.400001525878906,141.3000030517578,30.099998474121094,145.10000610351562L30.099998474121094,145.10000610351562C28.200000762939453,145.39999389648438,25.799999237060547,145.89999389648438,23.399999618530273,146.5C20.5,147.3000030517578,18.399999618530273,148,17.100000381469727,148.89999389648438C15.700000762939453,137.60000610351562,14.600000381469727,125.5,14.799999237060547,117.69999694824219C14.899999618530273,111,17.399999618530273,103.19999694824219,35.20000076293945,102.30000305175781L34.79999923706055,104.5999984741211C35.79999923706055,104.30000305175781,36.79999923706055,104.19999694824219,37.900001525878906,104.0999984741211C41.29999923706055,103.9000015258789,44,102.5,45.900001525878906,100C48,97.30000305175781,48.900001525878906,93.5,49.20000076293945,89.9000015258789L49.20000076293945,89.9000015258789C52.5,91.69999694824219,55.79999923706055,92.69999694824219,59,92.69999694824219C62.30000305175781,92.69999694824219,65.69999694824219,91.69999694824219,69.0999984741211,89.9000015258789L69.0999984741211,89.9000015258789C71,102.0999984741211,78.80000305175781,104.30000305175781,81.69999694824219,104.69999694824219C84.69999694824219,105.5,87.30000305175781,107.30000305175781,89.4000015258789,109.80000305175781L89.69999694824219,108.19999694824219C90,108.4000015258789,90.4000015258789,108.5,90.80000305175781,108.69999694824219C94.9000015258789,110.5999984741211,101.9000015258789,113.69999694824219,102.0999984741211,124.9000015258789C102.0999984741211,126,102.19999694824219,127.30000305175781,102.19999694824219,128.6999969482422C102.19999694824219,136.60000610351562,102.5,148.8000030517578,102,159.3000030517578zM46.20000076293945,156.39999389648438C46.20000076293945,156.3000030517578,46.20000076293945,156.3000030517578,46.20000076293945,156.39999389648438C46.20000076293945,156.3000030517578,46.20000076293945,156.3000030517578,46.20000076293945,156.39999389648438zM32.29999923706055,144.60000610351562C32.29999923706055,144.60000610351562,32.20000076293945,144.60000610351562,32.29999923706055,144.60000610351562C32.20000076293945,144.60000610351562,32.29999923706055,144.60000610351562,32.29999923706055,144.60000610351562zM31.599998474121094,144.6999969482422L31.599998474121094,144.6999969482422L31.599998474121094,144.6999969482422zM53.400001525878906,272.8999938964844C54.400001525878906,272.79998779296875,55.5,272.79998779296875,56.70000076293945,272.79998779296875C56.20000076293945,278.8999938964844,55.900001525878906,282,54.900001525878906,286.20001220703125L54.400001525878906,288.20001220703125C53.20000076293945,293.29998779296875,51.70000076293945,299.6000061035156,51.79999923706055,302.29998779296875C52.20000076293945,309.3999938964844,53,327.20001220703125,51,339.1000061035156C49.29999923706055,349,48.900001525878906,357.79998779296875,48.70000076293945,363C48.599998474121094,364.5,48.599998474121094,365.79998779296875,48.5,366.6000061035156C48.400001525878906,367.3999938964844,47.900001525878906,369.29998779296875,44.70000076293945,369.5C40.70000076293945,369.79998779296875,29.900001525878906,366.79998779296875,29.299999237060547,363.79998779296875C28.899999618530273,362,29.700000762939453,358.79998779296875,31.5,354.20001220703125C32.29999923706055,352.20001220703125,32.900001525878906,350.5,30.799999237060547,338.3999938964844C28.799999237060547,326.8999938964844,27.899999618530273,316.8999938964844,28.299999237060547,308.1000061035156L28,294.79998779296875L28,294.70001220703125C28.200000762939453,290.5,28,285,27.299999237060547,277.8999938964844C28.299999237060547,277.70001220703125,29.299999237060547,277.5,30.5,277.29998779296875C31.5,286.79998779296875,31.400001525878906,291.79998779296875,31.200000762939453,294.79998779296875L31.5,308C31.200000762939453,316.70001220703125,32,326.3999938964844,34,337.79998779296875C36.20000076293945,350.20001220703125,35.599998474121094,352.6000061035156,34.5,355.3999938964844C33,359.20001220703125,32.400001525878906,361.79998779296875,32.400001525878906,362.8999938964844C34.20000076293945,364.5,43.29999923706055,367,45.20000076293945,366.1000061035156C45.29999923706055,365.29998779296875,45.29999923706055,364.20001220703125,45.400001525878906,362.79998779296875C45.599998474121094,357.5,46,348.6000061035156,47.70000076293945,338.5C49.70000076293945,326.8999938964844,48.900001525878906,309.5,48.5,302.5C48.29999923706055,299.29998779296875,49.79999923706055,293.29998779296875,51.20000076293945,287.3999938964844L51.70000076293945,285.3999938964844C52.70000076293945,281.5,52.900001525878906,278.70001220703125,53.400001525878906,272.8999938964844zM93.9000015258789,323C93.30000305175781,330,93.5,342.70001220703125,93.80000305175781,351.8999938964844C93.9000015258789,355.6000061035156,94,358.70001220703125,94,360.8999938964844C94,369.70001220703125,81.69999694824219,372.3999938964844,78.30000305175781,372.3999938964844C77.5999984741211,372.3999938964844,77,372.1000061035156,76.5,371.6000061035156C75.19999694824219,370.20001220703125,75.4000015258789,367.6000061035156,75.69999694824219,362.1000061035156C75.9000015258789,359.20001220703125,76.0999984741211,355.79998779296875,76,352.6000061035156C75.80000305175781,347.5,74.0999984741211,341.70001220703125,72.5,336.20001220703125C71.4000015258789,332.6000061035156,70.30000305175781,328.79998779296875,69.5999984741211,325.20001220703125C68.4000015258789,319.29998779296875,68.69999694824219,313.79998779296875,69,309.3999938964844C69.0999984741211,307,69.19999694824219,304.79998779296875,69,303.3999938964844C69,303.20001220703125,67.0999984741211,287.70001220703125,64.0999984741211,273.79998779296875C64,273.5,64,273.20001220703125,63.900001525878906,272.79998779296875C65,272.8999938964844,66.19999694824219,272.8999938964844,67.30000305175781,273L67.30000305175781,273.1000061035156C70.30000305175781,287.1000061035156,72.19999694824219,302.79998779296875,72.19999694824219,302.8999938964844C72.4000015258789,304.6000061035156,72.30000305175781,306.8999938964844,72.19999694824219,309.5C72,313.70001220703125,71.69999694824219,319,72.80000305175781,324.5C73.5,328,74.5999984741211,331.70001220703125,75.5999984741211,335.20001220703125C77.30000305175781,341,79,346.8999938964844,79.19999694824219,352.3999938964844C79.30000305175781,355.79998779296875,79.0999984741211,359.20001220703125,78.9000015258789,362.20001220703125C78.69999694824219,364.70001220703125,78.5,367.79998779296875,78.80000305175781,369C81.80000305175781,368.70001220703125,90.69999694824219,366.5,90.69999694824219,360.79998779296875C90.69999694824219,358.70001220703125,90.5999984741211,355.5,90.5,351.8999938964844C90.30000305175781,342.6000061035156,90,329.8999938964844,90.69999694824219,322.6000061035156C91.30000305175781,316.29998779296875,90.69999694824219,313.6000061035156,90.0999984741211,310.5C89.80000305175781,308.8999938964844,89.4000015258789,307.20001220703125,89.19999694824219,305L89.19999694824219,304.8999938964844L89.19999694824219,287.20001220703125C89.0999984741211,286.8999938964844,89,286.6000061035156,89,286.29998779296875C89.19999694824219,283.3999938964844,89.80000305175781,279.1000061035156,90.5999984741211,273.8999938964844C91.69999694824219,273.70001220703125,92.9000015258789,273.3999938964844,94,273.1000061035156C93.19999694824219,278.29998779296875,92.5,282.70001220703125,92.19999694824219,285.70001220703125C92.30000305175781,285.8999938964844,92.30000305175781,286.1000061035156,92.30000305175781,286.3999938964844L92.30000305175781,304.79998779296875C92.5,306.79998779296875,92.80000305175781,308.3999938964844,93.0999984741211,309.8999938964844C93.9000015258789,313.20001220703125,94.5,316.20001220703125,93.9000015258789,323z"/>
<path id="Skirt" fill="#711C8C" d="M89.5,179.5C86.4000015258789,178.6999969482422,82.80000305175781,177.60000610351562,79.30000305175781,176.39999389648438C63.599998474121094,178.5,30.299999237060547,191.1999969482422,27.799999237060547,195C24.700000762939453,199.5,22,216.39999389648438,21.600000381469727,239.39999389648438C21.200000762939453,262.3999938964844,19.100000381469727,277,22,277C24.899999618530273,277,38.70000076293945,273.8999938964844,47.5,272C56.29999923706055,270.1000061035156,74.30000305175781,271.6000061035156,80.30000305175781,273.1000061035156C86.30000305175781,274.5,103.80000305175781,269.20001220703125,103.5999984741211,267.79998779296875C103.4000015258789,266.3999938964844,102.5999984741211,247.6999969482422,100.9000015258789,229.6999969482422C99.5,214.3000030517578,96,188.39999389648438,89.5,179.5z"/>
<path id="SkirtBorder" d="M104.9000015258789,262.29998779296875C104.5,255.3000030517578,103.69999694824219,242.1999969482422,102.5,229.5C102,223.89999389648438,100.5,209.60000610351562,97.69999694824219,197.10000610351562C96,189.39999389648438,94,183.6999969482422,91.80000305175781,180C90.19999694824219,179.60000610351562,88.4000015258789,179.1999969482422,86.5999984741211,178.60000610351562C91.0999984741211,182.1999969482422,96.5,198.8000030517578,99.19999694824219,229.8000030517578C100.4000015258789,242.39999389648438,101.0999984741211,255.5,101.5,262.5C101.5999984741211,264.8999938964844,101.69999694824219,266.29998779296875,101.80000305175781,267.20001220703125C98.9000015258789,268.79998779296875,85.4000015258789,272.6000061035156,80.5999984741211,271.5C74.5,270,56.099998474121094,268.3999938964844,47.099998474121094,270.3999938964844L43.400001525878906,271.20001220703125C35.79999923706055,272.8999938964844,25.5,275.1000061035156,22.399999618530273,275.29998779296875C21.799999237060547,273.5,22.100000381469727,266.5,22.399999618530273,259.1000061035156C22.700000762939453,253.6999969482422,23,246.89999389648438,23.100000381469727,239.39999389648438C23.5,214.8000030517578,26.5,199.60000610351562,29,195.89999389648438L27.700000762939453,195L29.099998474121094,195.89999389648438C31.299999237060547,192.6999969482422,71.19999694824219,177.39999389648438,83.30000305175781,177.6999969482422C80.80000305175781,176.89999389648438,78.30000305175781,176.10000610351562,75.80000305175781,175.3000030517578C58.400001525878906,178.5,29,190.3000030517578,26.399999618530273,194.10000610351562C22.799999237060547,199.3000030517578,20.299999237060547,217,19.899999618530273,239.39999389648438C19.799999237060547,246.89999389648438,19.5,253.60000610351562,19.200000762939453,259C18.600000381469727,271.6000061035156,18.5,276.1000061035156,20.200000762939453,277.8999938964844C20.700000762939453,278.3999938964844,21.299999237060547,278.70001220703125,22,278.70001220703125C24.5,278.70001220703125,33.099998474121094,276.8999938964844,44.099998474121094,274.5L47.79999923706055,273.70001220703125C56.20000076293945,271.8999938964844,74.0999984741211,273.3999938964844,79.9000015258789,274.79998779296875C85.9000015258789,276.20001220703125,102.19999694824219,271.6000061035156,104.5,269.3999938964844C105.19999694824219,268.70001220703125,105.30000305175781,268,105.19999694824219,267.6000061035156C105.19999694824219,267.20001220703125,105,265,104.9000015258789,262.29998779296875z"/>
<path id="TShirt" fill="#1B638E" d="M32.400001525878906,140.6999969482422C32.70000076293945,135.10000610351562,32.79999923706055,125,32.70000076293945,116.5L33,99.80000305175781C33,99.80000305175781,39.79999923706055,98.30000305175781,41.29999923706055,98.19999694824219C41.29999923706055,98.19999694824219,43.599998474121094,120.19999694824219,58.5,120.19999694824219C73.4000015258789,120.19999694824219,76.9000015258789,99.9000015258789,76.9000015258789,99.9000015258789C76.9000015258789,99.9000015258789,86.9000015258789,103.80000305175781,87.5999984741211,104.5C88.30000305175781,105.19999694824219,87.0999984741211,116.0999984741211,85.30000305175781,120C84.5,121.9000015258789,84.19999694824219,124.80000305175781,84.19999694824219,127.9000015258789C83.5999984741211,128.1999969482422,83.19999694824219,128.8000030517578,83.30000305175781,129.5C83.30000305175781,129.60000610351562,83.80000305175781,136.10000610351562,84.0999984741211,142C84.19999694824219,143.39999389648438,84,145,83.80000305175781,146.6999969482422C82.19999694824219,146.10000610351562,80.19999694824219,145.8000030517578,77.80000305175781,146.1999969482422C73,146.89999389648438,59.5,151.3000030517578,48.599998474121094,154.8000030517578C47.70000076293945,155.10000610351562,46.79999923706055,155.39999389648438,45.900001525878906,155.6999969482422C45.599998474121094,155.3000030517578,45.29999923706055,154.8000030517578,44.900001525878906,154.3000030517578C44.79999923706055,154.1999969482422,37.400001525878906,144.89999389648438,33.20000076293945,144.8000030517578C32.79999923706055,143.1999969482422,32.599998474121094,141.89999389648438,32.400001525878906,140.6999969482422zM58.599998474121094,169.10000610351562C56.20000076293945,170.8000030517578,53.599998474121094,172.8000030517578,50.900001525878906,174.8000030517578C38.70000076293945,183.89999389648438,33.099998474121094,188,30.599998474121094,188C30.599998474121094,188,30.599998474121094,188,30.5,188C30.299999237060547,188,30,188,29.799999237060547,187.89999389648438C28.100000381469727,194,26.5,198.8000030517578,26.5,198.8000030517578C26.5,198.8000030517578,48.599998474121094,197.3000030517578,61.80000305175781,193.60000610351562C75,189.89999389648438,90.4000015258789,185.60000610351562,90.80000305175781,184.6999969482422C90.9000015258789,184.39999389648438,90,182.1999969482422,88.80000305175781,179.3000030517578C77.69999694824219,176.3000030517578,62,170.39999389648438,58.599998474121094,169.10000610351562z"/>
<path id="TShirtBorder" d="M92.4000015258789,185.39999389648438C91.80000305175781,186.6999969482422,90.5999984741211,187.3000030517578,63.19999694824219,195L62.400001525878906,195.1999969482422C49.20000076293945,198.89999389648438,27.700000762939453,200.39999389648438,26.799999237060547,200.5L26.700000762939453,200.5C26.200000762939453,200.5,25.700000762939453,200.3000030517578,25.399999618530273,199.89999389648438C25.100000381469727,199.5,25,198.89999389648438,25.100000381469727,198.39999389648438C25.100000381469727,198.3000030517578,26.700000762939453,193.5,28.299999237060547,187.60000610351562C29,187.89999389648438,29.799999237060547,188,30.5,188.10000610351562C30.5,188.10000610351562,30.5,188.10000610351562,30.599998474121094,188.10000610351562C30.900001525878906,188.10000610351562,31.200000762939453,188,31.599998474121094,187.89999389648438C30.599998474121094,191.6999969482422,29.599998474121094,195,28.899999618530273,197.10000610351562C35,196.60000610351562,51.099998474121094,195,61.5,192.10000610351562L62.30000305175781,191.89999389648438C72.19999694824219,189.10000610351562,85.4000015258789,185.39999389648438,89,184C88.5999984741211,183.10000610351562,88,181.60000610351562,87.4000015258789,180.1999969482422C87.19999694824219,179.8000030517578,87,179.3000030517578,86.80000305175781,178.89999389648438C88.19999694824219,179.3000030517578,89.5,179.6999969482422,90.80000305175781,180C92.5999984741211,183.89999389648438,92.80000305175781,184.5,92.4000015258789,185.39999389648438zM87.0999984741211,119.80000305175781L87.0999984741211,119.80000305175781C87.19999694824219,119.4000015258789,87.30000305175781,119,87.5,118.5C87.5,118.4000015258789,87.5,118.4000015258789,87.5,118.30000305175781C87.5,118.0999984741211,87.5999984741211,117.9000015258789,87.5999984741211,117.80000305175781L87.5999984741211,117.69999694824219C87.69999694824219,117.19999694824219,87.80000305175781,116.69999694824219,88,116.19999694824219L88,116.0999984741211C88.0999984741211,115.80000305175781,88.0999984741211,115.5999984741211,88.19999694824219,115.30000305175781C88.19999694824219,115.30000305175781,88.19999694824219,115.30000305175781,88.19999694824219,115.19999694824219C88.30000305175781,114.5999984741211,88.4000015258789,114,88.5,113.4000015258789L88.5,113.4000015258789C88.9000015258789,111.4000015258789,89.0999984741211,109.30000305175781,89.19999694824219,107.5999984741211L89.19999694824219,107.5999984741211L89.19999694824219,107.5999984741211C89.19999694824219,107.4000015258789,89.19999694824219,107.19999694824219,89.19999694824219,107C89.19999694824219,106.9000015258789,89.19999694824219,106.9000015258789,89.19999694824219,106.80000305175781C89.19999694824219,106.69999694824219,89.19999694824219,106.5,89.19999694824219,106.4000015258789C89.19999694824219,106.30000305175781,89.19999694824219,106.30000305175781,89.19999694824219,106.19999694824219C89.19999694824219,106.0999984741211,89.19999694824219,106,89.19999694824219,105.9000015258789C89.19999694824219,105.80000305175781,89.19999694824219,105.80000305175781,89.19999694824219,105.69999694824219C89.19999694824219,105.5999984741211,89.19999694824219,105.5,89.19999694824219,105.4000015258789C89.19999694824219,105.30000305175781,89.19999694824219,105.30000305175781,89.19999694824219,105.19999694824219C89.19999694824219,105.0999984741211,89.19999694824219,105,89.19999694824219,104.9000015258789C89.19999694824219,104.80000305175781,89.19999694824219,104.80000305175781,89.19999694824219,104.69999694824219C89.19999694824219,104.5999984741211,89.19999694824219,104.5,89.19999694824219,104.5C89.19999694824219,104.4000015258789,89.19999694824219,104.4000015258789,89.19999694824219,104.30000305175781C89.19999694824219,104.19999694824219,89.19999694824219,104.19999694824219,89.0999984741211,104.0999984741211L89.0999984741211,104C89.0999984741211,103.9000015258789,89,103.9000015258789,89,103.80000305175781L89,103.69999694824219L89,103.69999694824219C88.9000015258789,103.5999984741211,88.9000015258789,103.5,88.80000305175781,103.5C88.5,103.19999694824219,87.9000015258789,102.5999984741211,77.5,98.5C77,98.30000305175781,76.5,98.4000015258789,76.0999984741211,98.5999984741211C75.69999694824219,98.80000305175781,75.4000015258789,99.30000305175781,75.30000305175781,99.69999694824219C75.30000305175781,99.9000015258789,71.80000305175781,118.69999694824219,58.5,118.69999694824219S42.900001525878906,98.4000015258789,42.900001525878906,98.19999694824219C42.79999923706055,97.30000305175781,42.099998474121094,96.69999694824219,41.20000076293945,96.69999694824219L40.599998474121094,96.69999694824219C37.70000076293945,96.9000015258789,33.599998474121094,97.0999984741211,31.799999237060547,99.30000305175781C31.099998474121094,100.19999694824219,30.700000762939453,101.30000305175781,30.900001525878906,102.4000015258789L30.900001525878906,102.5L30.900001525878906,102.5C30.900001525878906,102.69999694824219,30.900001525878906,102.80000305175781,30.900001525878906,103.0999984741211L30.900001525878906,103.0999984741211L30.900001525878906,103.0999984741211C30.900001525878906,103.30000305175781,30.900001525878906,103.5,30.900001525878906,103.80000305175781C30.900001525878906,103.80000305175781,30.900001525878906,103.80000305175781,30.900001525878906,103.9000015258789C30.900001525878906,104.19999694824219,30.900001525878906,104.4000015258789,30.900001525878906,104.69999694824219L30.900001525878906,104.69999694824219C30.900001525878906,104.69999694824219,30.900001525878906,104.69999694824219,30.900001525878906,104.80000305175781C30.900001525878906,105.0999984741211,30.900001525878906,105.4000015258789,30.900001525878906,105.80000305175781L30.900001525878906,105.9000015258789C30.900001525878906,106.30000305175781,30.900001525878906,106.5999984741211,30.900001525878906,107L30.900001525878906,107.0999984741211L30.900001525878906,107.0999984741211C30.900001525878906,107.5,30.900001525878906,107.9000015258789,30.900001525878906,108.4000015258789L30.900001525878906,108.4000015258789C30.900001525878906,108.4000015258789,30.900001525878906,108.4000015258789,30.900001525878906,108.5C30.900001525878906,108.80000305175781,30.900001525878906,109.19999694824219,30.900001525878906,109.5999984741211C30.900001525878906,109.5999984741211,30.900001525878906,109.5999984741211,30.900001525878906,109.69999694824219C30.900001525878906,110.80000305175781,30.900001525878906,112,30.900001525878906,113.30000305175781C30.900001525878906,113.4000015258789,30.900001525878906,113.5,30.900001525878906,113.5999984741211C30.900001525878906,114,30.900001525878906,114.5,30.900001525878906,114.9000015258789C30.900001525878906,115.0999984741211,30.900001525878906,115.30000305175781,30.900001525878906,115.5C30.900001525878906,115.80000305175781,30.900001525878906,116.19999694824219,30.900001525878906,116.5999984741211C30.900001525878906,116.9000015258789,30.900001525878906,117.19999694824219,30.900001525878906,117.4000015258789C30.900001525878906,117.69999694824219,30.900001525878906,118,30.900001525878906,118.30000305175781C30.900001525878906,118.5999984741211,30.900001525878906,118.9000015258789,30.900001525878906,119.19999694824219C30.900001525878906,119.5,30.900001525878906,119.80000305175781,30.900001525878906,120.0999984741211C30.900001525878906,120.4000015258789,30.900001525878906,120.69999694824219,30.900001525878906,121C30.900001525878906,121.30000305175781,30.900001525878906,121.5999984741211,30.900001525878906,122C30.900001525878906,122.30000305175781,30.900001525878906,122.5999984741211,30.900001525878906,122.9000015258789C30.900001525878906,124,30.900001525878906,126.30000305175781,30.900001525878906,126.30000305175781C30.799999237060547,135,30.700000762939453,143.10000610351562,30.200000762939453,144.3000030517578C30.099998474121094,144.5,30.099998474121094,144.6999969482422,30,145C31.099998474121094,144.8000030517578,31.900001525878906,144.6999969482422,32.5,144.6999969482422C32.79999923706055,144.6999969482422,33.099998474121094,144.6999969482422,33.400001525878906,144.8000030517578C33.900001525878906,142,34.099998474121094,132.60000610351562,34.099998474121094,123.30000305175781L34.099998474121094,123.30000305175781L34.099998474121094,123.30000305175781L34.099998474121094,123.0999984741211C34.099998474121094,123.0999984741211,34.099998474121094,123,34.099998474121094,122.9000015258789C34.099998474121094,122.5999984741211,34.099998474121094,122.19999694824219,34.099998474121094,121.9000015258789C34.099998474121094,121.69999694824219,34.099998474121094,121.5999984741211,34.099998474121094,121.4000015258789C34.099998474121094,121.30000305175781,34.099998474121094,121.30000305175781,34.099998474121094,121.19999694824219C34.099998474121094,120.80000305175781,34.099998474121094,120.4000015258789,34.099998474121094,120.0999984741211C34.099998474121094,119.9000015258789,34.099998474121094,119.80000305175781,34.099998474121094,119.5999984741211C34.099998474121094,119.5,34.099998474121094,119.5,34.099998474121094,119.4000015258789C34.099998474121094,119,34.099998474121094,118.69999694824219,34.099998474121094,118.30000305175781C34.099998474121094,118.0999984741211,34.099998474121094,118,34.099998474121094,117.80000305175781C34.099998474121094,117.69999694824219,34.099998474121094,117.69999694824219,34.099998474121094,117.5999984741211C34.099998474121094,117.19999694824219,34.099998474121094,116.80000305175781,34.099998474121094,116.5C34.099998474121094,116.4000015258789,34.099998474121094,116.19999694824219,34.099998474121094,116.0999984741211C34.099998474121094,116.0999984741211,34.099998474121094,116.0999984741211,34.099998474121094,116L34.099998474121094,115.9000015258789C34.099998474121094,115.5999984741211,34.099998474121094,115.30000305175781,34.099998474121094,115.0999984741211C34.099998474121094,114.9000015258789,34.099998474121094,114.69999694824219,34.099998474121094,114.5C34.099998474121094,114.19999694824219,34.099998474121094,114,34.099998474121094,113.69999694824219C34.099998474121094,113.5,34.099998474121094,113.4000015258789,34.099998474121094,113.30000305175781C34.099998474121094,112.69999694824219,34.099998474121094,112.0999984741211,34.099998474121094,111.5999984741211C34.099998474121094,111.5,34.099998474121094,111.4000015258789,34.099998474121094,111.4000015258789C34.099998474121094,111.0999984741211,34.099998474121094,110.80000305175781,34.099998474121094,110.5C34.099998474121094,110.4000015258789,34.099998474121094,110.30000305175781,34.099998474121094,110.19999694824219C34.099998474121094,109.19999694824219,34.099998474121094,108.30000305175781,34,107.5C34,107.5,34,107.5,34,107.4000015258789C34,107.0999984741211,34,106.80000305175781,34,106.5999984741211L34,106.5C34,104.5999984741211,33.900001525878906,103.19999694824219,33.79999923706055,102.5999984741211L33.79999923706055,102.5999984741211L33.79999923706055,102.5999984741211C33.79999923706055,102.5,33.79999923706055,102.5,33.79999923706055,102.4000015258789C33.79999923706055,102,33.900001525878906,101.80000305175781,34,101.69999694824219C34.099998474121094,101.5999984741211,34.29999923706055,101.5,34.400001525878906,101.4000015258789C34.400001525878906,101.4000015258789,34.5,101.4000015258789,34.5,101.30000305175781C34.599998474121094,101.19999694824219,34.79999923706055,101.0999984741211,35,101.0999984741211L35.099998474121094,101.0999984741211C35.29999923706055,101,35.5,101,35.70000076293945,100.9000015258789C35.70000076293945,100.9000015258789,35.70000076293945,100.9000015258789,35.79999923706055,100.9000015258789C36,100.80000305175781,36.29999923706055,100.80000305175781,36.599998474121094,100.69999694824219L36.599998474121094,100.69999694824219C37.599998474121094,100.5,38.79999923706055,100.4000015258789,39.70000076293945,100.30000305175781C40.599998474121094,105.5999984741211,44.400001525878906,122.19999694824219,58.29999923706055,122.19999694824219C65,122.19999694824219,70.5999984741211,118.4000015258789,74.5,111.19999694824219C76.30000305175781,107.80000305175781,77.30000305175781,104.5,77.9000015258789,102.5C81.4000015258789,103.9000015258789,84.80000305175781,105.30000305175781,86,105.9000015258789C86,106,86,106.19999694824219,86,106.30000305175781C86,106.4000015258789,86,106.5,86,106.5C86,106.5999984741211,86,106.69999694824219,86,106.80000305175781C86,106.9000015258789,86,107,86,107.19999694824219C86,107.30000305175781,86,107.30000305175781,86,107.4000015258789C86,107.5999984741211,86,107.69999694824219,86,107.9000015258789C86,108.5,85.9000015258789,109.19999694824219,85.80000305175781,109.9000015258789C85.80000305175781,110,85.80000305175781,110.0999984741211,85.80000305175781,110.0999984741211C85.80000305175781,110.30000305175781,85.80000305175781,110.5,85.69999694824219,110.69999694824219C85.69999694824219,110.80000305175781,85.69999694824219,110.9000015258789,85.69999694824219,111C85.69999694824219,111.19999694824219,85.69999694824219,111.4000015258789,85.5999984741211,111.5C85.5999984741211,111.5999984741211,85.5999984741211,111.80000305175781,85.5,111.9000015258789C85.5,112.0999984741211,85.4000015258789,112.4000015258789,85.4000015258789,112.5999984741211C85.4000015258789,112.80000305175781,85.30000305175781,113,85.30000305175781,113.30000305175781C85.30000305175781,113.4000015258789,85.30000305175781,113.5999984741211,85.19999694824219,113.69999694824219C85.19999694824219,113.9000015258789,85.0999984741211,114.0999984741211,85.0999984741211,114.30000305175781C85.0999984741211,114.4000015258789,85.0999984741211,114.5999984741211,85,114.69999694824219C85,114.9000015258789,84.9000015258789,115.0999984741211,84.9000015258789,115.30000305175781C84.9000015258789,115.4000015258789,84.9000015258789,115.5,84.80000305175781,115.5999984741211C84.69999694824219,115.9000015258789,84.69999694824219,116.0999984741211,84.5999984741211,116.4000015258789L84.5999984741211,116.5C84.5,116.80000305175781,84.5,117.0999984741211,84.4000015258789,117.30000305175781C84.4000015258789,117.4000015258789,84.4000015258789,117.5,84.30000305175781,117.5C84.19999694824219,117.69999694824219,84.19999694824219,117.9000015258789,84.0999984741211,118.0999984741211C84.0999984741211,118.19999694824219,84,118.30000305175781,84,118.4000015258789C83.9000015258789,118.5999984741211,83.9000015258789,118.69999694824219,83.80000305175781,118.9000015258789C83.80000305175781,119,83.69999694824219,119,83.69999694824219,119.0999984741211C83.5999984741211,119.30000305175781,83.5,119.5,83.4000015258789,119.69999694824219C81.19999694824219,124.9000015258789,82.9000015258789,129.89999389648438,82.9000015258789,129.89999389648438C82.9000015258789,129.89999389648438,85.19999694824219,128.1999969482422,85.5,128.5C85.5,126.19999694824219,85.5999984741211,124.0999984741211,86,122.4000015258789L86,122.4000015258789C86.0999984741211,121.9000015258789,86.19999694824219,121.5,86.4000015258789,121.0999984741211C86.5,121,86.5,120.9000015258789,86.5999984741211,120.69999694824219L86.5999984741211,120.5999984741211C87,120.0999984741211,87.0999984741211,119.9000015258789,87.0999984741211,119.80000305175781z"/>
<path id="Shoes" fill="#F06022" d="M28.600000381469727,363.6000061035156C27.5,369.3999938964844,15.899999618530273,379.5,15,383.3999938964844C14.100000381469727,387.29998779296875,14.399999618530273,390.3999938964844,16.100000381469727,392C17.799999237060547,393.6000061035156,32,395.8999938964844,36,391.5C45.099998474121094,381.6000061035156,48.5,380.70001220703125,49.20000076293945,376.5C49.900001525878906,372.29998779296875,49.599998474121094,367.8999938964844,48.29999923706055,365.70001220703125S43.20000076293945,369.3999938964844,28.600000381469727,363.6000061035156zM93.5,363.6000061035156C94.5,369.1000061035156,104.9000015258789,378.6000061035156,105.69999694824219,382.29998779296875C106.5,386,106.19999694824219,388.8999938964844,104.69999694824219,390.3999938964844C103.19999694824219,391.8999938964844,90.5,394.1000061035156,86.80000305175781,390C78.69999694824219,380.70001220703125,75.5999984741211,379.8999938964844,75,375.8999938964844C74.30000305175781,371.8999938964844,74.69999694824219,367.70001220703125,75.80000305175781,365.79998779296875C77,363.79998779296875,80.4000015258789,369.1000061035156,93.5,363.6000061035156z"/>
<path id="Shoes1" fill="#FFFFFF" d="M27.700000762939453,388.3999938964844C23.100000381469727,388.3999938964844,16.600000381469727,386.8999938964844,14.200000762939453,384.79998779296875C13.899999618530273,388.5,14.700000762939453,390.79998779296875,16.100000381469727,392.1000061035156C17.799999237060547,393.70001220703125,32,396,36,391.6000061035156C45.099998474121094,381.70001220703125,48.5,380.79998779296875,49.20000076293945,376.6000061035156C49.400001525878906,375.70001220703125,49.400001525878906,374.79998779296875,49.5,373.8999938964844C48.79999923706055,374.3999938964844,47.79999923706055,375.1000061035156,46.29999923706055,376.29998779296875C40.79999923706055,380.6000061035156,34.900001525878906,388.3999938964844,27.700000762939453,388.3999938964844zM94.30000305175781,387C98.4000015258789,387,104.19999694824219,385.6000061035156,106.4000015258789,383.6000061035156C106.69999694824219,387.1000061035156,105.9000015258789,389.20001220703125,104.69999694824219,390.5C103.19999694824219,392,90.5,394.20001220703125,86.80000305175781,390.1000061035156C78.69999694824219,380.79998779296875,75.5999984741211,380,75,376C74.9000015258789,375.20001220703125,74.80000305175781,374.29998779296875,74.69999694824219,373.5C75.30000305175781,374,76.19999694824219,374.70001220703125,77.5,375.70001220703125C82.5,379.6000061035156,87.80000305175781,387,94.30000305175781,387z"/>
<path id="ShoesBorder" d="M107.30000305175781,382L107.30000305175781,381.8999938964844L107.30000305175781,381.6000061035156L107.19999694824219,381.70001220703125C106.5999984741211,379.79998779296875,104.80000305175781,377.5,101.9000015258789,373.8999938964844C99.0999984741211,370.3999938964844,95.5999984741211,366.1000061035156,95.0999984741211,363.3999938964844C95,362.8999938964844,94.69999694824219,362.5,94.30000305175781,362.29998779296875C93.9000015258789,362.1000061035156,93.30000305175781,362,92.9000015258789,362.20001220703125C84.69999694824219,365.6000061035156,80.69999694824219,364.6000061035156,78.5,364.1000061035156C77.19999694824219,363.79998779296875,75.5,363.3999938964844,74.4000015258789,365.1000061035156C73.0999984741211,367.3999938964844,72.69999694824219,372,73.4000015258789,376.29998779296875C73.80000305175781,379.29998779296875,75.4000015258789,380.79998779296875,78.30000305175781,383.6000061035156C80.0999984741211,385.29998779296875,82.5,387.6000061035156,85.5999984741211,391.29998779296875C87.19999694824219,393.1000061035156,90.0999984741211,394.1000061035156,94.19999694824219,394.20001220703125C94.4000015258789,394.20001220703125,94.5999984741211,394.20001220703125,94.80000305175781,394.20001220703125C99,394.20001220703125,104.4000015258789,393.20001220703125,105.80000305175781,391.79998779296875C107.69999694824219,389.70001220703125,108.19999694824219,386.29998779296875,107.30000305175781,382zM76.80000305175781,376.3999938964844L76.9000015258789,376.5C78.19999694824219,377.5,79.5999984741211,378.79998779296875,81,380.20001220703125C84.80000305175781,383.8999938964844,89.19999694824219,388,94.30000305175781,388C97.4000015258789,388,101.5999984741211,387.20001220703125,104.5,385.8999938964844C104.5,387.3999938964844,104.19999694824219,388.6000061035156,103.5999984741211,389.20001220703125C102.30000305175781,390.20001220703125,91,392.20001220703125,88,388.8999938964844C84.80000305175781,385.20001220703125,82.30000305175781,382.79998779296875,80.5,381.1000061035156C78.0999984741211,378.79998779296875,77.19999694824219,377.79998779296875,76.80000305175781,376.3999938964844zM77,367C77.19999694824219,367,77.5,367.1000061035156,77.69999694824219,367.20001220703125C80.0999984741211,367.79998779296875,84.4000015258789,368.79998779296875,92.5,365.79998779296875C92.80000305175781,366.6000061035156,93.19999694824219,367.3999938964844,93.69999694824219,368.20001220703125C90.5,368.70001220703125,89.19999694824219,369.5,89.0999984741211,369.6000061035156C88.69999694824219,369.8999938964844,88.5,370.5,88.80000305175781,371C89,371.29998779296875,89.30000305175781,371.3999938964844,89.5999984741211,371.3999938964844C89.80000305175781,371.3999938964844,90,371.29998779296875,90.0999984741211,371.20001220703125C90.0999984741211,371.20001220703125,91.30000305175781,370.3999938964844,94.69999694824219,370L94.80000305175781,370C95.5999984741211,371.20001220703125,96.5,372.3999938964844,97.5,373.6000061035156C97.19999694824219,373.6000061035156,96.9000015258789,373.70001220703125,96.5999984741211,373.70001220703125C94.80000305175781,373.8999938964844,93,374.1000061035156,91.80000305175781,375.29998779296875C91.4000015258789,375.70001220703125,91.4000015258789,376.29998779296875,91.80000305175781,376.70001220703125C92,376.8999938964844,92.30000305175781,377,92.5,377C92.69999694824219,377,93,376.8999938964844,93.19999694824219,376.70001220703125C94,375.8999938964844,95.30000305175781,375.79998779296875,96.80000305175781,375.6000061035156C97.30000305175781,375.6000061035156,97.69999694824219,375.5,98.19999694824219,375.3999938964844C98.4000015258789,375.3999938964844,98.5999984741211,375.20001220703125,98.80000305175781,375.1000061035156C99,375.29998779296875,99.19999694824219,375.5,99.30000305175781,375.79998779296875C101.4000015258789,378.3999938964844,103.80000305175781,381.3999938964844,104.0999984741211,382.6000061035156C104.19999694824219,383,104.30000305175781,383.3999938964844,104.30000305175781,383.70001220703125C101.9000015258789,385,97.69999694824219,385.8999938964844,94.30000305175781,385.8999938964844C90,385.8999938964844,86.0999984741211,382.20001220703125,82.4000015258789,378.6000061035156C80.9000015258789,377.20001220703125,79.5,375.8999938964844,78.0999984741211,374.79998779296875C77.4000015258789,374.29998779296875,76.80000305175781,373.79998779296875,76.30000305175781,373.3999938964844C76.0999984741211,370.79998779296875,76.5,368.29998779296875,77,367zM49.70000076293945,364.8999938964844C48.599998474121094,363.1000061035156,46.79999923706055,363.6000061035156,45.400001525878906,363.8999938964844C42.900001525878906,364.5,38.400001525878906,365.70001220703125,29.200000762939453,362.1000061035156C28.700000762939453,361.8999938964844,28.200000762939453,362,27.799999237060547,362.20001220703125C27.399999618530273,362.3999938964844,27.100000381469727,362.79998779296875,27,363.29998779296875C26.5,366.1000061035156,22.5,370.70001220703125,19.399999618530273,374.3999938964844C16.100000381469727,378.29998779296875,14,380.79998779296875,13.5,382.79998779296875L13.399999618530273,382.70001220703125L13.299999237060547,383.70001220703125C12.399999618530273,388,13,391.29998779296875,15,393.20001220703125C16.600000381469727,394.70001220703125,22.5,395.70001220703125,27.100000381469727,395.70001220703125C27.5,395.70001220703125,27.799999237060547,395.70001220703125,28.200000762939453,395.70001220703125C32.5,395.5,35.5,394.5,37.20000076293945,392.6000061035156C40.70000076293945,388.79998779296875,43.400001525878906,386.29998779296875,45.29999923706055,384.5C48.5,381.5,50.29999923706055,379.8999938964844,50.79999923706055,376.79998779296875C51.599998474121094,372,51.20000076293945,367.29998779296875,49.70000076293945,364.8999938964844zM43.099998474121094,382.1000061035156C41.099998474121094,384,38.400001525878906,386.5,34.79999923706055,390.3999938964844C31.700000762939453,393.79998779296875,18.899999618530273,392.1000061035156,17.200000762939453,390.79998779296875C16.399999618530273,390.1000061035156,16.100000381469727,388.79998779296875,16.100000381469727,387.1000061035156C19.299999237060547,388.5,24.100000381469727,389.3999938964844,27.700000762939453,389.3999938964844C33.400001525878906,389.3999938964844,38.29999923706055,384.8999938964844,42.599998474121094,380.8999938964844C44.099998474121094,379.5,45.5,378.20001220703125,46.900001525878906,377.1000061035156C47.099998474121094,376.8999938964844,47.29999923706055,376.79998779296875,47.5,376.6000061035156C47.099998474121094,378.29998779296875,46.099998474121094,379.29998779296875,43.099998474121094,382.1000061035156zM47.900001525878906,373.79998779296875C47.29999923706055,374.20001220703125,46.599998474121094,374.79998779296875,45.70000076293945,375.5C44.20000076293945,376.6000061035156,42.79999923706055,378,41.29999923706055,379.3999938964844C37.099998474121094,383.29998779296875,32.70000076293945,387.3999938964844,27.700000762939453,387.3999938964844C23.799999237060547,387.3999938964844,19,386.3999938964844,16.299999237060547,385C16.399999618530273,384.6000061035156,16.399999618530273,384.20001220703125,16.5,383.79998779296875C16.799999237060547,382.5,19.5,379.29998779296875,21.799999237060547,376.6000061035156C22,376.29998779296875,22.299999237060547,376,22.5,375.70001220703125C22.600000381469727,376,22.899999618530273,376.20001220703125,23.200000762939453,376.20001220703125C23.700000762939453,376.29998779296875,24.200000762939453,376.29998779296875,24.700000762939453,376.3999938964844C26.5,376.6000061035156,28,376.70001220703125,28.899999618530273,377.5C29.099998474121094,377.70001220703125,29.299999237060547,377.70001220703125,29.599998474121094,377.70001220703125C29.900001525878906,377.70001220703125,30.200000762939453,377.6000061035156,30.400001525878906,377.3999938964844C30.799999237060547,377,30.700000762939453,376.3999938964844,30.299999237060547,376C28.899999618530273,374.79998779296875,27,374.6000061035156,24.899999618530273,374.3999938964844C24.5,374.3999938964844,24.100000381469727,374.29998779296875,23.600000381469727,374.29998779296875C24.700000762939453,373,25.799999237060547,371.6000061035156,26.700000762939453,370.29998779296875C26.799999237060547,370.29998779296875,26.799999237060547,370.3999938964844,26.899999618530273,370.3999938964844C30.599998474121094,370.8999938964844,32.099998474121094,371.70001220703125,32.099998474121094,371.70001220703125C32.29999923706055,371.79998779296875,32.5,371.8999938964844,32.70000076293945,371.8999938964844C33,371.8999938964844,33.29999923706055,371.70001220703125,33.5,371.5C33.79999923706055,371,33.70000076293945,370.3999938964844,33.20000076293945,370.1000061035156C33,370,31.599998474121094,369.1000061035156,27.899999618530273,368.5C28.5,367.6000061035156,29,366.70001220703125,29.299999237060547,365.79998779296875C38.400001525878906,369.1000061035156,43.20000076293945,367.79998779296875,45.900001525878906,367.1000061035156C46.20000076293945,367,46.5,366.8999938964844,46.79999923706055,366.8999938964844C47.79999923706055,368.3999938964844,48.099998474121094,371,47.900001525878906,373.79998779296875z"/>
<path id="Hair" fill="#54311E" d="M98.0999984741211,100.5C98,98,101.69999694824219,95.30000305175781,101.5999984741211,90.30000305175781C101.5,85.30000305175781,101.0999984741211,82.9000015258789,99.9000015258789,79.69999694824219C98.80000305175781,76.5,100.9000015258789,70,101.5,65.0999984741211C102,60.20000076293945,96.80000305175781,52,94.9000015258789,48.79999923706055C93,45.599998474121094,96,40.20000076293945,94.19999694824219,35.70000076293945C92.9000015258789,32.79999923706055,90.80000305175781,30.299999237060547,88.19999694824219,28.5C88.19999694824219,28.5,86.30000305175781,23.600000381469727,80.0999984741211,18.399999618530273C73.9000015258789,13.199999809265137,64.0999984741211,16.100000381469727,64.0999984741211,16.100000381469727C64.0999984741211,16.100000381469727,57.400001525878906,10.899999618530273,41.900001525878906,16.399999618530273C26.399999618530273,21.899999618530273,24.700000762939453,41.70000076293945,24.700000762939453,46.400001525878906C24.700000762939453,51.099998474121094,19.100000381469727,53.900001525878906,18.799999237060547,63.400001525878906C18.600000381469727,70.9000015258789,20.399999618530273,74.4000015258789,21.700000762939453,78.69999694824219C21.700000762939453,81.9000015258789,21.899999618530273,85.0999984741211,22.299999237060547,88.19999694824219C21.5,91.19999694824219,20,93.9000015258789,19.399999618530273,97.30000305175781C18.5,102.69999694824219,26.399999618530273,111,26.200000762939453,114.30000305175781C26,117.5999984741211,24.5,124.19999694824219,25.5,125.9000015258789C26.5,127.5999984741211,26.200000762939453,130.8000030517578,29.099998474121094,133.1999969482422C32,135.60000610351562,34,143.5,34.29999923706055,142.10000610351562C34.599998474121094,140.6999969482422,36.29999923706055,133.1999969482422,36,130.6999969482422C35.70000076293945,128.1999969482422,37.400001525878906,122.30000305175781,37.29999923706055,119.30000305175781C37.20000076293945,116.30000305175781,34.70000076293945,113.4000015258789,34.599998474121094,110.19999694824219C34.5,107,37.400001525878906,105.80000305175781,37.5,101.5C37.5,101.19999694824219,37.5,101,37.5,100.80000305175781C37.79999923706055,100.80000305175781,38.5,100.69999694824219,38.5,100.69999694824219L37.79999923706055,97C37.79999923706055,97,39.599998474121094,96.80000305175781,40.5,96.80000305175781L41.099998474121094,96.80000305175781C42,96.69999694824219,42.70000076293945,97.4000015258789,42.79999923706055,98.30000305175781C42.79999923706055,98.30000305175781,42.79999923706055,98.30000305175781,42.79999923706055,98.4000015258789C42.900001525878906,98.30000305175781,42.900001525878906,98.19999694824219,43,98.19999694824219C43.20000076293945,97.9000015258789,43.400001525878906,97.5999984741211,43.599998474121094,97.30000305175781C43.70000076293945,97.19999694824219,43.79999923706055,97,43.79999923706055,96.9000015258789C43.900001525878906,96.69999694824219,44,96.5,44.099998474121094,96.30000305175781C44.20000076293945,96.0999984741211,44.29999923706055,95.9000015258789,44.400001525878906,95.69999694824219C44.400001525878906,95.5999984741211,44.5,95.5,44.5,95.30000305175781C45,93.80000305175781,45.400001525878906,92.0999984741211,45.5,90.4000015258789C45.5,90.4000015258789,45.5,90.4000015258789,45.5,90.4000015258789C45.5,90.4000015258789,45.5,90.4000015258789,45.5,90.4000015258789C45.599998474121094,89.5999984741211,45.599998474121094,88.80000305175781,45.599998474121094,88.0999984741211C45.599998474121094,88.0999984741211,45.599998474121094,88.0999984741211,45.599998474121094,88.0999984741211C45.599998474121094,88,45.599998474121094,87.9000015258789,45.599998474121094,87.80000305175781C42.20000076293945,85.4000015258789,39,82.19999694824219,36.400001525878906,78.4000015258789C35.79999923706055,76.9000015258789,34.900001525878906,75.5,34.20000076293945,74.0999984741211C34.20000076293945,74.0999984741211,34.20000076293945,74,34.099998474121094,74C34,73.69999694824219,33.900001525878906,73.5,33.79999923706055,73.19999694824219C33.79999923706055,73.0999984741211,33.70000076293945,73,33.70000076293945,72.9000015258789C33.599998474121094,72.5999984741211,33.5,72.4000015258789,33.5,72.0999984741211C33.5,72,33.400001525878906,71.9000015258789,33.400001525878906,71.80000305175781C33.29999923706055,71.4000015258789,33.20000076293945,71.0999984741211,33.20000076293945,70.69999694824219C32.79999923706055,66.4000015258789,34.5,67.5,35,62.900001525878906C35,62.5,35.099998474121094,62.099998474121094,35.099998474121094,61.79999923706055C35.099998474121094,61.70000076293945,35.099998474121094,61.599998474121094,35.099998474121094,61.599998474121094C35.099998474121094,60.79999923706055,35.099998474121094,60.099998474121094,35,59.5C35,59.5,35,59.5,35,59.5C35,59.5,35,59.5,35,59.400001525878906C35,59,34.900001525878906,58.70000076293945,34.900001525878906,58.29999923706055C34.900001525878906,58.29999923706055,34.900001525878906,58.29999923706055,34.900001525878906,58.29999923706055C34.900001525878906,58.29999923706055,34.900001525878906,58.29999923706055,34.900001525878906,58.29999923706055C34.79999923706055,57.79999923706055,34.70000076293945,57.400001525878906,34.70000076293945,56.900001525878906C34.70000076293945,56.900001525878906,34.70000076293945,56.900001525878906,34.70000076293945,56.900001525878906C34.70000076293945,56.79999923706055,34.70000076293945,56.599998474121094,34.599998474121094,56.5C34.599998474121094,56.5,34.599998474121094,56.5,34.599998474121094,56.400001525878906C34.599998474121094,56.29999923706055,34.599998474121094,56.20000076293945,34.599998474121094,56.099998474121094C34.599998474121094,55.79999923706055,34.5,55.5,34.5,55.099998474121094C34.5,55,34.5,55,34.5,54.900001525878906C34.5,54.599998474121094,34.400001525878906,54.29999923706055,34.400001525878906,53.900001525878906C34.400001525878906,53.900001525878906,34.400001525878906,53.79999923706055,34.400001525878906,53.79999923706055C34.400001525878906,53.79999923706055,34.400001525878906,53.70000076293945,34.400001525878906,53.70000076293945C34.400001525878906,53.29999923706055,34.400001525878906,52.900001525878906,34.400001525878906,52.5C34.400001525878906,52.5,34.400001525878906,52.400001525878906,34.400001525878906,52.400001525878906C34.400001525878906,52.29999923706055,34.400001525878906,52.29999923706055,34.400001525878906,52.20000076293945C34.400001525878906,51.79999923706055,34.400001525878906,51.29999923706055,34.400001525878906,50.900001525878906C34.70000076293945,45.70000076293945,41.29999923706055,43.900001525878906,42.5,40.79999923706055C44.79999923706055,41.900001525878906,47.400001525878906,42.5,49.79999923706055,42.79999923706055C53.400001525878906,42.79999923706055,52.900001525878906,37.20000076293945,58.599998474121094,37.20000076293945C64.30000305175781,37.20000076293945,64.80000305175781,40.29999923706055,67.80000305175781,42.5C70.80000305175781,44.70000076293945,71.0999984741211,42,75.80000305175781,43.5C76.19999694824219,43.5,76.5999984741211,43.599998474121094,77,43.70000076293945C77,43.70000076293945,77,43.70000076293945,77.0999984741211,43.70000076293945C77.19999694824219,43.70000076293945,77.19999694824219,43.70000076293945,77.30000305175781,43.70000076293945C77.69999694824219,43.79999923706055,78,43.900001525878906,78.30000305175781,44C78.30000305175781,44,78.4000015258789,44,78.4000015258789,44C78.4000015258789,44,78.4000015258789,44,78.5,44C78.80000305175781,44.099998474121094,79.0999984741211,44.29999923706055,79.30000305175781,44.5C79.30000305175781,44.5,79.4000015258789,44.5,79.4000015258789,44.599998474121094C79.69999694824219,44.79999923706055,79.9000015258789,45,80.19999694824219,45.20000076293945C80.30000305175781,45.20000076293945,80.30000305175781,45.29999923706055,80.30000305175781,45.29999923706055C80.30000305175781,45.29999923706055,80.30000305175781,45.29999923706055,80.30000305175781,45.29999923706055C80.5,45.5,80.80000305175781,45.79999923706055,81,46C81,46,81,46.099998474121094,81.0999984741211,46.099998474121094C81.0999984741211,46.099998474121094,81.0999984741211,46.099998474121094,81.0999984741211,46.099998474121094C81.30000305175781,46.400001525878906,81.5,46.599998474121094,81.69999694824219,46.900001525878906C81.69999694824219,46.900001525878906,81.69999694824219,47,81.69999694824219,47C81.69999694824219,47,81.69999694824219,47.099998474121094,81.80000305175781,47.099998474121094C82,47.400001525878906,82.0999984741211,47.70000076293945,82.30000305175781,48C82.30000305175781,48,82.30000305175781,48.099998474121094,82.4000015258789,48.099998474121094C82.4000015258789,48.099998474121094,82.4000015258789,48.20000076293945,82.4000015258789,48.20000076293945C82.5,48.5,82.69999694824219,48.900001525878906,82.80000305175781,49.20000076293945C82.80000305175781,49.20000076293945,82.80000305175781,49.20000076293945,82.80000305175781,49.20000076293945C82.80000305175781,49.20000076293945,82.80000305175781,49.20000076293945,82.80000305175781,49.20000076293945C82.9000015258789,49.599998474121094,83,49.900001525878906,83.0999984741211,50.29999923706055C83.0999984741211,50.29999923706055,83.0999984741211,50.29999923706055,83.0999984741211,50.400001525878906C83.0999984741211,50.5,83.0999984741211,50.5,83.0999984741211,50.599998474121094C83.19999694824219,51,83.30000305175781,51.400001525878906,83.4000015258789,51.79999923706055C83.4000015258789,51.79999923706055,83.4000015258789,51.900001525878906,83.4000015258789,51.900001525878906C83.4000015258789,51.900001525878906,83.4000015258789,51.900001525878906,83.4000015258789,51.900001525878906C83.5,52.29999923706055,83.5,52.70000076293945,83.5999984741211,53C83.5999984741211,53,83.5999984741211,53.099998474121094,83.5999984741211,53.099998474121094C83.5999984741211,53.099998474121094,83.5999984741211,53.099998474121094,83.5999984741211,53.20000076293945C83.69999694824219,53.599998474121094,83.69999694824219,54,83.80000305175781,54.400001525878906C83.80000305175781,54.400001525878906,83.80000305175781,54.400001525878906,83.80000305175781,54.400001525878906C83.80000305175781,54.5,83.80000305175781,54.5,83.80000305175781,54.599998474121094C83.9000015258789,55.5,83.9000015258789,56.29999923706055,84,57.20000076293945C84,57.29999923706055,84,57.29999923706055,84,57.400001525878906C84,57.79999923706055,84,58.29999923706055,84,58.70000076293945C84,58.70000076293945,84,58.79999923706055,84,58.79999923706055C84,61,83.9000015258789,63.20000076293945,83.80000305175781,64.9000015258789C83.80000305175781,65.30000305175781,83.80000305175781,65.5999984741211,83.80000305175781,66C83.80000305175781,66.19999694824219,83.80000305175781,66.30000305175781,83.80000305175781,66.5C83.80000305175781,66.69999694824219,83.80000305175781,66.9000015258789,83.80000305175781,67C83.80000305175781,67.19999694824219,83.80000305175781,67.4000015258789,83.80000305175781,67.5999984741211C83.80000305175781,67.69999694824219,83.80000305175781,67.80000305175781,83.80000305175781,67.9000015258789C83.80000305175781,68.0999984741211,83.80000305175781,68.30000305175781,83.9000015258789,68.5999984741211C83.9000015258789,68.69999694824219,83.9000015258789,68.69999694824219,83.9000015258789,68.80000305175781C83.9000015258789,69,84,69.30000305175781,84,69.5C84,69.5,84,69.5999984741211,84,69.5999984741211C84.0999984741211,69.80000305175781,84.0999984741211,70.0999984741211,84.19999694824219,70.30000305175781C84.19999694824219,70.30000305175781,84.19999694824219,70.30000305175781,84.19999694824219,70.30000305175781C84.30000305175781,70.5,84.30000305175781,70.69999694824219,84.4000015258789,71C84.4000015258789,71,84.4000015258789,71,84.4000015258789,71C84.5,71.19999694824219,84.5999984741211,71.4000015258789,84.69999694824219,71.5999984741211C84.69999694824219,71.5999984741211,84.69999694824219,71.5999984741211,84.69999694824219,71.5999984741211C83.19999694824219,74.9000015258789,81.19999694824219,78.0999984741211,78.9000015258789,81C76.80000305175781,83.5,74.5,85.69999694824219,72,87.5C72,87.5999984741211,72,87.69999694824219,72,87.80000305175781C72,87.80000305175781,72,87.80000305175781,72,87.80000305175781C72.19999694824219,90,72.80000305175781,92.5,73.80000305175781,94.69999694824219C73.80000305175781,94.69999694824219,73.80000305175781,94.80000305175781,73.9000015258789,94.80000305175781C74.0999984741211,95.0999984741211,74.19999694824219,95.5,74.4000015258789,95.80000305175781C74.4000015258789,95.9000015258789,74.5,95.9000015258789,74.5,96C74.5999984741211,96.19999694824219,74.69999694824219,96.30000305175781,74.80000305175781,96.5C74.9000015258789,96.5999984741211,75,96.80000305175781,75.0999984741211,96.9000015258789C75.19999694824219,97.0999984741211,75.4000015258789,97.30000305175781,75.5,97.4000015258789C75.5999984741211,97.5999984741211,75.69999694824219,97.69999694824219,75.9000015258789,97.9000015258789C76,98,76.0999984741211,98.0999984741211,76.19999694824219,98.19999694824219C76.4000015258789,98.4000015258789,76.5999984741211,98.5999984741211,76.80000305175781,98.80000305175781C76.9000015258789,98.9000015258789,76.9000015258789,98.9000015258789,77,99C77.19999694824219,99.19999694824219,77.4000015258789,99.30000305175781,77.5999984741211,99.5C77.69999694824219,99.5999984741211,77.69999694824219,99.5999984741211,77.80000305175781,99.69999694824219C78.0999984741211,99.9000015258789,78.30000305175781,100,78.5999984741211,100.19999694824219C78.69999694824219,100.19999694824219,78.69999694824219,100.30000305175781,78.80000305175781,100.30000305175781C79.0999984741211,100.4000015258789,79.30000305175781,100.5999984741211,79.5999984741211,100.69999694824219C79.69999694824219,100.69999694824219,79.69999694824219,100.69999694824219,79.80000305175781,100.80000305175781C80.0999984741211,100.9000015258789,80.5,101,80.80000305175781,101.0999984741211C80.9000015258789,101.0999984741211,81,101.0999984741211,81.0999984741211,101.19999694824219C81.5,101.30000305175781,81.9000015258789,101.4000015258789,82.30000305175781,101.4000015258789C82.4000015258789,101.4000015258789,82.4000015258789,101.4000015258789,82.5,101.4000015258789C83.5999984741211,101.69999694824219,84.5999984741211,102.0999984741211,85.5999984741211,102.5999984741211C85.5999984741211,105.9000015258789,85.9000015258789,108.9000015258789,87.19999694824219,113.69999694824219C90.19999694824219,123.9000015258789,83.5999984741211,125.0999984741211,83.4000015258789,131.89999389648438C87.69999694824219,125.5999984741211,96.4000015258789,130.3000030517578,97.30000305175781,122C98.30000305175781,113.69999694824219,101.69999694824219,112.30000305175781,102.0999984741211,109C102.19999694824219,105.5999984741211,98.19999694824219,103,98.0999984741211,100.5z"/>
<path id="HairBorder" d="M101.0999984741211,103C100.4000015258789,102.0999984741211,99.69999694824219,101.0999984741211,99.69999694824219,100.5C99.69999694824219,99.9000015258789,100.19999694824219,99,100.80000305175781,98C101.80000305175781,96.19999694824219,103.30000305175781,93.69999694824219,103.19999694824219,90.4000015258789C103.0999984741211,85.30000305175781,102.69999694824219,82.69999694824219,101.4000015258789,79.30000305175781C100.80000305175781,77.5,101.5,73.80000305175781,102.19999694824219,70.5C102.5,68.80000305175781,102.9000015258789,67,103.0999984741211,65.4000015258789C103.5999984741211,60.29999923706055,99.19999694824219,52.900001525878906,96.80000305175781,48.900001525878906L96.30000305175781,48C95.5999984741211,46.900001525878906,95.9000015258789,45,96.0999984741211,43C96.4000015258789,40.5,96.80000305175781,37.79999923706055,95.69999694824219,35.099998474121094C94.30000305175781,32.099998474121094,92.19999694824219,29.5,89.5,27.5C88.80000305175781,26.100000381469727,86.5,21.700000762939453,81.0999984741211,17.200000762939453C75.30000305175781,12.300000190734863,66.9000015258789,13.800000190734863,64.30000305175781,14.399999618530273C62.099998474121094,13.100000381469727,54.79999923706055,10.100000381469727,41.29999923706055,14.899999618530273C23.200000762939453,21.299999237060547,23,45.400001525878906,23,46.400001525878906C23,47.900001525878906,22.200000762939453,49.29999923706055,21.100000381469727,51.099998474121094C19.399999618530273,53.900001525878906,17.299999237060547,57.400001525878906,17.100000381469727,63.29999923706055C16.899999618530273,69.80000305175781,18.100000381469727,73.4000015258789,19.399999618530273,76.9000015258789C20,78.69999694824219,20.600000381469727,80.4000015258789,21,82.4000015258789C21.600000381469727,85.9000015258789,20.700000762939453,88.30000305175781,19.600000381469727,91.19999694824219C18.899999618530273,92.9000015258789,18.200000762939453,94.69999694824219,17.899999618530273,96.9000015258789C17.299999237060547,100.5999984741211,19.899999618530273,104.9000015258789,22.100000381469727,108.80000305175781C23.299999237060547,110.80000305175781,24.700000762939453,113.19999694824219,24.700000762939453,114.0999984741211C24.600000381469727,115.0999984741211,24.5,116.4000015258789,24.299999237060547,117.80000305175781C23.700000762939453,122.19999694824219,23.399999618530273,125.0999984741211,24.299999237060547,126.5999984741211C24.5,127,24.700000762939453,127.5999984741211,24.899999618530273,128.3000030517578C25.299999237060547,130,26,132.39999389648438,28.299999237060547,134.3000030517578C29.700000762939453,135.5,31.099998474121094,138.6999969482422,31.900001525878906,140.6999969482422C32.70000076293945,142.6999969482422,33.20000076293945,143.8000030517578,34.400001525878906,143.8000030517578C34.5,143.8000030517578,34.5,143.8000030517578,34.599998474121094,143.8000030517578C35.20000076293945,143.6999969482422,35.900001525878906,143.3000030517578,36.099998474121094,142.39999389648438L36.20000076293945,142C37.5,135.89999389648438,38.099998474121094,132.1999969482422,37.79999923706055,130.39999389648438C37.70000076293945,129.3000030517578,38.099998474121094,127.0999984741211,38.400001525878906,125.0999984741211C38.79999923706055,123,39.20000076293945,120.80000305175781,39.099998474121094,119.19999694824219C39,117.4000015258789,38.29999923706055,115.80000305175781,37.70000076293945,114.19999694824219C37.099998474121094,112.80000305175781,36.5,111.4000015258789,36.400001525878906,110.0999984741211C36.400001525878906,109.0999984741211,36.79999923706055,108.30000305175781,37.400001525878906,107.19999694824219C38.20000076293945,105.80000305175781,39.20000076293945,104.0999984741211,39.29999923706055,101.5C39.400001525878906,98.80000305175781,38.29999923706055,97.4000015258789,37.400001525878906,96.0999984741211C36.599998474121094,95,35.900001525878906,94,35.79999923706055,91.80000305175781C35.70000076293945,89.5999984741211,36.29999923706055,88.5,37.20000076293945,87.19999694824219C38,85.9000015258789,39,84.4000015258789,39.099998474121094,82C39.20000076293945,79.19999694824219,38,76.9000015258789,36.900001525878906,74.9000015258789C36,73.19999694824219,35.20000076293945,71.69999694824219,35,70C34.79999923706055,68.19999694824219,35.099998474121094,67.69999694824219,35.5,66.9000015258789C35.900001525878906,66.0999984741211,36.5,64.9000015258789,36.79999923706055,62.5C37.099998474121094,59.900001525878906,36.79999923706055,58,36.400001525878906,56.20000076293945C36.099998474121094,54.5,35.79999923706055,52.79999923706055,36,50.400001525878906C36.099998474121094,48,38.20000076293945,46.400001525878906,40.20000076293945,44.900001525878906C41.29999923706055,44.099998474121094,42.400001525878906,43.20000076293945,43.099998474121094,42.29999923706055C45,43,47.20000076293945,43.599998474121094,49.5,43.900001525878906C49.599998474121094,43.900001525878906,49.599998474121094,43.900001525878906,49.70000076293945,43.900001525878906C52.099998474121094,43.900001525878906,53.29999923706055,42.20000076293945,54.29999923706055,40.900001525878906C55.29999923706055,39.400001525878906,56.20000076293945,38.29999923706055,58.5,38.29999923706055C61.80000305175781,38.29999923706055,62.900001525878906,39.400001525878906,64.30000305175781,41C65,41.70000076293945,65.69999694824219,42.5,66.69999694824219,43.29999923706055C68.69999694824219,44.70000076293945,70,44.599998474121094,71.5,44.29999923706055C72.4000015258789,44.099998474121094,73.30000305175781,43.900001525878906,75.19999694824219,44.5C75.30000305175781,44.5,75.4000015258789,44.599998474121094,75.5999984741211,44.599998474121094C82.19999694824219,45.20000076293945,82.69999694824219,54.599998474121094,82.0999984741211,64.69999694824219C81.80000305175781,71.0999984741211,83.69999694824219,73.80000305175781,85.5999984741211,76.5C86.0999984741211,77.19999694824219,86.5999984741211,77.9000015258789,87.0999984741211,78.69999694824219C88.0999984741211,80.4000015258789,86.5999984741211,85.80000305175781,85.5,89.69999694824219C84.5,93.0999984741211,83.5999984741211,96.30000305175781,83.5999984741211,98.69999694824219L83.5999984741211,100.0999984741211C83.5999984741211,104.69999694824219,83.5999984741211,108,85.30000305175781,114.0999984741211C86.9000015258789,119.5999984741211,85.5,122,83.9000015258789,124.69999694824219C82.80000305175781,126.5999984741211,81.5,128.6999969482422,81.4000015258789,131.8000030517578C81.4000015258789,132.5,81.80000305175781,133.1999969482422,82.5,133.39999389648438C83.19999694824219,133.60000610351562,83.9000015258789,133.39999389648438,84.30000305175781,132.8000030517578C85.9000015258789,130.5,88.19999694824219,130,90.5999984741211,129.5C93.80000305175781,128.8000030517578,97.80000305175781,127.9000015258789,98.4000015258789,122.19999694824219C99,117.5,100.4000015258789,115.19999694824219,101.5,113.30000305175781C102.30000305175781,112,103,110.80000305175781,103.19999694824219,109.19999694824219C103.69999694824219,106.5999984741211,102.30000305175781,104.5999984741211,101.0999984741211,103zM100.19999694824219,108.69999694824219C100.0999984741211,109.5999984741211,99.5999984741211,110.4000015258789,98.9000015258789,111.5C97.69999694824219,113.5,96,116.19999694824219,95.4000015258789,121.69999694824219C95,125,93.5,125.4000015258789,90.0999984741211,126.19999694824219C88.9000015258789,126.5,87.5,126.80000305175781,86.0999984741211,127.30000305175781C86.30000305175781,127,86.5,126.5999984741211,86.69999694824219,126.30000305175781C88.5,123.30000305175781,90.4000015258789,120,88.4000015258789,113.19999694824219C86.80000305175781,107.5,86.80000305175781,104.5999984741211,86.9000015258789,100.0999984741211L86.9000015258789,98.69999694824219C86.9000015258789,96.80000305175781,87.80000305175781,93.69999694824219,88.69999694824219,90.5999984741211C90.30000305175781,85.0999984741211,91.69999694824219,79.9000015258789,90,77C89.5,76.0999984741211,88.9000015258789,75.30000305175781,88.4000015258789,74.5999984741211C86.5999984741211,72.0999984741211,85.19999694824219,70.19999694824219,85.5,64.9000015258789C85.9000015258789,57.599998474121094,86.69999694824219,42.5,76.19999694824219,41.400001525878906C73.5999984741211,40.599998474121094,72.0999984741211,40.900001525878906,71,41.20000076293945C70,41.400001525878906,69.80000305175781,41.5,68.80000305175781,40.70000076293945C68,40.20000076293945,67.5,39.5,66.9000015258789,38.79999923706055C65.30000305175781,37,63.400001525878906,35,58.70000076293945,35C54.70000076293945,35,53,37.400001525878906,51.79999923706055,39C51,40.20000076293945,50.599998474121094,40.599998474121094,49.900001525878906,40.599998474121094C47.70000076293945,40.29999923706055,45.79999923706055,39.79999923706055,44.20000076293945,39.20000076293945C44.5,36.70000076293945,45.79999923706055,32.29999923706055,46.29999923706055,31.600000381469727C46.79999923706055,30.899999618530273,46.599998474121094,29.799999237060547,45.79999923706055,29.299999237060547C45.099998474121094,28.799999237060547,44,29,43.5,29.799999237060547C42.5,31.299999237060547,40.900001525878906,37.099998474121094,40.79999923706055,39.900001525878906C40.400001525878906,40.70000076293945,39.29999923706055,41.5,38.20000076293945,42.400001525878906C35.900001525878906,44.20000076293945,33,46.400001525878906,32.70000076293945,50.29999923706055C32.599998474121094,53,33,55,33.29999923706055,56.79999923706055C33.599998474121094,58.599998474121094,33.900001525878906,60.099998474121094,33.599998474121094,62.20000076293945C33.400001525878906,64,33,64.69999694824219,32.70000076293945,65.4000015258789C32,66.5999984741211,31.599998474121094,67.69999694824219,31.799999237060547,70.30000305175781C32,72.5999984741211,33,74.5,34,76.30000305175781C35,78.19999694824219,35.900001525878906,79.80000305175781,35.79999923706055,81.80000305175781C35.70000076293945,83.4000015258789,35.099998474121094,84.30000305175781,34.400001525878906,85.4000015258789C33.5,86.9000015258789,32.29999923706055,88.69999694824219,32.5,91.9000015258789C32.70000076293945,94.9000015258789,33.79999923706055,96.5999984741211,34.70000076293945,97.80000305175781C35.5,98.9000015258789,36,99.5999984741211,36,101.19999694824219C36,103,35.29999923706055,104.19999694824219,34.599998474121094,105.4000015258789S33,108,33.099998474121094,110C33.20000076293945,111.9000015258789,33.900001525878906,113.5999984741211,34.599998474121094,115.30000305175781C35.20000076293945,116.69999694824219,35.70000076293945,117.9000015258789,35.79999923706055,119.0999984741211C35.79999923706055,120.4000015258789,35.5,122.4000015258789,35.099998474121094,124.4000015258789C34.70000076293945,126.80000305175781,34.29999923706055,129.10000610351562,34.5,130.6999969482422C34.599998474121094,131.39999389648438,34.5,133.10000610351562,33.79999923706055,137C32.900001525878906,135,31.700000762939453,132.89999389648438,30.299999237060547,131.6999969482422C28.799999237060547,130.39999389648438,28.399999618530273,128.89999389648438,28,127.30000305175781C27.799999237060547,126.4000015258789,27.5,125.5,27.100000381469727,124.80000305175781C26.700000762939453,124,27.299999237060547,120.0999984741211,27.5,118.0999984741211C27.700000762939453,116.5999984741211,27.899999618530273,115.19999694824219,28,114.0999984741211C28.100000381469727,112.19999694824219,26.700000762939453,109.9000015258789,25,106.9000015258789C23,104,20.700000762939453,100,21.100000381469727,97.5C21.399999618530273,95.69999694824219,22,94.0999984741211,22.600000381469727,92.4000015258789C23.700000762939453,89.4000015258789,24.899999618530273,86.30000305175781,24.200000762939453,81.9000015258789C23.799999237060547,79.5999984741211,23.100000381469727,77.69999694824219,22.5,75.9000015258789C21.299999237060547,72.5,20.200000762939453,69.30000305175781,20.399999618530273,63.5C20.600000381469727,58.400001525878906,22.299999237060547,55.400001525878906,23.899999618530273,52.79999923706055C25.100000381469727,50.79999923706055,26.299999237060547,48.79999923706055,26.299999237060547,46.400001525878906C26.299999237060547,45.5,26.5,23.600000381469727,42.400001525878906,17.899999618530273C47.599998474121094,16.100000381469727,51.70000076293945,15.5,54.79999923706055,15.5C60.400001525878906,15.5,63,17.299999237060547,63,17.399999618530273C63.400001525878906,17.700000762939453,64,17.799999237060547,64.5,17.700000762939453C64.5999984741211,17.700000762939453,73.5,15.100000381469727,79,19.700000762939453C84.80000305175781,24.5,86.5999984741211,29.100000381469727,86.5999984741211,29.100000381469727C86.69999694824219,29.399999618530273,86.9000015258789,29.700000762939453,87.19999694824219,29.799999237060547C89.5999984741211,31.5,91.5,33.70000076293945,92.5999984741211,36.29999923706055C93.4000015258789,38.20000076293945,93.0999984741211,40.400001525878906,92.80000305175781,42.599998474121094C92.5,45,92.19999694824219,47.599998474121094,93.4000015258789,49.599998474121094L93.9000015258789,50.400001525878906C95.80000305175781,53.5,100.19999694824219,60.900001525878906,99.80000305175781,64.9000015258789C99.5999984741211,66.4000015258789,99.30000305175781,68.0999984741211,98.9000015258789,69.80000305175781C98.0999984741211,73.80000305175781,97.30000305175781,77.69999694824219,98.19999694824219,80.30000305175781C99.30000305175781,83.4000015258789,99.69999694824219,85.5999984741211,99.80000305175781,90.4000015258789C99.80000305175781,92.9000015258789,98.80000305175781,94.69999694824219,97.80000305175781,96.4000015258789C97,97.80000305175781,96.19999694824219,99.19999694824219,96.30000305175781,100.69999694824219C96.4000015258789,102.30000305175781,97.30000305175781,103.69999694824219,98.30000305175781,105C99.4000015258789,106.19999694824219,100.30000305175781,107.5,100.19999694824219,108.69999694824219z"/>
<path id="Hairband" fill="#FF5E0D" d="M88,52.5C88,34.5,78.5,22.299999237060547,59,22.299999237060547S30.200000762939453,34.5,30.200000762939453,52.5L31.099998474121094,56.70000076293945C31.099998474121094,38.70000076293945,39.400001525878906,27.200000762939453,58.900001525878906,27.200000762939453S87.0999984741211,38,87.0999984741211,56L88,52.5z"/>
<path id="HairbandBorder" d="M31.099998474121094,57.70000076293945C30.599998474121094,57.70000076293945,30.200000762939453,57.400001525878906,30.099998474121094,56.900001525878906L29.200000762939453,52.70000076293945C29.200000762939453,52.599998474121094,29.200000762939453,52.599998474121094,29.200000762939453,52.5C29.200000762939453,32.70000076293945,40.099998474121094,21.299999237060547,59,21.299999237060547C78.0999984741211,21.299999237060547,89,32.70000076293945,89,52.5C89,52.599998474121094,89,52.70000076293945,89,52.70000076293945L88.0999984741211,56.20000076293945C88,56.70000076293945,87.5,57,87,56.900001525878906C86.5,56.79999923706055,86.0999984741211,56.400001525878906,86.0999984741211,55.900001525878906C86.0999984741211,37.5,76.9000015258789,28.100000381469727,58.900001525878906,28.100000381469727C41.099998474121094,28.100000381469727,32.099998474121094,37.70000076293945,32.099998474121094,56.599998474121094C32.099998474121094,57.099998474121094,31.700000762939453,57.5,31.099998474121094,57.70000076293945C31.200000762939453,57.70000076293945,31.099998474121094,57.70000076293945,31.099998474121094,57.70000076293945zM88,52.5L88,52.5L88,52.5zM59,23.299999237060547C45,23.299999237060547,35.70000076293945,30,32.5,42C36.5,31.600000381469727,45.400001525878906,26.200000762939453,58.900001525878906,26.200000762939453C72.30000305175781,26.200000762939453,81.19999694824219,31.299999237060547,85.4000015258789,41C81.9000015258789,29.600000381469727,72.69999694824219,23.299999237060547,59,23.299999237060547z"/>
<path id="MouthNose" d="M61.80000305175781,71.80000305175781C61.30000305175781,71.80000305175781,60.79999923706055,71.69999694824219,60.5,71.5999984741211C60.099998474121094,71.5,59.900001525878906,71,60.099998474121094,70.5999984741211C60.20000076293945,70.19999694824219,60.70000076293945,70,61.099998474121094,70.19999694824219C61.599998474121094,70.4000015258789,62.69999694824219,70.4000015258789,63.599998474121094,69.80000305175781C64.19999694824219,69.4000015258789,64.5,68.80000305175781,64.5,68C64.5,67.5999984741211,64.4000015258789,67.30000305175781,64.0999984741211,67.0999984741211C63.30000305175781,66.4000015258789,61.400001525878906,66.5999984741211,60.79999923706055,66.69999694824219C60.400001525878906,66.80000305175781,60,66.5,59.900001525878906,66.0999984741211C59.79999923706055,65.69999694824219,60.099998474121094,65.30000305175781,60.5,65.19999694824219C60.79999923706055,65.0999984741211,63.599998474121094,64.69999694824219,65.0999984741211,66C65.69999694824219,66.5,66,67.19999694824219,66,68.0999984741211C66,69.80000305175781,65.19999694824219,70.69999694824219,64.5,71.19999694824219C63.5,71.5999984741211,62.599998474121094,71.80000305175781,61.80000305175781,71.80000305175781zM64.30000305175781,78.9000015258789C64.69999694824219,78.80000305175781,64.9000015258789,78.4000015258789,64.80000305175781,78C64.69999694824219,77.5999984741211,64.30000305175781,77.4000015258789,63.900001525878906,77.5C63.80000305175781,77.5,57,79.19999694824219,52.5,75.69999694824219C52.20000076293945,75.4000015258789,51.70000076293945,75.5,51.400001525878906,75.80000305175781C51.099998474121094,76.0999984741211,51.20000076293945,76.5999984741211,51.5,76.9000015258789C54.099998474121094,78.9000015258789,57.29999923706055,79.4000015258789,59.79999923706055,79.4000015258789C62.400001525878906,79.4000015258789,64.0999984741211,79,64.30000305175781,78.9000015258789z"/>
<path id="EyesWhite" fill="#FFFFFF" d="M53.900001525878906,59.599998474121094C53.70000076293945,61.20000076293945,51.70000076293945,62.900001525878906,48.29999923706055,62.900001525878906C44.900001525878906,62.900001525878906,41.599998474121094,61.099998474121094,41.599998474121094,58.79999923706055C41.599998474121094,57,44.400001525878906,55.5,47.70000076293945,55.5S54.099998474121094,57.79999923706055,53.900001525878906,59.599998474121094zM66.19999694824219,59.599998474121094C66.4000015258789,61.20000076293945,68.19999694824219,62.900001525878906,71.5999984741211,62.900001525878906C75,62.900001525878906,78.5,61.099998474121094,78.5,58.79999923706055C78.5,57,75.69999694824219,55.5,72.4000015258789,55.5C68.9000015258789,55.5,65.9000015258789,57.79999923706055,66.19999694824219,59.599998474121094z"/>
<path id="Eyes" d="M45.099998474121094,59.099998474121094C45.099998474121094,61,46.599998474121094,62.5,48.5,62.5C50.400001525878906,62.5,51.900001525878906,61,51.900001525878906,59.099998474121094C51.900001525878906,57.20000076293945,50.400001525878906,55.70000076293945,48.5,55.70000076293945C46.599998474121094,55.70000076293945,45.099998474121094,57.20000076293945,45.099998474121094,59.099998474121094L45.099998474121094,59.099998474121094zM74.69999694824219,59.099998474121094C74.69999694824219,61,73.19999694824219,62.5,71.30000305175781,62.5C69.4000015258789,62.5,67.9000015258789,61,67.9000015258789,59.099998474121094C67.9000015258789,57.20000076293945,69.4000015258789,55.70000076293945,71.30000305175781,55.70000076293945C73.19999694824219,55.70000076293945,74.69999694824219,57.20000076293945,74.69999694824219,59.099998474121094L74.69999694824219,59.099998474121094z"/>
<path id="Eyelids" d="M53.70000076293945,60.900001525878906C53.29999923706055,60.900001525878906,52.900001525878906,60.599998474121094,52.900001525878906,60.099998474121094C52.900001525878906,57.900001525878906,50.5,56.20000076293945,47.5,56.20000076293945C44.79999923706055,56.20000076293945,42.099998474121094,57.20000076293945,42.099998474121094,59.599998474121094C42.099998474121094,60,41.79999923706055,60.400001525878906,41.29999923706055,60.400001525878906C40.79999923706055,60.400001525878906,40.5,60.099998474121094,40.5,59.599998474121094C40.5,56.70000076293945,43.29999923706055,54.70000076293945,47.400001525878906,54.70000076293945C51.20000076293945,54.70000076293945,54.29999923706055,57.099998474121094,54.29999923706055,60.099998474121094C54.5,60.599998474121094,54.099998474121094,60.900001525878906,53.70000076293945,60.900001525878906zM66.80000305175781,60.20000076293945C66.80000305175781,58,69.19999694824219,56.29999923706055,72.19999694824219,56.29999923706055C74.80000305175781,56.29999923706055,77.5,57.400001525878906,77.5,59.70000076293945C77.5,60.099998474121094,77.80000305175781,60.5,78.30000305175781,60.5C78.80000305175781,60.5,79.0999984741211,60.20000076293945,79.0999984741211,59.70000076293945C79.0999984741211,56.79999923706055,76.30000305175781,54.79999923706055,72.30000305175781,54.79999923706055C68.5,54.79999923706055,65.4000015258789,57.20000076293945,65.4000015258789,60.20000076293945C65.4000015258789,60.599998474121094,65.69999694824219,61,66.19999694824219,61S66.80000305175781,60.599998474121094,66.80000305175781,60.20000076293945z"/>
<path id="EyeBrows" d="M65.5999984741211,53.20000076293945C65.30000305175781,53.20000076293945,65,53.099998474121094,64.80000305175781,52.900001525878906C64.4000015258789,52.5,64.5,51.900001525878906,64.9000015258789,51.5C67.30000305175781,49.400001525878906,70.4000015258789,48.5,73.5999984741211,49C75.80000305175781,49.20000076293945,77.80000305175781,49.900001525878906,79.4000015258789,51.099998474121094C79.9000015258789,51.400001525878906,80,52,79.69999694824219,52.5C79.4000015258789,53,78.80000305175781,53.099998474121094,78.30000305175781,52.79999923706055C76.9000015258789,51.900001525878906,75.19999694824219,51.29999923706055,73.4000015258789,51.099998474121094C70.69999694824219,50.70000076293945,68.19999694824219,51.5,66.30000305175781,53.20000076293945C66.0999984741211,53.099998474121094,65.80000305175781,53.20000076293945,65.5999984741211,53.20000076293945zM55.29999923706055,52.900001525878906C55.70000076293945,52.5,55.599998474121094,51.900001525878906,55.20000076293945,51.5C52.79999923706055,49.400001525878906,49.70000076293945,48.5,46.5,49C44.400001525878906,49.20000076293945,42.400001525878906,50,40.599998474121094,51.20000076293945C40.099998474121094,51.5,40,52.099998474121094,40.29999923706055,52.599998474121094C40.599998474121094,53.099998474121094,41.20000076293945,53.20000076293945,41.70000076293945,52.900001525878906C43.099998474121094,51.900001525878906,44.900001525878906,51.29999923706055,46.70000076293945,51.099998474121094C49.29999923706055,50.70000076293945,51.79999923706055,51.5,53.79999923706055,53.20000076293945C54,53.400001525878906,54.20000076293945,53.400001525878906,54.5,53.400001525878906C54.79999923706055,53.20000076293945,55.099998474121094,53.099998474121094,55.29999923706055,52.900001525878906z"/>
</g>
</svg>