<svg xmlns="http://www.w3.org/2000/svg" xmlns:xlink="http://www.w3.org/1999/xlink" viewBox= "0 0 134 394" width="134px" height="394px">
<g xmlns="http://www.w3.org/2000/svg" id="TeenBoy3V2.svg">
<path id="Shoes" fill="#DD2400" d="M54.29999923706055,353.79998779296875C56.70000076293945,354,55.400001525878906,349.3999938964844,57.29999923706055,349.70001220703125C59.20000076293945,350,60.79999923706055,356,61.400001525878906,359.8999938964844C62,363.79998779296875,54.099998474121094,372.5,45.79999923706055,377.8999938964844C37.5,383.3999938964844,27.100000381469727,382,22.899999618530273,378.79998779296875C18.700000762939453,375.6000061035156,20.700000762939453,367.1000061035156,26.100000381469727,365.70001220703125C31.5,364.29998779296875,33.900001525878906,358.5,37,355.20001220703125C40.099998474121094,351.8999938964844,40.599998474121094,348.8999938964844,44.79999923706055,348.8999938964844C49.79999923706055,348.8999938964844,52,353.5,54.29999923706055,353.79998779296875zM87.80000305175781,353.79998779296875C85.4000015258789,354,86.69999694824219,349.3999938964844,84.80000305175781,349.70001220703125C82.9000015258789,350,81.4000015258789,356,80.69999694824219,359.8999938964844C80.0999984741211,363.79998779296875,88,372.5,96.30000305175781,377.8999938964844C104.5999984741211,383.3999938964844,115,382,119.19999694824219,378.79998779296875C123.4000015258789,375.6000061035156,121.4000015258789,367.1000061035156,116,365.70001220703125C110.5999984741211,364.29998779296875,108.19999694824219,358.5,105.0999984741211,355.20001220703125C102,351.8999938964844,101.5,348.8999938964844,97.30000305175781,348.8999938964844C92.4000015258789,348.8999938964844,90.0999984741211,353.5,87.80000305175781,353.79998779296875z"/>
<path id="Shoes2" fill="#FFFFFF" d="M80.5999984741211,359.8999938964844C80.69999694824219,359.1000061035156,80.9000015258789,358.1000061035156,81.0999984741211,357.20001220703125C85,362.79998779296875,91.4000015258789,369.8999938964844,97.9000015258789,373.79998779296875C98.9000015258789,372,100.0999984741211,370.1000061035156,101.4000015258789,368.3999938964844C103.9000015258789,365.1000061035156,108.30000305175781,364.1000061035156,112.5999984741211,364.29998779296875C113.69999694824219,365,114.80000305175781,365.5,116,365.79998779296875C119.19999694824219,366.70001220703125,121.19999694824219,370.1000061035156,121.4000015258789,373.3999938964844C121.4000015258789,372.70001220703125,121.19999694824219,372,121,371.29998779296875C121.19999694824219,372,121.30000305175781,372.70001220703125,121.4000015258789,373.3999938964844L121.4000015258789,373.3999938964844C121.4000015258789,373.70001220703125,121.4000015258789,374.1000061035156,121.4000015258789,374.3999938964844L121.4000015258789,374.5C121.4000015258789,374.79998779296875,121.30000305175781,375.1000061035156,121.30000305175781,375.3999938964844C121.30000305175781,375.5,121.30000305175781,375.5,121.30000305175781,375.6000061035156C121.19999694824219,375.8999938964844,121.19999694824219,376.1000061035156,121.0999984741211,376.3999938964844C121.0999984741211,376.5,121.0999984741211,376.5,121,376.6000061035156C120.9000015258789,376.79998779296875,120.80000305175781,377.1000061035156,120.69999694824219,377.29998779296875C120.69999694824219,377.3999938964844,120.5999984741211,377.5,120.5999984741211,377.5C120.5,377.70001220703125,120.30000305175781,377.8999938964844,120.19999694824219,378.1000061035156C120.19999694824219,378.20001220703125,120.0999984741211,378.20001220703125,120.0999984741211,378.29998779296875C119.9000015258789,378.5,119.5999984741211,378.79998779296875,119.4000015258789,379C117.30000305175781,380.6000061035156,113.5999984741211,381.79998779296875,109.5,381.79998779296875C105.30000305175781,381.8999938964844,100.5999984741211,380.79998779296875,96.5,378.1000061035156C96.4000015258789,378,96.19999694824219,377.8999938964844,96.0999984741211,377.79998779296875C87.80000305175781,372.1000061035156,80.0999984741211,363.79998779296875,80.5999984741211,359.8999938964844zM21,371.1000061035156C20.799999237060547,371.79998779296875,20.700000762939453,372.5,20.600000381469727,373.20001220703125L20.600000381469727,373.20001220703125C20.600000381469727,373.5,20.600000381469727,373.8999938964844,20.600000381469727,374.20001220703125C20.600000381469727,374.20001220703125,20.600000381469727,374.20001220703125,20.600000381469727,374.29998779296875C20.600000381469727,374.6000061035156,20.700000762939453,374.8999938964844,20.700000762939453,375.20001220703125L20.700000762939453,375.29998779296875C20.799999237060547,375.6000061035156,20.799999237060547,375.79998779296875,20.899999618530273,376.1000061035156C20.899999618530273,376.20001220703125,20.899999618530273,376.20001220703125,21,376.29998779296875C21.100000381469727,376.5,21.200000762939453,376.79998779296875,21.299999237060547,377C21.299999237060547,377.1000061035156,21.399999618530273,377.1000061035156,21.399999618530273,377.20001220703125C21.5,377.3999938964844,21.700000762939453,377.6000061035156,21.899999618530273,377.79998779296875C21.899999618530273,377.8999938964844,22,377.8999938964844,22,378C22.200000762939453,378.20001220703125,22.5,378.5,22.700000762939453,378.70001220703125C24.799999237060547,380.29998779296875,28.5,381.5,32.599998474121094,381.5C36.70000076293945,381.5,41.5,380.5,45.599998474121094,377.79998779296875L45.599998474121094,377.79998779296875C45.70000076293945,377.70001220703125,45.79999923706055,377.6000061035156,46,377.6000061035156C54.20000076293945,372.1000061035156,61.79999923706055,363.70001220703125,61.20000076293945,359.79998779296875C61.099998474121094,359,60.900001525878906,358,60.70000076293945,357.1000061035156C56.900001525878906,362.70001220703125,50.5,369.70001220703125,44,373.70001220703125C43,371.8999938964844,41.79999923706055,370,40.5,368.29998779296875C38,365,33.599998474121094,364,29.299999237060547,364.20001220703125C28.200000762939453,364.8999938964844,27.100000381469727,365.3999938964844,25.899999618530273,365.70001220703125C22.600000381469727,366.6000061035156,20.600000381469727,370,20.5,373.29998779296875C20.799999237060547,372.5,20.799999237060547,371.8999938964844,21,371.1000061035156z"/>
<path id="ShoesBorder" d="M63,359.6000061035156C62.29999923706055,355.5,60.79999923706055,348.6000061035156,57.599998474121094,348.1000061035156C57.400001525878906,348.1000061035156,57.29999923706055,348.1000061035156,57.20000076293945,348.1000061035156C55.099998474121094,348.1000061035156,54.70000076293945,350.20001220703125,54.5,351.20001220703125C54.400001525878906,351.5,54.400001525878906,351.79998779296875,54.29999923706055,352.1000061035156C53.79999923706055,351.8999938964844,53.099998474121094,351.29998779296875,52.5,350.79998779296875C50.79999923706055,349.29998779296875,48.400001525878906,347.29998779296875,44.900001525878906,347.29998779296875C41.099998474121094,347.29998779296875,39.599998474121094,349.29998779296875,38,351.5C37.400001525878906,352.29998779296875,36.79999923706055,353.20001220703125,35.900001525878906,354.1000061035156C34.900001525878906,355.1000061035156,34,356.3999938964844,33.099998474121094,357.70001220703125C31.100000381469727,360.5,29,363.3999938964844,25.799999237060547,364.20001220703125C22.600000381469727,365.1000061035156,20.100000381469727,368,19.399999618530273,371.70001220703125C18.700000762939453,375.1000061035156,19.799999237060547,378.3999938964844,22.100000381469727,380.20001220703125C24.700000762939453,382.20001220703125,28.899999618530273,383.29998779296875,33.400001525878906,383.29998779296875C36.79999923706055,383.29998779296875,42,382.6000061035156,47,379.29998779296875C53.79999923706055,374.5,64,365,63,359.6000061035156zM45.29999923706055,377C40.900001525878906,379.8999938964844,36.29999923706055,380.6000061035156,33.20000076293945,380.6000061035156L33.20000076293945,380.6000061035156C29.299999237060547,380.6000061035156,25.600000381469727,379.6000061035156,23.5,378C22.200000762939453,377,21.600000381469727,375.29998779296875,21.600000381469727,373.3999938964844C24.5,376,29.700000762939453,377.79998779296875,35,377.79998779296875L35.400001525878906,377.79998779296875C44.099998474121094,377.70001220703125,54.5,367.5,60.29999923706055,359.70001220703125C60.29999923706055,359.79998779296875,60.29999923706055,360,60.400001525878906,360.1000061035156C61,363.3999938964844,53.599998474121094,371.5,45.29999923706055,377zM42.79999923706055,373.3999938964844C42.20000076293945,373.70001220703125,41.599998474121094,374,41.099998474121094,374.29998779296875C41.099998474121094,374.29998779296875,41,374.29998779296875,41,374.3999938964844C40.70000076293945,374.5,40.400001525878906,374.70001220703125,40,374.79998779296875C39.900001525878906,374.79998779296875,39.900001525878906,374.8999938964844,39.79999923706055,374.8999938964844C39.099998474121094,375.20001220703125,38.400001525878906,375.3999938964844,37.70000076293945,375.5C37.599998474121094,375.5,37.5,375.5,37.400001525878906,375.6000061035156C37.099998474121094,375.70001220703125,36.900001525878906,375.70001220703125,36.599998474121094,375.70001220703125C36.5,375.70001220703125,36.400001525878906,375.70001220703125,36.29999923706055,375.70001220703125C36,375.70001220703125,35.599998474121094,375.79998779296875,35.29999923706055,375.79998779296875L35,375.79998779296875C28.799999237060547,375.79998779296875,23.899999618530273,373.5,22,371L22,371C22.799999237060547,368.79998779296875,24.299999237060547,367.20001220703125,26.200000762939453,366.70001220703125C27.299999237060547,366.3999938964844,28.399999618530273,365.8999938964844,29.600000381469727,365.20001220703125C29.799999237060547,365.20001220703125,30,365.20001220703125,30.299999237060547,365.20001220703125C33.29999923706055,365.20001220703125,37.5,365.79998779296875,39.79999923706055,368.8999938964844C40.900001525878906,370.3999938964844,41.900001525878906,372,42.79999923706055,373.3999938964844L42.79999923706055,373.3999938964844zM32.599998474121094,363.20001220703125C33.70000076293945,362,34.70000076293945,360.70001220703125,35.599998474121094,359.3999938964844C36.5,358.20001220703125,37.29999923706055,357.1000061035156,38.099998474121094,356.20001220703125C39.099998474121094,355.20001220703125,39.79999923706055,354.20001220703125,40.400001525878906,353.29998779296875C41.900001525878906,351.29998779296875,42.5,350.3999938964844,44.70000076293945,350.3999938964844C47,350.3999938964844,48.599998474121094,351.79998779296875,50.20000076293945,353.1000061035156C51.5,354.20001220703125,52.599998474121094,355.20001220703125,54.099998474121094,355.29998779296875C54.20000076293945,355.29998779296875,54.29999923706055,355.29998779296875,54.29999923706055,355.29998779296875C56.5,355.29998779296875,57.099998474121094,353.29998779296875,57.400001525878906,352.1000061035156C57.900001525878906,353.20001220703125,58.599998474121094,355.1000061035156,59.20000076293945,357.6000061035156C55.79999923706055,362.3999938964844,50.099998474121094,368.5,44.400001525878906,372.29998779296875C43.5,370.79998779296875,42.5,369.20001220703125,41.400001525878906,367.70001220703125C39.70000076293945,365.20001220703125,36.5,363.6000061035156,32.599998474121094,363.20001220703125L32.599998474121094,363.20001220703125zM122.9000015258789,371.6000061035156C122.19999694824219,367.8999938964844,119.5999984741211,364.8999938964844,116.5,364.1000061035156C113.30000305175781,363.20001220703125,111.19999694824219,360.29998779296875,109.19999694824219,357.6000061035156C108.30000305175781,356.29998779296875,107.4000015258789,355.1000061035156,106.4000015258789,354C105.5999984741211,353.1000061035156,104.9000015258789,352.29998779296875,104.30000305175781,351.3999938964844C102.69999694824219,349.20001220703125,101.19999694824219,347.20001220703125,97.4000015258789,347.20001220703125C93.9000015258789,347.20001220703125,91.5,349.20001220703125,89.80000305175781,350.70001220703125C89.19999694824219,351.20001220703125,88.4000015258789,351.79998779296875,88,352C87.9000015258789,351.70001220703125,87.80000305175781,351.3999938964844,87.80000305175781,351.1000061035156C87.5999984741211,350.1000061035156,87.19999694824219,348,85.0999984741211,348C85,348,84.80000305175781,348,84.69999694824219,348C81.5,348.5,79.9000015258789,355.5,79.30000305175781,359.5C78.4000015258789,365,88.5,374.5,95.5999984741211,379.20001220703125C100.5999984741211,382.5,105.69999694824219,383.20001220703125,109.19999694824219,383.20001220703125L109.19999694824219,383.20001220703125C113.69999694824219,383.20001220703125,117.9000015258789,382,120.5,380.1000061035156C122.5999984741211,378.3999938964844,123.5999984741211,375,122.9000015258789,371.6000061035156zM118.5999984741211,378C116.5,379.6000061035156,112.80000305175781,380.6000061035156,108.9000015258789,380.6000061035156C105.80000305175781,380.6000061035156,101.19999694824219,380,96.80000305175781,377C88.5,371.5,81.0999984741211,363.20001220703125,81.69999694824219,359.8999938964844C81.69999694824219,359.79998779296875,81.69999694824219,359.6000061035156,81.80000305175781,359.5C87.5999984741211,367.29998779296875,98,377.5,106.69999694824219,377.6000061035156L107.0999984741211,377.6000061035156C112.5,377.6000061035156,117.5999984741211,375.8999938964844,120.5,373.20001220703125C120.5999984741211,375.3999938964844,119.9000015258789,377,118.5999984741211,378zM109.4000015258789,363.20001220703125C105.5,363.6000061035156,102.4000015258789,365.1000061035156,100.5999984741211,367.6000061035156C99.5,369.1000061035156,98.5,370.70001220703125,97.5999984741211,372.20001220703125L97.5999984741211,372.20001220703125L97.5999984741211,372.20001220703125C91.80000305175781,368.3999938964844,86.19999694824219,362.29998779296875,82.80000305175781,357.5C83.4000015258789,355,84,353.1000061035156,84.5999984741211,352C84.9000015258789,353.20001220703125,85.5,355.20001220703125,87.69999694824219,355.20001220703125C87.80000305175781,355.20001220703125,87.80000305175781,355.20001220703125,87.9000015258789,355.20001220703125C89.4000015258789,355.1000061035156,90.5999984741211,354.1000061035156,91.80000305175781,353C93.4000015258789,351.70001220703125,95,350.29998779296875,97.30000305175781,350.29998779296875C99.5,350.29998779296875,100.19999694824219,351.20001220703125,101.5999984741211,353.20001220703125C102.19999694824219,354.1000061035156,103,355.1000061035156,103.9000015258789,356.1000061035156C104.69999694824219,357,105.5999984741211,358.1000061035156,106.4000015258789,359.29998779296875C107.4000015258789,360.79998779296875,108.4000015258789,362,109.4000015258789,363.20001220703125L109.4000015258789,363.20001220703125zM99.4000015258789,373.3999938964844C100.30000305175781,371.8999938964844,101.30000305175781,370.3999938964844,102.30000305175781,368.8999938964844C104.5999984741211,365.79998779296875,108.69999694824219,365.20001220703125,111.80000305175781,365.20001220703125C112,365.20001220703125,112.19999694824219,365.20001220703125,112.5,365.20001220703125C113.69999694824219,365.8999938964844,114.80000305175781,366.3999938964844,115.9000015258789,366.70001220703125C117.80000305175781,367.20001220703125,119.30000305175781,368.79998779296875,120.0999984741211,371L120.0999984741211,371C118.19999694824219,373.3999938964844,113.30000305175781,375.79998779296875,107.0999984741211,375.79998779296875L106.80000305175781,375.79998779296875C106.5,375.79998779296875,106.0999984741211,375.79998779296875,105.80000305175781,375.70001220703125C105.69999694824219,375.70001220703125,105.5999984741211,375.70001220703125,105.5,375.70001220703125C105.19999694824219,375.70001220703125,105,375.6000061035156,104.69999694824219,375.6000061035156C104.5999984741211,375.6000061035156,104.5,375.6000061035156,104.4000015258789,375.5C103.69999694824219,375.29998779296875,103,375.1000061035156,102.30000305175781,374.8999938964844C102.19999694824219,374.8999938964844,102.19999694824219,374.8999938964844,102.0999984741211,374.79998779296875C101.80000305175781,374.70001220703125,101.5,374.5,101.0999984741211,374.3999938964844C101.0999984741211,374.3999938964844,101,374.3999938964844,101,374.29998779296875C100.4000015258789,374,99.9000015258789,373.79998779296875,99.4000015258789,373.3999938964844L99.4000015258789,373.3999938964844z"/>
<path id="ShoeLaces" fill="#FFFFFF" d="M41.900001525878906,354.5L42.5,355.20001220703125L39,354.79998779296875L41.900001525878906,354.5L41.900001525878906,354.5L41.900001525878906,354.5zM44.20000076293945,354.3999938964844L47,354.1000061035156C47.5,354,48,353.6000061035156,47.900001525878906,353C47.79999923706055,352.5,47.400001525878906,352.1000061035156,46.79999923706055,352.1000061035156L42.70000076293945,352.5L42.70000076293945,352.5L41.5,351C41.20000076293945,350.6000061035156,40.5,350.5,40.099998474121094,350.8999938964844C39.70000076293945,351.29998779296875,39.599998474121094,351.8999938964844,40,352.29998779296875L40.400001525878906,352.79998779296875L40.400001525878906,352.79998779296875L37.70000076293945,353.1000061035156C37.20000076293945,353.20001220703125,36.70000076293945,353.6000061035156,36.79999923706055,354.20001220703125C36.79999923706055,354.3999938964844,36.900001525878906,354.6000061035156,37,354.70001220703125L37,354.70001220703125L36.70000076293945,354.70001220703125C36.29999923706055,354.70001220703125,35.900001525878906,354.79998779296875,35.70000076293945,355.20001220703125C35.5,355.5,35.5,356,35.70000076293945,356.29998779296875L38.70000076293945,360.6000061035156L33.5,359.8999938964844C32.900001525878906,359.79998779296875,32.5,360.20001220703125,32.400001525878906,360.79998779296875C32.29999923706055,361.29998779296875,32.70000076293945,361.79998779296875,33.29999923706055,361.8999938964844L40.79999923706055,362.8999938964844L41,362.8999938964844C41.29999923706055,362.8999938964844,41.70000076293945,362.70001220703125,41.900001525878906,362.3999938964844C42.099998474121094,362.1000061035156,42.099998474121094,361.6000061035156,41.900001525878906,361.29998779296875L38.900001525878906,357L44.900001525878906,357.79998779296875C45.29999923706055,357.79998779296875,45.70000076293945,357.70001220703125,45.900001525878906,357.29998779296875C46.099998474121094,356.8999938964844,46.099998474121094,356.5,45.79999923706055,356.20001220703125L44.20000076293945,354.3999938964844L44.20000076293945,354.3999938964844zM97.9000015258789,354.3999938964844L95.0999984741211,354.1000061035156C94.5,354,94.19999694824219,353.6000061035156,94.19999694824219,353C94.30000305175781,352.5,94.69999694824219,352.1000061035156,95.30000305175781,352.1000061035156L99.4000015258789,352.5L100.5999984741211,351C100.9000015258789,350.6000061035156,101.5999984741211,350.5,102,350.8999938964844C102.4000015258789,351.20001220703125,102.5,351.8999938964844,102.0999984741211,352.29998779296875L101.69999694824219,352.79998779296875L104.4000015258789,353.1000061035156C105,353.20001220703125,105.30000305175781,353.6000061035156,105.30000305175781,354.20001220703125C105.30000305175781,354.3999938964844,105.19999694824219,354.6000061035156,105.0999984741211,354.70001220703125L105.4000015258789,354.70001220703125C105.80000305175781,354.70001220703125,106.19999694824219,354.79998779296875,106.4000015258789,355.20001220703125C106.5999984741211,355.5,106.5999984741211,356,106.4000015258789,356.29998779296875L103.4000015258789,360.6000061035156L108.5999984741211,359.8999938964844C109.0999984741211,359.79998779296875,109.5999984741211,360.20001220703125,109.69999694824219,360.79998779296875C109.80000305175781,361.29998779296875,109.4000015258789,361.79998779296875,108.80000305175781,361.8999938964844L101.30000305175781,362.8999938964844L101.19999694824219,362.8999938964844C100.9000015258789,362.8999938964844,100.5,362.70001220703125,100.30000305175781,362.3999938964844C100.0999984741211,362.1000061035156,100.0999984741211,361.6000061035156,100.30000305175781,361.29998779296875L103.30000305175781,357L97.30000305175781,357.79998779296875C96.9000015258789,357.79998779296875,96.5,357.70001220703125,96.30000305175781,357.29998779296875C96.0999984741211,356.8999938964844,96.0999984741211,356.5,96.4000015258789,356.20001220703125L97.9000015258789,354.3999938964844M99.5999984741211,355.3999938964844L103.0999984741211,355L100.19999694824219,354.70001220703125L99.5999984741211,355.3999938964844z"/>
<path id="Pants" fill="#45839B" d="M34.5,214.10000610351562C30,223.60000610351562,30.399999618530273,244.89999389648438,32,248.10000610351562C33.599998474121094,251.3000030517578,34,265.79998779296875,33,270.6000061035156C32,275.3999938964844,34.79999923706055,310.79998779296875,35.20000076293945,314.3999938964844C35.599998474121094,318,37.70000076293945,332.29998779296875,37.099998474121094,337.1000061035156C36.5,341.8999938964844,32.20000076293945,358,32.20000076293945,358C32.20000076293945,358,38.900001525878906,348.1000061035156,46.5,349.3999938964844C54.099998474121094,350.70001220703125,62.20000076293945,361.8999938964844,64.0999984741211,362.20001220703125C66,362.5,67.5999984741211,360.3999938964844,68.5,356.5L71.19999694824219,351.5C71.19999694824219,351.5,68.4000015258789,346.79998779296875,69,344.8999938964844C69.5999984741211,343,70.5999984741211,318.8999938964844,68.69999694824219,307.79998779296875C67.30000305175781,298.20001220703125,67.0999984741211,288.3999938964844,68.0999984741211,278.70001220703125C68.69999694824219,273.8999938964844,68.69999694824219,263.3999938964844,68.69999694824219,258.6000061035156C68.69999694824219,253.8000030517578,68.80000305175781,246,69.5,246.6999969482422C75,261.20001220703125,72.69999694824219,288.6000061035156,74.30000305175781,300.8999938964844C76,313.20001220703125,76.69999694824219,333.8999938964844,77,339.29998779296875C77.30000305175781,344.70001220703125,75.9000015258789,347.20001220703125,76.5,349.3999938964844C77.0999984741211,351.6000061035156,74.9000015258789,361.6000061035156,76.5,363.29998779296875C78.0999984741211,365,80.4000015258789,358,86.69999694824219,355.1000061035156C93,352.20001220703125,103.9000015258789,350.6000061035156,106.0999984741211,351.6000061035156C108.30000305175781,352.6000061035156,104.19999694824219,314.79998779296875,103.30000305175781,306.5C102.4000015258789,298.20001220703125,105.5,284.20001220703125,103.9000015258789,277.20001220703125C102.30000305175781,270.20001220703125,106.4000015258789,251.8000030517578,106.4000015258789,247.6999969482422C106.4000015258789,243.60000610351562,105.5,214.39999389648438,102,212.5S38,206.60000610351562,34.5,214.10000610351562z"/>
<path id="PantsBorder" d="M77.0999984741211,365C76.5,365,75.9000015258789,364.70001220703125,75.4000015258789,364.29998779296875C74,362.8999938964844,74.19999694824219,359.70001220703125,74.69999694824219,354.70001220703125C74.9000015258789,352.8999938964844,75.0999984741211,350.29998779296875,75,349.70001220703125C74.5999984741211,348.29998779296875,74.80000305175781,346.8999938964844,75,345.29998779296875C75.19999694824219,343.79998779296875,75.5,341.8999938964844,75.4000015258789,339.20001220703125C75.30000305175781,338.1000061035156,75.30000305175781,336.3999938964844,75.19999694824219,334.29998779296875C74.80000305175781,326.1000061035156,74.0999984741211,310.70001220703125,72.80000305175781,300.8999938964844C72.19999694824219,296.6000061035156,72.0999984741211,290.70001220703125,72,283.79998779296875C71.9000015258789,275.20001220703125,71.69999694824219,265.1000061035156,70.4000015258789,256.70001220703125C70.4000015258789,257.29998779296875,70.4000015258789,257.79998779296875,70.4000015258789,258.5L70.4000015258789,259.29998779296875C70.4000015258789,264.5,70.4000015258789,274.1000061035156,69.80000305175781,278.79998779296875C68.80000305175781,288.29998779296875,69,298,70.4000015258789,307.5C72.30000305175781,318.3999938964844,71.5,342.79998779296875,70.5999984741211,345.3999938964844C70.4000015258789,346.1000061035156,71.4000015258789,348.6000061035156,72.69999694824219,350.6000061035156C73,351.1000061035156,73,351.70001220703125,72.69999694824219,352.20001220703125L70.0999984741211,357C68.4000015258789,363.3999938964844,65.5,363.8999938964844,63.900001525878906,363.70001220703125C62.79999923706055,363.5,61.79999923706055,362.5,59.29999923706055,360.1000061035156C55.900001525878906,356.70001220703125,50.900001525878906,351.70001220703125,46.29999923706055,350.8999938964844C39.79999923706055,349.79998779296875,33.70000076293945,358.70001220703125,33.599998474121094,358.79998779296875C33.20000076293945,359.5,32.29999923706055,359.70001220703125,31.600000381469727,359.3999938964844C30.899999618530273,359.1000061035156,30.5,358.29998779296875,30.700000762939453,357.5C30.700000762939453,357.29998779296875,35,341.3999938964844,35.599998474121094,336.79998779296875C36.099998474121094,333.3999938964844,34.900001525878906,324.20001220703125,34.20000076293945,318.70001220703125C34,316.79998779296875,33.79999923706055,315.3999938964844,33.70000076293945,314.5C33.70000076293945,314.1000061035156,30.5,275.6000061035156,31.600000381469727,270.29998779296875C32.599998474121094,265.3999938964844,32,251.39999389648438,30.700000762939453,248.8000030517578C28.899999618530273,245.10000610351562,28.5,223.39999389648438,33.20000076293945,213.39999389648438C33.79999923706055,212.10000610351562,35.20000076293945,211.10000610351562,37.599998474121094,210.39999389648438C51.599998474121094,205.8000030517578,99.69999694824219,209.1999969482422,103.0999984741211,211C104.0999984741211,211.60000610351562,106.0999984741211,212.60000610351562,107.5,229.10000610351562C108.19999694824219,237.3000030517578,108.4000015258789,245.6999969482422,108.4000015258789,247.6999969482422C108.4000015258789,249.1999969482422,108,252,107.4000015258789,255.6999969482422C106.4000015258789,262.3999938964844,104.80000305175781,272.5,105.9000015258789,276.8999938964844C106.80000305175781,280.8999938964844,106.30000305175781,286.6000061035156,105.80000305175781,292.6000061035156C105.4000015258789,297.5,104.9000015258789,302.6000061035156,105.30000305175781,306.29998779296875C105.9000015258789,311.1000061035156,107,321.79998779296875,107.80000305175781,331.3999938964844C109.5,351.5,108.5999984741211,352.1000061035156,107.5999984741211,352.8999938964844C107.0999984741211,353.29998779296875,106.4000015258789,353.3999938964844,105.80000305175781,353.1000061035156C104.30000305175781,352.5,94.19999694824219,353.70001220703125,87.69999694824219,356.6000061035156C84.5999984741211,358,82.5,360.5,81,362.29998779296875C79.69999694824219,363.8999938964844,78.69999694824219,365,77.4000015258789,365.1000061035156C77.0999984741211,365,77.0999984741211,365,77.0999984741211,365zM69.4000015258789,244.89999389648438C69.9000015258789,244.89999389648438,70.30000305175781,245.10000610351562,70.5999984741211,245.39999389648438C70.80000305175781,245.60000610351562,70.9000015258789,245.8000030517578,71,246C74.69999694824219,255.8000030517578,75,270.70001220703125,75.19999694824219,283.79998779296875C75.30000305175781,290.29998779296875,75.4000015258789,296.3999938964844,76,300.5C77.30000305175781,310.3999938964844,78.0999984741211,325.79998779296875,78.5,334.1000061035156C78.5999984741211,336.20001220703125,78.69999694824219,337.8999938964844,78.69999694824219,338.8999938964844C78.9000015258789,341.79998779296875,78.5,344,78.30000305175781,345.6000061035156C78.0999984741211,346.8999938964844,78,347.8999938964844,78.19999694824219,348.6000061035156C78.5,349.79998779296875,78.4000015258789,351.70001220703125,78,354.79998779296875C77.80000305175781,356.3999938964844,77.5999984741211,359.1000061035156,77.5999984741211,360.70001220703125C77.80000305175781,360.3999938964844,78.0999984741211,360.1000061035156,78.30000305175781,359.8999938964844C79.9000015258789,357.8999938964844,82.4000015258789,355,86.0999984741211,353.29998779296875C91.5999984741211,350.79998779296875,100.80000305175781,349.1000061035156,105.19999694824219,349.3999938964844C105.5999984741211,344.3999938964844,103.9000015258789,324.5,101.80000305175781,306.29998779296875C101.30000305175781,302.20001220703125,101.80000305175781,297,102.19999694824219,291.8999938964844C102.69999694824219,286.3999938964844,103.19999694824219,280.70001220703125,102.4000015258789,277.20001220703125C101.30000305175781,272.20001220703125,102.80000305175781,262.20001220703125,103.9000015258789,254.8000030517578C104.4000015258789,251.39999389648438,104.9000015258789,248.5,104.9000015258789,247.3000030517578C104.9000015258789,238.39999389648438,103.5,215.89999389648438,101.30000305175781,213.5C99.5,212.8000030517578,84.69999694824219,211.3000030517578,67.9000015258789,211C44.099998474121094,210.60000610351562,36.599998474121094,213,35.900001525878906,214.5L35.900001525878906,214.5C31.600000381469727,223.5,32.099998474121094,244.39999389648438,33.400001525878906,247.10000610351562C35.20000076293945,250.6999969482422,35.5,265.70001220703125,34.5,270.6000061035156C33.70000076293945,274.8999938964844,36.20000076293945,308.79998779296875,36.70000076293945,313.8999938964844C36.79999923706055,314.70001220703125,37,316.20001220703125,37.20000076293945,318C38,324,39.099998474121094,333.1000061035156,38.599998474121094,337C38.20000076293945,339.8999938964844,36.599998474121094,346.6000061035156,35.29999923706055,351.70001220703125C38.20000076293945,349.20001220703125,42.20000076293945,346.79998779296875,46.70000076293945,347.5C52.29999923706055,348.3999938964844,57.79999923706055,353.8999938964844,61.5,357.6000061035156C62.599998474121094,358.70001220703125,63.900001525878906,360,64.4000015258789,360.29998779296875C65.0999984741211,360.29998779296875,66.0999984741211,358.79998779296875,66.9000015258789,355.79998779296875C66.9000015258789,355.70001220703125,67,355.5,67,355.3999938964844L69.30000305175781,351.20001220703125C68.19999694824219,349.29998779296875,66.69999694824219,346.1000061035156,67.4000015258789,344.1000061035156C67.9000015258789,342.20001220703125,68.9000015258789,318.70001220703125,67,307.79998779296875C65.5,298,65.30000305175781,288,66.4000015258789,278.20001220703125C67,273.70001220703125,67,264.20001220703125,67,259.1000061035156L67,258.29998779296875C67,245.5,67.5,245.3000030517578,68.69999694824219,244.8000030517578C68.9000015258789,245.10000610351562,69.0999984741211,244.89999389648438,69.4000015258789,244.89999389648438zM64.5,360.6000061035156L64.5,360.6000061035156L64.5,360.6000061035156zM34.5,214.10000610351562L34.5,214.10000610351562L34.5,214.10000610351562zM101.19999694824219,213.8000030517578L101.19999694824219,213.8000030517578L101.19999694824219,213.8000030517578z"/>
<path id="Shirt" fill="#FFFFFF" d="M111.19999694824219,113.30000305175781C109.4000015258789,110.80000305175781,107.5,109,105.69999694824219,107.9000015258789C102.30000305175781,105.69999694824219,82.80000305175781,95.4000015258789,82.80000305175781,100.19999694824219C82.19999694824219,106.5,78.30000305175781,114.5,66.4000015258789,114.5S49,108.19999694824219,49,98.80000305175781C47.5,99.5999984741211,32.900001525878906,104.30000305175781,26,110.4000015258789L26,110.30000305175781C15,120.4000015258789,11.300000190734863,157.8000030517578,13.300000190734863,159.1999969482422C15.600000381469727,160.8000030517578,29.600000381469727,164.5,33.900001525878906,161.89999389648438C34.400001525878906,161.60000610351562,34.900001525878906,161,35.29999923706055,160.39999389648438C34.79999923706055,170.3000030517578,33.70000076293945,193.10000610351562,33.70000076293945,195.8000030517578C33.70000076293945,199.3000030517578,30.399999618530273,204.89999389648438,32,208.39999389648438C33.599998474121094,211.89999389648438,33,217.1999969482422,33,217.1999969482422C33,217.1999969482422,48.900001525878906,223.5,72.80000305175781,223.5C96.69999694824219,223.5,105.9000015258789,211.89999389648438,105.9000015258789,211.89999389648438L104.5999984741211,194.1999969482422C104.5999984741211,194.1999969482422,105.80000305175781,174.8000030517578,105.19999694824219,158.6999969482422C111,159.6999969482422,118.4000015258789,160.1999969482422,119.80000305175781,159.1999969482422C121.5999984741211,157.60000610351562,121.5999984741211,126.4000015258789,111.19999694824219,113.30000305175781z"/>
<path id="ShirtBorder" d="M112.80000305175781,112.5999984741211C112.80000305175781,112.5999984741211,112.80000305175781,112.69999694824219,112.80000305175781,112.5999984741211C110.80000305175781,109.5999984741211,108.5,107.69999694824219,106.69999694824219,106.5C105.19999694824219,105.5999984741211,100.4000015258789,102.9000015258789,95.4000015258789,100.5999984741211C86.5999984741211,96.80000305175781,84,97.0999984741211,82.69999694824219,97.80000305175781C81.80000305175781,98.30000305175781,81.30000305175781,99.0999984741211,81.30000305175781,100.0999984741211C80.9000015258789,104,78.69999694824219,112.9000015258789,66.5999984741211,112.9000015258789C56.400001525878906,112.9000015258789,50.900001525878906,108,50.70000076293945,98.69999694824219C50.70000076293945,98.0999984741211,50.400001525878906,97.5999984741211,49.900001525878906,97.30000305175781C49.400001525878906,97,48.79999923706055,97,48.29999923706055,97.30000305175781C48.099998474121094,97.5,47.099998474121094,97.80000305175781,46.20000076293945,98.19999694824219C38.70000076293945,101,30.5,104.5,25.399999618530273,108.69999694824219L25.399999618530273,108.69999694824219C25.200000762939453,108.80000305175781,25,108.9000015258789,24.799999237060547,109C14.600000381469727,118.30000305175781,10.5,148.8000030517578,11,157.10000610351562C11.100000381469727,159,11.399999618530273,159.89999389648438,12.199999809265137,160.39999389648438C14.199999809265137,161.8000030517578,22.600000381469727,164.3000030517578,28.899999618530273,164.3000030517578C30.5,164.3000030517578,32,164.10000610351562,33.29999923706055,163.6999969482422L33.29999923706055,163.6999969482422C32.79999923706055,174.6999969482422,31.899999618530273,193.10000610351562,31.899999618530273,195.60000610351562C31.899999618530273,196.6999969482422,31.5,198.1999969482422,31,199.89999389648438C30.100000381469727,202.8000030517578,29.200000762939453,206.1999969482422,30.399999618530273,208.89999389648438C31.799999237060547,212,31.200000762939453,216.8000030517578,31.200000762939453,216.89999389648438C31.100000381469727,217.60000610351562,31.5,218.3000030517578,32.20000076293945,218.60000610351562C32.900001525878906,218.89999389648438,48.70000076293945,225,72.5999984741211,225C97,225,106.5999984741211,213.3000030517578,107,212.8000030517578C107.30000305175781,212.5,107.4000015258789,212.10000610351562,107.30000305175781,211.6999969482422L106,194.10000610351562C106.0999984741211,192.5,107.0999984741211,175.5,106.69999694824219,160.5L106.69999694824219,160.5C109.69999694824219,160.89999389648438,112.80000305175781,161.1999969482422,115.30000305175781,161.1999969482422C117.80000305175781,161.1999969482422,119.80000305175781,161,120.5,160.39999389648438C121.19999694824219,159.89999389648438,121.5999984741211,159.10000610351562,121.9000015258789,156.3000030517578C122.9000015258789,147.89999389648438,121.4000015258789,124.0999984741211,112.80000305175781,112.5999984741211zM118.4000015258789,157.89999389648438C115.5999984741211,158.6999969482422,101.5,157,99.19999694824219,155.60000610351562C98.69999694824219,154.3000030517578,99.0999984741211,148.8000030517578,99.80000305175781,144.1999969482422C99.9000015258789,143.3000030517578,99.30000305175781,142.5,98.4000015258789,142.39999389648438C97.5,142.3000030517578,96.69999694824219,142.89999389648438,96.5999984741211,143.8000030517578C96,148.10000610351562,95.0999984741211,155.60000610351562,96.69999694824219,157.6999969482422C97.4000015258789,158.60000610351562,100.0999984741211,159.5,103.4000015258789,160.10000610351562C103.9000015258789,175.6999969482422,102.80000305175781,193.89999389648438,102.80000305175781,194.1999969482422C102.80000305175781,194.3000030517578,102.80000305175781,194.3000030517578,102.80000305175781,194.39999389648438L104.0999984741211,211.39999389648438C103.19999694824219,212.3000030517578,101,214.39999389648438,97.19999694824219,216.39999389648438C92.5999984741211,218.89999389648438,84.5,221.89999389648438,72.5999984741211,221.89999389648438C52.900001525878906,221.89999389648438,38.5,217.5,34.5,216.10000610351562C34.599998474121094,214.1999969482422,34.599998474121094,210.5,33.29999923706055,207.6999969482422C32.599998474121094,206.10000610351562,33.400001525878906,203.3000030517578,34.099998474121094,200.89999389648438C34.599998474121094,199,35.20000076293945,197.3000030517578,35.20000076293945,195.6999969482422C35.20000076293945,193,36.29999923706055,170.6999969482422,36.79999923706055,160.6999969482422L36.79999923706055,160.6999969482422C39.20000076293945,155.89999389648438,38.599998474121094,147,38.400001525878906,145C38.29999923706055,144.10000610351562,37.5,143.5,36.599998474121094,143.5C35.70000076293945,143.60000610351562,35,144.39999389648438,35.099998474121094,145.3000030517578C35.599998474121094,150.60000610351562,35.20000076293945,159,32.900001525878906,160.39999389648438C29.700000762939453,162.39999389648438,17.299999237060547,159.60000610351562,14.399999618530273,158C13.300000190734863,153.5,16.799999237060547,123.19999694824219,25.799999237060547,112.69999694824219L25.700000762939453,112.80000305175781C25.899999618530273,112.5999984741211,26.100000381469727,112.30000305175781,26.299999237060547,112.0999984741211C26.100000381469727,112.30000305175781,26,112.5,25.799999237060547,112.69999694824219C30.399999618530273,107.5,42.70000076293945,102.9000015258789,47.29999923706055,101.19999694824219C47.400001525878906,101.19999694824219,47.5,101.0999984741211,47.5,101.0999984741211C48.599998474121094,110.69999694824219,55.400001525878906,116.19999694824219,66.5,116.19999694824219C81.5,116.19999694824219,84,104.5,84.5,100.5999984741211C87.30000305175781,100.19999694824219,99.80000305175781,106.0999984741211,104.9000015258789,109.30000305175781C106.0999984741211,110.0999984741211,107.5,111.19999694824219,108.9000015258789,112.9000015258789L108.9000015258789,112.9000015258789C109,113.0999984741211,109.0999984741211,113.30000305175781,109.19999694824219,113.4000015258789C119.4000015258789,124.69999694824219,119.9000015258789,153.60000610351562,118.4000015258789,157.89999389648438z"/>
<path id="Body" fill="#E0B585" d="M115.5999984741211,161.1999969482422C115.5999984741211,161.1999969482422,115.5,161.1999969482422,115.4000015258789,161.1999969482422C110.5999984741211,161.1999969482422,104,160.3000030517578,100,159.10000610351562C98.30000305175781,157.1999969482422,95.0999984741211,154.89999389648438,89.5999984741211,155.8000030517578C83.4000015258789,156.8000030517578,63.099998474121094,163.89999389648438,50.900001525878906,168.10000610351562C51,168,51.099998474121094,167.89999389648438,51.099998474121094,167.8000030517578C51.5,166.3000030517578,40.70000076293945,154.3000030517578,37.099998474121094,154.5C33.400001525878906,154.6999969482422,18.100000381469727,157.39999389648438,18.200000762939453,160.6999969482422C18.200000762939453,161.6999969482422,18.5,162.3000030517578,18.799999237060547,162.8000030517578C18.700000762939453,162.8000030517578,18.5,162.6999969482422,18.299999237060547,162.6999969482422C18.5,174.39999389648438,19.200000762939453,184.39999389648438,21.299999237060547,187.10000610351562C25.299999237060547,192.3000030517578,28.399999618530273,196.60000610351562,32.400001525878906,196.60000610351562C35.70000076293945,196.60000610351562,55.29999923706055,185.39999389648438,67.30000305175781,178.1999969482422C66.9000015258789,178.60000610351562,66.80000305175781,178.89999389648438,67,179C68.80000305175781,179.89999389648438,103.69999694824219,192,111.19999694824219,191.10000610351562C115.4000015258789,190.60000610351562,115.9000015258789,176.39999389648438,115.5999984741211,161.1999969482422zM88.19999694824219,165.39999389648438C88.5999984741211,165.39999389648438,88.9000015258789,165.1999969482422,89,165.3000030517578C89.4000015258789,165.39999389648438,90.4000015258789,166,91.69999694824219,166.6999969482422L88.19999694824219,165.39999389648438zM36.79999923706055,67.19999694824219C35.79999923706055,63.599998474121094,37,60.20000076293945,39.29999923706055,59.5C39.29999923706055,58.900001525878906,39.20000076293945,58.29999923706055,39.20000076293945,57.70000076293945C39.20000076293945,55.099998474121094,39.5,44.5,40,42.29999923706055C42.900001525878906,29.5,53.70000076293945,24.100000381469727,66.5,24.100000381469727S90.0999984741211,29.5,93,42.29999923706055C93.5,44.5,93.80000305175781,55.099998474121094,93.80000305175781,57.70000076293945C93.80000305175781,58.29999923706055,93.80000305175781,58.900001525878906,93.69999694824219,59.5C96.0999984741211,60.20000076293945,97.19999694824219,63.599998474121094,96.30000305175781,67.19999694824219C95.4000015258789,70.69999694824219,92.80000305175781,73,90.5,72.5999984741211C87.5,79.30000305175781,82.80000305175781,85,77.5,88.4000015258789C77.69999694824219,90.4000015258789,78.19999694824219,93.0999984741211,79.4000015258789,96.5C79.9000015258789,97.80000305175781,80.5999984741211,99,81.30000305175781,100L81.30000305175781,100.0999984741211C80.9000015258789,104,78.69999694824219,112.9000015258789,66.5999984741211,112.9000015258789C56.599998474121094,112.9000015258789,51.099998474121094,108.19999694824219,50.70000076293945,99.19999694824219L50.79999923706055,99.19999694824219C51.900001525878906,98.0999984741211,52.900001525878906,97.0999984741211,53.5,96.19999694824219C55.599998474121094,93.4000015258789,55.79999923706055,90.80000305175781,55.29999923706055,88.0999984741211C50.20000076293945,84.5999984741211,45.5,79.0999984741211,42.599998474121094,72.5C40.20000076293945,72.9000015258789,37.70000076293945,70.69999694824219,36.79999923706055,67.19999694824219z"/>
<path id="BodyBorder" d="M117.0999984741211,161.10000610351562C116.5,161.10000610351562,115.9000015258789,161.1999969482422,115.30000305175781,161.1999969482422C114.9000015258789,161.1999969482422,114.4000015258789,161.1999969482422,113.9000015258789,161.1999969482422C114,165.39999389648438,114,169.39999389648438,113.9000015258789,173.1999969482422C113.5,189,111,189.39999389648438,110.9000015258789,189.5C104.9000015258789,190.1999969482422,77.4000015258789,181.1999969482422,69.5999984741211,178.3000030517578C72.80000305175781,176,80.5999984741211,171.3000030517578,88,167.1999969482422L94.80000305175781,169.6999969482422C95.19999694824219,169.89999389648438,95.69999694824219,169.8000030517578,96.0999984741211,169.60000610351562C96.5,169.39999389648438,96.80000305175781,169,96.9000015258789,168.60000610351562C97,168.3000030517578,98.4000015258789,162.60000610351562,99.30000305175781,157.60000610351562C98.0999984741211,157.1999969482422,96.5999984741211,155.8000030517578,96.4000015258789,155.5C96.4000015258789,155.3000030517578,96.5,155.10000610351562,96.5,154.89999389648438C94.5999984741211,154.10000610351562,92.0999984741211,153.8000030517578,89.19999694824219,154.1999969482422C83.80000305175781,155.10000610351562,68.30000305175781,160.3000030517578,55.900001525878906,164.60000610351562C54.599998474121094,165.10000610351562,53.29999923706055,165.5,52,165.89999389648438C51.599998474121094,165.3000030517578,51.099998474121094,164.39999389648438,50.20000076293945,163.39999389648438C50.099998474121094,163.3000030517578,41.400001525878906,152.60000610351562,36.900001525878906,152.89999389648438C36.70000076293945,152.89999389648438,16.299999237060547,154.89999389648438,16.5,160.8000030517578C16.5,161,16.5,161.10000610351562,16.5,161.1999969482422C16.700000762939453,175,17.5,184.89999389648438,19.899999618530273,188L20.600000381469727,188.89999389648438C24.399999618530273,193.89999389648438,27.700000762939453,198.10000610351562,32.29999923706055,198.10000610351562C36.099998474121094,198.10000610351562,55.20000076293945,187.10000610351562,66.5,180.39999389648438L66.5,180.39999389648438C69.69999694824219,181.6999969482422,100.69999694824219,192.6999969482422,110.30000305175781,192.6999969482422C110.69999694824219,192.6999969482422,111.0999984741211,192.6999969482422,111.4000015258789,192.60000610351562C116.4000015258789,192.10000610351562,117.5999984741211,181.89999389648438,117.0999984741211,161.10000610351562zM52.599998474121094,167.89999389648438L52.599998474121094,167.89999389648438L52.599998474121094,167.89999389648438zM52.599998474121094,167.1999969482422C52.599998474121094,167.3000030517578,52.599998474121094,167.3000030517578,52.599998474121094,167.39999389648438L52.599998474121094,167.1999969482422zM52.5,166.8000030517578L52.5,166.6999969482422L52.5,166.8000030517578zM52.5,168.60000610351562L52.5,168.60000610351562L52.5,168.60000610351562zM52.20000076293945,168.89999389648438C52.20000076293945,168.89999389648438,52.099998474121094,168.89999389648438,52.20000076293945,168.89999389648438C52.099998474121094,168.89999389648438,52.20000076293945,168.89999389648438,52.20000076293945,168.89999389648438zM51.79999923706055,169.1999969482422L51.79999923706055,169.1999969482422L51.79999923706055,169.1999969482422zM37.20000076293945,156.10000610351562L37.20000076293945,156.10000610351562C37.900001525878906,156.10000610351562,40.29999923706055,157.5,44,161.10000610351562C46.70000076293945,163.8000030517578,48.5,166.10000610351562,49.20000076293945,167.1999969482422C46.400001525878906,168.8000030517578,36.099998474121094,172.60000610351562,33.70000076293945,172.6999969482422L33.599998474121094,172.6999969482422C33.5,172.6999969482422,33.5,172.6999969482422,33.400001525878906,172.6999969482422C32.900001525878906,172.6999969482422,32.5,172.1999969482422,32.599998474121094,171.6999969482422C32.599998474121094,171.60000610351562,32.599998474121094,171.5,32.599998474121094,171.3000030517578C35.400001525878906,170.10000610351562,41.400001525878906,168.1999969482422,42.400001525878906,168.1999969482422L42.400001525878906,168.1999969482422C42.900001525878906,168.3000030517578,43.400001525878906,168,43.599998474121094,167.5C43.79999923706055,167,43.5,166.39999389648438,43,166.1999969482422C41.400001525878906,165.6999969482422,32.70000076293945,169,31.200000762939453,169.6999969482422C31.100000381469727,169.6999969482422,31,169.8000030517578,31,169.89999389648438C30.799999237060547,169.89999389648438,30.600000381469727,169.89999389648438,30.399999618530273,170C29.600000381469727,170.3000030517578,27.700000762939453,170.89999389648438,27,170.1999969482422C26.700000762939453,169.89999389648438,26.5,169.60000610351562,26.399999618530273,169.5C26.5,169.1999969482422,26.5,169,26.5,168.6999969482422C27.5,168.39999389648438,29,167.8000030517578,30.5,167.3000030517578C33.20000076293945,166.3000030517578,36.900001525878906,165,37.70000076293945,164.89999389648438C38.900001525878906,164.8000030517578,40.20000076293945,164.8000030517578,41.400001525878906,164.89999389648438C42,165,42.400001525878906,164.5,42.5,164C42.5,163.39999389648438,42.099998474121094,163,41.599998474121094,162.89999389648438C40.20000076293945,162.8000030517578,38.900001525878906,162.8000030517578,37.5,162.89999389648438C36.5,163,33.79999923706055,164,29.899999618530273,165.39999389648438C28.100000381469727,166,26.399999618530273,166.6999969482422,25.399999618530273,167C25.200000762939453,167.10000610351562,25.100000381469727,167.1999969482422,24.899999618530273,167.3000030517578C24.799999237060547,167.3000030517578,24.799999237060547,167.3000030517578,24.700000762939453,167.3000030517578C23.200000762939453,167.5,21.700000762939453,167.1999969482422,21.5,166.89999389648438C21.299999237060547,166.1999969482422,21.600000381469727,165.60000610351562,22.100000381469727,165.10000610351562C22.200000762939453,165,22.299999237060547,164.89999389648438,22.399999618530273,164.6999969482422C22.5,164.6999969482422,22.600000381469727,164.6999969482422,22.700000762939453,164.6999969482422C23.399999618530273,164.5,25,164,26.700000762939453,163.5C29.799999237060547,162.60000610351562,34.900001525878906,161,35.70000076293945,161C36.599998474121094,160.89999389648438,37.400001525878906,160.89999389648438,38.29999923706055,161C39,161.10000610351562,39.599998474121094,160.5,39.599998474121094,159.8000030517578C39.599998474121094,159.10000610351562,39.099998474121094,158.5,38.400001525878906,158.5C37.400001525878906,158.39999389648438,36.400001525878906,158.39999389648438,35.5,158.5C34.70000076293945,158.60000610351562,31.799999237060547,159.39999389648438,26,161.10000610351562C24.299999237060547,161.60000610351562,22.799999237060547,162.10000610351562,22.100000381469727,162.3000030517578C22,162.3000030517578,21.899999618530273,162.39999389648438,21.799999237060547,162.39999389648438C21.600000381469727,162.3000030517578,21.299999237060547,162.1999969482422,21.100000381469727,162.1999969482422L21.100000381469727,162.1999969482422C21,162.1999969482422,20.200000762939453,162.10000610351562,20.100000381469727,160.60000610351562C21,158.89999389648438,32.5,156.39999389648438,37.20000076293945,156.10000610351562zM17.700000762939453,164.10000610351562L17.700000762939453,164.10000610351562L17.700000762939453,164.10000610351562zM16.799999237060547,162.39999389648438L16.799999237060547,162.39999389648438L16.799999237060547,162.39999389648438zM17.200000762939453,163.39999389648438L17.200000762939453,163.39999389648438L17.200000762939453,163.39999389648438zM18.399999618530273,168.60000610351562L18.5,168.6999969482422C18.399999618530273,168.60000610351562,18.399999618530273,168.60000610351562,18.399999618530273,168.60000610351562zM18.799999237060547,169.10000610351562C18.799999237060547,169.10000610351562,18.899999618530273,169.1999969482422,18.799999237060547,169.10000610351562C18.899999618530273,169.1999969482422,18.799999237060547,169.10000610351562,18.799999237060547,169.10000610351562zM19.399999618530273,169.60000610351562L19.399999618530273,169.60000610351562L19.399999618530273,169.60000610351562zM23.200000762939453,186.89999389648438L22.5,186C21.100000381469727,184.1999969482422,20.399999618530273,177.89999389648438,20,170L20,170C20.899999618530273,170.39999389648438,22,170.60000610351562,23,170.6999969482422C23.200000762939453,171.3000030517578,23.700000762939453,172,24.399999618530273,172.60000610351562C25.899999618530273,174.10000610351562,28.100000381469727,174,29.600000381469727,173.6999969482422C30.200000762939453,175,31.5,175.8000030517578,33,176C33.099998474121094,176,33.20000076293945,176,33.29999923706055,176C33.5,176,33.599998474121094,176,33.79999923706055,176C35.79999923706055,175.8000030517578,47.599998474121094,172.3000030517578,51.400001525878906,169.5C53,169,54.79999923706055,168.3000030517578,57,167.60000610351562C68.5999984741211,163.60000610351562,84.5999984741211,158.1999969482422,89.80000305175781,157.39999389648438C92.5,157,94.5,157.39999389648438,96,158.10000610351562C95.4000015258789,161.10000610351562,94.69999694824219,164.39999389648438,94.30000305175781,165.89999389648438L88.5,163.6999969482422C88.0999984741211,163.5,87.5999984741211,163.60000610351562,87.0999984741211,163.8000030517578C73.4000015258789,171.39999389648438,68.30000305175781,174.89999389648438,66.30000305175781,176.6999969482422L66.30000305175781,176.6999969482422C53.5,184.5,35,194.89999389648438,32.20000076293945,195C29.299999237060547,194.89999389648438,26.600000381469727,191.39999389648438,23.200000762939453,186.89999389648438zM65.19999694824219,178.60000610351562L65.19999694824219,178.60000610351562L65.19999694824219,178.60000610351562zM66.0999984741211,177.10000610351562L66.0999984741211,177.10000610351562L66.0999984741211,177.10000610351562zM65.5,177.8000030517578L65.5,177.8000030517578L65.5,177.8000030517578zM65.19999694824219,178.1999969482422L65.19999694824219,178.1999969482422L65.19999694824219,178.1999969482422zM66.19999694824219,180.39999389648438C66.19999694824219,180.39999389648438,66.30000305175781,180.39999389648438,66.4000015258789,180.5C66.30000305175781,180.39999389648438,66.19999694824219,180.39999389648438,66.19999694824219,180.39999389648438zM95.19999694824219,58.5C95.19999694824219,58.20000076293945,95.19999694824219,58,95.19999694824219,57.70000076293945C95.19999694824219,55.900001525878906,95,44.400001525878906,94.4000015258789,41.900001525878906C91.5999984741211,29.5,81.4000015258789,22.399999618530273,66.30000305175781,22.399999618530273C51.29999923706055,22.399999618530273,41,29.5,38.20000076293945,41.900001525878906C37.70000076293945,44.29999923706055,37.400001525878906,55.29999923706055,37.400001525878906,57.70000076293945C37.400001525878906,58,37.400001525878906,58.20000076293945,37.400001525878906,58.5C35,60.099998474121094,33.900001525878906,63.79999923706055,35,67.5999984741211C35.599998474121094,69.5999984741211,36.599998474121094,71.4000015258789,38,72.69999694824219C39,73.5999984741211,40.099998474121094,74.0999984741211,41.29999923706055,74.19999694824219C43.29999923706055,78.30000305175781,46,82.19999694824219,49.20000076293945,85.4000015258789C50.599998474121094,86.80000305175781,52.099998474121094,88,53.599998474121094,89.0999984741211C53.79999923706055,91.19999694824219,53.599998474121094,93.0999984741211,52,95.30000305175781C51.20000076293945,96.4000015258789,49.900001525878906,97.5999984741211,48.5,98.9000015258789C48.599998474121094,98.80000305175781,48.79999923706055,98.80000305175781,48.79999923706055,98.69999694824219C48.79999923706055,100,49,101.30000305175781,49.20000076293945,102.5C51.20000076293945,100.69999694824219,53.29999923706055,98.80000305175781,54.5,97.19999694824219C56.099998474121094,95.0999984741211,56.70000076293945,93.0999984741211,56.79999923706055,91.0999984741211C59.900001525878906,92.69999694824219,63.099998474121094,93.5999984741211,66.19999694824219,93.5999984741211L66.19999694824219,93.5999984741211C69.30000305175781,93.5999984741211,72.69999694824219,92.69999694824219,75.9000015258789,90.9000015258789C76.19999694824219,92.5999984741211,76.69999694824219,94.5999984741211,77.5999984741211,96.9000015258789C78.5999984741211,99.69999694824219,80.19999694824219,101.80000305175781,82.0999984741211,103.5C82.4000015258789,102.30000305175781,82.69999694824219,101.19999694824219,82.80000305175781,100C82.80000305175781,99.80000305175781,82.80000305175781,99.69999694824219,82.9000015258789,99.5C82,98.4000015258789,81.30000305175781,97.19999694824219,80.80000305175781,95.69999694824219C79.80000305175781,92.9000015258789,79.30000305175781,90.69999694824219,79.0999984741211,88.9000015258789C81.5999984741211,87.19999694824219,84,85,86.0999984741211,82.4000015258789S90,77,91.4000015258789,74C92.0999984741211,73.9000015258789,92.9000015258789,73.69999694824219,93.5999984741211,73.30000305175781C95.5,72.19999694824219,97.0999984741211,70,97.80000305175781,67.4000015258789C98.9000015258789,63.79999923706055,97.80000305175781,60,95.19999694824219,58.5zM94.5999984741211,66.80000305175781C94.0999984741211,68.5999984741211,93.0999984741211,70.0999984741211,91.9000015258789,70.69999694824219C91.4000015258789,71,90.9000015258789,71.0999984741211,90.5,71C90.19999694824219,70.9000015258789,89.9000015258789,70.69999694824219,89.69999694824219,70.5C89.0999984741211,69.80000305175781,88.0999984741211,69.69999694824219,87.4000015258789,70.30000305175781C86.69999694824219,70.9000015258789,86.5999984741211,71.9000015258789,87.19999694824219,72.5999984741211C87.5,72.9000015258789,87.80000305175781,73.19999694824219,88.19999694824219,73.4000015258789C83.19999694824219,83.4000015258789,74.19999694824219,90.4000015258789,66.4000015258789,90.4000015258789L66.4000015258789,90.4000015258789C61.70000076293945,90.4000015258789,56.29999923706055,87.69999694824219,51.70000076293945,83.0999984741211C48.900001525878906,80.30000305175781,46.5,77,44.70000076293945,73.4000015258789C45,73.19999694824219,45.400001525878906,72.9000015258789,45.70000076293945,72.5999984741211C46.29999923706055,71.9000015258789,46.20000076293945,70.9000015258789,45.5,70.30000305175781C44.79999923706055,69.69999694824219,43.79999923706055,69.80000305175781,43.20000076293945,70.5C43,70.69999694824219,42.70000076293945,70.9000015258789,42.5,71C41.70000076293945,71.19999694824219,40.79999923706055,70.5999984741211,40.400001525878906,70.30000305175781C39.5,69.5,38.79999923706055,68.30000305175781,38.400001525878906,66.80000305175781C37.599998474121094,63.900001525878906,38.5,61.5,39.79999923706055,61.099998474121094C40.29999923706055,61,40.900001525878906,61.099998474121094,41.29999923706055,61.400001525878906C42.099998474121094,61.900001525878906,43.099998474121094,61.70000076293945,43.5,60.900001525878906C44,60.099998474121094,43.79999923706055,59.099998474121094,43,58.70000076293945C42.400001525878906,58.29999923706055,41.599998474121094,58,40.900001525878906,57.900001525878906L40.900001525878906,57.79999923706055C40.900001525878906,54.79999923706055,41.20000076293945,44.70000076293945,41.599998474121094,42.70000076293945C43,36.400001525878906,48.20000076293945,25.700000762939453,66.5,25.700000762939453C84.80000305175781,25.700000762939453,90,36.29999923706055,91.4000015258789,42.70000076293945C91.80000305175781,44.599998474121094,92.0999984741211,54.70000076293945,92.0999984741211,57.79999923706055L92.0999984741211,57.900001525878906C91.4000015258789,58,90.69999694824219,58.29999923706055,90,58.70000076293945C89.19999694824219,59.20000076293945,89,60.20000076293945,89.5,60.900001525878906C90,61.70000076293945,91,61.900001525878906,91.69999694824219,61.400001525878906C92.0999984741211,61.099998474121094,92.69999694824219,61,93.0999984741211,61.099998474121094C94.5999984741211,61.5,95.4000015258789,63.79999923706055,94.5999984741211,66.80000305175781z"/>
<path id="MouthNose" d="M68.5999984741211,73.30000305175781C68.0999984741211,73.30000305175781,67.5999984741211,73.19999694824219,67.19999694824219,73.0999984741211C66.80000305175781,73,66.5999984741211,72.5,66.80000305175781,72.0999984741211C66.9000015258789,71.69999694824219,67.4000015258789,71.5,67.80000305175781,71.69999694824219C68.4000015258789,71.9000015258789,69.5999984741211,71.9000015258789,70.5,71.30000305175781C71.19999694824219,70.80000305175781,71.5,70.19999694824219,71.5,69.30000305175781C71.5,68.80000305175781,71.4000015258789,68.5,71.0999984741211,68.19999694824219C70.19999694824219,67.4000015258789,68.0999984741211,67.5999984741211,67.5,67.69999694824219C67.0999984741211,67.80000305175781,66.69999694824219,67.5,66.5999984741211,67.0999984741211C66.5,66.69999694824219,66.80000305175781,66.30000305175781,67.19999694824219,66.19999694824219C67.5,66.0999984741211,70.4000015258789,65.69999694824219,72,67C72.5999984741211,67.5,73,68.30000305175781,73,69.19999694824219C73,71,72.0999984741211,72,71.4000015258789,72.5C70.5999984741211,73.19999694824219,69.5999984741211,73.30000305175781,68.5999984741211,73.30000305175781zM71.5999984741211,79.9000015258789C72,79.80000305175781,72.19999694824219,79.4000015258789,72.0999984741211,79C72,78.5999984741211,71.5999984741211,78.30000305175781,71.19999694824219,78.4000015258789C71.0999984741211,78.4000015258789,64.5,80,60.099998474121094,76.69999694824219C59.79999923706055,76.5,59.29999923706055,76.5,59,76.80000305175781C58.79999923706055,77.0999984741211,58.79999923706055,77.5999984741211,59.099998474121094,77.9000015258789C61.70000076293945,79.9000015258789,64.80000305175781,80.30000305175781,67.30000305175781,80.30000305175781C69.80000305175781,80.4000015258789,71.4000015258789,80.0999984741211,71.5999984741211,79.9000015258789z"/>
<path id="EyesWhite" fill="#FFFFFF" d="M49.20000076293945,61.70000076293945C49.20000076293945,61.70000076293945,50.70000076293945,64.4000015258789,56,64.4000015258789C61.20000076293945,64.4000015258789,62,62.29999923706055,61,60.5C60.20000076293945,59.20000076293945,59.900001525878906,57,56,56.900001525878906S49.099998474121094,58.20000076293945,49.20000076293945,61.70000076293945zM85.19999694824219,61.70000076293945C85.19999694824219,61.70000076293945,83.5,64.4000015258789,78.4000015258789,64.4000015258789C73.30000305175781,64.4000015258789,72.4000015258789,62.29999923706055,73.4000015258789,60.5C74.19999694824219,59.20000076293945,74.5,57,78.4000015258789,56.900001525878906C82.30000305175781,56.79999923706055,85.4000015258789,58.20000076293945,85.19999694824219,61.70000076293945z"/>
<path id="Eyes" d="M59,60.29999923706055C59,62,57.70000076293945,63.29999923706055,56,63.29999923706055C54.29999923706055,63.29999923706055,53,62,53,60.29999923706055C53,58.599998474121094,54.29999923706055,57.29999923706055,56,57.29999923706055S59,58.70000076293945,59,60.29999923706055zM81.0999984741211,60.29999923706055C81.0999984741211,62,79.80000305175781,63.29999923706055,78.0999984741211,63.29999923706055C76.4000015258789,63.29999923706055,75.0999984741211,62,75.0999984741211,60.29999923706055C75.0999984741211,58.599998474121094,76.4000015258789,57.29999923706055,78.0999984741211,57.29999923706055S81.0999984741211,58.70000076293945,81.0999984741211,60.29999923706055z"/>
<path id="EyeLids" d="M61.29999923706055,62.5C60.900001525878906,62.5,60.5,62.20000076293945,60.5,61.70000076293945C60.5,59.599998474121094,58.099998474121094,57.79999923706055,55.29999923706055,57.79999923706055C52.79999923706055,57.79999923706055,50.099998474121094,58.79999923706055,50.099998474121094,61.099998474121094C50.099998474121094,61.5,49.79999923706055,61.900001525878906,49.29999923706055,61.900001525878906C48.79999923706055,61.900001525878906,48.5,61.599998474121094,48.5,61.099998474121094C48.5,58.29999923706055,51.29999923706055,56.29999923706055,55.29999923706055,56.29999923706055C59,56.400001525878906,62,58.79999923706055,62,61.79999923706055C62,62.20000076293945,61.79999923706055,62.5,61.29999923706055,62.5zM73.5999984741211,61.79999923706055C73.5999984741211,59.70000076293945,76,57.900001525878906,78.80000305175781,57.900001525878906C81.30000305175781,57.900001525878906,84,58.900001525878906,84,61.20000076293945C84,61.599998474121094,84.30000305175781,62,84.80000305175781,62C85.30000305175781,62,85.5999984741211,61.70000076293945,85.5999984741211,61.20000076293945C85.5999984741211,58.400001525878906,82.80000305175781,56.400001525878906,78.80000305175781,56.400001525878906C75.0999984741211,56.400001525878906,72,58.79999923706055,72,61.79999923706055C72,62.20000076293945,72.30000305175781,62.599998474121094,72.80000305175781,62.599998474121094S73.5999984741211,62.20000076293945,73.5999984741211,61.79999923706055z"/>
<path id="EyeBrows" d="M86.9000015258789,57C86.9000015258789,57,86.80000305175781,57,86.9000015258789,57C86.30000305175781,57,85.9000015258789,56.5,85.9000015258789,56C86,53.79999923706055,83.30000305175781,51.79999923706055,80.0999984741211,51.599998474121094C77.0999984741211,51.5,76,52.29999923706055,75.4000015258789,52.900001525878906C75,53.29999923706055,74.4000015258789,53.29999923706055,74,52.900001525878906C73.5999984741211,52.5,73.5999984741211,51.900001525878906,74,51.5C75.4000015258789,50,77.30000305175781,49.400001525878906,80.19999694824219,49.599998474121094C84.5999984741211,49.79999923706055,88.0999984741211,52.70000076293945,87.9000015258789,56.099998474121094C87.80000305175781,56.70000076293945,87.4000015258789,57,86.9000015258789,57zM46.79999923706055,57.20000076293945C47.400001525878906,57.20000076293945,47.79999923706055,56.70000076293945,47.70000076293945,56.099998474121094C47.599998474121094,55.099998474121094,48.099998474121094,54.29999923706055,48.5,53.79999923706055C49.5,52.599998474121094,51.29999923706055,51.70000076293945,53.29999923706055,51.599998474121094C56.099998474121094,51.400001525878906,57.20000076293945,52,58,52.79999923706055C58.400001525878906,53.20000076293945,59,53.20000076293945,59.400001525878906,52.79999923706055C59.79999923706055,52.400001525878906,59.79999923706055,51.79999923706055,59.400001525878906,51.400001525878906C57.900001525878906,50,56,49.5,53.20000076293945,49.70000076293945C50.70000076293945,50,48.400001525878906,51,47,52.70000076293945C46,53.79999923706055,45.599998474121094,55.20000076293945,45.70000076293945,56.5C45.79999923706055,56.79999923706055,46.099998474121094,57.20000076293945,46.79999923706055,57.20000076293945L46.79999923706055,57.20000076293945z"/>
<path id="Hair" fill="#3A1C0E" d="M71.5999984741211,16C72.4000015258789,12.899999618530273,91.30000305175781,27.899999618530273,93.30000305175781,35.20000076293945C95.30000305175781,42.5,95.69999694824219,57.900001525878906,93.5999984741211,57.599998474121094C88,57.599998474121094,90.80000305175781,46.70000076293945,85.30000305175781,40C79.80000305175781,33.29999923706055,71.19999694824219,37.70000076293945,65.0999984741211,37.5C59,37.29999923706055,51.70000076293945,34.79999923706055,46.5,39.599998474121094S45,57,38,57.79999923706055C37.400001525878906,58.099998474121094,36,42.70000076293945,38.79999923706055,34.900001525878906C40.79999923706055,29.299999237060547,47.70000076293945,20.200000762939453,56.400001525878906,17.899999618530273C57.400001525878906,17.600000381469727,57.79999923706055,20.700000762939453,58.79999923706055,20.5C60.099998474121094,20.299999237060547,66.5999984741211,12.199999809265137,66.5999984741211,12.199999809265137S67.80000305175781,17.299999237060547,71.5999984741211,16z"/>
<path id="HairBorder" d="M38.20000076293945,59.70000076293945C37.79999923706055,59.70000076293945,37.400001525878906,59.599998474121094,37.099998474121094,59.29999923706055C35.29999923706055,57.79999923706055,34.900001525878906,41.79999923706055,37.5,34.599998474121094C39.599998474121094,28.600000381469727,46.900001525878906,19.100000381469727,56.20000076293945,16.600000381469727C57.900001525878906,16.100000381469727,58.79999923706055,17.799999237060547,59.20000076293945,18.600000381469727C60.599998474121094,17.299999237060547,63.29999923706055,14.100000381469727,65.5999984741211,11.399999618530273C66,10.899999618530273,66.5999984741211,10.699999809265137,67.30000305175781,10.800000190734863C67.9000015258789,11,68.4000015258789,11.5,68.5,12.100000381469727C68.5999984741211,12.600000381469727,69,14,69.9000015258789,14.5C70.0999984741211,14.600000381469727,70.30000305175781,14.699999809265137,70.80000305175781,14.699999809265137C71.19999694824219,14.300000190734863,71.80000305175781,14.100000381469727,72.4000015258789,14.100000381469727L72.4000015258789,14.100000381469727C77.0999984741211,14.100000381469727,93.19999694824219,28.100000381469727,95,34.900001525878906C96.5999984741211,40.79999923706055,97.80000305175781,55.900001525878906,95.4000015258789,58.599998474121094C94.9000015258789,59.099998474121094,94.30000305175781,59.400001525878906,93.69999694824219,59.400001525878906C89.4000015258789,59.400001525878906,88.5999984741211,55.099998474121094,87.80000305175781,51C87.19999694824219,47.70000076293945,86.5,44,84.19999694824219,41.20000076293945C80.9000015258789,37.20000076293945,76.0999984741211,37.900001525878906,71.0999984741211,38.79999923706055C69,39.099998474121094,67.0999984741211,39.5,65.19999694824219,39.400001525878906C63.70000076293945,39.400001525878906,62.099998474121094,39.20000076293945,60.5,39C55.70000076293945,38.400001525878906,51.099998474121094,37.900001525878906,47.70000076293945,41.099998474121094C45.79999923706055,42.900001525878906,45.29999923706055,46.29999923706055,44.79999923706055,49.599998474121094C44.099998474121094,54.099998474121094,43.400001525878906,59.099998474121094,38.400001525878906,59.79999923706055L38.400001525878906,59.79999923706055C38.20000076293945,59.70000076293945,38.20000076293945,59.70000076293945,38.20000076293945,59.70000076293945zM93.9000015258789,56.20000076293945L93.9000015258789,56.20000076293945L93.9000015258789,56.20000076293945zM76.9000015258789,34.79999923706055C80.4000015258789,34.79999923706055,83.9000015258789,35.70000076293945,86.69999694824219,39.099998474121094C89.5,42.5,90.30000305175781,46.79999923706055,91,50.29999923706055C91.69999694824219,54,92.0999984741211,55.5,93.0999984741211,55.900001525878906C93.9000015258789,53,93.5,42,91.80000305175781,35.599998474121094C90.30000305175781,29.799999237060547,76.19999694824219,18.299999237060547,72.69999694824219,17.299999237060547C72.5,17.399999618530273,72.4000015258789,17.5,72.19999694824219,17.600000381469727C70.30000305175781,18.200000762939453,69,17.700000762939453,68.19999694824219,17.200000762939453C67.4000015258789,16.700000762939453,66.9000015258789,16.100000381469727,66.5,15.399999618530273C61.099998474121094,21.799999237060547,60,22,59.5,22.100000381469727C57.79999923706055,22.399999618530273,56.900001525878906,20.700000762939453,56.5,19.899999618530273C56.5,19.899999618530273,56.400001525878906,19.799999237060547,56.400001525878906,19.700000762939453C48.599998474121094,22.200000762939453,42.5,30.399999618530273,40.70000076293945,35.5C38.599998474121094,41.400001525878906,39,51.79999923706055,39.400001525878906,55.70000076293945C40.70000076293945,54.70000076293945,41.099998474121094,52.5,41.70000076293945,48.79999923706055C42.29999923706055,45.20000076293945,42.900001525878906,41,45.599998474121094,38.5C50.099998474121094,34.29999923706055,55.900001525878906,34.900001525878906,61,35.5C62.5,35.70000076293945,64,35.79999923706055,65.4000015258789,35.900001525878906C66.9000015258789,35.900001525878906,68.80000305175781,35.599998474121094,70.69999694824219,35.29999923706055C72.5999984741211,35.099998474121094,74.5999984741211,34.79999923706055,76.9000015258789,34.79999923706055zM57,19.600000381469727L57,19.600000381469727L57,19.600000381469727zM71.5999984741211,16L71.5999984741211,16L71.5999984741211,16z"/>
</g>
</svg>