<svg xmlns="http://www.w3.org/2000/svg" xmlns:xlink="http://www.w3.org/1999/xlink" viewBox= "0 0 281 345" width="281px" height="345px">
<g xmlns="http://www.w3.org/2000/svg" id="Tree1.svg">
<path id="trunkBorder" fill="#725721" d="M170,313.8999938964844C168.8000030517578,318.6000061035156,120.4000015258789,334,105,313.8999938964844C102.5999984741211,311.5,135.6999969482422,273.70001220703125,116.80000305175781,228.8000030517578C131,214.60000610351562,160.5,217,158.1999969482422,228.8000030517578C134.5,305.70001220703125,171.10000610351562,309.20001220703125,170,313.8999938964844"/>
<path id="leavesDraw" fill="#567F3B" d="M49.599998474121094,110.0999984741211C46,102.5999984741211,44,94.30000305175781,44,85.5C44,54.099998474121094,69.5,28.600000381469727,100.9000015258789,28.600000381469727C110.5,28.600000381469727,119.5,31,127.39999389648438,35.099998474121094L127.30000305175781,35C132.5,20.600000381469727,146.1999969482422,10.300000190734863,162.39999389648438,10.300000190734863C183,10.300000190734863,199.6999969482422,27,199.6999969482422,47.599998474121094C199.6999969482422,53.20000076293945,198.5,58.5,196.1999969482422,63.29999923706055L196.1999969482422,63.400001525878906C199.5,62.900001525878906,202.8000030517578,62.599998474121094,206.1999969482422,62.599998474121094C240.89999389648438,62.599998474121094,269,90.69999694824219,269,125.4000015258789C269,139.10000610351562,264.6000061035156,151.6999969482422,257.20001220703125,162L257.20001220703125,162C265.20001220703125,168.5,270.3999938964844,178.39999389648438,270.3999938964844,189.5C270.3999938964844,209,254.60000610351562,224.8000030517578,235.10000610351562,224.8000030517578C226.60000610351562,224.8000030517578,218.89999389648438,221.8000030517578,212.8000030517578,216.8000030517578L212.8000030517578,216.60000610351562C204.10000610351562,230.10000610351562,188.89999389648438,239.10000610351562,171.60000610351562,239.10000610351562C166.5,239.10000610351562,161.5,238.3000030517578,156.8000030517578,236.8000030517578L156.89999389648438,236.8000030517578C147.39999389648438,241.60000610351562,136.60000610351562,244.3000030517578,125.0999984741211,244.3000030517578C95.80000305175781,244.3000030517578,70.5999984741211,226.39999389648438,60,201L60,201C58.599998474121094,201.10000610351562,57.20000076293945,201.1999969482422,55.79999923706055,201.1999969482422C30.5,201.1999969482422,10,180.6999969482422,10,155.39999389648438C10,132.1999969482422,27.299999237060547,113.0999984741211,49.599998474121094,110.0999984741211L49.599998474121094,110.0999984741211z"/>
<path id="shadowBorder" fill="#47702C" d="M257.1000061035156,161.89999389648438C264.5,151.60000610351562,268.8999938964844,139,268.8999938964844,125.30000305175781C268.8999938964844,111,264.1000061035156,97.80000305175781,256,87.19999694824219C258.6000061035156,94.0999984741211,260,101.5,260,109.30000305175781C260,125,254.1999969482422,139.39999389648438,244.60000610351562,150.39999389648438C249.39999389648438,156.39999389648438,252.3000030517578,164.10000610351562,252.3000030517578,172.39999389648438C252.3000030517578,191.89999389648438,236.5,207.6999969482422,217,207.6999969482422C211.39999389648438,207.6999969482422,206,206.39999389648438,201.3000030517578,204C192.3000030517578,215.60000610351562,178.3000030517578,223,162.60000610351562,223C157.5,223,152.5,222.1999969482422,147.8000030517578,220.6999969482422C138.3000030517578,225.5,127.5,228.1999969482422,116.0999984741211,228.1999969482422C86.80000305175781,228.1999969482422,61.599998474121094,210.3000030517578,51,184.89999389648438C49.599998474121094,185,48.20000076293945,185.10000610351562,46.79999923706055,185.10000610351562C32.900001525878906,185.10000610351562,20.399999618530273,178.89999389648438,12,169C17.799999237060547,187.60000610351562,35.20000076293945,201,55.70000076293945,201C57.099998474121094,201,58.5,200.89999389648438,59.900001525878906,200.8000030517578C70.5999984741211,226.3000030517578,95.69999694824219,244.10000610351562,125,244.10000610351562C136.39999389648438,244.10000610351562,147.10000610351562,241.39999389648438,156.60000610351562,236.60000610351562C161.3000030517578,238.10000610351562,166.1999969482422,238.89999389648438,171.39999389648438,238.89999389648438C188.60000610351562,238.89999389648438,203.8000030517578,230,212.5,216.60000610351562C218.60000610351562,221.60000610351562,226.39999389648438,224.60000610351562,234.89999389648438,224.60000610351562C254.39999389648438,224.60000610351562,270.20001220703125,208.8000030517578,270.20001220703125,189.3000030517578C270.29998779296875,178.3000030517578,265.1000061035156,168.39999389648438,257.1000061035156,161.89999389648438"/>
</g>
</svg>