<svg xmlns="http://www.w3.org/2000/svg" xmlns:xlink="http://www.w3.org/1999/xlink" viewBox= "0 0 209 388" width="209px" height="388px">
<g xmlns="http://www.w3.org/2000/svg" id="Tree3.svg">
<path id="trunkBorder" fill="#8C7950" stroke="#8C7950" stroke-width="3" stroke-miterlimit="10" d="M136.5,369.3999938964844C129.5,375.3999938964844,111.5,374.3999938964844,105.5,361.3999938964844C99.5,348.3999938964844,104.5,265.3999938964844,104.5,265.3999938964844C104.5,265.3999938964844,117.5,247.39999389648438,121.5,265.3999938964844S104.5,321.3999938964844,136.5,369.3999938964844"/>
<path id="topDraw" fill="#599134" stroke="#599134" stroke-width="3" stroke-miterlimit="10" d="M41.400001525878906,155.5C32,163.39999389648438,26,175.5,26,189C26,196.39999389648438,27.799999237060547,203.3000030517578,30.899999618530273,209.3000030517578L30.899999618530273,209.39999389648438C19.399999618530273,219.10000610351562,12,234,12,250.6999969482422C12,279.70001220703125,34.29999923706055,303.20001220703125,61.70000076293945,303.20001220703125C72.9000015258789,303.20001220703125,83.0999984741211,299.29998779296875,91.4000015258789,292.79998779296875L91.30000305175781,292.79998779296875C94.5999984741211,294.1000061035156,98.0999984741211,294.79998779296875,101.5,294.79998779296875C115.5999984741211,294.79998779296875,128.5,283.3999938964844,138.8000030517578,264.3999938964844L138.6999969482422,264.5C141.39999389648438,265,144.1999969482422,265.29998779296875,147,265.29998779296875C174.5,265.29998779296875,196.6999969482422,239.60000610351562,196.6999969482422,207.89999389648438C196.6999969482422,190.60000610351562,190.10000610351562,175.10000610351562,179.60000610351562,164.60000610351562L179.6999969482422,164.5C185.8000030517578,157.1999969482422,189.60000610351562,147.3000030517578,189.60000610351562,136.39999389648438C189.60000610351562,114.9000015258789,175,97.4000015258789,156.39999389648438,95.9000015258789L156.39999389648438,96C147,46.400001525878906,125.9000015258789,11.699999809265137,101.30000305175781,11.699999809265137C68,11.699999809265137,41.099998474121094,75,41.099998474121094,153.1999969482422C41.099998474121094,154,41.099998474121094,154.8000030517578,41.099998474121094,155.5L41.400001525878906,155.5z"/>
<path id="shadowBorder" fill="#4A7F28" d="M179.89999389648438,164.6999969482422C190.3000030517578,175.1999969482422,196.89999389648438,190.6999969482422,196.89999389648438,207.89999389648438C196.89999389648438,239.60000610351562,174.60000610351562,265.29998779296875,147.1999969482422,265.29998779296875C144.39999389648438,265.29998779296875,141.60000610351562,265,138.89999389648438,264.5C128.6999969482422,283.3999938964844,115.69999694824219,294.70001220703125,101.69999694824219,294.70001220703125C98.19999694824219,294.70001220703125,94.80000305175781,294,91.5,292.70001220703125C83.19999694824219,299.20001220703125,72.9000015258789,303.1000061035156,61.79999923706055,303.1000061035156C34.29999923706055,303.1000061035156,12.100000381469727,279.6000061035156,12.100000381469727,250.60000610351562C12.100000381469727,245.10000610351562,12.899999618530273,239.6999969482422,14.399999618530273,234.6999969482422C15.399999618530273,262.79998779296875,37.20000076293945,285.29998779296875,64.0999984741211,285.29998779296875C74.5999984741211,285.29998779296875,84.30000305175781,281.8999938964844,92.30000305175781,276.1000061035156C93.80000305175781,276.29998779296875,95.19999694824219,276.5,96.69999694824219,276.5C108.5999984741211,276.5,119.80000305175781,268.3999938964844,129.10000610351562,254.3000030517578C155.1999969482422,252.60000610351562,175.89999389648438,227.60000610351562,175.89999389648438,197C175.89999389648438,183.39999389648438,171.8000030517578,171,165,161.1999969482422C175.3000030517578,154.10000610351562,182.10000610351562,141.1999969482422,182.10000610351562,126.5C182.10000610351562,118.5999984741211,180.10000610351562,111.30000305175781,176.6999969482422,105.0999984741211C184.6999969482422,112.5,189.8000030517578,123.9000015258789,189.8000030517578,136.60000610351562C189.89999389648438,147.5,186.10000610351562,157.39999389648438,179.89999389648438,164.6999969482422M102.9000015258789,177.39999389648438C103.9000015258789,179.6999969482422,104.5,182.1999969482422,104.5,184.8000030517578C104.5,194.89999389648438,96.30000305175781,203,86.30000305175781,203C81.30000305175781,203,76.80000305175781,201,73.5,197.6999969482422C76.30000305175781,204.10000610351562,82.69999694824219,208.60000610351562,90.19999694824219,208.60000610351562C100.30000305175781,208.60000610351562,108.4000015258789,200.39999389648438,108.4000015258789,190.39999389648438C108.30000305175781,185.3000030517578,106.19999694824219,180.6999969482422,102.9000015258789,177.39999389648438M125.9000015258789,169.3000030517578C126.5999984741211,170.8000030517578,127,172.5,127,174.3000030517578C127,181.10000610351562,121.5,186.5,114.80000305175781,186.5C111.4000015258789,186.5,108.4000015258789,185.10000610351562,106.19999694824219,182.89999389648438C108.0999984741211,187.1999969482422,112.4000015258789,190.1999969482422,117.4000015258789,190.1999969482422C124.19999694824219,190.1999969482422,129.60000610351562,184.6999969482422,129.60000610351562,178C129.5,174.60000610351562,128.10000610351562,171.5,125.9000015258789,169.3000030517578"/>
</g>
</svg>