<svg xmlns="http://www.w3.org/2000/svg" xmlns:xlink="http://www.w3.org/1999/xlink" viewBox= "0 0 132 101" width="132px" height="101px">
<g xmlns="http://www.w3.org/2000/svg" id="Weed.svg">
<path id="weedBorder" fill="#618400" d="M120.80000305175781,10C120.80000305175781,10,120.4000015258789,10.100000381469727,119.69999694824219,10.300000190734863C119,10.5,118,10.899999618530273,116.69999694824219,11.399999618530273C116.0999984741211,11.699999809265137,115.4000015258789,12,114.5999984741211,12.300000190734863C113.9000015258789,12.699999809265137,113.0999984741211,13.100000381469727,112.19999694824219,13.5C111.30000305175781,13.899999618530273,110.5,14.5,109.5999984741211,15C108.69999694824219,15.5,107.69999694824219,16.100000381469727,106.69999694824219,16.799999237060547C105.69999694824219,17.5,104.69999694824219,18.200000762939453,103.69999694824219,18.899999618530273C102.69999694824219,19.700000762939453,101.69999694824219,20.5,100.5999984741211,21.399999618530273C99.5,22.200000762939453,98.5,23.200000762939453,97.5,24.100000381469727C96.5,25.100000381469727,95.4000015258789,26,94.30000305175781,27.100000381469727C93.30000305175781,28.200000762939453,92.30000305175781,29.299999237060547,91.19999694824219,30.399999618530273C90.69999694824219,31,90.19999694824219,31.5,89.5999984741211,32.099998474121094C89.0999984741211,32.70000076293945,88.5999984741211,33.29999923706055,88.0999984741211,33.900001525878906C87.0999984741211,35.099998474121094,86.0999984741211,36.29999923706055,85.0999984741211,37.5C84.0999984741211,38.70000076293945,83.19999694824219,40,82.30000305175781,41.29999923706055C81.4000015258789,42.599998474121094,80.5,43.900001525878906,79.5,45.20000076293945C78.9000015258789,46.20000076293945,78.30000305175781,47.099998474121094,77.5999984741211,48.099998474121094L77.5999984741211,48.20000076293945C77.9000015258789,46.79999923706055,78.30000305175781,45.400001525878906,78.5999984741211,44.099998474121094C79.0999984741211,41.70000076293945,79.5999984741211,39.20000076293945,79.80000305175781,36.79999923706055C79.9000015258789,35.599998474121094,80,34.400001525878906,80,33.29999923706055C80,32.70000076293945,80,32.099998474121094,80,31.600000381469727C80,31,80,30.5,79.9000015258789,29.899999618530273C79.80000305175781,27.700000762939453,79.5999984741211,25.600000381469727,79.19999694824219,23.700000762939453C79.0999984741211,22.700000762939453,78.9000015258789,21.799999237060547,78.5999984741211,21C78.4000015258789,20.100000381469727,78.19999694824219,19.299999237060547,77.9000015258789,18.600000381469727C77.5999984741211,17.899999618530273,77.4000015258789,17.200000762939453,77.0999984741211,16.5C76.80000305175781,15.899999618530273,76.5,15.300000190734863,76.30000305175781,14.800000190734863C76.0999984741211,14.300000190734863,75.80000305175781,13.800000190734863,75.5999984741211,13.5C75.4000015258789,13.100000381469727,75.19999694824219,12.800000190734863,75,12.600000381469727C74.69999694824219,12.100000381469727,74.5,11.800000190734863,74.5,11.800000190734863L74,12C74,12,74,12.300000190734863,74.0999984741211,12.899999618530273C74.19999694824219,13.5,74.4000015258789,14.399999618530273,74.5,15.399999618530273C74.5999984741211,15.899999618530273,74.5999984741211,16.5,74.69999694824219,17.100000381469727C74.69999694824219,17.700000762939453,74.80000305175781,18.399999618530273,74.80000305175781,19.200000762939453C74.9000015258789,20.700000762939453,74.9000015258789,22.299999237060547,74.9000015258789,24.100000381469727C74.9000015258789,25,74.9000015258789,25.899999618530273,74.80000305175781,26.899999618530273C74.80000305175781,27.899999618530273,74.69999694824219,28.899999618530273,74.5999984741211,29.899999618530273C74.4000015258789,32,74.19999694824219,34.099998474121094,74,36.400001525878906C73.80000305175781,38.70000076293945,73.5999984741211,41,73.4000015258789,43.400001525878906C73.19999694824219,45.79999923706055,72.80000305175781,48.20000076293945,72.4000015258789,50.599998474121094C71.5999984741211,54.70000076293945,70.69999694824219,58.79999923706055,69.69999694824219,62.79999923706055L69.69999694824219,62.900001525878906C69.4000015258789,63.599998474121094,69.0999984741211,64.30000305175781,68.9000015258789,65C68.4000015258789,66.30000305175781,68,67.5,67.5999984741211,68.69999694824219C67.5999984741211,68.80000305175781,67.5,69,67.5,69.0999984741211L67.5,69.0999984741211L67.5,69.0999984741211L67.5,69.0999984741211C67,69.5,66.5,69.9000015258789,66.0999984741211,70.30000305175781L66.0999984741211,70.30000305175781C66.4000015258789,67.69999694824219,66.69999694824219,64.9000015258789,66.9000015258789,62.20000076293945C67,60.400001525878906,67.19999694824219,58.599998474121094,67.30000305175781,56.900001525878906C67.4000015258789,55.099998474121094,67.5,53.400001525878906,67.5,51.70000076293945C67.4000015258789,50,67.30000305175781,48.400001525878906,67,46.900001525878906C66.69999694824219,45.400001525878906,66.5,43.900001525878906,66.0999984741211,42.599998474121094C65.80000305175781,41.29999923706055,65.4000015258789,40.099998474121094,65.0999984741211,39C64.69999694824219,38,64.4000015258789,37.099998474121094,64,36.400001525878906C63.5,34.79999923706055,63,34,63,34L62.5,34.099998474121094C62.5,34.099998474121094,62.29999923706055,35,62.20000076293945,36.599998474121094C62.099998474121094,37.400001525878906,62.099998474121094,38.400001525878906,62,39.400001525878906C61.900001525878906,40.5,61.900001525878906,41.70000076293945,61.79999923706055,43C61.79999923706055,44.29999923706055,61.70000076293945,45.70000076293945,61.70000076293945,47.20000076293945C61.70000076293945,48.70000076293945,61.70000076293945,50.20000076293945,61.79999923706055,51.900001525878906C61.900001525878906,53.5,62,55.20000076293945,62.20000076293945,56.900001525878906C62.400001525878906,58.599998474121094,62.5,60.29999923706055,62.599998474121094,62.099998474121094C62.70000076293945,65.5999984741211,62.70000076293945,69.0999984741211,62.70000076293945,72.30000305175781C62.70000076293945,72.9000015258789,62.70000076293945,73.4000015258789,62.70000076293945,74C62.70000076293945,74.19999694824219,62.70000076293945,74.5,62.70000076293945,74.69999694824219L62.70000076293945,74.9000015258789C62.599998474121094,73.5,62.599998474121094,72.0999984741211,62.5,70.5999984741211C62.29999923706055,68.4000015258789,62.099998474121094,66.0999984741211,61.79999923706055,63.70000076293945C61.5,61.29999923706055,61.20000076293945,58.79999923706055,60.599998474121094,56.400001525878906C60.400001525878906,55.20000076293945,60.099998474121094,53.900001525878906,59.900001525878906,52.599998474121094C59.599998474121094,51.400001525878906,59.29999923706055,50.099998474121094,59,48.79999923706055C58.5,46.29999923706055,57.70000076293945,43.79999923706055,57.099998474121094,41.29999923706055C56.79999923706055,40.099998474121094,56.400001525878906,38.79999923706055,56,37.70000076293945C55.599998474121094,36.5,55.20000076293945,35.400001525878906,54.79999923706055,34.20000076293945C54.400001525878906,33.099998474121094,53.900001525878906,32,53.400001525878906,30.899999618530273C52.900001525878906,29.799999237060547,52.400001525878906,28.799999237060547,51.900001525878906,27.799999237060547C51.400001525878906,26.799999237060547,50.900001525878906,25.799999237060547,50.400001525878906,24.899999618530273C49.79999923706055,24,49.29999923706055,23.100000381469727,48.79999923706055,22.299999237060547C48.29999923706055,21.5,47.79999923706055,20.700000762939453,47.29999923706055,20C46.79999923706055,19.299999237060547,46.400001525878906,18.5,45.79999923706055,18C44.79999923706055,16.799999237060547,44,15.699999809265137,43.20000076293945,14.899999618530273C41.70000076293945,13.199999809265137,40.79999923706055,12.300000190734863,40.79999923706055,12.300000190734863L40.29999923706055,12.600000381469727C40.29999923706055,12.600000381469727,40.70000076293945,13.899999618530273,41.5,16C41.900001525878906,17.100000381469727,42.400001525878906,18.299999237060547,43,19.799999237060547C43.599998474121094,21.200000762939453,44.099998474121094,22.899999618530273,44.900001525878906,24.600000381469727C45.599998474121094,26.299999237060547,46.400001525878906,28.200000762939453,47.099998474121094,30.200000762939453C47.79999923706055,32.20000076293945,48.79999923706055,34.29999923706055,49.599998474121094,36.5C50,37.599998474121094,50.5,38.70000076293945,51,39.79999923706055C51.20000076293945,40.29999923706055,51.5,40.900001525878906,51.70000076293945,41.5C51.900001525878906,42.099998474121094,52.099998474121094,42.599998474121094,52.400001525878906,43.20000076293945C53.29999923706055,45.5,54.20000076293945,47.79999923706055,55,50.20000076293945C55.400001525878906,51.400001525878906,55.79999923706055,52.599998474121094,56.099998474121094,53.79999923706055C56.5,55,56.70000076293945,56.20000076293945,57.099998474121094,57.400001525878906C57.79999923706055,59.79999923706055,58.29999923706055,62.099998474121094,58.79999923706055,64.4000015258789C59.29999923706055,66.69999694824219,59.70000076293945,68.9000015258789,60.099998474121094,71.0999984741211C60.400001525878906,73.19999694824219,60.79999923706055,75.30000305175781,61,77.0999984741211C61.099998474121094,78.0999984741211,61.29999923706055,79,61.400001525878906,79.9000015258789L61.400001525878906,80C61.29999923706055,80.69999694824219,61.20000076293945,81.5,61.099998474121094,82.0999984741211L61.099998474121094,81.9000015258789C60.400001525878906,80.30000305175781,59.400001525878906,78.30000305175781,58.099998474121094,76C56.5,73.0999984741211,54.5,69.9000015258789,51.900001525878906,66.69999694824219C51.099998474121094,65.69999694824219,50.29999923706055,64.69999694824219,49.400001525878906,63.70000076293945L49,63.20000076293945C48.70000076293945,61.79999923706055,48.400001525878906,60.400001525878906,48.099998474121094,59.099998474121094C47.70000076293945,57.70000076293945,47.400001525878906,56.400001525878906,47,55.099998474121094C46.79999923706055,54.5,46.599998474121094,53.900001525878906,46.5,53.29999923706055C46.29999923706055,52.70000076293945,46.20000076293945,52.099998474121094,46,51.599998474121094C45.70000076293945,50.5,45.20000076293945,49.5,45,48.5C44.70000076293945,47.5,44.400001525878906,46.70000076293945,44.20000076293945,46C43.70000076293945,44.599998474121094,43.29999923706055,43.900001525878906,43.29999923706055,43.900001525878906L42.79999923706055,43.900001525878906C42.79999923706055,43.900001525878906,42.5,44.70000076293945,42.29999923706055,46.099998474121094C42.20000076293945,46.79999923706055,42,47.70000076293945,41.900001525878906,48.599998474121094C41.70000076293945,49.599998474121094,41.70000076293945,50.70000076293945,41.70000076293945,52C41.70000076293945,53.20000076293945,41.70000076293945,54.599998474121094,41.900001525878906,56L41.599998474121094,56C40.29999923706055,54.900001525878906,39,53.900001525878906,37.70000076293945,52.900001525878906C35.900001525878906,51.599998474121094,34.099998474121094,50.400001525878906,32.20000076293945,49.5C30.299999237060547,48.599998474121094,28.399999618530273,47.79999923706055,26.5,47.29999923706055C25.600000381469727,47,24.600000381469727,46.79999923706055,23.799999237060547,46.599998474121094C22.899999618530273,46.400001525878906,22,46.29999923706055,21.200000762939453,46.099998474121094C20.399999618530273,45.900001525878906,19.600000381469727,45.900001525878906,18.799999237060547,45.79999923706055C18,45.79999923706055,17.299999237060547,45.599998474121094,16.600000381469727,45.70000076293945C15.199999809265137,45.70000076293945,14,45.70000076293945,13.100000381469727,45.79999923706055C11.199999809265137,46,10.100000381469727,46.20000076293945,10.100000381469727,46.20000076293945L10.100000381469727,46.70000076293945C10.100000381469727,46.70000076293945,11.100000381469727,47.099998474121094,13,47.70000076293945C13.899999618530273,48,15,48.400001525878906,16.200000762939453,48.79999923706055C17.399999618530273,49.20000076293945,18.700000762939453,49.79999923706055,20.200000762939453,50.29999923706055C20.899999618530273,50.599998474121094,21.700000762939453,50.900001525878906,22.399999618530273,51.20000076293945C23.200000762939453,51.5,23.899999618530273,51.900001525878906,24.799999237060547,52.20000076293945C26.399999618530273,52.900001525878906,28.100000381469727,53.70000076293945,29.799999237060547,54.599998474121094C31.5,55.400001525878906,33.29999923706055,56.29999923706055,35.099998474121094,57.20000076293945C36.900001525878906,58.20000076293945,38.599998474121094,59.29999923706055,40.29999923706055,60.5C41.400001525878906,61.29999923706055,42.400001525878906,62.099998474121094,43.400001525878906,62.900001525878906L43.599998474121094,63.099998474121094C43.79999923706055,63.70000076293945,44.099998474121094,64.4000015258789,44.29999923706055,65C45,66.5,45.599998474121094,68,46.400001525878906,69.5C46.900001525878906,70.5,47.5,71.5999984741211,48,72.5999984741211L47.900001525878906,72.5C47,72.0999984741211,46.20000076293945,71.69999694824219,45.29999923706055,71.30000305175781C44,70.80000305175781,42.70000076293945,70.4000015258789,41.5,70.0999984741211C40,70,38.79999923706055,70,37.599998474121094,70C36.400001525878906,70,35.29999923706055,70.30000305175781,34.20000076293945,70.4000015258789C33.20000076293945,70.5999984741211,32.29999923706055,70.80000305175781,31.5,71.0999984741211C30.799999237060547,71.4000015258789,30.100000381469727,71.69999694824219,29.600000381469727,71.9000015258789C28.5,72.4000015258789,27.899999618530273,72.80000305175781,27.899999618530273,72.80000305175781L28,73.30000305175781C28,73.30000305175781,28.700000762939453,73.5,29.799999237060547,73.80000305175781C30.399999618530273,73.9000015258789,31.100000381469727,74.0999984741211,31.899999618530273,74.19999694824219C32.29999923706055,74.30000305175781,32.70000076293945,74.30000305175781,33.099998474121094,74.4000015258789C33.5,74.5,33.900001525878906,74.5999984741211,34.400001525878906,74.69999694824219C35.29999923706055,74.9000015258789,36.20000076293945,75,37.20000076293945,75.19999694824219C38.20000076293945,75.4000015258789,39.20000076293945,75.5999984741211,40.29999923706055,75.69999694824219C41.400001525878906,75.9000015258789,42.5,76.0999984741211,43.599998474121094,76.19999694824219C44.70000076293945,76.5,45.79999923706055,76.69999694824219,46.900001525878906,77C46.599998474121094,77.19999694824219,46.29999923706055,77.4000015258789,46,77.5C45.29999923706055,78,44.70000076293945,78.5999984741211,44.20000076293945,79.0999984741211C43.70000076293945,79.5999984741211,43.29999923706055,80.19999694824219,43,80.80000305175781C42.900001525878906,81.0999984741211,42.70000076293945,81.30000305175781,42.599998474121094,81.5C42.5,81.69999694824219,42.400001525878906,82,42.400001525878906,82.19999694824219C42.099998474121094,83,42,83.5,42,83.5L42.400001525878906,83.9000015258789C42.400001525878906,83.9000015258789,42.900001525878906,83.80000305175781,43.70000076293945,83.5999984741211C44.099998474121094,83.5,44.599998474121094,83.30000305175781,45.099998474121094,83.19999694824219C45.599998474121094,83.0999984741211,46.099998474121094,82.9000015258789,46.70000076293945,82.69999694824219C47.29999923706055,82.5,47.79999923706055,82.4000015258789,48.400001525878906,82.19999694824219C48.70000076293945,82.0999984741211,49,82.0999984741211,49.29999923706055,82C49.599998474121094,81.9000015258789,49.79999923706055,81.9000015258789,50.099998474121094,81.80000305175781C50.599998474121094,81.69999694824219,51.099998474121094,81.4000015258789,51.70000076293945,81.30000305175781C52.20000076293945,81.0999984741211,52.79999923706055,81.0999984741211,53.400001525878906,81.30000305175781L53.70000076293945,81.5999984741211C54.5,82.5,55.20000076293945,83.5,56,84.19999694824219C56.79999923706055,85.0999984741211,57.599998474121094,85.9000015258789,58.29999923706055,86.5999984741211C59,87.30000305175781,59.70000076293945,87.80000305175781,60.20000076293945,88.30000305175781C60.599998474121094,88.5999984741211,61,88.9000015258789,61.20000076293945,89.0999984741211L61.29999923706055,89.19999694824219C61.599998474121094,89.69999694824219,61.70000076293945,90,61.70000076293945,90L62,89.9000015258789L62,89.9000015258789L62.400001525878906,90C62.400001525878906,90,62.599998474121094,89.0999984741211,63,87.5999984741211C63,87.5,63.099998474121094,87.4000015258789,63.099998474121094,87.19999694824219L63,87.19999694824219L63.5,87.4000015258789C63.5,87.4000015258789,63.79999923706055,86.9000015258789,64.30000305175781,85.9000015258789L64.30000305175781,85.80000305175781C64.5999984741211,85.5,65,84.9000015258789,65.5999984741211,84C66.0999984741211,83.4000015258789,66.5999984741211,82.5999984741211,67.30000305175781,81.80000305175781C68,81,68.69999694824219,80,69.5,79C70.30000305175781,78,71.19999694824219,77,72.19999694824219,75.9000015258789C72.69999694824219,75.4000015258789,73.19999694824219,74.80000305175781,73.69999694824219,74.30000305175781C74.30000305175781,73.80000305175781,74.80000305175781,73.19999694824219,75.30000305175781,72.69999694824219C75.9000015258789,72.0999984741211,76.5999984741211,71.4000015258789,77.30000305175781,70.80000305175781L77.30000305175781,70.80000305175781C78.19999694824219,70.80000305175781,79,70.9000015258789,79.9000015258789,71C80.9000015258789,71.19999694824219,81.80000305175781,71.4000015258789,82.69999694824219,71.5999984741211C83.19999694824219,71.69999694824219,83.5999984741211,71.9000015258789,84,72C84.4000015258789,72.0999984741211,84.80000305175781,72.30000305175781,85.19999694824219,72.4000015258789C86,72.69999694824219,86.5999984741211,72.9000015258789,87.19999694824219,73.0999984741211C88.4000015258789,73.5999984741211,89.0999984741211,73.80000305175781,89.0999984741211,73.80000305175781L89.5,73.4000015258789C89.5,73.4000015258789,89.19999694824219,72.69999694824219,88.5999984741211,71.5999984741211C88.19999694824219,71.0999984741211,87.80000305175781,70.4000015258789,87.0999984741211,69.69999694824219C86.5,69,85.69999694824219,68.30000305175781,84.80000305175781,67.5999984741211C84.19999694824219,67.0999984741211,83.4000015258789,66.69999694824219,82.5999984741211,66.30000305175781L82.5999984741211,66.30000305175781C82.69999694824219,66.19999694824219,82.9000015258789,66.0999984741211,83,66C88.69999694824219,62.099998474121094,95.4000015258789,59.400001525878906,100.5,57.900001525878906C103.0999984741211,57.099998474121094,105.30000305175781,56.599998474121094,106.80000305175781,56.29999923706055C108.30000305175781,56,109.19999694824219,55.900001525878906,109.19999694824219,55.900001525878906L109.19999694824219,55.29999923706055C109.19999694824219,55.29999923706055,105.5,55.20000076293945,100.0999984741211,56C97.4000015258789,56.400001525878906,94.19999694824219,57,90.9000015258789,58.099998474121094C89.19999694824219,58.599998474121094,87.5,59.20000076293945,85.80000305175781,59.900001525878906C84.0999984741211,60.599998474121094,82.4000015258789,61.400001525878906,80.69999694824219,62.29999923706055C79.5,62.900001525878906,78.30000305175781,63.599998474121094,77.19999694824219,64.30000305175781L77,64.4000015258789L77.0999984741211,64.30000305175781C77.30000305175781,64,77.5,63.79999923706055,77.69999694824219,63.5C78.4000015258789,62.70000076293945,79,61.79999923706055,79.80000305175781,61C80.5,60.20000076293945,81.30000305175781,59.400001525878906,82.0999984741211,58.599998474121094C83.69999694824219,57,85.4000015258789,55.599998474121094,87.0999984741211,54.20000076293945C88.9000015258789,52.900001525878906,90.5999984741211,51.599998474121094,92.4000015258789,50.400001525878906C94.19999694824219,49.20000076293945,96,48.20000076293945,97.69999694824219,47.29999923706055C99.4000015258789,46.400001525878906,101.0999984741211,45.5,102.5999984741211,44.79999923706055C105.69999694824219,43.29999923706055,108.4000015258789,42.29999923706055,110.30000305175781,41.599998474121094C112.19999694824219,40.900001525878906,113.30000305175781,40.599998474121094,113.30000305175781,40.599998474121094L113.19999694824219,40.099998474121094C113.19999694824219,40.099998474121094,108.5999984741211,40.70000076293945,101.9000015258789,43C98.5999984741211,44.099998474121094,94.80000305175781,45.599998474121094,90.80000305175781,47.70000076293945C88.80000305175781,48.70000076293945,86.80000305175781,49.900001525878906,84.9000015258789,51.099998474121094C83.19999694824219,52.20000076293945,81.5,53.5,79.9000015258789,54.79999923706055L80,54.599998474121094C80.5,53.599998474121094,81,52.599998474121094,81.5999984741211,51.599998474121094C82.30000305175781,50.29999923706055,82.9000015258789,48.900001525878906,83.69999694824219,47.599998474121094C84.5,46.29999923706055,85.30000305175781,45,86.0999984741211,43.70000076293945C86.9000015258789,42.400001525878906,87.5999984741211,41.099998474121094,88.5,39.79999923706055C89.4000015258789,38.599998474121094,90.30000305175781,37.29999923706055,91.0999984741211,36.099998474121094C91.5,35.5,92,34.900001525878906,92.4000015258789,34.29999923706055C92.9000015258789,33.70000076293945,93.30000305175781,33.20000076293945,93.80000305175781,32.599998474121094C94.69999694824219,31.5,95.69999694824219,30.299999237060547,96.5999984741211,29.200000762939453C97.5,28.100000381469727,98.5,27.100000381469727,99.5,26.100000381469727C100.4000015258789,25.100000381469727,101.4000015258789,24.100000381469727,102.30000305175781,23.200000762939453C103.30000305175781,22.299999237060547,104.19999694824219,21.399999618530273,105.0999984741211,20.600000381469727C106.0999984741211,19.799999237060547,107,19.100000381469727,107.9000015258789,18.299999237060547C108.80000305175781,17.5,109.69999694824219,16.899999618530273,110.5,16.299999237060547C111.4000015258789,15.699999809265137,112.0999984741211,15.100000381469727,112.9000015258789,14.600000381469727C113.69999694824219,14.100000381469727,114.4000015258789,13.600000381469727,115.0999984741211,13.199999809265137C115.80000305175781,12.800000190734863,116.5,12.399999618530273,117,12.100000381469727C118.19999694824219,11.5,119.0999984741211,11,119.80000305175781,10.800000190734863C120.5,10.5,120.80000305175781,10.399999618530273,120.80000305175781,10.399999618530273L120.80000305175781,10zM57.70000076293945,79.0999984741211C57,78.4000015258789,56.099998474121094,77.69999694824219,55.099998474121094,77.30000305175781C54.79999923706055,77.19999694824219,54.599998474121094,77,54.29999923706055,76.9000015258789L54.29999923706055,76.9000015258789C54.099998474121094,76.69999694824219,54,76.5999984741211,53.79999923706055,76.4000015258789L53.900001525878906,76.5C53.79999923706055,76.4000015258789,53.79999923706055,76.19999694824219,53.70000076293945,76.0999984741211C53.400001525878906,75.4000015258789,53.099998474121094,74.80000305175781,52.70000076293945,74.0999984741211C52.400001525878906,73.4000015258789,52.099998474121094,72.69999694824219,51.79999923706055,72C51.599998474121094,71.69999694824219,51.5,71.30000305175781,51.400001525878906,71L51.400001525878906,71C51.900001525878906,71.5999984741211,52.5,72.19999694824219,53,72.80000305175781C54.20000076293945,74.19999694824219,55.20000076293945,75.5,56.20000076293945,76.80000305175781C56.79999923706055,77.69999694824219,57.29999923706055,78.4000015258789,57.70000076293945,79.0999984741211L57.70000076293945,79.0999984741211z"/>
</g>
</svg>