<svg width="315" height="225" viewBox="0 0 315 225" fill="none" xmlns="http://www.w3.org/2000/svg">
<path opacity="0.2" d="M74.4999 196H173C213.667 198 295.1 197 289.5 207C282.5 219.5 226.5 210 209.5 210C192.5 210 117 220.5 97.9999 215.5C78.9999 210.5 70.4998 215.5 54.9999 215.5C39.4999 215.5 17.7697 218.677 1.4999 210C-6.00016 206 17.5 200 33.4999 202C37.8332 200 52.0999 196 74.4999 196Z" fill="#2E91BF"/>
<path d="M63.2189 167.505C59.4099 170.985 51.2989 175.958 37.9899 172.716C16.7689 167.548 11.2129 143.052 11.2129 143.052C11.2129 143.052 8.86294 134.441 15.7149 132.872C22.5669 131.308 23.9379 140.507 23.9379 140.507C23.9379 140.507 32.3539 163.413 46.0589 163.804C53.0819 164.005 58.6159 161.892 62.3399 159.783C62.3399 159.783 64.3049 159.467 65.2109 161.515C66.1169 163.57 63.2189 167.505 63.2189 167.505Z" fill="#FAA51D"/>
<path d="M27.3989 160.583C28.5649 157.97 30.1489 156.144 31.9169 154.878C26.8079 148.304 23.9379 140.507 23.9379 140.507C23.9379 140.507 22.5669 131.308 15.7149 132.872C8.86294 134.434 11.2129 143.054 11.2129 143.054C11.2129 143.054 14.6579 158.214 26.4649 167.197C26.0919 165.259 26.2929 163.062 27.3989 160.583Z" fill="white"/>
<path d="M46.4539 174.702C43.8799 174.702 41.0419 174.383 37.9329 173.626C16.3579 168.372 10.4719 143.463 10.4149 143.212C10.3719 143.056 9.12694 138.372 11.1689 134.962C12.1339 133.351 13.6479 132.299 15.6699 131.835C17.6519 131.384 19.4259 131.68 20.9419 132.716C24.0479 134.838 24.9489 139.392 25.0849 140.186C25.6639 141.703 33.8069 162.388 46.2659 162.744C53.2689 162.955 58.6979 160.74 62.0249 158.852L63.0109 160.592C59.4619 162.603 53.6779 164.952 46.2079 164.741C31.9899 164.337 23.5279 141.751 23.1749 140.79L23.1249 140.594C23.1179 140.55 22.4229 136.146 19.8089 134.365C18.7579 133.649 17.5499 133.467 16.1149 133.787C14.6279 134.127 13.5719 134.85 12.8879 135.984C11.2819 138.656 12.3429 142.688 12.3539 142.729C12.4179 143.008 18.0449 166.726 38.4049 171.683C51.3649 174.843 59.2049 169.919 62.7229 166.704L64.0719 168.182C61.1169 170.883 55.3599 174.702 46.4539 174.702Z" fill="black"/>
<path d="M62.6309 156.995C55.6819 156.831 59.3539 146.86 59.3539 146.86C59.3539 146.86 55.1629 141.853 53.5549 139.446C52.0179 137.134 48.9769 131.674 56.2779 127.894C61.8049 125.04 69.6389 121.519 73.5979 119.485L80.8289 120.297L80.7719 120.318C81.9009 119.611 83.3009 119.089 85.0469 118.922C91.0469 118.336 97.6209 120.237 97.6209 120.237C97.7139 120.422 97.8089 120.616 97.9209 120.831L97.8999 120.792C99.5499 120.76 101.197 121.206 101.197 121.206C102.402 122.022 103.871 123.224 105.641 124.95C112.932 132.051 125.495 139.065 125.495 139.065C125.495 139.065 126.891 132.755 130.731 134.336C134.573 135.912 130.618 140.361 130.618 140.361C130.618 140.361 140.497 138.701 139.579 144.851C138.997 148.746 135.429 152.293 128.88 151.039C125.132 150.322 120.964 146.408 120.964 146.408C113.76 144.656 107.939 141.179 104.235 137.346L104.251 137.376C106.2 144.685 107.147 152.897 104.596 159.489C101.722 166.903 97.3589 171.247 92.6839 173.553L92.7459 173.524C91.3119 176.768 88.1809 184.638 88.3079 190.94L88.3239 190.993C90.2649 188.811 95.2239 184.347 103.619 183.764C114.777 182.983 116.932 193.358 116.146 197.662C115.365 201.971 113.601 206.473 113.601 206.473L72.4899 205.887C72.4899 205.887 85.5659 177.908 78.4669 175.341L78.4119 175.33C78.1299 175.273 77.8519 175.216 77.5789 175.148C68.5729 174.557 57.4149 205.881 57.4149 205.881L25.6999 208.03C25.6999 208.03 18.2609 202.351 18.8479 194.521C19.4349 186.692 29.0279 178.862 39.4029 179.448C45.9619 179.819 49.7039 185.196 51.5709 189.101L51.7309 189.04C56.9479 184.833 62.0809 171.824 63.3759 168.379C63.3759 168.379 62.4259 164.261 62.2999 162.543C62.1749 160.829 62.6309 156.995 62.6309 156.995ZM67.9029 143.563C69.8029 140.042 71.8739 136.57 73.5919 133.052L73.5719 133.088C73.1579 133.542 72.9299 133.761 72.9299 133.761C70.6409 135.474 68.1879 136.613 64.6079 137.22L64.7149 137.384C66.0079 139.56 67.2739 142.07 67.4059 143.726C67.4059 143.726 67.5859 143.683 67.8699 143.622L67.9029 143.563Z" fill="#FAA51D"/>
<path d="M98.4179 169.384C100.645 164.32 107.193 147.38 95.4339 146.798C80.7049 146.069 75.5449 168.566 74.4869 174.198L74.5459 174.354C75.4579 174.625 76.4659 174.887 77.5789 175.157C83.5439 176.579 91.8819 175.932 98.3249 169.495L98.4179 169.384Z" fill="white"/>
<path d="M25.5719 209.009L25.2729 208.78C24.9509 208.534 17.4089 202.676 18.0299 194.4C18.6889 185.588 29.1959 177.796 39.6379 178.405C46.1089 178.767 49.9789 183.528 52.0959 187.489C56.6819 182.96 61.1529 171.837 62.4919 168.321C61.4059 164.805 61.1399 161.286 61.6859 157.596C60.4459 157.325 59.4819 156.694 58.8119 155.705C56.9629 152.998 58.1509 148.421 58.6499 146.826C57.5909 145.553 54.5029 141.796 53.1439 139.758C52.4549 138.721 50.3579 135.57 51.2319 132.195C51.7959 130.014 53.4809 128.188 56.2399 126.76C59.1859 125.238 63.1579 123.359 66.6619 121.7L69.1079 120.542L69.9659 122.349L67.5159 123.509C64.0269 125.157 60.0729 127.03 57.1579 128.534C54.9249 129.687 53.5829 131.089 53.1669 132.692C52.7289 134.38 53.2669 136.327 54.8079 138.641C56.3659 140.978 60.4999 145.917 60.5409 145.966L60.9129 146.408L60.7129 146.951C60.1829 148.396 59.1049 152.585 60.4639 154.57C60.9849 155.336 61.8459 155.716 63.0969 155.742C64.5099 155.764 65.6689 155.343 66.5989 154.43C69.0329 152.044 69.0609 147.29 69.0609 147.242V146.221L70.0829 146.242C71.4169 146.283 73.8449 146 74.6759 145.143C74.8649 144.951 74.9409 144.753 74.9279 144.494C74.9229 144.387 74.8989 144.312 74.7789 144.223C73.7949 143.488 70.1899 143.913 68.0629 144.437L66.9219 144.716L66.8279 143.545C66.6179 140.915 62.8599 135.256 61.4289 133.297L63.0439 132.116C63.2899 132.454 64.3759 133.958 65.5419 135.847C68.3869 135.285 70.5739 134.326 72.7499 132.7L72.7709 132.726C73.3149 131.622 73.8239 130.517 74.2769 129.414L76.1269 130.174C74.7099 133.621 72.8019 137.033 70.9569 140.333C70.6419 140.895 70.3269 141.46 70.0139 142.021C72.0079 141.739 74.6359 141.618 75.9749 142.618C76.5629 143.056 76.8919 143.671 76.9259 144.392C76.9649 145.204 76.6819 145.946 76.1069 146.538C74.8529 147.823 72.3979 148.142 71.0119 148.218C70.8659 149.96 70.2889 153.611 67.9979 155.857C66.8249 157.003 65.3759 157.632 63.6849 157.73C63.1209 161.388 63.4239 164.873 64.6069 168.347L64.5569 168.367L64.5979 168.384C63.1869 172.176 58.2789 184.621 53.0079 189.362C53.8359 191.254 54.2079 192.674 54.2529 192.849L52.3149 193.34C52.2829 193.216 49.0369 180.926 39.5239 180.387C29.3499 179.823 20.5379 187.658 20.0229 194.535C19.5459 200.885 24.9039 205.842 26.2049 206.945L56.8719 204.865C58.5379 200.297 66.2579 180.091 74.1719 175.16C68.4199 173.447 66.4379 171.811 66.3429 171.732L67.6349 170.207C67.6539 170.224 70.1849 172.242 77.9219 174.094C78.3039 174.127 78.6619 174.203 78.9949 174.324C87.6979 175.988 98.4979 172.838 103.84 159.054C108.026 148.252 102.464 132.797 98.7769 124.546L100.603 123.732C102.068 127.006 103.814 131.388 105.16 136.195C109.035 140.306 115.021 143.58 121.626 145.184L121.884 145.246L122.072 145.428C122.111 145.465 126.078 149.157 129.492 149.808C132.283 150.345 134.68 149.972 136.426 148.737C137.832 147.739 138.757 146.217 139.02 144.461C139.171 143.442 138.975 142.687 138.416 142.139C136.812 140.568 132.676 140.861 131.215 141.105L128.432 141.574L130.3 139.457C130.776 138.921 132.071 137.129 131.806 135.988C131.771 135.84 131.66 135.381 130.784 135.013C130.198 134.777 129.713 134.777 129.249 135.016C127.909 135.713 127.103 138.158 126.905 139.037L126.61 140.348L125.44 139.7C124.919 139.411 112.677 132.534 105.377 125.427C105.033 125.091 104.703 124.777 104.384 124.484L105.738 123.012C106.072 123.32 106.416 123.646 106.77 123.995C112.642 129.71 122.13 135.46 125.328 137.327C125.791 136.014 126.716 134.088 128.32 133.251C129.301 132.732 130.42 132.708 131.543 133.169C133.064 133.794 133.586 134.806 133.757 135.542C134.028 136.71 133.608 137.939 133.084 138.924C135.148 138.833 138.134 139.061 139.822 140.718C140.531 141.413 141.308 142.682 141.002 144.764C140.656 147.07 139.441 149.063 137.586 150.379C136.053 151.466 133.344 152.59 129.123 151.784C125.57 151.1 121.81 147.888 120.908 147.079C115.252 145.665 110.017 143.079 106.07 139.788C107.578 146.554 108.035 153.795 105.713 159.792C102.879 167.104 98.5159 171.624 93.7279 174.134C92.4889 176.986 90.1139 183.02 89.5909 188.45C92.2789 186.093 96.9099 183.185 103.731 182.71C108.047 182.398 111.62 183.689 114.073 186.431C117.308 190.042 117.784 195.201 117.313 197.785C116.522 202.139 114.79 206.598 114.716 206.781L114.463 207.427L71.1119 206.809L71.7669 205.408C74.7449 199.039 81.8859 181.512 79.2029 176.977C79.0039 176.64 78.7579 176.408 78.4429 176.264C78.1699 176.21 77.8979 176.152 77.6309 176.089C70.8599 175.765 61.5649 197.68 58.5409 206.167L58.3209 206.784L25.5719 209.009ZM74.2129 204.857L113.087 205.412C113.59 204.031 114.753 200.652 115.339 197.433C115.723 195.32 115.313 190.826 112.574 187.77C110.517 185.479 107.595 184.451 103.863 184.71C93.3629 185.446 88.4249 192.614 88.3759 192.688L86.7129 191.578C86.7569 191.515 87.0099 191.14 87.4809 190.584C87.4619 185.346 89.5339 179.162 91.0669 175.315C87.7839 176.52 84.4009 176.885 81.2479 176.649C83.6579 182.88 76.5859 199.574 74.2129 204.857ZM66.6129 137.688C67.2469 138.828 67.8349 140.013 68.2469 141.113C68.5679 140.535 68.8919 139.957 69.2139 139.383C69.8089 138.32 70.4099 137.242 70.9979 136.16C69.6519 136.829 68.2249 137.326 66.6129 137.688Z" fill="black"/>
<path d="M144 99.5556C145.297 96.9056 146.082 94.2566 146.248 91.7296C147.168 77.6826 141.691 72.7496 141.691 72.7496C141.691 72.7496 144.623 62.2696 143.162 52.8956C142.221 46.8586 139.289 39.6006 134.433 33.4166L134.489 33.3556C134.963 29.5796 135.761 22.7156 135.843 19.1116C136.056 9.85459 134.905 2.93859 130.905 0.766587C126.53 -1.61241 112.477 5.18659 103.553 13.7756L103.379 13.7486C98.4689 12.6026 93.17 12.0606 87.518 12.2846C81.733 12.5136 76.8029 13.2956 72.7949 14.2406L72.7009 14.2606C69.5739 12.0476 65.8489 9.48459 63.4839 8.11459C54.9899 3.19659 47.9719 0.741587 43.9179 3.34359C39.4569 6.20759 38.6189 22.8636 42.1039 35.5566L42.1429 35.7076C42.1429 35.7076 36.8559 52.3536 36.8559 61.3356C36.8559 61.3356 32.8769 71.5366 34.8439 83.8936L30.5489 88.0616C30.5489 88.0616 19.5039 96.0826 20.8379 100.311C22.1739 104.541 30.5699 103.804 30.5699 103.804L42.4399 103.853L43.5439 103.791C43.5439 103.791 40.1159 113.937 42.0189 115.595C43.9229 117.255 51.9079 115.595 51.9079 115.595L55.6879 115.217C68.8749 124.227 84.9389 125.203 102.266 124.515C109.345 124.235 116.1 122.383 122.102 119.554C123.108 119.987 130.649 123.114 133.582 121.16C136.527 119.207 133.701 113.238 133.322 112.472C133.523 112.306 133.722 112.142 133.926 111.974L137.828 111.385L145.4 111.03C145.4 111.03 148.219 109.907 148.871 107.19C149.235 105.706 146.53 102.324 144 99.5556Z" fill="#FAA51D"/>
<path d="M131.302 74.0136C132.28 71.0526 132.854 67.5306 132.854 63.7406C132.854 53.2806 128.528 44.8026 123.19 44.8026C117.853 44.8026 113.526 53.2816 113.526 63.7406C113.526 68.1086 114.288 72.1186 115.555 75.3226C108.731 76.9886 103.358 79.3846 103.358 79.3846C103.358 79.3846 97.4089 77.0466 90.8789 75.8416C91.4839 73.0566 91.8239 69.9766 91.8239 66.7326C91.8239 54.3376 86.8999 44.2946 80.8239 44.2946C74.7489 44.2946 69.8239 54.3416 69.8239 66.7326C69.8239 70.2506 70.2209 73.5736 70.9279 76.5356C63.2569 78.5876 56.6519 83.2236 56.4359 92.7406C56.0839 108.206 64.5199 113.303 72.9559 118.223C81.3919 123.145 100.724 123.494 100.724 123.494C114.255 122.973 120.231 119.806 126.382 116.473C132.531 113.133 146.414 102.765 146.591 90.8126C146.746 80.2116 140.543 75.1506 131.302 74.0136Z" fill="white"/>
<path d="M106.649 72.1776C100.846 72.1776 95.2449 71.9846 95.2449 76.2386C95.2449 80.4906 99.6899 85.7146 104.724 85.7146C110.527 85.7146 114.39 79.1396 113.81 76.0476C113.223 72.9506 109.936 72.1776 106.649 72.1776Z" fill="black"/>
<path d="M69.1759 20.8436C64.5909 22.6206 60.1149 24.9676 55.8079 27.8566C53.9299 24.8056 53.1299 19.2496 53.6939 15.6736C53.9299 14.1746 54.4059 13.0816 54.9669 12.7506C55.1879 12.6206 55.4509 12.5616 55.7489 12.5616C57.2529 12.5616 59.6159 14.0556 61.5789 15.2956L62.0369 15.5846C64.3159 17.0186 67.4219 19.4406 69.1759 20.8436ZM128.653 14.6996C128.135 14.3926 127.036 14.5006 125.7 14.9796C122.518 16.1266 118.331 19.2686 116.651 22.1776C120.944 24.4066 124.88 27.0146 128.397 29.9656C128.761 27.8626 129.338 24.2736 129.489 21.7776L129.519 21.2806C129.681 18.6746 129.883 15.4296 128.653 14.6996Z" fill="white"/>
<path d="M129.559 73.9936C128.46 74.0856 127.382 74.2126 126.329 74.3656C125.069 72.7756 124.19 69.2296 124.19 65.1016C124.19 59.4926 125.81 54.9436 127.81 54.9436C129.808 54.9436 131.429 59.4926 131.429 65.1016C131.429 68.9306 130.673 72.2616 129.559 73.9936ZM88.4009 65.5896C88.4009 59.9806 86.7789 55.4326 84.7809 55.4326C82.7809 55.4326 81.1599 59.9806 81.1599 65.5896C81.1599 70.2146 82.2629 74.1126 83.7699 75.3406C84.5059 75.2726 85.2379 75.2176 85.9609 75.1846C87.3799 73.8086 88.4009 70.0376 88.4009 65.5896Z" fill="black"/>
<path d="M118 103.83C118 101.187 116.477 99.1888 114.425 97.9019C112.387 96.6239 109.751 95.9832 107.224 96.0003C104.707 96.0174 102.151 96.6901 100.353 98.2127C98.4907 99.7885 97.5604 102.177 98.2032 105.271L100.161 104.864C99.6572 102.438 100.381 100.809 101.645 99.7393C102.971 98.6162 105.013 98.0154 107.238 98.0003C109.452 97.9853 111.7 98.554 113.362 99.5962C115.009 100.629 116 102.063 116 103.83H118ZM98.2032 105.271C98.8285 108.281 100.381 110.38 102.411 111.625C104.421 112.859 106.82 113.208 109.091 112.888C113.559 112.259 118 108.913 118 103.83H116C116 107.57 112.679 110.363 108.812 110.908C106.915 111.175 105.003 110.869 103.457 109.921C101.932 108.985 100.683 107.376 100.161 104.864L98.2032 105.271Z" fill="black"/>
<path d="M94.7229 125.382C82.0779 125.382 66.4509 123.816 54.0079 116.056C50.9969 116.574 42.9109 117.765 41.0109 116.055C39.3229 114.536 40.6259 108.716 41.8319 104.591C35.2979 104.946 20.2559 105.213 19.5089 100.174C18.7619 95.1476 30.1169 86.3996 33.4789 83.9316C32.3129 74.1226 34.6559 64.7986 35.7559 62.0416C35.7609 53.5406 40.2849 38.7016 41.0019 36.4026C37.6929 24.2176 38.0839 6.55559 43.2779 3.21959C47.2919 0.641589 53.8409 2.15059 63.8859 7.96659C66.2049 9.30859 69.7579 11.7426 72.8179 13.9046C77.4199 12.8436 82.3169 12.2056 87.3799 12.0076C92.7769 11.7936 98.0839 12.2676 103.151 13.4136C111.95 5.14659 126.102 -2.20441 131.284 0.61259C135.263 2.77359 136.993 8.88959 136.741 19.8586C136.657 23.4376 135.89 30.0536 135.411 33.9006C139.868 39.7136 143.012 46.8146 144.049 53.4636C145.352 61.8216 143.282 70.8686 142.695 73.1876C144.049 74.7416 147.937 80.3406 147.14 92.5186C147.004 94.5816 146.476 96.7066 145.598 98.8386C149.281 102.986 150.617 106.34 149.574 108.803C148.435 111.48 143.544 112.714 135.053 112.49C134.904 112.621 134.743 112.75 134.592 112.877C136.157 116.938 135.895 119.912 133.827 121.281C131.268 122.974 126.358 121.676 122.668 120.268C116.458 123.093 109.421 124.936 101.972 125.231C99.7049 125.32 97.2759 125.382 94.7229 125.382ZM54.4229 113.952L54.7509 114.161C69.2739 123.389 88.6069 123.755 101.886 123.224C124.783 122.319 144.274 105.612 145.141 92.3796C146.012 79.0856 140.959 74.2476 140.909 74.1996L140.467 73.7846L140.62 73.1896C140.649 73.0866 143.474 62.8026 142.065 53.7606C141.175 48.0536 138.651 41.9856 135.044 36.7746C135.033 36.8166 135.029 36.8456 135.027 36.8636L133.048 36.5946C133.068 36.4776 134.626 24.8286 134.737 19.8026C134.966 9.80359 133.524 4.09859 130.327 2.35959C126.308 0.17859 110.719 7.71859 102.03 17.3956L100.547 16.0596C100.838 15.7356 101.141 15.4116 101.448 15.0856C96.9319 14.1746 92.2389 13.8106 87.4609 13.9966C83.1569 14.1666 78.9889 14.6606 75.0239 15.4666C77.1249 16.9736 78.6629 18.1106 78.8219 18.2256L77.6339 19.8346C77.5329 19.7596 67.5009 12.3626 62.8869 9.68859C53.6889 4.36459 47.6299 2.79759 44.3619 4.89459C40.6759 7.26159 39.3409 22.7716 42.9719 36.0026L43.0869 36.4436L42.9999 36.7176C42.9479 36.8826 37.7599 53.3216 37.7599 62.0436V63.2356L37.4379 63.1766C36.6229 65.7896 34.2469 74.5396 35.5409 84.2446L35.6199 84.8376L35.1349 85.1886C29.6099 89.1736 21.0199 96.6836 21.4919 99.8666C21.8509 102.294 32.9789 103.183 43.1419 102.495L44.6009 102.394L44.1639 103.79C42.6119 108.75 41.7729 113.788 42.3679 114.571C43.1219 115.245 48.4759 114.993 54.0439 114.009L54.4229 113.952ZM125.198 119.035C128.735 120.168 131.534 120.396 132.719 119.611C134.182 118.639 133.49 115.813 132.931 114.175C130.574 115.954 127.983 117.594 125.198 119.035ZM144.674 100.829C142.966 104.162 140.436 107.462 137.25 110.509C143.062 110.462 147.087 109.53 147.729 108.021C148.379 106.483 147.298 103.951 144.674 100.829ZM130.085 34.1726C125.41 29.6616 119.828 25.8496 113.494 22.8446L114.348 21.0376C114.518 21.1166 114.692 21.1976 114.86 21.2796C116.798 17.8386 121.384 14.4056 125.016 13.0966C127.024 12.3746 128.585 12.3356 129.666 12.9766C131.945 14.3306 131.727 17.9266 131.51 21.4046L131.485 21.8976C131.293 25.1086 130.452 29.8796 130.155 31.4996C130.597 31.9026 131.043 32.3146 131.469 32.7306L130.085 34.1726ZM116.651 22.1786C120.944 24.4076 124.88 27.0156 128.397 29.9666C128.761 27.8636 129.338 24.2746 129.489 21.7786L129.519 21.2816C129.681 18.6766 129.883 15.4286 128.653 14.6986C128.135 14.3916 127.036 14.4996 125.7 14.9786C122.518 16.1266 118.33 19.2686 116.651 22.1786ZM54.8029 30.9936L53.6309 29.3736C53.8069 29.2466 53.9839 29.1206 54.1599 28.9936C51.9319 25.4506 51.0779 19.4156 51.7169 15.3616C52.0649 13.1546 52.8159 11.6966 53.9479 11.0286C56.3369 9.61759 59.5429 11.6446 62.6449 13.6046L63.0999 13.8926C66.0029 15.7196 70.0409 18.9616 71.3659 20.0406C71.9799 19.8266 72.5959 19.6266 73.2149 19.4346L73.8079 21.3446C67.2289 23.3866 60.8349 26.6326 54.8029 30.9936ZM55.7479 12.5606C55.4499 12.5606 55.1859 12.6196 54.9659 12.7496C54.4049 13.0806 53.9289 14.1736 53.6929 15.6726C53.1299 19.2466 53.9289 24.8046 55.8069 27.8556C60.1149 24.9666 64.5899 22.6216 69.1749 20.8426C67.4209 19.4396 64.3149 17.0176 62.0349 15.5836L61.5769 15.2946C59.6149 14.0546 57.2519 12.5606 55.7479 12.5606Z" fill="black"/>
<path d="M44.2039 100.009L43.1959 98.2796C54.4669 91.7046 66.8939 95.2726 67.4179 95.4276L66.8509 97.3456C66.7299 97.3126 54.7109 93.8776 44.2039 100.009ZM153.364 95.5246C145.565 91.4626 137.973 94.1166 137.897 94.1446L137.219 92.2626C137.562 92.1396 145.718 89.2866 154.285 93.7516L153.364 95.5246ZM68.8039 87.0586C68.6879 86.9656 57.1159 77.8436 43.6019 83.0786L42.8799 81.2136C57.4919 75.5546 69.5529 85.0946 70.0599 85.5046L68.8039 87.0586ZM136.405 84.8676L135.097 83.3536C135.442 83.0546 143.664 76.0476 153.209 77.4776L152.912 79.4566C144.294 78.1706 136.483 84.8016 136.405 84.8676Z" fill="black"/>
<path d="M259.736 204.543L267.086 202.928L264.088 189.032L266.902 188.424L269.899 202.308L272.44 201.748L267.888 210.865L266.171 210.005L268.11 206.123L264.213 208.888L263.102 207.323L266.274 205.071L260.15 206.419L259.736 204.543ZM234.64 200.866L243.309 201.451L246.616 187.591L249.417 188.257L246.225 201.648L247.618 201.744L240.696 209.216L239.285 207.912L242.236 204.727L237.721 206.289L237.092 204.475L240.769 203.203L234.509 202.781L234.64 200.866Z" fill="#231F20"/>
<path d="M201.022 111.173L214.559 122.362C216.584 109.608 221.886 98.5203 231.4 93.3843C249.364 83.6828 275.802 100.574 291.697 119.166C301.221 112.74 310.925 113.879 310.925 113.879C310.925 113.879 310.358 135.888 306.715 155.104C306.571 155.865 306.397 156.52 306.2 157.083C304.44 169.189 295.913 179.618 282.227 187.01C278.732 188.901 275.148 190.386 271.544 191.462C271.653 192.4 271.725 193.362 271.662 193.75C271.201 196.627 268.492 198.593 265.614 198.133C263.76 197.832 262.134 195.536 261.371 193.42C257.917 193.716 254.502 193.624 251.185 193.145C250.831 194.027 250.228 195.331 249.934 195.684C248.418 197.496 245.726 197.731 243.92 196.217C242.73 195.217 242.574 192.867 242.953 191.068C234.387 187.908 226.968 181.752 221.957 172.465C219.282 167.517 217.167 161.472 215.73 154.925C209.695 152.528 196.875 145.909 193.724 132.044C191.23 119.247 201.022 111.173 201.022 111.173Z" fill="#FF981D"/>
<path d="M225.226 106.066C224.042 105.964 223.002 106.839 222.9 108.022C222.797 109.205 223.673 110.246 224.855 110.348C226.038 110.451 227.078 109.575 227.181 108.392C227.284 107.21 226.408 106.169 225.226 106.066ZM239.548 107.27C238.365 107.168 237.324 108.044 237.222 109.226C237.12 110.409 237.995 111.45 239.178 111.552C240.36 111.655 241.401 110.779 241.503 109.597C241.606 108.414 240.731 107.373 239.548 107.27Z" fill="#231F20"/>
<path d="M238.068 124.331C237.504 127.245 232.824 127.916 231.294 125.336C229.763 122.757 232.653 120.479 233.382 117.726C233.378 117.725 238.8 120.553 238.068 124.331Z" fill="#EA4634"/>
<path d="M234.044 127.735C234.666 127.789 235.285 127.738 235.84 127.603C237.615 127.172 238.776 125.936 238.868 124.379L237.27 124.285C237.191 125.531 235.862 125.95 235.462 126.049C234.238 126.348 232.649 126.059 231.983 124.931C231.26 123.707 231.83 122.58 232.817 120.843C233.338 119.93 233.876 118.986 234.154 117.933C234.393 117.032 234.618 115.764 233.835 115.16C233.309 114.758 232.63 114.89 232.214 115.13L231.992 115.297L227.97 119.208L228.423 113.971L226.825 113.833L226.002 123.352L232.755 116.777C232.732 116.958 232.694 117.202 232.602 117.525C232.377 118.376 231.891 119.228 231.421 120.051C230.46 121.743 229.366 123.66 230.6 125.747C231.366 127.026 232.713 127.62 234.044 127.735Z" fill="#231F20"/>
<path d="M272.409 156.786C285.105 157.884 296.889 152.009 298.799 151.002L299.95 150.395L299.325 149.254C299.177 148.986 295.673 142.676 291.086 141.561L290.481 144.048C292.821 144.617 295.133 147.46 296.383 149.347C290.573 152.122 268.886 160.913 254.532 145.512C247.813 136.167 255.23 127.069 255.306 126.978L253.339 125.339C253.251 125.445 244.55 136.117 252.505 147.078L252.602 147.195C258.548 153.608 265.61 156.197 272.409 156.786ZM191.705 127.645C191.61 138.526 199.393 147.731 208.316 153.041C209.986 154.041 211.722 154.928 213.501 155.715C213.841 155.864 214.178 156.013 214.521 156.156C214.634 156.64 214.75 157.119 214.869 157.6C215.103 158.555 215.356 159.502 215.631 160.443C216.691 164.135 218.017 167.772 219.702 171.23C222.77 177.534 227.18 183.163 232.863 187.305C234.281 188.339 235.768 189.279 237.312 190.109C238.025 190.496 238.751 190.859 239.49 191.198C240.105 191.483 241.361 191.706 241.332 192.404C241.182 196.07 243.616 199.205 247.574 198.569C249.354 198.282 250.827 197.188 251.647 195.597C251.943 195.024 251.837 194.679 252.54 194.752C252.85 194.795 253.163 194.824 253.473 194.851C254.459 194.936 255.447 194.985 256.436 195.005C257.604 195.028 258.771 195.013 259.939 194.952C260.759 194.899 261.028 196.083 261.493 196.738C262.425 198.051 263.737 199.279 265.386 199.541C268.452 200.031 271.541 198.271 272.693 195.385C272.926 194.806 273.101 194.18 273.122 193.552C273.134 193.194 273.115 192.841 273.091 192.483C273.545 192.338 274.001 192.183 274.452 192.023C276.282 191.381 278.081 190.644 279.838 189.819C286.497 186.699 292.788 182.433 297.8 177.023C302.446 172.01 305.926 165.916 307.289 159.178C307.706 157.131 308.347 155.15 308.71 153.072C309.041 151.194 309.34 149.314 309.615 147.429C310.172 143.597 310.633 139.752 311.023 135.899C311.628 129.959 312.07 124.003 312.357 118.04C312.419 116.747 312.477 115.455 312.517 114.16C312.532 113.72 312.542 113.279 312.553 112.84C312.569 112.172 311.7 112.346 311.112 112.287C306.243 111.806 301.098 112.86 296.614 114.714C295.586 115.141 294.58 115.618 293.599 116.146C293.158 116.385 292.72 116.632 292.289 116.891C291.63 117.286 291.66 116.94 291.201 116.427C289.881 114.956 288.517 113.516 287.116 112.119C284.156 109.166 281.031 106.38 277.741 103.801C266.667 95.1169 251.246 86.3369 236.617 89.8639C222.986 93.1531 216.156 106.829 213.63 119.516C211.255 117.554 208.88 115.592 206.507 113.63C205.058 112.431 203.605 111.23 202.156 110.032C201.802 109.741 201.447 109.448 201.093 109.155C200.912 109.005 200.185 109.787 200.003 109.938C194.906 114.145 191.764 121.106 191.705 127.645ZM306.912 143.604C304.785 134.636 299.752 126.668 293.951 119.627C298.531 116.893 303.93 115.375 309.272 115.402C309.218 116.797 309.088 116.641 307.875 117.149C306.878 117.566 305.884 117.981 304.889 118.398C304.321 118.636 303.639 118.616 303.903 119.249C304.221 120.01 304.538 120.772 304.859 121.533C306.26 120.945 307.663 120.359 309.066 119.772C308.966 121.614 308.85 123.455 308.722 125.296C308.194 125.188 306.098 124.408 305.691 124.671C305.325 124.906 305.209 127.012 305.109 127.491C306.241 127.724 307.375 127.958 308.507 128.192C308.102 133.34 307.585 138.483 306.912 143.604ZM244.845 195.105C244.303 194.649 244.234 193.668 244.207 193.022C245.816 193.53 247.453 193.938 249.108 194.249C248.316 195.83 246.216 196.252 244.845 195.105C244.477 194.795 245.426 195.59 244.845 195.105ZM215.864 123.235C217.147 114.447 220.089 105.305 226.504 98.8737C230.774 94.5839 236.355 92.1629 242.43 92.006C249.447 91.8252 256.36 94.2432 262.538 97.3884C276.088 104.285 288.221 115.449 296.673 128.061C304.521 139.769 308.327 154.458 301.196 167.499C297.942 173.447 292.98 178.307 287.434 182.139C284.181 184.386 280.706 186.333 277.078 187.901C275.14 188.741 273.156 189.468 271.132 190.072C270.054 190.403 269.954 190.25 270.087 191.381C270.231 192.622 270.421 193.741 269.754 194.861C269.027 196.082 267.637 196.828 266.211 196.736C264.675 196.644 263.658 194.98 263.066 193.735C262.763 193.095 262.698 191.848 261.918 191.917C254.847 192.521 247.687 191.719 241.168 188.789C228.361 183.028 220.988 170.602 217.811 157.357C214.999 146.304 214.224 134.535 215.864 123.235ZM195.283 131.703C195.009 130.283 194.888 128.835 194.919 127.385C195.879 128.973 197.208 130.986 199.107 131.514C199.216 131.134 199.321 130.755 199.428 130.373C199.567 129.872 199.503 130.024 199.06 129.77C198.031 129.177 197.271 128.078 196.638 127.102C196.179 126.396 195.765 125.662 195.386 124.911C195.054 124.253 195.449 123.346 195.643 122.658C196.043 121.234 196.609 119.857 197.297 118.548C198.114 120.085 199.147 121.675 200.625 122.662C200.842 122.333 201.065 122.007 201.28 121.678C201.653 121.114 201.103 121.064 200.671 120.624C199.708 119.638 198.993 118.407 198.396 117.173C197.989 116.331 200.443 113.979 201.094 113.308C201.221 113.314 201.524 113.663 201.619 113.741C204.263 115.924 206.905 118.109 209.547 120.292C210.607 121.167 211.664 122.044 212.724 122.916C213.25 123.354 212.892 123.937 212.808 124.596C212.582 126.385 212.418 128.182 212.312 129.98C211.871 137.427 212.367 144.942 213.718 152.273C205.138 148.197 197.47 141.267 195.283 131.703C194.992 130.193 197.873 143.017 195.283 131.703Z" fill="black"/>
<path d="M242.471 92.3699C242.471 92.3699 245.475 83.6363 242.953 83.0979C240.428 82.5583 239.516 85.6914 237.812 86.8287C236.106 87.9648 234.789 84.64 232.154 85.3755C229.519 86.1111 231.044 90.7388 230.303 91.9604C229.554 93.1804 226.071 92.5579 224.718 93.4044C223.359 94.2504 227.675 100.084 229.265 100.222" fill="#EA4634"/>
<path d="M242.471 92.3699C242.471 92.3699 245.475 83.6363 242.953 83.0979C240.428 82.5583 239.516 85.6914 237.812 86.8287C236.106 87.9648 234.789 84.64 232.154 85.3755C229.519 86.1111 231.044 90.7388 230.303 91.9604C229.554 93.1804 226.071 92.5579 224.718 93.4044C223.359 94.2504 227.675 100.084 229.265 100.222" stroke="black" stroke-width="2" stroke-miterlimit="10" stroke-linecap="round"/>
<path d="M162.781 154.95C162.882 154.77 162.967 154.578 163.033 154.374L170.066 132.563C170.131 132.36 170.175 132.154 170.197 131.949L154.847 138.601L162.781 154.95ZM134.627 120.48C134.526 120.66 134.441 120.852 134.375 121.055L127.342 142.866C127.277 143.069 127.233 143.275 127.211 143.481L143.2 134.846L134.627 120.48Z" fill="black"/>
<path d="M129.677 145.808C128.584 145.455 127.981 144.28 128.334 143.186L135.367 121.375C135.719 120.281 136.895 119.679 137.989 120.032L167.731 129.622C168.825 129.975 169.427 131.15 169.074 132.244L162.042 154.055C161.872 154.581 161.5 155.017 161.009 155.269C160.517 155.521 159.945 155.568 159.419 155.398L129.677 145.808Z" fill="#007F2F"/>
<path d="M153.969 138.982L162.068 155.799C162.35 155.562 162.598 155.28 162.782 154.949L154.847 138.601L153.969 138.982ZM161.623 156.109L127.474 145.098C127.824 145.877 128.479 146.516 129.358 146.799L159.1 156.39C159.979 156.673 160.883 156.537 161.623 156.109ZM143.691 135.668L143.2 134.846L127.211 143.481C127.168 143.859 127.204 144.231 127.295 144.589L143.691 135.668ZM135.786 119.321L169.933 130.332C169.756 129.931 169.497 129.573 169.173 129.28C168.848 128.986 168.466 128.765 168.05 128.63L138.308 119.04C137.43 118.757 136.525 118.893 135.786 119.321ZM144.079 134.465L135.342 119.63C135.059 119.867 134.812 120.149 134.626 120.481L143.2 134.846L144.079 134.465ZM154.357 137.779L154.847 138.601L170.197 131.949C170.237 131.578 170.208 131.202 170.113 130.841L154.357 137.779ZM153.969 138.982L153.485 138.162L147.745 140.689L144.562 135.285L143.691 135.668L147.374 141.839L153.969 138.982ZM128.271 144.159L127.295 144.589C127.339 144.763 127.401 144.933 127.474 145.098L129.677 145.808C129.314 145.689 128.99 145.472 128.742 145.182C128.494 144.891 128.331 144.537 128.271 144.159ZM159.419 155.398L161.623 156.109C161.779 156.018 161.929 155.916 162.065 155.8L161.524 154.882C161.255 155.153 160.916 155.345 160.545 155.436C160.173 155.527 159.784 155.514 159.419 155.398ZM169.138 131.27L170.113 130.841C170.068 130.667 170.008 130.497 169.935 130.332L167.731 129.622C168.497 129.869 169.015 130.525 169.138 131.27ZM137.989 120.032L135.786 119.321C135.629 119.411 135.481 119.514 135.343 119.629L135.884 120.548C136.153 120.277 136.492 120.085 136.864 119.994C137.235 119.903 137.624 119.916 137.989 120.032Z" fill="black"/>
<path d="M208.814 69.0662L209.16 69.0026L209.47 69.1704L221.496 75.6799C222.457 76.2003 222.906 76.0494 223.027 75.9649C223.141 75.885 223.433 75.5294 223.258 74.4646L221.655 64.7254L221.552 64.0978L222.076 63.7382C228.595 59.2691 232.65 52.6089 232.65 45.2201C232.65 31.9232 219.337 20.8 202.5 20.8C185.629 20.8 172.35 31.9225 172.35 45.2201C172.35 58.5161 185.627 69.6054 202.5 69.6054C204.672 69.6054 206.798 69.4357 208.814 69.0662Z" fill="white" stroke="black" stroke-width="2"/>
<path d="M217 36.9991L210.001 30L203 37.0003L195.999 30L189 36.9991L196.001 43.9994L189 51.0009L195.999 58L203 50.9997L210.001 58L217 51.0009L209.999 43.9994L217 36.9991Z" fill="#A0222B"/>
<path d="M203 49.1427L196.142 56L191 50.8579L197.858 43.9994L191 37.1421L196.142 32L203 38.8573L209.858 32L215 37.1421L208.142 43.9994L215 50.8579L209.858 56L203 49.1427Z" fill="#FF0000"/>
</svg>
